<svg width="16" height="16" viewBox="0 0 16 16" fill="none" xmlns="http://www.w3.org/2000/svg">
<mask id="path-1-inside-1_99_12692" fill="white">
<path fill-rule="evenodd" clip-rule="evenodd" d="M6 3C6 3.91612 6.61596 4.68838 7.45632 4.92522L7.45221 5H4V6C4 6.55228 4.44772 7 5 7H7.3364C7.19056 9.45102 7 12.5 7 12.5C5.9233 12.5 4.66112 11.8508 3.57293 11.1116L5 10.5L1 9L1.5 12L2.3604 11.6313C3.46761 13.2435 5.29468 15 8 15C10.7053 15 12.5324 13.2435 13.6396 11.6313L14.5 12L15 9L11 10.5L12.4271 11.1116C11.3389 11.8508 10.0767 12.5 9 12.5C9 12.5 8.80944 9.45102 8.6636 7H11C11.5523 7 12 6.55228 12 6V5H8.54779L8.54368 4.92522C9.38404 4.68838 10 3.91612 10 3C10 1.89543 9.10457 1 8 1C6.89543 1 6 1.89543 6 3ZM7 3C7 3.37924 7.21111 3.70918 7.52223 3.8787C7.65526 3.54043 8.34474 3.54043 8.47777 3.8787C8.78889 3.70918 9 3.37924 9 3C9 2.44772 8.55228 2 8 2C7.44772 2 7 2.44772 7 3Z"/>
</mask>
<path fill-rule="evenodd" clip-rule="evenodd" d="M6 3C6 3.91612 6.61596 4.68838 7.45632 4.92522L7.45221 5H4V6C4 6.55228 4.44772 7 5 7H7.3364C7.19056 9.45102 7 12.5 7 12.5C5.9233 12.5 4.66112 11.8508 3.57293 11.1116L5 10.5L1 9L1.5 12L2.3604 11.6313C3.46761 13.2435 5.29468 15 8 15C10.7053 15 12.5324 13.2435 13.6396 11.6313L14.5 12L15 9L11 10.5L12.4271 11.1116C11.3389 11.8508 10.0767 12.5 9 12.5C9 12.5 8.80944 9.45102 8.6636 7H11C11.5523 7 12 6.55228 12 6V5H8.54779L8.54368 4.92522C9.38404 4.68838 10 3.91612 10 3C10 1.89543 9.10457 1 8 1C6.89543 1 6 1.89543 6 3ZM7 3C7 3.37924 7.21111 3.70918 7.52223 3.8787C7.65526 3.54043 8.34474 3.54043 8.47777 3.8787C8.78889 3.70918 9 3.37924 9 3C9 2.44772 8.55228 2 8 2C7.44772 2 7 2.44772 7 3Z" fill="#BCBCBC"/>
<path d="M7.45632 4.92522L8.45481 4.98014L7.72759 3.96271L7.45632 4.92522ZM7.45221 5V6L8.4507 5.05492L7.45221 5ZM4 5V4L3 5H4ZM7.3364 7L8.33463 7.05939L7.3364 6V7ZM7 12.5V13.5L7.99805 12.5624L7 12.5ZM3.57293 11.1116L3.17901 10.1925L3.01102 11.9388L3.57293 11.1116ZM5 10.5L5.39392 11.4191L5.35112 9.56367L5 10.5ZM1 9L1.35112 8.06367L0.0136061 9.1644L1 9ZM1.5 12L0.513606 12.1644L1.89392 12.9191L1.5 12ZM2.3604 11.6313L3.18473 11.0651L1.96648 10.7121L2.3604 11.6313ZM13.6396 11.6313L14.0335 10.7121L12.8153 11.0651L13.6396 11.6313ZM14.5 12L14.1061 12.9191L15.4864 12.1644L14.5 12ZM15 9L15.9864 9.1644L14.6489 8.06367L15 9ZM11 10.5L10.6489 9.56367L10.6061 11.4191L11 10.5ZM12.4271 11.1116L12.989 11.9388L12.821 10.1925L12.4271 11.1116ZM9 12.5L8.00195 12.5624L9 13.5V12.5ZM8.6636 7V6L7.66537 7.05939L8.6636 7ZM12 5H13L12 4V5ZM8.54779 5L7.5493 5.05492L8.54779 6V5ZM8.54368 4.92522L8.27241 3.96271L7.54519 4.98014L8.54368 4.92522ZM7.52223 3.8787L7.04377 4.75681L8.45285 4.24468L7.52223 3.8787ZM8.47777 3.8787L7.54715 4.24468L8.95623 4.75681L8.47777 3.8787ZM7.72759 3.96271C7.30689 3.84415 7 3.45662 7 3H5C5 4.37562 5.92503 5.5326 7.18506 5.88772L7.72759 3.96271ZM8.4507 5.05492L8.45481 4.98014L6.45783 4.8703L6.45372 4.94508L8.4507 5.05492ZM4 6H7.45221V4H4V6ZM5 6V5H3V6H5ZM5 6H3C3 7.10457 3.89543 8 5 8V6ZM7.3364 6H5V8H7.3364V6ZM7 12.5C7.99805 12.5624 7.99805 12.5624 7.99805 12.5623C7.99806 12.5623 7.99806 12.5623 7.99806 12.5622C7.99807 12.5621 7.99808 12.562 7.99809 12.5618C7.99811 12.5614 7.99815 12.5609 7.99819 12.5601C7.99828 12.5587 7.99842 12.5564 7.99861 12.5535C7.99897 12.5477 7.99952 12.5389 8.00023 12.5275C8.00167 12.5045 8.00379 12.4705 8.00654 12.4264C8.01203 12.3382 8.02005 12.2095 8.03013 12.0473C8.05028 11.7231 8.07867 11.2652 8.11162 10.7307C8.1775 9.66176 8.26165 8.28595 8.33463 7.05939L6.33816 6.94061C6.26531 8.16507 6.18126 9.53926 6.1154 10.6076C6.08248 11.1417 6.05411 11.5993 6.03398 11.9233C6.02391 12.0853 6.0159 12.2139 6.01041 12.302C6.00766 12.346 6.00555 12.38 6.00412 12.4029C6.0034 12.4143 6.00286 12.423 6.0025 12.4288C6.00231 12.4318 6.00218 12.434 6.00208 12.4354C6.00204 12.4362 6.002 12.4367 6.00198 12.4371C6.00197 12.4373 6.00196 12.4374 6.00196 12.4375C6.00195 12.4375 6.00195 12.4376 6.00195 12.4376C6.00195 12.4376 6.00195 12.4376 7 12.5ZM3.01102 11.9388C4.11318 12.6875 5.59581 13.5 7 13.5V11.5C6.25079 11.5 5.20906 11.0141 4.13484 10.2844L3.01102 11.9388ZM4.60608 9.58086L3.17901 10.1925L3.96685 12.0307L5.39392 11.4191L4.60608 9.58086ZM0.648876 9.93633L4.64888 11.4363L5.35112 9.56367L1.35112 8.06367L0.648876 9.93633ZM2.48639 11.8356L1.98639 8.8356L0.0136061 9.1644L0.513606 12.1644L2.48639 11.8356ZM1.96648 10.7121L1.10608 11.0809L1.89392 12.9191L2.75432 12.5504L1.96648 10.7121ZM8 14C5.78053 14 4.21612 12.567 3.18473 11.0651L1.53607 12.1974C2.71911 13.92 4.80884 16 8 16V14ZM12.8153 11.0651C11.7839 12.567 10.2195 14 8 14V16C11.1912 16 13.2809 13.92 14.4639 12.1974L12.8153 11.0651ZM13.2457 12.5504L14.1061 12.9191L14.8939 11.0809L14.0335 10.7121L13.2457 12.5504ZM15.4864 12.1644L15.9864 9.1644L14.0136 8.8356L13.5136 11.8356L15.4864 12.1644ZM14.6489 8.06367L10.6489 9.56367L11.3511 11.4363L15.3511 9.93633L14.6489 8.06367ZM10.6061 11.4191L12.0331 12.0307L12.821 10.1925L11.3939 9.58086L10.6061 11.4191ZM9 13.5C10.4042 13.5 11.8868 12.6875 12.989 11.9388L11.8652 10.2844C10.7909 11.0141 9.74921 11.5 9 11.5V13.5ZM7.66537 7.05939C7.73835 8.28595 7.8225 9.66176 7.88838 10.7307C7.92133 11.2652 7.94972 11.7231 7.96987 12.0473C7.97995 12.2095 7.98797 12.3382 7.99346 12.4264C7.99621 12.4705 7.99833 12.5045 7.99977 12.5275C8.00048 12.5389 8.00103 12.5477 8.00139 12.5535C8.00158 12.5564 8.00172 12.5587 8.00181 12.5601C8.00185 12.5609 8.00189 12.5614 8.00191 12.5618C8.00192 12.562 8.00193 12.5621 8.00194 12.5622C8.00194 12.5623 8.00194 12.5623 8.00195 12.5623C8.00195 12.5624 8.00195 12.5624 9 12.5C9.99805 12.4376 9.99805 12.4376 9.99805 12.4376C9.99805 12.4376 9.99805 12.4375 9.99804 12.4375C9.99804 12.4374 9.99803 12.4373 9.99802 12.4371C9.998 12.4367 9.99796 12.4362 9.99792 12.4354C9.99782 12.434 9.99769 12.4318 9.9975 12.4288C9.99714 12.423 9.9966 12.4143 9.99588 12.4029C9.99445 12.38 9.99234 12.346 9.98959 12.302C9.9841 12.2139 9.97609 12.0853 9.96602 11.9233C9.94588 11.5993 9.91752 11.1417 9.8846 10.6076C9.81874 9.53926 9.73469 8.16507 9.66184 6.94061L7.66537 7.05939ZM11 6H8.6636V8H11V6ZM11 6V8C12.1046 8 13 7.10457 13 6H11ZM11 5V6H13V5H11ZM8.54779 6H12V4H8.54779V6ZM7.54519 4.98014L7.5493 5.05492L9.54628 4.94508L9.54217 4.8703L7.54519 4.98014ZM9 3C9 3.45662 8.69311 3.84415 8.27241 3.96271L8.81494 5.88772C10.075 5.5326 11 4.37562 11 3H9ZM8 2C8.55228 2 9 2.44772 9 3H11C11 1.34315 9.65685 0 8 0V2ZM7 3C7 2.44772 7.44772 2 8 2V0C6.34315 0 5 1.34315 5 3H7ZM8.00069 3.00059L8 3H6C6 3.75984 6.4241 4.41917 7.04377 4.75681L8.00069 3.00059ZM9.4084 3.51272C9.11827 2.77497 8.37137 2.625 8 2.625C7.62863 2.625 6.88173 2.77497 6.5916 3.51272L8.45285 4.24468C8.37329 4.44699 8.22935 4.54663 8.15255 4.58465C8.07847 4.62131 8.02501 4.625 8 4.625C7.97499 4.625 7.92153 4.62131 7.84745 4.58465C7.77065 4.54663 7.62671 4.44699 7.54715 4.24468L9.4084 3.51272ZM8 3L7.99931 3.00059L8.95623 4.75681C9.5759 4.41917 10 3.75984 10 3H8ZM8 3H10C10 1.89543 9.10457 1 8 1V3ZM8 3V1C6.89543 1 6 1.89543 6 3H8Z" fill="url(#paint0_linear_99_12692)" mask="url(#path-1-inside-1_99_12692)"/>
<defs>
<linearGradient id="paint0_linear_99_12692" x1="15" y1="15" x2="1.89416" y2="0.207777" gradientUnits="userSpaceOnUse">
<stop stop-color="#565656"/>
<stop offset="1" stop-color="#C9C9C9"/>
</linearGradient>
</defs>
</svg>
