<svg width="16" height="16" viewBox="0 0 16 16" fill="none" xmlns="http://www.w3.org/2000/svg">
<path d="M0.5 3C0.5 2.17157 1.17157 1.5 2 1.5H14C14.8284 1.5 15.5 2.17157 15.5 3V14C15.5 14.2761 15.2761 14.5 15 14.5H1C0.723858 14.5 0.5 14.2761 0.5 14V3Z" fill="#E6E9ED" stroke="url(#paint0_linear_86_1827)"/>
<g filter="url(#filter0_i_86_1827)">
<path d="M1 3H15V14H1V3Z" fill="url(#paint1_radial_86_1827)"/>
</g>
<rect x="1" y="3" width="14" height="1" fill="url(#paint2_linear_86_1827)"/>
<circle cx="1.5" cy="2.5" r="0.5" fill="#D34F4A"/>
<circle cx="2.5" cy="2.5" r="0.5" fill="#E2AD17"/>
<circle cx="3.5" cy="2.5" r="0.5" fill="#42B03E"/>
<defs>
<filter id="filter0_i_86_1827" x="1" y="3" width="14" height="11" filterUnits="userSpaceOnUse" color-interpolation-filters="sRGB">
<feFlood flood-opacity="0" result="BackgroundImageFix"/>
<feBlend mode="normal" in="SourceGraphic" in2="BackgroundImageFix" result="shape"/>
<feColorMatrix in="SourceAlpha" type="matrix" values="0 0 0 0 0 0 0 0 0 0 0 0 0 0 0 0 0 0 127 0" result="hardAlpha"/>
<feOffset dx="-1" dy="2"/>
<feComposite in2="hardAlpha" operator="arithmetic" k2="-1" k3="1"/>
<feColorMatrix type="matrix" values="0 0 0 0 1 0 0 0 0 1 0 0 0 0 1 0 0 0 1 0"/>
<feBlend mode="normal" in2="shape" result="effect1_innerShadow_86_1827"/>
</filter>
<linearGradient id="paint0_linear_86_1827" x1="0" y1="1" x2="16.1312" y2="14.8472" gradientUnits="userSpaceOnUse">
<stop stop-color="#BBBFC3"/>
<stop offset="1" stop-color="#6C737D"/>
</linearGradient>
<radialGradient id="paint1_radial_86_1827" cx="0" cy="0" r="1" gradientUnits="userSpaceOnUse" gradientTransform="translate(15 3) rotate(90) scale(11 14)">
<stop stop-color="#DEE7F2"/>
<stop offset="1" stop-color="white"/>
</radialGradient>
<linearGradient id="paint2_linear_86_1827" x1="1" y1="3.5" x2="15" y2="3.5" gradientUnits="userSpaceOnUse">
<stop stop-color="#CED4DB"/>
<stop offset="1" stop-color="#B1BAC5"/>
</linearGradient>
</defs>
</svg>
