<svg width="16" height="16" viewBox="0 0 16 16" fill="none" xmlns="http://www.w3.org/2000/svg">
<path d="M0.5 2C0.5 1.17157 1.17157 0.5 2 0.5H11C11.8284 0.5 12.5 1.17157 12.5 2V10C12.5 10.2761 12.2761 10.5 12 10.5H1C0.723858 10.5 0.5 10.2761 0.5 10V2Z" fill="#92B9E8" stroke="url(#paint0_linear_87_1909)"/>
<g filter="url(#filter0_i_87_1909)">
<path d="M1 2H12V10H1V2Z" fill="url(#paint1_radial_87_1909)"/>
</g>
<rect x="1" y="2" width="11" height="1" fill="url(#paint2_linear_87_1909)"/>
<path d="M3.5 6C3.5 5.17157 4.17157 4.5 5 4.5H14C14.8284 4.5 15.5 5.17157 15.5 6V14C15.5 14.2761 15.2761 14.5 15 14.5H4C3.72386 14.5 3.5 14.2761 3.5 14V6Z" fill="#92B9E8" stroke="url(#paint3_linear_87_1909)"/>
<g filter="url(#filter1_i_87_1909)">
<path d="M4 6H15V14H4V6Z" fill="url(#paint4_radial_87_1909)"/>
</g>
<rect x="4" y="6" width="11" height="1" fill="url(#paint5_linear_87_1909)"/>
<defs>
<filter id="filter0_i_87_1909" x="1" y="2" width="11" height="8" filterUnits="userSpaceOnUse" color-interpolation-filters="sRGB">
<feFlood flood-opacity="0" result="BackgroundImageFix"/>
<feBlend mode="normal" in="SourceGraphic" in2="BackgroundImageFix" result="shape"/>
<feColorMatrix in="SourceAlpha" type="matrix" values="0 0 0 0 0 0 0 0 0 0 0 0 0 0 0 0 0 0 127 0" result="hardAlpha"/>
<feOffset dx="-1" dy="2"/>
<feComposite in2="hardAlpha" operator="arithmetic" k2="-1" k3="1"/>
<feColorMatrix type="matrix" values="0 0 0 0 1 0 0 0 0 1 0 0 0 0 1 0 0 0 1 0"/>
<feBlend mode="normal" in2="shape" result="effect1_innerShadow_87_1909"/>
</filter>
<filter id="filter1_i_87_1909" x="4" y="6" width="11" height="8" filterUnits="userSpaceOnUse" color-interpolation-filters="sRGB">
<feFlood flood-opacity="0" result="BackgroundImageFix"/>
<feBlend mode="normal" in="SourceGraphic" in2="BackgroundImageFix" result="shape"/>
<feColorMatrix in="SourceAlpha" type="matrix" values="0 0 0 0 0 0 0 0 0 0 0 0 0 0 0 0 0 0 127 0" result="hardAlpha"/>
<feOffset dx="-1" dy="2"/>
<feComposite in2="hardAlpha" operator="arithmetic" k2="-1" k3="1"/>
<feColorMatrix type="matrix" values="0 0 0 0 1 0 0 0 0 1 0 0 0 0 1 0 0 0 1 0"/>
<feBlend mode="normal" in2="shape" result="effect1_innerShadow_87_1909"/>
</filter>
<linearGradient id="paint0_linear_87_1909" x1="0" y1="0" x2="12.732" y2="11.3019" gradientUnits="userSpaceOnUse">
<stop stop-color="#7BA7DC"/>
<stop offset="1" stop-color="#5171A9"/>
</linearGradient>
<radialGradient id="paint1_radial_87_1909" cx="0" cy="0" r="1" gradientUnits="userSpaceOnUse" gradientTransform="translate(12 2) rotate(90) scale(8 11)">
<stop stop-color="#DEE7F2"/>
<stop offset="1" stop-color="white"/>
</radialGradient>
<linearGradient id="paint2_linear_87_1909" x1="1" y1="2.5" x2="12" y2="2.5" gradientUnits="userSpaceOnUse">
<stop stop-color="#7BA7DC"/>
<stop offset="1" stop-color="#7BA7DC"/>
</linearGradient>
<linearGradient id="paint3_linear_87_1909" x1="3" y1="4" x2="15.732" y2="15.3019" gradientUnits="userSpaceOnUse">
<stop stop-color="#7BA7DC"/>
<stop offset="1" stop-color="#5171A9"/>
</linearGradient>
<radialGradient id="paint4_radial_87_1909" cx="0" cy="0" r="1" gradientUnits="userSpaceOnUse" gradientTransform="translate(15 6) rotate(90) scale(8 11)">
<stop stop-color="#DEE7F2"/>
<stop offset="1" stop-color="white"/>
</radialGradient>
<linearGradient id="paint5_linear_87_1909" x1="4" y1="6.5" x2="15" y2="6.5" gradientUnits="userSpaceOnUse">
<stop stop-color="#7BA7DC"/>
<stop offset="1" stop-color="#7BA7DC"/>
</linearGradient>
</defs>
</svg>
