<svg width="16" height="16" viewBox="0 0 16 16" fill="none" xmlns="http://www.w3.org/2000/svg">
<g clip-path="url(#clip0_87_1910)">
<path d="M0.5 2C0.5 1.17157 1.17157 0.5 2 0.5H10C10.8284 0.5 11.5 1.17157 11.5 2V7C11.5 7.27614 11.2761 7.5 11 7.5H1C0.723858 7.5 0.5 7.27614 0.5 7V2Z" fill="#92B9E8" stroke="url(#paint0_linear_87_1910)"/>
<g filter="url(#filter0_i_87_1910)">
<path d="M1 2H11V7H1V2Z" fill="url(#paint1_radial_87_1910)"/>
</g>
<rect x="1" y="2" width="10" height="1" fill="url(#paint2_linear_87_1910)"/>
<path d="M2.5 6C2.5 5.17157 3.17157 4.5 4 4.5H12C12.8284 4.5 13.5 5.17157 13.5 6V11C13.5 11.2761 13.2761 11.5 13 11.5H3C2.72386 11.5 2.5 11.2761 2.5 11V6Z" fill="#92B9E8" stroke="url(#paint3_linear_87_1910)"/>
<g filter="url(#filter1_i_87_1910)">
<path d="M3 6H13V11H3V6Z" fill="url(#paint4_radial_87_1910)"/>
</g>
<rect x="3" y="6" width="10" height="1" fill="url(#paint5_linear_87_1910)"/>
<path d="M4.5 10C4.5 9.17157 5.17157 8.5 6 8.5H14C14.8284 8.5 15.5 9.17157 15.5 10V15C15.5 15.2761 15.2761 15.5 15 15.5H5C4.72386 15.5 4.5 15.2761 4.5 15V10Z" fill="#92B9E8" stroke="url(#paint6_linear_87_1910)"/>
<path d="M5 11H15V15H5V11Z" fill="white"/>
<rect x="5" y="10" width="10" height="1" fill="url(#paint7_linear_87_1910)"/>
</g>
<defs>
<filter id="filter0_i_87_1910" x="1" y="2" width="10" height="5" filterUnits="userSpaceOnUse" color-interpolation-filters="sRGB">
<feFlood flood-opacity="0" result="BackgroundImageFix"/>
<feBlend mode="normal" in="SourceGraphic" in2="BackgroundImageFix" result="shape"/>
<feColorMatrix in="SourceAlpha" type="matrix" values="0 0 0 0 0 0 0 0 0 0 0 0 0 0 0 0 0 0 127 0" result="hardAlpha"/>
<feOffset dx="-1" dy="2"/>
<feComposite in2="hardAlpha" operator="arithmetic" k2="-1" k3="1"/>
<feColorMatrix type="matrix" values="0 0 0 0 1 0 0 0 0 1 0 0 0 0 1 0 0 0 1 0"/>
<feBlend mode="normal" in2="shape" result="effect1_innerShadow_87_1910"/>
</filter>
<filter id="filter1_i_87_1910" x="3" y="6" width="10" height="5" filterUnits="userSpaceOnUse" color-interpolation-filters="sRGB">
<feFlood flood-opacity="0" result="BackgroundImageFix"/>
<feBlend mode="normal" in="SourceGraphic" in2="BackgroundImageFix" result="shape"/>
<feColorMatrix in="SourceAlpha" type="matrix" values="0 0 0 0 0 0 0 0 0 0 0 0 0 0 0 0 0 0 127 0" result="hardAlpha"/>
<feOffset dx="-1" dy="2"/>
<feComposite in2="hardAlpha" operator="arithmetic" k2="-1" k3="1"/>
<feColorMatrix type="matrix" values="0 0 0 0 1 0 0 0 0 1 0 0 0 0 1 0 0 0 1 0"/>
<feBlend mode="normal" in2="shape" result="effect1_innerShadow_87_1910"/>
</filter>
<linearGradient id="paint0_linear_87_1910" x1="0" y1="0" x2="9.25951" y2="10.4324" gradientUnits="userSpaceOnUse">
<stop stop-color="#7BA7DC"/>
<stop offset="1" stop-color="#5171A9"/>
</linearGradient>
<radialGradient id="paint1_radial_87_1910" cx="0" cy="0" r="1" gradientUnits="userSpaceOnUse" gradientTransform="translate(11 2) rotate(90) scale(5 10)">
<stop stop-color="#DEE7F2"/>
<stop offset="1" stop-color="white"/>
</radialGradient>
<linearGradient id="paint2_linear_87_1910" x1="1" y1="2.5" x2="11" y2="2.5" gradientUnits="userSpaceOnUse">
<stop stop-color="#7BA7DC"/>
<stop offset="1" stop-color="#7BA7DC"/>
</linearGradient>
<linearGradient id="paint3_linear_87_1910" x1="2" y1="4" x2="11.2595" y2="14.4324" gradientUnits="userSpaceOnUse">
<stop stop-color="#7BA7DC"/>
<stop offset="1" stop-color="#5171A9"/>
</linearGradient>
<radialGradient id="paint4_radial_87_1910" cx="0" cy="0" r="1" gradientUnits="userSpaceOnUse" gradientTransform="translate(13 6) rotate(90) scale(5 10)">
<stop stop-color="#DEE7F2"/>
<stop offset="1" stop-color="white"/>
</radialGradient>
<linearGradient id="paint5_linear_87_1910" x1="3" y1="6.5" x2="13" y2="6.5" gradientUnits="userSpaceOnUse">
<stop stop-color="#7BA7DC"/>
<stop offset="1" stop-color="#7BA7DC"/>
</linearGradient>
<linearGradient id="paint6_linear_87_1910" x1="4" y1="8" x2="13.2595" y2="18.4324" gradientUnits="userSpaceOnUse">
<stop stop-color="#7BA7DC"/>
<stop offset="1" stop-color="#5171A9"/>
</linearGradient>
<linearGradient id="paint7_linear_87_1910" x1="5" y1="10.5" x2="15" y2="10.5" gradientUnits="userSpaceOnUse">
<stop stop-color="#7BA7DC"/>
<stop offset="1" stop-color="#7BA7DC"/>
</linearGradient>
<clipPath id="clip0_87_1910">
<rect width="16" height="16" fill="white"/>
</clipPath>
</defs>
</svg>
