<svg width="16" height="16" viewBox="0 0 16 16" fill="none" xmlns="http://www.w3.org/2000/svg">
<path d="M0.5 3C0.5 2.17157 1.17157 1.5 2 1.5H14C14.8284 1.5 15.5 2.17157 15.5 3V14C15.5 14.2761 15.2761 14.5 15 14.5H1C0.723858 14.5 0.5 14.2761 0.5 14V3Z" fill="#92B9E8" stroke="url(#paint0_linear_85_1730)"/>
<g filter="url(#filter0_i_85_1730)">
<path d="M1 3H15V14H1V3Z" fill="url(#paint1_radial_85_1730)"/>
</g>
<rect x="1" y="3" width="14" height="1" fill="url(#paint2_linear_85_1730)"/>
<rect x="14" y="2" width="1" height="1" fill="#FF6444"/>
<rect x="12" y="2" width="1" height="1" fill="white"/>
<rect width="1" height="0.5" transform="matrix(1 0 0 -1 10 3)" fill="white"/>
<defs>
<filter id="filter0_i_85_1730" x="1" y="3" width="14" height="11" filterUnits="userSpaceOnUse" color-interpolation-filters="sRGB">
<feFlood flood-opacity="0" result="BackgroundImageFix"/>
<feBlend mode="normal" in="SourceGraphic" in2="BackgroundImageFix" result="shape"/>
<feColorMatrix in="SourceAlpha" type="matrix" values="0 0 0 0 0 0 0 0 0 0 0 0 0 0 0 0 0 0 127 0" result="hardAlpha"/>
<feOffset dx="-1" dy="2"/>
<feComposite in2="hardAlpha" operator="arithmetic" k2="-1" k3="1"/>
<feColorMatrix type="matrix" values="0 0 0 0 1 0 0 0 0 1 0 0 0 0 1 0 0 0 1 0"/>
<feBlend mode="normal" in2="shape" result="effect1_innerShadow_85_1730"/>
</filter>
<linearGradient id="paint0_linear_85_1730" x1="0" y1="1" x2="16.1312" y2="14.8472" gradientUnits="userSpaceOnUse">
<stop stop-color="#7BA7DC"/>
<stop offset="1" stop-color="#5171A9"/>
</linearGradient>
<radialGradient id="paint1_radial_85_1730" cx="0" cy="0" r="1" gradientUnits="userSpaceOnUse" gradientTransform="translate(15 3) rotate(90) scale(11 14)">
<stop stop-color="#DEE7F2"/>
<stop offset="1" stop-color="white"/>
</radialGradient>
<linearGradient id="paint2_linear_85_1730" x1="1" y1="3.5" x2="15" y2="3.5" gradientUnits="userSpaceOnUse">
<stop stop-color="#7BA7DC"/>
<stop offset="1" stop-color="#7BA7DC"/>
</linearGradient>
</defs>
</svg>
