<svg width="16" height="16" viewBox="0 0 16 16" fill="none" xmlns="http://www.w3.org/2000/svg">
<path d="M0.5 3C0.5 2.17157 1.17157 1.5 2 1.5H13C13.8284 1.5 14.5 2.17157 14.5 3V13C14.5 13.2761 14.2761 13.5 14 13.5H1C0.723858 13.5 0.5 13.2761 0.5 13V3Z" fill="#92B9E8" stroke="url(#paint0_linear_85_1728)"/>
<path d="M1 4H14V13H1V4Z" fill="white"/>
<rect x="1" y="3" width="13" height="1" fill="url(#paint1_linear_85_1728)"/>
<rect x="2" y="5" width="3" height="3" rx="1" fill="#9FD2FF"/>
<rect x="2.5" y="5.5" width="2" height="2" rx="0.5" stroke="black" stroke-opacity="0.5" style="mix-blend-mode:overlay"/>
<rect x="10" y="5" width="3" height="3" rx="1" fill="#9FD2FF"/>
<rect x="10.5" y="5.5" width="2" height="2" rx="0.5" stroke="black" stroke-opacity="0.5" style="mix-blend-mode:overlay"/>
<rect x="6" y="5" width="3" height="3" rx="1" fill="#99CF90"/>
<rect x="6.5" y="5.5" width="2" height="2" rx="0.5" stroke="black" stroke-opacity="0.5" style="mix-blend-mode:overlay"/>
<rect x="2" y="9" width="3" height="3" rx="1" fill="#99CF90"/>
<rect x="2.5" y="9.5" width="2" height="2" rx="0.5" stroke="black" stroke-opacity="0.5" style="mix-blend-mode:overlay"/>
<rect x="6" y="9" width="3" height="3" rx="1" fill="#FFAA73"/>
<rect x="6.5" y="9.5" width="2" height="2" rx="0.5" stroke="black" stroke-opacity="0.5" style="mix-blend-mode:overlay"/>
<rect x="10" y="9" width="3" height="3" rx="1" fill="#FFEB9B"/>
<rect x="10.5" y="9.5" width="2" height="2" rx="0.5" stroke="black" stroke-opacity="0.5" style="mix-blend-mode:overlay"/>
<defs>
<linearGradient id="paint0_linear_85_1728" x1="0" y1="1" x2="15" y2="14" gradientUnits="userSpaceOnUse">
<stop stop-color="#7BA7DC"/>
<stop offset="1" stop-color="#5171A9"/>
</linearGradient>
<linearGradient id="paint1_linear_85_1728" x1="1" y1="3.5" x2="14" y2="3.5" gradientUnits="userSpaceOnUse">
<stop stop-color="#7BA7DC"/>
<stop offset="1" stop-color="#7BA7DC"/>
</linearGradient>
</defs>
</svg>
