<svg width="16" height="16" viewBox="0 0 16 16" fill="none" xmlns="http://www.w3.org/2000/svg">
<path d="M0.5 3C0.5 2.17157 1.17157 1.5 2 1.5H6C6.82843 1.5 7.5 2.17157 7.5 3V13C7.5 13.2761 7.27614 13.5 7 13.5H1C0.723858 13.5 0.5 13.2761 0.5 13V3Z" fill="#92B9E8" stroke="url(#paint0_linear_117_2529)"/>
<path d="M1 4H7V13H1V4Z" fill="white"/>
<rect x="1" y="3" width="6" height="1" fill="url(#paint1_linear_117_2529)"/>
<path d="M7.5 3C7.5 2.17157 8.17157 1.5 9 1.5H13C13.8284 1.5 14.5 2.17157 14.5 3V13C14.5 13.2761 14.2761 13.5 14 13.5H8C7.72386 13.5 7.5 13.2761 7.5 13V3Z" fill="#92B9E8" stroke="url(#paint2_linear_117_2529)"/>
<path d="M8 4H14V13H8V4Z" fill="white"/>
<rect x="8" y="3" width="6" height="1" fill="url(#paint3_linear_117_2529)"/>
<defs>
<linearGradient id="paint0_linear_117_2529" x1="0" y1="1" x2="11.5428" y2="6.33533" gradientUnits="userSpaceOnUse">
<stop stop-color="#7BA7DC"/>
<stop offset="1" stop-color="#5171A9"/>
</linearGradient>
<linearGradient id="paint1_linear_117_2529" x1="1" y1="3.5" x2="7" y2="3.5" gradientUnits="userSpaceOnUse">
<stop stop-color="#7BA7DC"/>
<stop offset="1" stop-color="#7BA7DC"/>
</linearGradient>
<linearGradient id="paint2_linear_117_2529" x1="7" y1="1" x2="18.5428" y2="6.33533" gradientUnits="userSpaceOnUse">
<stop stop-color="#7BA7DC"/>
<stop offset="1" stop-color="#5171A9"/>
</linearGradient>
<linearGradient id="paint3_linear_117_2529" x1="8" y1="3.5" x2="14" y2="3.5" gradientUnits="userSpaceOnUse">
<stop stop-color="#7BA7DC"/>
<stop offset="1" stop-color="#7BA7DC"/>
</linearGradient>
</defs>
</svg>
