<svg width="16" height="16" viewBox="0 0 16 16" fill="none" xmlns="http://www.w3.org/2000/svg">
<path d="M0.5 3C0.5 2.17157 1.17157 1.5 2 1.5H13C13.8284 1.5 14.5 2.17157 14.5 3V13C14.5 13.2761 14.2761 13.5 14 13.5H1C0.723858 13.5 0.5 13.2761 0.5 13V3Z" fill="#92B9E8" stroke="url(#paint0_linear_85_1725)"/>
<path d="M1 4H14V13H1V4Z" fill="white"/>
<rect x="1" y="3" width="13" height="1" fill="url(#paint1_linear_85_1725)"/>
<rect x="2" y="5" width="2" height="2" rx="0.5" fill="#D9D9D9"/>
<rect x="11" y="5" width="2" height="2" rx="0.5" fill="#D9D9D9"/>
<rect x="7" y="10" width="2" height="2" rx="0.5" transform="rotate(180 7 10)" fill="#D9D9D9"/>
<rect x="13" y="13" width="2" height="2" rx="0.5" transform="rotate(180 13 13)" fill="#D9D9D9"/>
<rect x="10" y="13" width="2" height="2" rx="0.5" transform="rotate(180 10 13)" fill="#D9D9D9"/>
<rect x="10" y="10" width="2" height="2" rx="0.5" transform="rotate(180 10 10)" fill="#FFAA73"/>
<rect x="10" y="7" width="2" height="2" rx="0.5" transform="rotate(180 10 7)" fill="#99CF90"/>
<rect x="7" y="13" width="2" height="2" rx="0.5" transform="rotate(180 7 13)" fill="#99CF90"/>
<rect x="4" y="13" width="2" height="2" rx="0.5" transform="rotate(180 4 13)" fill="#FE6F6B"/>
<rect x="4" y="10" width="2" height="2" rx="0.5" transform="rotate(180 4 10)" fill="#60B0EB"/>
<rect x="7" y="7" width="2" height="2" rx="0.5" transform="rotate(180 7 7)" fill="#60B0EB"/>
<rect x="13" y="10" width="2" height="2" rx="0.5" transform="rotate(180 13 10)" fill="#F0D567"/>
<defs>
<linearGradient id="paint0_linear_85_1725" x1="0" y1="1" x2="15" y2="14" gradientUnits="userSpaceOnUse">
<stop stop-color="#7BA7DC"/>
<stop offset="1" stop-color="#5171A9"/>
</linearGradient>
<linearGradient id="paint1_linear_85_1725" x1="1" y1="3.5" x2="14" y2="3.5" gradientUnits="userSpaceOnUse">
<stop stop-color="#7BA7DC"/>
<stop offset="1" stop-color="#7BA7DC"/>
</linearGradient>
</defs>
</svg>
