<svg width="16" height="16" viewBox="0 0 16 16" fill="none" xmlns="http://www.w3.org/2000/svg">
<path d="M0.5 3C0.5 2.17157 1.17157 1.5 2 1.5H13C13.8284 1.5 14.5 2.17157 14.5 3V13C14.5 13.2761 14.2761 13.5 14 13.5H1C0.723858 13.5 0.5 13.2761 0.5 13V3Z" fill="#92B9E8" stroke="url(#paint0_linear_85_1726)"/>
<path d="M1 4H14V13H1V4Z" fill="white"/>
<rect x="1" y="3" width="13" height="1" fill="url(#paint1_linear_85_1726)"/>
<rect x="2" y="11" width="2" height="1" rx="0.3" fill="#60B0EB"/>
<rect x="5" y="11" width="2" height="1" rx="0.3" fill="#F2CD55"/>
<rect x="8" y="11" width="2" height="1" rx="0.3" fill="#84C37E"/>
<rect x="11" y="11" width="2" height="1" rx="0.3" fill="#FE6F6B"/>
<mask id="mask0_85_1726" style="mask-type:alpha" maskUnits="userSpaceOnUse" x="3" y="5" width="9" height="5">
<rect x="3" y="5" width="9" height="5" fill="url(#paint2_linear_85_1726)"/>
</mask>
<g mask="url(#mask0_85_1726)">
<rect x="3" y="5" width="9" height="5" fill="url(#paint3_linear_85_1726)"/>
<path d="M2.99999 10C2.69529 10 2 8.75 2 8.125C2 7.5 2.44054 6.25 5 6.25C7.55945 6.25 10.3242 8.75 12 10H2.99999Z" fill="url(#paint4_linear_85_1726)"/>
<circle cx="11" cy="5" r="2" fill="#F8E074"/>
</g>
<defs>
<linearGradient id="paint0_linear_85_1726" x1="0" y1="1" x2="15" y2="14" gradientUnits="userSpaceOnUse">
<stop stop-color="#7BA7DC"/>
<stop offset="1" stop-color="#5171A9"/>
</linearGradient>
<linearGradient id="paint1_linear_85_1726" x1="1" y1="3.5" x2="14" y2="3.5" gradientUnits="userSpaceOnUse">
<stop stop-color="#7BA7DC"/>
<stop offset="1" stop-color="#7BA7DC"/>
</linearGradient>
<linearGradient id="paint2_linear_85_1726" x1="12" y1="7.5" x2="3" y2="7.5" gradientUnits="userSpaceOnUse">
<stop stop-color="#3CA5E9"/>
<stop offset="1" stop-color="#75C4FA"/>
</linearGradient>
<linearGradient id="paint3_linear_85_1726" x1="12" y1="10" x2="2.43183" y2="6.59798" gradientUnits="userSpaceOnUse">
<stop stop-color="#31A1EA"/>
<stop offset="0.600515" stop-color="#6EC0F6"/>
<stop offset="1" stop-color="#97D5FF"/>
</linearGradient>
<linearGradient id="paint4_linear_85_1726" x1="5" y1="6.25" x2="4.23045" y2="9.94384" gradientUnits="userSpaceOnUse">
<stop offset="0.09375" stop-color="#28BA42"/>
<stop offset="1" stop-color="#96F15E"/>
</linearGradient>
</defs>
</svg>
