<svg width="16" height="16" viewBox="0 0 16 16" fill="none" xmlns="http://www.w3.org/2000/svg">
<path d="M0.5 3C0.5 2.17157 1.17157 1.5 2 1.5H13C13.8284 1.5 14.5 2.17157 14.5 3V13C14.5 13.2761 14.2761 13.5 14 13.5H1C0.723858 13.5 0.5 13.2761 0.5 13V3Z" fill="#92B9E8" stroke="url(#paint0_linear_85_1715)"/>
<g filter="url(#filter0_i_85_1715)">
<path d="M7 3H14V13H7V3Z" fill="url(#paint1_radial_85_1715)"/>
</g>
<path d="M1 4H6V13H1V4Z" fill="white"/>
<path d="M6.5 3V13" stroke="#7BA7DC"/>
<rect x="1" y="3" width="13" height="1" fill="url(#paint2_linear_85_1715)"/>
<rect x="2.5" y="5.5" width="2" height="2" rx="0.5" fill="#92B9E8" stroke="#7BA7DC"/>
<rect x="2.5" y="9.5" width="2" height="2" rx="0.5" fill="#92B9E8" stroke="#7BA7DC"/>
<defs>
<filter id="filter0_i_85_1715" x="7" y="3" width="7" height="10" filterUnits="userSpaceOnUse" color-interpolation-filters="sRGB">
<feFlood flood-opacity="0" result="BackgroundImageFix"/>
<feBlend mode="normal" in="SourceGraphic" in2="BackgroundImageFix" result="shape"/>
<feColorMatrix in="SourceAlpha" type="matrix" values="0 0 0 0 0 0 0 0 0 0 0 0 0 0 0 0 0 0 127 0" result="hardAlpha"/>
<feOffset dx="-1" dy="2"/>
<feComposite in2="hardAlpha" operator="arithmetic" k2="-1" k3="1"/>
<feColorMatrix type="matrix" values="0 0 0 0 1 0 0 0 0 1 0 0 0 0 1 0 0 0 1 0"/>
<feBlend mode="normal" in2="shape" result="effect1_innerShadow_85_1715"/>
</filter>
<linearGradient id="paint0_linear_85_1715" x1="0" y1="1" x2="15" y2="14" gradientUnits="userSpaceOnUse">
<stop stop-color="#7BA7DC"/>
<stop offset="1" stop-color="#5171A9"/>
</linearGradient>
<radialGradient id="paint1_radial_85_1715" cx="0" cy="0" r="1" gradientUnits="userSpaceOnUse" gradientTransform="translate(14 3) rotate(90) scale(10 7)">
<stop stop-color="#DEE7F2"/>
<stop offset="1" stop-color="white"/>
</radialGradient>
<linearGradient id="paint2_linear_85_1715" x1="1" y1="3.5" x2="14" y2="3.5" gradientUnits="userSpaceOnUse">
<stop stop-color="#7BA7DC"/>
<stop offset="1" stop-color="#7BA7DC"/>
</linearGradient>
</defs>
</svg>
