<svg width="16" height="16" viewBox="0 0 16 16" fill="none" xmlns="http://www.w3.org/2000/svg">
<g filter="url(#filter0_i_85_1709)">
<path d="M10 1L10 3L8 3C4.68629 3 2 5.68629 2 9L2 16L6 16L6 9C6 7.89543 6.89543 7 8 7L10 7L10 9L14 5L10 1Z" fill="#82C27C"/>
</g>
<path d="M10 3.5C10.2761 3.5 10.5 3.27614 10.5 3L10.5 2.20711L13.2929 5L10.5 7.79289L10.5 7C10.5 6.72386 10.2761 6.5 10 6.5L8 6.5C6.61929 6.5 5.5 7.61929 5.5 9L5.5 15.5L2.5 15.5L2.5 9C2.5 5.96243 4.96243 3.5 8 3.5L10 3.5Z" stroke="url(#paint0_linear_85_1709)" stroke-linejoin="round"/>
<defs>
<filter id="filter0_i_85_1709" x="2" y="1" width="13" height="16" filterUnits="userSpaceOnUse" color-interpolation-filters="sRGB">
<feFlood flood-opacity="0" result="BackgroundImageFix"/>
<feBlend mode="normal" in="SourceGraphic" in2="BackgroundImageFix" result="shape"/>
<feColorMatrix in="SourceAlpha" type="matrix" values="0 0 0 0 0 0 0 0 0 0 0 0 0 0 0 0 0 0 127 0" result="hardAlpha"/>
<feOffset dx="1" dy="1"/>
<feGaussianBlur stdDeviation="1"/>
<feComposite in2="hardAlpha" operator="arithmetic" k2="-1" k3="1"/>
<feColorMatrix type="matrix" values="0 0 0 0 0.71381 0 0 0 0 0.864312 0 0 0 0 0.687251 0 0 0 1 0"/>
<feBlend mode="normal" in2="shape" result="effect1_innerShadow_85_1709"/>
</filter>
<linearGradient id="paint0_linear_85_1709" x1="14" y1="17" x2="4.31654" y2="-0.296889" gradientUnits="userSpaceOnUse">
<stop offset="0.247441" stop-color="#2A6B26"/>
<stop offset="0.806397" stop-color="#80C178"/>
</linearGradient>
</defs>
</svg>
