<svg width="16" height="16" viewBox="0 0 16 16" fill="none" xmlns="http://www.w3.org/2000/svg">
<g filter="url(#filter0_i_85_1711)">
<path d="M7 16V14L8 14C11.3137 14 14 11.3137 14 8C14 4.68629 11.3137 2 8 2C4.68629 2 2 4.68629 2 8L6 8C6 6.89543 6.89543 6 8 6C9.10457 6 10 6.89543 10 8C10 9.10457 9.10457 10 8 10L7 10V8L3 12L7 16Z" fill="#82C27C"/>
</g>
<path d="M6.5 14V14.7929L3.70711 12L6.5 9.20711V10C6.5 10.1326 6.55268 10.2598 6.64645 10.3536C6.74021 10.4473 6.86739 10.5 7 10.5L8 10.5C9.38071 10.5 10.5 9.38071 10.5 8C10.5 6.61929 9.38071 5.5 8 5.5C6.79052 5.5 5.78164 6.35888 5.55001 7.5L2.52242 7.5C2.77504 4.69675 5.13098 2.5 8 2.5C11.0376 2.5 13.5 4.96243 13.5 8C13.5 11.0376 11.0376 13.5 8 13.5L7 13.5C6.72386 13.5 6.5 13.7239 6.5 14Z" stroke="url(#paint0_linear_85_1711)" stroke-linejoin="round"/>
<defs>
<filter id="filter0_i_85_1711" x="2" y="2" width="13" height="15" filterUnits="userSpaceOnUse" color-interpolation-filters="sRGB">
<feFlood flood-opacity="0" result="BackgroundImageFix"/>
<feBlend mode="normal" in="SourceGraphic" in2="BackgroundImageFix" result="shape"/>
<feColorMatrix in="SourceAlpha" type="matrix" values="0 0 0 0 0 0 0 0 0 0 0 0 0 0 0 0 0 0 127 0" result="hardAlpha"/>
<feOffset dx="1" dy="1"/>
<feGaussianBlur stdDeviation="1"/>
<feComposite in2="hardAlpha" operator="arithmetic" k2="-1" k3="1"/>
<feColorMatrix type="matrix" values="0 0 0 0 0.71381 0 0 0 0 0.864312 0 0 0 0 0.687251 0 0 0 1 0"/>
<feBlend mode="normal" in2="shape" result="effect1_innerShadow_85_1711"/>
</filter>
<linearGradient id="paint0_linear_85_1711" x1="2" y1="2" x2="11.9466" y2="17.3321" gradientUnits="userSpaceOnUse">
<stop offset="0.13892" stop-color="#72C466"/>
<stop offset="0.779" stop-color="#215F1E"/>
</linearGradient>
</defs>
</svg>
