<svg width="16" height="16" viewBox="0 0 16 16" fill="none" xmlns="http://www.w3.org/2000/svg">
<g filter="url(#filter0_i_85_1699)">
<path d="M6 6.3915C6 7.08108 5.64476 7.72202 5.06 8.0875L4.544 8.41C2.96141 9.39912 2 11.1337 2 13V15H6V13V12.612C6 12.2202 6.15567 11.8443 6.43278 11.5672C7.29833 10.7017 8.70167 10.7017 9.56722 11.5672C9.84433 11.8443 10 12.2202 10 12.612V13V15H14V13C14 11.1337 13.0386 9.39912 11.456 8.41L10.94 8.0875C10.3552 7.72202 10 7.08108 10 6.3915V5H12L8 1L4 5H6V6.3915Z" fill="#82C27C"/>
</g>
<path d="M2.5 13V14.5H5.5V13V12.612C5.5 12.0875 5.70835 11.5845 6.07922 11.2137C7.14004 10.1529 8.85996 10.1529 9.92078 11.2137C10.2916 11.5845 10.5 12.0875 10.5 12.612V13V14.5H13.5V13C13.5 11.3061 12.6274 9.73175 11.191 8.834L10.675 8.5115C9.94405 8.05465 9.5 7.25348 9.5 6.3915V5C9.5 4.72386 9.72386 4.5 10 4.5H10.7929L8 1.70711L5.20711 4.5H6C6.27614 4.5 6.5 4.72386 6.5 5V6.3915C6.5 7.25348 6.05595 8.05465 5.325 8.5115L4.809 8.834C3.3726 9.73175 2.5 11.3061 2.5 13Z" stroke="url(#paint0_linear_85_1699)" stroke-linejoin="round"/>
<defs>
<filter id="filter0_i_85_1699" x="2" y="1" width="13" height="15" filterUnits="userSpaceOnUse" color-interpolation-filters="sRGB">
<feFlood flood-opacity="0" result="BackgroundImageFix"/>
<feBlend mode="normal" in="SourceGraphic" in2="BackgroundImageFix" result="shape"/>
<feColorMatrix in="SourceAlpha" type="matrix" values="0 0 0 0 0 0 0 0 0 0 0 0 0 0 0 0 0 0 127 0" result="hardAlpha"/>
<feOffset dx="1" dy="1"/>
<feGaussianBlur stdDeviation="1"/>
<feComposite in2="hardAlpha" operator="arithmetic" k2="-1" k3="1"/>
<feColorMatrix type="matrix" values="0 0 0 0 0.71381 0 0 0 0 0.864312 0 0 0 0 0.687251 0 0 0 1 0"/>
<feBlend mode="normal" in2="shape" result="effect1_innerShadow_85_1699"/>
</filter>
<linearGradient id="paint0_linear_85_1699" x1="2" y1="1" x2="12.1281" y2="16.2437" gradientUnits="userSpaceOnUse">
<stop offset="0.227944" stop-color="#72C466"/>
<stop offset="1" stop-color="#215F1E"/>
</linearGradient>
</defs>
</svg>
