<svg width="16" height="16" viewBox="0 0 16 16" fill="none" xmlns="http://www.w3.org/2000/svg">
<g filter="url(#filter0_i_85_1701)">
<path fill-rule="evenodd" clip-rule="evenodd" d="M2 5V5.67451C2 7.74325 3.06572 9.66607 4.82001 10.7625L5.06 10.9125C5.64476 11.278 6 11.9189 6 12.6085V15H10V12.6085C10 11.9189 10.3552 11.278 10.94 10.9125L11.18 10.7625C12.9343 9.66607 14 7.74325 14 5.67451V5H16L12 1L8 5L4 1L0 5H2ZM8 5H10V6.38796C10 6.77984 9.84433 7.15567 9.56722 7.43278C8.70167 8.29833 7.29833 8.29833 6.43278 7.43278C6.15567 7.15567 6 6.77984 6 6.38796V5H8Z" fill="#82C27C"/>
</g>
<path d="M2.5 5C2.5 4.72386 2.27614 4.5 2 4.5H1.20711L4 1.70711L6.79289 4.5H6C5.72386 4.5 5.5 4.72386 5.5 5V6.38796C5.5 6.91245 5.70835 7.41546 6.07922 7.78633C7.14004 8.84715 8.85996 8.84715 9.92078 7.78633C10.2916 7.41546 10.5 6.91245 10.5 6.38796V5C10.5 4.72386 10.2761 4.5 10 4.5H9.20711L12 1.70711L14.7929 4.5H14C13.7239 4.5 13.5 4.72386 13.5 5V5.67451C13.5 7.57086 12.5231 9.33344 10.915 10.3385L10.675 10.4885C9.94405 10.9453 9.5 11.7465 9.5 12.6085V14.5H6.5V12.6085C6.5 11.7465 6.05595 10.9453 5.325 10.4885L5.08501 10.3385C3.47691 9.33344 2.5 7.57086 2.5 5.67451V5Z" stroke="url(#paint0_linear_85_1701)" stroke-linejoin="round"/>
<defs>
<filter id="filter0_i_85_1701" x="0" y="1" width="17" height="15" filterUnits="userSpaceOnUse" color-interpolation-filters="sRGB">
<feFlood flood-opacity="0" result="BackgroundImageFix"/>
<feBlend mode="normal" in="SourceGraphic" in2="BackgroundImageFix" result="shape"/>
<feColorMatrix in="SourceAlpha" type="matrix" values="0 0 0 0 0 0 0 0 0 0 0 0 0 0 0 0 0 0 127 0" result="hardAlpha"/>
<feOffset dx="1" dy="1"/>
<feGaussianBlur stdDeviation="1"/>
<feComposite in2="hardAlpha" operator="arithmetic" k2="-1" k3="1"/>
<feColorMatrix type="matrix" values="0 0 0 0 0.71381 0 0 0 0 0.864312 0 0 0 0 0.687251 0 0 0 1 0"/>
<feBlend mode="normal" in2="shape" result="effect1_innerShadow_85_1701"/>
</filter>
<linearGradient id="paint0_linear_85_1701" x1="0" y1="1" x2="11.1022" y2="18.1674" gradientUnits="userSpaceOnUse">
<stop offset="0.12473" stop-color="#72C466"/>
<stop offset="0.812949" stop-color="#215F1E"/>
</linearGradient>
</defs>
</svg>
