<svg width="16" height="16" viewBox="0 0 16 16" fill="none" xmlns="http://www.w3.org/2000/svg">
<g filter="url(#filter0_i_85_1707)">
<path d="M5 16V14L8 14H9C12.3137 14 15 11.3137 15 8C15 4.68629 12.3137 2 9 2L2 2L2 6L9 6C10.1046 6 11 6.89543 11 8C11 9.10457 10.1046 10 9 10H8H5V8L1 12L5 16Z" fill="#82C27C"/>
</g>
<path d="M5 13.5C4.72386 13.5 4.5 13.7239 4.5 14V14.7929L1.70711 12L4.5 9.20711V10C4.5 10.2761 4.72386 10.5 5 10.5H8H9C10.3807 10.5 11.5 9.38071 11.5 8C11.5 6.61929 10.3807 5.5 9 5.5L2.5 5.5L2.5 2.5L9 2.5C12.0376 2.5 14.5 4.96243 14.5 8C14.5 11.0376 12.0376 13.5 9 13.5H8L5 13.5Z" stroke="url(#paint0_linear_85_1707)" stroke-linejoin="round"/>
<defs>
<filter id="filter0_i_85_1707" x="1" y="2" width="15" height="15" filterUnits="userSpaceOnUse" color-interpolation-filters="sRGB">
<feFlood flood-opacity="0" result="BackgroundImageFix"/>
<feBlend mode="normal" in="SourceGraphic" in2="BackgroundImageFix" result="shape"/>
<feColorMatrix in="SourceAlpha" type="matrix" values="0 0 0 0 0 0 0 0 0 0 0 0 0 0 0 0 0 0 127 0" result="hardAlpha"/>
<feOffset dx="1" dy="1"/>
<feGaussianBlur stdDeviation="1"/>
<feComposite in2="hardAlpha" operator="arithmetic" k2="-1" k3="1"/>
<feColorMatrix type="matrix" values="0 0 0 0 0.71381 0 0 0 0 0.864312 0 0 0 0 0.687251 0 0 0 1 0"/>
<feBlend mode="normal" in2="shape" result="effect1_innerShadow_85_1707"/>
</filter>
<linearGradient id="paint0_linear_85_1707" x1="1" y1="2" x2="12.9114" y2="17.5953" gradientUnits="userSpaceOnUse">
<stop stop-color="#72C466"/>
<stop offset="1" stop-color="#214F1E"/>
</linearGradient>
</defs>
</svg>
