<svg width="16" height="16" viewBox="0 0 16 16" fill="none" xmlns="http://www.w3.org/2000/svg">
<g clip-path="url(#clip0_85_1702)">
<mask id="path-1-inside-1_85_1702" fill="white">
<path fill-rule="evenodd" clip-rule="evenodd" d="M0 2.30769L2.30769 4.61538L0.923077 6H6V0.923077L4.61538 2.30769L2.30769 0L0 2.30769ZM13.6923 0L11.3846 2.30769L10 0.923077V6H15.0769L13.6923 4.61538L16 2.30769L13.6923 0ZM4.61538 13.6923L2.30769 16L0 13.6923L2.30769 11.3846L0.923077 10H6V15.0769L4.61538 13.6923ZM16 13.6923L13.6923 11.3846L15.0769 10H10V15.0769L11.3846 13.6923L13.6923 16L16 13.6923Z"/>
</mask>
<g filter="url(#filter0_i_85_1702)">
<path fill-rule="evenodd" clip-rule="evenodd" d="M0 2.30769L2.30769 4.61538L0.923077 6H6V0.923077L4.61538 2.30769L2.30769 0L0 2.30769ZM13.6923 0L11.3846 2.30769L10 0.923077V6H15.0769L13.6923 4.61538L16 2.30769L13.6923 0ZM4.61538 13.6923L2.30769 16L0 13.6923L2.30769 11.3846L0.923077 10H6V15.0769L4.61538 13.6923ZM16 13.6923L13.6923 11.3846L15.0769 10H10V15.0769L11.3846 13.6923L13.6923 16L16 13.6923Z" fill="#82C27C"/>
</g>
<path d="M2.30769 4.61538L3.0148 5.32249C3.40532 4.93197 3.40532 4.2988 3.0148 3.90828L2.30769 4.61538ZM0 2.30769L-0.707107 1.60059C-1.09763 1.99111 -1.09763 2.62427 -0.707107 3.0148L0 2.30769ZM0.923077 6L0.21597 5.29289C-0.0700279 5.57889 -0.155584 6.00901 -0.000802601 6.38268C0.153978 6.75636 0.518615 7 0.923077 7V6ZM6 6V7C6.55228 7 7 6.55228 7 6H6ZM6 0.923077H7C7 0.518615 6.75636 0.153979 6.38268 -0.00080241C6.00901 -0.155583 5.57889 -0.0700277 5.29289 0.21597L6 0.923077ZM4.61538 2.30769L3.90828 3.0148C4.2988 3.40532 4.93197 3.40532 5.32249 3.0148L4.61538 2.30769ZM2.30769 0L3.0148 -0.707107C2.62427 -1.09763 1.99111 -1.09763 1.60059 -0.707107L2.30769 0ZM11.3846 2.30769L10.6775 3.0148C10.865 3.20234 11.1194 3.30769 11.3846 3.30769C11.6498 3.30769 11.9042 3.20234 12.0917 3.0148L11.3846 2.30769ZM13.6923 0L14.3994 -0.707107C14.0089 -1.09763 13.3757 -1.09763 12.9852 -0.707107L13.6923 0ZM10 0.923077L10.7071 0.21597C10.4211 -0.0700278 9.99099 -0.155584 9.61732 -0.000802634C9.24364 0.153978 9 0.518615 9 0.923077H10ZM10 6H9C9 6.55228 9.44771 7 10 7V6ZM15.0769 6V7C15.4814 7 15.846 6.75636 16.0008 6.38268C16.1556 6.00901 16.07 5.57889 15.784 5.29289L15.0769 6ZM13.6923 4.61538L12.9852 3.90828C12.7977 4.09581 12.6923 4.35017 12.6923 4.61538C12.6923 4.8806 12.7977 5.13495 12.9852 5.32249L13.6923 4.61538ZM16 2.30769L16.7071 3.0148C16.8946 2.82726 17 2.57291 17 2.30769C17 2.04248 16.8946 1.78812 16.7071 1.60059L16 2.30769ZM2.30769 16L1.60059 16.7071C1.78812 16.8946 2.04248 17 2.30769 17C2.57291 17 2.82726 16.8946 3.0148 16.7071L2.30769 16ZM4.61538 13.6923L5.32249 12.9852C5.13495 12.7977 4.8806 12.6923 4.61538 12.6923C4.35017 12.6923 4.09581 12.7977 3.90828 12.9852L4.61538 13.6923ZM0 13.6923L-0.707107 12.9852C-1.09763 13.3757 -1.09763 14.0089 -0.707107 14.3994L0 13.6923ZM2.30769 11.3846L3.0148 12.0917C3.20234 11.9042 3.30769 11.6498 3.30769 11.3846C3.30769 11.1194 3.20234 10.865 3.0148 10.6775L2.30769 11.3846ZM0.923077 10V9C0.518615 9 0.153979 9.24364 -0.000802442 9.61732C-0.155583 9.99099 -0.0700276 10.4211 0.21597 10.7071L0.923077 10ZM6 10H7C7 9.44771 6.55228 9 6 9V10ZM6 15.0769L5.29289 15.784C5.57889 16.07 6.00901 16.1556 6.38268 16.0008C6.75636 15.846 7 15.4814 7 15.0769H6ZM13.6923 11.3846L12.9852 10.6775C12.7977 10.865 12.6923 11.1194 12.6923 11.3846C12.6923 11.6498 12.7977 11.9042 12.9852 12.0917L13.6923 11.3846ZM16 13.6923L16.7071 14.3994C17.0976 14.0089 17.0976 13.3757 16.7071 12.9852L16 13.6923ZM15.0769 10L15.784 10.7071C16.07 10.4211 16.1556 9.99099 16.0008 9.61732C15.846 9.24364 15.4814 9 15.0769 9V10ZM10 10V9C9.44771 9 9 9.44771 9 10H10ZM10 15.0769H9C9 15.4814 9.24364 15.846 9.61732 16.0008C9.99099 16.1556 10.4211 16.07 10.7071 15.784L10 15.0769ZM11.3846 13.6923L12.0917 12.9852C11.9042 12.7977 11.6498 12.6923 11.3846 12.6923C11.1194 12.6923 10.865 12.7977 10.6775 12.9852L11.3846 13.6923ZM13.6923 16L12.9852 16.7071C13.3757 17.0976 14.0089 17.0976 14.3994 16.7071L13.6923 16ZM3.0148 3.90828L0.707107 1.60059L-0.707107 3.0148L1.60059 5.32249L3.0148 3.90828ZM1.63018 6.70711L3.0148 5.32249L1.60059 3.90828L0.21597 5.29289L1.63018 6.70711ZM6 5H0.923077V7H6V5ZM5 0.923077V6H7V0.923077H5ZM5.32249 3.0148L6.70711 1.63018L5.29289 0.21597L3.90828 1.60059L5.32249 3.0148ZM1.60059 0.707107L3.90828 3.0148L5.32249 1.60059L3.0148 -0.707107L1.60059 0.707107ZM0.707107 3.0148L3.0148 0.707107L1.60059 -0.707107L-0.707107 1.60059L0.707107 3.0148ZM12.0917 3.0148L14.3994 0.707107L12.9852 -0.707107L10.6775 1.60059L12.0917 3.0148ZM9.29289 1.63018L10.6775 3.0148L12.0917 1.60059L10.7071 0.21597L9.29289 1.63018ZM11 6V0.923077H9V6H11ZM15.0769 5H10V7H15.0769V5ZM12.9852 5.32249L14.3698 6.70711L15.784 5.29289L14.3994 3.90828L12.9852 5.32249ZM15.2929 1.60059L12.9852 3.90828L14.3994 5.32249L16.7071 3.0148L15.2929 1.60059ZM12.9852 0.707107L15.2929 3.0148L16.7071 1.60059L14.3994 -0.707107L12.9852 0.707107ZM3.0148 16.7071L5.32249 14.3994L3.90828 12.9852L1.60059 15.2929L3.0148 16.7071ZM-0.707107 14.3994L1.60059 16.7071L3.0148 15.2929L0.707107 12.9852L-0.707107 14.3994ZM1.60059 10.6775L-0.707107 12.9852L0.707107 14.3994L3.0148 12.0917L1.60059 10.6775ZM0.21597 10.7071L1.60059 12.0917L3.0148 10.6775L1.63018 9.29289L0.21597 10.7071ZM6 9H0.923077V11H6V9ZM7 15.0769V10H5V15.0769H7ZM3.90828 14.3994L5.29289 15.784L6.70711 14.3698L5.32249 12.9852L3.90828 14.3994ZM12.9852 12.0917L15.2929 14.3994L16.7071 12.9852L14.3994 10.6775L12.9852 12.0917ZM14.3698 9.29289L12.9852 10.6775L14.3994 12.0917L15.784 10.7071L14.3698 9.29289ZM10 11H15.0769V9H10V11ZM11 15.0769V10H9V15.0769H11ZM10.6775 12.9852L9.29289 14.3698L10.7071 15.784L12.0917 14.3994L10.6775 12.9852ZM14.3994 15.2929L12.0917 12.9852L10.6775 14.3994L12.9852 16.7071L14.3994 15.2929ZM15.2929 12.9852L12.9852 15.2929L14.3994 16.7071L16.7071 14.3994L15.2929 12.9852Z" fill="url(#paint0_linear_85_1702)" mask="url(#path-1-inside-1_85_1702)"/>
</g>
<defs>
<filter id="filter0_i_85_1702" x="0" y="0" width="17" height="17" filterUnits="userSpaceOnUse" color-interpolation-filters="sRGB">
<feFlood flood-opacity="0" result="BackgroundImageFix"/>
<feBlend mode="normal" in="SourceGraphic" in2="BackgroundImageFix" result="shape"/>
<feColorMatrix in="SourceAlpha" type="matrix" values="0 0 0 0 0 0 0 0 0 0 0 0 0 0 0 0 0 0 127 0" result="hardAlpha"/>
<feOffset dx="1" dy="1"/>
<feGaussianBlur stdDeviation="1"/>
<feComposite in2="hardAlpha" operator="arithmetic" k2="-1" k3="1"/>
<feColorMatrix type="matrix" values="0 0 0 0 0.71381 0 0 0 0 0.864312 0 0 0 0 0.687251 0 0 0 1 0"/>
<feBlend mode="normal" in2="shape" result="effect1_innerShadow_85_1702"/>
</filter>
<linearGradient id="paint0_linear_85_1702" x1="0" y1="0" x2="13.613" y2="17.8232" gradientUnits="userSpaceOnUse">
<stop stop-color="#80C178"/>
<stop offset="1" stop-color="#2A6B26"/>
</linearGradient>
<clipPath id="clip0_85_1702">
<rect width="16" height="16" fill="white"/>
</clipPath>
</defs>
</svg>
