<svg width="16" height="16" viewBox="0 0 16 16" fill="none" xmlns="http://www.w3.org/2000/svg">
<mask id="path-1-inside-1_85_1713" fill="white">
<path fill-rule="evenodd" clip-rule="evenodd" d="M5 8L5 4H3L7 0L11 4H9V8C9 9.10457 9.89543 10 11 10H13V14H11C10.2987 14 9.62556 13.8797 9 13.6586V16H5V8.00171C5 8.00114 5 8.00057 5 8Z"/>
</mask>
<g filter="url(#filter0_i_85_1713)">
<path fill-rule="evenodd" clip-rule="evenodd" d="M5 8L5 4H3L7 0L11 4H9V8C9 9.10457 9.89543 10 11 10H13V14H11C10.2987 14 9.62556 13.8797 9 13.6586V16H5V8.00171C5 8.00114 5 8.00057 5 8Z" fill="#82C27C"/>
</g>
<path d="M5 4H6C6 3.73478 5.89464 3.48043 5.70711 3.29289C5.51957 3.10536 5.26522 3 5 3V4ZM5 8H4H5ZM3 4L2.29289 3.29289C2.0069 3.57889 1.92134 4.00901 2.07612 4.38268C2.2309 4.75636 2.59554 5 3 5V4ZM7 0L7.70711 -0.707107C7.31658 -1.09763 6.68342 -1.09763 6.29289 -0.707107L7 0ZM11 4V5C11.4045 5 11.7691 4.75636 11.9239 4.38268C12.0787 4.00901 11.9931 3.57889 11.7071 3.29289L11 4ZM9 4V3C8.44772 3 8 3.44772 8 4H9ZM9 8H8H9ZM13 10H14C14 9.44772 13.5523 9 13 9V10ZM13 14V15C13.5523 15 14 14.5523 14 14H13ZM9 13.6586L9.33325 12.7157C9.02718 12.6076 8.68765 12.6547 8.42261 12.8421C8.15757 13.0296 8 13.334 8 13.6586H9ZM9 16V17C9.55228 17 10 16.5523 10 16H9ZM5 16H4C4 16.5523 4.44772 17 5 17V16ZM4 4L4 8H6L6 4H4ZM3 5H5V3H3V5ZM6.29289 -0.707107L2.29289 3.29289L3.70711 4.70711L7.70711 0.707107L6.29289 -0.707107ZM11.7071 3.29289L7.70711 -0.707107L6.29289 0.707107L10.2929 4.70711L11.7071 3.29289ZM9 5H11V3H9V5ZM10 8V4H8V8H10ZM8 8C8 9.65685 9.34315 11 11 11V9C10.4477 9 10 8.55229 10 8H8ZM11 11H13V9H11V11ZM12 10V14H14V10H12ZM13 13H11V15H13V13ZM11 13C10.4138 13 9.85326 12.8995 9.33325 12.7157L8.66675 14.6014C9.39785 14.8598 10.1836 15 11 15V13ZM10 16V13.6586H8V16H10ZM5 17H9V15H5V17ZM4 8.00171V16H6V8.00171H4ZM6 8.00171C6 8.0013 6 8.00091 6 8.00065C6 8.00034 6 8.00016 6 8H4C4 8.00041 4 8.0008 4 8.00106C4 8.00137 4 8.00155 4 8.00171H6Z" fill="url(#paint0_linear_85_1713)" mask="url(#path-1-inside-1_85_1713)"/>
<mask id="mask0_85_1713" style="mask-type:alpha" maskUnits="userSpaceOnUse" x="5" y="8" width="6" height="6">
<rect width="6" height="6" transform="matrix(1 0 0 -1 5 14)" fill="url(#paint1_linear_85_1713)"/>
</mask>
<g mask="url(#mask0_85_1713)">
<path d="M11 13C8.23858 13 6 10.7614 6 8L5 8C5 11.3137 7.68629 14 11 14V13Z" fill="url(#paint2_linear_85_1713)"/>
</g>
<defs>
<filter id="filter0_i_85_1713" x="3" y="0" width="11" height="17" filterUnits="userSpaceOnUse" color-interpolation-filters="sRGB">
<feFlood flood-opacity="0" result="BackgroundImageFix"/>
<feBlend mode="normal" in="SourceGraphic" in2="BackgroundImageFix" result="shape"/>
<feColorMatrix in="SourceAlpha" type="matrix" values="0 0 0 0 0 0 0 0 0 0 0 0 0 0 0 0 0 0 127 0" result="hardAlpha"/>
<feOffset dx="1" dy="1"/>
<feGaussianBlur stdDeviation="1"/>
<feComposite in2="hardAlpha" operator="arithmetic" k2="-1" k3="1"/>
<feColorMatrix type="matrix" values="0 0 0 0 0.71381 0 0 0 0 0.864312 0 0 0 0 0.687251 0 0 0 1 0"/>
<feBlend mode="normal" in2="shape" result="effect1_innerShadow_85_1713"/>
</filter>
<linearGradient id="paint0_linear_85_1713" x1="13" y1="16" x2="0.391178" y2="2.42274" gradientUnits="userSpaceOnUse">
<stop stop-color="#2A6B26"/>
<stop offset="1" stop-color="#80C178"/>
</linearGradient>
<linearGradient id="paint1_linear_85_1713" x1="6" y1="0" x2="7.15256e-07" y2="6" gradientUnits="userSpaceOnUse">
<stop offset="0.330729" stop-color="#D9D9D9"/>
<stop offset="0.65625" stop-color="#737373" stop-opacity="0"/>
</linearGradient>
<linearGradient id="paint2_linear_85_1713" x1="11" y1="14" x2="5" y2="8" gradientUnits="userSpaceOnUse">
<stop stop-color="#387933"/>
<stop offset="1" stop-color="#63A45C"/>
</linearGradient>
</defs>
</svg>
