<svg width="16" height="16" viewBox="0 0 16 16" fill="none" xmlns="http://www.w3.org/2000/svg">
<g clip-path="url(#clip0_85_1703)">
<mask id="path-1-inside-1_85_1703" fill="white">
<path fill-rule="evenodd" clip-rule="evenodd" d="M14.6154 3.69231L12.3077 6L10 3.69231L12.3077 1.38462L10.9231 0H16V5.07692L14.6154 3.69231ZM3.69231 10L1.38462 12.3077L0 10.9231V16H5.07692L3.69231 14.6154L6 12.3077L3.69231 10ZM10 12.3077L12.3077 14.6154L10.9231 16H16V10.9231L14.6154 12.3077L12.3077 10L10 12.3077ZM6 3.69231L3.69231 1.38462L5.07692 0H0V5.07692L1.38462 3.69231L3.69231 6L6 3.69231Z"/>
</mask>
<g filter="url(#filter0_i_85_1703)">
<path fill-rule="evenodd" clip-rule="evenodd" d="M14.6154 3.69231L12.3077 6L10 3.69231L12.3077 1.38462L10.9231 0H16V5.07692L14.6154 3.69231ZM3.69231 10L1.38462 12.3077L0 10.9231V16H5.07692L3.69231 14.6154L6 12.3077L3.69231 10ZM10 12.3077L12.3077 14.6154L10.9231 16H16V10.9231L14.6154 12.3077L12.3077 10L10 12.3077ZM6 3.69231L3.69231 1.38462L5.07692 0H0V5.07692L1.38462 3.69231L3.69231 6L6 3.69231Z" fill="#82C27C"/>
</g>
<path d="M12.3077 6L11.6006 6.70711C11.9911 7.09763 12.6243 7.09763 13.0148 6.70711L12.3077 6ZM14.6154 3.69231L15.3225 2.9852C15.135 2.79766 14.8806 2.69231 14.6154 2.69231C14.3502 2.69231 14.0958 2.79766 13.9083 2.9852L14.6154 3.69231ZM10 3.69231L9.29289 2.9852C9.10536 3.17274 9 3.42709 9 3.69231C9 3.95752 9.10536 4.21188 9.29289 4.39941L10 3.69231ZM12.3077 1.38462L13.0148 2.09172C13.2023 1.90419 13.3077 1.64983 13.3077 1.38462C13.3077 1.1194 13.2023 0.865045 13.0148 0.677509L12.3077 1.38462ZM10.9231 0V-1C10.5186 -1 10.154 -0.756358 9.9992 -0.382683C9.84442 -0.00900892 9.92997 0.421109 10.216 0.707107L10.9231 0ZM16 0H17C17 -0.552285 16.5523 -1 16 -1V0ZM16 5.07692L15.2929 5.78403C15.5789 6.07003 16.009 6.15558 16.3827 6.0008C16.7564 5.84602 17 5.48139 17 5.07692H16ZM1.38462 12.3077L0.677509 13.0148C0.865045 13.2023 1.1194 13.3077 1.38462 13.3077C1.64983 13.3077 1.90419 13.2023 2.09172 13.0148L1.38462 12.3077ZM3.69231 10L4.39941 9.29289C4.21188 9.10536 3.95752 9 3.69231 9C3.42709 9 3.17274 9.10536 2.9852 9.29289L3.69231 10ZM0 10.9231L0.707107 10.216C0.421109 9.92997 -0.00900892 9.84442 -0.382683 9.9992C-0.756358 10.154 -1 10.5186 -1 10.9231H0ZM0 16H-1C-1 16.5523 -0.552285 17 0 17L0 16ZM5.07692 16V17C5.48139 17 5.84602 16.7564 6.0008 16.3827C6.15558 16.009 6.07003 15.5789 5.78403 15.2929L5.07692 16ZM3.69231 14.6154L2.9852 13.9083C2.79766 14.0958 2.69231 14.3502 2.69231 14.6154C2.69231 14.8806 2.79766 15.135 2.9852 15.3225L3.69231 14.6154ZM6 12.3077L6.70711 13.0148C7.09763 12.6243 7.09763 11.9911 6.70711 11.6006L6 12.3077ZM12.3077 14.6154L13.0148 15.3225C13.2023 15.135 13.3077 14.8806 13.3077 14.6154C13.3077 14.3502 13.2023 14.0958 13.0148 13.9083L12.3077 14.6154ZM10 12.3077L9.29289 11.6006C8.90237 11.9911 8.90237 12.6243 9.29289 13.0148L10 12.3077ZM10.9231 16L10.216 15.2929C9.92997 15.5789 9.84442 16.009 9.9992 16.3827C10.154 16.7564 10.5186 17 10.9231 17V16ZM16 16V17C16.5523 17 17 16.5523 17 16H16ZM16 10.9231H17C17 10.5186 16.7564 10.154 16.3827 9.9992C16.009 9.84442 15.5789 9.92997 15.2929 10.216L16 10.9231ZM14.6154 12.3077L13.9083 13.0148C14.0958 13.2023 14.3502 13.3077 14.6154 13.3077C14.8806 13.3077 15.135 13.2023 15.3225 13.0148L14.6154 12.3077ZM12.3077 10L13.0148 9.29289C12.6243 8.90237 11.9911 8.90237 11.6006 9.29289L12.3077 10ZM3.69231 1.38462L2.9852 0.677509C2.59468 1.06803 2.59468 1.7012 2.9852 2.09172L3.69231 1.38462ZM6 3.69231L6.70711 4.39941C7.09763 4.00889 7.09763 3.37573 6.70711 2.9852L6 3.69231ZM5.07692 0L5.78403 0.707107C6.07003 0.421109 6.15558 -0.0090091 6.0008 -0.382683C5.84602 -0.756358 5.48139 -1 5.07692 -1V0ZM0 0V-1C-0.552285 -1 -1 -0.552285 -1 0L0 0ZM0 5.07692H-1C-1 5.48139 -0.756358 5.84602 -0.382683 6.0008C-0.0090091 6.15558 0.421109 6.07003 0.707107 5.78403L0 5.07692ZM1.38462 3.69231L2.09172 2.9852C1.7012 2.59468 1.06803 2.59468 0.677509 2.9852L1.38462 3.69231ZM3.69231 6L2.9852 6.70711C3.37573 7.09763 4.00889 7.09763 4.39941 6.70711L3.69231 6ZM13.0148 6.70711L15.3225 4.39941L13.9083 2.9852L11.6006 5.29289L13.0148 6.70711ZM9.29289 4.39941L11.6006 6.70711L13.0148 5.29289L10.7071 2.9852L9.29289 4.39941ZM11.6006 0.677509L9.29289 2.9852L10.7071 4.39941L13.0148 2.09172L11.6006 0.677509ZM10.216 0.707107L11.6006 2.09172L13.0148 0.677509L11.6302 -0.707107L10.216 0.707107ZM16 -1H10.9231V1H16V-1ZM17 5.07692V0H15V5.07692H17ZM13.9083 4.39941L15.2929 5.78403L16.7071 4.36982L15.3225 2.9852L13.9083 4.39941ZM2.09172 13.0148L4.39941 10.7071L2.9852 9.29289L0.677509 11.6006L2.09172 13.0148ZM-0.707107 11.6302L0.677509 13.0148L2.09172 11.6006L0.707107 10.216L-0.707107 11.6302ZM1 16V10.9231H-1V16H1ZM5.07692 15H0V17H5.07692V15ZM2.9852 15.3225L4.36982 16.7071L5.78403 15.2929L4.39941 13.9083L2.9852 15.3225ZM5.29289 11.6006L2.9852 13.9083L4.39941 15.3225L6.70711 13.0148L5.29289 11.6006ZM2.9852 10.7071L5.29289 13.0148L6.70711 11.6006L4.39941 9.29289L2.9852 10.7071ZM13.0148 13.9083L10.7071 11.6006L9.29289 13.0148L11.6006 15.3225L13.0148 13.9083ZM11.6302 16.7071L13.0148 15.3225L11.6006 13.9083L10.216 15.2929L11.6302 16.7071ZM16 15H10.9231V17H16V15ZM15 10.9231V16H17V10.9231H15ZM15.3225 13.0148L16.7071 11.6302L15.2929 10.216L13.9083 11.6006L15.3225 13.0148ZM11.6006 10.7071L13.9083 13.0148L15.3225 11.6006L13.0148 9.29289L11.6006 10.7071ZM10.7071 13.0148L13.0148 10.7071L11.6006 9.29289L9.29289 11.6006L10.7071 13.0148ZM2.9852 2.09172L5.29289 4.39941L6.70711 2.9852L4.39941 0.677509L2.9852 2.09172ZM4.36982 -0.707107L2.9852 0.677509L4.39941 2.09172L5.78403 0.707107L4.36982 -0.707107ZM0 1H5.07692V-1H0V1ZM1 5.07692V0H-1V5.07692H1ZM0.677509 2.9852L-0.707107 4.36982L0.707107 5.78403L2.09172 4.39941L0.677509 2.9852ZM4.39941 5.29289L2.09172 2.9852L0.677509 4.39941L2.9852 6.70711L4.39941 5.29289ZM5.29289 2.9852L2.9852 5.29289L4.39941 6.70711L6.70711 4.39941L5.29289 2.9852Z" fill="url(#paint0_linear_85_1703)" mask="url(#path-1-inside-1_85_1703)"/>
</g>
<defs>
<filter id="filter0_i_85_1703" x="0" y="0" width="17" height="17" filterUnits="userSpaceOnUse" color-interpolation-filters="sRGB">
<feFlood flood-opacity="0" result="BackgroundImageFix"/>
<feBlend mode="normal" in="SourceGraphic" in2="BackgroundImageFix" result="shape"/>
<feColorMatrix in="SourceAlpha" type="matrix" values="0 0 0 0 0 0 0 0 0 0 0 0 0 0 0 0 0 0 127 0" result="hardAlpha"/>
<feOffset dx="1" dy="1"/>
<feGaussianBlur stdDeviation="1"/>
<feComposite in2="hardAlpha" operator="arithmetic" k2="-1" k3="1"/>
<feColorMatrix type="matrix" values="0 0 0 0 0.71381 0 0 0 0 0.864312 0 0 0 0 0.687251 0 0 0 1 0"/>
<feBlend mode="normal" in2="shape" result="effect1_innerShadow_85_1703"/>
</filter>
<linearGradient id="paint0_linear_85_1703" x1="0" y1="0" x2="13.613" y2="17.8232" gradientUnits="userSpaceOnUse">
<stop stop-color="#80C178"/>
<stop offset="1" stop-color="#2A6B26"/>
</linearGradient>
<clipPath id="clip0_85_1703">
<rect width="16" height="16" fill="white"/>
</clipPath>
</defs>
</svg>
