<svg width="16" height="16" viewBox="0 0 16 16" fill="none" xmlns="http://www.w3.org/2000/svg">
<g filter="url(#filter0_i_85_1708)">
<path d="M11 1L11 3L8 3L7 3C3.68629 3 1 5.68629 1 9C1 12.3137 3.68629 15 7 15L14 15L14 11L7 11C5.89543 11 5 10.1046 5 9C5 7.89543 5.89543 7 7 7L8 7L11 7L11 9L15 5L11 1Z" fill="#82C27C"/>
</g>
<path d="M11 3.5C11.2761 3.5 11.5 3.27614 11.5 3L11.5 2.20711L14.2929 5L11.5 7.79289L11.5 7C11.5 6.72386 11.2761 6.5 11 6.5L8 6.5L7 6.5C5.61929 6.5 4.5 7.61929 4.5 9C4.5 10.3807 5.61929 11.5 7 11.5L13.5 11.5L13.5 14.5L7 14.5C3.96243 14.5 1.5 12.0376 1.5 9C1.5 5.96243 3.96243 3.5 7 3.5L8 3.5L11 3.5Z" stroke="url(#paint0_linear_85_1708)" stroke-linejoin="round"/>
<defs>
<filter id="filter0_i_85_1708" x="1" y="1" width="15" height="15" filterUnits="userSpaceOnUse" color-interpolation-filters="sRGB">
<feFlood flood-opacity="0" result="BackgroundImageFix"/>
<feBlend mode="normal" in="SourceGraphic" in2="BackgroundImageFix" result="shape"/>
<feColorMatrix in="SourceAlpha" type="matrix" values="0 0 0 0 0 0 0 0 0 0 0 0 0 0 0 0 0 0 127 0" result="hardAlpha"/>
<feOffset dx="1" dy="1"/>
<feGaussianBlur stdDeviation="1"/>
<feComposite in2="hardAlpha" operator="arithmetic" k2="-1" k3="1"/>
<feColorMatrix type="matrix" values="0 0 0 0 0.71381 0 0 0 0 0.864312 0 0 0 0 0.687251 0 0 0 1 0"/>
<feBlend mode="normal" in2="shape" result="effect1_innerShadow_85_1708"/>
</filter>
<linearGradient id="paint0_linear_85_1708" x1="15" y1="15" x2="3.08865" y2="-0.595267" gradientUnits="userSpaceOnUse">
<stop stop-color="#215F1E"/>
<stop offset="0.803571" stop-color="#85C57B"/>
</linearGradient>
</defs>
</svg>
