<svg width="16" height="16" viewBox="0 0 16 16" fill="none" xmlns="http://www.w3.org/2000/svg">
<g clip-path="url(#clip0_85_1704)">
<mask id="path-1-inside-1_85_1704" fill="white">
<path fill-rule="evenodd" clip-rule="evenodd" d="M1.38462 3.69231L2.30769 4.61538L0.923077 6H3.69231H6V3.69231V0.923077L4.61538 2.30769L3.69231 1.38462L5.07692 0H2.30769H0V2.30769V5.07692L1.38462 3.69231ZM16 0V2.30769V5.07692L14.6154 3.69231L13.6923 4.61538L15.0769 6H12.3077H10V3.69231V0.923077L11.3846 2.30769L12.3077 1.38462L10.9231 0H13.6923H16ZM4.61538 13.6923L3.69231 14.6154L5.07692 16H2.30769H0V13.6923V10.9231L1.38462 12.3077L2.30769 11.3846L0.923077 10H3.69231H6V12.3077V15.0769L4.61538 13.6923ZM14.6154 12.3077L13.6923 11.3846L15.0769 10H12.3077H10V12.3077V15.0769L11.3846 13.6923L12.3077 14.6154L10.9231 16H13.6923H16V13.6923V10.9231L14.6154 12.3077Z"/>
</mask>
<g filter="url(#filter0_i_85_1704)">
<path fill-rule="evenodd" clip-rule="evenodd" d="M1.38462 3.69231L2.30769 4.61538L0.923077 6H3.69231H6V3.69231V0.923077L4.61538 2.30769L3.69231 1.38462L5.07692 0H2.30769H0V2.30769V5.07692L1.38462 3.69231ZM16 0V2.30769V5.07692L14.6154 3.69231L13.6923 4.61538L15.0769 6H12.3077H10V3.69231V0.923077L11.3846 2.30769L12.3077 1.38462L10.9231 0H13.6923H16ZM4.61538 13.6923L3.69231 14.6154L5.07692 16H2.30769H0V13.6923V10.9231L1.38462 12.3077L2.30769 11.3846L0.923077 10H3.69231H6V12.3077V15.0769L4.61538 13.6923ZM14.6154 12.3077L13.6923 11.3846L15.0769 10H12.3077H10V12.3077V15.0769L11.3846 13.6923L12.3077 14.6154L10.9231 16H13.6923H16V13.6923V10.9231L14.6154 12.3077Z" fill="#82C27C"/>
</g>
<path d="M2.30769 4.61538L3.0148 5.32249C3.40532 4.93197 3.40532 4.2988 3.0148 3.90828L2.30769 4.61538ZM1.38462 3.69231L2.09172 2.9852C1.7012 2.59468 1.06803 2.59468 0.677509 2.9852L1.38462 3.69231ZM0.923077 6L0.21597 5.29289C-0.0700279 5.57889 -0.155584 6.00901 -0.000802601 6.38268C0.153978 6.75636 0.518615 7 0.923077 7V6ZM6 6V7C6.55228 7 7 6.55228 7 6H6ZM6 0.923077H7C7 0.518615 6.75636 0.153979 6.38268 -0.00080241C6.00901 -0.155583 5.57889 -0.0700277 5.29289 0.21597L6 0.923077ZM4.61538 2.30769L3.90828 3.0148C4.2988 3.40532 4.93197 3.40532 5.32249 3.0148L4.61538 2.30769ZM3.69231 1.38462L2.9852 0.677509C2.59468 1.06803 2.59468 1.7012 2.9852 2.09172L3.69231 1.38462ZM5.07692 0L5.78403 0.707107C6.07003 0.421109 6.15558 -0.0090091 6.0008 -0.382683C5.84602 -0.756358 5.48139 -1 5.07692 -1V0ZM0 0V-1C-0.552285 -1 -1 -0.552285 -1 0L0 0ZM0 5.07692H-1C-1 5.48139 -0.756358 5.84602 -0.382683 6.0008C-0.0090091 6.15558 0.421109 6.07003 0.707107 5.78403L0 5.07692ZM16 0H17C17 -0.552285 16.5523 -1 16 -1V0ZM16 5.07692L15.2929 5.78403C15.5789 6.07003 16.009 6.15558 16.3827 6.0008C16.7564 5.84602 17 5.48139 17 5.07692H16ZM14.6154 3.69231L15.3225 2.9852C14.932 2.59468 14.2988 2.59468 13.9083 2.9852L14.6154 3.69231ZM13.6923 4.61538L12.9852 3.90828C12.7977 4.09581 12.6923 4.35017 12.6923 4.61538C12.6923 4.8806 12.7977 5.13495 12.9852 5.32249L13.6923 4.61538ZM15.0769 6V7C15.4814 7 15.846 6.75636 16.0008 6.38268C16.1556 6.00901 16.07 5.57889 15.784 5.29289L15.0769 6ZM10 6H9C9 6.55228 9.44771 7 10 7V6ZM10 0.923077L10.7071 0.21597C10.4211 -0.0700278 9.99099 -0.155584 9.61732 -0.000802634C9.24364 0.153978 9 0.518615 9 0.923077H10ZM11.3846 2.30769L10.6775 3.0148C11.068 3.40532 11.7012 3.40532 12.0917 3.0148L11.3846 2.30769ZM12.3077 1.38462L13.0148 2.09172C13.2023 1.90419 13.3077 1.64983 13.3077 1.38462C13.3077 1.1194 13.2023 0.865045 13.0148 0.677509L12.3077 1.38462ZM10.9231 0V-1C10.5186 -1 10.154 -0.756358 9.9992 -0.382683C9.84442 -0.00900892 9.92997 0.421109 10.216 0.707107L10.9231 0ZM3.69231 14.6154L2.9852 13.9083C2.59468 14.2988 2.59468 14.932 2.9852 15.3225L3.69231 14.6154ZM4.61538 13.6923L5.32249 12.9852C5.13495 12.7977 4.8806 12.6923 4.61538 12.6923C4.35017 12.6923 4.09581 12.7977 3.90828 12.9852L4.61538 13.6923ZM5.07692 16V17C5.48139 17 5.84602 16.7564 6.0008 16.3827C6.15558 16.009 6.07003 15.5789 5.78403 15.2929L5.07692 16ZM0 16H-1C-1 16.5523 -0.552285 17 0 17L0 16ZM0 10.9231L0.707107 10.216C0.421109 9.92997 -0.00900892 9.84442 -0.382683 9.9992C-0.756358 10.154 -1 10.5186 -1 10.9231H0ZM1.38462 12.3077L0.677509 13.0148C0.865045 13.2023 1.1194 13.3077 1.38462 13.3077C1.64983 13.3077 1.90419 13.2023 2.09172 13.0148L1.38462 12.3077ZM2.30769 11.3846L3.0148 12.0917C3.40532 11.7012 3.40532 11.068 3.0148 10.6775L2.30769 11.3846ZM0.923077 10V9C0.518615 9 0.153979 9.24364 -0.000802442 9.61732C-0.155583 9.99099 -0.0700276 10.4211 0.21597 10.7071L0.923077 10ZM6 10H7C7 9.44771 6.55228 9 6 9V10ZM6 15.0769L5.29289 15.784C5.57889 16.07 6.00901 16.1556 6.38268 16.0008C6.75636 15.846 7 15.4814 7 15.0769H6ZM13.6923 11.3846L12.9852 10.6775C12.7977 10.865 12.6923 11.1194 12.6923 11.3846C12.6923 11.6498 12.7977 11.9042 12.9852 12.0917L13.6923 11.3846ZM14.6154 12.3077L13.9083 13.0148C14.0958 13.2023 14.3502 13.3077 14.6154 13.3077C14.8806 13.3077 15.135 13.2023 15.3225 13.0148L14.6154 12.3077ZM15.0769 10L15.784 10.7071C16.07 10.4211 16.1556 9.99099 16.0008 9.61732C15.846 9.24364 15.4814 9 15.0769 9V10ZM10 10V9C9.44771 9 9 9.44771 9 10H10ZM10 15.0769H9C9 15.4814 9.24364 15.846 9.61732 16.0008C9.99099 16.1556 10.4211 16.07 10.7071 15.784L10 15.0769ZM11.3846 13.6923L12.0917 12.9852C11.9042 12.7977 11.6498 12.6923 11.3846 12.6923C11.1194 12.6923 10.865 12.7977 10.6775 12.9852L11.3846 13.6923ZM12.3077 14.6154L13.0148 15.3225C13.2023 15.135 13.3077 14.8806 13.3077 14.6154C13.3077 14.3502 13.2023 14.0958 13.0148 13.9083L12.3077 14.6154ZM10.9231 16L10.216 15.2929C9.92997 15.5789 9.84442 16.009 9.9992 16.3827C10.154 16.7564 10.5186 17 10.9231 17V16ZM16 16V17C16.5523 17 17 16.5523 17 16H16ZM16 10.9231H17C17 10.5186 16.7564 10.154 16.3827 9.9992C16.009 9.84442 15.5789 9.92997 15.2929 10.216L16 10.9231ZM3.0148 3.90828L2.09172 2.9852L0.677509 4.39941L1.60059 5.32249L3.0148 3.90828ZM1.63018 6.70711L3.0148 5.32249L1.60059 3.90828L0.21597 5.29289L1.63018 6.70711ZM3.69231 5H0.923077V7H3.69231V5ZM6 5H3.69231V7H6V5ZM5 3.69231V6H7V3.69231H5ZM5 0.923077V3.69231H7V0.923077H5ZM5.32249 3.0148L6.70711 1.63018L5.29289 0.21597L3.90828 1.60059L5.32249 3.0148ZM2.9852 2.09172L3.90828 3.0148L5.32249 1.60059L4.39941 0.677509L2.9852 2.09172ZM4.36982 -0.707107L2.9852 0.677509L4.39941 2.09172L5.78403 0.707107L4.36982 -0.707107ZM2.30769 1H5.07692V-1H2.30769V1ZM0 1H2.30769V-1H0V1ZM1 2.30769V0H-1V2.30769H1ZM1 5.07692V2.30769H-1V5.07692H1ZM0.677509 2.9852L-0.707107 4.36982L0.707107 5.78403L2.09172 4.39941L0.677509 2.9852ZM17 2.30769V0H15V2.30769H17ZM17 5.07692V2.30769H15V5.07692H17ZM13.9083 4.39941L15.2929 5.78403L16.7071 4.36982L15.3225 2.9852L13.9083 4.39941ZM14.3994 5.32249L15.3225 4.39941L13.9083 2.9852L12.9852 3.90828L14.3994 5.32249ZM15.784 5.29289L14.3994 3.90828L12.9852 5.32249L14.3698 6.70711L15.784 5.29289ZM12.3077 7H15.0769V5H12.3077V7ZM10 7H12.3077V5H10V7ZM9 3.69231V6H11V3.69231H9ZM9 0.923077V3.69231H11V0.923077H9ZM12.0917 1.60059L10.7071 0.21597L9.29289 1.63018L10.6775 3.0148L12.0917 1.60059ZM11.6006 0.677508L10.6775 1.60059L12.0917 3.0148L13.0148 2.09172L11.6006 0.677508ZM10.216 0.707107L11.6006 2.09172L13.0148 0.677509L11.6302 -0.707107L10.216 0.707107ZM13.6923 -1H10.9231V1H13.6923V-1ZM16 -1H13.6923V1H16V-1ZM4.39941 15.3225L5.32249 14.3994L3.90828 12.9852L2.9852 13.9083L4.39941 15.3225ZM5.78403 15.2929L4.39941 13.9083L2.9852 15.3225L4.36982 16.7071L5.78403 15.2929ZM2.30769 17H5.07692V15H2.30769V17ZM0 17H2.30769V15H0V17ZM-1 13.6923V16H1V13.6923H-1ZM-1 10.9231V13.6923H1V10.9231H-1ZM2.09172 11.6006L0.707107 10.216L-0.707107 11.6302L0.677509 13.0148L2.09172 11.6006ZM1.60059 10.6775L0.677508 11.6006L2.09172 13.0148L3.0148 12.0917L1.60059 10.6775ZM0.21597 10.7071L1.60059 12.0917L3.0148 10.6775L1.63018 9.29289L0.21597 10.7071ZM3.69231 9H0.923077V11H3.69231V9ZM6 9H3.69231V11H6V9ZM7 12.3077V10H5V12.3077H7ZM7 15.0769V12.3077H5V15.0769H7ZM3.90828 14.3994L5.29289 15.784L6.70711 14.3698L5.32249 12.9852L3.90828 14.3994ZM12.9852 12.0917L13.9083 13.0148L15.3225 11.6006L14.3994 10.6775L12.9852 12.0917ZM14.3698 9.29289L12.9852 10.6775L14.3994 12.0917L15.784 10.7071L14.3698 9.29289ZM12.3077 11H15.0769V9H12.3077V11ZM10 11H12.3077V9H10V11ZM11 12.3077V10H9V12.3077H11ZM11 15.0769V12.3077H9V15.0769H11ZM10.6775 12.9852L9.29289 14.3698L10.7071 15.784L12.0917 14.3994L10.6775 12.9852ZM13.0148 13.9083L12.0917 12.9852L10.6775 14.3994L11.6006 15.3225L13.0148 13.9083ZM11.6302 16.7071L13.0148 15.3225L11.6006 13.9083L10.216 15.2929L11.6302 16.7071ZM13.6923 15H10.9231V17H13.6923V15ZM16 15H13.6923V17H16V15ZM15 13.6923V16H17V13.6923H15ZM15 10.9231V13.6923H17V10.9231H15ZM15.3225 13.0148L16.7071 11.6302L15.2929 10.216L13.9083 11.6006L15.3225 13.0148Z" fill="url(#paint0_linear_85_1704)" mask="url(#path-1-inside-1_85_1704)"/>
</g>
<defs>
<filter id="filter0_i_85_1704" x="0" y="0" width="17" height="17" filterUnits="userSpaceOnUse" color-interpolation-filters="sRGB">
<feFlood flood-opacity="0" result="BackgroundImageFix"/>
<feBlend mode="normal" in="SourceGraphic" in2="BackgroundImageFix" result="shape"/>
<feColorMatrix in="SourceAlpha" type="matrix" values="0 0 0 0 0 0 0 0 0 0 0 0 0 0 0 0 0 0 127 0" result="hardAlpha"/>
<feOffset dx="1" dy="1"/>
<feGaussianBlur stdDeviation="1"/>
<feComposite in2="hardAlpha" operator="arithmetic" k2="-1" k3="1"/>
<feColorMatrix type="matrix" values="0 0 0 0 0.71381 0 0 0 0 0.864312 0 0 0 0 0.687251 0 0 0 1 0"/>
<feBlend mode="normal" in2="shape" result="effect1_innerShadow_85_1704"/>
</filter>
<linearGradient id="paint0_linear_85_1704" x1="0" y1="0" x2="13.613" y2="17.8232" gradientUnits="userSpaceOnUse">
<stop stop-color="#80C178"/>
<stop offset="1" stop-color="#2A6B26"/>
</linearGradient>
<clipPath id="clip0_85_1704">
<rect width="16" height="16" fill="white"/>
</clipPath>
</defs>
</svg>
