<svg width="16" height="16" viewBox="0 0 16 16" fill="none" xmlns="http://www.w3.org/2000/svg">
<g clip-path="url(#clip0_99_12344)">
<mask id="path-1-outside-1_99_12344" maskUnits="userSpaceOnUse" x="0" y="0.400002" width="16" height="16" fill="black">
<rect fill="white" y="0.400002" width="16" height="16"/>
<path fill-rule="evenodd" clip-rule="evenodd" d="M10.5981 8.02925C9.82828 8.02925 9.34715 7.19592 9.73205 6.52925L11.683 3.15008C11.8211 2.91094 11.7391 2.60514 11.5 2.46707C11.2609 2.329 10.9551 2.41094 10.817 2.65009L8.86603 6.02925C8.48113 6.69592 7.51888 6.69592 7.13398 6.02925L5.18301 2.65009C5.04494 2.41094 4.73915 2.329 4.5 2.46707C4.26085 2.60514 4.17892 2.91094 4.31699 3.15008L6.26795 6.52925C6.65285 7.19592 6.17172 8.02925 5.40192 8.02925H1.5C1.22386 8.02925 1 8.25311 1 8.52925C1 8.80539 1.22386 9.02925 1.5 9.02925H5.40192C6.17172 9.02925 6.65285 9.86259 6.26795 10.5293L4.31699 13.9084C4.17892 14.1476 4.26085 14.4534 4.5 14.5914C4.73915 14.7295 5.04494 14.6476 5.18301 14.4084L7.13397 11.0293C7.51887 10.3626 8.48112 10.3626 8.86603 11.0293L10.817 14.4084C10.9551 14.6476 11.2609 14.7295 11.5 14.5914C11.7391 14.4534 11.8211 14.1476 11.683 13.9084L9.73205 10.5293C9.34715 9.86259 9.82828 9.02925 10.5981 9.02925H14.5C14.7761 9.02925 15 8.80539 15 8.52925C15 8.25311 14.7761 8.02925 14.5 8.02925H10.5981Z"/>
</mask>
<g filter="url(#filter0_i_99_12344)">
<path fill-rule="evenodd" clip-rule="evenodd" d="M10.5981 8.02925C9.82828 8.02925 9.34715 7.19592 9.73205 6.52925L11.683 3.15008C11.8211 2.91094 11.7391 2.60514 11.5 2.46707C11.2609 2.329 10.9551 2.41094 10.817 2.65009L8.86603 6.02925C8.48113 6.69592 7.51888 6.69592 7.13398 6.02925L5.18301 2.65009C5.04494 2.41094 4.73915 2.329 4.5 2.46707C4.26085 2.60514 4.17892 2.91094 4.31699 3.15008L6.26795 6.52925C6.65285 7.19592 6.17172 8.02925 5.40192 8.02925H1.5C1.22386 8.02925 1 8.25311 1 8.52925C1 8.80539 1.22386 9.02925 1.5 9.02925H5.40192C6.17172 9.02925 6.65285 9.86259 6.26795 10.5293L4.31699 13.9084C4.17892 14.1476 4.26085 14.4534 4.5 14.5914C4.73915 14.7295 5.04494 14.6476 5.18301 14.4084L7.13397 11.0293C7.51887 10.3626 8.48112 10.3626 8.86603 11.0293L10.817 14.4084C10.9551 14.6476 11.2609 14.7295 11.5 14.5914C11.7391 14.4534 11.8211 14.1476 11.683 13.9084L9.73205 10.5293C9.34715 9.86259 9.82828 9.02925 10.5981 9.02925H14.5C14.7761 9.02925 15 8.80539 15 8.52925C15 8.25311 14.7761 8.02925 14.5 8.02925H10.5981Z" fill="#FF9D00"/>
</g>
<path d="M15 8.52925H16H15ZM15 8.52925H16H15ZM9.73205 10.5293L8.86603 11.0293L9.73205 10.5293ZM11.5 14.5914L12 15.4575L11.5 14.5914ZM10.817 14.4084L9.95096 14.9084L10.817 14.4084ZM11.5 14.5914L12 15.4575L11.5 14.5914ZM7.13397 11.0293L6.26795 10.5293L7.13397 11.0293ZM4.5 14.5914L5 13.7254L4.5 14.5914ZM5.18301 14.4084L4.31699 13.9084L5.18301 14.4084ZM4.31699 13.9084L3.45096 13.4084L4.31699 13.9084ZM4.5 14.5914L5 13.7254L4.5 14.5914ZM1 8.52925H2H1ZM1 8.52925H2H1ZM4.5 2.46707L5 3.3331L4.5 2.46707ZM4.31699 3.15008L3.45096 3.65008L4.31699 3.15008ZM5.18301 2.65009L4.31699 3.15009L5.18301 2.65009ZM4.5 2.46707L5 3.3331L4.5 2.46707ZM8.86603 6.02925L8 5.52925L8.86603 6.02925ZM11.5 2.46707L12 1.60105L11.5 2.46707ZM10.817 2.65009L9.95096 2.15009L10.817 2.65009ZM9.73205 6.52925L8.86603 6.02925L9.73205 6.52925ZM11.5 2.46707L12 1.60105L11.5 2.46707ZM10.817 2.65008L8.86603 6.02925L10.5981 7.02925L12.549 3.65008L10.817 2.65008ZM9.73205 6.52925L11.683 3.15009L9.95096 2.15009L8 5.52925L9.73205 6.52925ZM8 5.52925L6.04904 2.15009L4.31699 3.15009L6.26795 6.52925L8 5.52925ZM3.45096 3.65008L5.40192 7.02925L7.13398 6.02925L5.18301 2.65009L3.45096 3.65008ZM5.40192 7.02925H1.5V9.02925H5.40192V7.02925ZM1.5 10.0293H5.40192V8.02925H1.5V10.0293ZM5.18301 14.4084L7.13397 11.0293L5.40192 10.0293L3.45096 13.4084L5.18301 14.4084ZM6.26795 10.5293L4.31699 13.9084L6.04904 14.9084L8 11.5293L6.26795 10.5293ZM8 11.5293L9.95096 14.9084L11.683 13.9084L9.73205 10.5293L8 11.5293ZM12.549 13.4084L10.5981 10.0293L8.86603 11.0293L10.817 14.4084L12.549 13.4084ZM10.5981 10.0293H14.5V8.02925H10.5981V10.0293ZM14.5 7.02925H10.5981V9.02925H14.5V7.02925ZM16 8.52925C16 7.70082 15.3284 7.02925 14.5 7.02925V9.02925C14.2239 9.02925 14 8.80539 14 8.52925H16ZM14.5 10.0293C15.3284 10.0293 16 9.35768 16 8.52925H14C14 8.25311 14.2239 8.02925 14.5 8.02925V10.0293ZM10.5981 10.0293V10.0293V8.02925C9.05847 8.02925 8.09623 9.69592 8.86603 11.0293L10.5981 10.0293ZM12 15.4575C12.7174 15.0432 12.9633 14.1259 12.549 13.4084L10.817 14.4084C10.6789 14.1693 10.7609 13.8635 11 13.7254L12 15.4575ZM9.95096 14.9084C10.3652 15.6259 11.2826 15.8717 12 15.4575L11 13.7254C11.2391 13.5873 11.5449 13.6693 11.683 13.9084L9.95096 14.9084ZM8 11.5293L9.73205 10.5293C8.96225 9.19592 7.03775 9.19592 6.26795 10.5293L8 11.5293ZM4 15.4575C4.71744 15.8717 5.63482 15.6259 6.04904 14.9084L4.31699 13.9084C4.45506 13.6693 4.76085 13.5873 5 13.7254L4 15.4575ZM3.45096 13.4084C3.03675 14.1259 3.28256 15.0432 4 15.4575L5 13.7254C5.23915 13.8635 5.32108 14.1693 5.18301 14.4084L3.45096 13.4084ZM5.40192 10.0293L5.40192 10.0293L7.13397 11.0293C7.90378 9.69592 6.94152 8.02925 5.40192 8.02925V10.0293ZM0 8.52925C0 9.35768 0.671573 10.0293 1.5 10.0293V8.02925C1.77614 8.02925 2 8.25311 2 8.52925H0ZM1.5 7.02925C0.671573 7.02925 0 7.70082 0 8.52925H2C2 8.80539 1.77614 9.02925 1.5 9.02925V7.02925ZM5.40192 7.02925L5.40192 7.02925V9.02925C6.94153 9.02925 7.90377 7.36258 7.13398 6.02925L5.40192 7.02925ZM4 1.60105C3.28256 2.01526 3.03675 2.93265 3.45096 3.65008L5.18301 2.65009C5.32108 2.88923 5.23915 3.19503 5 3.3331L4 1.60105ZM6.04904 2.15009C5.63483 1.43265 4.71744 1.18683 4 1.60105L5 3.3331C4.76085 3.47117 4.45506 3.38923 4.31699 3.15009L6.04904 2.15009ZM8 5.52925V5.52925L6.26795 6.52925C7.03775 7.86258 8.96225 7.86258 9.73205 6.52925L8 5.52925ZM12 1.60105C11.2826 1.18683 10.3652 1.43265 9.95096 2.15009L11.683 3.15009C11.5449 3.38923 11.2391 3.47117 11 3.3331L12 1.60105ZM8.86603 6.02925C8.09623 7.36258 9.05848 9.02925 10.5981 9.02925V7.02925V7.02925L8.86603 6.02925ZM12.549 3.65008C12.9633 2.93265 12.7174 2.01526 12 1.60105L11 3.3331C10.7609 3.19503 10.6789 2.88923 10.817 2.65008L12.549 3.65008Z" fill="url(#paint0_linear_99_12344)" mask="url(#path-1-outside-1_99_12344)"/>
</g>
<defs>
<filter id="filter0_i_99_12344" x="0" y="1.39983" width="19" height="17.2588" filterUnits="userSpaceOnUse" color-interpolation-filters="sRGB">
<feFlood flood-opacity="0" result="BackgroundImageFix"/>
<feBlend mode="normal" in="SourceGraphic" in2="BackgroundImageFix" result="shape"/>
<feColorMatrix in="SourceAlpha" type="matrix" values="0 0 0 0 0 0 0 0 0 0 0 0 0 0 0 0 0 0 127 0" result="hardAlpha"/>
<feOffset dx="3" dy="3"/>
<feGaussianBlur stdDeviation="4"/>
<feComposite in2="hardAlpha" operator="arithmetic" k2="-1" k3="1"/>
<feColorMatrix type="matrix" values="0 0 0 0 1 0 0 0 0 1 0 0 0 0 1 0 0 0 1 0"/>
<feBlend mode="soft-light" in2="shape" result="effect1_innerShadow_99_12344"/>
</filter>
<linearGradient id="paint0_linear_99_12344" x1="15" y1="14.5162" x2="2.20588" y2="1.36878" gradientUnits="userSpaceOnUse">
<stop stop-color="#CA6917"/>
<stop offset="1" stop-color="#FDA416"/>
</linearGradient>
<clipPath id="clip0_99_12344">
<rect width="16" height="16" fill="white"/>
</clipPath>
</defs>
</svg>
