<svg width="16" height="16" viewBox="0 0 16 16" fill="none" xmlns="http://www.w3.org/2000/svg">
<path d="M11 1L3.46488 8.53512C2.84708 9.15292 2.5 9.99084 2.5 10.8645V10.8645C2.5 12.3201 3.67993 13.5 5.13545 13.5V13.5C6.00916 13.5 6.84708 13.1529 7.46488 12.5351L13.8787 6.12132C14.2765 5.7235 14.5 5.18393 14.5 4.62132V4.62132C14.5 3.44975 13.5503 2.5 12.3787 2.5V2.5C11.8161 2.5 11.2765 2.7235 10.8787 3.12132L5.41421 8.58579C5.149 8.851 5 9.21071 5 9.58579V9.58579C5 10.3668 5.63316 11 6.41421 11V11C6.78929 11 7.149 10.851 7.41421 10.5858L13 5" stroke="url(#paint0_linear_99_12335)" stroke-linecap="round"/>
<defs>
<linearGradient id="paint0_linear_99_12335" x1="11" y1="10" x2="6" y2="5" gradientUnits="userSpaceOnUse">
<stop stop-color="#565656"/>
<stop offset="1" stop-color="#A5A5A5"/>
</linearGradient>
</defs>
</svg>
