<svg width="16" height="16" viewBox="0 0 16 16" fill="none" xmlns="http://www.w3.org/2000/svg">
<path d="M5.38979 6.5H4.47703C4.1233 6.5 3.88142 6.14274 4.01279 5.8143L4.53576 4.50689C5.0206 3.2948 6.19454 2.5 7.5 2.5C8.80546 2.5 9.9794 3.2948 10.4642 4.50689L10.9872 5.8143C11.1186 6.14274 10.8767 6.5 10.523 6.5H9.61803C9.42865 6.5 9.25552 6.393 9.17082 6.22361L8.66582 5.2136C8.44715 4.77626 8.00015 4.5 7.51119 4.5C7.02751 4.5 6.58441 4.77038 6.3632 5.20051L5.83443 6.22867C5.74875 6.39527 5.57713 6.5 5.38979 6.5Z" fill="#83BBD5" stroke="url(#paint0_linear_99_12327)" stroke-linecap="round"/>
<path d="M3.5 6.5V13.5M5.5 6.5V13.5M7.5 6.5V13.5M9.5 6.5V13.5M1.5 7V10M11.5 6.5V13.5M13.5 7V10" stroke="url(#paint1_linear_99_12327)" stroke-opacity="0.66" stroke-linecap="round" stroke-linejoin="round"/>
<path d="M1.5 7.5H13.5M2 9.5H13M2.5 11.5H12.5" stroke="url(#paint2_linear_99_12327)" stroke-opacity="0.66" stroke-linecap="round" stroke-linejoin="round"/>
<path d="M2.00002 12.3423L1.06252 8.34229C0.841922 7.40106 1.55621 6.5 2.52295 6.5H12.4771C13.4438 6.5 14.1581 7.40106 13.9375 8.34229L13 12.3423C12.841 13.0205 12.2361 13.5 11.5396 13.5H3.46045C2.76388 13.5 2.15897 13.0205 2.00002 12.3423Z" stroke="url(#paint3_linear_99_12327)" stroke-linecap="round" stroke-linejoin="round"/>
<g filter="url(#filter0_i_99_12327)">
<path d="M10 9H6V14H10V16H11L16 11.5L11 7H10V9Z" fill="#80B361"/>
</g>
<path d="M10 9.5C10.2761 9.5 10.5 9.27614 10.5 9V7.5H10.8081L15.2526 11.5L10.8081 15.5H10.5V14C10.5 13.7239 10.2761 13.5 10 13.5H6.5V9.5H10Z" stroke="url(#paint4_linear_99_12327)" stroke-linejoin="round"/>
<path d="M7.5 12.5V10.5H10C10.7149 10.5 11.2659 10.0257 11.4412 9.41687L13.7531 11.5L11.4413 13.5831C11.263 12.9644 10.6975 12.5 10.0049 12.5H7.5Z" stroke="white" stroke-opacity="0.2" stroke-linejoin="round"/>
<defs>
<filter id="filter0_i_99_12327" x="6" y="7" width="12" height="11" filterUnits="userSpaceOnUse" color-interpolation-filters="sRGB">
<feFlood flood-opacity="0" result="BackgroundImageFix"/>
<feBlend mode="normal" in="SourceGraphic" in2="BackgroundImageFix" result="shape"/>
<feColorMatrix in="SourceAlpha" type="matrix" values="0 0 0 0 0 0 0 0 0 0 0 0 0 0 0 0 0 0 127 0" result="hardAlpha"/>
<feOffset dx="2" dy="2"/>
<feGaussianBlur stdDeviation="1"/>
<feComposite in2="hardAlpha" operator="arithmetic" k2="-1" k3="1"/>
<feColorMatrix type="matrix" values="0 0 0 0 1 0 0 0 0 1 0 0 0 0 1 0 0 0 0.25 0"/>
<feBlend mode="normal" in2="shape" result="effect1_innerShadow_99_12327"/>
</filter>
<linearGradient id="paint0_linear_99_12327" x1="12" y1="6" x2="4.24642" y2="0.303489" gradientUnits="userSpaceOnUse">
<stop stop-color="#2E6691"/>
<stop offset="1" stop-color="#74A9CC"/>
</linearGradient>
<linearGradient id="paint1_linear_99_12327" x1="1.5" y1="6.5" x2="13.3187" y2="13.7938" gradientUnits="userSpaceOnUse">
<stop stop-color="#D7D7D7"/>
<stop offset="1" stop-color="#404040"/>
</linearGradient>
<linearGradient id="paint2_linear_99_12327" x1="1.5" y1="7.5" x2="9.03323" y2="15.6359" gradientUnits="userSpaceOnUse">
<stop stop-color="#D7D7D7"/>
<stop offset="1" stop-color="#404040"/>
</linearGradient>
<linearGradient id="paint3_linear_99_12327" x1="0" y1="6" x2="14.0146" y2="15.4599" gradientUnits="userSpaceOnUse">
<stop stop-color="#D7D7D7"/>
<stop offset="1" stop-color="#404040"/>
</linearGradient>
<linearGradient id="paint4_linear_99_12327" x1="14.5714" y1="14.7143" x2="8.17837" y2="7.61089" gradientUnits="userSpaceOnUse">
<stop stop-color="#247C10"/>
<stop offset="1" stop-color="#6FA53D"/>
</linearGradient>
</defs>
</svg>
