<svg width="16" height="16" viewBox="0 0 16 16" fill="none" xmlns="http://www.w3.org/2000/svg">
<g clip-path="url(#clip0_99_12325)">
<path d="M6.38979 7.5H5.47703C5.1233 7.5 4.88142 7.14274 5.01279 6.8143L5.53576 5.50689C6.0206 4.2948 7.19454 3.5 8.5 3.5C9.80546 3.5 10.9794 4.2948 11.4642 5.50689L11.9872 6.8143C12.1186 7.14274 11.8767 7.5 11.523 7.5H10.618C10.4286 7.5 10.2555 7.393 10.1708 7.22361L9.66582 6.2136C9.44715 5.77626 9.00015 5.5 8.51119 5.5C8.02751 5.5 7.58441 5.77038 7.3632 6.20051L6.83443 7.22867C6.74875 7.39527 6.57713 7.5 6.38979 7.5Z" fill="#83BBD5" stroke="url(#paint0_linear_99_12325)" stroke-linecap="round"/>
<path d="M4.5 7.5V14.5M6.5 7.5V14.5M8.5 7.5V14.5M10.5 7.5V14.5M2.5 8V11M12.5 7.5V14.5M14.5 8V11" stroke="url(#paint1_linear_99_12325)" stroke-opacity="0.66" stroke-linecap="round" stroke-linejoin="round"/>
<path d="M2.5 8.5H14.5M3 10.5H14M3.5 12.5H13.5" stroke="url(#paint2_linear_99_12325)" stroke-opacity="0.66" stroke-linecap="round" stroke-linejoin="round"/>
<path d="M3.00002 13.3423L2.06252 9.34229C1.84192 8.40106 2.55621 7.5 3.52295 7.5H13.4771C14.4438 7.5 15.1581 8.40106 14.9375 9.34229L14 13.3423C13.841 14.0205 13.2361 14.5 12.5396 14.5H4.46045C3.76388 14.5 3.15897 14.0205 3.00002 13.3423Z" stroke="url(#paint3_linear_99_12325)" stroke-linecap="round" stroke-linejoin="round"/>
<g filter="url(#filter0_i_99_12325)">
<path d="M6 3V0H2V3H0V4L4 8L8 4V3H6Z" fill="#5EB521"/>
</g>
<path d="M5.5 3C5.5 3.27614 5.72386 3.5 6 3.5H7.5V3.79289L4 7.29289L0.5 3.79289V3.5H2C2.27614 3.5 2.5 3.27614 2.5 3V0.5L5.5 0.5L5.5 3Z" stroke="url(#paint4_linear_99_12325)" stroke-linejoin="round"/>
</g>
<defs>
<filter id="filter0_i_99_12325" x="0" y="0" width="9" height="9" filterUnits="userSpaceOnUse" color-interpolation-filters="sRGB">
<feFlood flood-opacity="0" result="BackgroundImageFix"/>
<feBlend mode="normal" in="SourceGraphic" in2="BackgroundImageFix" result="shape"/>
<feColorMatrix in="SourceAlpha" type="matrix" values="0 0 0 0 0 0 0 0 0 0 0 0 0 0 0 0 0 0 127 0" result="hardAlpha"/>
<feOffset dx="1" dy="1"/>
<feGaussianBlur stdDeviation="2"/>
<feComposite in2="hardAlpha" operator="arithmetic" k2="-1" k3="1"/>
<feColorMatrix type="matrix" values="0 0 0 0 1 0 0 0 0 1 0 0 0 0 1 0 0 0 1 0"/>
<feBlend mode="hard-light" in2="shape" result="effect1_innerShadow_99_12325"/>
</filter>
<linearGradient id="paint0_linear_99_12325" x1="13" y1="7" x2="5.24642" y2="1.30349" gradientUnits="userSpaceOnUse">
<stop stop-color="#2E6691"/>
<stop offset="1" stop-color="#74A9CC"/>
</linearGradient>
<linearGradient id="paint1_linear_99_12325" x1="2.5" y1="7.5" x2="14.3187" y2="14.7938" gradientUnits="userSpaceOnUse">
<stop stop-color="#D7D7D7"/>
<stop offset="1" stop-color="#404040"/>
</linearGradient>
<linearGradient id="paint2_linear_99_12325" x1="2.5" y1="8.5" x2="10.0332" y2="16.6359" gradientUnits="userSpaceOnUse">
<stop stop-color="#D7D7D7"/>
<stop offset="1" stop-color="#404040"/>
</linearGradient>
<linearGradient id="paint3_linear_99_12325" x1="1" y1="7" x2="15.0146" y2="16.4599" gradientUnits="userSpaceOnUse">
<stop stop-color="#D7D7D7"/>
<stop offset="1" stop-color="#404040"/>
</linearGradient>
<linearGradient id="paint4_linear_99_12325" x1="2.38419e-07" y1="2.38419e-07" x2="6.95857" y2="8.8215" gradientUnits="userSpaceOnUse">
<stop offset="0.128451" stop-color="#8EC045"/>
<stop offset="0.437482" stop-color="#51B80C"/>
<stop offset="0.768905" stop-color="#308912"/>
</linearGradient>
<clipPath id="clip0_99_12325">
<rect width="16" height="16" fill="white"/>
</clipPath>
</defs>
</svg>
