<svg width="16" height="16" viewBox="0 0 16 16" fill="none" xmlns="http://www.w3.org/2000/svg">
<g filter="url(#filter0_ii_87_1988)">
<circle cx="8" cy="9" r="7" fill="url(#paint0_linear_87_1988)"/>
</g>
<circle cx="8" cy="9" r="6.5" stroke="url(#paint1_linear_87_1988)"/>
<circle cx="5" cy="6" r="2" fill="url(#paint2_linear_87_1988)"/>
<circle cx="5" cy="6" r="1.5" stroke="black" stroke-opacity="0.33"/>
<path d="M4.64646 6.35355C4.84172 6.54882 5.1583 6.54882 5.35356 6.35355C5.54882 6.15829 5.54882 5.84171 5.35356 5.64645L4.64646 6.35355ZM7.00002 4L7.39045 3.68765C7.37893 3.67325 7.36661 3.65949 7.35357 3.64645L7.00002 4ZM11.3 5.4C11.5209 5.23432 11.5657 4.92092 11.4 4.7C11.2343 4.47909 10.9209 4.43432 10.7 4.6L11.3 5.4ZM5.35356 5.64645C5.04497 5.33786 4.63639 4.8343 4.40242 4.3371C4.15181 3.80456 4.19606 3.51106 4.35356 3.35355L3.64646 2.64645C3.00396 3.28894 3.21487 4.16211 3.4976 4.7629C3.79696 5.39904 4.28838 5.99548 4.64646 6.35355L5.35356 5.64645ZM4.35356 3.35355C4.46467 3.24245 4.60439 3.19856 4.81992 3.22935C5.05287 3.26263 5.33005 3.38112 5.61776 3.55375C5.89924 3.72263 6.15793 3.92321 6.34892 4.08482C6.44357 4.16491 6.51965 4.23377 6.57142 4.28196C6.59726 4.30602 6.61693 4.32483 6.6297 4.33718C6.63608 4.34335 6.64073 4.34791 6.64356 4.35069C6.64497 4.35208 6.64593 4.35303 6.64641 4.35351C6.64666 4.35375 6.64679 4.35388 6.64679 4.35389C6.6468 4.35389 6.64677 4.35387 6.64672 4.35381C6.64669 4.35378 6.64663 4.35372 6.64661 4.35371C6.64654 4.35363 6.64646 4.35356 7.00002 4C7.35357 3.64645 7.35347 3.64635 7.35337 3.64625C7.35333 3.64621 7.35322 3.6461 7.35313 3.64601C7.35295 3.64583 7.35275 3.64563 7.35251 3.64539C7.35203 3.64491 7.35143 3.64432 7.35071 3.6436C7.34927 3.64217 7.34734 3.64026 7.34494 3.6379C7.34013 3.63317 7.33343 3.62662 7.32492 3.61839C7.30791 3.60193 7.28363 3.57874 7.25283 3.55007C7.19131 3.49279 7.10334 3.41322 6.99486 3.32143C6.7796 3.13929 6.47579 2.90237 6.13226 2.69625C5.79497 2.49388 5.38465 2.29987 4.96135 2.2394C4.52063 2.17644 4.03535 2.25755 3.64646 2.64645L4.35356 3.35355ZM7.00002 4C6.60958 4.31235 6.60971 4.31251 6.60984 4.31268C6.6099 4.31274 6.61004 4.31292 6.61015 4.31306C6.61037 4.31334 6.61062 4.31365 6.61091 4.314C6.61147 4.31471 6.61217 4.31556 6.61298 4.31657C6.61461 4.31858 6.61673 4.32118 6.61934 4.32436C6.62456 4.33072 6.63172 4.33936 6.64078 4.3501C6.65888 4.37156 6.68458 4.40142 6.71738 4.43805C6.7829 4.51121 6.87731 4.61198 6.9967 4.72711C7.23369 4.95564 7.57797 5.24933 7.99808 5.49439C8.84144 5.98635 10.076 6.31803 11.3 5.4L10.7 4.6C9.92405 5.18198 9.15859 5.01365 8.50195 4.63061C8.17206 4.43818 7.89134 4.20061 7.69083 4.00727C7.59147 3.91146 7.51401 3.82863 7.46233 3.77093C7.43655 3.74214 7.41732 3.71975 7.40515 3.70532C7.39907 3.69811 7.39476 3.69291 7.39229 3.68989C7.39105 3.68839 7.39027 3.68743 7.38997 3.68705C7.38981 3.68686 7.38977 3.68681 7.38985 3.68691C7.38989 3.68696 7.38996 3.68705 7.39006 3.68717C7.39011 3.68723 7.39021 3.68735 7.39023 3.68738C7.39034 3.68751 7.39045 3.68765 7.00002 4Z" fill="#FFDA61"/>
<path d="M11 1L11.5847 3.58844L13.8284 2.17157L12.4116 4.41531L15 5L12.4116 5.58469L13.8284 7.82843L11.5847 6.41156L11 9L10.4153 6.41156L8.17157 7.82843L9.58844 5.58469L7 5L9.58844 4.41531L8.17157 2.17157L10.4153 3.58844L11 1Z" fill="url(#paint3_radial_87_1988)"/>
<defs>
<filter id="filter0_ii_87_1988" x="-3" y="-2" width="18" height="18" filterUnits="userSpaceOnUse" color-interpolation-filters="sRGB">
<feFlood flood-opacity="0" result="BackgroundImageFix"/>
<feBlend mode="normal" in="SourceGraphic" in2="BackgroundImageFix" result="shape"/>
<feColorMatrix in="SourceAlpha" type="matrix" values="0 0 0 0 0 0 0 0 0 0 0 0 0 0 0 0 0 0 127 0" result="hardAlpha"/>
<feOffset dx="-5" dy="-5"/>
<feGaussianBlur stdDeviation="2"/>
<feComposite in2="hardAlpha" operator="arithmetic" k2="-1" k3="1"/>
<feColorMatrix type="matrix" values="0 0 0 0 0 0 0 0 0 0 0 0 0 0 0 0 0 0 0.5 0"/>
<feBlend mode="normal" in2="shape" result="effect1_innerShadow_87_1988"/>
<feColorMatrix in="SourceAlpha" type="matrix" values="0 0 0 0 0 0 0 0 0 0 0 0 0 0 0 0 0 0 127 0" result="hardAlpha"/>
<feMorphology radius="2" operator="erode" in="SourceAlpha" result="effect2_innerShadow_87_1988"/>
<feOffset/>
<feComposite in2="hardAlpha" operator="arithmetic" k2="-1" k3="1"/>
<feColorMatrix type="matrix" values="0 0 0 0 1 0 0 0 0 1 0 0 0 0 1 0 0 0 0.1 0"/>
<feBlend mode="normal" in2="effect1_innerShadow_87_1988" result="effect2_innerShadow_87_1988"/>
</filter>
<linearGradient id="paint0_linear_87_1988" x1="1" y1="2" x2="15" y2="16" gradientUnits="userSpaceOnUse">
<stop offset="0.143679" stop-color="#7D7D7D"/>
<stop offset="0.854564" stop-color="#505050"/>
</linearGradient>
<linearGradient id="paint1_linear_87_1988" x1="15" y1="16" x2="1" y2="2" gradientUnits="userSpaceOnUse">
<stop offset="0.143485" stop-color="#090909"/>
<stop offset="0.856747" stop-color="#585858"/>
</linearGradient>
<linearGradient id="paint2_linear_87_1988" x1="3" y1="4" x2="7" y2="8" gradientUnits="userSpaceOnUse">
<stop stop-color="#929292"/>
<stop offset="1" stop-color="#313131"/>
</linearGradient>
<radialGradient id="paint3_radial_87_1988" cx="0" cy="0" r="1" gradientUnits="userSpaceOnUse" gradientTransform="translate(11 5) rotate(90) scale(4)">
<stop offset="0.247296" stop-color="#FFEB85"/>
<stop offset="1" stop-color="#E89B05"/>
</radialGradient>
</defs>
</svg>
