<svg width="16" height="16" viewBox="0 0 16 16" fill="none" xmlns="http://www.w3.org/2000/svg">
<g clip-path="url(#clip0_99_12638)">
<path d="M1 13.5H-4.5V3.5H1C1.27614 3.5 1.5 3.72386 1.5 4V4.5H2H4H4.5V4C4.5 3.72386 4.72386 3.5 5 3.5H10.5V13.5H5C4.34689 13.5 3.79127 13.9174 3.58535 14.5H2.41465C2.20873 13.9174 1.65311 13.5 1 13.5Z" fill="#6EA0C9"/>
<path d="M1 13.5H-4.5V3.5H1C1.27614 3.5 1.5 3.72386 1.5 4V4.5H2H4H4.5V4C4.5 3.72386 4.72386 3.5 5 3.5H10.5V13.5H5C4.34689 13.5 3.79127 13.9174 3.58535 14.5H2.41465C2.20873 13.9174 1.65311 13.5 1 13.5Z" fill="url(#paint0_linear_99_12638)"/>
<path d="M1 13.5H-4.5V3.5H1C1.27614 3.5 1.5 3.72386 1.5 4V4.5H2H4H4.5V4C4.5 3.72386 4.72386 3.5 5 3.5H10.5V13.5H5C4.34689 13.5 3.79127 13.9174 3.58535 14.5H2.41465C2.20873 13.9174 1.65311 13.5 1 13.5Z" stroke="url(#paint1_linear_99_12638)"/>
<path d="M5.41421 2.5H9.5V11.5H5.41421C4.53452 11.5 3.68536 11.7961 3 12.3332C2.31464 11.7961 1.46548 11.5 0.585786 11.5H-3.5V2.5H0.585786C1.35868 2.5 2.09993 2.80703 2.64645 3.35355L3 3.70711L3.35355 3.35355C3.90007 2.80703 4.64132 2.5 5.41421 2.5Z" fill="url(#paint2_linear_99_12638)" stroke="url(#paint3_linear_99_12638)"/>
<path fill-rule="evenodd" clip-rule="evenodd" d="M-2 4.5C-2 4.22386 -1.77614 4 -1.5 4H-0.208204C0.335154 4 0.87105 4.12651 1.35704 4.3695L1.72361 4.55279C1.9706 4.67628 2.07071 4.97662 1.94721 5.22361C1.82372 5.4706 1.52338 5.57071 1.27639 5.44721L0.90983 5.26393C0.562691 5.09036 0.179909 5 -0.208204 5H-1.5C-1.77614 5 -2 4.77614 -2 4.5Z" fill="black" fill-opacity="0.33"/>
<path fill-rule="evenodd" clip-rule="evenodd" d="M-2 8.5C-2 8.22386 -1.77614 8 -1.5 8H-0.208204C0.335154 8 0.87105 8.12651 1.35704 8.3695L1.72361 8.55279C1.9706 8.67628 2.07071 8.97662 1.94721 9.22361C1.82372 9.4706 1.52338 9.57071 1.27639 9.44721L0.90983 9.26393C0.562691 9.09036 0.179909 9 -0.208204 9H-1.5C-1.77614 9 -2 8.77614 -2 8.5Z" fill="black" fill-opacity="0.33"/>
<path fill-rule="evenodd" clip-rule="evenodd" d="M-2 6.5C-2 6.22386 -1.77614 6 -1.5 6H-0.208204C0.335154 6 0.87105 6.12651 1.35704 6.3695L1.72361 6.55279C1.9706 6.67628 2.07071 6.97662 1.94721 7.22361C1.82372 7.4706 1.52338 7.57071 1.27639 7.44721L0.90983 7.26393C0.562691 7.09036 0.179909 7 -0.208204 7H-1.5C-1.77614 7 -2 6.77614 -2 6.5Z" fill="black" fill-opacity="0.33"/>
<path fill-rule="evenodd" clip-rule="evenodd" d="M8.00012 4.5C8.00012 4.22386 7.77626 4 7.50012 4H6.20833C5.66497 4 5.12907 4.12651 4.64308 4.3695L4.27652 4.55279C4.02953 4.67628 3.92941 4.97662 4.05291 5.22361C4.1764 5.4706 4.47674 5.57071 4.72373 5.44721L5.09029 5.26393C5.43743 5.09036 5.82021 5 6.20833 5H7.50012C7.77626 5 8.00012 4.77614 8.00012 4.5Z" fill="black" fill-opacity="0.33"/>
<path fill-rule="evenodd" clip-rule="evenodd" d="M8.00012 8.5C8.00012 8.22386 7.77626 8 7.50012 8H6.20833C5.66497 8 5.12907 8.12651 4.64308 8.3695L4.27652 8.55279C4.02953 8.67628 3.92941 8.97662 4.05291 9.22361C4.1764 9.4706 4.47674 9.57071 4.72373 9.44721L5.09029 9.26393C5.43743 9.09036 5.82021 9 6.20833 9H7.50012C7.77626 9 8.00012 8.77614 8.00012 8.5Z" fill="black" fill-opacity="0.33"/>
<path fill-rule="evenodd" clip-rule="evenodd" d="M8.00012 6.5C8.00012 6.22386 7.77626 6 7.50012 6H6.20833C5.66497 6 5.12907 6.12651 4.64308 6.3695L4.27652 6.55279C4.02953 6.67628 3.92941 6.97662 4.05291 7.22361C4.1764 7.4706 4.47674 7.57071 4.72373 7.44721L5.09029 7.26393C5.43743 7.09036 5.82021 7 6.20833 7H7.50012C7.77626 7 8.00012 6.77614 8.00012 6.5Z" fill="black" fill-opacity="0.33"/>
<g filter="url(#filter0_i_99_12638)">
<path d="M12 5L5 5V9H12V11L16 7L12 3V5Z" fill="#82C27C"/>
</g>
<path d="M12 5.5C12.2761 5.5 12.5 5.27614 12.5 5V4.20711L15.2929 7L12.5 9.79289V9C12.5 8.72386 12.2761 8.5 12 8.5H5.5V5.5H12Z" stroke="url(#paint4_linear_99_12638)" stroke-linejoin="round"/>
</g>
<defs>
<filter id="filter0_i_99_12638" x="5" y="3" width="12" height="9" filterUnits="userSpaceOnUse" color-interpolation-filters="sRGB">
<feFlood flood-opacity="0" result="BackgroundImageFix"/>
<feBlend mode="normal" in="SourceGraphic" in2="BackgroundImageFix" result="shape"/>
<feColorMatrix in="SourceAlpha" type="matrix" values="0 0 0 0 0 0 0 0 0 0 0 0 0 0 0 0 0 0 127 0" result="hardAlpha"/>
<feOffset dx="1" dy="1"/>
<feGaussianBlur stdDeviation="1"/>
<feComposite in2="hardAlpha" operator="arithmetic" k2="-1" k3="1"/>
<feColorMatrix type="matrix" values="0 0 0 0 0.71381 0 0 0 0 0.864312 0 0 0 0 0.687251 0 0 0 1 0"/>
<feBlend mode="normal" in2="shape" result="effect1_innerShadow_99_12638"/>
</filter>
<linearGradient id="paint0_linear_99_12638" x1="-3.66667" y1="3.75" x2="1.81895" y2="17.4031" gradientUnits="userSpaceOnUse">
<stop offset="0.322074" stop-color="#A9CEF6"/>
<stop offset="1" stop-color="#3E77B5"/>
</linearGradient>
<linearGradient id="paint1_linear_99_12638" x1="11" y1="15" x2="4.28497" y2="-0.917099" gradientUnits="userSpaceOnUse">
<stop stop-color="#012E5B"/>
<stop offset="1" stop-color="#6399C6"/>
</linearGradient>
<linearGradient id="paint2_linear_99_12638" x1="-4" y1="8" x2="10" y2="8" gradientUnits="userSpaceOnUse">
<stop offset="0.357143" stop-color="#F8F8F8"/>
<stop offset="0.504464" stop-color="#D0D0D0"/>
<stop offset="0.647321" stop-color="#F8F8F8"/>
</linearGradient>
<linearGradient id="paint3_linear_99_12638" x1="10" y1="13" x2="3.64507" y2="-1.37884" gradientUnits="userSpaceOnUse">
<stop stop-color="#363636"/>
<stop offset="1" stop-color="#F2F2F2"/>
</linearGradient>
<linearGradient id="paint4_linear_99_12638" x1="16" y1="11" x2="3.29924" y2="1.29901" gradientUnits="userSpaceOnUse">
<stop stop-color="#2A6B26"/>
<stop offset="1" stop-color="#80C178"/>
</linearGradient>
<clipPath id="clip0_99_12638">
<rect width="16" height="16" fill="white"/>
</clipPath>
</defs>
</svg>
