<svg width="16" height="16" viewBox="0 0 16 16" fill="none" xmlns="http://www.w3.org/2000/svg">
<g clip-path="url(#clip0_99_12633)">
<g filter="url(#filter0_i_99_12633)">
<path d="M14 13V2C14 0.895431 13.1046 0 12 0H3C2.44772 0 2 0.447715 2 1V13C2 14.1046 2.89543 15 4 15H12C13.1046 15 14 14.1046 14 13Z" fill="#003277"/>
</g>
<path d="M13.5 2V13C13.5 13.8284 12.8284 14.5 12 14.5H4C3.17157 14.5 2.5 13.8284 2.5 13V1C2.5 0.723858 2.72386 0.5 3 0.5H12C12.8284 0.5 13.5 1.17157 13.5 2Z" stroke="url(#paint0_linear_99_12633)" stroke-opacity="0.6" style="mix-blend-mode:overlay"/>
<path d="M13.5 2V13C13.5 13.8284 12.8284 14.5 12 14.5H4C3.17157 14.5 2.5 13.8284 2.5 13V1C2.5 0.723858 2.72386 0.5 3 0.5H12C12.8284 0.5 13.5 1.17157 13.5 2Z" stroke="url(#paint1_linear_99_12633)" stroke-opacity="0.2"/>
<path d="M13 12V4C13 2.89543 12.1046 2 11 2H3C2.44771 2 2 2.44772 2 3V12.1667C2 13.1792 2.82081 14 3.83333 14H11C12.1046 14 13 13.1046 13 12Z" fill="white"/>
<path d="M12.5 5V14C12.5 14.8284 11.8284 15.5 11 15.5H3C2.17157 15.5 1.5 14.8284 1.5 14V2C1.5 1.34689 1.9174 0.791271 2.5 0.585353V2C2.5 2.82843 3.17157 3.5 4 3.5L11 3.5C11.8284 3.5 12.5 4.17157 12.5 5Z" fill="#6EA0C9"/>
<path d="M12.5 5V14C12.5 14.8284 11.8284 15.5 11 15.5H3C2.17157 15.5 1.5 14.8284 1.5 14V2C1.5 1.34689 1.9174 0.791271 2.5 0.585353V2C2.5 2.82843 3.17157 3.5 4 3.5L11 3.5C11.8284 3.5 12.5 4.17157 12.5 5Z" fill="url(#paint2_linear_99_12633)"/>
<path d="M12.5 5V14C12.5 14.8284 11.8284 15.5 11 15.5H3C2.17157 15.5 1.5 14.8284 1.5 14V2C1.5 1.34689 1.9174 0.791271 2.5 0.585353V2C2.5 2.82843 3.17157 3.5 4 3.5L11 3.5C11.8284 3.5 12.5 4.17157 12.5 5Z" stroke="url(#paint3_linear_99_12633)"/>
<mask id="path-5-inside-1_99_12633" fill="white">
<path fill-rule="evenodd" clip-rule="evenodd" d="M4.2435 3.98533C4.16369 3.99501 4.08243 4 4 4C2.89543 4 2 3.10457 2 2V4V6V14C2 14.5523 2.44772 15 3 15H11C11.5523 15 12 14.5523 12 14V5C12 4.44772 11.5523 4 11 4H4.41421C4.35661 4 4.29951 3.99503 4.2435 3.98533Z"/>
</mask>
<path d="M4.2435 3.98533L4.41421 3L4.26916 2.97487L4.12301 2.99261L4.2435 3.98533ZM4.12301 2.99261C4.08309 2.99746 4.04206 3 4 3V5C4.1228 5 4.2443 4.99257 4.364 4.97804L4.12301 2.99261ZM4 3C3.44772 3 3 2.55228 3 2H1C1 3.65685 2.34315 5 4 5V3ZM1 2V4H3V2H1ZM1 4V6H3V4H1ZM1 6V14H3V6H1ZM1 14C1 15.1046 1.89543 16 3 16V14H1ZM3 16H11V14H3V16ZM11 16C12.1046 16 13 15.1046 13 14H11V16ZM13 14V5H11V14H13ZM13 5C13 3.89543 12.1046 3 11 3V5H13ZM11 3H4.41421V5H11V3ZM4.41421 3L4.41421 3L4.07279 4.97065C4.18485 4.99006 4.29906 5 4.41421 5V3Z" fill="white" fill-opacity="0.5" style="mix-blend-mode:soft-light" mask="url(#path-5-inside-1_99_12633)"/>
<rect x="3" y="5" width="1" height="9" fill="#25578A" fill-opacity="0.5" style="mix-blend-mode:darken"/>
<rect x="5" y="6" width="5" height="1" rx="0.5" fill="#E1ECF4"/>
<path d="M4.54043 14.803C4.45989 14.991 4.50188 15.209 4.64645 15.3536C4.79102 15.4981 5.00904 15.5401 5.19696 15.4596L8.69696 13.9596C8.84946 13.8942 8.9596 13.7575 8.99098 13.5946C9.02235 13.4316 8.97087 13.2638 8.85355 13.1464L6.85355 11.1464C6.73624 11.0291 6.56836 10.9776 6.40545 11.009C6.24253 11.0404 6.10578 11.1505 6.04043 11.303L4.54043 14.803Z" fill="url(#paint4_linear_99_12633)"/>
<path d="M4.54043 14.803C4.45989 14.991 4.50188 15.209 4.64645 15.3536C4.79102 15.4981 5.00904 15.5401 5.19696 15.4596L8.69696 13.9596C8.84946 13.8942 8.9596 13.7575 8.99098 13.5946C9.02235 13.4316 8.97087 13.2638 8.85355 13.1464L6.85355 11.1464C6.73624 11.0291 6.56836 10.9776 6.40545 11.009C6.24253 11.0404 6.10578 11.1505 6.04043 11.303L4.54043 14.803Z" fill="url(#paint5_linear_99_12633)"/>
<path d="M4.54043 14.803C4.45989 14.991 4.50188 15.209 4.64645 15.3536C4.79102 15.4981 5.00904 15.5401 5.19696 15.4596L8.69696 13.9596C8.84946 13.8942 8.9596 13.7575 8.99098 13.5946C9.02235 13.4316 8.97087 13.2638 8.85355 13.1464L6.85355 11.1464C6.73624 11.0291 6.56836 10.9776 6.40545 11.009C6.24253 11.0404 6.10578 11.1505 6.04043 11.303L4.54043 14.803Z" stroke="url(#paint6_linear_99_12633)" stroke-linejoin="round"/>
<path d="M4.54043 14.803C4.45989 14.991 4.50188 15.209 4.64645 15.3536C4.79102 15.4981 5.00904 15.5401 5.19696 15.4596L8.69696 13.9596C8.84946 13.8942 8.9596 13.7575 8.99098 13.5946C9.02235 13.4316 8.97087 13.2638 8.85355 13.1464L6.85355 11.1464C6.73624 11.0291 6.56836 10.9776 6.40545 11.009C6.24253 11.0404 6.10578 11.1505 6.04043 11.303L4.54043 14.803Z" stroke="url(#paint7_linear_99_12633)" stroke-linejoin="round"/>
<path d="M6.14645 11.1464C5.95118 11.3417 5.95118 11.6583 6.14645 11.8536L8.14645 13.8536C8.34171 14.0488 8.65829 14.0488 8.85355 13.8536L14.8536 7.85355C15.0488 7.65829 15.0488 7.34171 14.8536 7.14645L12.8536 5.14645C12.6583 4.95118 12.3417 4.95118 12.1464 5.14645L6.14645 11.1464Z" fill="url(#paint8_linear_99_12633)" stroke="url(#paint9_linear_99_12633)" stroke-linejoin="round"/>
<path fill-rule="evenodd" clip-rule="evenodd" d="M6.5 11.5L7.20711 12.2071L13.2071 6.20711L12.5 5.5L6.5 11.5Z" fill="#FCF4B3"/>
<path d="M14.1464 7.85356L14.5 8.20712L14.8536 7.85356C15.0768 7.63032 15.3397 7.23926 15.4185 6.75535C15.5023 6.24043 15.3688 5.66169 14.8536 5.14646C14.3383 4.63123 13.7596 4.49768 13.2447 4.58151C12.7607 4.66028 12.3697 4.92321 12.1464 5.14646L11.7929 5.50001L12.1464 5.85356L14.1464 7.85356Z" fill="url(#paint10_linear_99_12633)" stroke="url(#paint11_linear_99_12633)"/>
</g>
<defs>
<filter id="filter0_i_99_12633" x="2" y="0" width="14" height="17" filterUnits="userSpaceOnUse" color-interpolation-filters="sRGB">
<feFlood flood-opacity="0" result="BackgroundImageFix"/>
<feBlend mode="normal" in="SourceGraphic" in2="BackgroundImageFix" result="shape"/>
<feColorMatrix in="SourceAlpha" type="matrix" values="0 0 0 0 0 0 0 0 0 0 0 0 0 0 0 0 0 0 127 0" result="hardAlpha"/>
<feOffset dx="2" dy="2"/>
<feGaussianBlur stdDeviation="2.5"/>
<feComposite in2="hardAlpha" operator="arithmetic" k2="-1" k3="1"/>
<feColorMatrix type="matrix" values="0 0 0 0 1 0 0 0 0 1 0 0 0 0 1 0 0 0 0.5 0"/>
<feBlend mode="hard-light" in2="shape" result="effect1_innerShadow_99_12633"/>
</filter>
<linearGradient id="paint0_linear_99_12633" x1="2" y1="0" x2="13.5" y2="15" gradientUnits="userSpaceOnUse">
<stop stop-color="#666666"/>
<stop offset="1" stop-opacity="0.5"/>
</linearGradient>
<linearGradient id="paint1_linear_99_12633" x1="2" y1="0" x2="14" y2="15" gradientUnits="userSpaceOnUse">
<stop stop-opacity="0"/>
<stop offset="1" stop-opacity="0.5"/>
</linearGradient>
<linearGradient id="paint2_linear_99_12633" x1="2" y1="1" x2="12" y2="15" gradientUnits="userSpaceOnUse">
<stop offset="0.322074" stop-color="#A9CEF6"/>
<stop offset="1" stop-color="#3E77B5"/>
</linearGradient>
<linearGradient id="paint3_linear_99_12633" x1="13" y1="16" x2="1" y2="3.57628e-07" gradientUnits="userSpaceOnUse">
<stop stop-color="#375B8F"/>
<stop offset="1" stop-color="#617EA8"/>
</linearGradient>
<linearGradient id="paint4_linear_99_12633" x1="6.16667" y1="11.8889" x2="8.11111" y2="13.8333" gradientUnits="userSpaceOnUse">
<stop stop-color="#FAE7D1"/>
<stop offset="1" stop-color="#E89840"/>
</linearGradient>
<linearGradient id="paint5_linear_99_12633" x1="6.94444" y1="12.6667" x2="3.83333" y2="15.7778" gradientUnits="userSpaceOnUse">
<stop stop-color="#584013" stop-opacity="0"/>
<stop offset="0.499937" stop-color="#584013" stop-opacity="0"/>
<stop offset="0.661921" stop-color="#584013"/>
</linearGradient>
<linearGradient id="paint6_linear_99_12633" x1="6.16667" y1="12.6667" x2="7.33333" y2="13.8333" gradientUnits="userSpaceOnUse">
<stop stop-color="#B98926"/>
<stop offset="1" stop-color="#AA6016"/>
</linearGradient>
<linearGradient id="paint7_linear_99_12633" x1="7.72222" y1="11.8889" x2="3.83333" y2="15.7778" gradientUnits="userSpaceOnUse">
<stop offset="0.5" stop-color="#B98926" stop-opacity="0"/>
<stop offset="0.656842" stop-color="#584013"/>
</linearGradient>
<linearGradient id="paint8_linear_99_12633" x1="6.5" y1="11.6579" x2="8.34211" y2="13.5" gradientUnits="userSpaceOnUse">
<stop stop-color="#F5DC60"/>
<stop offset="1" stop-color="#EFCB1A"/>
</linearGradient>
<linearGradient id="paint9_linear_99_12633" x1="6.5" y1="11.6579" x2="8.3421" y2="13.5" gradientUnits="userSpaceOnUse">
<stop stop-color="#E9C755"/>
<stop offset="1" stop-color="#D98F3B"/>
</linearGradient>
<linearGradient id="paint10_linear_99_12633" x1="12.4766" y1="6.30195" x2="14.8903" y2="6.69267" gradientUnits="userSpaceOnUse">
<stop stop-color="#FDD7D1"/>
<stop offset="1" stop-color="#FBACA1"/>
</linearGradient>
<linearGradient id="paint11_linear_99_12633" x1="12.5" y1="6.31509" x2="14.8693" y2="6.72938" gradientUnits="userSpaceOnUse">
<stop stop-color="#E1B3AD"/>
<stop offset="1" stop-color="#B17971"/>
</linearGradient>
<clipPath id="clip0_99_12633">
<rect width="16" height="16" fill="white"/>
</clipPath>
</defs>
</svg>
