<svg width="16" height="16" viewBox="0 0 16 16" fill="none" xmlns="http://www.w3.org/2000/svg">
<g clip-path="url(#clip0_99_12637)">
<g filter="url(#filter0_i_99_12637)">
<path d="M14 13V2C14 0.895431 13.1046 0 12 0H3C2.44772 0 2 0.447715 2 1V13C2 14.1046 2.89543 15 4 15H12C13.1046 15 14 14.1046 14 13Z" fill="#003277"/>
</g>
<path d="M13.5 2V13C13.5 13.8284 12.8284 14.5 12 14.5H4C3.17157 14.5 2.5 13.8284 2.5 13V1C2.5 0.723858 2.72386 0.5 3 0.5H12C12.8284 0.5 13.5 1.17157 13.5 2Z" stroke="url(#paint0_linear_99_12637)" stroke-opacity="0.6" style="mix-blend-mode:overlay"/>
<path d="M13.5 2V13C13.5 13.8284 12.8284 14.5 12 14.5H4C3.17157 14.5 2.5 13.8284 2.5 13V1C2.5 0.723858 2.72386 0.5 3 0.5H12C12.8284 0.5 13.5 1.17157 13.5 2Z" stroke="url(#paint1_linear_99_12637)" stroke-opacity="0.2"/>
<path d="M13 12V4C13 2.89543 12.1046 2 11 2H3C2.44771 2 2 2.44772 2 3V12.1667C2 13.1792 2.82081 14 3.83333 14H11C12.1046 14 13 13.1046 13 12Z" fill="white"/>
<path d="M12.5 5V14C12.5 14.8284 11.8284 15.5 11 15.5H3C2.17157 15.5 1.5 14.8284 1.5 14V2C1.5 1.34689 1.9174 0.791271 2.5 0.585353V2C2.5 2.82843 3.17157 3.5 4 3.5L11 3.5C11.8284 3.5 12.5 4.17157 12.5 5Z" fill="#6EA0C9"/>
<path d="M12.5 5V14C12.5 14.8284 11.8284 15.5 11 15.5H3C2.17157 15.5 1.5 14.8284 1.5 14V2C1.5 1.34689 1.9174 0.791271 2.5 0.585353V2C2.5 2.82843 3.17157 3.5 4 3.5L11 3.5C11.8284 3.5 12.5 4.17157 12.5 5Z" fill="url(#paint2_linear_99_12637)"/>
<path d="M12.5 5V14C12.5 14.8284 11.8284 15.5 11 15.5H3C2.17157 15.5 1.5 14.8284 1.5 14V2C1.5 1.34689 1.9174 0.791271 2.5 0.585353V2C2.5 2.82843 3.17157 3.5 4 3.5L11 3.5C11.8284 3.5 12.5 4.17157 12.5 5Z" stroke="url(#paint3_linear_99_12637)"/>
<mask id="path-5-inside-1_99_12637" fill="white">
<path fill-rule="evenodd" clip-rule="evenodd" d="M4.2435 3.98533C4.16369 3.99501 4.08243 4 4 4C2.89543 4 2 3.10457 2 2V4V6V14C2 14.5523 2.44772 15 3 15H11C11.5523 15 12 14.5523 12 14V5C12 4.44772 11.5523 4 11 4H4.41421C4.35661 4 4.29951 3.99503 4.2435 3.98533Z"/>
</mask>
<path d="M4.2435 3.98533L4.41421 3L4.26916 2.97487L4.12301 2.99261L4.2435 3.98533ZM4.12301 2.99261C4.08309 2.99746 4.04206 3 4 3V5C4.1228 5 4.2443 4.99257 4.364 4.97804L4.12301 2.99261ZM4 3C3.44772 3 3 2.55228 3 2H1C1 3.65685 2.34315 5 4 5V3ZM1 2V4H3V2H1ZM1 4V6H3V4H1ZM1 6V14H3V6H1ZM1 14C1 15.1046 1.89543 16 3 16V14H1ZM3 16H11V14H3V16ZM11 16C12.1046 16 13 15.1046 13 14H11V16ZM13 14V5H11V14H13ZM13 5C13 3.89543 12.1046 3 11 3V5H13ZM11 3H4.41421V5H11V3ZM4.41421 3L4.41421 3L4.07279 4.97065C4.18485 4.99006 4.29906 5 4.41421 5V3Z" fill="white" fill-opacity="0.5" style="mix-blend-mode:soft-light" mask="url(#path-5-inside-1_99_12637)"/>
<rect x="3" y="5" width="1" height="9" fill="#25578A" fill-opacity="0.5" style="mix-blend-mode:darken"/>
<rect x="5" y="6" width="5" height="1" rx="0.5" fill="#E1ECF4"/>
<mask id="path-9-inside-2_99_12637" fill="white">
<path fill-rule="evenodd" clip-rule="evenodd" d="M6.5 16C8.433 16 10 14.433 10 12.5C10 10.567 8.433 9 6.5 9C4.567 9 3 10.567 3 12.5C3 14.433 4.567 16 6.5 16ZM6.5 13C6.77614 13 7 12.7761 7 12.5C7 12.2239 6.77614 12 6.5 12C6.22386 12 6 12.2239 6 12.5C6 12.7761 6.22386 13 6.5 13Z"/>
</mask>
<path fill-rule="evenodd" clip-rule="evenodd" d="M6.5 16C8.433 16 10 14.433 10 12.5C10 10.567 8.433 9 6.5 9C4.567 9 3 10.567 3 12.5C3 14.433 4.567 16 6.5 16ZM6.5 13C6.77614 13 7 12.7761 7 12.5C7 12.2239 6.77614 12 6.5 12C6.22386 12 6 12.2239 6 12.5C6 12.7761 6.22386 13 6.5 13Z" fill="url(#paint4_linear_99_12637)"/>
<path d="M9 12.5C9 13.8807 7.88071 15 6.5 15V17C8.98528 17 11 14.9853 11 12.5H9ZM6.5 10C7.88071 10 9 11.1193 9 12.5H11C11 10.0147 8.98528 8 6.5 8V10ZM4 12.5C4 11.1193 5.11929 10 6.5 10V8C4.01472 8 2 10.0147 2 12.5H4ZM6.5 15C5.11929 15 4 13.8807 4 12.5H2C2 14.9853 4.01472 17 6.5 17V15ZM6 12.5C6 12.2239 6.22386 12 6.5 12V14C7.32843 14 8 13.3284 8 12.5H6ZM6.5 13C6.22386 13 6 12.7761 6 12.5H8C8 11.6716 7.32843 11 6.5 11V13ZM7 12.5C7 12.7761 6.77614 13 6.5 13V11C5.67157 11 5 11.6716 5 12.5H7ZM6.5 12C6.77614 12 7 12.2239 7 12.5H5C5 13.3284 5.67157 14 6.5 14V12Z" fill="url(#paint5_linear_99_12637)" mask="url(#path-9-inside-2_99_12637)"/>
<mask id="path-11-inside-3_99_12637" fill="white">
<path fill-rule="evenodd" clip-rule="evenodd" d="M12.5 16C14.433 16 16 14.433 16 12.5C16 10.567 14.433 9 12.5 9C10.567 9 9 10.567 9 12.5C9 14.433 10.567 16 12.5 16ZM12.5 13C12.7761 13 13 12.7761 13 12.5C13 12.2239 12.7761 12 12.5 12C12.2239 12 12 12.2239 12 12.5C12 12.7761 12.2239 13 12.5 13Z"/>
</mask>
<path fill-rule="evenodd" clip-rule="evenodd" d="M12.5 16C14.433 16 16 14.433 16 12.5C16 10.567 14.433 9 12.5 9C10.567 9 9 10.567 9 12.5C9 14.433 10.567 16 12.5 16ZM12.5 13C12.7761 13 13 12.7761 13 12.5C13 12.2239 12.7761 12 12.5 12C12.2239 12 12 12.2239 12 12.5C12 12.7761 12.2239 13 12.5 13Z" fill="url(#paint6_linear_99_12637)"/>
<path d="M15 12.5C15 13.8807 13.8807 15 12.5 15V17C14.9853 17 17 14.9853 17 12.5H15ZM12.5 10C13.8807 10 15 11.1193 15 12.5H17C17 10.0147 14.9853 8 12.5 8V10ZM10 12.5C10 11.1193 11.1193 10 12.5 10V8C10.0147 8 8 10.0147 8 12.5H10ZM12.5 15C11.1193 15 10 13.8807 10 12.5H8C8 14.9853 10.0147 17 12.5 17V15ZM12 12.5C12 12.2239 12.2239 12 12.5 12V14C13.3284 14 14 13.3284 14 12.5H12ZM12.5 13C12.2239 13 12 12.7761 12 12.5H14C14 11.6716 13.3284 11 12.5 11V13ZM13 12.5C13 12.7761 12.7761 13 12.5 13V11C11.6716 11 11 11.6716 11 12.5H13ZM12.5 12C12.7761 12 13 12.2239 13 12.5H11C11 13.3284 11.6716 14 12.5 14V12Z" fill="url(#paint7_linear_99_12637)" mask="url(#path-11-inside-3_99_12637)"/>
<rect x="6.5" y="11.5" width="6" height="2" fill="url(#paint8_linear_99_12637)"/>
<rect x="6.5" y="11.5" width="6" height="2" stroke="url(#paint9_linear_99_12637)" stroke-linejoin="round"/>
<rect x="6.5" y="11.5" width="6" height="2" stroke="url(#paint10_linear_99_12637)" stroke-linejoin="round"/>
</g>
<defs>
<filter id="filter0_i_99_12637" x="2" y="0" width="14" height="17" filterUnits="userSpaceOnUse" color-interpolation-filters="sRGB">
<feFlood flood-opacity="0" result="BackgroundImageFix"/>
<feBlend mode="normal" in="SourceGraphic" in2="BackgroundImageFix" result="shape"/>
<feColorMatrix in="SourceAlpha" type="matrix" values="0 0 0 0 0 0 0 0 0 0 0 0 0 0 0 0 0 0 127 0" result="hardAlpha"/>
<feOffset dx="2" dy="2"/>
<feGaussianBlur stdDeviation="2.5"/>
<feComposite in2="hardAlpha" operator="arithmetic" k2="-1" k3="1"/>
<feColorMatrix type="matrix" values="0 0 0 0 1 0 0 0 0 1 0 0 0 0 1 0 0 0 0.5 0"/>
<feBlend mode="hard-light" in2="shape" result="effect1_innerShadow_99_12637"/>
</filter>
<linearGradient id="paint0_linear_99_12637" x1="2" y1="0" x2="13.5" y2="15" gradientUnits="userSpaceOnUse">
<stop stop-color="#666666"/>
<stop offset="1" stop-opacity="0.5"/>
</linearGradient>
<linearGradient id="paint1_linear_99_12637" x1="2" y1="0" x2="14" y2="15" gradientUnits="userSpaceOnUse">
<stop stop-opacity="0"/>
<stop offset="1" stop-opacity="0.5"/>
</linearGradient>
<linearGradient id="paint2_linear_99_12637" x1="2" y1="1" x2="12" y2="15" gradientUnits="userSpaceOnUse">
<stop offset="0.322074" stop-color="#A9CEF6"/>
<stop offset="1" stop-color="#3E77B5"/>
</linearGradient>
<linearGradient id="paint3_linear_99_12637" x1="13" y1="16" x2="1" y2="3.57628e-07" gradientUnits="userSpaceOnUse">
<stop stop-color="#375B8F"/>
<stop offset="1" stop-color="#617EA8"/>
</linearGradient>
<linearGradient id="paint4_linear_99_12637" x1="5" y1="11" x2="8.5" y2="14.5" gradientUnits="userSpaceOnUse">
<stop stop-color="#D9D9D9"/>
<stop offset="1" stop-color="#737373"/>
</linearGradient>
<linearGradient id="paint5_linear_99_12637" x1="10" y1="16" x2="3" y2="9" gradientUnits="userSpaceOnUse">
<stop stop-color="#404040"/>
<stop offset="1" stop-color="#8D8D8D"/>
</linearGradient>
<linearGradient id="paint6_linear_99_12637" x1="11" y1="11" x2="14" y2="14" gradientUnits="userSpaceOnUse">
<stop stop-color="#D9D9D9"/>
<stop offset="1" stop-color="#737373"/>
</linearGradient>
<linearGradient id="paint7_linear_99_12637" x1="16" y1="16" x2="9" y2="9" gradientUnits="userSpaceOnUse">
<stop stop-color="#404040"/>
<stop offset="1" stop-color="#8D8D8D"/>
</linearGradient>
<linearGradient id="paint8_linear_99_12637" x1="7.71429" y1="12.1429" x2="7.98901" y2="13.5165" gradientUnits="userSpaceOnUse">
<stop stop-color="#D9D9D9"/>
<stop offset="1" stop-color="#737373"/>
</linearGradient>
<linearGradient id="paint9_linear_99_12637" x1="9.5" y1="14" x2="9.5" y2="11" gradientUnits="userSpaceOnUse">
<stop offset="0.33" stop-color="#515151"/>
<stop offset="0.66" stop-color="#8D8D8D"/>
</linearGradient>
<linearGradient id="paint10_linear_99_12637" x1="7" y1="12.5" x2="12" y2="12.5" gradientUnits="userSpaceOnUse">
<stop stop-color="#484848"/>
<stop offset="0.515" stop-color="#484848" stop-opacity="0"/>
<stop offset="1" stop-color="#484848"/>
</linearGradient>
<clipPath id="clip0_99_12637">
<rect width="16" height="16" fill="white"/>
</clipPath>
</defs>
</svg>
