<svg width="16" height="16" viewBox="0 0 16 16" fill="none" xmlns="http://www.w3.org/2000/svg">
<g clip-path="url(#clip0_99_12636)">
<g filter="url(#filter0_i_99_12636)">
<path d="M14 13V2C14 0.895431 13.1046 0 12 0H3C2.44772 0 2 0.447715 2 1V13C2 14.1046 2.89543 15 4 15H12C13.1046 15 14 14.1046 14 13Z" fill="#003277"/>
</g>
<path d="M13.5 2V13C13.5 13.8284 12.8284 14.5 12 14.5H4C3.17157 14.5 2.5 13.8284 2.5 13V1C2.5 0.723858 2.72386 0.5 3 0.5H12C12.8284 0.5 13.5 1.17157 13.5 2Z" stroke="url(#paint0_linear_99_12636)" stroke-opacity="0.6" style="mix-blend-mode:overlay"/>
<path d="M13.5 2V13C13.5 13.8284 12.8284 14.5 12 14.5H4C3.17157 14.5 2.5 13.8284 2.5 13V1C2.5 0.723858 2.72386 0.5 3 0.5H12C12.8284 0.5 13.5 1.17157 13.5 2Z" stroke="url(#paint1_linear_99_12636)" stroke-opacity="0.2"/>
<path d="M13 12V4C13 2.89543 12.1046 2 11 2H3C2.44771 2 2 2.44772 2 3V12.1667C2 13.1792 2.82081 14 3.83333 14H11C12.1046 14 13 13.1046 13 12Z" fill="white"/>
<path d="M12.5 5V14C12.5 14.8284 11.8284 15.5 11 15.5H3C2.17157 15.5 1.5 14.8284 1.5 14V2C1.5 1.34689 1.9174 0.791271 2.5 0.585353V2C2.5 2.82843 3.17157 3.5 4 3.5L11 3.5C11.8284 3.5 12.5 4.17157 12.5 5Z" fill="#6EA0C9"/>
<path d="M12.5 5V14C12.5 14.8284 11.8284 15.5 11 15.5H3C2.17157 15.5 1.5 14.8284 1.5 14V2C1.5 1.34689 1.9174 0.791271 2.5 0.585353V2C2.5 2.82843 3.17157 3.5 4 3.5L11 3.5C11.8284 3.5 12.5 4.17157 12.5 5Z" fill="url(#paint2_linear_99_12636)"/>
<path d="M12.5 5V14C12.5 14.8284 11.8284 15.5 11 15.5H3C2.17157 15.5 1.5 14.8284 1.5 14V2C1.5 1.34689 1.9174 0.791271 2.5 0.585353V2C2.5 2.82843 3.17157 3.5 4 3.5L11 3.5C11.8284 3.5 12.5 4.17157 12.5 5Z" stroke="url(#paint3_linear_99_12636)"/>
<mask id="path-5-inside-1_99_12636" fill="white">
<path fill-rule="evenodd" clip-rule="evenodd" d="M4.2435 3.98533C4.16369 3.99501 4.08243 4 4 4C2.89543 4 2 3.10457 2 2V4V6V14C2 14.5523 2.44772 15 3 15H11C11.5523 15 12 14.5523 12 14V5C12 4.44772 11.5523 4 11 4H4.41421C4.35661 4 4.29951 3.99503 4.2435 3.98533Z"/>
</mask>
<path d="M4.2435 3.98533L4.41421 3L4.26916 2.97487L4.12301 2.99261L4.2435 3.98533ZM4.12301 2.99261C4.08309 2.99746 4.04206 3 4 3V5C4.1228 5 4.2443 4.99257 4.364 4.97804L4.12301 2.99261ZM4 3C3.44772 3 3 2.55228 3 2H1C1 3.65685 2.34315 5 4 5V3ZM1 2V4H3V2H1ZM1 4V6H3V4H1ZM1 6V14H3V6H1ZM1 14C1 15.1046 1.89543 16 3 16V14H1ZM3 16H11V14H3V16ZM11 16C12.1046 16 13 15.1046 13 14H11V16ZM13 14V5H11V14H13ZM13 5C13 3.89543 12.1046 3 11 3V5H13ZM11 3H4.41421V5H11V3ZM4.41421 3L4.41421 3L4.07279 4.97065C4.18485 4.99006 4.29906 5 4.41421 5V3Z" fill="white" fill-opacity="0.5" style="mix-blend-mode:soft-light" mask="url(#path-5-inside-1_99_12636)"/>
<rect x="3" y="5" width="1" height="9" fill="#25578A" fill-opacity="0.5" style="mix-blend-mode:darken"/>
<rect x="5" y="6" width="5" height="1" rx="0.5" fill="#E1ECF4"/>
<mask id="path-9-outside-2_99_12636" maskUnits="userSpaceOnUse" x="6" y="6" width="10" height="10" fill="black">
<rect fill="white" x="6" y="6" width="10" height="10"/>
<path fill-rule="evenodd" clip-rule="evenodd" d="M7 15V13.5L10 11V8.5L11.5 7H13L15 9V10.5L13.5 12H11V13H10V14H9V15H7ZM13 8L14 9L13 10L12 9L13 8Z"/>
</mask>
<g filter="url(#filter1_i_99_12636)">
<path fill-rule="evenodd" clip-rule="evenodd" d="M7 15V13.5L10 11V8.5L11.5 7H13L15 9V10.5L13.5 12H11V13H10V14H9V15H7ZM13 8L14 9L13 10L12 9L13 8Z" fill="#F4D847"/>
</g>
<path d="M7 13.5L6.35982 12.7318L6 13.0316V13.5H7ZM7 15H6V16H7V15ZM10 11L10.6402 11.7682L11 11.4684V11H10ZM10 8.5L9.29289 7.79289L9 8.08579V8.5H10ZM11.5 7V6H11.0858L10.7929 6.29289L11.5 7ZM13 7L13.7071 6.29289L13.4142 6H13V7ZM15 9H16V8.58579L15.7071 8.29289L15 9ZM15 10.5L15.7071 11.2071L16 10.9142V10.5H15ZM13.5 12V13H13.9142L14.2071 12.7071L13.5 12ZM11 12V11H10V12H11ZM11 13V14H12V13H11ZM10 13V12H9V13H10ZM10 14V15H11V14H10ZM9 14V13H8V14H9ZM9 15V16H10V15H9ZM14 9L14.7071 9.70711L15.4142 9L14.7071 8.29289L14 9ZM13 8L13.7071 7.29289L13 6.58579L12.2929 7.29289L13 8ZM13 10L12.2929 10.7071L13 11.4142L13.7071 10.7071L13 10ZM12 9L11.2929 8.29289L10.5858 9L11.2929 9.70711L12 9ZM6 13.5V15H8V13.5H6ZM9.35982 10.2318L6.35982 12.7318L7.64018 14.2682L10.6402 11.7682L9.35982 10.2318ZM9 8.5V11H11V8.5H9ZM10.7929 6.29289L9.29289 7.79289L10.7071 9.20711L12.2071 7.70711L10.7929 6.29289ZM13 6H11.5V8H13V6ZM15.7071 8.29289L13.7071 6.29289L12.2929 7.70711L14.2929 9.70711L15.7071 8.29289ZM16 10.5V9H14V10.5H16ZM14.2071 12.7071L15.7071 11.2071L14.2929 9.79289L12.7929 11.2929L14.2071 12.7071ZM11 13H13.5V11H11V13ZM12 13V12H10V13H12ZM10 14H11V12H10V14ZM11 14V13H9V14H11ZM9 15H10V13H9V15ZM10 15V14H8V15H10ZM7 16H9V14H7V16ZM14.7071 8.29289L13.7071 7.29289L12.2929 8.70711L13.2929 9.70711L14.7071 8.29289ZM13.7071 10.7071L14.7071 9.70711L13.2929 8.29289L12.2929 9.29289L13.7071 10.7071ZM11.2929 9.70711L12.2929 10.7071L13.7071 9.29289L12.7071 8.29289L11.2929 9.70711ZM12.2929 7.29289L11.2929 8.29289L12.7071 9.70711L13.7071 8.70711L12.2929 7.29289Z" fill="url(#paint4_linear_99_12636)" mask="url(#path-9-outside-2_99_12636)"/>
</g>
<defs>
<filter id="filter0_i_99_12636" x="2" y="0" width="14" height="17" filterUnits="userSpaceOnUse" color-interpolation-filters="sRGB">
<feFlood flood-opacity="0" result="BackgroundImageFix"/>
<feBlend mode="normal" in="SourceGraphic" in2="BackgroundImageFix" result="shape"/>
<feColorMatrix in="SourceAlpha" type="matrix" values="0 0 0 0 0 0 0 0 0 0 0 0 0 0 0 0 0 0 127 0" result="hardAlpha"/>
<feOffset dx="2" dy="2"/>
<feGaussianBlur stdDeviation="2.5"/>
<feComposite in2="hardAlpha" operator="arithmetic" k2="-1" k3="1"/>
<feColorMatrix type="matrix" values="0 0 0 0 1 0 0 0 0 1 0 0 0 0 1 0 0 0 0.5 0"/>
<feBlend mode="hard-light" in2="shape" result="effect1_innerShadow_99_12636"/>
</filter>
<filter id="filter1_i_99_12636" x="6" y="6" width="10" height="10" filterUnits="userSpaceOnUse" color-interpolation-filters="sRGB">
<feFlood flood-opacity="0" result="BackgroundImageFix"/>
<feBlend mode="normal" in="SourceGraphic" in2="BackgroundImageFix" result="shape"/>
<feColorMatrix in="SourceAlpha" type="matrix" values="0 0 0 0 0 0 0 0 0 0 0 0 0 0 0 0 0 0 127 0" result="hardAlpha"/>
<feOffset dx="2" dy="1"/>
<feComposite in2="hardAlpha" operator="arithmetic" k2="-1" k3="1"/>
<feColorMatrix type="matrix" values="0 0 0 0 1 0 0 0 0 1 0 0 0 0 1 0 0 0 0.5 0"/>
<feBlend mode="normal" in2="shape" result="effect1_innerShadow_99_12636"/>
</filter>
<linearGradient id="paint0_linear_99_12636" x1="2" y1="0" x2="13.5" y2="15" gradientUnits="userSpaceOnUse">
<stop stop-color="#666666"/>
<stop offset="1" stop-opacity="0.5"/>
</linearGradient>
<linearGradient id="paint1_linear_99_12636" x1="2" y1="0" x2="14" y2="15" gradientUnits="userSpaceOnUse">
<stop stop-opacity="0"/>
<stop offset="1" stop-opacity="0.5"/>
</linearGradient>
<linearGradient id="paint2_linear_99_12636" x1="2" y1="1" x2="12" y2="15" gradientUnits="userSpaceOnUse">
<stop offset="0.322074" stop-color="#A9CEF6"/>
<stop offset="1" stop-color="#3E77B5"/>
</linearGradient>
<linearGradient id="paint3_linear_99_12636" x1="13" y1="16" x2="1" y2="3.57628e-07" gradientUnits="userSpaceOnUse">
<stop stop-color="#375B8F"/>
<stop offset="1" stop-color="#617EA8"/>
</linearGradient>
<linearGradient id="paint4_linear_99_12636" x1="8.5" y1="8.5" x2="12.7612" y2="14.0656" gradientUnits="userSpaceOnUse">
<stop stop-color="#EAC15E"/>
<stop offset="1" stop-color="#C98032"/>
</linearGradient>
<clipPath id="clip0_99_12636">
<rect width="16" height="16" fill="white"/>
</clipPath>
</defs>
</svg>
