<svg width="16" height="16" viewBox="0 0 16 16" fill="none" xmlns="http://www.w3.org/2000/svg">
<path d="M3 1.5C2.83282 1.5 2.67671 1.58355 2.58397 1.72265L0.583975 4.72265C0.529219 4.80478 0.5 4.90129 0.5 5V6C0.5 6.27614 0.723858 6.5 1 6.5H15C15.2761 6.5 15.5 6.27614 15.5 6V5C15.5 4.90129 15.4708 4.80478 15.416 4.72265L13.416 1.72265C13.3233 1.58355 13.1672 1.5 13 1.5H3Z" fill="url(#paint0_linear_87_2013)"/>
<path d="M3 1.5C2.83282 1.5 2.67671 1.58355 2.58397 1.72265L0.583975 4.72265C0.529219 4.80478 0.5 4.90129 0.5 5V6C0.5 6.27614 0.723858 6.5 1 6.5H15C15.2761 6.5 15.5 6.27614 15.5 6V5C15.5 4.90129 15.4708 4.80478 15.416 4.72265L13.416 1.72265C13.3233 1.58355 13.1672 1.5 13 1.5H3Z" fill="url(#paint1_linear_87_2013)"/>
<path d="M3 1.5C2.83282 1.5 2.67671 1.58355 2.58397 1.72265L0.583975 4.72265C0.529219 4.80478 0.5 4.90129 0.5 5V6C0.5 6.27614 0.723858 6.5 1 6.5H15C15.2761 6.5 15.5 6.27614 15.5 6V5C15.5 4.90129 15.4708 4.80478 15.416 4.72265L13.416 1.72265C13.3233 1.58355 13.1672 1.5 13 1.5H3Z" stroke="url(#paint2_linear_87_2013)" stroke-linejoin="round"/>
<g filter="url(#filter0_i_87_2013)">
<rect y="5" width="16" height="10" rx="1" fill="url(#paint3_linear_87_2013)"/>
</g>
<rect x="0.5" y="5.5" width="15" height="9" rx="0.5" stroke="url(#paint4_linear_87_2013)"/>
<path d="M1.5 5.15139L3.26759 2.5H12.7324L14.5 5.15139V5.5H1.5V5.15139Z" stroke="white" stroke-opacity="0.2" stroke-linejoin="round" style="mix-blend-mode:plus-lighter"/>
<defs>
<filter id="filter0_i_87_2013" x="0" y="5" width="16" height="10" filterUnits="userSpaceOnUse" color-interpolation-filters="sRGB">
<feFlood flood-opacity="0" result="BackgroundImageFix"/>
<feBlend mode="normal" in="SourceGraphic" in2="BackgroundImageFix" result="shape"/>
<feColorMatrix in="SourceAlpha" type="matrix" values="0 0 0 0 0 0 0 0 0 0 0 0 0 0 0 0 0 0 127 0" result="hardAlpha"/>
<feMorphology radius="2" operator="erode" in="SourceAlpha" result="effect1_innerShadow_87_2013"/>
<feOffset/>
<feComposite in2="hardAlpha" operator="arithmetic" k2="-1" k3="1"/>
<feColorMatrix type="matrix" values="0 0 0 0 1 0 0 0 0 1 0 0 0 0 1 0 0 0 0.25 0"/>
<feBlend mode="normal" in2="shape" result="effect1_innerShadow_87_2013"/>
</filter>
<linearGradient id="paint0_linear_87_2013" x1="8" y1="5" x2="8" y2="1" gradientUnits="userSpaceOnUse">
<stop stop-color="#7A4C12"/>
<stop offset="1" stop-color="#A66F2B"/>
</linearGradient>
<linearGradient id="paint1_linear_87_2013" x1="8" y1="5" x2="8" y2="1" gradientUnits="userSpaceOnUse">
<stop stop-color="#7A4C12"/>
<stop offset="1" stop-color="#A66F2B"/>
</linearGradient>
<linearGradient id="paint2_linear_87_2013" x1="15" y1="5" x2="7.54231" y2="-4.58846" gradientUnits="userSpaceOnUse">
<stop stop-color="#784D15"/>
<stop offset="1" stop-color="#95611E" stop-opacity="0.941176"/>
</linearGradient>
<linearGradient id="paint3_linear_87_2013" x1="0" y1="5" x2="15.7333" y2="15.4033" gradientUnits="userSpaceOnUse">
<stop stop-color="#EBB865"/>
<stop offset="1" stop-color="#C86530"/>
</linearGradient>
<linearGradient id="paint4_linear_87_2013" x1="16" y1="15" x2="0.266654" y2="4.59673" gradientUnits="userSpaceOnUse">
<stop stop-color="#784D15"/>
<stop offset="1" stop-color="#95611E" stop-opacity="0.941176"/>
</linearGradient>
</defs>
</svg>
