<svg width="16" height="16" viewBox="0 0 16 16" fill="none" xmlns="http://www.w3.org/2000/svg">
<g clip-path="url(#clip0_99_12658)">
<g filter="url(#filter0_i_99_12658)">
<rect y="10" width="16" height="5" fill="url(#paint0_linear_99_12658)"/>
</g>
<rect x="0.5" y="10.5" width="15" height="4" stroke="url(#paint1_linear_99_12658)"/>
<path d="M0.5 0.5H15.5V2.84239L12.2397 7.5H3.76033L0.5 2.84239V0.5Z" fill="url(#paint2_linear_99_12658)" stroke="url(#paint3_linear_99_12658)"/>
<path d="M0.5 10.2071L3.20711 7.5H12.7929L15.5 10.2071V10.5H0.5V10.2071Z" fill="url(#paint4_linear_99_12658)" stroke="url(#paint5_linear_99_12658)"/>
<path d="M12 7H4L1 3H15L12 7Z" fill="url(#paint6_linear_99_12658)"/>
<path d="M1.5 1.5H14.5V2.83333L11.75 6.5H4.25L1.5 2.83333V1.5Z" stroke="white" stroke-opacity="0.33"/>
<path d="M1.5 11V10.5L3.5 8.5H12.5L14.5 10.5V11" stroke="white" stroke-opacity="0.3" style="mix-blend-mode:plus-lighter"/>
<path d="M5 3H6L7 6H6L5 3Z" fill="black" fill-opacity="0.33" style="mix-blend-mode:darken"/>
<path d="M10 3H11L10 6H9L10 3Z" fill="black" fill-opacity="0.33" style="mix-blend-mode:darken"/>
<path fill-rule="evenodd" clip-rule="evenodd" d="M5.5 12.5C5.77614 12.5 6 12.7239 6 13C6 12.9962 5.99993 12.9944 6.00014 12.9943C6.00132 12.9941 6.01096 13.0489 6.08655 13.1547C6.16726 13.2677 6.29765 13.4017 6.47812 13.5306C6.83756 13.7874 7.3622 14 8 14C8.6378 14 9.16244 13.7874 9.52188 13.5306C9.70235 13.4017 9.83274 13.2677 9.91345 13.1547C9.98904 13.0489 9.99868 12.9941 9.99986 12.9943C10.0001 12.9944 10 12.9962 10 13C10 12.7239 10.2239 12.5 10.5 12.5C10.7761 12.5 11 12.7239 11 13C11 13.2742 10.8721 13.5331 10.7272 13.7359C10.5735 13.9511 10.3601 14.1608 10.1031 14.3444C9.58756 14.7126 8.8622 15 8 15C7.1378 15 6.41244 14.7126 5.89688 14.3444C5.63985 14.1608 5.42649 13.9511 5.27282 13.7359C5.12793 13.5331 5 13.2742 5 13C5 12.7239 5.22386 12.5 5.5 12.5Z" fill="white" stroke="url(#paint7_linear_99_12658)" stroke-width="2" stroke-linejoin="round"/>
<path d="M5.5 13C5.5 13.5 6.5 14.5 8 14.5C9.5 14.5 10.5 13.5 10.5 13" stroke="white" stroke-linecap="round"/>
</g>
<defs>
<filter id="filter0_i_99_12658" x="0" y="10" width="16" height="5" filterUnits="userSpaceOnUse" color-interpolation-filters="sRGB">
<feFlood flood-opacity="0" result="BackgroundImageFix"/>
<feBlend mode="normal" in="SourceGraphic" in2="BackgroundImageFix" result="shape"/>
<feColorMatrix in="SourceAlpha" type="matrix" values="0 0 0 0 0 0 0 0 0 0 0 0 0 0 0 0 0 0 127 0" result="hardAlpha"/>
<feMorphology radius="2" operator="erode" in="SourceAlpha" result="effect1_innerShadow_99_12658"/>
<feOffset/>
<feComposite in2="hardAlpha" operator="arithmetic" k2="-1" k3="1"/>
<feColorMatrix type="matrix" values="0 0 0 0 1 0 0 0 0 1 0 0 0 0 1 0 0 0 0.25 0"/>
<feBlend mode="normal" in2="shape" result="effect1_innerShadow_99_12658"/>
</filter>
<linearGradient id="paint0_linear_99_12658" x1="0" y1="12.5" x2="16" y2="12.5" gradientUnits="userSpaceOnUse">
<stop stop-color="#DBA65B"/>
<stop offset="1" stop-color="#CA8145"/>
</linearGradient>
<linearGradient id="paint1_linear_99_12658" x1="0" y1="12.5" x2="16" y2="12.5" gradientUnits="userSpaceOnUse">
<stop stop-color="#9E6C2D"/>
<stop offset="1" stop-color="#774C15"/>
</linearGradient>
<linearGradient id="paint2_linear_99_12658" x1="0" y1="1.5" x2="16" y2="1.5" gradientUnits="userSpaceOnUse">
<stop stop-color="#DBA65B"/>
<stop offset="1" stop-color="#CA8145"/>
</linearGradient>
<linearGradient id="paint3_linear_99_12658" x1="0" y1="1.5" x2="16" y2="1.5" gradientUnits="userSpaceOnUse">
<stop stop-color="#9E6C2D"/>
<stop offset="1" stop-color="#774C15"/>
</linearGradient>
<linearGradient id="paint4_linear_99_12658" x1="7" y1="8" x2="7" y2="11" gradientUnits="userSpaceOnUse">
<stop stop-color="#774C15"/>
<stop offset="1" stop-color="#AC7435"/>
</linearGradient>
<linearGradient id="paint5_linear_99_12658" x1="0" y1="7" x2="16.2413" y2="9.28394" gradientUnits="userSpaceOnUse">
<stop stop-color="#9F6D2F"/>
<stop offset="1" stop-color="#774C15"/>
</linearGradient>
<linearGradient id="paint6_linear_99_12658" x1="13" y1="7" x2="5.05414" y2="1.48204" gradientUnits="userSpaceOnUse">
<stop stop-color="#774C15"/>
<stop offset="1" stop-color="#AC7435"/>
</linearGradient>
<linearGradient id="paint7_linear_99_12658" x1="11" y1="15" x2="4.77828" y2="13.3362" gradientUnits="userSpaceOnUse">
<stop stop-color="#656362"/>
<stop offset="1" stop-color="#929292"/>
</linearGradient>
<clipPath id="clip0_99_12658">
<rect width="16" height="16" fill="white"/>
</clipPath>
</defs>
</svg>
