<svg width="16" height="16" viewBox="0 0 16 16" fill="none" xmlns="http://www.w3.org/2000/svg">
<g clip-path="url(#clip0_169_2718)">
<g clip-path="url(#clip1_169_2718)">
<path fill-rule="evenodd" clip-rule="evenodd" d="M7.65812 0.0257945C7.92009 0.113119 8.06167 0.39628 7.97434 0.658251C7.50039 2.08008 7.50001 3.01472 7.5 4.00014C7.5 4.27628 7.27614 4.50014 7 4.50014C6.72385 4.50013 6.5 4.27627 6.5 4.00013V3.9977C6.50001 2.98385 6.50002 1.91893 7.02566 0.34202C7.11298 0.0800489 7.39614 -0.0615302 7.65812 0.0257945ZM15.9743 8.34202C16.0617 8.60399 15.9201 8.88715 15.6581 8.97448C14.0811 9.50014 13.0162 9.50014 12.0023 9.50014H12C11.7239 9.50014 11.5 9.27628 11.5 9.00014C11.5 8.72399 11.7239 8.50014 12 8.50014C12.9854 8.50014 13.9201 8.49974 15.3419 8.02579C15.6039 7.93847 15.887 8.08005 15.9743 8.34202ZM11.4472 9.77653C11.3237 9.52954 11.0234 9.42943 10.7764 9.55292C10.5294 9.67641 10.4293 9.97675 10.5528 10.2237C11.096 11.3101 11.9038 12.1135 12.5626 12.6406C12.8939 12.9055 13.1924 13.1047 13.4098 13.2385C13.5187 13.3054 13.6076 13.3563 13.6706 13.391C13.7021 13.4084 13.7271 13.4218 13.745 13.4312L13.7664 13.4423L13.7728 13.4456L13.775 13.4466L13.7758 13.447L13.7761 13.4472C13.7762 13.4473 13.7764 13.4473 14 13.0001L13.7764 13.4473C14.0234 13.5708 14.3237 13.4707 14.4472 13.2237C14.5707 12.9768 14.4707 12.6766 14.2238 12.553L14.2236 12.5529L14.2221 12.5521L14.2096 12.5456C14.1977 12.5394 14.1788 12.5293 14.1536 12.5155C14.1034 12.4877 14.0282 12.4448 13.9339 12.3868C13.7451 12.2706 13.4811 12.0947 13.1873 11.8597C12.5962 11.3868 11.904 10.6901 11.4472 9.77653ZM6.44721 5.22374C6.5707 4.97675 6.47059 4.67641 6.2236 4.55292C5.30999 4.09612 4.61332 3.4039 4.14043 2.81279C3.9054 2.519 3.72954 2.25506 3.61332 2.06621C3.5553 1.97193 3.5124 1.89677 3.48466 1.84649C3.47079 1.82135 3.46073 1.80247 3.45449 1.79056L3.44798 1.77803L3.44721 1.77653L3.44709 1.77629C3.32352 1.52947 3.0233 1.42947 2.77639 1.55292C2.5294 1.67641 2.42929 1.97675 2.55278 2.22374L2.99999 2.00013C2.55278 2.22374 2.55285 2.22388 2.55292 2.22403L2.55309 2.22436L2.55349 2.22516L2.55458 2.22731L2.55787 2.23377L2.56894 2.25511C2.57832 2.27299 2.5917 2.29805 2.60908 2.32956C2.64384 2.39256 2.69469 2.48147 2.76167 2.59031C2.89545 2.80771 3.09459 3.10627 3.35956 3.43748C3.88667 4.09636 4.69 4.90415 5.77639 5.44735C6.02338 5.57084 6.32371 5.47073 6.44721 5.22374ZM9.64644 12.3537C9.45117 12.1584 9.45117 11.8418 9.64643 11.6466C9.84169 11.4513 10.1583 11.4513 10.3535 11.6466C11.0488 12.3418 11.5488 14.1584 9.85354 15.8537C9.65828 16.049 9.3417 16.049 9.14644 15.8537C8.95117 15.6584 8.95117 15.3418 9.14644 15.1466C10.4512 13.8418 9.95118 12.6584 9.64644 12.3537ZM4.35355 6.35369C4.15829 6.54895 3.84171 6.54895 3.64645 6.35369C3.34171 6.04895 2.15829 5.54895 0.853553 6.85369C0.658291 7.04895 0.341709 7.04895 0.146447 6.85369C-0.0488155 6.65842 -0.0488155 6.34184 0.146447 6.14658C1.84171 4.45132 3.65829 4.95132 4.35355 5.64658C4.54882 5.84184 4.54882 6.15842 4.35355 6.35369ZM12 0.500136C12 0.223993 11.7761 0.000135653 11.5 0.000135653C11.2239 0.000135653 11 0.223993 11 0.500136V4.50014V5.00014H11.5H15.5C15.7761 5.00014 16 4.77628 16 4.50014C16 4.22399 15.7761 4.00014 15.5 4.00014H12V0.500136Z" fill="url(#paint0_linear_169_2718)"/>
<g filter="url(#filter0_i_169_2718)">
<ellipse cx="11.2844" cy="4.71558" rx="2.15045" ry="1.30342" transform="rotate(45 11.2844 4.71558)" fill="#54A24C"/>
</g>
<path d="M10.0092 5.99079C10.4828 6.46438 11.0442 6.79456 11.5889 6.92812C12.123 7.05913 12.7329 7.01545 13.1586 6.58973C13.5843 6.16402 13.628 5.55418 13.497 5.02001C13.3634 4.4754 13.0332 3.91397 12.5596 3.44037C12.086 2.96678 11.5246 2.6366 10.98 2.50304C10.4458 2.37204 9.83599 2.41572 9.41028 2.84143C8.98457 3.26714 8.94088 3.87698 9.07189 4.41116C9.20545 4.95576 9.53563 5.51719 10.0092 5.99079Z" stroke="url(#paint1_linear_169_2718)"/>
<path d="M9 4.01549C9 4.01549 8.0893 3.73243 7 4.01549C5.91069 4.29855 3 8 3 8C3 8 3 9.99999 4.5 11.5C6 13 8 13 8 13C8 13 11.6945 10.1246 12 9C12.3055 7.87541 12 7 12 7L10 6L9 4.01549Z" fill="url(#paint2_linear_169_2718)"/>
<path d="M9.55349 6.225L9.6281 6.37306L9.77639 6.44721L11.5734 7.3457C11.5889 7.42111 11.6053 7.51745 11.6174 7.63111C11.6505 7.94317 11.6506 8.37897 11.5175 8.86891C11.5019 8.92637 11.4496 9.03821 11.3307 9.20819C11.217 9.37076 11.0628 9.55803 10.8763 9.76287C10.5037 10.1723 10.0276 10.6241 9.55228 11.0489C9.0785 11.4722 8.61307 11.8619 8.26551 12.1461C8.09193 12.288 7.9482 12.4033 7.84811 12.4829C7.84463 12.4857 7.84121 12.4884 7.83784 12.4911C7.80315 12.4883 7.76347 12.4845 7.71928 12.4796C7.52941 12.4585 7.25858 12.4159 6.94406 12.3301C6.31271 12.1579 5.52444 11.8173 4.85355 11.1464C4.18267 10.4756 3.84207 9.68729 3.66988 9.05594C3.5841 8.74142 3.54148 8.47059 3.52038 8.28072C3.51553 8.23709 3.51183 8.19785 3.50902 8.16348C3.51166 8.16019 3.51434 8.15685 3.51706 8.15346C3.59759 8.05317 3.71415 7.9092 3.85752 7.7354C4.14457 7.38741 4.53763 6.92165 4.96332 6.4482C5.39044 5.97316 5.84355 5.49809 6.25154 5.12768C6.45572 4.94231 6.64145 4.78971 6.80153 4.67799C6.96989 4.56049 7.07623 4.51229 7.12575 4.49942C7.59947 4.37632 8.03809 4.37568 8.36009 4.407C8.47817 4.41848 8.57912 4.43412 8.65856 4.44901L9.55349 6.225Z" stroke="white" stroke-opacity="0.5" style="mix-blend-mode:soft-light"/>
<g filter="url(#filter1_d_169_2718)">
<path d="M10 6L4.5 11.5" stroke="url(#paint3_linear_169_2718)" stroke-linecap="square"/>
</g>
<path d="M8 13C8.3071 13.3946 8.30714 13.3945 8.3072 13.3945L8.30738 13.3944L8.308 13.3939L8.31024 13.3921L8.31865 13.3856L8.35061 13.3605C8.37843 13.3386 8.419 13.3066 8.47058 13.2656C8.57372 13.1835 8.72101 13.0654 8.89856 12.9202C9.25326 12.6301 9.73055 12.2306 10.2186 11.7946C10.705 11.3599 11.2099 10.882 11.6159 10.436C11.8187 10.2131 12.0033 9.99125 12.1501 9.78131C12.2918 9.5788 12.4217 9.35477 12.4825 9.13108C12.6549 8.49644 12.655 7.93223 12.6118 7.52545C12.5901 7.32169 12.5574 7.15575 12.5292 7.03788C12.5151 6.97886 12.502 6.93166 12.4919 6.89753C12.4868 6.88046 12.4825 6.86663 12.4791 6.8562L12.4748 6.84312L12.4732 6.83853L12.4726 6.83672L12.4723 6.83594L12.4722 6.83558C12.4721 6.83541 12.4721 6.83524 12 7L12.4721 6.83524L12.4052 6.64357L12.2236 6.55279L10.3719 5.62693L9.44651 3.79049L9.35103 3.601L9.14841 3.53802L9 4.01549C9.14841 3.53802 9.14826 3.53798 9.1481 3.53793L9.14778 3.53783L9.14707 3.53761L9.1454 3.5371L9.14104 3.53578L9.1283 3.53203C9.11805 3.52907 9.1043 3.52521 9.08723 3.52067C9.0531 3.5116 9.00562 3.49978 8.94623 3.48695C8.82764 3.46134 8.66055 3.4315 8.45688 3.41169C8.05121 3.37224 7.48983 3.3716 6.87425 3.53156C6.65144 3.58946 6.42854 3.71885 6.22922 3.85795C6.02162 4.00284 5.80123 4.18586 5.57936 4.3873C5.13522 4.79052 4.65641 5.29389 4.2197 5.77959C3.78156 6.26689 3.37886 6.74417 3.08611 7.09906C2.93958 7.27669 2.82023 7.42411 2.73733 7.52734C2.69588 7.57897 2.66351 7.61957 2.64141 7.64741L2.61607 7.67939L2.60943 7.6878L2.60767 7.69003L2.60719 7.69065L2.60704 7.69083C2.607 7.69089 2.60697 7.69093 3 8M8 13C8 13.5 7.99981 13.5 7.99961 13.5L7.99917 13.5L7.99816 13.5L7.99559 13.5L7.98824 13.4999L7.96498 13.4995C7.94574 13.499 7.91912 13.4981 7.88574 13.4964C7.81901 13.493 7.72504 13.4864 7.60885 13.4735C7.37684 13.4477 7.05392 13.3966 6.68094 13.2949C5.93729 13.0921 4.97556 12.6827 4.14645 11.8536C3.31733 11.0244 2.90793 10.0627 2.70512 9.31906C2.60339 8.94608 2.55227 8.62316 2.52649 8.39115C2.51358 8.27496 2.50697 8.18099 2.50357 8.11426C2.50188 8.08088 2.50098 8.05426 2.50051 8.03502L2.50008 8.01176L2.50001 8.00441L2.5 8.00184L2.5 8.00083L2.5 8.00039C2.5 8.00019 2.5 8 3 8M8 13L8.3071 13.3946L8.17164 13.5H8V13ZM3 8L2.5 8L2.5 7.82696L2.60697 7.69093L3 8Z" stroke="url(#paint4_linear_169_2718)"/>
</g>
<circle cx="12.5" cy="12.5" r="3" fill="url(#paint5_radial_169_2718)" stroke="url(#paint6_linear_169_2718)"/>
<path fill-rule="evenodd" clip-rule="evenodd" d="M12 12V11H13V12H14V13H13V14H12V13H11V12H12Z" fill="white"/>
</g>
<defs>
<filter id="filter0_i_169_2718" x="8.50708" y="1.93822" width="5.5547" height="5.55471" filterUnits="userSpaceOnUse" color-interpolation-filters="sRGB">
<feFlood flood-opacity="0" result="BackgroundImageFix"/>
<feBlend mode="normal" in="SourceGraphic" in2="BackgroundImageFix" result="shape"/>
<feColorMatrix in="SourceAlpha" type="matrix" values="0 0 0 0 0 0 0 0 0 0 0 0 0 0 0 0 0 0 127 0" result="hardAlpha"/>
<feOffset dx="-1.3" dy="1.3"/>
<feComposite in2="hardAlpha" operator="arithmetic" k2="-1" k3="1"/>
<feColorMatrix type="matrix" values="0 0 0 0 1 0 0 0 0 1 0 0 0 0 1 0 0 0 0.5 0"/>
<feBlend mode="hard-light" in2="shape" result="effect1_innerShadow_169_2718"/>
</filter>
<filter id="filter1_d_169_2718" x="3.79289" y="5.29289" width="7.41422" height="7.41422" filterUnits="userSpaceOnUse" color-interpolation-filters="sRGB">
<feFlood flood-opacity="0" result="BackgroundImageFix"/>
<feColorMatrix in="SourceAlpha" type="matrix" values="0 0 0 0 0 0 0 0 0 0 0 0 0 0 0 0 0 0 127 0" result="hardAlpha"/>
<feOffset dx="0.5" dy="0.5"/>
<feComposite in2="hardAlpha" operator="out"/>
<feColorMatrix type="matrix" values="0 0 0 0 0.690196 0 0 0 0 0.835294 0 0 0 0 0.615686 0 0 0 1 0"/>
<feBlend mode="normal" in2="BackgroundImageFix" result="effect1_dropShadow_169_2718"/>
<feBlend mode="normal" in="SourceGraphic" in2="effect1_dropShadow_169_2718" result="shape"/>
</filter>
<linearGradient id="paint0_linear_169_2718" x1="-0.531592" y1="-3.23499e-07" x2="15.0785" y2="16.5059" gradientUnits="userSpaceOnUse">
<stop stop-color="#40B73A"/>
<stop offset="1" stop-color="#235C20"/>
</linearGradient>
<linearGradient id="paint1_linear_169_2718" x1="13.0112" y1="6.03004" x2="10.7043" y2="2.62445" gradientUnits="userSpaceOnUse">
<stop stop-color="#33822E"/>
<stop offset="1" stop-color="#379532"/>
</linearGradient>
<linearGradient id="paint2_linear_169_2718" x1="5" y1="5" x2="11" y2="11" gradientUnits="userSpaceOnUse">
<stop stop-color="#A5CC8D"/>
<stop offset="0.44542" stop-color="#5C9F42"/>
<stop offset="0.554484" stop-color="#96BF83"/>
<stop offset="1" stop-color="#609A46"/>
</linearGradient>
<linearGradient id="paint3_linear_169_2718" x1="11" y1="5.5" x2="5" y2="11.5" gradientUnits="userSpaceOnUse">
<stop stop-color="#358A30"/>
<stop offset="0.505" stop-color="#549E4D"/>
<stop offset="1" stop-color="#358D30"/>
</linearGradient>
<linearGradient id="paint4_linear_169_2718" x1="3" y1="4" x2="12" y2="13" gradientUnits="userSpaceOnUse">
<stop stop-color="#3BA635"/>
<stop offset="1" stop-color="#2E712A"/>
</linearGradient>
<radialGradient id="paint5_radial_169_2718" cx="0" cy="0" r="1" gradientUnits="userSpaceOnUse" gradientTransform="translate(10 10) rotate(45) scale(5.65685)">
<stop stop-color="#B4D495"/>
<stop offset="1" stop-color="#87B960"/>
</radialGradient>
<linearGradient id="paint6_linear_169_2718" x1="15" y1="15" x2="10" y2="10" gradientUnits="userSpaceOnUse">
<stop stop-color="#376B19"/>
<stop offset="1" stop-color="#5A9438"/>
</linearGradient>
<clipPath id="clip0_169_2718">
<rect width="16" height="16" fill="white"/>
</clipPath>
<clipPath id="clip1_169_2718">
<rect width="16" height="16" fill="white"/>
</clipPath>
</defs>
</svg>
