<svg width="16" height="16" viewBox="0 0 16 16" fill="none" xmlns="http://www.w3.org/2000/svg">
<g clip-path="url(#clip0_99_11833)">
<g filter="url(#filter0_i_99_11833)">
<rect x="3" y="2" width="10" height="13" fill="#D9D9D9"/>
</g>
<rect x="3.5" y="2.5" width="9" height="12" stroke="url(#paint0_linear_99_11833)"/>
<rect x="6.5" y="10.5" width="3" height="4" rx="0.5" fill="#B9B9B9" stroke="#838383"/>
<path d="M13.9287 10.2428L13.5 9.52817L13.0713 10.2428L12.343 11.4565C11.8034 12.3558 12.4512 13.5 13.5 13.5C14.5488 13.5 15.1966 12.3558 14.657 11.4565L13.9287 10.2428Z" fill="#5EB354" stroke="url(#paint1_linear_99_11833)" stroke-linecap="round"/>
<path d="M2.07125 10.2428L2.5 9.52817L2.92875 10.2428L3.657 11.4565C4.1966 12.3558 3.54879 13.5 2.5 13.5C1.45121 13.5 0.803398 12.3558 1.343 11.4565L2.07125 10.2428Z" fill="#80C377" stroke="url(#paint2_linear_99_11833)" stroke-linecap="round"/>
<path fill-rule="evenodd" clip-rule="evenodd" d="M5 4H11V5H5V4ZM5 6H11V7H5V6ZM11 8H5V9H11V8Z" fill="url(#paint3_linear_99_11833)"/>
<circle cx="10.5" cy="0.5" r="0.5" fill="#FF0F0F"/>
<rect x="10" y="1" width="1" height="2" fill="#747474"/>
<path d="M0 15C0 14.4477 0.447715 14 1 14H15C15.5523 14 16 14.4477 16 15H0Z" fill="#6A6C6A"/>
<circle cx="12.5" cy="12.5" r="3" fill="url(#paint4_radial_99_11833)" stroke="url(#paint5_linear_99_11833)"/>
<path fill-rule="evenodd" clip-rule="evenodd" d="M12 12V11H13V12H14V13H13V14H12V13H11V12H12Z" fill="white"/>
</g>
<defs>
<filter id="filter0_i_99_11833" x="3" y="2" width="10" height="13" filterUnits="userSpaceOnUse" color-interpolation-filters="sRGB">
<feFlood flood-opacity="0" result="BackgroundImageFix"/>
<feBlend mode="normal" in="SourceGraphic" in2="BackgroundImageFix" result="shape"/>
<feColorMatrix in="SourceAlpha" type="matrix" values="0 0 0 0 0 0 0 0 0 0 0 0 0 0 0 0 0 0 127 0" result="hardAlpha"/>
<feMorphology radius="2" operator="erode" in="SourceAlpha" result="effect1_innerShadow_99_11833"/>
<feOffset/>
<feComposite in2="hardAlpha" operator="arithmetic" k2="-1" k3="1"/>
<feColorMatrix type="matrix" values="0 0 0 0 1 0 0 0 0 1 0 0 0 0 1 0 0 0 0.66 0"/>
<feBlend mode="normal" in2="shape" result="effect1_innerShadow_99_11833"/>
</filter>
<linearGradient id="paint0_linear_99_11833" x1="3" y1="2.5" x2="13" y2="14" gradientUnits="userSpaceOnUse">
<stop stop-color="#D6D6D6"/>
<stop offset="1" stop-color="#6B6B6B"/>
</linearGradient>
<linearGradient id="paint1_linear_99_11833" x1="12" y1="10" x2="14.5" y2="13" gradientUnits="userSpaceOnUse">
<stop stop-color="#57AF4F"/>
<stop offset="1" stop-color="#3B7A37" stop-opacity="0.972549"/>
</linearGradient>
<linearGradient id="paint2_linear_99_11833" x1="1.5" y1="10" x2="4" y2="13" gradientUnits="userSpaceOnUse">
<stop stop-color="#7CC673"/>
<stop offset="1" stop-color="#52AB47" stop-opacity="0.996078"/>
</linearGradient>
<linearGradient id="paint3_linear_99_11833" x1="11" y1="9" x2="5" y2="4" gradientUnits="userSpaceOnUse">
<stop stop-color="#95B8F1"/>
<stop offset="1" stop-color="#B2CCF5"/>
</linearGradient>
<radialGradient id="paint4_radial_99_11833" cx="0" cy="0" r="1" gradientUnits="userSpaceOnUse" gradientTransform="translate(10 10) rotate(45) scale(5.65685)">
<stop stop-color="#B4D495"/>
<stop offset="1" stop-color="#87B960"/>
</radialGradient>
<linearGradient id="paint5_linear_99_11833" x1="15" y1="15" x2="10" y2="10" gradientUnits="userSpaceOnUse">
<stop stop-color="#376B19"/>
<stop offset="1" stop-color="#5A9438"/>
</linearGradient>
<clipPath id="clip0_99_11833">
<rect width="16" height="16" fill="white"/>
</clipPath>
</defs>
</svg>
