<svg width="16" height="16" viewBox="0 0 16 16" fill="none" xmlns="http://www.w3.org/2000/svg">
<g clip-path="url(#clip0_99_11831)">
<g filter="url(#filter0_i_99_11831)">
<rect x="3" y="2" width="10" height="13" fill="#D9D9D9"/>
</g>
<rect x="3.5" y="2.5" width="9" height="12" stroke="url(#paint0_linear_99_11831)"/>
<rect x="6.5" y="10.5" width="3" height="4" rx="0.5" fill="#B9B9B9" stroke="#838383"/>
<path d="M13.9287 10.2428L13.5 9.52817L13.0713 10.2428L12.343 11.4565C11.8034 12.3558 12.4512 13.5 13.5 13.5C14.5488 13.5 15.1966 12.3558 14.657 11.4565L13.9287 10.2428Z" fill="#5EB354" stroke="url(#paint1_linear_99_11831)" stroke-linecap="round"/>
<path d="M2.07125 10.2428L2.5 9.52817L2.92875 10.2428L3.657 11.4565C4.1966 12.3558 3.54879 13.5 2.5 13.5C1.45121 13.5 0.803398 12.3558 1.343 11.4565L2.07125 10.2428Z" fill="#80C377" stroke="url(#paint2_linear_99_11831)" stroke-linecap="round"/>
<path fill-rule="evenodd" clip-rule="evenodd" d="M5 4H11V5H5V4ZM5 6H11V7H5V6ZM11 8H5V9H11V8Z" fill="url(#paint3_linear_99_11831)"/>
<circle cx="10.5" cy="0.5" r="0.5" fill="#FF0F0F"/>
<rect x="10" y="1" width="1" height="2" fill="#747474"/>
<path d="M0 15C0 14.4477 0.447715 14 1 14H15C15.5523 14 16 14.4477 16 15H0Z" fill="#6A6C6A"/>
<path d="M4.54043 14.803C4.45989 14.991 4.50188 15.209 4.64645 15.3536C4.79102 15.4981 5.00904 15.5401 5.19696 15.4596L8.69696 13.9596C8.84946 13.8942 8.9596 13.7575 8.99098 13.5946C9.02235 13.4316 8.97087 13.2638 8.85355 13.1464L6.85355 11.1464C6.73624 11.0291 6.56836 10.9776 6.40545 11.009C6.24253 11.0404 6.10578 11.1505 6.04043 11.303L4.54043 14.803Z" fill="url(#paint4_linear_99_11831)"/>
<path d="M4.54043 14.803C4.45989 14.991 4.50188 15.209 4.64645 15.3536C4.79102 15.4981 5.00904 15.5401 5.19696 15.4596L8.69696 13.9596C8.84946 13.8942 8.9596 13.7575 8.99098 13.5946C9.02235 13.4316 8.97087 13.2638 8.85355 13.1464L6.85355 11.1464C6.73624 11.0291 6.56836 10.9776 6.40545 11.009C6.24253 11.0404 6.10578 11.1505 6.04043 11.303L4.54043 14.803Z" fill="url(#paint5_linear_99_11831)"/>
<path d="M4.54043 14.803C4.45989 14.991 4.50188 15.209 4.64645 15.3536C4.79102 15.4981 5.00904 15.5401 5.19696 15.4596L8.69696 13.9596C8.84946 13.8942 8.9596 13.7575 8.99098 13.5946C9.02235 13.4316 8.97087 13.2638 8.85355 13.1464L6.85355 11.1464C6.73624 11.0291 6.56836 10.9776 6.40545 11.009C6.24253 11.0404 6.10578 11.1505 6.04043 11.303L4.54043 14.803Z" stroke="url(#paint6_linear_99_11831)" stroke-linejoin="round"/>
<path d="M4.54043 14.803C4.45989 14.991 4.50188 15.209 4.64645 15.3536C4.79102 15.4981 5.00904 15.5401 5.19696 15.4596L8.69696 13.9596C8.84946 13.8942 8.9596 13.7575 8.99098 13.5946C9.02235 13.4316 8.97087 13.2638 8.85355 13.1464L6.85355 11.1464C6.73624 11.0291 6.56836 10.9776 6.40545 11.009C6.24253 11.0404 6.10578 11.1505 6.04043 11.303L4.54043 14.803Z" stroke="url(#paint7_linear_99_11831)" stroke-linejoin="round"/>
<path d="M6.14645 11.1464C5.95118 11.3417 5.95118 11.6583 6.14645 11.8536L8.14645 13.8536C8.34171 14.0488 8.65829 14.0488 8.85355 13.8536L14.8536 7.85355C15.0488 7.65829 15.0488 7.34171 14.8536 7.14645L12.8536 5.14645C12.6583 4.95118 12.3417 4.95118 12.1464 5.14645L6.14645 11.1464Z" fill="url(#paint8_linear_99_11831)" stroke="url(#paint9_linear_99_11831)" stroke-linejoin="round"/>
<path fill-rule="evenodd" clip-rule="evenodd" d="M6.5 11.5L7.20711 12.2071L13.2071 6.20711L12.5 5.5L6.5 11.5Z" fill="#FCF4B3"/>
<path d="M14.1464 7.85356L14.5 8.20712L14.8536 7.85356C15.0768 7.63032 15.3397 7.23926 15.4185 6.75535C15.5023 6.24043 15.3688 5.66169 14.8536 5.14646C14.3383 4.63123 13.7596 4.49768 13.2447 4.58151C12.7607 4.66028 12.3697 4.92321 12.1464 5.14646L11.7929 5.50001L12.1464 5.85356L14.1464 7.85356Z" fill="url(#paint10_linear_99_11831)" stroke="url(#paint11_linear_99_11831)"/>
</g>
<defs>
<filter id="filter0_i_99_11831" x="3" y="2" width="10" height="13" filterUnits="userSpaceOnUse" color-interpolation-filters="sRGB">
<feFlood flood-opacity="0" result="BackgroundImageFix"/>
<feBlend mode="normal" in="SourceGraphic" in2="BackgroundImageFix" result="shape"/>
<feColorMatrix in="SourceAlpha" type="matrix" values="0 0 0 0 0 0 0 0 0 0 0 0 0 0 0 0 0 0 127 0" result="hardAlpha"/>
<feMorphology radius="2" operator="erode" in="SourceAlpha" result="effect1_innerShadow_99_11831"/>
<feOffset/>
<feComposite in2="hardAlpha" operator="arithmetic" k2="-1" k3="1"/>
<feColorMatrix type="matrix" values="0 0 0 0 1 0 0 0 0 1 0 0 0 0 1 0 0 0 0.66 0"/>
<feBlend mode="normal" in2="shape" result="effect1_innerShadow_99_11831"/>
</filter>
<linearGradient id="paint0_linear_99_11831" x1="3" y1="2.5" x2="13" y2="14" gradientUnits="userSpaceOnUse">
<stop stop-color="#D6D6D6"/>
<stop offset="1" stop-color="#6B6B6B"/>
</linearGradient>
<linearGradient id="paint1_linear_99_11831" x1="12" y1="10" x2="14.5" y2="13" gradientUnits="userSpaceOnUse">
<stop stop-color="#57AF4F"/>
<stop offset="1" stop-color="#3B7A37" stop-opacity="0.972549"/>
</linearGradient>
<linearGradient id="paint2_linear_99_11831" x1="1.5" y1="10" x2="4" y2="13" gradientUnits="userSpaceOnUse">
<stop stop-color="#7CC673"/>
<stop offset="1" stop-color="#52AB47" stop-opacity="0.996078"/>
</linearGradient>
<linearGradient id="paint3_linear_99_11831" x1="11" y1="9" x2="5" y2="4" gradientUnits="userSpaceOnUse">
<stop stop-color="#95B8F1"/>
<stop offset="1" stop-color="#B2CCF5"/>
</linearGradient>
<linearGradient id="paint4_linear_99_11831" x1="6.16667" y1="11.8889" x2="8.11111" y2="13.8333" gradientUnits="userSpaceOnUse">
<stop stop-color="#FAE7D1"/>
<stop offset="1" stop-color="#E89840"/>
</linearGradient>
<linearGradient id="paint5_linear_99_11831" x1="6.94444" y1="12.6667" x2="3.83333" y2="15.7778" gradientUnits="userSpaceOnUse">
<stop stop-color="#584013" stop-opacity="0"/>
<stop offset="0.499937" stop-color="#584013" stop-opacity="0"/>
<stop offset="0.661921" stop-color="#584013"/>
</linearGradient>
<linearGradient id="paint6_linear_99_11831" x1="6.16667" y1="12.6667" x2="7.33333" y2="13.8333" gradientUnits="userSpaceOnUse">
<stop stop-color="#B98926"/>
<stop offset="1" stop-color="#AA6016"/>
</linearGradient>
<linearGradient id="paint7_linear_99_11831" x1="7.72222" y1="11.8889" x2="3.83333" y2="15.7778" gradientUnits="userSpaceOnUse">
<stop offset="0.5" stop-color="#B98926" stop-opacity="0"/>
<stop offset="0.656842" stop-color="#584013"/>
</linearGradient>
<linearGradient id="paint8_linear_99_11831" x1="6.5" y1="11.6579" x2="8.34211" y2="13.5" gradientUnits="userSpaceOnUse">
<stop stop-color="#F5DC60"/>
<stop offset="1" stop-color="#EFCB1A"/>
</linearGradient>
<linearGradient id="paint9_linear_99_11831" x1="6.5" y1="11.6579" x2="8.3421" y2="13.5" gradientUnits="userSpaceOnUse">
<stop stop-color="#E9C755"/>
<stop offset="1" stop-color="#D98F3B"/>
</linearGradient>
<linearGradient id="paint10_linear_99_11831" x1="12.4766" y1="6.30195" x2="14.8903" y2="6.69267" gradientUnits="userSpaceOnUse">
<stop stop-color="#FDD7D1"/>
<stop offset="1" stop-color="#FBACA1"/>
</linearGradient>
<linearGradient id="paint11_linear_99_11831" x1="12.5" y1="6.31509" x2="14.8693" y2="6.72938" gradientUnits="userSpaceOnUse">
<stop stop-color="#E1B3AD"/>
<stop offset="1" stop-color="#B17971"/>
</linearGradient>
<clipPath id="clip0_99_11831">
<rect width="16" height="16" fill="white"/>
</clipPath>
</defs>
</svg>
