<svg width="16" height="16" viewBox="0 0 16 16" fill="none" xmlns="http://www.w3.org/2000/svg">
<mask id="path-1-outside-1_188_3272" maskUnits="userSpaceOnUse" x="6.49997" y="3.01131" width="9" height="9" fill="black">
<rect fill="white" x="6.49997" y="3.01131" width="9" height="9"/>
<path fill-rule="evenodd" clip-rule="evenodd" d="M9.1495 4.67467C9.77314 4.05103 10.8137 3.84896 11.7844 4.14603L10.6146 4.82144C10.1363 5.09758 9.97238 5.70917 10.2485 6.18747L11.3126 8.0305C11.5887 8.50879 12.2003 8.67266 12.6786 8.39652L13.9961 7.63588C13.9239 8.13577 13.7208 8.58867 13.3921 8.91731C12.8086 9.50082 11.9146 9.63401 11.0399 9.35619C10.0799 9.47917 8.99997 10.5 8.99997 10.5L7.49997 9C7.49997 9 8.58063 7.97843 8.71008 7.0252C8.43297 6.151 8.56637 5.2578 9.1495 4.67467Z"/>
</mask>
<path fill-rule="evenodd" clip-rule="evenodd" d="M9.1495 4.67467C9.77314 4.05103 10.8137 3.84896 11.7844 4.14603L10.6146 4.82144C10.1363 5.09758 9.97238 5.70917 10.2485 6.18747L11.3126 8.0305C11.5887 8.50879 12.2003 8.67266 12.6786 8.39652L13.9961 7.63588C13.9239 8.13577 13.7208 8.58867 13.3921 8.91731C12.8086 9.50082 11.9146 9.63401 11.0399 9.35619C10.0799 9.47917 8.99997 10.5 8.99997 10.5L7.49997 9C7.49997 9 8.58063 7.97843 8.71008 7.0252C8.43297 6.151 8.56637 5.2578 9.1495 4.67467Z" fill="#D9D9D9"/>
<path d="M11.7844 4.14603L12.2844 5.01206C12.6291 4.81302 12.823 4.42848 12.778 4.03297C12.733 3.63746 12.4577 3.3063 12.077 3.18981L11.7844 4.14603ZM9.1495 4.67467L9.85661 5.38178V5.38178L9.1495 4.67467ZM10.6146 4.82144L10.1146 3.95541V3.95541L10.6146 4.82144ZM10.2485 6.18747L9.3825 6.68747L10.2485 6.18747ZM11.3126 8.0305L10.4466 8.5305L10.4466 8.5305L11.3126 8.0305ZM12.6786 8.39652L13.1786 9.26255L12.6786 8.39652ZM13.9961 7.63588L14.9858 7.77888C15.0406 7.3998 14.874 7.02273 14.5569 6.80793C14.2398 6.59313 13.8278 6.57834 13.4961 6.76986L13.9961 7.63588ZM11.0399 9.35619L11.3426 8.40311C11.2039 8.35905 11.0572 8.3458 10.9129 8.3643L11.0399 9.35619ZM8.99997 10.5L8.29286 11.2071C8.67565 11.5899 9.29354 11.5986 9.68693 11.2267L8.99997 10.5ZM7.49997 9L6.81301 8.2733C6.61674 8.45884 6.50386 8.71589 6.50007 8.98595C6.49627 9.25601 6.60188 9.51612 6.79286 9.7071L7.49997 9ZM8.71008 7.0252L9.70098 7.15977C9.72089 7.0132 9.70803 6.86403 9.66334 6.72303L8.71008 7.0252ZM12.077 3.18981C10.8268 2.80719 9.3782 3.03176 8.44239 3.96756L9.85661 5.38178C10.1681 5.0703 10.8006 4.89072 11.4917 5.10225L12.077 3.18981ZM11.1146 5.68747L12.2844 5.01206L11.2844 3.28001L10.1146 3.95541L11.1146 5.68747ZM11.1146 5.68747V5.68747L10.1146 3.95541C9.15797 4.5077 8.83022 5.73088 9.3825 6.68747L11.1146 5.68747ZM12.1786 7.5305L11.1146 5.68747L9.3825 6.68747L10.4466 8.5305L12.1786 7.5305ZM12.1786 7.5305H12.1786L10.4466 8.5305C10.9989 9.48708 12.222 9.81483 13.1786 9.26255L12.1786 7.5305ZM13.4961 6.76986L12.1786 7.5305L13.1786 9.26255L14.4961 8.50191L13.4961 6.76986ZM14.0992 9.62442C14.608 9.11569 14.8888 8.45042 14.9858 7.77888L13.0064 7.49288C12.9589 7.82111 12.8336 8.06165 12.685 8.2102L14.0992 9.62442ZM10.7372 10.3093C11.8671 10.6681 13.1842 10.5395 14.0992 9.62442L12.685 8.2102C12.4331 8.46214 11.9622 8.59988 11.3426 8.40311L10.7372 10.3093ZM10.9129 8.3643C10.1834 8.45773 9.50809 8.86243 9.08986 9.15261C8.86387 9.30941 8.67419 9.4606 8.54058 9.57281C8.47336 9.62926 8.41927 9.67675 8.38071 9.71131C8.36141 9.72862 8.34593 9.74275 8.33456 9.75323C8.32888 9.75847 8.32421 9.7628 8.32061 9.76617C8.31881 9.76785 8.31727 9.76929 8.316 9.77048C8.31537 9.77108 8.3148 9.77161 8.31431 9.77208C8.31406 9.77232 8.31382 9.77253 8.31361 9.77274C8.3135 9.77284 8.31335 9.77298 8.3133 9.77303C8.31315 9.77317 8.31301 9.7733 8.99997 10.5C9.68693 11.2267 9.68679 11.2268 9.68667 11.2269C9.68663 11.227 9.68651 11.2271 9.68643 11.2272C9.68628 11.2273 9.68615 11.2274 9.68603 11.2275C9.68579 11.2278 9.68562 11.2279 9.68551 11.228C9.68528 11.2282 9.68531 11.2282 9.68558 11.228C9.68613 11.2275 9.68764 11.226 9.6901 11.2238C9.69502 11.2192 9.70368 11.2113 9.71578 11.2005C9.74003 11.1787 9.7778 11.1455 9.82683 11.1043C9.9257 11.0213 10.066 10.9096 10.23 10.7958C10.5917 10.5448 10.9363 10.3776 11.167 10.3481L10.9129 8.3643ZM9.70708 9.79289L8.20708 8.29289L6.79286 9.7071L8.29286 11.2071L9.70708 9.79289ZM7.49997 9C8.18693 9.72669 8.18708 9.72655 8.18723 9.72641C8.18729 9.72636 8.18744 9.72621 8.18756 9.7261C8.18778 9.72589 8.18802 9.72566 8.18828 9.72541C8.1888 9.72492 8.18939 9.72436 8.19004 9.72374C8.19135 9.7225 8.19291 9.721 8.19474 9.71926C8.19839 9.71576 8.20307 9.71126 8.20871 9.70578C8.21999 9.69483 8.23515 9.67996 8.25368 9.66143C8.29069 9.62443 8.34145 9.57254 8.40175 9.50797C8.52154 9.37967 8.68314 9.19686 8.85091 8.97742C9.15935 8.57397 9.59959 7.9064 9.70098 7.15977L7.71918 6.89063C7.69112 7.09723 7.5263 7.41706 7.26205 7.76271C7.14347 7.91781 7.02682 8.04996 6.93994 8.143C6.89691 8.18909 6.86223 8.22446 6.83963 8.24705C6.82836 8.25832 6.82018 8.26632 6.81557 8.2708C6.81326 8.27304 6.81186 8.27439 6.81141 8.27482C6.81118 8.27503 6.8112 8.27502 6.81147 8.27477C6.8116 8.27464 6.81179 8.27446 6.81205 8.27421C6.81218 8.27409 6.81232 8.27395 6.81248 8.2738C6.81256 8.27373 6.81269 8.2736 6.81273 8.27356C6.81287 8.27343 6.81301 8.2733 7.49997 9ZM8.44239 3.96756C7.52793 4.88203 7.39884 6.19801 7.75683 7.32736L9.66334 6.72303C9.46711 6.10399 9.60482 5.63357 9.85661 5.38178L8.44239 3.96756Z" fill="#929292" mask="url(#path-1-outside-1_188_3272)"/>
<path d="M3.5 12.5C3.5 12.3674 3.55268 12.2402 3.64645 12.1464L7.14645 8.64645C7.34171 8.45118 7.65829 8.45118 7.85355 8.64645L9.35355 10.1464C9.54882 10.3417 9.54882 10.6583 9.35355 10.8536L5.85355 14.3536C5.75979 14.4473 5.63261 14.5 5.5 14.5H4C3.72386 14.5 3.5 14.2761 3.5 14V12.5Z" fill="#B2C8EC" stroke="url(#paint0_linear_188_3272)" stroke-linejoin="round"/>
<defs>
<linearGradient id="paint0_linear_188_3272" x1="5" y1="11" x2="7" y2="13" gradientUnits="userSpaceOnUse">
<stop stop-color="#90ADDE"/>
<stop offset="1" stop-color="#5283D3"/>
</linearGradient>
</defs>
</svg>
