<svg width="16" height="16" viewBox="0 0 16 16" fill="none" xmlns="http://www.w3.org/2000/svg">
<path d="M3.5 4C3.5 3.72386 3.72386 3.5 4 3.5H10C11.3807 3.5 12.5 4.61929 12.5 6V12C12.5 12.2761 12.2761 12.5 12 12.5H4C3.72386 12.5 3.5 12.2761 3.5 12V4Z" fill="url(#paint0_linear_99_12607)" stroke="url(#paint1_linear_99_12607)"/>
<path d="M4.5 4.5H10C10.8284 4.5 11.5 5.17157 11.5 6V11.5H4.5V4.5Z" stroke="white" stroke-opacity="0.33" style="mix-blend-mode:lighten"/>
<rect x="5" y="9" width="6" height="3" fill="white"/>
<path fill-rule="evenodd" clip-rule="evenodd" d="M6 4H5V5C5 5.55228 5.44772 6 6 6H8C8.55228 6 9 5.55228 9 5V4H7V5H6V4Z" fill="url(#paint2_linear_99_12607)"/>
<path fill-rule="evenodd" clip-rule="evenodd" d="M6 4H5V5C5 5.55228 5.44772 6 6 6H8C8.55228 6 9 5.55228 9 5V4H7V5H6V4Z" fill="white"/>
<rect x="6" y="10" width="4" height="1" rx="0.5" fill="url(#paint3_linear_99_12607)"/>
<defs>
<linearGradient id="paint0_linear_99_12607" x1="3" y1="3" x2="13" y2="13" gradientUnits="userSpaceOnUse">
<stop stop-color="#9EC0EF"/>
<stop offset="1" stop-color="#85A2DD"/>
</linearGradient>
<linearGradient id="paint1_linear_99_12607" x1="13" y1="13" x2="3" y2="3" gradientUnits="userSpaceOnUse">
<stop stop-color="#2E5FA6"/>
<stop offset="1" stop-color="#5B86C7"/>
</linearGradient>
<linearGradient id="paint2_linear_99_12607" x1="5" y1="4" x2="9" y2="6" gradientUnits="userSpaceOnUse">
<stop stop-color="#B8B8B8"/>
<stop offset="1" stop-color="#E3E3E3"/>
</linearGradient>
<linearGradient id="paint3_linear_99_12607" x1="6" y1="10.5" x2="10" y2="10.5" gradientUnits="userSpaceOnUse">
<stop stop-color="#94D32D"/>
<stop offset="1" stop-color="#84BF54"/>
</linearGradient>
</defs>
</svg>
