<svg width="16" height="16" viewBox="0 0 16 16" fill="none" xmlns="http://www.w3.org/2000/svg">
<g filter="url(#filter0_i_99_12603)">
<path d="M7 6H3V11H7V13H8L13 8.5L8 4H7V6Z" fill="#80B361"/>
</g>
<path d="M7 6.5C7.27614 6.5 7.5 6.27614 7.5 6V4.5H7.80813L12.2526 8.5L7.80813 12.5H7.5V11C7.5 10.7239 7.27614 10.5 7 10.5H3.5V6.5H7Z" stroke="url(#paint0_linear_99_12603)" stroke-linejoin="round"/>
<path d="M4.5 9.5V7.5H7C7.7149 7.5 8.26594 7.02572 8.44117 6.41687L10.7531 8.5L8.44127 10.5831C8.26297 9.96435 7.69748 9.5 7.00492 9.5H4.5Z" stroke="white" stroke-opacity="0.2" stroke-linejoin="round"/>
<defs>
<filter id="filter0_i_99_12603" x="3" y="4" width="12" height="11" filterUnits="userSpaceOnUse" color-interpolation-filters="sRGB">
<feFlood flood-opacity="0" result="BackgroundImageFix"/>
<feBlend mode="normal" in="SourceGraphic" in2="BackgroundImageFix" result="shape"/>
<feColorMatrix in="SourceAlpha" type="matrix" values="0 0 0 0 0 0 0 0 0 0 0 0 0 0 0 0 0 0 127 0" result="hardAlpha"/>
<feOffset dx="2" dy="2"/>
<feGaussianBlur stdDeviation="1"/>
<feComposite in2="hardAlpha" operator="arithmetic" k2="-1" k3="1"/>
<feColorMatrix type="matrix" values="0 0 0 0 1 0 0 0 0 1 0 0 0 0 1 0 0 0 0.25 0"/>
<feBlend mode="normal" in2="shape" result="effect1_innerShadow_99_12603"/>
</filter>
<linearGradient id="paint0_linear_99_12603" x1="11.5714" y1="11.7143" x2="5.17837" y2="4.61089" gradientUnits="userSpaceOnUse">
<stop stop-color="#247C10"/>
<stop offset="1" stop-color="#6FA53D"/>
</linearGradient>
</defs>
</svg>
