<svg width="16" height="16" viewBox="0 0 16 16" fill="none" xmlns="http://www.w3.org/2000/svg">
<mask id="path-1-outside-1_99_12601" maskUnits="userSpaceOnUse" x="4" y="4" width="10" height="10" fill="black">
<rect fill="white" x="4" y="4" width="10" height="10"/>
<path fill-rule="evenodd" clip-rule="evenodd" d="M5 13V11.5L8 9V6.5L9.5 5H11L13 7V8.5L11.5 10H9V11H8V12H7V13H5ZM11 6L12 7L11 8L10 7L11 6Z"/>
</mask>
<g filter="url(#filter0_i_99_12601)">
<path fill-rule="evenodd" clip-rule="evenodd" d="M5 13V11.5L8 9V6.5L9.5 5H11L13 7V8.5L11.5 10H9V11H8V12H7V13H5ZM11 6L12 7L11 8L10 7L11 6Z" fill="#F4D847"/>
</g>
<path d="M5 11.5L4.35982 10.7318L4 11.0316V11.5H5ZM5 13H4V14H5V13ZM8 9L8.64018 9.76822L9 9.46837V9H8ZM8 6.5L7.29289 5.79289L7 6.08579V6.5H8ZM9.5 5V4H9.08579L8.79289 4.29289L9.5 5ZM11 5L11.7071 4.29289L11.4142 4H11V5ZM13 7H14V6.58579L13.7071 6.29289L13 7ZM13 8.5L13.7071 9.20711L14 8.91421V8.5H13ZM11.5 10V11H11.9142L12.2071 10.7071L11.5 10ZM9 10V9H8V10H9ZM9 11V12H10V11H9ZM8 11V10H7V11H8ZM8 12V13H9V12H8ZM7 12V11H6V12H7ZM7 13V14H8V13H7ZM12 7L12.7071 7.70711L13.4142 7L12.7071 6.29289L12 7ZM11 6L11.7071 5.29289L11 4.58579L10.2929 5.29289L11 6ZM11 8L10.2929 8.70711L11 9.41421L11.7071 8.70711L11 8ZM10 7L9.29289 6.29289L8.58579 7L9.29289 7.70711L10 7ZM4 11.5V13H6V11.5H4ZM7.35982 8.23178L4.35982 10.7318L5.64018 12.2682L8.64018 9.76822L7.35982 8.23178ZM7 6.5V9H9V6.5H7ZM8.79289 4.29289L7.29289 5.79289L8.70711 7.20711L10.2071 5.70711L8.79289 4.29289ZM11 4H9.5V6H11V4ZM13.7071 6.29289L11.7071 4.29289L10.2929 5.70711L12.2929 7.70711L13.7071 6.29289ZM14 8.5V7H12V8.5H14ZM12.2071 10.7071L13.7071 9.20711L12.2929 7.79289L10.7929 9.29289L12.2071 10.7071ZM9 11H11.5V9H9V11ZM10 11V10H8V11H10ZM8 12H9V10H8V12ZM9 12V11H7V12H9ZM7 13H8V11H7V13ZM8 13V12H6V13H8ZM5 14H7V12H5V14ZM12.7071 6.29289L11.7071 5.29289L10.2929 6.70711L11.2929 7.70711L12.7071 6.29289ZM11.7071 8.70711L12.7071 7.70711L11.2929 6.29289L10.2929 7.29289L11.7071 8.70711ZM9.29289 7.70711L10.2929 8.70711L11.7071 7.29289L10.7071 6.29289L9.29289 7.70711ZM10.2929 5.29289L9.29289 6.29289L10.7071 7.70711L11.7071 6.70711L10.2929 5.29289Z" fill="url(#paint0_linear_99_12601)" mask="url(#path-1-outside-1_99_12601)"/>
<defs>
<filter id="filter0_i_99_12601" x="4" y="4" width="10" height="10" filterUnits="userSpaceOnUse" color-interpolation-filters="sRGB">
<feFlood flood-opacity="0" result="BackgroundImageFix"/>
<feBlend mode="normal" in="SourceGraphic" in2="BackgroundImageFix" result="shape"/>
<feColorMatrix in="SourceAlpha" type="matrix" values="0 0 0 0 0 0 0 0 0 0 0 0 0 0 0 0 0 0 127 0" result="hardAlpha"/>
<feOffset dx="2" dy="1"/>
<feComposite in2="hardAlpha" operator="arithmetic" k2="-1" k3="1"/>
<feColorMatrix type="matrix" values="0 0 0 0 1 0 0 0 0 1 0 0 0 0 1 0 0 0 0.5 0"/>
<feBlend mode="normal" in2="shape" result="effect1_innerShadow_99_12601"/>
</filter>
<linearGradient id="paint0_linear_99_12601" x1="6.5" y1="6.5" x2="10.7612" y2="12.0656" gradientUnits="userSpaceOnUse">
<stop stop-color="#EAC15E"/>
<stop offset="1" stop-color="#C98032"/>
</linearGradient>
</defs>
</svg>
