<svg width="16" height="16" viewBox="0 0 16 16" fill="none" xmlns="http://www.w3.org/2000/svg">
<path d="M1.5 6.5C1.5 5.82492 2.06026 5.07914 3.27386 4.47234C4.45755 3.88049 6.12779 3.5 8 3.5C9.87221 3.5 11.5424 3.88049 12.7261 4.47234C13.9397 5.07914 14.5 5.82492 14.5 6.5V12.5C14.5 13.1751 13.9397 13.9209 12.7261 14.5277C11.5424 15.1195 9.87221 15.5 8 15.5C6.12779 15.5 4.45755 15.1195 3.27386 14.5277C2.06026 13.9209 1.5 13.1751 1.5 12.5V6.5Z" fill="#F7E286" stroke="#EFC714"/>
<path d="M14.5 6.5C14.5 7.17508 13.9397 7.92086 12.7261 8.52766C11.5424 9.11951 9.87221 9.5 8 9.5C6.12779 9.5 4.45755 9.11951 3.27386 8.52766C2.06026 7.92086 1.5 7.17508 1.5 6.5C1.5 5.82492 2.06026 5.07914 3.27386 4.47234C4.45755 3.88049 6.12779 3.5 8 3.5C9.87221 3.5 11.5424 3.88049 12.7261 4.47234C13.9397 5.07914 14.5 5.82492 14.5 6.5Z" fill="white" stroke="#CBCBCB"/>
<path d="M8 13C11.866 13 15 11.433 15 9.5V8.5C15 10.433 11.866 12 8 12C4.13401 12 1 10.433 1 8.5V9.5C1 11.433 4.13401 13 8 13Z" fill="#E05445"/>
<mask id="path-4-outside-1_421_6931" maskUnits="userSpaceOnUse" x="3" y="2" width="11" height="7" fill="black">
<rect fill="white" x="3" y="2" width="11" height="7"/>
<path fill-rule="evenodd" clip-rule="evenodd" d="M4 3.5C4 3.22386 4.22386 3 4.5 3C4.77614 3 5 3.22386 5 3.5V5.5C5 5.77614 4.77614 6 4.5 6C4.22386 6 4 5.77614 4 5.5V3.5ZM8 5.5C8 5.22386 8.22386 5 8.5 5C8.77614 5 9 5.22386 9 5.5V7.5C9 7.77614 8.77614 8 8.5 8C8.22386 8 8 7.77614 8 7.5V5.5ZM12.5 3C12.2239 3 12 3.22386 12 3.5V5.5C12 5.77614 12.2239 6 12.5 6C12.7761 6 13 5.77614 13 5.5V3.5C13 3.22386 12.7761 3 12.5 3Z"/>
</mask>
<path fill-rule="evenodd" clip-rule="evenodd" d="M4 3.5C4 3.22386 4.22386 3 4.5 3C4.77614 3 5 3.22386 5 3.5V5.5C5 5.77614 4.77614 6 4.5 6C4.22386 6 4 5.77614 4 5.5V3.5ZM8 5.5C8 5.22386 8.22386 5 8.5 5C8.77614 5 9 5.22386 9 5.5V7.5C9 7.77614 8.77614 8 8.5 8C8.22386 8 8 7.77614 8 7.5V5.5ZM12.5 3C12.2239 3 12 3.22386 12 3.5V5.5C12 5.77614 12.2239 6 12.5 6C12.7761 6 13 5.77614 13 5.5V3.5C13 3.22386 12.7761 3 12.5 3Z" fill="url(#paint0_linear_421_6931)"/>
<path d="M4.5 2C3.67157 2 3 2.67157 3 3.5H5C5 3.77614 4.77614 4 4.5 4V2ZM6 3.5C6 2.67157 5.32843 2 4.5 2V4C4.22386 4 4 3.77614 4 3.5H6ZM6 5.5V3.5H4V5.5H6ZM4.5 7C5.32843 7 6 6.32843 6 5.5H4C4 5.22386 4.22386 5 4.5 5V7ZM3 5.5C3 6.32843 3.67157 7 4.5 7V5C4.77614 5 5 5.22386 5 5.5H3ZM3 3.5V5.5H5V3.5H3ZM8.5 4C7.67157 4 7 4.67157 7 5.5H9C9 5.77614 8.77614 6 8.5 6V4ZM10 5.5C10 4.67157 9.32843 4 8.5 4V6C8.22386 6 8 5.77614 8 5.5H10ZM10 7.5V5.5H8V7.5H10ZM8.5 9C9.32843 9 10 8.32843 10 7.5H8C8 7.22386 8.22386 7 8.5 7V9ZM7 7.5C7 8.32843 7.67157 9 8.5 9V7C8.77614 7 9 7.22386 9 7.5H7ZM7 5.5V7.5H9V5.5H7ZM13 3.5C13 3.77614 12.7761 4 12.5 4V2C11.6716 2 11 2.67157 11 3.5H13ZM13 5.5V3.5H11V5.5H13ZM12.5 5C12.7761 5 13 5.22386 13 5.5H11C11 6.32843 11.6716 7 12.5 7V5ZM12 5.5C12 5.22386 12.2239 5 12.5 5V7C13.3284 7 14 6.32843 14 5.5H12ZM12 3.5V5.5H14V3.5H12ZM12.5 4C12.2239 4 12 3.77614 12 3.5H14C14 2.67157 13.3284 2 12.5 2V4Z" fill="url(#paint1_linear_421_6931)" mask="url(#path-4-outside-1_421_6931)"/>
<mask id="path-6-outside-2_421_6931" maskUnits="userSpaceOnUse" x="3" y="0" width="3" height="4" fill="black">
<rect fill="white" x="3" width="3" height="4"/>
<path fill-rule="evenodd" clip-rule="evenodd" d="M5 2V2.5C5 2.77614 4.77614 3 4.5 3C4.22386 3 4 2.77614 4 2.5V1.5C4 1.22386 4.22386 1 4.5 1C4.5 1.55228 4.72386 2 5 2Z"/>
</mask>
<path fill-rule="evenodd" clip-rule="evenodd" d="M5 2V2.5C5 2.77614 4.77614 3 4.5 3C4.22386 3 4 2.77614 4 2.5V1.5C4 1.22386 4.22386 1 4.5 1C4.5 1.55228 4.72386 2 5 2Z" fill="url(#paint2_linear_421_6931)"/>
<path d="M5 2H6C6 1.44772 5.55228 1 5 1V2ZM4.5 1H5.5C5.5 0.447715 5.05228 0 4.5 0V1ZM4 2V2.5H6V2H4ZM4 2.5C4 2.22386 4.22386 2 4.5 2V4C5.32843 4 6 3.32843 6 2.5H4ZM4.5 2C4.77614 2 5 2.22386 5 2.5H3C3 3.32843 3.67157 4 4.5 4V2ZM5 2.5V1.5H3V2.5H5ZM5 1.5C5 1.77614 4.77614 2 4.5 2V0C3.67157 0 3 0.671573 3 1.5H5ZM5 1C5.21782 1 5.3731 1.09186 5.45122 1.15794C5.48909 1.18998 5.51228 1.21815 5.52425 1.23432C5.53053 1.2428 5.53473 1.24936 5.53723 1.25347C5.53973 1.25761 5.54085 1.25985 5.54087 1.25989C5.5409 1.25996 5.54006 1.25826 5.53857 1.25465C5.53709 1.25106 5.5351 1.24589 5.5328 1.23908C5.52814 1.22528 5.52273 1.20636 5.51765 1.18234C5.50735 1.13364 5.5 1.07158 5.5 1H3.5C3.5 1.39773 3.57848 1.80724 3.75202 2.15432C3.89565 2.44159 4.2791 3 5 3V1Z" fill="url(#paint3_linear_421_6931)" mask="url(#path-6-outside-2_421_6931)"/>
<mask id="path-8-outside-3_421_6931" maskUnits="userSpaceOnUse" x="7" y="2" width="3" height="4" fill="black">
<rect fill="white" x="7" y="2" width="3" height="4"/>
<path fill-rule="evenodd" clip-rule="evenodd" d="M9 4V4.5C9 4.77614 8.77614 5 8.5 5C8.22386 5 8 4.77614 8 4.5V3.5C8 3.22386 8.22386 3 8.5 3C8.5 3.55228 8.72386 4 9 4Z"/>
</mask>
<path fill-rule="evenodd" clip-rule="evenodd" d="M9 4V4.5C9 4.77614 8.77614 5 8.5 5C8.22386 5 8 4.77614 8 4.5V3.5C8 3.22386 8.22386 3 8.5 3C8.5 3.55228 8.72386 4 9 4Z" fill="url(#paint4_linear_421_6931)"/>
<path d="M9 4H10C10 3.44772 9.55228 3 9 3V4ZM8.5 3H9.5C9.5 2.44772 9.05228 2 8.5 2V3ZM8 4V4.5H10V4H8ZM8 4.5C8 4.22386 8.22386 4 8.5 4V6C9.32843 6 10 5.32843 10 4.5H8ZM8.5 4C8.77614 4 9 4.22386 9 4.5H7C7 5.32843 7.67157 6 8.5 6V4ZM9 4.5V3.5H7V4.5H9ZM9 3.5C9 3.77614 8.77614 4 8.5 4V2C7.67157 2 7 2.67157 7 3.5H9ZM9 3C9.21782 3 9.3731 3.09186 9.45122 3.15794C9.48909 3.18998 9.51228 3.21815 9.52425 3.23432C9.53053 3.2428 9.53473 3.24936 9.53723 3.25347C9.53973 3.25761 9.54085 3.25985 9.54087 3.25989C9.5409 3.25996 9.54006 3.25826 9.53857 3.25465C9.53709 3.25106 9.5351 3.24589 9.5328 3.23908C9.52814 3.22528 9.52273 3.20636 9.51765 3.18234C9.50735 3.13364 9.5 3.07158 9.5 3H7.5C7.5 3.39773 7.57848 3.80724 7.75202 4.15432C7.89565 4.44159 8.2791 5 9 5V3Z" fill="url(#paint5_linear_421_6931)" mask="url(#path-8-outside-3_421_6931)"/>
<mask id="path-10-outside-4_421_6931" maskUnits="userSpaceOnUse" x="11" y="0" width="3" height="4" fill="black">
<rect fill="white" x="11" width="3" height="4"/>
<path fill-rule="evenodd" clip-rule="evenodd" d="M13 2V2.5C13 2.77614 12.7761 3 12.5 3C12.2239 3 12 2.77614 12 2.5V1.5C12 1.22386 12.2239 1 12.5 1C12.5 1.55228 12.7239 2 13 2Z"/>
</mask>
<path fill-rule="evenodd" clip-rule="evenodd" d="M13 2V2.5C13 2.77614 12.7761 3 12.5 3C12.2239 3 12 2.77614 12 2.5V1.5C12 1.22386 12.2239 1 12.5 1C12.5 1.55228 12.7239 2 13 2Z" fill="url(#paint6_linear_421_6931)"/>
<path d="M13 2H14C14 1.44772 13.5523 1 13 1V2ZM12.5 1H13.5C13.5 0.447715 13.0523 0 12.5 0V1ZM12 2V2.5H14V2H12ZM12 2.5C12 2.22386 12.2239 2 12.5 2V4C13.3284 4 14 3.32843 14 2.5H12ZM12.5 2C12.7761 2 13 2.22386 13 2.5H11C11 3.32843 11.6716 4 12.5 4V2ZM13 2.5V1.5H11V2.5H13ZM13 1.5C13 1.77614 12.7761 2 12.5 2V0C11.6716 0 11 0.671573 11 1.5H13ZM13 1C13.2178 1 13.3731 1.09186 13.4512 1.15794C13.4891 1.18998 13.5123 1.21815 13.5242 1.23432C13.5305 1.2428 13.5347 1.24936 13.5372 1.25347C13.5397 1.25761 13.5409 1.25985 13.5409 1.25989C13.5409 1.25996 13.5401 1.25826 13.5386 1.25465C13.5371 1.25106 13.5351 1.24589 13.5328 1.23908C13.5281 1.22528 13.5227 1.20636 13.5177 1.18234C13.5074 1.13364 13.5 1.07158 13.5 1H11.5C11.5 1.39773 11.5785 1.80724 11.752 2.15432C11.8957 2.44159 12.2791 3 13 3V1Z" fill="url(#paint7_linear_421_6931)" mask="url(#path-10-outside-4_421_6931)"/>
<defs>
<linearGradient id="paint0_linear_421_6931" x1="4.03518" y1="3" x2="12.9648" y2="8" gradientUnits="userSpaceOnUse">
<stop stop-color="#AFC8EF"/>
<stop offset="1" stop-color="#93B4E9"/>
</linearGradient>
<linearGradient id="paint1_linear_421_6931" x1="7.03741" y1="3" x2="9.96259" y2="8" gradientUnits="userSpaceOnUse">
<stop stop-color="#9DBBED"/>
<stop offset="1" stop-color="#769DE3"/>
</linearGradient>
<linearGradient id="paint2_linear_421_6931" x1="4.5" y1="1" x2="4.5" y2="3" gradientUnits="userSpaceOnUse">
<stop stop-color="#F3F130"/>
<stop offset="1" stop-color="#F6F567"/>
</linearGradient>
<linearGradient id="paint3_linear_421_6931" x1="4.5" y1="1" x2="4.5" y2="3" gradientUnits="userSpaceOnUse">
<stop stop-color="#DDD338"/>
<stop offset="1" stop-color="#BCBF55"/>
</linearGradient>
<linearGradient id="paint4_linear_421_6931" x1="8.5" y1="3" x2="8.5" y2="5" gradientUnits="userSpaceOnUse">
<stop stop-color="#F3F130"/>
<stop offset="1" stop-color="#F6F567"/>
</linearGradient>
<linearGradient id="paint5_linear_421_6931" x1="8.5" y1="3" x2="8.5" y2="5" gradientUnits="userSpaceOnUse">
<stop stop-color="#DDD338"/>
<stop offset="1" stop-color="#BCBF55"/>
</linearGradient>
<linearGradient id="paint6_linear_421_6931" x1="12.5" y1="1" x2="12.5" y2="3" gradientUnits="userSpaceOnUse">
<stop stop-color="#F3F130"/>
<stop offset="1" stop-color="#F6F567"/>
</linearGradient>
<linearGradient id="paint7_linear_421_6931" x1="12.5" y1="1" x2="12.5" y2="3" gradientUnits="userSpaceOnUse">
<stop stop-color="#DDD338"/>
<stop offset="1" stop-color="#BCBF55"/>
</linearGradient>
</defs>
</svg>
