<svg width="16" height="16" viewBox="0 0 16 16" fill="none" xmlns="http://www.w3.org/2000/svg">
<path d="M1.5 2C1.5 1.17157 2.17157 0.5 3 0.5H11C11.8284 0.5 12.5 1.17157 12.5 2V12C12.5 12.8284 11.8284 13.5 11 13.5H3C2.17157 13.5 1.5 12.8284 1.5 12V2Z" stroke="url(#paint0_linear_99_12944)"/>
<g filter="url(#filter0_ii_99_12944)">
<rect x="2" y="1" width="10" height="12" rx="1" fill="url(#paint1_radial_99_12944)"/>
</g>
<g filter="url(#filter1_iii_99_12944)">
<rect x="3" y="2" width="8" height="3" fill="#6990C6"/>
</g>
<g filter="url(#filter2_d_99_12944)">
<path d="M3 7C3 6.44772 3.44772 6 4 6C4.55228 6 5 6.44772 5 7H3Z" fill="url(#paint2_linear_99_12944)"/>
</g>
<g filter="url(#filter3_d_99_12944)">
<path d="M6 7C6 6.44772 6.44772 6 7 6C7.55228 6 8 6.44772 8 7H6Z" fill="url(#paint3_linear_99_12944)"/>
</g>
<g filter="url(#filter4_d_99_12944)">
<path d="M3 9C3 8.44772 3.44772 8 4 8C4.55228 8 5 8.44772 5 9H3Z" fill="url(#paint4_linear_99_12944)"/>
</g>
<g filter="url(#filter5_d_99_12944)">
<path d="M6 9C6 8.44772 6.44772 8 7 8C7.55228 8 8 8.44772 8 9H6Z" fill="url(#paint5_linear_99_12944)"/>
</g>
<g filter="url(#filter6_d_99_12944)">
<path d="M9 9C9 8.44772 9.44772 8 10 8C10.5523 8 11 8.44772 11 9H9Z" fill="url(#paint6_linear_99_12944)"/>
</g>
<g filter="url(#filter7_d_99_12944)">
<path d="M9 11C9 10.4477 9.44772 10 10 10C10.5523 10 11 10.4477 11 11H9Z" fill="url(#paint7_linear_99_12944)"/>
</g>
<g filter="url(#filter8_d_99_12944)">
<path d="M6 11C6 10.4477 6.44772 10 7 10C7.55228 10 8 10.4477 8 11H6Z" fill="url(#paint8_linear_99_12944)"/>
</g>
<g filter="url(#filter9_d_99_12944)">
<path d="M3 11C3 10.4477 3.44772 10 4 10C4.55228 10 5 10.4477 5 11H3Z" fill="url(#paint9_linear_99_12944)"/>
</g>
<g filter="url(#filter10_d_99_12944)">
<path d="M9 7C9 6.44772 9.44772 6 10 6C10.5523 6 11 6.44772 11 7H9Z" fill="url(#paint10_linear_99_12944)"/>
</g>
<mask id="path-13-inside-1_99_12944" fill="white">
<path fill-rule="evenodd" clip-rule="evenodd" d="M6.5 16C8.433 16 10 14.433 10 12.5C10 10.567 8.433 9 6.5 9C4.567 9 3 10.567 3 12.5C3 14.433 4.567 16 6.5 16ZM6.5 13C6.77614 13 7 12.7761 7 12.5C7 12.2239 6.77614 12 6.5 12C6.22386 12 6 12.2239 6 12.5C6 12.7761 6.22386 13 6.5 13Z"/>
</mask>
<path fill-rule="evenodd" clip-rule="evenodd" d="M6.5 16C8.433 16 10 14.433 10 12.5C10 10.567 8.433 9 6.5 9C4.567 9 3 10.567 3 12.5C3 14.433 4.567 16 6.5 16ZM6.5 13C6.77614 13 7 12.7761 7 12.5C7 12.2239 6.77614 12 6.5 12C6.22386 12 6 12.2239 6 12.5C6 12.7761 6.22386 13 6.5 13Z" fill="url(#paint11_linear_99_12944)"/>
<path d="M9 12.5C9 13.8807 7.88071 15 6.5 15V17C8.98528 17 11 14.9853 11 12.5H9ZM6.5 10C7.88071 10 9 11.1193 9 12.5H11C11 10.0147 8.98528 8 6.5 8V10ZM4 12.5C4 11.1193 5.11929 10 6.5 10V8C4.01472 8 2 10.0147 2 12.5H4ZM6.5 15C5.11929 15 4 13.8807 4 12.5H2C2 14.9853 4.01472 17 6.5 17V15ZM6 12.5C6 12.2239 6.22386 12 6.5 12V14C7.32843 14 8 13.3284 8 12.5H6ZM6.5 13C6.22386 13 6 12.7761 6 12.5H8C8 11.6716 7.32843 11 6.5 11V13ZM7 12.5C7 12.7761 6.77614 13 6.5 13V11C5.67157 11 5 11.6716 5 12.5H7ZM6.5 12C6.77614 12 7 12.2239 7 12.5H5C5 13.3284 5.67157 14 6.5 14V12Z" fill="url(#paint12_linear_99_12944)" mask="url(#path-13-inside-1_99_12944)"/>
<mask id="path-15-inside-2_99_12944" fill="white">
<path fill-rule="evenodd" clip-rule="evenodd" d="M12.5 16C14.433 16 16 14.433 16 12.5C16 10.567 14.433 9 12.5 9C10.567 9 9 10.567 9 12.5C9 14.433 10.567 16 12.5 16ZM12.5 13C12.7761 13 13 12.7761 13 12.5C13 12.2239 12.7761 12 12.5 12C12.2239 12 12 12.2239 12 12.5C12 12.7761 12.2239 13 12.5 13Z"/>
</mask>
<path fill-rule="evenodd" clip-rule="evenodd" d="M12.5 16C14.433 16 16 14.433 16 12.5C16 10.567 14.433 9 12.5 9C10.567 9 9 10.567 9 12.5C9 14.433 10.567 16 12.5 16ZM12.5 13C12.7761 13 13 12.7761 13 12.5C13 12.2239 12.7761 12 12.5 12C12.2239 12 12 12.2239 12 12.5C12 12.7761 12.2239 13 12.5 13Z" fill="url(#paint13_linear_99_12944)"/>
<path d="M15 12.5C15 13.8807 13.8807 15 12.5 15V17C14.9853 17 17 14.9853 17 12.5H15ZM12.5 10C13.8807 10 15 11.1193 15 12.5H17C17 10.0147 14.9853 8 12.5 8V10ZM10 12.5C10 11.1193 11.1193 10 12.5 10V8C10.0147 8 8 10.0147 8 12.5H10ZM12.5 15C11.1193 15 10 13.8807 10 12.5H8C8 14.9853 10.0147 17 12.5 17V15ZM12 12.5C12 12.2239 12.2239 12 12.5 12V14C13.3284 14 14 13.3284 14 12.5H12ZM12.5 13C12.2239 13 12 12.7761 12 12.5H14C14 11.6716 13.3284 11 12.5 11V13ZM13 12.5C13 12.7761 12.7761 13 12.5 13V11C11.6716 11 11 11.6716 11 12.5H13ZM12.5 12C12.7761 12 13 12.2239 13 12.5H11C11 13.3284 11.6716 14 12.5 14V12Z" fill="url(#paint14_linear_99_12944)" mask="url(#path-15-inside-2_99_12944)"/>
<rect x="6.5" y="11.5" width="6" height="2" fill="url(#paint15_linear_99_12944)"/>
<rect x="6.5" y="11.5" width="6" height="2" stroke="url(#paint16_linear_99_12944)" stroke-linejoin="round"/>
<rect x="6.5" y="11.5" width="6" height="2" stroke="url(#paint17_linear_99_12944)" stroke-linejoin="round"/>
<defs>
<filter id="filter0_ii_99_12944" x="2" y="1" width="10" height="13" filterUnits="userSpaceOnUse" color-interpolation-filters="sRGB">
<feFlood flood-opacity="0" result="BackgroundImageFix"/>
<feBlend mode="normal" in="SourceGraphic" in2="BackgroundImageFix" result="shape"/>
<feColorMatrix in="SourceAlpha" type="matrix" values="0 0 0 0 0 0 0 0 0 0 0 0 0 0 0 0 0 0 127 0" result="hardAlpha"/>
<feMorphology radius="1" operator="erode" in="SourceAlpha" result="effect1_innerShadow_99_12944"/>
<feOffset dy="1"/>
<feComposite in2="hardAlpha" operator="arithmetic" k2="-1" k3="1"/>
<feColorMatrix type="matrix" values="0 0 0 0 1 0 0 0 0 1 0 0 0 0 1 0 0 0 0.66 0"/>
<feBlend mode="normal" in2="shape" result="effect1_innerShadow_99_12944"/>
<feColorMatrix in="SourceAlpha" type="matrix" values="0 0 0 0 0 0 0 0 0 0 0 0 0 0 0 0 0 0 127 0" result="hardAlpha"/>
<feOffset dy="-1"/>
<feComposite in2="hardAlpha" operator="arithmetic" k2="-1" k3="1"/>
<feColorMatrix type="matrix" values="0 0 0 0 0.735294 0 0 0 0 0.735294 0 0 0 0 0.735294 0 0 0 1 0"/>
<feBlend mode="normal" in2="effect1_innerShadow_99_12944" result="effect2_innerShadow_99_12944"/>
</filter>
<filter id="filter1_iii_99_12944" x="3" y="2" width="8" height="3" filterUnits="userSpaceOnUse" color-interpolation-filters="sRGB">
<feFlood flood-opacity="0" result="BackgroundImageFix"/>
<feBlend mode="normal" in="SourceGraphic" in2="BackgroundImageFix" result="shape"/>
<feColorMatrix in="SourceAlpha" type="matrix" values="0 0 0 0 0 0 0 0 0 0 0 0 0 0 0 0 0 0 127 0" result="hardAlpha"/>
<feOffset dy="1"/>
<feComposite in2="hardAlpha" operator="arithmetic" k2="-1" k3="1"/>
<feColorMatrix type="matrix" values="0 0 0 0 0.301961 0 0 0 0 0.447059 0 0 0 0 0.654902 0 0 0 1 0"/>
<feBlend mode="normal" in2="shape" result="effect1_innerShadow_99_12944"/>
<feColorMatrix in="SourceAlpha" type="matrix" values="0 0 0 0 0 0 0 0 0 0 0 0 0 0 0 0 0 0 127 0" result="hardAlpha"/>
<feOffset dx="-1"/>
<feComposite in2="hardAlpha" operator="arithmetic" k2="-1" k3="1"/>
<feColorMatrix type="matrix" values="0 0 0 0 0.301961 0 0 0 0 0.447059 0 0 0 0 0.654902 0 0 0 1 0"/>
<feBlend mode="normal" in2="effect1_innerShadow_99_12944" result="effect2_innerShadow_99_12944"/>
<feColorMatrix in="SourceAlpha" type="matrix" values="0 0 0 0 0 0 0 0 0 0 0 0 0 0 0 0 0 0 127 0" result="hardAlpha"/>
<feOffset dx="1"/>
<feComposite in2="hardAlpha" operator="arithmetic" k2="-1" k3="1"/>
<feColorMatrix type="matrix" values="0 0 0 0 0.301961 0 0 0 0 0.447059 0 0 0 0 0.654902 0 0 0 1 0"/>
<feBlend mode="normal" in2="effect2_innerShadow_99_12944" result="effect3_innerShadow_99_12944"/>
</filter>
<filter id="filter2_d_99_12944" x="3" y="6" width="2" height="2" filterUnits="userSpaceOnUse" color-interpolation-filters="sRGB">
<feFlood flood-opacity="0" result="BackgroundImageFix"/>
<feColorMatrix in="SourceAlpha" type="matrix" values="0 0 0 0 0 0 0 0 0 0 0 0 0 0 0 0 0 0 127 0" result="hardAlpha"/>
<feOffset dy="1"/>
<feComposite in2="hardAlpha" operator="out"/>
<feColorMatrix type="matrix" values="0 0 0 0 1 0 0 0 0 1 0 0 0 0 1 0 0 0 0.33 0"/>
<feBlend mode="normal" in2="BackgroundImageFix" result="effect1_dropShadow_99_12944"/>
<feBlend mode="normal" in="SourceGraphic" in2="effect1_dropShadow_99_12944" result="shape"/>
</filter>
<filter id="filter3_d_99_12944" x="6" y="6" width="2" height="2" filterUnits="userSpaceOnUse" color-interpolation-filters="sRGB">
<feFlood flood-opacity="0" result="BackgroundImageFix"/>
<feColorMatrix in="SourceAlpha" type="matrix" values="0 0 0 0 0 0 0 0 0 0 0 0 0 0 0 0 0 0 127 0" result="hardAlpha"/>
<feOffset dy="1"/>
<feComposite in2="hardAlpha" operator="out"/>
<feColorMatrix type="matrix" values="0 0 0 0 1 0 0 0 0 1 0 0 0 0 1 0 0 0 0.33 0"/>
<feBlend mode="normal" in2="BackgroundImageFix" result="effect1_dropShadow_99_12944"/>
<feBlend mode="normal" in="SourceGraphic" in2="effect1_dropShadow_99_12944" result="shape"/>
</filter>
<filter id="filter4_d_99_12944" x="3" y="8" width="2" height="2" filterUnits="userSpaceOnUse" color-interpolation-filters="sRGB">
<feFlood flood-opacity="0" result="BackgroundImageFix"/>
<feColorMatrix in="SourceAlpha" type="matrix" values="0 0 0 0 0 0 0 0 0 0 0 0 0 0 0 0 0 0 127 0" result="hardAlpha"/>
<feOffset dy="1"/>
<feComposite in2="hardAlpha" operator="out"/>
<feColorMatrix type="matrix" values="0 0 0 0 1 0 0 0 0 1 0 0 0 0 1 0 0 0 0.33 0"/>
<feBlend mode="normal" in2="BackgroundImageFix" result="effect1_dropShadow_99_12944"/>
<feBlend mode="normal" in="SourceGraphic" in2="effect1_dropShadow_99_12944" result="shape"/>
</filter>
<filter id="filter5_d_99_12944" x="6" y="8" width="2" height="2" filterUnits="userSpaceOnUse" color-interpolation-filters="sRGB">
<feFlood flood-opacity="0" result="BackgroundImageFix"/>
<feColorMatrix in="SourceAlpha" type="matrix" values="0 0 0 0 0 0 0 0 0 0 0 0 0 0 0 0 0 0 127 0" result="hardAlpha"/>
<feOffset dy="1"/>
<feComposite in2="hardAlpha" operator="out"/>
<feColorMatrix type="matrix" values="0 0 0 0 1 0 0 0 0 1 0 0 0 0 1 0 0 0 0.33 0"/>
<feBlend mode="normal" in2="BackgroundImageFix" result="effect1_dropShadow_99_12944"/>
<feBlend mode="normal" in="SourceGraphic" in2="effect1_dropShadow_99_12944" result="shape"/>
</filter>
<filter id="filter6_d_99_12944" x="9" y="8" width="2" height="2" filterUnits="userSpaceOnUse" color-interpolation-filters="sRGB">
<feFlood flood-opacity="0" result="BackgroundImageFix"/>
<feColorMatrix in="SourceAlpha" type="matrix" values="0 0 0 0 0 0 0 0 0 0 0 0 0 0 0 0 0 0 127 0" result="hardAlpha"/>
<feOffset dy="1"/>
<feComposite in2="hardAlpha" operator="out"/>
<feColorMatrix type="matrix" values="0 0 0 0 1 0 0 0 0 1 0 0 0 0 1 0 0 0 0.33 0"/>
<feBlend mode="normal" in2="BackgroundImageFix" result="effect1_dropShadow_99_12944"/>
<feBlend mode="normal" in="SourceGraphic" in2="effect1_dropShadow_99_12944" result="shape"/>
</filter>
<filter id="filter7_d_99_12944" x="9" y="10" width="2" height="2" filterUnits="userSpaceOnUse" color-interpolation-filters="sRGB">
<feFlood flood-opacity="0" result="BackgroundImageFix"/>
<feColorMatrix in="SourceAlpha" type="matrix" values="0 0 0 0 0 0 0 0 0 0 0 0 0 0 0 0 0 0 127 0" result="hardAlpha"/>
<feOffset dy="1"/>
<feComposite in2="hardAlpha" operator="out"/>
<feColorMatrix type="matrix" values="0 0 0 0 1 0 0 0 0 1 0 0 0 0 1 0 0 0 0.33 0"/>
<feBlend mode="normal" in2="BackgroundImageFix" result="effect1_dropShadow_99_12944"/>
<feBlend mode="normal" in="SourceGraphic" in2="effect1_dropShadow_99_12944" result="shape"/>
</filter>
<filter id="filter8_d_99_12944" x="6" y="10" width="2" height="2" filterUnits="userSpaceOnUse" color-interpolation-filters="sRGB">
<feFlood flood-opacity="0" result="BackgroundImageFix"/>
<feColorMatrix in="SourceAlpha" type="matrix" values="0 0 0 0 0 0 0 0 0 0 0 0 0 0 0 0 0 0 127 0" result="hardAlpha"/>
<feOffset dy="1"/>
<feComposite in2="hardAlpha" operator="out"/>
<feColorMatrix type="matrix" values="0 0 0 0 1 0 0 0 0 1 0 0 0 0 1 0 0 0 0.33 0"/>
<feBlend mode="normal" in2="BackgroundImageFix" result="effect1_dropShadow_99_12944"/>
<feBlend mode="normal" in="SourceGraphic" in2="effect1_dropShadow_99_12944" result="shape"/>
</filter>
<filter id="filter9_d_99_12944" x="3" y="10" width="2" height="2" filterUnits="userSpaceOnUse" color-interpolation-filters="sRGB">
<feFlood flood-opacity="0" result="BackgroundImageFix"/>
<feColorMatrix in="SourceAlpha" type="matrix" values="0 0 0 0 0 0 0 0 0 0 0 0 0 0 0 0 0 0 127 0" result="hardAlpha"/>
<feOffset dy="1"/>
<feComposite in2="hardAlpha" operator="out"/>
<feColorMatrix type="matrix" values="0 0 0 0 1 0 0 0 0 1 0 0 0 0 1 0 0 0 0.33 0"/>
<feBlend mode="normal" in2="BackgroundImageFix" result="effect1_dropShadow_99_12944"/>
<feBlend mode="normal" in="SourceGraphic" in2="effect1_dropShadow_99_12944" result="shape"/>
</filter>
<filter id="filter10_d_99_12944" x="9" y="6" width="2" height="2" filterUnits="userSpaceOnUse" color-interpolation-filters="sRGB">
<feFlood flood-opacity="0" result="BackgroundImageFix"/>
<feColorMatrix in="SourceAlpha" type="matrix" values="0 0 0 0 0 0 0 0 0 0 0 0 0 0 0 0 0 0 127 0" result="hardAlpha"/>
<feOffset dy="1"/>
<feComposite in2="hardAlpha" operator="out"/>
<feColorMatrix type="matrix" values="0 0 0 0 1 0 0 0 0 1 0 0 0 0 1 0 0 0 0.33 0"/>
<feBlend mode="normal" in2="BackgroundImageFix" result="effect1_dropShadow_99_12944"/>
<feBlend mode="normal" in="SourceGraphic" in2="effect1_dropShadow_99_12944" result="shape"/>
</filter>
<linearGradient id="paint0_linear_99_12944" x1="1" y1="0" x2="13" y2="14" gradientUnits="userSpaceOnUse">
<stop stop-color="#A8A8A8"/>
<stop offset="1" stop-color="#818283" stop-opacity="0.972549"/>
</linearGradient>
<radialGradient id="paint1_radial_99_12944" cx="0" cy="0" r="1" gradientUnits="userSpaceOnUse" gradientTransform="translate(11 5) rotate(-180) scale(8 6.82502)">
<stop stop-color="#BFBFBF"/>
<stop offset="1" stop-color="#E6E6E6"/>
</radialGradient>
<linearGradient id="paint2_linear_99_12944" x1="3" y1="6.5" x2="5" y2="6.5" gradientUnits="userSpaceOnUse">
<stop stop-color="#ADADAD"/>
<stop offset="1" stop-color="#8E8E8E"/>
</linearGradient>
<linearGradient id="paint3_linear_99_12944" x1="6" y1="6.5" x2="8" y2="6.5" gradientUnits="userSpaceOnUse">
<stop stop-color="#ADADAD"/>
<stop offset="1" stop-color="#8E8E8E"/>
</linearGradient>
<linearGradient id="paint4_linear_99_12944" x1="3" y1="8.5" x2="5" y2="8.5" gradientUnits="userSpaceOnUse">
<stop stop-color="#ADADAD"/>
<stop offset="1" stop-color="#8E8E8E"/>
</linearGradient>
<linearGradient id="paint5_linear_99_12944" x1="6" y1="8.5" x2="8" y2="8.5" gradientUnits="userSpaceOnUse">
<stop stop-color="#ADADAD"/>
<stop offset="1" stop-color="#8E8E8E"/>
</linearGradient>
<linearGradient id="paint6_linear_99_12944" x1="9" y1="8.5" x2="11" y2="8.5" gradientUnits="userSpaceOnUse">
<stop stop-color="#ADADAD"/>
<stop offset="1" stop-color="#8E8E8E"/>
</linearGradient>
<linearGradient id="paint7_linear_99_12944" x1="9" y1="10.5" x2="11" y2="10.5" gradientUnits="userSpaceOnUse">
<stop stop-color="#ADADAD"/>
<stop offset="1" stop-color="#8E8E8E"/>
</linearGradient>
<linearGradient id="paint8_linear_99_12944" x1="6" y1="10.5" x2="8" y2="10.5" gradientUnits="userSpaceOnUse">
<stop stop-color="#ADADAD"/>
<stop offset="1" stop-color="#8E8E8E"/>
</linearGradient>
<linearGradient id="paint9_linear_99_12944" x1="3" y1="10.5" x2="5" y2="10.5" gradientUnits="userSpaceOnUse">
<stop stop-color="#ADADAD"/>
<stop offset="1" stop-color="#8E8E8E"/>
</linearGradient>
<linearGradient id="paint10_linear_99_12944" x1="9" y1="6.5" x2="11" y2="6.5" gradientUnits="userSpaceOnUse">
<stop stop-color="#E87473"/>
<stop offset="1" stop-color="#DB5852"/>
</linearGradient>
<linearGradient id="paint11_linear_99_12944" x1="5" y1="11" x2="8.5" y2="14.5" gradientUnits="userSpaceOnUse">
<stop stop-color="#D9D9D9"/>
<stop offset="1" stop-color="#737373"/>
</linearGradient>
<linearGradient id="paint12_linear_99_12944" x1="10" y1="16" x2="3" y2="9" gradientUnits="userSpaceOnUse">
<stop stop-color="#404040"/>
<stop offset="1" stop-color="#8D8D8D"/>
</linearGradient>
<linearGradient id="paint13_linear_99_12944" x1="11" y1="11" x2="14" y2="14" gradientUnits="userSpaceOnUse">
<stop stop-color="#D9D9D9"/>
<stop offset="1" stop-color="#737373"/>
</linearGradient>
<linearGradient id="paint14_linear_99_12944" x1="16" y1="16" x2="9" y2="9" gradientUnits="userSpaceOnUse">
<stop stop-color="#404040"/>
<stop offset="1" stop-color="#8D8D8D"/>
</linearGradient>
<linearGradient id="paint15_linear_99_12944" x1="7.71429" y1="12.1429" x2="7.98901" y2="13.5165" gradientUnits="userSpaceOnUse">
<stop stop-color="#D9D9D9"/>
<stop offset="1" stop-color="#737373"/>
</linearGradient>
<linearGradient id="paint16_linear_99_12944" x1="9.5" y1="14" x2="9.5" y2="11" gradientUnits="userSpaceOnUse">
<stop offset="0.33" stop-color="#515151"/>
<stop offset="0.66" stop-color="#8D8D8D"/>
</linearGradient>
<linearGradient id="paint17_linear_99_12944" x1="7" y1="12.5" x2="12" y2="12.5" gradientUnits="userSpaceOnUse">
<stop stop-color="#484848"/>
<stop offset="0.515" stop-color="#484848" stop-opacity="0"/>
<stop offset="1" stop-color="#484848"/>
</linearGradient>
</defs>
</svg>
