<svg width="16" height="16" viewBox="0 0 16 16" fill="none" xmlns="http://www.w3.org/2000/svg">
<g clip-path="url(#clip0_427_7426)">
<rect x="1.5" y="1.5" width="13" height="13" fill="url(#paint0_linear_427_7426)" stroke="url(#paint1_linear_427_7426)" stroke-linejoin="round"/>
<path d="M4 6H5V7H4V6Z" fill="white"/>
<path d="M6 6H7V7H6V6Z" fill="white"/>
<path d="M8 6H9V7H8V6Z" fill="white"/>
<path d="M10 6H11V7H10V6Z" fill="white"/>
<path d="M12 6H13V7H12V6Z" fill="white"/>
<path d="M12 8H13V9H12V8Z" fill="white"/>
<path d="M10 8H11V9H10V8Z" fill="white"/>
<path d="M8 8H9V9H8V8Z" fill="white"/>
<path d="M6 8H7V9H6V8Z" fill="white"/>
<path d="M4 8H5V9H4V8Z" fill="white"/>
<path d="M4 10H5V11H4V10Z" fill="white"/>
<path d="M4 12H5V13H4V12Z" fill="white"/>
<path d="M6 12H7V13H6V12Z" fill="white"/>
<path d="M6 10H7V11H6V10Z" fill="white"/>
<path d="M8 10H9V11H8V10Z" fill="white"/>
<path d="M8 12H9V13H8V12Z" fill="white"/>
<path d="M10 10H11V11H10V10Z" fill="white"/>
<path fill-rule="evenodd" clip-rule="evenodd" d="M10.5 12H10V12.5L10.5 12Z" fill="white"/>
<path fill-rule="evenodd" clip-rule="evenodd" d="M12.5 10H12V10.5L12.5 10Z" fill="white"/>
<path d="M14 10V14H10L14 10Z" fill="#F2F5FA"/>
<path d="M2.5 2.5H13.5V9.79289L11.6464 11.6464L9.79289 13.5H2.5V2.5Z" stroke="url(#paint2_linear_427_7426)"/>
<path d="M6 9.5C5.72386 9.5 5.5 9.72386 5.5 10V11C5.5 11.2761 5.72386 11.5 6 11.5H7C7.27614 11.5 7.5 11.2761 7.5 11V10C7.5 9.72386 7.27614 9.5 7 9.5H6ZM10 7.5C9.72386 7.5 9.5 7.72386 9.5 8V9C9.5 9.27614 9.72386 9.5 10 9.5H11C11.2761 9.5 11.5 9.27614 11.5 9V8C11.5 7.72386 11.2761 7.5 11 7.5H10Z" fill="#95D28E" stroke="url(#paint3_linear_427_7426)" stroke-linejoin="round"/>
<rect x="3.5" y="3.5" width="9" height="2" fill="url(#paint4_linear_427_7426)" stroke="url(#paint5_linear_427_7426)"/>
<circle cx="12.5" cy="12.5" r="3" fill="url(#paint6_radial_427_7426)" stroke="#BC4305"/>
<path fill-rule="evenodd" clip-rule="evenodd" d="M14 13H11V12H14V13Z" fill="white"/>
</g>
<defs>
<linearGradient id="paint0_linear_427_7426" x1="2.00754" y1="2" x2="13.9925" y2="14" gradientUnits="userSpaceOnUse">
<stop stop-color="#A9C4E8"/>
<stop offset="1" stop-color="#B5CDEA"/>
</linearGradient>
<linearGradient id="paint1_linear_427_7426" x1="2.07169" y1="2" x2="13.9283" y2="14" gradientUnits="userSpaceOnUse">
<stop stop-color="#9FC0ED"/>
<stop offset="1" stop-color="#5284C3"/>
</linearGradient>
<linearGradient id="paint2_linear_427_7426" x1="2" y1="2.03283" x2="14" y2="13.9672" gradientUnits="userSpaceOnUse">
<stop stop-color="#F4F7FB"/>
<stop offset="1" stop-color="#D8E2F0"/>
</linearGradient>
<linearGradient id="paint3_linear_427_7426" x1="8.5" y1="8" x2="8.5" y2="11" gradientUnits="userSpaceOnUse">
<stop stop-color="#71B06C"/>
<stop offset="1" stop-color="#7AB575"/>
</linearGradient>
<linearGradient id="paint4_linear_427_7426" x1="4" y1="4.5" x2="12" y2="4.5" gradientUnits="userSpaceOnUse">
<stop stop-color="#FFBD79"/>
<stop offset="1" stop-color="#FFA754"/>
</linearGradient>
<linearGradient id="paint5_linear_427_7426" x1="4.27435" y1="3.04413" x2="11.7256" y2="5.95587" gradientUnits="userSpaceOnUse">
<stop stop-color="#FFA465"/>
<stop offset="1" stop-color="#FF7D3B"/>
</linearGradient>
<radialGradient id="paint6_radial_427_7426" cx="0" cy="0" r="1" gradientUnits="userSpaceOnUse" gradientTransform="translate(11 11) rotate(45) scale(4.24264)">
<stop stop-color="#FFAF7D"/>
<stop offset="1" stop-color="#FF6D00"/>
</radialGradient>
<clipPath id="clip0_427_7426">
<rect width="16" height="16" fill="white"/>
</clipPath>
</defs>
</svg>
