<svg width="16" height="16" viewBox="0 0 16 16" fill="none" xmlns="http://www.w3.org/2000/svg">
<g clip-path="url(#clip0_427_7438)">
<rect x="1.5" y="1.5" width="13" height="13" fill="url(#paint0_linear_427_7438)" stroke="url(#paint1_linear_427_7438)" stroke-linejoin="round"/>
<path d="M4 6H5V7H4V6Z" fill="white"/>
<path d="M6 6H7V7H6V6Z" fill="white"/>
<path d="M8 6H9V7H8V6Z" fill="white"/>
<path d="M10 6H11V7H10V6Z" fill="white"/>
<path d="M12 6H13V7H12V6Z" fill="white"/>
<path d="M12 8H13V9H12V8Z" fill="white"/>
<path d="M10 8H11V9H10V8Z" fill="white"/>
<path d="M8 8H9V9H8V8Z" fill="white"/>
<path d="M6 8H7V9H6V8Z" fill="white"/>
<path d="M4 8H5V9H4V8Z" fill="white"/>
<path d="M4 10H5V11H4V10Z" fill="white"/>
<path d="M4 12H5V13H4V12Z" fill="white"/>
<path d="M6 12H7V13H6V12Z" fill="white"/>
<path d="M6 10H7V11H6V10Z" fill="white"/>
<path d="M8 10H9V11H8V10Z" fill="white"/>
<path d="M8 12H9V13H8V12Z" fill="white"/>
<path d="M10 10H11V11H10V10Z" fill="white"/>
<path fill-rule="evenodd" clip-rule="evenodd" d="M10.5 12H10V12.5L10.5 12Z" fill="white"/>
<path fill-rule="evenodd" clip-rule="evenodd" d="M12.5 10H12V10.5L12.5 10Z" fill="white"/>
<path d="M14 10V14H10L14 10Z" fill="#F2F5FA"/>
<path d="M2.5 2.5H13.5V9.79289L11.6464 11.6464L9.79289 13.5H2.5V2.5Z" stroke="url(#paint2_linear_427_7438)"/>
<path d="M6 9.5C5.72386 9.5 5.5 9.72386 5.5 10V11C5.5 11.2761 5.72386 11.5 6 11.5H7C7.27614 11.5 7.5 11.2761 7.5 11V10C7.5 9.72386 7.27614 9.5 7 9.5H6ZM10 7.5C9.72386 7.5 9.5 7.72386 9.5 8V9C9.5 9.27614 9.72386 9.5 10 9.5H11C11.2761 9.5 11.5 9.27614 11.5 9V8C11.5 7.72386 11.2761 7.5 11 7.5H10Z" fill="#95D28E" stroke="url(#paint3_linear_427_7438)" stroke-linejoin="round"/>
<rect x="3.5" y="3.5" width="9" height="2" fill="url(#paint4_linear_427_7438)" stroke="url(#paint5_linear_427_7438)"/>
<path d="M4.54043 14.803C4.45989 14.991 4.50188 15.209 4.64645 15.3536C4.79102 15.4981 5.00904 15.5401 5.19696 15.4596L8.69696 13.9596C8.84946 13.8942 8.9596 13.7575 8.99098 13.5946C9.02235 13.4316 8.97087 13.2638 8.85355 13.1464L6.85355 11.1464C6.73624 11.0291 6.56836 10.9776 6.40545 11.009C6.24253 11.0404 6.10578 11.1505 6.04043 11.303L4.54043 14.803Z" fill="url(#paint6_linear_427_7438)"/>
<path d="M4.54043 14.803C4.45989 14.991 4.50188 15.209 4.64645 15.3536C4.79102 15.4981 5.00904 15.5401 5.19696 15.4596L8.69696 13.9596C8.84946 13.8942 8.9596 13.7575 8.99098 13.5946C9.02235 13.4316 8.97087 13.2638 8.85355 13.1464L6.85355 11.1464C6.73624 11.0291 6.56836 10.9776 6.40545 11.009C6.24253 11.0404 6.10578 11.1505 6.04043 11.303L4.54043 14.803Z" fill="url(#paint7_linear_427_7438)"/>
<path d="M4.54043 14.803C4.45989 14.991 4.50188 15.209 4.64645 15.3536C4.79102 15.4981 5.00904 15.5401 5.19696 15.4596L8.69696 13.9596C8.84946 13.8942 8.9596 13.7575 8.99098 13.5946C9.02235 13.4316 8.97087 13.2638 8.85355 13.1464L6.85355 11.1464C6.73624 11.0291 6.56836 10.9776 6.40545 11.009C6.24253 11.0404 6.10578 11.1505 6.04043 11.303L4.54043 14.803Z" stroke="url(#paint8_linear_427_7438)" stroke-linejoin="round"/>
<path d="M4.54043 14.803C4.45989 14.991 4.50188 15.209 4.64645 15.3536C4.79102 15.4981 5.00904 15.5401 5.19696 15.4596L8.69696 13.9596C8.84946 13.8942 8.9596 13.7575 8.99098 13.5946C9.02235 13.4316 8.97087 13.2638 8.85355 13.1464L6.85355 11.1464C6.73624 11.0291 6.56836 10.9776 6.40545 11.009C6.24253 11.0404 6.10578 11.1505 6.04043 11.303L4.54043 14.803Z" stroke="url(#paint9_linear_427_7438)" stroke-linejoin="round"/>
<path d="M6.14645 11.1464C5.95118 11.3417 5.95118 11.6583 6.14645 11.8536L8.14645 13.8536C8.34171 14.0488 8.65829 14.0488 8.85355 13.8536L14.8536 7.85355C15.0488 7.65829 15.0488 7.34171 14.8536 7.14645L12.8536 5.14645C12.6583 4.95118 12.3417 4.95118 12.1464 5.14645L6.14645 11.1464Z" fill="url(#paint10_linear_427_7438)" stroke="url(#paint11_linear_427_7438)" stroke-linejoin="round"/>
<path fill-rule="evenodd" clip-rule="evenodd" d="M6.5 11.5L7.20711 12.2071L13.2071 6.20711L12.5 5.5L6.5 11.5Z" fill="#FCF4B3"/>
<path d="M14.1464 7.85356L14.5 8.20712L14.8536 7.85356C15.0768 7.63032 15.3397 7.23926 15.4185 6.75535C15.5023 6.24043 15.3688 5.66169 14.8536 5.14646C14.3383 4.63123 13.7596 4.49768 13.2447 4.58151C12.7607 4.66028 12.3697 4.92321 12.1464 5.14646L11.7929 5.50001L12.1464 5.85356L14.1464 7.85356Z" fill="url(#paint12_linear_427_7438)" stroke="url(#paint13_linear_427_7438)"/>
</g>
<defs>
<linearGradient id="paint0_linear_427_7438" x1="2.00754" y1="2" x2="13.9925" y2="14" gradientUnits="userSpaceOnUse">
<stop stop-color="#A9C4E8"/>
<stop offset="1" stop-color="#B5CDEA"/>
</linearGradient>
<linearGradient id="paint1_linear_427_7438" x1="2.07169" y1="2" x2="13.9283" y2="14" gradientUnits="userSpaceOnUse">
<stop stop-color="#9FC0ED"/>
<stop offset="1" stop-color="#5284C3"/>
</linearGradient>
<linearGradient id="paint2_linear_427_7438" x1="2" y1="2.03283" x2="14" y2="13.9672" gradientUnits="userSpaceOnUse">
<stop stop-color="#F4F7FB"/>
<stop offset="1" stop-color="#D8E2F0"/>
</linearGradient>
<linearGradient id="paint3_linear_427_7438" x1="8.5" y1="8" x2="8.5" y2="11" gradientUnits="userSpaceOnUse">
<stop stop-color="#71B06C"/>
<stop offset="1" stop-color="#7AB575"/>
</linearGradient>
<linearGradient id="paint4_linear_427_7438" x1="4" y1="4.5" x2="12" y2="4.5" gradientUnits="userSpaceOnUse">
<stop stop-color="#FFBD79"/>
<stop offset="1" stop-color="#FFA754"/>
</linearGradient>
<linearGradient id="paint5_linear_427_7438" x1="4.27435" y1="3.04413" x2="11.7256" y2="5.95587" gradientUnits="userSpaceOnUse">
<stop stop-color="#FFA465"/>
<stop offset="1" stop-color="#FF7D3B"/>
</linearGradient>
<linearGradient id="paint6_linear_427_7438" x1="6.16667" y1="11.8889" x2="8.11111" y2="13.8333" gradientUnits="userSpaceOnUse">
<stop stop-color="#FAE7D1"/>
<stop offset="1" stop-color="#E89840"/>
</linearGradient>
<linearGradient id="paint7_linear_427_7438" x1="6.94444" y1="12.6667" x2="3.83333" y2="15.7778" gradientUnits="userSpaceOnUse">
<stop stop-color="#584013" stop-opacity="0"/>
<stop offset="0.499937" stop-color="#584013" stop-opacity="0"/>
<stop offset="0.661921" stop-color="#584013"/>
</linearGradient>
<linearGradient id="paint8_linear_427_7438" x1="6.16667" y1="12.6667" x2="7.33333" y2="13.8333" gradientUnits="userSpaceOnUse">
<stop stop-color="#B98926"/>
<stop offset="1" stop-color="#AA6016"/>
</linearGradient>
<linearGradient id="paint9_linear_427_7438" x1="7.72222" y1="11.8889" x2="3.83333" y2="15.7778" gradientUnits="userSpaceOnUse">
<stop offset="0.5" stop-color="#B98926" stop-opacity="0"/>
<stop offset="0.656842" stop-color="#584013"/>
</linearGradient>
<linearGradient id="paint10_linear_427_7438" x1="6.5" y1="11.6579" x2="8.34211" y2="13.5" gradientUnits="userSpaceOnUse">
<stop stop-color="#F5DC60"/>
<stop offset="1" stop-color="#EFCB1A"/>
</linearGradient>
<linearGradient id="paint11_linear_427_7438" x1="6.5" y1="11.6579" x2="8.3421" y2="13.5" gradientUnits="userSpaceOnUse">
<stop stop-color="#E9C755"/>
<stop offset="1" stop-color="#D98F3B"/>
</linearGradient>
<linearGradient id="paint12_linear_427_7438" x1="12.4766" y1="6.30195" x2="14.8903" y2="6.69267" gradientUnits="userSpaceOnUse">
<stop stop-color="#FDD7D1"/>
<stop offset="1" stop-color="#FBACA1"/>
</linearGradient>
<linearGradient id="paint13_linear_427_7438" x1="12.5" y1="6.31509" x2="14.8693" y2="6.72938" gradientUnits="userSpaceOnUse">
<stop stop-color="#E1B3AD"/>
<stop offset="1" stop-color="#B17971"/>
</linearGradient>
<clipPath id="clip0_427_7438">
<rect width="16" height="16" fill="white"/>
</clipPath>
</defs>
</svg>
