<svg width="16" height="16" viewBox="0 0 16 16" fill="none" xmlns="http://www.w3.org/2000/svg">
<g clip-path="url(#clip0_256_4859)">
<rect x="12" y="2" width="3" height="2" rx="1" fill="url(#paint0_linear_256_4859)"/>
<path d="M15.5 4V3.5H15H10.5V3C10.5 2.17157 9.82843 1.5 9 1.5H3C1.61929 1.5 0.5 2.61929 0.5 4V12V12.5H1H15H15.5V12V4Z" fill="url(#paint1_linear_256_4859)" stroke="url(#paint2_linear_256_4859)" stroke-linejoin="round"/>
<rect x="6.5" y="1.5" width="3" height="2" fill="url(#paint3_linear_256_4859)" stroke="#7F7F7F" stroke-linejoin="round"/>
<circle cx="6" cy="8" r="4.5" fill="url(#paint4_linear_256_4859)" stroke="url(#paint5_linear_256_4859)"/>
<circle cx="6" cy="8" r="3" fill="url(#paint6_radial_256_4859)"/>
<path d="M12 4H15V12H12V4Z" fill="url(#paint7_linear_256_4859)"/>
<rect x="13" y="5" width="1" height="6" rx="0.5" fill="url(#paint8_linear_256_4859)"/>
<rect x="11" y="4" width="1" height="8" fill="url(#paint9_linear_256_4859)"/>
<g filter="url(#filter0_i_256_4859)">
<path d="M10 9H6V14H10V16H11L16 11.5L11 7H10V9Z" fill="#80B361"/>
</g>
<path d="M10 9.5C10.2761 9.5 10.5 9.27614 10.5 9V7.5H10.8081L15.2526 11.5L10.8081 15.5H10.5V14C10.5 13.7239 10.2761 13.5 10 13.5H6.5V9.5H10Z" stroke="url(#paint10_linear_256_4859)" stroke-linejoin="round"/>
<path d="M7.5 12.5V10.5H10C10.7149 10.5 11.2659 10.0257 11.4412 9.41686L13.7531 11.5L11.4413 13.5831C11.263 12.9643 10.6975 12.5 10.0049 12.5H7.5Z" stroke="white" stroke-opacity="0.2" stroke-linejoin="round"/>
</g>
<defs>
<filter id="filter0_i_256_4859" x="6" y="7" width="12" height="11" filterUnits="userSpaceOnUse" color-interpolation-filters="sRGB">
<feFlood flood-opacity="0" result="BackgroundImageFix"/>
<feBlend mode="normal" in="SourceGraphic" in2="BackgroundImageFix" result="shape"/>
<feColorMatrix in="SourceAlpha" type="matrix" values="0 0 0 0 0 0 0 0 0 0 0 0 0 0 0 0 0 0 127 0" result="hardAlpha"/>
<feOffset dx="2" dy="2"/>
<feGaussianBlur stdDeviation="1"/>
<feComposite in2="hardAlpha" operator="arithmetic" k2="-1" k3="1"/>
<feColorMatrix type="matrix" values="0 0 0 0 1 0 0 0 0 1 0 0 0 0 1 0 0 0 0.25 0"/>
<feBlend mode="normal" in2="shape" result="effect1_innerShadow_256_4859"/>
</filter>
<linearGradient id="paint0_linear_256_4859" x1="12" y1="3" x2="15" y2="3" gradientUnits="userSpaceOnUse">
<stop stop-color="#656565"/>
<stop offset="1" stop-color="#5D5D5D"/>
</linearGradient>
<linearGradient id="paint1_linear_256_4859" x1="5" y1="2" x2="8" y2="12" gradientUnits="userSpaceOnUse">
<stop stop-color="#D2D2D2"/>
<stop offset="1" stop-color="#646464"/>
</linearGradient>
<linearGradient id="paint2_linear_256_4859" x1="1" y1="2" x2="5.5" y2="12" gradientUnits="userSpaceOnUse">
<stop stop-color="#A8A8A8"/>
<stop offset="1" stop-color="#2F2F2F"/>
</linearGradient>
<linearGradient id="paint3_linear_256_4859" x1="7" y1="2.5" x2="9" y2="2.5" gradientUnits="userSpaceOnUse">
<stop stop-color="#F9E0A4"/>
<stop offset="1" stop-color="#F3BE41"/>
</linearGradient>
<linearGradient id="paint4_linear_256_4859" x1="2" y1="4" x2="10" y2="12" gradientUnits="userSpaceOnUse">
<stop offset="0.149192" stop-color="#DDDDDD"/>
<stop offset="0.858865" stop-color="#656565"/>
</linearGradient>
<linearGradient id="paint5_linear_256_4859" x1="2" y1="4" x2="10" y2="12" gradientUnits="userSpaceOnUse">
<stop stop-color="#AEAEAE"/>
<stop offset="1" stop-color="#2E2E2E"/>
</linearGradient>
<radialGradient id="paint6_radial_256_4859" cx="0" cy="0" r="1" gradientUnits="userSpaceOnUse" gradientTransform="translate(6 8) rotate(90) scale(3)">
<stop offset="0.498587" stop-color="#6AA0D9"/>
<stop offset="1" stop-color="#5C96D5"/>
</radialGradient>
<linearGradient id="paint7_linear_256_4859" x1="12" y1="4" x2="16.4878" y2="4.94665" gradientUnits="userSpaceOnUse">
<stop stop-color="#989898"/>
<stop offset="1" stop-color="#5A5A5A"/>
</linearGradient>
<linearGradient id="paint8_linear_256_4859" x1="13.5" y1="5" x2="13.5" y2="11" gradientUnits="userSpaceOnUse">
<stop stop-color="#686868"/>
<stop offset="1" stop-color="#424242"/>
</linearGradient>
<linearGradient id="paint9_linear_256_4859" x1="11.5" y1="4" x2="11.5" y2="12" gradientUnits="userSpaceOnUse">
<stop stop-color="#B4B4B4"/>
<stop offset="1" stop-color="#909090"/>
</linearGradient>
<linearGradient id="paint10_linear_256_4859" x1="14.5714" y1="14.7143" x2="8.17837" y2="7.61089" gradientUnits="userSpaceOnUse">
<stop stop-color="#247C10"/>
<stop offset="1" stop-color="#6FA53D"/>
</linearGradient>
<clipPath id="clip0_256_4859">
<rect width="16" height="16" fill="white"/>
</clipPath>
</defs>
</svg>
