<svg width="16" height="16" viewBox="0 0 16 16" fill="none" xmlns="http://www.w3.org/2000/svg">
<rect x="12" y="3" width="3" height="2" rx="1" fill="url(#paint0_linear_256_4831)"/>
<path d="M15.5 5V4.5H15H10.5V4C10.5 3.17157 9.82843 2.5 9 2.5H3C1.61929 2.5 0.5 3.61929 0.5 5V13V13.5H1H15H15.5V13V5Z" fill="url(#paint1_linear_256_4831)" stroke="url(#paint2_linear_256_4831)" stroke-linejoin="round"/>
<rect x="6.5" y="2.5" width="3" height="2" fill="url(#paint3_linear_256_4831)" stroke="#7F7F7F" stroke-linejoin="round"/>
<circle cx="6" cy="9" r="4.5" fill="url(#paint4_linear_256_4831)" stroke="url(#paint5_linear_256_4831)"/>
<circle cx="6" cy="9" r="3" fill="url(#paint6_radial_256_4831)"/>
<path d="M12 5H15V13H12V5Z" fill="url(#paint7_linear_256_4831)"/>
<rect x="13" y="6" width="1" height="6" rx="0.5" fill="url(#paint8_linear_256_4831)"/>
<rect x="11" y="5" width="1" height="8" fill="url(#paint9_linear_256_4831)"/>
<defs>
<linearGradient id="paint0_linear_256_4831" x1="12" y1="4" x2="15" y2="4" gradientUnits="userSpaceOnUse">
<stop stop-color="#656565"/>
<stop offset="1" stop-color="#5D5D5D"/>
</linearGradient>
<linearGradient id="paint1_linear_256_4831" x1="5" y1="3" x2="8" y2="13" gradientUnits="userSpaceOnUse">
<stop stop-color="#D2D2D2"/>
<stop offset="1" stop-color="#646464"/>
</linearGradient>
<linearGradient id="paint2_linear_256_4831" x1="1" y1="3" x2="5.5" y2="13" gradientUnits="userSpaceOnUse">
<stop stop-color="#A8A8A8"/>
<stop offset="1" stop-color="#2F2F2F"/>
</linearGradient>
<linearGradient id="paint3_linear_256_4831" x1="7" y1="3.5" x2="9" y2="3.5" gradientUnits="userSpaceOnUse">
<stop stop-color="#F9E0A4"/>
<stop offset="1" stop-color="#F3BE41"/>
</linearGradient>
<linearGradient id="paint4_linear_256_4831" x1="2" y1="5" x2="10" y2="13" gradientUnits="userSpaceOnUse">
<stop offset="0.149192" stop-color="#DDDDDD"/>
<stop offset="0.858865" stop-color="#656565"/>
</linearGradient>
<linearGradient id="paint5_linear_256_4831" x1="2" y1="5" x2="10" y2="13" gradientUnits="userSpaceOnUse">
<stop stop-color="#AEAEAE"/>
<stop offset="1" stop-color="#2E2E2E"/>
</linearGradient>
<radialGradient id="paint6_radial_256_4831" cx="0" cy="0" r="1" gradientUnits="userSpaceOnUse" gradientTransform="translate(6 9) rotate(90) scale(3)">
<stop offset="0.498587" stop-color="#6AA0D9"/>
<stop offset="1" stop-color="#5C96D5"/>
</radialGradient>
<linearGradient id="paint7_linear_256_4831" x1="12" y1="5" x2="16.4878" y2="5.94665" gradientUnits="userSpaceOnUse">
<stop stop-color="#989898"/>
<stop offset="1" stop-color="#5A5A5A"/>
</linearGradient>
<linearGradient id="paint8_linear_256_4831" x1="13.5" y1="6" x2="13.5" y2="12" gradientUnits="userSpaceOnUse">
<stop stop-color="#686868"/>
<stop offset="1" stop-color="#424242"/>
</linearGradient>
<linearGradient id="paint9_linear_256_4831" x1="11.5" y1="5" x2="11.5" y2="13" gradientUnits="userSpaceOnUse">
<stop stop-color="#B4B4B4"/>
<stop offset="1" stop-color="#909090"/>
</linearGradient>
</defs>
</svg>
