<svg width="16" height="16" viewBox="0 0 16 16" fill="none" xmlns="http://www.w3.org/2000/svg">
<circle cx="12" cy="5" r="1" fill="url(#paint0_linear_256_4818)"/>
<path d="M9.5 5V5.5H10H13C13.2761 5.5 13.5 5.72386 13.5 6V12C13.5 12.2761 13.2761 12.5 13 12.5H3C2.72386 12.5 2.5 12.2761 2.5 12V5C2.5 4.72386 2.72386 4.5 3 4.5H9C9.27614 4.5 9.5 4.72386 9.5 5Z" fill="url(#paint1_linear_256_4818)" stroke="url(#paint2_linear_256_4818)"/>
<circle cx="9" cy="6" r="1" fill="url(#paint3_linear_256_4818)"/>
<circle cx="6" cy="9" r="3.5" fill="url(#paint4_linear_256_4818)" stroke="url(#paint5_linear_256_4818)"/>
<circle cx="6" cy="9" r="2" fill="#2588E4"/>
<circle cx="6" cy="9" r="2" fill="#2588E4"/>
<circle cx="6" cy="9" r="2" fill="#2588E4"/>
<path d="M11 6H13V12H11V6Z" fill="url(#paint6_linear_256_4818)"/>
<rect x="11" y="7" width="1" height="4" rx="0.5" fill="url(#paint7_linear_256_4818)"/>
<defs>
<linearGradient id="paint0_linear_256_4818" x1="13" y1="5" x2="11" y2="5" gradientUnits="userSpaceOnUse">
<stop stop-color="#646464"/>
<stop offset="1" stop-color="#6C6C6C"/>
</linearGradient>
<linearGradient id="paint1_linear_256_4818" x1="2" y1="4" x2="14" y2="13" gradientUnits="userSpaceOnUse">
<stop stop-color="#C8C8C8"/>
<stop offset="1" stop-color="#5E5E5E"/>
</linearGradient>
<linearGradient id="paint2_linear_256_4818" x1="2.5" y1="4" x2="13.5" y2="13" gradientUnits="userSpaceOnUse">
<stop stop-color="#7B7B7B"/>
<stop offset="1" stop-color="#2A2A2A"/>
</linearGradient>
<linearGradient id="paint3_linear_256_4818" x1="8" y1="6" x2="10" y2="6" gradientUnits="userSpaceOnUse">
<stop stop-color="#F9E0A4"/>
<stop offset="1" stop-color="#F3BE41"/>
</linearGradient>
<linearGradient id="paint4_linear_256_4818" x1="2" y1="5" x2="10" y2="13" gradientUnits="userSpaceOnUse">
<stop stop-color="#D7D7D7"/>
<stop offset="1" stop-color="#656565"/>
</linearGradient>
<linearGradient id="paint5_linear_256_4818" x1="2" y1="5" x2="10" y2="13" gradientUnits="userSpaceOnUse">
<stop stop-color="#999999"/>
<stop offset="1" stop-color="#323232"/>
</linearGradient>
<linearGradient id="paint6_linear_256_4818" x1="11" y1="6" x2="14.0189" y2="6.56604" gradientUnits="userSpaceOnUse">
<stop stop-color="#797979"/>
<stop offset="1" stop-color="#5E5E5E"/>
</linearGradient>
<linearGradient id="paint7_linear_256_4818" x1="11.5" y1="7" x2="11.5" y2="11" gradientUnits="userSpaceOnUse">
<stop stop-color="#5F5F5F"/>
<stop offset="1" stop-color="#464646"/>
</linearGradient>
</defs>
</svg>
