<svg width="16" height="16" viewBox="0 0 16 16" fill="none" xmlns="http://www.w3.org/2000/svg">
<path d="M1 4.5H13.5M2 6.5H13M3 8.5H13" stroke="url(#paint0_linear_474_8012)" stroke-opacity="0.8" stroke-linecap="round" stroke-linejoin="round"/>
<path d="M4.5 4.5V9.5M6.5 4.5V9.5M8.5 4.5V9.5M10.5 4.5V9.5M2.5 4.5V7.5M12.5 4.5V9.5" stroke="url(#paint1_linear_474_8012)" stroke-opacity="0.8" stroke-linecap="round" stroke-linejoin="round"/>
<path d="M13.5 4.5V11.5M13.5 11.5V12.5C13.5 13.0523 13.0523 13.5 12.5 13.5H10M13.5 11.5C13.5 10.33 12.66 9.5 11.5 9.5C10.4906 9.5 5.71411 9.5 4.06304 9.5C3.71178 9.5 3.38942 9.3157 3.2087 9.0145L0.785014 4.97502C0.598516 4.66419 0.5 4.30852 0.5 3.94603V3.5M10 13.5H3H1.5C1.5 12.8333 1.5 11.5 3 11.5C3.8 11.5 8.83333 11.5 11.5 11.5C11.5 12.1667 11.5 13.5 10 13.5Z" stroke="url(#paint2_linear_474_8012)" stroke-linecap="round" stroke-linejoin="round"/>
<circle cx="4.5" cy="13.5" r="1" fill="#D9D9D9" stroke="#656565"/>
<circle cx="11.5" cy="13.5" r="1" fill="#D9D9D9" stroke="#656565"/>
<path d="M0.5 4C0.5 4.27614 0.723858 4.5 1 4.5H1.5H12.5C13.0523 4.5 13.5 4.05228 13.5 3.5C13.5 2.94772 13.0523 2.5 12.5 2.5H1.5C0.947715 2.5 0.5 2.94772 0.5 3.5V4Z" fill="url(#paint3_linear_474_8012)" stroke="url(#paint4_linear_474_8012)" stroke-linecap="round" stroke-linejoin="round"/>
<path d="M11.8083 2.77743C11.812 2.77379 11.8157 2.77013 11.8193 2.76646C12.3306 2.25499 13.0853 1.5 14.5 1.5C15.0523 1.5 15.5 1.94772 15.5 2.5C15.5 3.05228 15.0523 3.5 14.5 3.5C14.197 3.5 13.9987 3.56686 13.8272 3.66985C13.6364 3.78447 13.4621 3.95215 13.2071 4.20711C12.8166 4.59763 12.1834 4.59763 11.7929 4.20711C11.4024 3.81658 11.4024 3.18342 11.7929 2.79289L11.7929 2.79289M11.8083 2.77743L11.7929 2.79289M11.8083 2.77743C11.8083 2.77743 11.8083 2.77744 11.8083 2.77744M11.8083 2.77743L11.8083 2.77744M11.7929 2.79289L11.8083 2.77744M11.7929 2.79289L11.8083 2.77744" fill="url(#paint5_linear_474_8012)" stroke="url(#paint6_linear_474_8012)" stroke-linecap="round" stroke-linejoin="round"/>
<path d="M14.5 3.5C14 3.5 13.5 4 13.5 4.5V5.5" stroke="url(#paint7_linear_474_8012)" stroke-linecap="round" stroke-linejoin="round"/>
<path d="M4.54043 14.803C4.45989 14.991 4.50188 15.209 4.64645 15.3536C4.79102 15.4981 5.00904 15.5401 5.19696 15.4596L8.69696 13.9596C8.84946 13.8942 8.9596 13.7575 8.99098 13.5946C9.02235 13.4316 8.97087 13.2638 8.85355 13.1464L6.85355 11.1464C6.73624 11.0291 6.56836 10.9776 6.40545 11.009C6.24253 11.0404 6.10578 11.1505 6.04043 11.303L4.54043 14.803Z" fill="url(#paint8_linear_474_8012)"/>
<path d="M4.54043 14.803C4.45989 14.991 4.50188 15.209 4.64645 15.3536C4.79102 15.4981 5.00904 15.5401 5.19696 15.4596L8.69696 13.9596C8.84946 13.8942 8.9596 13.7575 8.99098 13.5946C9.02235 13.4316 8.97087 13.2638 8.85355 13.1464L6.85355 11.1464C6.73624 11.0291 6.56836 10.9776 6.40545 11.009C6.24253 11.0404 6.10578 11.1505 6.04043 11.303L4.54043 14.803Z" fill="url(#paint9_linear_474_8012)"/>
<path d="M4.54043 14.803C4.45989 14.991 4.50188 15.209 4.64645 15.3536C4.79102 15.4981 5.00904 15.5401 5.19696 15.4596L8.69696 13.9596C8.84946 13.8942 8.9596 13.7575 8.99098 13.5946C9.02235 13.4316 8.97087 13.2638 8.85355 13.1464L6.85355 11.1464C6.73624 11.0291 6.56836 10.9776 6.40545 11.009C6.24253 11.0404 6.10578 11.1505 6.04043 11.303L4.54043 14.803Z" stroke="url(#paint10_linear_474_8012)" stroke-linejoin="round"/>
<path d="M4.54043 14.803C4.45989 14.991 4.50188 15.209 4.64645 15.3536C4.79102 15.4981 5.00904 15.5401 5.19696 15.4596L8.69696 13.9596C8.84946 13.8942 8.9596 13.7575 8.99098 13.5946C9.02235 13.4316 8.97087 13.2638 8.85355 13.1464L6.85355 11.1464C6.73624 11.0291 6.56836 10.9776 6.40545 11.009C6.24253 11.0404 6.10578 11.1505 6.04043 11.303L4.54043 14.803Z" stroke="url(#paint11_linear_474_8012)" stroke-linejoin="round"/>
<path d="M6.14645 11.1464C5.95118 11.3417 5.95118 11.6583 6.14645 11.8536L8.14645 13.8536C8.34171 14.0488 8.65829 14.0488 8.85355 13.8536L14.8536 7.85355C15.0488 7.65829 15.0488 7.34171 14.8536 7.14645L12.8536 5.14645C12.6583 4.95118 12.3417 4.95118 12.1464 5.14645L6.14645 11.1464Z" fill="url(#paint12_linear_474_8012)" stroke="url(#paint13_linear_474_8012)" stroke-linejoin="round"/>
<path fill-rule="evenodd" clip-rule="evenodd" d="M6.5 11.5L7.20711 12.2071L13.2071 6.20711L12.5 5.5L6.5 11.5Z" fill="#FCF4B3"/>
<path d="M14.1464 7.85356L14.5 8.20712L14.8536 7.85356C15.0768 7.63032 15.3397 7.23926 15.4185 6.75535C15.5023 6.24043 15.3688 5.66169 14.8536 5.14646C14.3383 4.63123 13.7596 4.49768 13.2447 4.58151C12.7607 4.66028 12.3697 4.92321 12.1464 5.14646L11.7929 5.50001L12.1464 5.85356L14.1464 7.85356Z" fill="url(#paint14_linear_474_8012)" stroke="url(#paint15_linear_474_8012)"/>
<defs>
<linearGradient id="paint0_linear_474_8012" x1="0.5" y1="4.5" x2="13" y2="7" gradientUnits="userSpaceOnUse">
<stop stop-color="#D8D8D8"/>
<stop offset="1" stop-color="#CCCCCC"/>
</linearGradient>
<linearGradient id="paint1_linear_474_8012" x1="2.1" y1="4.5" x2="12.3611" y2="5.69401" gradientUnits="userSpaceOnUse">
<stop stop-color="#D8D8D8"/>
<stop offset="1" stop-color="#CCCCCC"/>
</linearGradient>
<linearGradient id="paint2_linear_474_8012" x1="0.5" y1="4.5" x2="13.5" y2="14" gradientUnits="userSpaceOnUse">
<stop stop-color="#C2C2C2"/>
<stop offset="1" stop-color="#626262"/>
</linearGradient>
<linearGradient id="paint3_linear_474_8012" x1="0.999972" y1="3.5248" x2="10.5835" y2="3.5248" gradientUnits="userSpaceOnUse">
<stop stop-color="#FCFCFC"/>
<stop offset="1" stop-color="#FBFBFB"/>
</linearGradient>
<linearGradient id="paint4_linear_474_8012" x1="2.08577e-07" y1="3.5" x2="12" y2="3.5" gradientUnits="userSpaceOnUse">
<stop stop-color="#C3C3C3"/>
<stop offset="1" stop-color="#BABABA"/>
</linearGradient>
<linearGradient id="paint5_linear_474_8012" x1="12" y1="3" x2="15" y2="3" gradientUnits="userSpaceOnUse">
<stop stop-color="#FCFCFC"/>
<stop offset="1" stop-color="#FBFBFB"/>
</linearGradient>
<linearGradient id="paint6_linear_474_8012" x1="12" y1="3" x2="15" y2="3" gradientUnits="userSpaceOnUse">
<stop stop-color="#B9B9B9"/>
<stop offset="1" stop-color="#9A9A9A"/>
</linearGradient>
<linearGradient id="paint7_linear_474_8012" x1="13" y1="5" x2="15" y2="5" gradientUnits="userSpaceOnUse">
<stop stop-color="#818181"/>
<stop offset="0.505742" stop-color="#7D7D7D"/>
<stop offset="0.839652" stop-color="#9B9B9B"/>
</linearGradient>
<linearGradient id="paint8_linear_474_8012" x1="6.16667" y1="11.8889" x2="8.11111" y2="13.8333" gradientUnits="userSpaceOnUse">
<stop stop-color="#FAE7D1"/>
<stop offset="1" stop-color="#E89840"/>
</linearGradient>
<linearGradient id="paint9_linear_474_8012" x1="6.94444" y1="12.6667" x2="3.83333" y2="15.7778" gradientUnits="userSpaceOnUse">
<stop stop-color="#584013" stop-opacity="0"/>
<stop offset="0.499937" stop-color="#584013" stop-opacity="0"/>
<stop offset="0.661921" stop-color="#584013"/>
</linearGradient>
<linearGradient id="paint10_linear_474_8012" x1="6.16667" y1="12.6667" x2="7.33333" y2="13.8333" gradientUnits="userSpaceOnUse">
<stop stop-color="#B98926"/>
<stop offset="1" stop-color="#AA6016"/>
</linearGradient>
<linearGradient id="paint11_linear_474_8012" x1="7.72222" y1="11.8889" x2="3.83333" y2="15.7778" gradientUnits="userSpaceOnUse">
<stop offset="0.5" stop-color="#B98926" stop-opacity="0"/>
<stop offset="0.656842" stop-color="#584013"/>
</linearGradient>
<linearGradient id="paint12_linear_474_8012" x1="6.5" y1="11.6579" x2="8.34211" y2="13.5" gradientUnits="userSpaceOnUse">
<stop stop-color="#F5DC60"/>
<stop offset="1" stop-color="#EFCB1A"/>
</linearGradient>
<linearGradient id="paint13_linear_474_8012" x1="6.5" y1="11.6579" x2="8.3421" y2="13.5" gradientUnits="userSpaceOnUse">
<stop stop-color="#E9C755"/>
<stop offset="1" stop-color="#D98F3B"/>
</linearGradient>
<linearGradient id="paint14_linear_474_8012" x1="12.4766" y1="6.30195" x2="14.8903" y2="6.69267" gradientUnits="userSpaceOnUse">
<stop stop-color="#FDD7D1"/>
<stop offset="1" stop-color="#FBACA1"/>
</linearGradient>
<linearGradient id="paint15_linear_474_8012" x1="12.5" y1="6.31509" x2="14.8693" y2="6.72938" gradientUnits="userSpaceOnUse">
<stop stop-color="#E1B3AD"/>
<stop offset="1" stop-color="#B17971"/>
</linearGradient>
</defs>
</svg>
