<svg width="16" height="16" viewBox="0 0 16 16" fill="none" xmlns="http://www.w3.org/2000/svg">
<g clip-path="url(#clip0_256_5324)">
<mask id="path-1-outside-1_256_5324" maskUnits="userSpaceOnUse" x="8" y="1" width="7" height="12" fill="black">
<rect fill="white" x="8" y="1" width="7" height="12"/>
<path d="M9 12C10.1068 12 11.1823 11.6328 12.0579 10.9559C12.9336 10.279 13.5599 9.33071 13.8387 8.25963C14.1176 7.18855 14.0331 6.05523 13.5987 5.03729C13.1642 4.01935 12.4043 3.17433 11.438 2.63467L9 7V12Z"/>
</mask>
<path d="M9 12C10.1068 12 11.1823 11.6328 12.0579 10.9559C12.9336 10.279 13.5599 9.33071 13.8387 8.25963C14.1176 7.18855 14.0331 6.05523 13.5987 5.03729C13.1642 4.01935 12.4043 3.17433 11.438 2.63467L9 7V12Z" fill="url(#paint0_linear_256_5324)"/>
<path d="M9 12C10.1068 12 11.1823 11.6328 12.0579 10.9559C12.9336 10.279 13.5599 9.33071 13.8387 8.25963C14.1176 7.18855 14.0331 6.05523 13.5987 5.03729C13.1642 4.01935 12.4043 3.17433 11.438 2.63467L9 7V12Z" stroke="url(#paint1_linear_256_5324)" stroke-width="2" mask="url(#path-1-outside-1_256_5324)"/>
<mask id="path-2-inside-2_256_5324" fill="white">
<path d="M9 12C10.1068 12 11.1823 11.6328 12.0579 10.9559C12.9336 10.279 13.5599 9.33071 13.8387 8.25963C14.1176 7.18855 14.0331 6.05523 13.5987 5.03729C13.1642 4.01935 12.4043 3.17433 11.438 2.63467L9 7V12Z"/>
</mask>
<path d="M9 12C10.1068 12 11.1823 11.6328 12.0579 10.9559C12.9336 10.279 13.5599 9.33071 13.8387 8.25963C14.1176 7.18855 14.0331 6.05523 13.5987 5.03729C13.1642 4.01935 12.4043 3.17433 11.438 2.63467L9 7V12Z" stroke="white" stroke-opacity="0.33" stroke-width="2" style="mix-blend-mode:overlay" mask="url(#path-2-inside-2_256_5324)"/>
<mask id="path-3-outside-3_256_5324" maskUnits="userSpaceOnUse" x="0" y="7" width="7" height="8" fill="black">
<rect fill="white" y="7" width="7" height="8"/>
<path d="M6 14C5.07462 14 4.1674 13.7432 3.37931 13.2582C2.59123 12.7731 1.95321 12.0789 1.53627 11.2528L6 9V14Z"/>
</mask>
<path d="M6 14C5.07462 14 4.1674 13.7432 3.37931 13.2582C2.59123 12.7731 1.95321 12.0789 1.53627 11.2528L6 9V14Z" fill="#FF463B"/>
<path d="M6 14C5.07462 14 4.1674 13.7432 3.37931 13.2582C2.59123 12.7731 1.95321 12.0789 1.53627 11.2528L6 9V14Z" stroke="url(#paint2_linear_256_5324)" stroke-width="2" mask="url(#path-3-outside-3_256_5324)"/>
<mask id="path-4-inside-4_256_5324" fill="white">
<path d="M6 14C5.07462 14 4.1674 13.7432 3.37931 13.2582C2.59123 12.7731 1.95321 12.0789 1.53627 11.2528L6 9V14Z"/>
</mask>
<path d="M6 14C5.07462 14 4.1674 13.7432 3.37931 13.2582C2.59123 12.7731 1.95321 12.0789 1.53627 11.2528L6 9V14Z" stroke="white" stroke-width="2" style="mix-blend-mode:overlay" mask="url(#path-4-inside-4_256_5324)"/>
<mask id="path-5-outside-5_256_5324" maskUnits="userSpaceOnUse" x="0" y="0" width="10" height="10" fill="black">
<rect fill="white" width="10" height="10"/>
<path d="M1.52009 8.22044C1.04638 7.26471 0.890742 6.18252 1.07591 5.13203C1.26108 4.08153 1.77736 3.11779 2.5493 2.38162C3.32123 1.64546 4.30837 1.17546 5.36646 1.0403C6.42455 0.905142 7.49814 1.11191 8.43034 1.6304L6 6L1.52009 8.22044Z"/>
</mask>
<path d="M1.52009 8.22044C1.04638 7.26471 0.890742 6.18252 1.07591 5.13203C1.26108 4.08153 1.77736 3.11779 2.5493 2.38162C3.32123 1.64546 4.30837 1.17546 5.36646 1.0403C6.42455 0.905142 7.49814 1.11191 8.43034 1.6304L6 6L1.52009 8.22044Z" fill="#58C666"/>
<path d="M1.52009 8.22044C1.04638 7.26471 0.890742 6.18252 1.07591 5.13203C1.26108 4.08153 1.77736 3.11779 2.5493 2.38162C3.32123 1.64546 4.30837 1.17546 5.36646 1.0403C6.42455 0.905142 7.49814 1.11191 8.43034 1.6304L6 6L1.52009 8.22044Z" stroke="url(#paint3_linear_256_5324)" stroke-width="2" mask="url(#path-5-outside-5_256_5324)"/>
<mask id="path-6-inside-6_256_5324" fill="white">
<path d="M1.52009 8.22044C1.04638 7.26471 0.890742 6.18252 1.07591 5.13203C1.26108 4.08153 1.77736 3.11779 2.5493 2.38162C3.32123 1.64546 4.30837 1.17546 5.36646 1.0403C6.42455 0.905142 7.49814 1.11191 8.43034 1.6304L6 6L1.52009 8.22044Z"/>
</mask>
<path d="M1.52009 8.22044C1.04638 7.26471 0.890742 6.18252 1.07591 5.13203C1.26108 4.08153 1.77736 3.11779 2.5493 2.38162C3.32123 1.64546 4.30837 1.17546 5.36646 1.0403C6.42455 0.905142 7.49814 1.11191 8.43034 1.6304L6 6L1.52009 8.22044Z" stroke="white" stroke-opacity="0.66" stroke-width="2" mask="url(#path-6-inside-6_256_5324)"/>
<circle cx="12.5" cy="12.5" r="3" fill="url(#paint4_radial_256_5324)" stroke="url(#paint5_linear_256_5324)"/>
<path fill-rule="evenodd" clip-rule="evenodd" d="M12 12V11H13V12H14V13H13V14H12V13H11V12H12Z" fill="white"/>
</g>
<defs>
<linearGradient id="paint0_linear_256_5324" x1="9" y1="2" x2="9" y2="12" gradientUnits="userSpaceOnUse">
<stop stop-color="#8DB9EB"/>
<stop offset="1" stop-color="#4C79D9"/>
</linearGradient>
<linearGradient id="paint1_linear_256_5324" x1="9" y1="2" x2="14" y2="12" gradientUnits="userSpaceOnUse">
<stop stop-color="#73A5E1"/>
<stop offset="0.894803" stop-color="#274E95"/>
</linearGradient>
<linearGradient id="paint2_linear_256_5324" x1="3" y1="9" x2="7" y2="15" gradientUnits="userSpaceOnUse">
<stop stop-color="#F96666"/>
<stop offset="1" stop-color="#E8151D"/>
</linearGradient>
<linearGradient id="paint3_linear_256_5324" x1="2.5" y1="2.5" x2="6" y2="6" gradientUnits="userSpaceOnUse">
<stop stop-color="#88CC7B"/>
<stop offset="1" stop-color="#2E7D28"/>
</linearGradient>
<radialGradient id="paint4_radial_256_5324" cx="0" cy="0" r="1" gradientUnits="userSpaceOnUse" gradientTransform="translate(10 10) rotate(45) scale(5.65685)">
<stop stop-color="#B4D495"/>
<stop offset="1" stop-color="#87B960"/>
</radialGradient>
<linearGradient id="paint5_linear_256_5324" x1="15" y1="15" x2="10" y2="10" gradientUnits="userSpaceOnUse">
<stop stop-color="#376B19"/>
<stop offset="1" stop-color="#5A9438"/>
</linearGradient>
<clipPath id="clip0_256_5324">
<rect width="16" height="16" fill="white"/>
</clipPath>
</defs>
</svg>
