<svg width="16" height="16" viewBox="0 0 16 16" fill="none" xmlns="http://www.w3.org/2000/svg">
<g clip-path="url(#clip0_202_5855)">
<path fill-rule="evenodd" clip-rule="evenodd" d="M16 2.5C16 3.32843 15.3284 4 14.5 4C14.3437 4 14.1929 3.97608 14.0512 3.93171L9.74863 9.66849C9.90743 9.90648 10 10.1924 10 10.5C10 11.3284 9.32843 12 8.5 12C7.67157 12 7 11.3284 7 10.5C7 10.4672 7.00105 10.4347 7.00312 10.4025L2.60292 8.51666C2.32883 8.81385 1.93615 9 1.5 9C0.671573 9 0 8.32843 0 7.5C0 6.67157 0.671573 6 1.5 6C2.32843 6 3 6.67157 3 7.5C3 7.53277 2.99895 7.56529 2.99688 7.59754L7.39708 9.48334C7.67117 9.18615 8.06385 9 8.5 9C8.65633 9 8.80708 9.02392 8.94878 9.06829L13.2514 3.33151C13.0926 3.09352 13 2.80757 13 2.5C13 1.67157 13.6716 1 14.5 1C15.3284 1 16 1.67157 16 2.5ZM1.5 8C1.77614 8 2 7.77614 2 7.5C2 7.22386 1.77614 7 1.5 7C1.22386 7 1 7.22386 1 7.5C1 7.77614 1.22386 8 1.5 8ZM9 10.5C9 10.7761 8.77614 11 8.5 11C8.22386 11 8 10.7761 8 10.5C8 10.2239 8.22386 10 8.5 10C8.77614 10 9 10.2239 9 10.5ZM14.5 3C14.7761 3 15 2.77614 15 2.5C15 2.22386 14.7761 2 14.5 2C14.2239 2 14 2.22386 14 2.5C14 2.77614 14.2239 3 14.5 3Z" fill="url(#paint0_linear_202_5855)"/>
<path fill-rule="evenodd" clip-rule="evenodd" d="M7.10053 7.04102C7.03561 6.87318 7 6.69075 7 6.5C7 5.67157 7.67157 5 8.5 5C9.23953 5 9.85406 5.53517 9.97744 6.23936L13.1869 6.77427C13.4427 6.31257 13.9348 6 14.5 6C15.3284 6 16 6.67157 16 7.5C16 8.32843 15.3284 9 14.5 9C13.7605 9 13.146 8.46484 13.0226 7.76067L9.81305 7.22575C9.55732 7.68744 9.06516 8 8.5 8C8.22738 8 7.97175 7.92727 7.75145 7.80017L2.89948 11.959C2.9644 12.1268 3 12.3093 3 12.5C3 13.3284 2.32843 14 1.5 14C0.671573 14 0 13.3284 0 12.5C0 11.6716 0.671573 11 1.5 11C1.77262 11 2.02826 11.0727 2.24857 11.1998L7.10053 7.04102ZM1.5 13C1.77614 13 2 12.7761 2 12.5C2 12.2239 1.77614 12 1.5 12C1.22386 12 1 12.2239 1 12.5C1 12.7761 1.22386 13 1.5 13ZM9 6.5C9 6.77614 8.77614 7 8.5 7C8.22386 7 8 6.77614 8 6.5C8 6.22385 8.22386 6 8.5 6C8.77614 6 9 6.22385 9 6.5ZM14.5 8C14.7761 8 15 7.77614 15 7.5C15 7.22386 14.7761 7 14.5 7C14.2239 7 14 7.22386 14 7.5C14 7.77614 14.2239 8 14.5 8Z" fill="url(#paint1_linear_202_5855)"/>
<path d="M4.54043 14.803C4.45989 14.991 4.50188 15.209 4.64645 15.3536C4.79102 15.4981 5.00904 15.5401 5.19696 15.4596L8.69696 13.9596C8.84946 13.8942 8.9596 13.7575 8.99098 13.5946C9.02235 13.4316 8.97087 13.2638 8.85355 13.1464L6.85355 11.1464C6.73624 11.0291 6.56836 10.9776 6.40545 11.009C6.24253 11.0404 6.10578 11.1505 6.04043 11.303L4.54043 14.803Z" fill="url(#paint2_linear_202_5855)"/>
<path d="M4.54043 14.803C4.45989 14.991 4.50188 15.209 4.64645 15.3536C4.79102 15.4981 5.00904 15.5401 5.19696 15.4596L8.69696 13.9596C8.84946 13.8942 8.9596 13.7575 8.99098 13.5946C9.02235 13.4316 8.97087 13.2638 8.85355 13.1464L6.85355 11.1464C6.73624 11.0291 6.56836 10.9776 6.40545 11.009C6.24253 11.0404 6.10578 11.1505 6.04043 11.303L4.54043 14.803Z" fill="url(#paint3_linear_202_5855)"/>
<path d="M4.54043 14.803C4.45989 14.991 4.50188 15.209 4.64645 15.3536C4.79102 15.4981 5.00904 15.5401 5.19696 15.4596L8.69696 13.9596C8.84946 13.8942 8.9596 13.7575 8.99098 13.5946C9.02235 13.4316 8.97087 13.2638 8.85355 13.1464L6.85355 11.1464C6.73624 11.0291 6.56836 10.9776 6.40545 11.009C6.24253 11.0404 6.10578 11.1505 6.04043 11.303L4.54043 14.803Z" stroke="url(#paint4_linear_202_5855)" stroke-linejoin="round"/>
<path d="M4.54043 14.803C4.45989 14.991 4.50188 15.209 4.64645 15.3536C4.79102 15.4981 5.00904 15.5401 5.19696 15.4596L8.69696 13.9596C8.84946 13.8942 8.9596 13.7575 8.99098 13.5946C9.02235 13.4316 8.97087 13.2638 8.85355 13.1464L6.85355 11.1464C6.73624 11.0291 6.56836 10.9776 6.40545 11.009C6.24253 11.0404 6.10578 11.1505 6.04043 11.303L4.54043 14.803Z" stroke="url(#paint5_linear_202_5855)" stroke-linejoin="round"/>
<path d="M6.14645 11.1464C5.95118 11.3417 5.95118 11.6583 6.14645 11.8536L8.14645 13.8536C8.34171 14.0488 8.65829 14.0488 8.85355 13.8536L14.8536 7.85355C15.0488 7.65829 15.0488 7.34171 14.8536 7.14645L12.8536 5.14645C12.6583 4.95118 12.3417 4.95118 12.1464 5.14645L6.14645 11.1464Z" fill="url(#paint6_linear_202_5855)" stroke="url(#paint7_linear_202_5855)" stroke-linejoin="round"/>
<path fill-rule="evenodd" clip-rule="evenodd" d="M6.5 11.5L7.20711 12.2071L13.2071 6.20711L12.5 5.5L6.5 11.5Z" fill="#FCF4B3"/>
<path d="M14.1464 7.85356L14.5 8.20712L14.8536 7.85356C15.0768 7.63032 15.3397 7.23926 15.4185 6.75535C15.5023 6.24043 15.3688 5.66169 14.8536 5.14646C14.3383 4.63123 13.7596 4.49768 13.2447 4.58151C12.7607 4.66028 12.3697 4.92321 12.1464 5.14646L11.7929 5.50001L12.1464 5.85356L14.1464 7.85356Z" fill="url(#paint8_linear_202_5855)" stroke="url(#paint9_linear_202_5855)"/>
</g>
<defs>
<linearGradient id="paint0_linear_202_5855" x1="0" y1="6.5" x2="16" y2="6.5" gradientUnits="userSpaceOnUse">
<stop stop-color="#FB6867"/>
<stop offset="0.5" stop-color="#EE2931"/>
<stop offset="1" stop-color="#F45055"/>
</linearGradient>
<linearGradient id="paint1_linear_202_5855" x1="0" y1="8.27966" x2="16" y2="8.27966" gradientUnits="userSpaceOnUse">
<stop stop-color="#598BD2"/>
<stop offset="0.5" stop-color="#4D80C9"/>
<stop offset="1" stop-color="#376AB2"/>
</linearGradient>
<linearGradient id="paint2_linear_202_5855" x1="6.16667" y1="11.8889" x2="8.11111" y2="13.8333" gradientUnits="userSpaceOnUse">
<stop stop-color="#FAE7D1"/>
<stop offset="1" stop-color="#E89840"/>
</linearGradient>
<linearGradient id="paint3_linear_202_5855" x1="6.94444" y1="12.6667" x2="3.83333" y2="15.7778" gradientUnits="userSpaceOnUse">
<stop stop-color="#584013" stop-opacity="0"/>
<stop offset="0.499937" stop-color="#584013" stop-opacity="0"/>
<stop offset="0.661921" stop-color="#584013"/>
</linearGradient>
<linearGradient id="paint4_linear_202_5855" x1="6.16667" y1="12.6667" x2="7.33333" y2="13.8333" gradientUnits="userSpaceOnUse">
<stop stop-color="#B98926"/>
<stop offset="1" stop-color="#AA6016"/>
</linearGradient>
<linearGradient id="paint5_linear_202_5855" x1="7.72222" y1="11.8889" x2="3.83333" y2="15.7778" gradientUnits="userSpaceOnUse">
<stop offset="0.5" stop-color="#B98926" stop-opacity="0"/>
<stop offset="0.656842" stop-color="#584013"/>
</linearGradient>
<linearGradient id="paint6_linear_202_5855" x1="6.5" y1="11.6579" x2="8.34211" y2="13.5" gradientUnits="userSpaceOnUse">
<stop stop-color="#F5DC60"/>
<stop offset="1" stop-color="#EFCB1A"/>
</linearGradient>
<linearGradient id="paint7_linear_202_5855" x1="6.5" y1="11.6579" x2="8.3421" y2="13.5" gradientUnits="userSpaceOnUse">
<stop stop-color="#E9C755"/>
<stop offset="1" stop-color="#D98F3B"/>
</linearGradient>
<linearGradient id="paint8_linear_202_5855" x1="12.4766" y1="6.30195" x2="14.8903" y2="6.69267" gradientUnits="userSpaceOnUse">
<stop stop-color="#FDD7D1"/>
<stop offset="1" stop-color="#FBACA1"/>
</linearGradient>
<linearGradient id="paint9_linear_202_5855" x1="12.5" y1="6.31509" x2="14.8693" y2="6.72938" gradientUnits="userSpaceOnUse">
<stop stop-color="#E1B3AD"/>
<stop offset="1" stop-color="#B17971"/>
</linearGradient>
<clipPath id="clip0_202_5855">
<rect width="16" height="16" fill="white"/>
</clipPath>
</defs>
</svg>
