<svg width="16" height="16" viewBox="0 0 16 16" fill="none" xmlns="http://www.w3.org/2000/svg">
<mask id="mask0_202_5948" style="mask-type:alpha" maskUnits="userSpaceOnUse" x="2" y="0" width="14" height="14">
<rect x="3" y="1" width="12" height="12" fill="white"/>
<rect x="2.5" y="0.5" width="13" height="13" stroke="white" stroke-opacity="0.33"/>
</mask>
<g mask="url(#mask0_202_5948)">
<path d="M2.5 1.5C3.16667 3.83333 5 8.5 7.5 8.5C10 8.5 9.5 5.5 14.5 5.5" stroke="url(#paint0_linear_202_5948)" stroke-linecap="round"/>
<path d="M2.5 13.5C6 12.5 7.5 10 9.5 10C12 10 13 14.5 14 14.5" stroke="url(#paint1_linear_202_5948)" stroke-linecap="round"/>
<path d="M2.5 10.5C3.5 8.16667 6.6 2.5 9 2.5C11.4 2.5 13.5 6 14.5 8" stroke="url(#paint2_linear_202_5948)" stroke-linecap="round"/>
</g>
<path d="M1 1H2V14H15V15H2H1V1Z" fill="url(#paint3_linear_202_5948)"/>
<defs>
<linearGradient id="paint0_linear_202_5948" x1="8.5" y1="1" x2="8.5" y2="8.5" gradientUnits="userSpaceOnUse">
<stop offset="2.86561e-09" stop-color="#418ADE"/>
<stop offset="1" stop-color="#0458E0"/>
</linearGradient>
<linearGradient id="paint1_linear_202_5948" x1="9.5" y1="14" x2="9.5" y2="9.5" gradientUnits="userSpaceOnUse">
<stop stop-color="#467F3A"/>
<stop offset="1" stop-color="#6FB663"/>
</linearGradient>
<linearGradient id="paint2_linear_202_5948" x1="9" y1="2" x2="9" y2="11" gradientUnits="userSpaceOnUse">
<stop stop-color="#F25255"/>
<stop offset="1" stop-color="#EE2931"/>
</linearGradient>
<linearGradient id="paint3_linear_202_5948" x1="1" y1="1" x2="15" y2="15" gradientUnits="userSpaceOnUse">
<stop stop-color="#3476C6"/>
<stop offset="1" stop-color="#2863AB"/>
</linearGradient>
</defs>
</svg>
