<svg width="16" height="16" viewBox="0 0 16 16" fill="none" xmlns="http://www.w3.org/2000/svg">
<g clip-path="url(#clip0_256_5325)">
<mask id="path-1-outside-1_256_5325" maskUnits="userSpaceOnUse" x="8" y="1" width="7" height="12" fill="black">
<rect fill="white" x="8" y="1" width="7" height="12"/>
<path d="M9 12C10.1068 12 11.1823 11.6328 12.0579 10.9559C12.9336 10.279 13.5599 9.33071 13.8387 8.25963C14.1176 7.18855 14.0331 6.05523 13.5987 5.03729C13.1642 4.01935 12.4043 3.17433 11.438 2.63467L9 7V12Z"/>
</mask>
<path d="M9 12C10.1068 12 11.1823 11.6328 12.0579 10.9559C12.9336 10.279 13.5599 9.33071 13.8387 8.25963C14.1176 7.18855 14.0331 6.05523 13.5987 5.03729C13.1642 4.01935 12.4043 3.17433 11.438 2.63467L9 7V12Z" fill="url(#paint0_linear_256_5325)"/>
<path d="M9 12C10.1068 12 11.1823 11.6328 12.0579 10.9559C12.9336 10.279 13.5599 9.33071 13.8387 8.25963C14.1176 7.18855 14.0331 6.05523 13.5987 5.03729C13.1642 4.01935 12.4043 3.17433 11.438 2.63467L9 7V12Z" stroke="url(#paint1_linear_256_5325)" stroke-width="2" mask="url(#path-1-outside-1_256_5325)"/>
<mask id="path-2-inside-2_256_5325" fill="white">
<path d="M9 12C10.1068 12 11.1823 11.6328 12.0579 10.9559C12.9336 10.279 13.5599 9.33071 13.8387 8.25963C14.1176 7.18855 14.0331 6.05523 13.5987 5.03729C13.1642 4.01935 12.4043 3.17433 11.438 2.63467L9 7V12Z"/>
</mask>
<path d="M9 12C10.1068 12 11.1823 11.6328 12.0579 10.9559C12.9336 10.279 13.5599 9.33071 13.8387 8.25963C14.1176 7.18855 14.0331 6.05523 13.5987 5.03729C13.1642 4.01935 12.4043 3.17433 11.438 2.63467L9 7V12Z" stroke="white" stroke-opacity="0.33" stroke-width="2" style="mix-blend-mode:overlay" mask="url(#path-2-inside-2_256_5325)"/>
<mask id="path-3-outside-3_256_5325" maskUnits="userSpaceOnUse" x="0" y="7" width="7" height="8" fill="black">
<rect fill="white" y="7" width="7" height="8"/>
<path d="M6 14C5.07462 14 4.1674 13.7432 3.37931 13.2582C2.59123 12.7731 1.95321 12.0789 1.53627 11.2528L6 9V14Z"/>
</mask>
<path d="M6 14C5.07462 14 4.1674 13.7432 3.37931 13.2582C2.59123 12.7731 1.95321 12.0789 1.53627 11.2528L6 9V14Z" fill="#FF463B"/>
<path d="M6 14C5.07462 14 4.1674 13.7432 3.37931 13.2582C2.59123 12.7731 1.95321 12.0789 1.53627 11.2528L6 9V14Z" stroke="url(#paint2_linear_256_5325)" stroke-width="2" mask="url(#path-3-outside-3_256_5325)"/>
<mask id="path-4-inside-4_256_5325" fill="white">
<path d="M6 14C5.07462 14 4.1674 13.7432 3.37931 13.2582C2.59123 12.7731 1.95321 12.0789 1.53627 11.2528L6 9V14Z"/>
</mask>
<path d="M6 14C5.07462 14 4.1674 13.7432 3.37931 13.2582C2.59123 12.7731 1.95321 12.0789 1.53627 11.2528L6 9V14Z" stroke="white" stroke-width="2" style="mix-blend-mode:overlay" mask="url(#path-4-inside-4_256_5325)"/>
<mask id="path-5-outside-5_256_5325" maskUnits="userSpaceOnUse" x="0" y="0" width="10" height="10" fill="black">
<rect fill="white" width="10" height="10"/>
<path d="M1.52009 8.22044C1.04638 7.26471 0.890742 6.18252 1.07591 5.13203C1.26108 4.08153 1.77736 3.11779 2.5493 2.38162C3.32123 1.64546 4.30837 1.17546 5.36646 1.0403C6.42455 0.905142 7.49814 1.11191 8.43034 1.6304L6 6L1.52009 8.22044Z"/>
</mask>
<path d="M1.52009 8.22044C1.04638 7.26471 0.890742 6.18252 1.07591 5.13203C1.26108 4.08153 1.77736 3.11779 2.5493 2.38162C3.32123 1.64546 4.30837 1.17546 5.36646 1.0403C6.42455 0.905142 7.49814 1.11191 8.43034 1.6304L6 6L1.52009 8.22044Z" fill="#58C666"/>
<path d="M1.52009 8.22044C1.04638 7.26471 0.890742 6.18252 1.07591 5.13203C1.26108 4.08153 1.77736 3.11779 2.5493 2.38162C3.32123 1.64546 4.30837 1.17546 5.36646 1.0403C6.42455 0.905142 7.49814 1.11191 8.43034 1.6304L6 6L1.52009 8.22044Z" stroke="url(#paint3_linear_256_5325)" stroke-width="2" mask="url(#path-5-outside-5_256_5325)"/>
<mask id="path-6-inside-6_256_5325" fill="white">
<path d="M1.52009 8.22044C1.04638 7.26471 0.890742 6.18252 1.07591 5.13203C1.26108 4.08153 1.77736 3.11779 2.5493 2.38162C3.32123 1.64546 4.30837 1.17546 5.36646 1.0403C6.42455 0.905142 7.49814 1.11191 8.43034 1.6304L6 6L1.52009 8.22044Z"/>
</mask>
<path d="M1.52009 8.22044C1.04638 7.26471 0.890742 6.18252 1.07591 5.13203C1.26108 4.08153 1.77736 3.11779 2.5493 2.38162C3.32123 1.64546 4.30837 1.17546 5.36646 1.0403C6.42455 0.905142 7.49814 1.11191 8.43034 1.6304L6 6L1.52009 8.22044Z" stroke="white" stroke-opacity="0.66" stroke-width="2" mask="url(#path-6-inside-6_256_5325)"/>
<mask id="path-7-inside-7_256_5325" fill="white">
<path fill-rule="evenodd" clip-rule="evenodd" d="M6.5 16C8.433 16 10 14.433 10 12.5C10 10.567 8.433 9 6.5 9C4.567 9 3 10.567 3 12.5C3 14.433 4.567 16 6.5 16ZM6.5 13C6.77614 13 7 12.7761 7 12.5C7 12.2239 6.77614 12 6.5 12C6.22386 12 6 12.2239 6 12.5C6 12.7761 6.22386 13 6.5 13Z"/>
</mask>
<path fill-rule="evenodd" clip-rule="evenodd" d="M6.5 16C8.433 16 10 14.433 10 12.5C10 10.567 8.433 9 6.5 9C4.567 9 3 10.567 3 12.5C3 14.433 4.567 16 6.5 16ZM6.5 13C6.77614 13 7 12.7761 7 12.5C7 12.2239 6.77614 12 6.5 12C6.22386 12 6 12.2239 6 12.5C6 12.7761 6.22386 13 6.5 13Z" fill="url(#paint4_linear_256_5325)"/>
<path d="M9 12.5C9 13.8807 7.88071 15 6.5 15V17C8.98528 17 11 14.9853 11 12.5H9ZM6.5 10C7.88071 10 9 11.1193 9 12.5H11C11 10.0147 8.98528 8 6.5 8V10ZM4 12.5C4 11.1193 5.11929 10 6.5 10V8C4.01472 8 2 10.0147 2 12.5H4ZM6.5 15C5.11929 15 4 13.8807 4 12.5H2C2 14.9853 4.01472 17 6.5 17V15ZM6 12.5C6 12.2239 6.22386 12 6.5 12V14C7.32843 14 8 13.3284 8 12.5H6ZM6.5 13C6.22386 13 6 12.7761 6 12.5H8C8 11.6716 7.32843 11 6.5 11V13ZM7 12.5C7 12.7761 6.77614 13 6.5 13V11C5.67157 11 5 11.6716 5 12.5H7ZM6.5 12C6.77614 12 7 12.2239 7 12.5H5C5 13.3284 5.67157 14 6.5 14V12Z" fill="url(#paint5_linear_256_5325)" mask="url(#path-7-inside-7_256_5325)"/>
<mask id="path-9-inside-8_256_5325" fill="white">
<path fill-rule="evenodd" clip-rule="evenodd" d="M12.5 16C14.433 16 16 14.433 16 12.5C16 10.567 14.433 9 12.5 9C10.567 9 9 10.567 9 12.5C9 14.433 10.567 16 12.5 16ZM12.5 13C12.7761 13 13 12.7761 13 12.5C13 12.2239 12.7761 12 12.5 12C12.2239 12 12 12.2239 12 12.5C12 12.7761 12.2239 13 12.5 13Z"/>
</mask>
<path fill-rule="evenodd" clip-rule="evenodd" d="M12.5 16C14.433 16 16 14.433 16 12.5C16 10.567 14.433 9 12.5 9C10.567 9 9 10.567 9 12.5C9 14.433 10.567 16 12.5 16ZM12.5 13C12.7761 13 13 12.7761 13 12.5C13 12.2239 12.7761 12 12.5 12C12.2239 12 12 12.2239 12 12.5C12 12.7761 12.2239 13 12.5 13Z" fill="url(#paint6_linear_256_5325)"/>
<path d="M15 12.5C15 13.8807 13.8807 15 12.5 15V17C14.9853 17 17 14.9853 17 12.5H15ZM12.5 10C13.8807 10 15 11.1193 15 12.5H17C17 10.0147 14.9853 8 12.5 8V10ZM10 12.5C10 11.1193 11.1193 10 12.5 10V8C10.0147 8 8 10.0147 8 12.5H10ZM12.5 15C11.1193 15 10 13.8807 10 12.5H8C8 14.9853 10.0147 17 12.5 17V15ZM12 12.5C12 12.2239 12.2239 12 12.5 12V14C13.3284 14 14 13.3284 14 12.5H12ZM12.5 13C12.2239 13 12 12.7761 12 12.5H14C14 11.6716 13.3284 11 12.5 11V13ZM13 12.5C13 12.7761 12.7761 13 12.5 13V11C11.6716 11 11 11.6716 11 12.5H13ZM12.5 12C12.7761 12 13 12.2239 13 12.5H11C11 13.3284 11.6716 14 12.5 14V12Z" fill="url(#paint7_linear_256_5325)" mask="url(#path-9-inside-8_256_5325)"/>
<rect x="6.5" y="11.5" width="6" height="2" fill="url(#paint8_linear_256_5325)"/>
<rect x="6.5" y="11.5" width="6" height="2" stroke="url(#paint9_linear_256_5325)" stroke-linejoin="round"/>
<rect x="6.5" y="11.5" width="6" height="2" stroke="url(#paint10_linear_256_5325)" stroke-linejoin="round"/>
</g>
<defs>
<linearGradient id="paint0_linear_256_5325" x1="9" y1="2" x2="9" y2="12" gradientUnits="userSpaceOnUse">
<stop stop-color="#8DB9EB"/>
<stop offset="1" stop-color="#4C79D9"/>
</linearGradient>
<linearGradient id="paint1_linear_256_5325" x1="9" y1="2" x2="14" y2="12" gradientUnits="userSpaceOnUse">
<stop stop-color="#73A5E1"/>
<stop offset="0.894803" stop-color="#274E95"/>
</linearGradient>
<linearGradient id="paint2_linear_256_5325" x1="3" y1="9" x2="7" y2="15" gradientUnits="userSpaceOnUse">
<stop stop-color="#F96666"/>
<stop offset="1" stop-color="#E8151D"/>
</linearGradient>
<linearGradient id="paint3_linear_256_5325" x1="2.5" y1="2.5" x2="6" y2="6" gradientUnits="userSpaceOnUse">
<stop stop-color="#88CC7B"/>
<stop offset="1" stop-color="#2E7D28"/>
</linearGradient>
<linearGradient id="paint4_linear_256_5325" x1="5" y1="11" x2="8.5" y2="14.5" gradientUnits="userSpaceOnUse">
<stop stop-color="#D9D9D9"/>
<stop offset="1" stop-color="#737373"/>
</linearGradient>
<linearGradient id="paint5_linear_256_5325" x1="10" y1="16" x2="3" y2="9" gradientUnits="userSpaceOnUse">
<stop stop-color="#404040"/>
<stop offset="1" stop-color="#8D8D8D"/>
</linearGradient>
<linearGradient id="paint6_linear_256_5325" x1="11" y1="11" x2="14" y2="14" gradientUnits="userSpaceOnUse">
<stop stop-color="#D9D9D9"/>
<stop offset="1" stop-color="#737373"/>
</linearGradient>
<linearGradient id="paint7_linear_256_5325" x1="16" y1="16" x2="9" y2="9" gradientUnits="userSpaceOnUse">
<stop stop-color="#404040"/>
<stop offset="1" stop-color="#8D8D8D"/>
</linearGradient>
<linearGradient id="paint8_linear_256_5325" x1="7.71429" y1="12.1429" x2="7.98901" y2="13.5165" gradientUnits="userSpaceOnUse">
<stop stop-color="#D9D9D9"/>
<stop offset="1" stop-color="#737373"/>
</linearGradient>
<linearGradient id="paint9_linear_256_5325" x1="9.5" y1="14" x2="9.5" y2="11" gradientUnits="userSpaceOnUse">
<stop offset="0.33" stop-color="#515151"/>
<stop offset="0.66" stop-color="#8D8D8D"/>
</linearGradient>
<linearGradient id="paint10_linear_256_5325" x1="7" y1="12.5" x2="12" y2="12.5" gradientUnits="userSpaceOnUse">
<stop stop-color="#484848"/>
<stop offset="0.515" stop-color="#484848" stop-opacity="0"/>
<stop offset="1" stop-color="#484848"/>
</linearGradient>
<clipPath id="clip0_256_5325">
<rect width="16" height="16" fill="white"/>
</clipPath>
</defs>
</svg>
