<svg width="16" height="16" viewBox="0 0 16 16" fill="none" xmlns="http://www.w3.org/2000/svg">
<g clip-path="url(#clip0_256_5320)">
<mask id="path-1-outside-1_256_5320" maskUnits="userSpaceOnUse" x="8" y="1" width="7" height="12" fill="black">
<rect fill="white" x="8" y="1" width="7" height="12"/>
<path d="M9 12C10.1068 12 11.1823 11.6328 12.0579 10.9559C12.9336 10.279 13.5599 9.33071 13.8387 8.25963C14.1176 7.18855 14.0331 6.05523 13.5987 5.03729C13.1642 4.01935 12.4043 3.17433 11.438 2.63467L9 7V12Z"/>
</mask>
<path d="M9 12C10.1068 12 11.1823 11.6328 12.0579 10.9559C12.9336 10.279 13.5599 9.33071 13.8387 8.25963C14.1176 7.18855 14.0331 6.05523 13.5987 5.03729C13.1642 4.01935 12.4043 3.17433 11.438 2.63467L9 7V12Z" fill="url(#paint0_linear_256_5320)"/>
<path d="M9 12C10.1068 12 11.1823 11.6328 12.0579 10.9559C12.9336 10.279 13.5599 9.33071 13.8387 8.25963C14.1176 7.18855 14.0331 6.05523 13.5987 5.03729C13.1642 4.01935 12.4043 3.17433 11.438 2.63467L9 7V12Z" stroke="url(#paint1_linear_256_5320)" stroke-width="2" mask="url(#path-1-outside-1_256_5320)"/>
<mask id="path-2-inside-2_256_5320" fill="white">
<path d="M9 12C10.1068 12 11.1823 11.6328 12.0579 10.9559C12.9336 10.279 13.5599 9.33071 13.8387 8.25963C14.1176 7.18855 14.0331 6.05523 13.5987 5.03729C13.1642 4.01935 12.4043 3.17433 11.438 2.63467L9 7V12Z"/>
</mask>
<path d="M9 12C10.1068 12 11.1823 11.6328 12.0579 10.9559C12.9336 10.279 13.5599 9.33071 13.8387 8.25963C14.1176 7.18855 14.0331 6.05523 13.5987 5.03729C13.1642 4.01935 12.4043 3.17433 11.438 2.63467L9 7V12Z" stroke="white" stroke-opacity="0.33" stroke-width="2" style="mix-blend-mode:overlay" mask="url(#path-2-inside-2_256_5320)"/>
<mask id="path-3-outside-3_256_5320" maskUnits="userSpaceOnUse" x="0" y="7" width="7" height="8" fill="black">
<rect fill="white" y="7" width="7" height="8"/>
<path d="M6 14C5.07462 14 4.1674 13.7432 3.37931 13.2582C2.59123 12.7731 1.95321 12.0789 1.53627 11.2528L6 9V14Z"/>
</mask>
<path d="M6 14C5.07462 14 4.1674 13.7432 3.37931 13.2582C2.59123 12.7731 1.95321 12.0789 1.53627 11.2528L6 9V14Z" fill="#FF463B"/>
<path d="M6 14C5.07462 14 4.1674 13.7432 3.37931 13.2582C2.59123 12.7731 1.95321 12.0789 1.53627 11.2528L6 9V14Z" stroke="url(#paint2_linear_256_5320)" stroke-width="2" mask="url(#path-3-outside-3_256_5320)"/>
<mask id="path-4-inside-4_256_5320" fill="white">
<path d="M6 14C5.07462 14 4.1674 13.7432 3.37931 13.2582C2.59123 12.7731 1.95321 12.0789 1.53627 11.2528L6 9V14Z"/>
</mask>
<path d="M6 14C5.07462 14 4.1674 13.7432 3.37931 13.2582C2.59123 12.7731 1.95321 12.0789 1.53627 11.2528L6 9V14Z" stroke="white" stroke-width="2" style="mix-blend-mode:overlay" mask="url(#path-4-inside-4_256_5320)"/>
<mask id="path-5-outside-5_256_5320" maskUnits="userSpaceOnUse" x="0" y="0" width="10" height="10" fill="black">
<rect fill="white" width="10" height="10"/>
<path d="M1.52009 8.22044C1.04638 7.26471 0.890742 6.18252 1.07591 5.13203C1.26108 4.08153 1.77736 3.11779 2.5493 2.38162C3.32123 1.64546 4.30837 1.17546 5.36646 1.0403C6.42455 0.905142 7.49814 1.11191 8.43034 1.6304L6 6L1.52009 8.22044Z"/>
</mask>
<path d="M1.52009 8.22044C1.04638 7.26471 0.890742 6.18252 1.07591 5.13203C1.26108 4.08153 1.77736 3.11779 2.5493 2.38162C3.32123 1.64546 4.30837 1.17546 5.36646 1.0403C6.42455 0.905142 7.49814 1.11191 8.43034 1.6304L6 6L1.52009 8.22044Z" fill="#58C666"/>
<path d="M1.52009 8.22044C1.04638 7.26471 0.890742 6.18252 1.07591 5.13203C1.26108 4.08153 1.77736 3.11779 2.5493 2.38162C3.32123 1.64546 4.30837 1.17546 5.36646 1.0403C6.42455 0.905142 7.49814 1.11191 8.43034 1.6304L6 6L1.52009 8.22044Z" stroke="url(#paint3_linear_256_5320)" stroke-width="2" mask="url(#path-5-outside-5_256_5320)"/>
<mask id="path-6-inside-6_256_5320" fill="white">
<path d="M1.52009 8.22044C1.04638 7.26471 0.890742 6.18252 1.07591 5.13203C1.26108 4.08153 1.77736 3.11779 2.5493 2.38162C3.32123 1.64546 4.30837 1.17546 5.36646 1.0403C6.42455 0.905142 7.49814 1.11191 8.43034 1.6304L6 6L1.52009 8.22044Z"/>
</mask>
<path d="M1.52009 8.22044C1.04638 7.26471 0.890742 6.18252 1.07591 5.13203C1.26108 4.08153 1.77736 3.11779 2.5493 2.38162C3.32123 1.64546 4.30837 1.17546 5.36646 1.0403C6.42455 0.905142 7.49814 1.11191 8.43034 1.6304L6 6L1.52009 8.22044Z" stroke="white" stroke-opacity="0.66" stroke-width="2" mask="url(#path-6-inside-6_256_5320)"/>
<path d="M4.54043 14.803C4.45989 14.991 4.50188 15.209 4.64645 15.3536C4.79102 15.4981 5.00904 15.5401 5.19696 15.4596L8.69696 13.9596C8.84946 13.8942 8.9596 13.7575 8.99098 13.5946C9.02235 13.4316 8.97087 13.2638 8.85355 13.1464L6.85355 11.1464C6.73624 11.0291 6.56836 10.9776 6.40545 11.009C6.24253 11.0404 6.10578 11.1505 6.04043 11.303L4.54043 14.803Z" fill="url(#paint4_linear_256_5320)"/>
<path d="M4.54043 14.803C4.45989 14.991 4.50188 15.209 4.64645 15.3536C4.79102 15.4981 5.00904 15.5401 5.19696 15.4596L8.69696 13.9596C8.84946 13.8942 8.9596 13.7575 8.99098 13.5946C9.02235 13.4316 8.97087 13.2638 8.85355 13.1464L6.85355 11.1464C6.73624 11.0291 6.56836 10.9776 6.40545 11.009C6.24253 11.0404 6.10578 11.1505 6.04043 11.303L4.54043 14.803Z" fill="url(#paint5_linear_256_5320)"/>
<path d="M4.54043 14.803C4.45989 14.991 4.50188 15.209 4.64645 15.3536C4.79102 15.4981 5.00904 15.5401 5.19696 15.4596L8.69696 13.9596C8.84946 13.8942 8.9596 13.7575 8.99098 13.5946C9.02235 13.4316 8.97087 13.2638 8.85355 13.1464L6.85355 11.1464C6.73624 11.0291 6.56836 10.9776 6.40545 11.009C6.24253 11.0404 6.10578 11.1505 6.04043 11.303L4.54043 14.803Z" stroke="url(#paint6_linear_256_5320)" stroke-linejoin="round"/>
<path d="M4.54043 14.803C4.45989 14.991 4.50188 15.209 4.64645 15.3536C4.79102 15.4981 5.00904 15.5401 5.19696 15.4596L8.69696 13.9596C8.84946 13.8942 8.9596 13.7575 8.99098 13.5946C9.02235 13.4316 8.97087 13.2638 8.85355 13.1464L6.85355 11.1464C6.73624 11.0291 6.56836 10.9776 6.40545 11.009C6.24253 11.0404 6.10578 11.1505 6.04043 11.303L4.54043 14.803Z" stroke="url(#paint7_linear_256_5320)" stroke-linejoin="round"/>
<path d="M6.14645 11.1464C5.95118 11.3417 5.95118 11.6583 6.14645 11.8536L8.14645 13.8536C8.34171 14.0488 8.65829 14.0488 8.85355 13.8536L14.8536 7.85355C15.0488 7.65829 15.0488 7.34171 14.8536 7.14645L12.8536 5.14645C12.6583 4.95118 12.3417 4.95118 12.1464 5.14645L6.14645 11.1464Z" fill="url(#paint8_linear_256_5320)" stroke="url(#paint9_linear_256_5320)" stroke-linejoin="round"/>
<path fill-rule="evenodd" clip-rule="evenodd" d="M6.5 11.5L7.20711 12.2071L13.2071 6.20711L12.5 5.5L6.5 11.5Z" fill="#FCF4B3"/>
<path d="M14.1464 7.85356L14.5 8.20712L14.8536 7.85356C15.0768 7.63032 15.3397 7.23926 15.4185 6.75535C15.5023 6.24043 15.3688 5.66169 14.8536 5.14646C14.3383 4.63123 13.7596 4.49768 13.2447 4.58151C12.7607 4.66028 12.3697 4.92321 12.1464 5.14646L11.7929 5.50001L12.1464 5.85356L14.1464 7.85356Z" fill="url(#paint10_linear_256_5320)" stroke="url(#paint11_linear_256_5320)"/>
</g>
<defs>
<linearGradient id="paint0_linear_256_5320" x1="9" y1="2" x2="9" y2="12" gradientUnits="userSpaceOnUse">
<stop stop-color="#8DB9EB"/>
<stop offset="1" stop-color="#4C79D9"/>
</linearGradient>
<linearGradient id="paint1_linear_256_5320" x1="9" y1="2" x2="14" y2="12" gradientUnits="userSpaceOnUse">
<stop stop-color="#73A5E1"/>
<stop offset="0.894803" stop-color="#274E95"/>
</linearGradient>
<linearGradient id="paint2_linear_256_5320" x1="3" y1="9" x2="7" y2="15" gradientUnits="userSpaceOnUse">
<stop stop-color="#F96666"/>
<stop offset="1" stop-color="#E8151D"/>
</linearGradient>
<linearGradient id="paint3_linear_256_5320" x1="2.5" y1="2.5" x2="6" y2="6" gradientUnits="userSpaceOnUse">
<stop stop-color="#88CC7B"/>
<stop offset="1" stop-color="#2E7D28"/>
</linearGradient>
<linearGradient id="paint4_linear_256_5320" x1="6.16667" y1="11.8889" x2="8.11111" y2="13.8333" gradientUnits="userSpaceOnUse">
<stop stop-color="#FAE7D1"/>
<stop offset="1" stop-color="#E89840"/>
</linearGradient>
<linearGradient id="paint5_linear_256_5320" x1="6.94444" y1="12.6667" x2="3.83333" y2="15.7778" gradientUnits="userSpaceOnUse">
<stop stop-color="#584013" stop-opacity="0"/>
<stop offset="0.499937" stop-color="#584013" stop-opacity="0"/>
<stop offset="0.661921" stop-color="#584013"/>
</linearGradient>
<linearGradient id="paint6_linear_256_5320" x1="6.16667" y1="12.6667" x2="7.33333" y2="13.8333" gradientUnits="userSpaceOnUse">
<stop stop-color="#B98926"/>
<stop offset="1" stop-color="#AA6016"/>
</linearGradient>
<linearGradient id="paint7_linear_256_5320" x1="7.72222" y1="11.8889" x2="3.83333" y2="15.7778" gradientUnits="userSpaceOnUse">
<stop offset="0.5" stop-color="#B98926" stop-opacity="0"/>
<stop offset="0.656842" stop-color="#584013"/>
</linearGradient>
<linearGradient id="paint8_linear_256_5320" x1="6.5" y1="11.6579" x2="8.34211" y2="13.5" gradientUnits="userSpaceOnUse">
<stop stop-color="#F5DC60"/>
<stop offset="1" stop-color="#EFCB1A"/>
</linearGradient>
<linearGradient id="paint9_linear_256_5320" x1="6.5" y1="11.6579" x2="8.3421" y2="13.5" gradientUnits="userSpaceOnUse">
<stop stop-color="#E9C755"/>
<stop offset="1" stop-color="#D98F3B"/>
</linearGradient>
<linearGradient id="paint10_linear_256_5320" x1="12.4766" y1="6.30195" x2="14.8903" y2="6.69267" gradientUnits="userSpaceOnUse">
<stop stop-color="#FDD7D1"/>
<stop offset="1" stop-color="#FBACA1"/>
</linearGradient>
<linearGradient id="paint11_linear_256_5320" x1="12.5" y1="6.31509" x2="14.8693" y2="6.72938" gradientUnits="userSpaceOnUse">
<stop stop-color="#E1B3AD"/>
<stop offset="1" stop-color="#B17971"/>
</linearGradient>
<clipPath id="clip0_256_5320">
<rect width="16" height="16" fill="white"/>
</clipPath>
</defs>
</svg>
