<svg width="16" height="16" viewBox="0 0 16 16" fill="none" xmlns="http://www.w3.org/2000/svg">
<g clip-path="url(#clip0_446_7337)">
<circle cx="8" cy="8" r="6.5" fill="url(#paint0_linear_446_7337)" stroke="url(#paint1_linear_446_7337)"/>
<circle cx="8" cy="8" r="4.5" fill="url(#paint2_linear_446_7337)" stroke="url(#paint3_linear_446_7337)"/>
<path d="M3 13.7929C2.60948 14.1834 2.60948 14.8166 3 15.2071C3.39053 15.5976 4.02369 15.5976 4.41421 15.2071L4.76777 14.8536C5.15829 14.463 5.15829 13.8299 4.76777 13.4393C4.37724 13.0488 3.74408 13.0488 3.35355 13.4393L3 13.7929ZM10.9393 14.8536L11.2182 14.5747L10.9393 14.8536L11.2929 15.2071C11.6834 15.5976 12.3166 15.5976 12.7071 15.2071C13.0976 14.8166 13.0976 14.1834 12.7071 13.7929L12.3535 13.4393C11.963 13.0488 11.3299 13.0488 10.9393 13.4393C10.5488 13.8299 10.5488 14.463 10.9393 14.8536Z" fill="#D9D9D9" stroke="url(#paint4_linear_446_7337)" stroke-linejoin="round"/>
<path d="M4.85355 2.35355C5.04882 2.15829 5.04882 1.84171 4.85355 1.64645L4.56066 1.35355C3.97487 0.767768 3.02513 0.767765 2.43934 1.35355L1.35355 2.43934C0.767767 3.02513 0.767767 3.97487 1.35355 4.56066L1.64645 4.85355C1.74021 4.94732 1.86739 5 2 5C2.13261 5 2.25979 4.94732 2.35355 4.85355L4.85355 2.35355Z" fill="url(#paint5_linear_446_7337)" stroke="url(#paint6_linear_446_7337)" stroke-linejoin="round"/>
<path d="M14.3536 4.85355C14.2598 4.94732 14.1326 5 14 5C13.8674 5 13.7402 4.94732 13.6464 4.85355L11.1464 2.35355C10.9512 2.15829 10.9512 1.84171 11.1464 1.64645L11.4393 1.35355C12.0251 0.767768 12.9749 0.767766 13.5607 1.35355L14.6464 2.43934C15.2322 3.02513 15.2322 3.97487 14.6464 4.56066L14.3536 4.85355Z" fill="url(#paint7_linear_446_7337)" stroke="url(#paint8_linear_446_7337)" stroke-linejoin="round"/>
<path d="M8 6V8L11 6" stroke="#777F81" stroke-linecap="round" stroke-linejoin="round"/>
<path d="M4.54043 14.803C4.45989 14.991 4.50188 15.209 4.64645 15.3536C4.79102 15.4981 5.00904 15.5401 5.19696 15.4596L8.69696 13.9596C8.84946 13.8942 8.9596 13.7575 8.99098 13.5946C9.02235 13.4316 8.97087 13.2638 8.85355 13.1464L6.85355 11.1464C6.73624 11.0291 6.56836 10.9776 6.40545 11.009C6.24253 11.0404 6.10578 11.1505 6.04043 11.303L4.54043 14.803Z" fill="url(#paint9_linear_446_7337)"/>
<path d="M4.54043 14.803C4.45989 14.991 4.50188 15.209 4.64645 15.3536C4.79102 15.4981 5.00904 15.5401 5.19696 15.4596L8.69696 13.9596C8.84946 13.8942 8.9596 13.7575 8.99098 13.5946C9.02235 13.4316 8.97087 13.2638 8.85355 13.1464L6.85355 11.1464C6.73624 11.0291 6.56836 10.9776 6.40545 11.009C6.24253 11.0404 6.10578 11.1505 6.04043 11.303L4.54043 14.803Z" fill="url(#paint10_linear_446_7337)"/>
<path d="M4.54043 14.803C4.45989 14.991 4.50188 15.209 4.64645 15.3536C4.79102 15.4981 5.00904 15.5401 5.19696 15.4596L8.69696 13.9596C8.84946 13.8942 8.9596 13.7575 8.99098 13.5946C9.02235 13.4316 8.97087 13.2638 8.85355 13.1464L6.85355 11.1464C6.73624 11.0291 6.56836 10.9776 6.40545 11.009C6.24253 11.0404 6.10578 11.1505 6.04043 11.303L4.54043 14.803Z" stroke="url(#paint11_linear_446_7337)" stroke-linejoin="round"/>
<path d="M4.54043 14.803C4.45989 14.991 4.50188 15.209 4.64645 15.3536C4.79102 15.4981 5.00904 15.5401 5.19696 15.4596L8.69696 13.9596C8.84946 13.8942 8.9596 13.7575 8.99098 13.5946C9.02235 13.4316 8.97087 13.2638 8.85355 13.1464L6.85355 11.1464C6.73624 11.0291 6.56836 10.9776 6.40545 11.009C6.24253 11.0404 6.10578 11.1505 6.04043 11.303L4.54043 14.803Z" stroke="url(#paint12_linear_446_7337)" stroke-linejoin="round"/>
<path d="M6.14645 11.1464C5.95118 11.3417 5.95118 11.6583 6.14645 11.8536L8.14645 13.8536C8.34171 14.0488 8.65829 14.0488 8.85355 13.8536L14.8536 7.85355C15.0488 7.65829 15.0488 7.34171 14.8536 7.14645L12.8536 5.14645C12.6583 4.95118 12.3417 4.95118 12.1464 5.14645L6.14645 11.1464Z" fill="url(#paint13_linear_446_7337)" stroke="url(#paint14_linear_446_7337)" stroke-linejoin="round"/>
<path fill-rule="evenodd" clip-rule="evenodd" d="M6.5 11.5L7.20711 12.2071L13.2071 6.20711L12.5 5.5L6.5 11.5Z" fill="#FCF4B3"/>
<path d="M14.1464 7.85356L14.5 8.20712L14.8536 7.85356C15.0768 7.63032 15.3397 7.23926 15.4185 6.75535C15.5023 6.24043 15.3688 5.66169 14.8536 5.14646C14.3383 4.63123 13.7596 4.49768 13.2447 4.58151C12.7607 4.66028 12.3697 4.92321 12.1464 5.14646L11.7929 5.50001L12.1464 5.85356L14.1464 7.85356Z" fill="url(#paint15_linear_446_7337)" stroke="url(#paint16_linear_446_7337)"/>
</g>
<defs>
<linearGradient id="paint0_linear_446_7337" x1="8" y1="1" x2="8" y2="15" gradientUnits="userSpaceOnUse">
<stop stop-color="#A1D8F1"/>
<stop offset="1" stop-color="#477AB3"/>
</linearGradient>
<linearGradient id="paint1_linear_446_7337" x1="8" y1="1" x2="8" y2="15" gradientUnits="userSpaceOnUse">
<stop stop-color="#77BBF6"/>
<stop offset="1" stop-color="#1A5C9E"/>
</linearGradient>
<linearGradient id="paint2_linear_446_7337" x1="8" y1="3" x2="8" y2="13" gradientUnits="userSpaceOnUse">
<stop stop-color="white"/>
<stop offset="0.5" stop-color="#E9F6FD"/>
<stop offset="1" stop-color="white"/>
</linearGradient>
<linearGradient id="paint3_linear_446_7337" x1="8" y1="3" x2="8" y2="13" gradientUnits="userSpaceOnUse">
<stop stop-color="#77BBF6"/>
<stop offset="1" stop-color="#1A5C9E"/>
</linearGradient>
<linearGradient id="paint4_linear_446_7337" x1="12" y1="12.5" x2="12" y2="15" gradientUnits="userSpaceOnUse">
<stop stop-color="#D3D3D3"/>
<stop offset="1" stop-color="#A4A4A4"/>
</linearGradient>
<linearGradient id="paint5_linear_446_7337" x1="4.5" y1="1.5" x2="3.41003" y2="5.08131" gradientUnits="userSpaceOnUse">
<stop stop-color="#F2CF6A"/>
<stop offset="0.485" stop-color="#FAECBF"/>
<stop offset="1" stop-color="#F3D485"/>
</linearGradient>
<linearGradient id="paint6_linear_446_7337" x1="1.5" y1="1.5" x2="3.75" y2="3.75" gradientUnits="userSpaceOnUse">
<stop offset="0.200121" stop-color="#F4D584"/>
<stop offset="0.501802" stop-color="#F6C22E"/>
<stop offset="1" stop-color="#DEA92F"/>
</linearGradient>
<linearGradient id="paint7_linear_446_7337" x1="11.5" y1="1.5" x2="12.59" y2="5.08131" gradientUnits="userSpaceOnUse">
<stop stop-color="#F3D374"/>
<stop offset="0.515" stop-color="#FAECBF"/>
<stop offset="1" stop-color="#F3D485"/>
</linearGradient>
<linearGradient id="paint8_linear_446_7337" x1="12.5" y1="0.5" x2="13.5" y2="5" gradientUnits="userSpaceOnUse">
<stop stop-color="#F6C22E"/>
<stop offset="1" stop-color="#DEA92F"/>
</linearGradient>
<linearGradient id="paint9_linear_446_7337" x1="6.16667" y1="11.8889" x2="8.11111" y2="13.8333" gradientUnits="userSpaceOnUse">
<stop stop-color="#FAE7D1"/>
<stop offset="1" stop-color="#E89840"/>
</linearGradient>
<linearGradient id="paint10_linear_446_7337" x1="6.94444" y1="12.6667" x2="3.83333" y2="15.7778" gradientUnits="userSpaceOnUse">
<stop stop-color="#584013" stop-opacity="0"/>
<stop offset="0.499937" stop-color="#584013" stop-opacity="0"/>
<stop offset="0.661921" stop-color="#584013"/>
</linearGradient>
<linearGradient id="paint11_linear_446_7337" x1="6.16667" y1="12.6667" x2="7.33333" y2="13.8333" gradientUnits="userSpaceOnUse">
<stop stop-color="#B98926"/>
<stop offset="1" stop-color="#AA6016"/>
</linearGradient>
<linearGradient id="paint12_linear_446_7337" x1="7.72222" y1="11.8889" x2="3.83333" y2="15.7778" gradientUnits="userSpaceOnUse">
<stop offset="0.5" stop-color="#B98926" stop-opacity="0"/>
<stop offset="0.656842" stop-color="#584013"/>
</linearGradient>
<linearGradient id="paint13_linear_446_7337" x1="6.5" y1="11.6579" x2="8.34211" y2="13.5" gradientUnits="userSpaceOnUse">
<stop stop-color="#F5DC60"/>
<stop offset="1" stop-color="#EFCB1A"/>
</linearGradient>
<linearGradient id="paint14_linear_446_7337" x1="6.5" y1="11.6579" x2="8.3421" y2="13.5" gradientUnits="userSpaceOnUse">
<stop stop-color="#E9C755"/>
<stop offset="1" stop-color="#D98F3B"/>
</linearGradient>
<linearGradient id="paint15_linear_446_7337" x1="12.4766" y1="6.30195" x2="14.8903" y2="6.69267" gradientUnits="userSpaceOnUse">
<stop stop-color="#FDD7D1"/>
<stop offset="1" stop-color="#FBACA1"/>
</linearGradient>
<linearGradient id="paint16_linear_446_7337" x1="12.5" y1="6.31509" x2="14.8693" y2="6.72938" gradientUnits="userSpaceOnUse">
<stop stop-color="#E1B3AD"/>
<stop offset="1" stop-color="#B17971"/>
</linearGradient>
<clipPath id="clip0_446_7337">
<rect width="16" height="16" fill="white"/>
</clipPath>
</defs>
</svg>
