<svg width="16" height="16" viewBox="0 0 16 16" fill="none" xmlns="http://www.w3.org/2000/svg">
<g clip-path="url(#clip0_201_5346)">
<mask id="path-1-inside-1_201_5346" fill="white">
<path fill-rule="evenodd" clip-rule="evenodd" d="M7 0C6.44772 0 6 0.447715 6 1V2.02374C6 2.21412 5.87863 2.38255 5.70277 2.45549C5.52681 2.52848 5.32308 2.49465 5.18837 2.35995L4.46447 1.63604C4.07394 1.24551 3.44078 1.24551 3.05025 1.63604L1.63604 3.05025C1.24551 3.44078 1.24551 4.07394 1.63604 4.46447L2.35995 5.18838C2.49465 5.32308 2.52848 5.52681 2.45549 5.70277C2.38255 5.87863 2.21412 6 2.02374 6H1C0.447715 6 0 6.44771 0 7V9C0 9.55228 0.447715 10 1 10H2.02374C2.21412 10 2.38255 10.1214 2.45549 10.2972C2.52848 10.4732 2.49465 10.6769 2.35995 10.8116L1.63604 11.5355C1.24551 11.9261 1.24551 12.5592 1.63604 12.9497L3.05025 14.364C3.44078 14.7545 4.07394 14.7545 4.46447 14.364L5.18838 13.6401C5.32308 13.5053 5.52681 13.4715 5.70277 13.5445C5.87863 13.6175 6 13.7859 6 13.9763V15C6 15.5523 6.44772 16 7 16H9C9.55229 16 10 15.5523 10 15V13.9763C10 13.7859 10.1214 13.6175 10.2972 13.5445C10.4732 13.4715 10.6769 13.5053 10.8116 13.6401L11.5355 14.364C11.9261 14.7545 12.5592 14.7545 12.9497 14.364L14.364 12.9497C14.7545 12.5592 14.7545 11.9261 14.364 11.5355L13.6401 10.8116C13.5053 10.6769 13.4715 10.4732 13.5445 10.2972C13.6175 10.1214 13.7859 10 13.9763 10H15C15.5523 10 16 9.55229 16 9V7C16 6.44772 15.5523 6 15 6H13.9763C13.7859 6 13.6175 5.87863 13.5445 5.70277C13.4715 5.52681 13.5053 5.32308 13.6401 5.18838L14.364 4.46447C14.7545 4.07394 14.7545 3.44078 14.364 3.05025L12.9497 1.63604C12.5592 1.24551 11.9261 1.24551 11.5355 1.63604L10.8116 2.35995C10.6769 2.49465 10.4732 2.52848 10.2972 2.45549C10.1214 2.38255 10 2.21412 10 2.02374V1C10 0.447715 9.55229 0 9 0H7ZM8 10C9.10457 10 10 9.10457 10 8C10 6.89543 9.10457 6 8 6C6.89543 6 6 6.89543 6 8C6 9.10457 6.89543 10 8 10Z"/>
</mask>
<g filter="url(#filter0_ii_201_5346)">
<path fill-rule="evenodd" clip-rule="evenodd" d="M7 0C6.44772 0 6 0.447715 6 1V2.02374C6 2.21412 5.87863 2.38255 5.70277 2.45549C5.52681 2.52848 5.32308 2.49465 5.18837 2.35995L4.46447 1.63604C4.07394 1.24551 3.44078 1.24551 3.05025 1.63604L1.63604 3.05025C1.24551 3.44078 1.24551 4.07394 1.63604 4.46447L2.35995 5.18838C2.49465 5.32308 2.52848 5.52681 2.45549 5.70277C2.38255 5.87863 2.21412 6 2.02374 6H1C0.447715 6 0 6.44771 0 7V9C0 9.55228 0.447715 10 1 10H2.02374C2.21412 10 2.38255 10.1214 2.45549 10.2972C2.52848 10.4732 2.49465 10.6769 2.35995 10.8116L1.63604 11.5355C1.24551 11.9261 1.24551 12.5592 1.63604 12.9497L3.05025 14.364C3.44078 14.7545 4.07394 14.7545 4.46447 14.364L5.18838 13.6401C5.32308 13.5053 5.52681 13.4715 5.70277 13.5445C5.87863 13.6175 6 13.7859 6 13.9763V15C6 15.5523 6.44772 16 7 16H9C9.55229 16 10 15.5523 10 15V13.9763C10 13.7859 10.1214 13.6175 10.2972 13.5445C10.4732 13.4715 10.6769 13.5053 10.8116 13.6401L11.5355 14.364C11.9261 14.7545 12.5592 14.7545 12.9497 14.364L14.364 12.9497C14.7545 12.5592 14.7545 11.9261 14.364 11.5355L13.6401 10.8116C13.5053 10.6769 13.4715 10.4732 13.5445 10.2972C13.6175 10.1214 13.7859 10 13.9763 10H15C15.5523 10 16 9.55229 16 9V7C16 6.44772 15.5523 6 15 6H13.9763C13.7859 6 13.6175 5.87863 13.5445 5.70277C13.4715 5.52681 13.5053 5.32308 13.6401 5.18838L14.364 4.46447C14.7545 4.07394 14.7545 3.44078 14.364 3.05025L12.9497 1.63604C12.5592 1.24551 11.9261 1.24551 11.5355 1.63604L10.8116 2.35995C10.6769 2.49465 10.4732 2.52848 10.2972 2.45549C10.1214 2.38255 10 2.21412 10 2.02374V1C10 0.447715 9.55229 0 9 0H7ZM8 10C9.10457 10 10 9.10457 10 8C10 6.89543 9.10457 6 8 6C6.89543 6 6 6.89543 6 8C6 9.10457 6.89543 10 8 10Z" fill="#BEBEBE"/>
</g>
<path d="M5.70277 2.45549L6.08591 3.37918L6.08591 3.37918L5.70277 2.45549ZM5.18837 2.35995L5.89548 1.65284L5.89548 1.65284L5.18837 2.35995ZM4.46447 1.63604L5.17157 0.928932L5.17157 0.928932L4.46447 1.63604ZM3.05025 1.63604L3.75736 2.34315L3.75736 2.34315L3.05025 1.63604ZM1.63604 3.05025L0.928932 2.34315L0.928932 2.34315L1.63604 3.05025ZM1.63604 4.46447L2.34315 3.75736L2.34315 3.75736L1.63604 4.46447ZM2.35995 5.18838L3.06706 4.48127L3.06705 4.48127L2.35995 5.18838ZM2.45549 5.70277L1.5318 5.31964L1.5318 5.31964L2.45549 5.70277ZM2.45549 10.2972L1.5318 10.6804L1.5318 10.6804L2.45549 10.2972ZM2.35995 10.8116L1.65284 10.1045L1.65284 10.1045L2.35995 10.8116ZM1.63604 11.5355L2.34315 12.2426L2.34315 12.2426L1.63604 11.5355ZM1.63604 12.9497L2.34315 12.2426L2.34315 12.2426L1.63604 12.9497ZM3.05025 14.364L2.34315 15.0711L2.34315 15.0711L3.05025 14.364ZM4.46447 14.364L5.17157 15.0711L5.17157 15.0711L4.46447 14.364ZM5.18838 13.6401L4.48127 12.9329H4.48127L5.18838 13.6401ZM5.70277 13.5445L5.31963 14.4682L5.31963 14.4682L5.70277 13.5445ZM10.2972 13.5445L10.6804 14.4682L10.6804 14.4682L10.2972 13.5445ZM12.9497 14.364L13.6569 15.0711L12.9497 14.364ZM14.364 12.9497L13.6569 12.2426L13.6569 12.2426L14.364 12.9497ZM14.364 11.5355L13.6569 12.2426L13.6569 12.2426L14.364 11.5355ZM13.5445 10.2972L14.4682 10.6804L14.4682 10.6804L13.5445 10.2972ZM13.5445 5.70277L14.4682 5.31963L14.4682 5.31963L13.5445 5.70277ZM14.364 4.46447L15.0711 5.17157L15.0711 5.17157L14.364 4.46447ZM14.364 3.05025L15.0711 2.34315V2.34315L14.364 3.05025ZM12.9497 1.63604L12.2426 2.34315L12.2426 2.34315L12.9497 1.63604ZM11.5355 1.63604L12.2426 2.34315L12.2426 2.34315L11.5355 1.63604ZM10.8116 2.35995L11.5187 3.06705V3.06705L10.8116 2.35995ZM10.2972 2.45549L10.6804 1.5318L10.6804 1.5318L10.2972 2.45549ZM7 1V-1C5.89543 -1 5 -0.10457 5 1H7ZM7 2.02374V1H5V2.02374H7ZM6.08591 3.37918C6.60482 3.16395 7 2.65032 7 2.02374H5C5 1.77792 5.15245 1.60115 5.31963 1.5318L6.08591 3.37918ZM4.48127 3.06705C4.92209 3.50788 5.56301 3.59607 6.08591 3.37918L5.31964 1.5318C5.49061 1.46088 5.72407 1.48143 5.89548 1.65284L4.48127 3.06705ZM3.75736 2.34315L4.48127 3.06705L5.89548 1.65284L5.17157 0.928932L3.75736 2.34315ZM3.75736 2.34315V2.34315L5.17157 0.928932C4.39052 0.147884 3.12419 0.147884 2.34315 0.928933L3.75736 2.34315ZM2.34315 3.75736L3.75736 2.34315L2.34315 0.928932L0.928932 2.34315L2.34315 3.75736ZM2.34315 3.75736L2.34315 3.75736L0.928932 2.34315C0.147884 3.12419 0.147883 4.39052 0.928932 5.17157L2.34315 3.75736ZM3.06705 4.48127L2.34315 3.75736L0.928932 5.17157L1.65284 5.89548L3.06705 4.48127ZM3.37918 6.08591C3.59608 5.56301 3.50787 4.92209 3.06706 4.48127L1.65284 5.89548C1.48143 5.72407 1.46088 5.49061 1.5318 5.31964L3.37918 6.08591ZM2.02374 7C2.65032 7 3.16395 6.60481 3.37918 6.08591L1.5318 5.31964C1.60115 5.15245 1.77792 5 2.02374 5V7ZM1 7H2.02374V5H1V7ZM1 7V7V5C-0.104569 5 -1 5.89543 -1 7H1ZM1 9V7H-1V9H1ZM1 9H1H-1C-1 10.1046 -0.10457 11 1 11V9ZM2.02374 9H1V11H2.02374V9ZM3.37918 9.91409C3.16395 9.39518 2.65032 9 2.02374 9V11C1.77792 11 1.60115 10.8476 1.5318 10.6804L3.37918 9.91409ZM3.06705 11.5187C3.50788 11.0779 3.59608 10.437 3.37918 9.91409L1.5318 10.6804C1.46088 10.5094 1.48143 10.2759 1.65284 10.1045L3.06705 11.5187ZM2.34315 12.2426L3.06705 11.5187L1.65284 10.1045L0.928932 10.8284L2.34315 12.2426ZM2.34315 12.2426V12.2426L0.928932 10.8284C0.147883 11.6095 0.147883 12.8758 0.928933 13.6569L2.34315 12.2426ZM3.75736 13.6569L2.34315 12.2426L0.928932 13.6569L2.34315 15.0711L3.75736 13.6569ZM3.75736 13.6569H3.75736L2.34315 15.0711C3.12419 15.8521 4.39052 15.8521 5.17157 15.0711L3.75736 13.6569ZM4.48127 12.9329L3.75736 13.6569L5.17157 15.0711L5.89548 14.3472L4.48127 12.9329ZM6.08591 12.6208C5.56301 12.4039 4.92209 12.4921 4.48127 12.9329L5.89548 14.3472C5.72407 14.5186 5.49061 14.5391 5.31963 14.4682L6.08591 12.6208ZM7 13.9763C7 13.3497 6.60481 12.8361 6.08591 12.6208L5.31963 14.4682C5.15245 14.3989 5 14.2221 5 13.9763H7ZM7 15V13.9763H5V15H7ZM7 15H5C5 16.1046 5.89543 17 7 17V15ZM9 15H7V17H9V15ZM9 15V17C10.1046 17 11 16.1046 11 15H9ZM9 13.9763V15H11V13.9763H9ZM9.91409 12.6208C9.39518 12.8361 9 13.3497 9 13.9763H11C11 14.2221 10.8476 14.3989 10.6804 14.4682L9.91409 12.6208ZM11.5187 12.9329C11.0779 12.4921 10.437 12.4039 9.91409 12.6208L10.6804 14.4682C10.5094 14.5391 10.2759 14.5186 10.1045 14.3472L11.5187 12.9329ZM12.2426 13.6569L11.5187 12.9329L10.1045 14.3472L10.8284 15.0711L12.2426 13.6569ZM12.2426 13.6569L10.8284 15.0711C11.6095 15.8521 12.8758 15.8521 13.6569 15.0711L12.2426 13.6569ZM13.6569 12.2426L12.2426 13.6569L13.6569 15.0711L15.0711 13.6569L13.6569 12.2426ZM13.6569 12.2426V12.2426L15.0711 13.6569C15.8521 12.8758 15.8521 11.6095 15.0711 10.8284L13.6569 12.2426ZM12.9329 11.5187L13.6569 12.2426L15.0711 10.8284L14.3472 10.1045L12.9329 11.5187ZM12.6208 9.91409C12.4039 10.437 12.4921 11.0779 12.9329 11.5187L14.3472 10.1045C14.5186 10.2759 14.5391 10.5094 14.4682 10.6804L12.6208 9.91409ZM13.9763 9C13.3497 9 12.8361 9.39519 12.6208 9.91409L14.4682 10.6804C14.3989 10.8476 14.2221 11 13.9763 11V9ZM15 9H13.9763V11H15V9ZM15 9V9V11C16.1046 11 17 10.1046 17 9H15ZM15 7V9H17V7H15ZM15 7H17C17 5.89543 16.1046 5 15 5V7ZM13.9763 7H15V5H13.9763V7ZM12.6208 6.08591C12.8361 6.60481 13.3497 7 13.9763 7V5C14.2221 5 14.3989 5.15245 14.4682 5.31963L12.6208 6.08591ZM12.9329 4.48127C12.4921 4.92209 12.4039 5.56301 12.6208 6.08591L14.4682 5.31963C14.5391 5.49061 14.5186 5.72406 14.3472 5.89548L12.9329 4.48127ZM13.6569 3.75736L12.9329 4.48127L14.3472 5.89548L15.0711 5.17157L13.6569 3.75736ZM13.6569 3.75736L13.6569 3.75736L15.0711 5.17157C15.8521 4.39052 15.8521 3.12419 15.0711 2.34315L13.6569 3.75736ZM12.2426 2.34315L13.6569 3.75736L15.0711 2.34315L13.6569 0.928932L12.2426 2.34315ZM12.2426 2.34315H12.2426L13.6569 0.928933C12.8758 0.147884 11.6095 0.147884 10.8284 0.928933L12.2426 2.34315ZM11.5187 3.06705L12.2426 2.34315L10.8284 0.928932L10.1045 1.65284L11.5187 3.06705ZM9.91409 3.37918C10.437 3.59608 11.0779 3.50787 11.5187 3.06705L10.1045 1.65284C10.2759 1.48143 10.5094 1.46088 10.6804 1.5318L9.91409 3.37918ZM9 2.02374C9 2.65032 9.39518 3.16395 9.91409 3.37918L10.6804 1.5318C10.8476 1.60115 11 1.77792 11 2.02374H9ZM9 1V2.02374H11V1H9ZM9 1H11C11 -0.104569 10.1046 -1 9 -1V1ZM7 1H9V-1H7V1ZM9 8C9 8.55228 8.55228 9 8 9V11C9.65685 11 11 9.65685 11 8H9ZM8 7C8.55228 7 9 7.44772 9 8H11C11 6.34315 9.65685 5 8 5V7ZM7 8C7 7.44772 7.44772 7 8 7V5C6.34315 5 5 6.34315 5 8H7ZM8 9C7.44772 9 7 8.55228 7 8H5C5 9.65685 6.34315 11 8 11V9Z" fill="url(#paint0_linear_201_5346)" mask="url(#path-1-inside-1_201_5346)"/>
<path d="M4.54043 14.803C4.45989 14.991 4.50188 15.209 4.64645 15.3536C4.79102 15.4981 5.00904 15.5401 5.19696 15.4596L8.69696 13.9596C8.84946 13.8942 8.9596 13.7575 8.99098 13.5946C9.02235 13.4316 8.97087 13.2638 8.85355 13.1464L6.85355 11.1464C6.73624 11.0291 6.56836 10.9776 6.40545 11.009C6.24253 11.0404 6.10578 11.1505 6.04043 11.303L4.54043 14.803Z" fill="url(#paint1_linear_201_5346)"/>
<path d="M4.54043 14.803C4.45989 14.991 4.50188 15.209 4.64645 15.3536C4.79102 15.4981 5.00904 15.5401 5.19696 15.4596L8.69696 13.9596C8.84946 13.8942 8.9596 13.7575 8.99098 13.5946C9.02235 13.4316 8.97087 13.2638 8.85355 13.1464L6.85355 11.1464C6.73624 11.0291 6.56836 10.9776 6.40545 11.009C6.24253 11.0404 6.10578 11.1505 6.04043 11.303L4.54043 14.803Z" fill="url(#paint2_linear_201_5346)"/>
<path d="M4.54043 14.803C4.45989 14.991 4.50188 15.209 4.64645 15.3536C4.79102 15.4981 5.00904 15.5401 5.19696 15.4596L8.69696 13.9596C8.84946 13.8942 8.9596 13.7575 8.99098 13.5946C9.02235 13.4316 8.97087 13.2638 8.85355 13.1464L6.85355 11.1464C6.73624 11.0291 6.56836 10.9776 6.40545 11.009C6.24253 11.0404 6.10578 11.1505 6.04043 11.303L4.54043 14.803Z" stroke="url(#paint3_linear_201_5346)" stroke-linejoin="round"/>
<path d="M4.54043 14.803C4.45989 14.991 4.50188 15.209 4.64645 15.3536C4.79102 15.4981 5.00904 15.5401 5.19696 15.4596L8.69696 13.9596C8.84946 13.8942 8.9596 13.7575 8.99098 13.5946C9.02235 13.4316 8.97087 13.2638 8.85355 13.1464L6.85355 11.1464C6.73624 11.0291 6.56836 10.9776 6.40545 11.009C6.24253 11.0404 6.10578 11.1505 6.04043 11.303L4.54043 14.803Z" stroke="url(#paint4_linear_201_5346)" stroke-linejoin="round"/>
<path d="M6.14645 11.1464C5.95118 11.3417 5.95118 11.6583 6.14645 11.8536L8.14645 13.8536C8.34171 14.0488 8.65829 14.0488 8.85355 13.8536L14.8536 7.85355C15.0488 7.65829 15.0488 7.34171 14.8536 7.14645L12.8536 5.14645C12.6583 4.95118 12.3417 4.95118 12.1464 5.14645L6.14645 11.1464Z" fill="url(#paint5_linear_201_5346)" stroke="url(#paint6_linear_201_5346)" stroke-linejoin="round"/>
<path fill-rule="evenodd" clip-rule="evenodd" d="M6.5 11.5L7.20711 12.2071L13.2071 6.20711L12.5 5.5L6.5 11.5Z" fill="#FCF4B3"/>
<path d="M14.1464 7.85356L14.5 8.20712L14.8536 7.85356C15.0768 7.63032 15.3397 7.23926 15.4185 6.75535C15.5023 6.24043 15.3688 5.66169 14.8536 5.14646C14.3383 4.63123 13.7596 4.49768 13.2447 4.58151C12.7607 4.66028 12.3697 4.92321 12.1464 5.14646L11.7929 5.50001L12.1464 5.85356L14.1464 7.85356Z" fill="url(#paint7_linear_201_5346)" stroke="url(#paint8_linear_201_5346)"/>
</g>
<defs>
<filter id="filter0_ii_201_5346" x="0" y="0" width="18" height="18" filterUnits="userSpaceOnUse" color-interpolation-filters="sRGB">
<feFlood flood-opacity="0" result="BackgroundImageFix"/>
<feBlend mode="normal" in="SourceGraphic" in2="BackgroundImageFix" result="shape"/>
<feColorMatrix in="SourceAlpha" type="matrix" values="0 0 0 0 0 0 0 0 0 0 0 0 0 0 0 0 0 0 127 0" result="hardAlpha"/>
<feOffset dx="4" dy="4"/>
<feGaussianBlur stdDeviation="1"/>
<feComposite in2="hardAlpha" operator="arithmetic" k2="-1" k3="1"/>
<feColorMatrix type="matrix" values="0 0 0 0 1 0 0 0 0 1 0 0 0 0 1 0 0 0 0.33 0"/>
<feBlend mode="normal" in2="shape" result="effect1_innerShadow_201_5346"/>
<feColorMatrix in="SourceAlpha" type="matrix" values="0 0 0 0 0 0 0 0 0 0 0 0 0 0 0 0 0 0 127 0" result="hardAlpha"/>
<feOffset dx="1.5" dy="1.5"/>
<feGaussianBlur stdDeviation="0.5"/>
<feComposite in2="hardAlpha" operator="arithmetic" k2="-1" k3="1"/>
<feColorMatrix type="matrix" values="0 0 0 0 1 0 0 0 0 1 0 0 0 0 1 0 0 0 0.66 0"/>
<feBlend mode="normal" in2="effect1_innerShadow_201_5346" result="effect2_innerShadow_201_5346"/>
</filter>
<linearGradient id="paint0_linear_201_5346" x1="16.0015" y1="16.0015" x2="-0.00153476" y2="-0.00153476" gradientUnits="userSpaceOnUse">
<stop offset="0.14049" stop-color="#4F4F4F"/>
<stop offset="0.857348" stop-color="#CECECE"/>
</linearGradient>
<linearGradient id="paint1_linear_201_5346" x1="6.16667" y1="11.8889" x2="8.11111" y2="13.8333" gradientUnits="userSpaceOnUse">
<stop stop-color="#FAE7D1"/>
<stop offset="1" stop-color="#E89840"/>
</linearGradient>
<linearGradient id="paint2_linear_201_5346" x1="6.94444" y1="12.6667" x2="3.83333" y2="15.7778" gradientUnits="userSpaceOnUse">
<stop stop-color="#584013" stop-opacity="0"/>
<stop offset="0.499937" stop-color="#584013" stop-opacity="0"/>
<stop offset="0.661921" stop-color="#584013"/>
</linearGradient>
<linearGradient id="paint3_linear_201_5346" x1="6.16667" y1="12.6667" x2="7.33333" y2="13.8333" gradientUnits="userSpaceOnUse">
<stop stop-color="#B98926"/>
<stop offset="1" stop-color="#AA6016"/>
</linearGradient>
<linearGradient id="paint4_linear_201_5346" x1="7.72222" y1="11.8889" x2="3.83333" y2="15.7778" gradientUnits="userSpaceOnUse">
<stop offset="0.5" stop-color="#B98926" stop-opacity="0"/>
<stop offset="0.656842" stop-color="#584013"/>
</linearGradient>
<linearGradient id="paint5_linear_201_5346" x1="6.5" y1="11.6579" x2="8.34211" y2="13.5" gradientUnits="userSpaceOnUse">
<stop stop-color="#F5DC60"/>
<stop offset="1" stop-color="#EFCB1A"/>
</linearGradient>
<linearGradient id="paint6_linear_201_5346" x1="6.5" y1="11.6579" x2="8.3421" y2="13.5" gradientUnits="userSpaceOnUse">
<stop stop-color="#E9C755"/>
<stop offset="1" stop-color="#D98F3B"/>
</linearGradient>
<linearGradient id="paint7_linear_201_5346" x1="12.4766" y1="6.30195" x2="14.8903" y2="6.69267" gradientUnits="userSpaceOnUse">
<stop stop-color="#FDD7D1"/>
<stop offset="1" stop-color="#FBACA1"/>
</linearGradient>
<linearGradient id="paint8_linear_201_5346" x1="12.5" y1="6.31509" x2="14.8693" y2="6.72938" gradientUnits="userSpaceOnUse">
<stop stop-color="#E1B3AD"/>
<stop offset="1" stop-color="#B17971"/>
</linearGradient>
<clipPath id="clip0_201_5346">
<rect width="16" height="16" fill="white"/>
</clipPath>
</defs>
</svg>
