<svg width="16" height="16" viewBox="0 0 16 16" fill="none" xmlns="http://www.w3.org/2000/svg">
<g clip-path="url(#clip0_188_3337)">
<mask id="path-1-outside-1_188_3337" maskUnits="userSpaceOnUse" x="0" y="5" width="12" height="11" fill="black">
<rect fill="white" y="5" width="12" height="11"/>
<path fill-rule="evenodd" clip-rule="evenodd" d="M3 6C1.89543 6 1 6.89543 1 8V10C1 11.1046 1.89543 12 3 12H5C5.5 12 5.70993 12.1737 6 12.5C6.69859 13.2859 5 15 5 15C6.72268 14.5693 8.81632 13.0258 9.3638 11.967C10.2947 11.7959 11 10.9803 11 10V8C11 6.89543 10.1046 6 9 6H3Z"/>
</mask>
<path fill-rule="evenodd" clip-rule="evenodd" d="M3 6C1.89543 6 1 6.89543 1 8V10C1 11.1046 1.89543 12 3 12H5C5.5 12 5.70993 12.1737 6 12.5C6.69859 13.2859 5 15 5 15C6.72268 14.5693 8.81632 13.0258 9.3638 11.967C10.2947 11.7959 11 10.9803 11 10V8C11 6.89543 10.1046 6 9 6H3Z" fill="url(#paint0_linear_188_3337)"/>
<path d="M6 12.5L6.74741 11.8356L6 12.5ZM5 15L4.28969 14.2961C3.9739 14.6148 3.90899 15.1048 4.13092 15.4947C4.35285 15.8846 4.80729 16.079 5.24254 15.9701L5 15ZM9.3638 11.967L9.18305 10.9835C8.87883 11.0394 8.61759 11.2329 8.47552 11.5077L9.3638 11.967ZM2 8C2 7.44772 2.44772 7 3 7V5C1.34315 5 0 6.34315 0 8H2ZM2 10V8H0V10H2ZM3 11C2.44772 11 2 10.5523 2 10H0C0 11.6569 1.34315 13 3 13V11ZM5 11H3V13H5V11ZM5 13C5.06788 13 5.09862 13.006 5.10578 13.0076C5.10943 13.0084 5.10184 13.0067 5.09226 13.0013C5.08505 12.9973 5.09212 12.9997 5.11845 13.0236C5.14776 13.0503 5.18787 13.0915 5.25259 13.1644L6.74741 11.8356C6.5942 11.6633 6.37473 11.4263 6.06518 11.2539C5.7295 11.067 5.37413 11 5 11V13ZM5.25259 13.1644C5.13411 13.0311 5.1842 12.9078 5.16284 13.0027C5.13904 13.1086 5.06276 13.2823 4.91984 13.5054C4.78471 13.7165 4.62581 13.9168 4.49537 14.0689C4.43139 14.1436 4.37704 14.2033 4.33984 14.2433C4.3213 14.2632 4.30719 14.278 4.29848 14.287C4.29412 14.2916 4.29113 14.2946 4.28962 14.2962C4.28887 14.2969 4.28849 14.2973 4.28849 14.2973C4.2885 14.2973 4.2886 14.2972 4.2888 14.297C4.28889 14.2969 4.28902 14.2968 4.28917 14.2966C4.28924 14.2966 4.28937 14.2964 4.28941 14.2964C4.28955 14.2963 4.28969 14.2961 5 15C5.71031 15.7039 5.71047 15.7037 5.71063 15.7036C5.71069 15.7035 5.71086 15.7033 5.71099 15.7032C5.71124 15.703 5.71152 15.7027 5.71182 15.7024C5.71243 15.7017 5.71315 15.701 5.71396 15.7002C5.7156 15.6985 5.71764 15.6964 5.72008 15.694C5.72496 15.689 5.73142 15.6823 5.73933 15.6741C5.75516 15.6576 5.77686 15.6349 5.8034 15.6064C5.85636 15.5495 5.92926 15.4692 6.01361 15.3708C6.17983 15.177 6.40191 14.8997 6.6041 14.584C6.79851 14.2804 7.01589 13.8782 7.11409 13.4416C7.21475 12.9941 7.21519 12.3619 6.74741 11.8356L5.25259 13.1644ZM5.24254 15.9701C6.26047 15.7157 7.32787 15.1536 8.20083 14.5349C9.0496 13.9334 9.86748 13.1701 10.2521 12.4263L8.47552 11.5077C8.31264 11.8227 7.80996 12.3606 7.04437 12.9032C6.30297 13.4286 5.46221 13.8537 4.75746 14.0299L5.24254 15.9701ZM10 10C10 10.4891 9.64787 10.898 9.18305 10.9835L9.54454 12.9505C10.9415 12.6938 12 11.4716 12 10H10ZM10 8V10H12V8H10ZM9 7C9.55228 7 10 7.44772 10 8H12C12 6.34315 10.6569 5 9 5V7ZM3 7H9V5H3V7Z" fill="#5887B8" mask="url(#path-1-outside-1_188_3337)"/>
<mask id="path-3-inside-2_188_3337" fill="white">
<path fill-rule="evenodd" clip-rule="evenodd" d="M3 6C1.89543 6 1 6.89543 1 8V10C1 11.1046 1.89543 12 3 12H5C5.5 12 5.70993 12.1737 6 12.5C6.69859 13.2859 5 15 5 15C6.72268 14.5693 8.81632 13.0258 9.3638 11.967C10.2947 11.7959 11 10.9803 11 10V8C11 6.89543 10.1046 6 9 6H3Z"/>
</mask>
<path d="M6 12.5L6.74741 11.8356L6 12.5ZM5 15L4.28969 14.2961C3.9739 14.6148 3.90899 15.1048 4.13092 15.4947C4.35285 15.8846 4.80729 16.079 5.24254 15.9701L5 15ZM9.3638 11.967L9.18305 10.9835C8.87883 11.0394 8.61759 11.2329 8.47552 11.5077L9.3638 11.967ZM2 8C2 7.44772 2.44772 7 3 7V5C1.34315 5 0 6.34315 0 8H2ZM2 10V8H0V10H2ZM3 11C2.44772 11 2 10.5523 2 10H0C0 11.6569 1.34315 13 3 13V11ZM5 11H3V13H5V11ZM5 13C5.06788 13 5.09862 13.006 5.10578 13.0076C5.10943 13.0084 5.10184 13.0067 5.09226 13.0013C5.08505 12.9973 5.09212 12.9997 5.11845 13.0236C5.14776 13.0503 5.18787 13.0915 5.25259 13.1644L6.74741 11.8356C6.5942 11.6633 6.37473 11.4263 6.06518 11.2539C5.7295 11.067 5.37413 11 5 11V13ZM5.25259 13.1644C5.13411 13.0311 5.1842 12.9078 5.16284 13.0027C5.13904 13.1086 5.06276 13.2823 4.91984 13.5054C4.78471 13.7165 4.62581 13.9168 4.49537 14.0689C4.43139 14.1436 4.37704 14.2033 4.33984 14.2433C4.3213 14.2632 4.30719 14.278 4.29848 14.287C4.29412 14.2916 4.29113 14.2946 4.28962 14.2962C4.28887 14.2969 4.28849 14.2973 4.28849 14.2973C4.2885 14.2973 4.2886 14.2972 4.2888 14.297C4.28889 14.2969 4.28902 14.2968 4.28917 14.2966C4.28924 14.2966 4.28937 14.2964 4.28941 14.2964C4.28955 14.2963 4.28969 14.2961 5 15C5.71031 15.7039 5.71047 15.7037 5.71063 15.7036C5.71069 15.7035 5.71086 15.7033 5.71099 15.7032C5.71124 15.703 5.71152 15.7027 5.71182 15.7024C5.71243 15.7017 5.71315 15.701 5.71396 15.7002C5.7156 15.6985 5.71764 15.6964 5.72008 15.694C5.72496 15.689 5.73142 15.6823 5.73933 15.6741C5.75516 15.6576 5.77686 15.6349 5.8034 15.6064C5.85636 15.5495 5.92926 15.4692 6.01361 15.3708C6.17983 15.177 6.40191 14.8997 6.6041 14.584C6.79851 14.2804 7.01589 13.8782 7.11409 13.4416C7.21475 12.9941 7.21519 12.3619 6.74741 11.8356L5.25259 13.1644ZM5.24254 15.9701C6.26047 15.7157 7.32787 15.1536 8.20083 14.5349C9.0496 13.9334 9.86748 13.1701 10.2521 12.4263L8.47552 11.5077C8.31264 11.8227 7.80996 12.3606 7.04437 12.9032C6.30297 13.4286 5.46221 13.8537 4.75746 14.0299L5.24254 15.9701ZM10 10C10 10.4891 9.64787 10.898 9.18305 10.9835L9.54454 12.9505C10.9415 12.6938 12 11.4716 12 10H10ZM10 8V10H12V8H10ZM9 7C9.55228 7 10 7.44772 10 8H12C12 6.34315 10.6569 5 9 5V7ZM3 7H9V5H3V7Z" fill="white" style="mix-blend-mode:soft-light" mask="url(#path-3-inside-2_188_3337)"/>
<path d="M4.54043 10.803C4.45989 10.991 4.50188 11.209 4.64645 11.3536C4.79102 11.4981 5.00904 11.5401 5.19696 11.4596L8.69696 9.95957C8.84946 9.89422 8.9596 9.75747 8.99098 9.59455C9.02235 9.43164 8.97087 9.26376 8.85355 9.14645L6.85355 7.14645C6.73624 7.02913 6.56836 6.97765 6.40545 7.00902C6.24253 7.0404 6.10578 7.15054 6.04043 7.30304L4.54043 10.803Z" fill="url(#paint1_linear_188_3337)"/>
<path d="M4.54043 10.803C4.45989 10.991 4.50188 11.209 4.64645 11.3536C4.79102 11.4981 5.00904 11.5401 5.19696 11.4596L8.69696 9.95957C8.84946 9.89422 8.9596 9.75747 8.99098 9.59455C9.02235 9.43164 8.97087 9.26376 8.85355 9.14645L6.85355 7.14645C6.73624 7.02913 6.56836 6.97765 6.40545 7.00902C6.24253 7.0404 6.10578 7.15054 6.04043 7.30304L4.54043 10.803Z" fill="url(#paint2_linear_188_3337)"/>
<path d="M4.54043 10.803C4.45989 10.991 4.50188 11.209 4.64645 11.3536C4.79102 11.4981 5.00904 11.5401 5.19696 11.4596L8.69696 9.95957C8.84946 9.89422 8.9596 9.75747 8.99098 9.59455C9.02235 9.43164 8.97087 9.26376 8.85355 9.14645L6.85355 7.14645C6.73624 7.02913 6.56836 6.97765 6.40545 7.00902C6.24253 7.0404 6.10578 7.15054 6.04043 7.30304L4.54043 10.803Z" stroke="url(#paint3_linear_188_3337)" stroke-linejoin="round"/>
<path d="M4.54043 10.803C4.45989 10.991 4.50188 11.209 4.64645 11.3536C4.79102 11.4981 5.00904 11.5401 5.19696 11.4596L8.69696 9.95957C8.84946 9.89422 8.9596 9.75747 8.99098 9.59455C9.02235 9.43164 8.97087 9.26376 8.85355 9.14645L6.85355 7.14645C6.73624 7.02913 6.56836 6.97765 6.40545 7.00902C6.24253 7.0404 6.10578 7.15054 6.04043 7.30304L4.54043 10.803Z" stroke="url(#paint4_linear_188_3337)" stroke-linejoin="round"/>
<path d="M6.14645 7.14645C5.95118 7.34171 5.95118 7.65829 6.14645 7.85355L8.14645 9.85355C8.34171 10.0488 8.65829 10.0488 8.85355 9.85355L14.8536 3.85355C15.0488 3.65829 15.0488 3.34171 14.8536 3.14645L12.8536 1.14645C12.6583 0.951184 12.3417 0.951184 12.1464 1.14645L6.14645 7.14645Z" fill="url(#paint5_linear_188_3337)" stroke="url(#paint6_linear_188_3337)" stroke-linejoin="round"/>
<path fill-rule="evenodd" clip-rule="evenodd" d="M6.5 7.5L7.20711 8.20711L13.2071 2.20711L12.5 1.5L6.5 7.5Z" fill="#FCF4B3"/>
<path d="M14.1464 3.85356L14.5 4.20712L14.8536 3.85356C15.0768 3.63032 15.3397 3.23926 15.4185 2.75535C15.5023 2.24043 15.3688 1.66169 14.8536 1.14646C14.3383 0.631226 13.7596 0.497682 13.2447 0.581506C12.7607 0.660283 12.3697 0.923213 12.1464 1.14646L11.7929 1.50001L12.1464 1.85356L14.1464 3.85356Z" fill="url(#paint7_linear_188_3337)" stroke="url(#paint8_linear_188_3337)"/>
</g>
<defs>
<linearGradient id="paint0_linear_188_3337" x1="1" y1="6" x2="11" y2="15" gradientUnits="userSpaceOnUse">
<stop stop-color="#EFF5FE"/>
<stop offset="1" stop-color="#B5D5FD"/>
</linearGradient>
<linearGradient id="paint1_linear_188_3337" x1="6.16667" y1="7.88889" x2="8.11111" y2="9.83333" gradientUnits="userSpaceOnUse">
<stop stop-color="#FAE7D1"/>
<stop offset="1" stop-color="#E89840"/>
</linearGradient>
<linearGradient id="paint2_linear_188_3337" x1="6.94444" y1="8.66667" x2="3.83333" y2="11.7778" gradientUnits="userSpaceOnUse">
<stop stop-color="#584013" stop-opacity="0"/>
<stop offset="0.499937" stop-color="#584013" stop-opacity="0"/>
<stop offset="0.661921" stop-color="#584013"/>
</linearGradient>
<linearGradient id="paint3_linear_188_3337" x1="6.16667" y1="8.66667" x2="7.33333" y2="9.83333" gradientUnits="userSpaceOnUse">
<stop stop-color="#B98926"/>
<stop offset="1" stop-color="#AA6016"/>
</linearGradient>
<linearGradient id="paint4_linear_188_3337" x1="7.72222" y1="7.88889" x2="3.83333" y2="11.7778" gradientUnits="userSpaceOnUse">
<stop offset="0.5" stop-color="#B98926" stop-opacity="0"/>
<stop offset="0.656842" stop-color="#584013"/>
</linearGradient>
<linearGradient id="paint5_linear_188_3337" x1="6.5" y1="7.65789" x2="8.34211" y2="9.5" gradientUnits="userSpaceOnUse">
<stop stop-color="#F5DC60"/>
<stop offset="1" stop-color="#EFCB1A"/>
</linearGradient>
<linearGradient id="paint6_linear_188_3337" x1="6.5" y1="7.65789" x2="8.3421" y2="9.5" gradientUnits="userSpaceOnUse">
<stop stop-color="#E9C755"/>
<stop offset="1" stop-color="#D98F3B"/>
</linearGradient>
<linearGradient id="paint7_linear_188_3337" x1="12.4766" y1="2.30195" x2="14.8903" y2="2.69267" gradientUnits="userSpaceOnUse">
<stop stop-color="#FDD7D1"/>
<stop offset="1" stop-color="#FBACA1"/>
</linearGradient>
<linearGradient id="paint8_linear_188_3337" x1="12.5" y1="2.31509" x2="14.8693" y2="2.72938" gradientUnits="userSpaceOnUse">
<stop stop-color="#E1B3AD"/>
<stop offset="1" stop-color="#B17971"/>
</linearGradient>
<clipPath id="clip0_188_3337">
<rect width="16" height="16" fill="white"/>
</clipPath>
</defs>
</svg>
