<svg width="16" height="16" viewBox="0 0 16 16" fill="none" xmlns="http://www.w3.org/2000/svg">
<g clip-path="url(#clip0_188_3368)">
<mask id="path-1-outside-1_188_3368" maskUnits="userSpaceOnUse" x="0" y="0" width="12" height="11" fill="black">
<rect fill="white" width="12" height="11"/>
<path fill-rule="evenodd" clip-rule="evenodd" d="M9 1C10.1046 1 11 1.89543 11 3V5C11 6.10457 10.1046 7 9 7H7C6.5 7 6.29007 7.17367 6 7.5C5.30141 8.28591 7 10 7 10C5.27732 9.56933 3.18368 8.0258 2.6362 6.96699C1.70533 6.79592 1 5.98033 1 5V3C1 1.89543 1.89543 1 3 1H9Z"/>
</mask>
<path fill-rule="evenodd" clip-rule="evenodd" d="M9 1C10.1046 1 11 1.89543 11 3V5C11 6.10457 10.1046 7 9 7H7C6.5 7 6.29007 7.17367 6 7.5C5.30141 8.28591 7 10 7 10C5.27732 9.56933 3.18368 8.0258 2.6362 6.96699C1.70533 6.79592 1 5.98033 1 5V3C1 1.89543 1.89543 1 3 1H9Z" fill="url(#paint0_linear_188_3368)"/>
<path d="M6 7.5L5.25259 6.83564L6 7.5ZM7 10L7.71031 9.29611C8.0261 9.61478 8.09101 10.1048 7.86908 10.4947C7.64715 10.8846 7.19271 11.079 6.75746 10.9701L7 10ZM2.6362 6.96699L2.81695 5.98346C3.12117 6.03937 3.38241 6.23292 3.52448 6.50769L2.6362 6.96699ZM10 3C10 2.44772 9.55228 2 9 2V0C10.6569 0 12 1.34315 12 3H10ZM10 5V3H12V5H10ZM9 6C9.55228 6 10 5.55228 10 5H12C12 6.65685 10.6569 8 9 8V6ZM7 6H9V8H7V6ZM7 8C6.93212 8 6.90138 8.00598 6.89422 8.0076C6.89057 8.00842 6.89816 8.00666 6.90774 8.00133C6.91495 7.99731 6.90788 7.99965 6.88155 8.02363C6.85224 8.05031 6.81213 8.09155 6.74741 8.16436L5.25259 6.83564C5.4058 6.66327 5.62527 6.42627 5.93482 6.25392C6.2705 6.06702 6.62587 6 7 6V8ZM6.74741 8.16436C6.86589 8.03107 6.8158 7.90781 6.83716 8.00274C6.86096 8.10858 6.93724 8.28227 7.08016 8.50544C7.21529 8.71647 7.37419 8.91683 7.50463 9.06894C7.56861 9.14356 7.62296 9.20333 7.66016 9.24327C7.6787 9.26318 7.69281 9.27798 7.70152 9.28703C7.70588 9.29155 7.70887 9.29462 7.71038 9.29617C7.71113 9.29694 7.71151 9.29733 7.71151 9.29732C7.7115 9.29732 7.7114 9.29722 7.7112 9.29702C7.71111 9.29692 7.71098 9.29679 7.71083 9.29664C7.71076 9.29656 7.71063 9.29643 7.71059 9.29639C7.71045 9.29626 7.71031 9.29611 7 10C6.28969 10.7039 6.28953 10.7037 6.28937 10.7036C6.28931 10.7035 6.28914 10.7033 6.28901 10.7032C6.28876 10.703 6.28848 10.7027 6.28818 10.7024C6.28757 10.7017 6.28685 10.701 6.28604 10.7002C6.2844 10.6985 6.28236 10.6964 6.27992 10.694C6.27504 10.689 6.26858 10.6823 6.26067 10.6741C6.24484 10.6576 6.22314 10.6349 6.1966 10.6064C6.14364 10.5495 6.07074 10.4692 5.98639 10.3708C5.82017 10.177 5.59809 9.89973 5.3959 9.58399C5.20149 9.28041 4.98411 8.87821 4.88591 8.44163C4.78525 7.99413 4.78481 7.36188 5.25259 6.83564L6.74741 8.16436ZM6.75746 10.9701C5.73953 10.7157 4.67213 10.1536 3.79917 9.53492C2.9504 8.93338 2.13252 8.1701 1.74792 7.4263L3.52448 6.50769C3.68736 6.82269 4.19004 7.36058 4.95563 7.90317C5.69703 8.42862 6.53779 8.85367 7.24254 9.02986L6.75746 10.9701ZM2 5C2 5.48909 2.35213 5.89804 2.81695 5.98346L2.45546 7.95052C1.05853 7.69381 0 6.47157 0 5H2ZM2 3V5H0V3H2ZM3 2C2.44772 2 2 2.44772 2 3H0C0 1.34315 1.34315 0 3 0V2ZM9 2H3V0H9V2Z" fill="#8AABCD" mask="url(#path-1-outside-1_188_3368)"/>
<mask id="path-3-inside-2_188_3368" fill="white">
<path fill-rule="evenodd" clip-rule="evenodd" d="M9 1C10.1046 1 11 1.89543 11 3V5C11 6.10457 10.1046 7 9 7H7C6.5 7 6.29007 7.17367 6 7.5C5.30141 8.28591 7 10 7 10C5.27732 9.56933 3.18368 8.0258 2.6362 6.96699C1.70533 6.79592 1 5.98033 1 5V3C1 1.89543 1.89543 1 3 1H9Z"/>
</mask>
<path d="M6 7.5L5.25259 6.83564L6 7.5ZM7 10L7.71031 9.29611C8.0261 9.61478 8.09101 10.1048 7.86908 10.4947C7.64715 10.8846 7.19271 11.079 6.75746 10.9701L7 10ZM2.6362 6.96699L2.81695 5.98346C3.12117 6.03937 3.38241 6.23292 3.52448 6.50769L2.6362 6.96699ZM10 3C10 2.44772 9.55228 2 9 2V0C10.6569 0 12 1.34315 12 3H10ZM10 5V3H12V5H10ZM9 6C9.55228 6 10 5.55228 10 5H12C12 6.65685 10.6569 8 9 8V6ZM7 6H9V8H7V6ZM7 8C6.93212 8 6.90138 8.00598 6.89422 8.0076C6.89057 8.00842 6.89816 8.00666 6.90774 8.00133C6.91495 7.99731 6.90788 7.99965 6.88155 8.02363C6.85224 8.05031 6.81213 8.09155 6.74741 8.16436L5.25259 6.83564C5.4058 6.66327 5.62527 6.42627 5.93482 6.25392C6.2705 6.06702 6.62587 6 7 6V8ZM6.74741 8.16436C6.86589 8.03107 6.8158 7.90781 6.83716 8.00274C6.86096 8.10858 6.93724 8.28227 7.08016 8.50544C7.21529 8.71647 7.37419 8.91683 7.50463 9.06894C7.56861 9.14356 7.62296 9.20333 7.66016 9.24327C7.6787 9.26318 7.69281 9.27798 7.70152 9.28703C7.70588 9.29155 7.70887 9.29462 7.71038 9.29617C7.71113 9.29694 7.71151 9.29733 7.71151 9.29732C7.7115 9.29732 7.7114 9.29722 7.7112 9.29702C7.71111 9.29692 7.71098 9.29679 7.71083 9.29664C7.71076 9.29656 7.71063 9.29643 7.71059 9.29639C7.71045 9.29626 7.71031 9.29611 7 10C6.28969 10.7039 6.28953 10.7037 6.28937 10.7036C6.28931 10.7035 6.28914 10.7033 6.28901 10.7032C6.28876 10.703 6.28848 10.7027 6.28818 10.7024C6.28757 10.7017 6.28685 10.701 6.28604 10.7002C6.2844 10.6985 6.28236 10.6964 6.27992 10.694C6.27504 10.689 6.26858 10.6823 6.26067 10.6741C6.24484 10.6576 6.22314 10.6349 6.1966 10.6064C6.14364 10.5495 6.07074 10.4692 5.98639 10.3708C5.82017 10.177 5.59809 9.89973 5.3959 9.58399C5.20149 9.28041 4.98411 8.87821 4.88591 8.44163C4.78525 7.99413 4.78481 7.36188 5.25259 6.83564L6.74741 8.16436ZM6.75746 10.9701C5.73953 10.7157 4.67213 10.1536 3.79917 9.53492C2.9504 8.93338 2.13252 8.1701 1.74792 7.4263L3.52448 6.50769C3.68736 6.82269 4.19004 7.36058 4.95563 7.90317C5.69703 8.42862 6.53779 8.85367 7.24254 9.02986L6.75746 10.9701ZM2 5C2 5.48909 2.35213 5.89804 2.81695 5.98346L2.45546 7.95052C1.05853 7.69381 0 6.47157 0 5H2ZM2 3V5H0V3H2ZM3 2C2.44772 2 2 2.44772 2 3H0C0 1.34315 1.34315 0 3 0V2ZM9 2H3V0H9V2Z" fill="white" style="mix-blend-mode:soft-light" mask="url(#path-3-inside-2_188_3368)"/>
<mask id="path-5-outside-3_188_3368" maskUnits="userSpaceOnUse" x="4" y="4" width="12" height="11" fill="black">
<rect fill="white" x="4" y="4" width="12" height="11"/>
<path fill-rule="evenodd" clip-rule="evenodd" d="M13 5C14.1046 5 15 5.89543 15 7V9C15 10.1046 14.1046 11 13 11H11C10.5 11 10.2901 11.1737 10 11.5C9.30141 12.2859 11 14 11 14C9.27732 13.5693 7.18368 12.0258 6.6362 10.967C5.70533 10.7959 5 9.98033 5 9V7C5 5.89543 5.89543 5 7 5H13Z"/>
</mask>
<path fill-rule="evenodd" clip-rule="evenodd" d="M13 5C14.1046 5 15 5.89543 15 7V9C15 10.1046 14.1046 11 13 11H11C10.5 11 10.2901 11.1737 10 11.5C9.30141 12.2859 11 14 11 14C9.27732 13.5693 7.18368 12.0258 6.6362 10.967C5.70533 10.7959 5 9.98033 5 9V7C5 5.89543 5.89543 5 7 5H13Z" fill="url(#paint1_linear_188_3368)"/>
<path d="M10 11.5L9.25259 10.8356L10 11.5ZM11 14L11.7103 13.2961C12.0261 13.6148 12.091 14.1048 11.8691 14.4947C11.6471 14.8846 11.1927 15.079 10.7575 14.9701L11 14ZM6.6362 10.967L6.81695 9.98346C7.12117 10.0394 7.38241 10.2329 7.52448 10.5077L6.6362 10.967ZM14 7C14 6.44772 13.5523 6 13 6V4C14.6569 4 16 5.34315 16 7H14ZM14 9V7H16V9H14ZM13 10C13.5523 10 14 9.55228 14 9H16C16 10.6569 14.6569 12 13 12V10ZM11 10H13V12H11V10ZM11 12C10.9321 12 10.9014 12.006 10.8942 12.0076C10.8906 12.0084 10.8982 12.0067 10.9077 12.0013C10.9149 11.9973 10.9079 11.9997 10.8815 12.0236C10.8522 12.0503 10.8121 12.0915 10.7474 12.1644L9.25259 10.8356C9.4058 10.6633 9.62527 10.4263 9.93482 10.2539C10.2705 10.067 10.6259 10 11 10V12ZM10.7474 12.1644C10.8659 12.0311 10.8158 11.9078 10.8372 12.0027C10.861 12.1086 10.9372 12.2823 11.0802 12.5054C11.2153 12.7165 11.3742 12.9168 11.5046 13.0689C11.5686 13.1436 11.623 13.2033 11.6602 13.2433C11.6787 13.2632 11.6928 13.278 11.7015 13.287C11.7059 13.2916 11.7089 13.2946 11.7104 13.2962C11.7111 13.2969 11.7115 13.2973 11.7115 13.2973C11.7115 13.2973 11.7114 13.2972 11.7112 13.297C11.7111 13.2969 11.711 13.2968 11.7108 13.2966C11.7108 13.2966 11.7106 13.2964 11.7106 13.2964C11.7105 13.2963 11.7103 13.2961 11 14C10.2897 14.7039 10.2895 14.7037 10.2894 14.7036C10.2893 14.7035 10.2891 14.7033 10.289 14.7032C10.2888 14.703 10.2885 14.7027 10.2882 14.7024C10.2876 14.7017 10.2869 14.701 10.286 14.7002C10.2844 14.6985 10.2824 14.6964 10.2799 14.694C10.275 14.689 10.2686 14.6823 10.2607 14.6741C10.2448 14.6576 10.2231 14.6349 10.1966 14.6064C10.1436 14.5495 10.0707 14.4692 9.98639 14.3708C9.82017 14.177 9.59809 13.8997 9.3959 13.584C9.20149 13.2804 8.98411 12.8782 8.88591 12.4416C8.78525 11.9941 8.78481 11.3619 9.25259 10.8356L10.7474 12.1644ZM10.7575 14.9701C9.73953 14.7157 8.67213 14.1536 7.79917 13.5349C6.9504 12.9334 6.13252 12.1701 5.74792 11.4263L7.52448 10.5077C7.68736 10.8227 8.19004 11.3606 8.95563 11.9032C9.69703 12.4286 10.5378 12.8537 11.2425 13.0299L10.7575 14.9701ZM6 9C6 9.48909 6.35213 9.89804 6.81695 9.98346L6.45546 11.9505C5.05853 11.6938 4 10.4716 4 9H6ZM6 7V9H4V7H6ZM7 6C6.44772 6 6 6.44772 6 7H4C4 5.34315 5.34315 4 7 4V6ZM13 6H7V4H13V6Z" fill="#5887B8" mask="url(#path-5-outside-3_188_3368)"/>
<mask id="path-7-inside-4_188_3368" fill="white">
<path fill-rule="evenodd" clip-rule="evenodd" d="M13 5C14.1046 5 15 5.89543 15 7V9C15 10.1046 14.1046 11 13 11H11C10.5 11 10.2901 11.1737 10 11.5C9.30141 12.2859 11 14 11 14C9.27732 13.5693 7.18368 12.0258 6.6362 10.967C5.70533 10.7959 5 9.98033 5 9V7C5 5.89543 5.89543 5 7 5H13Z"/>
</mask>
<path d="M10 11.5L9.25259 10.8356L10 11.5ZM11 14L11.7103 13.2961C12.0261 13.6148 12.091 14.1048 11.8691 14.4947C11.6471 14.8846 11.1927 15.079 10.7575 14.9701L11 14ZM6.6362 10.967L6.81695 9.98346C7.12117 10.0394 7.38241 10.2329 7.52448 10.5077L6.6362 10.967ZM14 7C14 6.44772 13.5523 6 13 6V4C14.6569 4 16 5.34315 16 7H14ZM14 9V7H16V9H14ZM13 10C13.5523 10 14 9.55228 14 9H16C16 10.6569 14.6569 12 13 12V10ZM11 10H13V12H11V10ZM11 12C10.9321 12 10.9014 12.006 10.8942 12.0076C10.8906 12.0084 10.8982 12.0067 10.9077 12.0013C10.9149 11.9973 10.9079 11.9997 10.8815 12.0236C10.8522 12.0503 10.8121 12.0915 10.7474 12.1644L9.25259 10.8356C9.4058 10.6633 9.62527 10.4263 9.93482 10.2539C10.2705 10.067 10.6259 10 11 10V12ZM10.7474 12.1644C10.8659 12.0311 10.8158 11.9078 10.8372 12.0027C10.861 12.1086 10.9372 12.2823 11.0802 12.5054C11.2153 12.7165 11.3742 12.9168 11.5046 13.0689C11.5686 13.1436 11.623 13.2033 11.6602 13.2433C11.6787 13.2632 11.6928 13.278 11.7015 13.287C11.7059 13.2916 11.7089 13.2946 11.7104 13.2962C11.7111 13.2969 11.7115 13.2973 11.7115 13.2973C11.7115 13.2973 11.7114 13.2972 11.7112 13.297C11.7111 13.2969 11.711 13.2968 11.7108 13.2966C11.7108 13.2966 11.7106 13.2964 11.7106 13.2964C11.7105 13.2963 11.7103 13.2961 11 14C10.2897 14.7039 10.2895 14.7037 10.2894 14.7036C10.2893 14.7035 10.2891 14.7033 10.289 14.7032C10.2888 14.703 10.2885 14.7027 10.2882 14.7024C10.2876 14.7017 10.2869 14.701 10.286 14.7002C10.2844 14.6985 10.2824 14.6964 10.2799 14.694C10.275 14.689 10.2686 14.6823 10.2607 14.6741C10.2448 14.6576 10.2231 14.6349 10.1966 14.6064C10.1436 14.5495 10.0707 14.4692 9.98639 14.3708C9.82017 14.177 9.59809 13.8997 9.3959 13.584C9.20149 13.2804 8.98411 12.8782 8.88591 12.4416C8.78525 11.9941 8.78481 11.3619 9.25259 10.8356L10.7474 12.1644ZM10.7575 14.9701C9.73953 14.7157 8.67213 14.1536 7.79917 13.5349C6.9504 12.9334 6.13252 12.1701 5.74792 11.4263L7.52448 10.5077C7.68736 10.8227 8.19004 11.3606 8.95563 11.9032C9.69703 12.4286 10.5378 12.8537 11.2425 13.0299L10.7575 14.9701ZM6 9C6 9.48909 6.35213 9.89804 6.81695 9.98346L6.45546 11.9505C5.05853 11.6938 4 10.4716 4 9H6ZM6 7V9H4V7H6ZM7 6C6.44772 6 6 6.44772 6 7H4C4 5.34315 5.34315 4 7 4V6ZM13 6H7V4H13V6Z" fill="white" style="mix-blend-mode:soft-light" mask="url(#path-7-inside-4_188_3368)"/>
<circle cx="12.5" cy="12.5" r="3" fill="url(#paint2_radial_188_3368)" stroke="#BC4305"/>
<path fill-rule="evenodd" clip-rule="evenodd" d="M14 13H11V12H14V13Z" fill="white"/>
</g>
<defs>
<linearGradient id="paint0_linear_188_3368" x1="11" y1="1" x2="1" y2="10" gradientUnits="userSpaceOnUse">
<stop stop-color="#F3F8FF"/>
<stop offset="1" stop-color="#D5E7FD"/>
</linearGradient>
<linearGradient id="paint1_linear_188_3368" x1="14.05" y1="14" x2="5.95" y2="5" gradientUnits="userSpaceOnUse">
<stop stop-color="#B5D5FD"/>
<stop offset="1" stop-color="#EFF5FE"/>
</linearGradient>
<radialGradient id="paint2_radial_188_3368" cx="0" cy="0" r="1" gradientUnits="userSpaceOnUse" gradientTransform="translate(11 11) rotate(45) scale(4.24264)">
<stop stop-color="#FFAF7D"/>
<stop offset="1" stop-color="#FF6D00"/>
</radialGradient>
<clipPath id="clip0_188_3368">
<rect width="16" height="16" fill="white"/>
</clipPath>
</defs>
</svg>
