<svg width="16" height="16" viewBox="0 0 16 16" fill="none" xmlns="http://www.w3.org/2000/svg">
<mask id="path-1-outside-1_188_3307" maskUnits="userSpaceOnUse" x="2" y="2" width="12" height="11" fill="black">
<rect fill="white" x="2" y="2" width="12" height="11"/>
<path fill-rule="evenodd" clip-rule="evenodd" d="M5 3C3.89543 3 3 3.89543 3 5V7C3 8.10457 3.89543 9 5 9H7C7.5 9 7.70993 9.17367 8 9.5C8.69859 10.2859 7 12 7 12C8.72268 11.5693 10.8163 10.0258 11.3638 8.96699C12.2947 8.79592 13 7.98033 13 7V5C13 3.89543 12.1046 3 11 3H5Z"/>
</mask>
<path fill-rule="evenodd" clip-rule="evenodd" d="M5 3C3.89543 3 3 3.89543 3 5V7C3 8.10457 3.89543 9 5 9H7C7.5 9 7.70993 9.17367 8 9.5C8.69859 10.2859 7 12 7 12C8.72268 11.5693 10.8163 10.0258 11.3638 8.96699C12.2947 8.79592 13 7.98033 13 7V5C13 3.89543 12.1046 3 11 3H5Z" fill="url(#paint0_linear_188_3307)"/>
<path d="M8 9.5L8.74741 8.83564L8 9.5ZM7 12L6.28969 11.2961C5.9739 11.6148 5.90899 12.1048 6.13092 12.4947C6.35285 12.8846 6.80729 13.079 7.24254 12.9701L7 12ZM11.3638 8.96699L11.1831 7.98346C10.8788 8.03937 10.6176 8.23292 10.4755 8.50769L11.3638 8.96699ZM4 5C4 4.44772 4.44772 4 5 4V2C3.34315 2 2 3.34315 2 5H4ZM4 7V5H2V7H4ZM5 8C4.44772 8 4 7.55228 4 7H2C2 8.65685 3.34315 10 5 10V8ZM7 8H5V10H7V8ZM7 10C7.06788 10 7.09862 10.006 7.10578 10.0076C7.10943 10.0084 7.10184 10.0067 7.09226 10.0013C7.08505 9.99731 7.09212 9.99965 7.11845 10.0236C7.14776 10.0503 7.18787 10.0915 7.25259 10.1644L8.74741 8.83564C8.5942 8.66327 8.37473 8.42627 8.06518 8.25392C7.7295 8.06702 7.37413 8 7 8V10ZM7.25259 10.1644C7.13411 10.0311 7.1842 9.90781 7.16284 10.0027C7.13904 10.1086 7.06276 10.2823 6.91984 10.5054C6.78471 10.7165 6.62581 10.9168 6.49537 11.0689C6.43139 11.1436 6.37704 11.2033 6.33984 11.2433C6.3213 11.2632 6.30719 11.278 6.29848 11.287C6.29412 11.2916 6.29113 11.2946 6.28962 11.2962C6.28887 11.2969 6.28849 11.2973 6.28849 11.2973C6.2885 11.2973 6.2886 11.2972 6.2888 11.297C6.28889 11.2969 6.28902 11.2968 6.28917 11.2966C6.28924 11.2966 6.28937 11.2964 6.28941 11.2964C6.28955 11.2963 6.28969 11.2961 7 12C7.71031 12.7039 7.71047 12.7037 7.71063 12.7036C7.71069 12.7035 7.71086 12.7033 7.71099 12.7032C7.71124 12.703 7.71152 12.7027 7.71182 12.7024C7.71243 12.7017 7.71315 12.701 7.71396 12.7002C7.7156 12.6985 7.71764 12.6964 7.72008 12.694C7.72496 12.689 7.73142 12.6823 7.73933 12.6741C7.75516 12.6576 7.77686 12.6349 7.8034 12.6064C7.85636 12.5495 7.92926 12.4692 8.01361 12.3708C8.17983 12.177 8.40191 11.8997 8.6041 11.584C8.79851 11.2804 9.01589 10.8782 9.11409 10.4416C9.21475 9.99413 9.21519 9.36188 8.74741 8.83564L7.25259 10.1644ZM7.24254 12.9701C8.26047 12.7157 9.32787 12.1536 10.2008 11.5349C11.0496 10.9334 11.8675 10.1701 12.2521 9.4263L10.4755 8.50769C10.3126 8.82269 9.80996 9.36058 9.04437 9.90317C8.30297 10.4286 7.46221 10.8537 6.75746 11.0299L7.24254 12.9701ZM12 7C12 7.48909 11.6479 7.89804 11.1831 7.98346L11.5445 9.95052C12.9415 9.69381 14 8.47157 14 7H12ZM12 5V7H14V5H12ZM11 4C11.5523 4 12 4.44772 12 5H14C14 3.34315 12.6569 2 11 2V4ZM5 4H11V2H5V4Z" fill="#5887B8" mask="url(#path-1-outside-1_188_3307)"/>
<mask id="path-3-inside-2_188_3307" fill="white">
<path fill-rule="evenodd" clip-rule="evenodd" d="M5 3C3.89543 3 3 3.89543 3 5V7C3 8.10457 3.89543 9 5 9H7C7.5 9 7.70993 9.17367 8 9.5C8.69859 10.2859 7 12 7 12C8.72268 11.5693 10.8163 10.0258 11.3638 8.96699C12.2947 8.79592 13 7.98033 13 7V5C13 3.89543 12.1046 3 11 3H5Z"/>
</mask>
<path d="M8 9.5L8.74741 8.83564L8 9.5ZM7 12L6.28969 11.2961C5.9739 11.6148 5.90899 12.1048 6.13092 12.4947C6.35285 12.8846 6.80729 13.079 7.24254 12.9701L7 12ZM11.3638 8.96699L11.1831 7.98346C10.8788 8.03937 10.6176 8.23292 10.4755 8.50769L11.3638 8.96699ZM4 5C4 4.44772 4.44772 4 5 4V2C3.34315 2 2 3.34315 2 5H4ZM4 7V5H2V7H4ZM5 8C4.44772 8 4 7.55228 4 7H2C2 8.65685 3.34315 10 5 10V8ZM7 8H5V10H7V8ZM7 10C7.06788 10 7.09862 10.006 7.10578 10.0076C7.10943 10.0084 7.10184 10.0067 7.09226 10.0013C7.08505 9.99731 7.09212 9.99965 7.11845 10.0236C7.14776 10.0503 7.18787 10.0915 7.25259 10.1644L8.74741 8.83564C8.5942 8.66327 8.37473 8.42627 8.06518 8.25392C7.7295 8.06702 7.37413 8 7 8V10ZM7.25259 10.1644C7.13411 10.0311 7.1842 9.90781 7.16284 10.0027C7.13904 10.1086 7.06276 10.2823 6.91984 10.5054C6.78471 10.7165 6.62581 10.9168 6.49537 11.0689C6.43139 11.1436 6.37704 11.2033 6.33984 11.2433C6.3213 11.2632 6.30719 11.278 6.29848 11.287C6.29412 11.2916 6.29113 11.2946 6.28962 11.2962C6.28887 11.2969 6.28849 11.2973 6.28849 11.2973C6.2885 11.2973 6.2886 11.2972 6.2888 11.297C6.28889 11.2969 6.28902 11.2968 6.28917 11.2966C6.28924 11.2966 6.28937 11.2964 6.28941 11.2964C6.28955 11.2963 6.28969 11.2961 7 12C7.71031 12.7039 7.71047 12.7037 7.71063 12.7036C7.71069 12.7035 7.71086 12.7033 7.71099 12.7032C7.71124 12.703 7.71152 12.7027 7.71182 12.7024C7.71243 12.7017 7.71315 12.701 7.71396 12.7002C7.7156 12.6985 7.71764 12.6964 7.72008 12.694C7.72496 12.689 7.73142 12.6823 7.73933 12.6741C7.75516 12.6576 7.77686 12.6349 7.8034 12.6064C7.85636 12.5495 7.92926 12.4692 8.01361 12.3708C8.17983 12.177 8.40191 11.8997 8.6041 11.584C8.79851 11.2804 9.01589 10.8782 9.11409 10.4416C9.21475 9.99413 9.21519 9.36188 8.74741 8.83564L7.25259 10.1644ZM7.24254 12.9701C8.26047 12.7157 9.32787 12.1536 10.2008 11.5349C11.0496 10.9334 11.8675 10.1701 12.2521 9.4263L10.4755 8.50769C10.3126 8.82269 9.80996 9.36058 9.04437 9.90317C8.30297 10.4286 7.46221 10.8537 6.75746 11.0299L7.24254 12.9701ZM12 7C12 7.48909 11.6479 7.89804 11.1831 7.98346L11.5445 9.95052C12.9415 9.69381 14 8.47157 14 7H12ZM12 5V7H14V5H12ZM11 4C11.5523 4 12 4.44772 12 5H14C14 3.34315 12.6569 2 11 2V4ZM5 4H11V2H5V4Z" fill="white" style="mix-blend-mode:soft-light" mask="url(#path-3-inside-2_188_3307)"/>
<defs>
<linearGradient id="paint0_linear_188_3307" x1="3" y1="3" x2="13" y2="12" gradientUnits="userSpaceOnUse">
<stop stop-color="#EFF5FE"/>
<stop offset="1" stop-color="#B5D5FD"/>
</linearGradient>
</defs>
</svg>
