<svg width="16" height="16" viewBox="0 0 16 16" fill="none" xmlns="http://www.w3.org/2000/svg">
<g clip-path="url(#clip0_188_3233)">
<mask id="path-1-outside-1_188_3233" maskUnits="userSpaceOnUse" x="5" y="0" width="11" height="14" fill="black">
<rect fill="white" x="5" width="11" height="14"/>
<path fill-rule="evenodd" clip-rule="evenodd" d="M9 1L6 4V11L9 13H15V1H9Z"/>
</mask>
<path d="M6 4L5.29289 3.29289C5.10536 3.48043 5 3.73478 5 4H6ZM9 1V0C8.73478 0 8.48043 0.105357 8.29289 0.292893L9 1ZM6 11H5C5 11.3344 5.1671 11.6466 5.4453 11.8321L6 11ZM9 13L8.4453 13.8321C8.60957 13.9416 8.80258 14 9 14V13ZM15 13V14C15.5523 14 16 13.5523 16 13H15ZM15 1H16C16 0.447715 15.5523 0 15 0V1ZM6.70711 4.70711L9.70711 1.70711L8.29289 0.292893L5.29289 3.29289L6.70711 4.70711ZM7 11V4H5V11H7ZM9.5547 12.1679L6.5547 10.1679L5.4453 11.8321L8.4453 13.8321L9.5547 12.1679ZM15 12H9V14H15V12ZM14 1V13H16V1H14ZM9 2H15V0H9V2Z" fill="url(#paint0_linear_188_3233)" mask="url(#path-1-outside-1_188_3233)"/>
<path d="M6 4L9 1V13L6 11V4Z" fill="url(#paint1_linear_188_3233)"/>
<rect x="9" y="1" width="6" height="12" fill="url(#paint2_linear_188_3233)"/>
<mask id="path-5-inside-2_188_3233" fill="white">
<path fill-rule="evenodd" clip-rule="evenodd" d="M9 1L6 4V11L9 13H15V1H9Z"/>
</mask>
<path d="M6 4L5.29289 3.29289C5.10536 3.48043 5 3.73478 5 4H6ZM9 1V0C8.73478 0 8.48043 0.105357 8.29289 0.292893L9 1ZM6 11H5C5 11.3344 5.1671 11.6466 5.4453 11.8321L6 11ZM9 13L8.4453 13.8321C8.60957 13.9416 8.80258 14 9 14V13ZM15 13V14C15.5523 14 16 13.5523 16 13H15ZM15 1H16C16 0.447715 15.5523 0 15 0V1ZM6.70711 4.70711L9.70711 1.70711L8.29289 0.292893L5.29289 3.29289L6.70711 4.70711ZM7 11V4H5V11H7ZM9.5547 12.1679L6.5547 10.1679L5.4453 11.8321L8.4453 13.8321L9.5547 12.1679ZM15 12H9V14H15V12ZM14 1V13H16V1H14ZM9 2H15V0H9V2Z" fill="white" style="mix-blend-mode:soft-light" mask="url(#path-5-inside-2_188_3233)"/>
<rect x="10" y="3" width="4" height="1" rx="0.5" fill="black" fill-opacity="0.33"/>
<rect x="10" y="5" width="4" height="1" rx="0.5" fill="black" fill-opacity="0.33"/>
<circle cx="13" cy="8" r="1" fill="url(#paint3_linear_188_3233)"/>
<path d="M7.5 11H4.5C4.5 12.6667 4.5 13.5 3 14.3333V16H9L9 14.3333C7.5 13.5 7.5 12.6667 7.5 11Z" fill="url(#paint4_linear_188_3233)"/>
<path d="M4.99861 11.5H7.00139C7.00761 12.1058 7.04097 12.6594 7.21706 13.1485C7.43172 13.7448 7.83664 14.2048 8.5 14.6191L8.5 15.5H3.5V14.6191C4.16336 14.2048 4.56829 13.7448 4.78294 13.1485C4.95903 12.6594 4.99239 12.1058 4.99861 11.5Z" stroke="black" stroke-opacity="0.33"/>
<rect x="0.5" y="3.5" width="11" height="9" rx="0.5" fill="url(#paint5_linear_188_3233)" stroke="url(#paint6_linear_188_3233)" stroke-linejoin="round"/>
<rect x="2" y="5" width="8" height="6" fill="#6EA4DC"/>
<rect x="2" y="5" width="8" height="6" fill="url(#paint7_linear_188_3233)"/>
<rect x="2" y="5" width="8" height="6" fill="url(#paint8_linear_188_3233)"/>
<rect x="2.5" y="5.5" width="7" height="5" stroke="black" stroke-opacity="0.33" stroke-linejoin="round" style="mix-blend-mode:overlay"/>
<mask id="path-15-inside-3_188_3233" fill="white">
<path fill-rule="evenodd" clip-rule="evenodd" d="M6.5 16C8.433 16 10 14.433 10 12.5C10 10.567 8.433 9 6.5 9C4.567 9 3 10.567 3 12.5C3 14.433 4.567 16 6.5 16ZM6.5 13C6.77614 13 7 12.7761 7 12.5C7 12.2239 6.77614 12 6.5 12C6.22386 12 6 12.2239 6 12.5C6 12.7761 6.22386 13 6.5 13Z"/>
</mask>
<path fill-rule="evenodd" clip-rule="evenodd" d="M6.5 16C8.433 16 10 14.433 10 12.5C10 10.567 8.433 9 6.5 9C4.567 9 3 10.567 3 12.5C3 14.433 4.567 16 6.5 16ZM6.5 13C6.77614 13 7 12.7761 7 12.5C7 12.2239 6.77614 12 6.5 12C6.22386 12 6 12.2239 6 12.5C6 12.7761 6.22386 13 6.5 13Z" fill="url(#paint9_linear_188_3233)"/>
<path d="M9 12.5C9 13.8807 7.88071 15 6.5 15V17C8.98528 17 11 14.9853 11 12.5H9ZM6.5 10C7.88071 10 9 11.1193 9 12.5H11C11 10.0147 8.98528 8 6.5 8V10ZM4 12.5C4 11.1193 5.11929 10 6.5 10V8C4.01472 8 2 10.0147 2 12.5H4ZM6.5 15C5.11929 15 4 13.8807 4 12.5H2C2 14.9853 4.01472 17 6.5 17V15ZM6 12.5C6 12.2239 6.22386 12 6.5 12V14C7.32843 14 8 13.3284 8 12.5H6ZM6.5 13C6.22386 13 6 12.7761 6 12.5H8C8 11.6716 7.32843 11 6.5 11V13ZM7 12.5C7 12.7761 6.77614 13 6.5 13V11C5.67157 11 5 11.6716 5 12.5H7ZM6.5 12C6.77614 12 7 12.2239 7 12.5H5C5 13.3284 5.67157 14 6.5 14V12Z" fill="url(#paint10_linear_188_3233)" mask="url(#path-15-inside-3_188_3233)"/>
<mask id="path-17-inside-4_188_3233" fill="white">
<path fill-rule="evenodd" clip-rule="evenodd" d="M12.5 16C14.433 16 16 14.433 16 12.5C16 10.567 14.433 9 12.5 9C10.567 9 9 10.567 9 12.5C9 14.433 10.567 16 12.5 16ZM12.5 13C12.7761 13 13 12.7761 13 12.5C13 12.2239 12.7761 12 12.5 12C12.2239 12 12 12.2239 12 12.5C12 12.7761 12.2239 13 12.5 13Z"/>
</mask>
<path fill-rule="evenodd" clip-rule="evenodd" d="M12.5 16C14.433 16 16 14.433 16 12.5C16 10.567 14.433 9 12.5 9C10.567 9 9 10.567 9 12.5C9 14.433 10.567 16 12.5 16ZM12.5 13C12.7761 13 13 12.7761 13 12.5C13 12.2239 12.7761 12 12.5 12C12.2239 12 12 12.2239 12 12.5C12 12.7761 12.2239 13 12.5 13Z" fill="url(#paint11_linear_188_3233)"/>
<path d="M15 12.5C15 13.8807 13.8807 15 12.5 15V17C14.9853 17 17 14.9853 17 12.5H15ZM12.5 10C13.8807 10 15 11.1193 15 12.5H17C17 10.0147 14.9853 8 12.5 8V10ZM10 12.5C10 11.1193 11.1193 10 12.5 10V8C10.0147 8 8 10.0147 8 12.5H10ZM12.5 15C11.1193 15 10 13.8807 10 12.5H8C8 14.9853 10.0147 17 12.5 17V15ZM12 12.5C12 12.2239 12.2239 12 12.5 12V14C13.3284 14 14 13.3284 14 12.5H12ZM12.5 13C12.2239 13 12 12.7761 12 12.5H14C14 11.6716 13.3284 11 12.5 11V13ZM13 12.5C13 12.7761 12.7761 13 12.5 13V11C11.6716 11 11 11.6716 11 12.5H13ZM12.5 12C12.7761 12 13 12.2239 13 12.5H11C11 13.3284 11.6716 14 12.5 14V12Z" fill="url(#paint12_linear_188_3233)" mask="url(#path-17-inside-4_188_3233)"/>
<rect x="6.5" y="11.5" width="6" height="2" fill="url(#paint13_linear_188_3233)"/>
<rect x="6.5" y="11.5" width="6" height="2" stroke="url(#paint14_linear_188_3233)" stroke-linejoin="round"/>
<rect x="6.5" y="11.5" width="6" height="2" stroke="url(#paint15_linear_188_3233)" stroke-linejoin="round"/>
</g>
<defs>
<linearGradient id="paint0_linear_188_3233" x1="9" y1="1" x2="15" y2="13" gradientUnits="userSpaceOnUse">
<stop stop-color="#CACACA"/>
<stop offset="1" stop-color="#636363"/>
</linearGradient>
<linearGradient id="paint1_linear_188_3233" x1="6" y1="2" x2="9" y2="11.5" gradientUnits="userSpaceOnUse">
<stop stop-color="#E1E1E1"/>
<stop offset="1" stop-color="#D2D2D4"/>
</linearGradient>
<linearGradient id="paint2_linear_188_3233" x1="12" y1="1" x2="12" y2="13" gradientUnits="userSpaceOnUse">
<stop stop-color="#C9CACF"/>
<stop offset="1" stop-color="#AEAFB7"/>
</linearGradient>
<linearGradient id="paint3_linear_188_3233" x1="12" y1="7" x2="14" y2="9" gradientUnits="userSpaceOnUse">
<stop stop-color="#A4C8A0"/>
<stop offset="1" stop-color="#42A13B"/>
</linearGradient>
<linearGradient id="paint4_linear_188_3233" x1="6" y1="11" x2="6" y2="16" gradientUnits="userSpaceOnUse">
<stop stop-color="#B5B7BC"/>
<stop offset="1" stop-color="#F1F1F2"/>
</linearGradient>
<linearGradient id="paint5_linear_188_3233" x1="0" y1="3" x2="12.531" y2="12.2832" gradientUnits="userSpaceOnUse">
<stop stop-color="#F0F0F2"/>
<stop offset="1" stop-color="#B2B3BB"/>
</linearGradient>
<linearGradient id="paint6_linear_188_3233" x1="0" y1="3" x2="12" y2="13" gradientUnits="userSpaceOnUse">
<stop stop-color="#CBCBCB"/>
<stop offset="1" stop-color="#636363"/>
</linearGradient>
<linearGradient id="paint7_linear_188_3233" x1="9.33333" y1="5" x2="2.66667" y2="11" gradientUnits="userSpaceOnUse">
<stop stop-color="white" stop-opacity="0.2"/>
<stop offset="0.494495" stop-color="white" stop-opacity="0.66"/>
<stop offset="0.5" stop-color="white" stop-opacity="0.33"/>
<stop offset="1" stop-color="white" stop-opacity="0"/>
</linearGradient>
<linearGradient id="paint8_linear_188_3233" x1="10" y1="8" x2="2" y2="8" gradientUnits="userSpaceOnUse">
<stop offset="0.205" stop-color="#96BDF1"/>
<stop offset="1" stop-color="#90BDF6" stop-opacity="0"/>
</linearGradient>
<linearGradient id="paint9_linear_188_3233" x1="5" y1="11" x2="8.5" y2="14.5" gradientUnits="userSpaceOnUse">
<stop stop-color="#D9D9D9"/>
<stop offset="1" stop-color="#737373"/>
</linearGradient>
<linearGradient id="paint10_linear_188_3233" x1="10" y1="16" x2="3" y2="9" gradientUnits="userSpaceOnUse">
<stop stop-color="#404040"/>
<stop offset="1" stop-color="#8D8D8D"/>
</linearGradient>
<linearGradient id="paint11_linear_188_3233" x1="11" y1="11" x2="14" y2="14" gradientUnits="userSpaceOnUse">
<stop stop-color="#D9D9D9"/>
<stop offset="1" stop-color="#737373"/>
</linearGradient>
<linearGradient id="paint12_linear_188_3233" x1="16" y1="16" x2="9" y2="9" gradientUnits="userSpaceOnUse">
<stop stop-color="#404040"/>
<stop offset="1" stop-color="#8D8D8D"/>
</linearGradient>
<linearGradient id="paint13_linear_188_3233" x1="7.71429" y1="12.1429" x2="7.98901" y2="13.5165" gradientUnits="userSpaceOnUse">
<stop stop-color="#D9D9D9"/>
<stop offset="1" stop-color="#737373"/>
</linearGradient>
<linearGradient id="paint14_linear_188_3233" x1="9.5" y1="14" x2="9.5" y2="11" gradientUnits="userSpaceOnUse">
<stop offset="0.33" stop-color="#515151"/>
<stop offset="0.66" stop-color="#8D8D8D"/>
</linearGradient>
<linearGradient id="paint15_linear_188_3233" x1="7" y1="12.5" x2="12" y2="12.5" gradientUnits="userSpaceOnUse">
<stop stop-color="#484848"/>
<stop offset="0.515" stop-color="#484848" stop-opacity="0"/>
<stop offset="1" stop-color="#484848"/>
</linearGradient>
<clipPath id="clip0_188_3233">
<rect width="16" height="16" fill="white"/>
</clipPath>
</defs>
</svg>
