<svg width="16" height="16" viewBox="0 0 16 16" fill="none" xmlns="http://www.w3.org/2000/svg">
<g clip-path="url(#clip0_188_3205)">
<mask id="path-1-outside-1_188_3205" maskUnits="userSpaceOnUse" x="5" y="0" width="11" height="14" fill="black">
<rect fill="white" x="5" width="11" height="14"/>
<path fill-rule="evenodd" clip-rule="evenodd" d="M9 1L6 4V11L9 13H15V1H9Z"/>
</mask>
<path d="M6 4L5.29289 3.29289C5.10536 3.48043 5 3.73478 5 4H6ZM9 1V0C8.73478 0 8.48043 0.105357 8.29289 0.292893L9 1ZM6 11H5C5 11.3344 5.1671 11.6466 5.4453 11.8321L6 11ZM9 13L8.4453 13.8321C8.60957 13.9416 8.80258 14 9 14V13ZM15 13V14C15.5523 14 16 13.5523 16 13H15ZM15 1H16C16 0.447715 15.5523 0 15 0V1ZM6.70711 4.70711L9.70711 1.70711L8.29289 0.292893L5.29289 3.29289L6.70711 4.70711ZM7 11V4H5V11H7ZM9.5547 12.1679L6.5547 10.1679L5.4453 11.8321L8.4453 13.8321L9.5547 12.1679ZM15 12H9V14H15V12ZM14 1V13H16V1H14ZM9 2H15V0H9V2Z" fill="url(#paint0_linear_188_3205)" mask="url(#path-1-outside-1_188_3205)"/>
<path d="M6 4L9 1V13L6 11V4Z" fill="url(#paint1_linear_188_3205)"/>
<rect x="9" y="1" width="6" height="12" fill="url(#paint2_linear_188_3205)"/>
<mask id="path-5-inside-2_188_3205" fill="white">
<path fill-rule="evenodd" clip-rule="evenodd" d="M9 1L6 4V11L9 13H15V1H9Z"/>
</mask>
<path d="M6 4L5.29289 3.29289C5.10536 3.48043 5 3.73478 5 4H6ZM9 1V0C8.73478 0 8.48043 0.105357 8.29289 0.292893L9 1ZM6 11H5C5 11.3344 5.1671 11.6466 5.4453 11.8321L6 11ZM9 13L8.4453 13.8321C8.60957 13.9416 8.80258 14 9 14V13ZM15 13V14C15.5523 14 16 13.5523 16 13H15ZM15 1H16C16 0.447715 15.5523 0 15 0V1ZM6.70711 4.70711L9.70711 1.70711L8.29289 0.292893L5.29289 3.29289L6.70711 4.70711ZM7 11V4H5V11H7ZM9.5547 12.1679L6.5547 10.1679L5.4453 11.8321L8.4453 13.8321L9.5547 12.1679ZM15 12H9V14H15V12ZM14 1V13H16V1H14ZM9 2H15V0H9V2Z" fill="white" style="mix-blend-mode:soft-light" mask="url(#path-5-inside-2_188_3205)"/>
<rect x="10" y="3" width="4" height="1" rx="0.5" fill="black" fill-opacity="0.33"/>
<rect x="10" y="5" width="4" height="1" rx="0.5" fill="black" fill-opacity="0.33"/>
<circle cx="13" cy="8" r="1" fill="url(#paint3_linear_188_3205)"/>
<path d="M7.5 11H4.5C4.5 12.6667 4.5 13.5 3 14.3333V16H9L9 14.3333C7.5 13.5 7.5 12.6667 7.5 11Z" fill="url(#paint4_linear_188_3205)"/>
<path d="M4.99861 11.5H7.00139C7.00761 12.1058 7.04097 12.6594 7.21706 13.1485C7.43172 13.7448 7.83664 14.2048 8.5 14.6191L8.5 15.5H3.5V14.6191C4.16336 14.2048 4.56829 13.7448 4.78294 13.1485C4.95903 12.6594 4.99239 12.1058 4.99861 11.5Z" stroke="black" stroke-opacity="0.33"/>
<rect x="0.5" y="3.5" width="11" height="9" rx="0.5" fill="url(#paint5_linear_188_3205)" stroke="url(#paint6_linear_188_3205)" stroke-linejoin="round"/>
<rect x="2" y="5" width="8" height="6" fill="#6EA4DC"/>
<rect x="2" y="5" width="8" height="6" fill="url(#paint7_linear_188_3205)"/>
<rect x="2" y="5" width="8" height="6" fill="url(#paint8_linear_188_3205)"/>
<rect x="2.5" y="5.5" width="7" height="5" stroke="black" stroke-opacity="0.33" stroke-linejoin="round" style="mix-blend-mode:overlay"/>
<mask id="path-15-outside-3_188_3205" maskUnits="userSpaceOnUse" x="6" y="6" width="10" height="10" fill="black">
<rect fill="white" x="6" y="6" width="10" height="10"/>
<path fill-rule="evenodd" clip-rule="evenodd" d="M7 15V13.5L10 11V8.5L11.5 7H13L15 9V10.5L13.5 12H11V13H10V14H9V15H7ZM13 8L14 9L13 10L12 9L13 8Z"/>
</mask>
<g filter="url(#filter0_i_188_3205)">
<path fill-rule="evenodd" clip-rule="evenodd" d="M7 15V13.5L10 11V8.5L11.5 7H13L15 9V10.5L13.5 12H11V13H10V14H9V15H7ZM13 8L14 9L13 10L12 9L13 8Z" fill="#F4D847"/>
</g>
<path d="M7 13.5L6.35982 12.7318L6 13.0316V13.5H7ZM7 15H6V16H7V15ZM10 11L10.6402 11.7682L11 11.4684V11H10ZM10 8.5L9.29289 7.79289L9 8.08579V8.5H10ZM11.5 7V6H11.0858L10.7929 6.29289L11.5 7ZM13 7L13.7071 6.29289L13.4142 6H13V7ZM15 9H16V8.58579L15.7071 8.29289L15 9ZM15 10.5L15.7071 11.2071L16 10.9142V10.5H15ZM13.5 12V13H13.9142L14.2071 12.7071L13.5 12ZM11 12V11H10V12H11ZM11 13V14H12V13H11ZM10 13V12H9V13H10ZM10 14V15H11V14H10ZM9 14V13H8V14H9ZM9 15V16H10V15H9ZM14 9L14.7071 9.70711L15.4142 9L14.7071 8.29289L14 9ZM13 8L13.7071 7.29289L13 6.58579L12.2929 7.29289L13 8ZM13 10L12.2929 10.7071L13 11.4142L13.7071 10.7071L13 10ZM12 9L11.2929 8.29289L10.5858 9L11.2929 9.70711L12 9ZM6 13.5V15H8V13.5H6ZM9.35982 10.2318L6.35982 12.7318L7.64018 14.2682L10.6402 11.7682L9.35982 10.2318ZM9 8.5V11H11V8.5H9ZM10.7929 6.29289L9.29289 7.79289L10.7071 9.20711L12.2071 7.70711L10.7929 6.29289ZM13 6H11.5V8H13V6ZM15.7071 8.29289L13.7071 6.29289L12.2929 7.70711L14.2929 9.70711L15.7071 8.29289ZM16 10.5V9H14V10.5H16ZM14.2071 12.7071L15.7071 11.2071L14.2929 9.79289L12.7929 11.2929L14.2071 12.7071ZM11 13H13.5V11H11V13ZM12 13V12H10V13H12ZM10 14H11V12H10V14ZM11 14V13H9V14H11ZM9 15H10V13H9V15ZM10 15V14H8V15H10ZM7 16H9V14H7V16ZM14.7071 8.29289L13.7071 7.29289L12.2929 8.70711L13.2929 9.70711L14.7071 8.29289ZM13.7071 10.7071L14.7071 9.70711L13.2929 8.29289L12.2929 9.29289L13.7071 10.7071ZM11.2929 9.70711L12.2929 10.7071L13.7071 9.29289L12.7071 8.29289L11.2929 9.70711ZM12.2929 7.29289L11.2929 8.29289L12.7071 9.70711L13.7071 8.70711L12.2929 7.29289Z" fill="url(#paint9_linear_188_3205)" mask="url(#path-15-outside-3_188_3205)"/>
</g>
<defs>
<filter id="filter0_i_188_3205" x="6" y="6" width="10" height="10" filterUnits="userSpaceOnUse" color-interpolation-filters="sRGB">
<feFlood flood-opacity="0" result="BackgroundImageFix"/>
<feBlend mode="normal" in="SourceGraphic" in2="BackgroundImageFix" result="shape"/>
<feColorMatrix in="SourceAlpha" type="matrix" values="0 0 0 0 0 0 0 0 0 0 0 0 0 0 0 0 0 0 127 0" result="hardAlpha"/>
<feOffset dx="2" dy="1"/>
<feComposite in2="hardAlpha" operator="arithmetic" k2="-1" k3="1"/>
<feColorMatrix type="matrix" values="0 0 0 0 1 0 0 0 0 1 0 0 0 0 1 0 0 0 0.5 0"/>
<feBlend mode="normal" in2="shape" result="effect1_innerShadow_188_3205"/>
</filter>
<linearGradient id="paint0_linear_188_3205" x1="9" y1="1" x2="15" y2="13" gradientUnits="userSpaceOnUse">
<stop stop-color="#CACACA"/>
<stop offset="1" stop-color="#636363"/>
</linearGradient>
<linearGradient id="paint1_linear_188_3205" x1="6" y1="2" x2="9" y2="11.5" gradientUnits="userSpaceOnUse">
<stop stop-color="#E1E1E1"/>
<stop offset="1" stop-color="#D2D2D4"/>
</linearGradient>
<linearGradient id="paint2_linear_188_3205" x1="12" y1="1" x2="12" y2="13" gradientUnits="userSpaceOnUse">
<stop stop-color="#C9CACF"/>
<stop offset="1" stop-color="#AEAFB7"/>
</linearGradient>
<linearGradient id="paint3_linear_188_3205" x1="12" y1="7" x2="14" y2="9" gradientUnits="userSpaceOnUse">
<stop stop-color="#A4C8A0"/>
<stop offset="1" stop-color="#42A13B"/>
</linearGradient>
<linearGradient id="paint4_linear_188_3205" x1="6" y1="11" x2="6" y2="16" gradientUnits="userSpaceOnUse">
<stop stop-color="#B5B7BC"/>
<stop offset="1" stop-color="#F1F1F2"/>
</linearGradient>
<linearGradient id="paint5_linear_188_3205" x1="0" y1="3" x2="12.531" y2="12.2832" gradientUnits="userSpaceOnUse">
<stop stop-color="#F0F0F2"/>
<stop offset="1" stop-color="#B2B3BB"/>
</linearGradient>
<linearGradient id="paint6_linear_188_3205" x1="0" y1="3" x2="12" y2="13" gradientUnits="userSpaceOnUse">
<stop stop-color="#CBCBCB"/>
<stop offset="1" stop-color="#636363"/>
</linearGradient>
<linearGradient id="paint7_linear_188_3205" x1="9.33333" y1="5" x2="2.66667" y2="11" gradientUnits="userSpaceOnUse">
<stop stop-color="white" stop-opacity="0.2"/>
<stop offset="0.494495" stop-color="white" stop-opacity="0.66"/>
<stop offset="0.5" stop-color="white" stop-opacity="0.33"/>
<stop offset="1" stop-color="white" stop-opacity="0"/>
</linearGradient>
<linearGradient id="paint8_linear_188_3205" x1="10" y1="8" x2="2" y2="8" gradientUnits="userSpaceOnUse">
<stop offset="0.205" stop-color="#96BDF1"/>
<stop offset="1" stop-color="#90BDF6" stop-opacity="0"/>
</linearGradient>
<linearGradient id="paint9_linear_188_3205" x1="8.5" y1="8.5" x2="12.7612" y2="14.0656" gradientUnits="userSpaceOnUse">
<stop stop-color="#EAC15E"/>
<stop offset="1" stop-color="#C98032"/>
</linearGradient>
<clipPath id="clip0_188_3205">
<rect width="16" height="16" fill="white"/>
</clipPath>
</defs>
</svg>
