<svg width="16" height="16" viewBox="0 0 16 16" fill="none" xmlns="http://www.w3.org/2000/svg">
<g clip-path="url(#clip0_188_3122)">
<mask id="path-1-outside-1_188_3122" maskUnits="userSpaceOnUse" x="5" y="0" width="11" height="14" fill="black">
<rect fill="white" x="5" width="11" height="14"/>
<path fill-rule="evenodd" clip-rule="evenodd" d="M9 1L6 4V11L9 13H15V1H9Z"/>
</mask>
<path d="M6 4L5.29289 3.29289C5.10536 3.48043 5 3.73478 5 4H6ZM9 1V0C8.73478 0 8.48043 0.105357 8.29289 0.292893L9 1ZM6 11H5C5 11.3344 5.1671 11.6466 5.4453 11.8321L6 11ZM9 13L8.4453 13.8321C8.60957 13.9416 8.80258 14 9 14V13ZM15 13V14C15.5523 14 16 13.5523 16 13H15ZM15 1H16C16 0.447715 15.5523 0 15 0V1ZM6.70711 4.70711L9.70711 1.70711L8.29289 0.292893L5.29289 3.29289L6.70711 4.70711ZM7 11V4H5V11H7ZM9.5547 12.1679L6.5547 10.1679L5.4453 11.8321L8.4453 13.8321L9.5547 12.1679ZM15 12H9V14H15V12ZM14 1V13H16V1H14ZM9 2H15V0H9V2Z" fill="url(#paint0_linear_188_3122)" mask="url(#path-1-outside-1_188_3122)"/>
<path d="M6 4L9 1V13L6 11V4Z" fill="url(#paint1_linear_188_3122)"/>
<rect x="9" y="1" width="6" height="12" fill="url(#paint2_linear_188_3122)"/>
<mask id="path-5-inside-2_188_3122" fill="white">
<path fill-rule="evenodd" clip-rule="evenodd" d="M9 1L6 4V11L9 13H15V1H9Z"/>
</mask>
<path d="M6 4L5.29289 3.29289C5.10536 3.48043 5 3.73478 5 4H6ZM9 1V0C8.73478 0 8.48043 0.105357 8.29289 0.292893L9 1ZM6 11H5C5 11.3344 5.1671 11.6466 5.4453 11.8321L6 11ZM9 13L8.4453 13.8321C8.60957 13.9416 8.80258 14 9 14V13ZM15 13V14C15.5523 14 16 13.5523 16 13H15ZM15 1H16C16 0.447715 15.5523 0 15 0V1ZM6.70711 4.70711L9.70711 1.70711L8.29289 0.292893L5.29289 3.29289L6.70711 4.70711ZM7 11V4H5V11H7ZM9.5547 12.1679L6.5547 10.1679L5.4453 11.8321L8.4453 13.8321L9.5547 12.1679ZM15 12H9V14H15V12ZM14 1V13H16V1H14ZM9 2H15V0H9V2Z" fill="white" style="mix-blend-mode:soft-light" mask="url(#path-5-inside-2_188_3122)"/>
<rect x="10" y="3" width="4" height="1" rx="0.5" fill="black" fill-opacity="0.33"/>
<rect x="10" y="5" width="4" height="1" rx="0.5" fill="black" fill-opacity="0.33"/>
<circle cx="13" cy="8" r="1" fill="url(#paint3_linear_188_3122)"/>
<path d="M7.5 11H4.5C4.5 12.6667 4.5 13.5 3 14.3333V16H9L9 14.3333C7.5 13.5 7.5 12.6667 7.5 11Z" fill="url(#paint4_linear_188_3122)"/>
<path d="M4.99861 11.5H7.00139C7.00761 12.1058 7.04097 12.6594 7.21706 13.1485C7.43172 13.7448 7.83664 14.2048 8.5 14.6191L8.5 15.5H3.5V14.6191C4.16336 14.2048 4.56829 13.7448 4.78294 13.1485C4.95903 12.6594 4.99239 12.1058 4.99861 11.5Z" stroke="black" stroke-opacity="0.33"/>
<rect x="0.5" y="3.5" width="11" height="9" rx="0.5" fill="url(#paint5_linear_188_3122)" stroke="url(#paint6_linear_188_3122)" stroke-linejoin="round"/>
<rect x="2" y="5" width="8" height="6" fill="#6EA4DC"/>
<rect x="2" y="5" width="8" height="6" fill="url(#paint7_linear_188_3122)"/>
<rect x="2" y="5" width="8" height="6" fill="url(#paint8_linear_188_3122)"/>
<rect x="2.5" y="5.5" width="7" height="5" stroke="black" stroke-opacity="0.33" stroke-linejoin="round" style="mix-blend-mode:overlay"/>
<path d="M4.54043 14.803C4.45989 14.991 4.50188 15.209 4.64645 15.3536C4.79102 15.4981 5.00904 15.5401 5.19696 15.4596L8.69696 13.9596C8.84946 13.8942 8.9596 13.7575 8.99098 13.5946C9.02235 13.4316 8.97087 13.2638 8.85355 13.1464L6.85355 11.1464C6.73624 11.0291 6.56836 10.9776 6.40545 11.009C6.24253 11.0404 6.10578 11.1505 6.04043 11.303L4.54043 14.803Z" fill="url(#paint9_linear_188_3122)"/>
<path d="M4.54043 14.803C4.45989 14.991 4.50188 15.209 4.64645 15.3536C4.79102 15.4981 5.00904 15.5401 5.19696 15.4596L8.69696 13.9596C8.84946 13.8942 8.9596 13.7575 8.99098 13.5946C9.02235 13.4316 8.97087 13.2638 8.85355 13.1464L6.85355 11.1464C6.73624 11.0291 6.56836 10.9776 6.40545 11.009C6.24253 11.0404 6.10578 11.1505 6.04043 11.303L4.54043 14.803Z" fill="url(#paint10_linear_188_3122)"/>
<path d="M4.54043 14.803C4.45989 14.991 4.50188 15.209 4.64645 15.3536C4.79102 15.4981 5.00904 15.5401 5.19696 15.4596L8.69696 13.9596C8.84946 13.8942 8.9596 13.7575 8.99098 13.5946C9.02235 13.4316 8.97087 13.2638 8.85355 13.1464L6.85355 11.1464C6.73624 11.0291 6.56836 10.9776 6.40545 11.009C6.24253 11.0404 6.10578 11.1505 6.04043 11.303L4.54043 14.803Z" stroke="url(#paint11_linear_188_3122)" stroke-linejoin="round"/>
<path d="M4.54043 14.803C4.45989 14.991 4.50188 15.209 4.64645 15.3536C4.79102 15.4981 5.00904 15.5401 5.19696 15.4596L8.69696 13.9596C8.84946 13.8942 8.9596 13.7575 8.99098 13.5946C9.02235 13.4316 8.97087 13.2638 8.85355 13.1464L6.85355 11.1464C6.73624 11.0291 6.56836 10.9776 6.40545 11.009C6.24253 11.0404 6.10578 11.1505 6.04043 11.303L4.54043 14.803Z" stroke="url(#paint12_linear_188_3122)" stroke-linejoin="round"/>
<path d="M6.14645 11.1464C5.95118 11.3417 5.95118 11.6583 6.14645 11.8536L8.14645 13.8536C8.34171 14.0488 8.65829 14.0488 8.85355 13.8536L14.8536 7.85355C15.0488 7.65829 15.0488 7.34171 14.8536 7.14645L12.8536 5.14645C12.6583 4.95118 12.3417 4.95118 12.1464 5.14645L6.14645 11.1464Z" fill="url(#paint13_linear_188_3122)" stroke="url(#paint14_linear_188_3122)" stroke-linejoin="round"/>
<path fill-rule="evenodd" clip-rule="evenodd" d="M6.5 11.5L7.20711 12.2071L13.2071 6.20711L12.5 5.5L6.5 11.5Z" fill="#FCF4B3"/>
<path d="M14.1464 7.85356L14.5 8.20712L14.8536 7.85356C15.0768 7.63032 15.3397 7.23926 15.4185 6.75535C15.5023 6.24043 15.3688 5.66169 14.8536 5.14646C14.3383 4.63123 13.7596 4.49768 13.2447 4.58151C12.7607 4.66028 12.3697 4.92321 12.1464 5.14646L11.7929 5.50001L12.1464 5.85356L14.1464 7.85356Z" fill="url(#paint15_linear_188_3122)" stroke="url(#paint16_linear_188_3122)"/>
</g>
<defs>
<linearGradient id="paint0_linear_188_3122" x1="9" y1="1" x2="15" y2="13" gradientUnits="userSpaceOnUse">
<stop stop-color="#CACACA"/>
<stop offset="1" stop-color="#636363"/>
</linearGradient>
<linearGradient id="paint1_linear_188_3122" x1="6" y1="2" x2="9" y2="11.5" gradientUnits="userSpaceOnUse">
<stop stop-color="#E1E1E1"/>
<stop offset="1" stop-color="#D2D2D4"/>
</linearGradient>
<linearGradient id="paint2_linear_188_3122" x1="12" y1="1" x2="12" y2="13" gradientUnits="userSpaceOnUse">
<stop stop-color="#C9CACF"/>
<stop offset="1" stop-color="#AEAFB7"/>
</linearGradient>
<linearGradient id="paint3_linear_188_3122" x1="12" y1="7" x2="14" y2="9" gradientUnits="userSpaceOnUse">
<stop stop-color="#A4C8A0"/>
<stop offset="1" stop-color="#42A13B"/>
</linearGradient>
<linearGradient id="paint4_linear_188_3122" x1="6" y1="11" x2="6" y2="16" gradientUnits="userSpaceOnUse">
<stop stop-color="#B5B7BC"/>
<stop offset="1" stop-color="#F1F1F2"/>
</linearGradient>
<linearGradient id="paint5_linear_188_3122" x1="0" y1="3" x2="12.531" y2="12.2832" gradientUnits="userSpaceOnUse">
<stop stop-color="#F0F0F2"/>
<stop offset="1" stop-color="#B2B3BB"/>
</linearGradient>
<linearGradient id="paint6_linear_188_3122" x1="0" y1="3" x2="12" y2="13" gradientUnits="userSpaceOnUse">
<stop stop-color="#CBCBCB"/>
<stop offset="1" stop-color="#636363"/>
</linearGradient>
<linearGradient id="paint7_linear_188_3122" x1="9.33333" y1="5" x2="2.66667" y2="11" gradientUnits="userSpaceOnUse">
<stop stop-color="white" stop-opacity="0.2"/>
<stop offset="0.494495" stop-color="white" stop-opacity="0.66"/>
<stop offset="0.5" stop-color="white" stop-opacity="0.33"/>
<stop offset="1" stop-color="white" stop-opacity="0"/>
</linearGradient>
<linearGradient id="paint8_linear_188_3122" x1="10" y1="8" x2="2" y2="8" gradientUnits="userSpaceOnUse">
<stop offset="0.205" stop-color="#96BDF1"/>
<stop offset="1" stop-color="#90BDF6" stop-opacity="0"/>
</linearGradient>
<linearGradient id="paint9_linear_188_3122" x1="6.16667" y1="11.8889" x2="8.11111" y2="13.8333" gradientUnits="userSpaceOnUse">
<stop stop-color="#FAE7D1"/>
<stop offset="1" stop-color="#E89840"/>
</linearGradient>
<linearGradient id="paint10_linear_188_3122" x1="6.94444" y1="12.6667" x2="3.83333" y2="15.7778" gradientUnits="userSpaceOnUse">
<stop stop-color="#584013" stop-opacity="0"/>
<stop offset="0.499937" stop-color="#584013" stop-opacity="0"/>
<stop offset="0.661921" stop-color="#584013"/>
</linearGradient>
<linearGradient id="paint11_linear_188_3122" x1="6.16667" y1="12.6667" x2="7.33333" y2="13.8333" gradientUnits="userSpaceOnUse">
<stop stop-color="#B98926"/>
<stop offset="1" stop-color="#AA6016"/>
</linearGradient>
<linearGradient id="paint12_linear_188_3122" x1="7.72222" y1="11.8889" x2="3.83333" y2="15.7778" gradientUnits="userSpaceOnUse">
<stop offset="0.5" stop-color="#B98926" stop-opacity="0"/>
<stop offset="0.656842" stop-color="#584013"/>
</linearGradient>
<linearGradient id="paint13_linear_188_3122" x1="6.5" y1="11.6579" x2="8.34211" y2="13.5" gradientUnits="userSpaceOnUse">
<stop stop-color="#F5DC60"/>
<stop offset="1" stop-color="#EFCB1A"/>
</linearGradient>
<linearGradient id="paint14_linear_188_3122" x1="6.5" y1="11.6579" x2="8.3421" y2="13.5" gradientUnits="userSpaceOnUse">
<stop stop-color="#E9C755"/>
<stop offset="1" stop-color="#D98F3B"/>
</linearGradient>
<linearGradient id="paint15_linear_188_3122" x1="12.4766" y1="6.30195" x2="14.8903" y2="6.69267" gradientUnits="userSpaceOnUse">
<stop stop-color="#FDD7D1"/>
<stop offset="1" stop-color="#FBACA1"/>
</linearGradient>
<linearGradient id="paint16_linear_188_3122" x1="12.5" y1="6.31509" x2="14.8693" y2="6.72938" gradientUnits="userSpaceOnUse">
<stop stop-color="#E1B3AD"/>
<stop offset="1" stop-color="#B17971"/>
</linearGradient>
<clipPath id="clip0_188_3122">
<rect width="16" height="16" fill="white"/>
</clipPath>
</defs>
</svg>
