<svg width="16" height="16" viewBox="0 0 16 16" fill="none" xmlns="http://www.w3.org/2000/svg">
<g clip-path="url(#clip0_259_4981)">
<mask id="path-1-outside-1_259_4981" maskUnits="userSpaceOnUse" x="3" y="4" width="6" height="6" fill="black">
<rect fill="white" x="3" y="4" width="6" height="6"/>
<path d="M7 5L6 6L5 7L6 8L7 7L8 6L7 5Z"/>
</mask>
<path d="M7 5L6 6L5 7L6 8L7 7L8 6L7 5Z" fill="#82C577"/>
<path d="M7 5L7.70711 4.29289C7.31658 3.90237 6.68342 3.90237 6.29289 4.29289L7 5ZM8 6L8.70711 6.70711C9.09763 6.31658 9.09763 5.68342 8.70711 5.29289L8 6ZM6 8L5.29289 8.70711L6 9.41421L6.70711 8.70711L6 8ZM5 7L4.29289 6.29289L3.58579 7L4.29289 7.70711L5 7ZM6.70711 6.70711L7.70711 5.70711L6.29289 4.29289L5.29289 5.29289L6.70711 6.70711ZM7.29289 5.29289L6.29289 6.29289L7.70711 7.70711L8.70711 6.70711L7.29289 5.29289ZM6.29289 6.29289L5.29289 7.29289L6.70711 8.70711L7.70711 7.70711L6.29289 6.29289ZM6.70711 7.29289L5.70711 6.29289L4.29289 7.70711L5.29289 8.70711L6.70711 7.29289ZM5.70711 7.70711L6.70711 6.70711L5.29289 5.29289L4.29289 6.29289L5.70711 7.70711ZM6.29289 5.70711L7.29289 6.70711L8.70711 5.29289L7.70711 4.29289L6.29289 5.70711Z" fill="#7AB86A" mask="url(#path-1-outside-1_259_4981)"/>
<mask id="path-3-outside-2_259_4981" maskUnits="userSpaceOnUse" x="6" y="7" width="6" height="6" fill="black">
<rect fill="white" x="6" y="7" width="6" height="6"/>
<path d="M10 8L9 9L8 10L9 11L10 10L11 9L10 8Z"/>
</mask>
<path d="M10 8L9 9L8 10L9 11L10 10L11 9L10 8Z" fill="#82C577"/>
<path d="M10 8L10.7071 7.29289C10.3166 6.90237 9.68342 6.90237 9.29289 7.29289L10 8ZM11 9L11.7071 9.70711C12.0976 9.31658 12.0976 8.68342 11.7071 8.29289L11 9ZM9 11L8.29289 11.7071L9 12.4142L9.70711 11.7071L9 11ZM8 10L7.29289 9.29289L6.58579 10L7.29289 10.7071L8 10ZM9.70711 9.70711L10.7071 8.70711L9.29289 7.29289L8.29289 8.29289L9.70711 9.70711ZM10.2929 8.29289L9.29289 9.29289L10.7071 10.7071L11.7071 9.70711L10.2929 8.29289ZM9.29289 9.29289L8.29289 10.2929L9.70711 11.7071L10.7071 10.7071L9.29289 9.29289ZM9.70711 10.2929L8.70711 9.29289L7.29289 10.7071L8.29289 11.7071L9.70711 10.2929ZM8.70711 10.7071L9.70711 9.70711L8.29289 8.29289L7.29289 9.29289L8.70711 10.7071ZM9.29289 8.70711L10.2929 9.70711L11.7071 8.29289L10.7071 7.29289L9.29289 8.70711Z" fill="#7AB86A" mask="url(#path-3-outside-2_259_4981)"/>
<mask id="path-5-outside-3_259_4981" maskUnits="userSpaceOnUse" x="0" y="5" width="11" height="11" fill="black">
<rect fill="white" y="5" width="11" height="11"/>
<path d="M4 7L5 6L10 11L9 12H6L3 15C1.89543 15 1 14.1046 1 13L4 10V7Z"/>
</mask>
<path d="M4 7L5 6L10 11L9 12H6L3 15C1.89543 15 1 14.1046 1 13L4 10V7Z" fill="url(#paint0_linear_259_4981)"/>
<path d="M5 6L5.70711 5.29289C5.31658 4.90237 4.68342 4.90237 4.29289 5.29289L5 6ZM4 7L3.29289 6.29289C3.10536 6.48043 3 6.73478 3 7H4ZM4 10L4.70711 10.7071L5 10.4142V10H4ZM1 13L0.292893 12.2929L0 12.5858V13H1ZM3 15V16H3.41421L3.70711 15.7071L3 15ZM6 12V11H5.58579L5.29289 11.2929L6 12ZM9 12V13C9.26522 13 9.51957 12.8946 9.70711 12.7071L9 12ZM10 11L10.7071 11.7071C11.0976 11.3166 11.0976 10.6834 10.7071 10.2929L10 11ZM4.29289 5.29289L3.29289 6.29289L4.70711 7.70711L5.70711 6.70711L4.29289 5.29289ZM3 7V10H5V7H3ZM3.29289 9.29289L0.292893 12.2929L1.70711 13.7071L4.70711 10.7071L3.29289 9.29289ZM3.70711 15.7071L6.70711 12.7071L5.29289 11.2929L2.29289 14.2929L3.70711 15.7071ZM6 13H9V11H6V13ZM9.70711 12.7071L10.7071 11.7071L9.29289 10.2929L8.29289 11.2929L9.70711 12.7071ZM10.7071 10.2929L5.70711 5.29289L4.29289 6.70711L9.29289 11.7071L10.7071 10.2929ZM0 13C0 14.6569 1.34315 16 3 16V14C2.44772 14 2 13.5523 2 13H0Z" fill="url(#paint1_linear_259_4981)" mask="url(#path-5-outside-3_259_4981)"/>
<mask id="path-7-inside-4_259_4981" fill="white">
<path d="M4 7L5 6L10 11L9 12H6L3 15C1.89543 15 1 14.1046 1 13L4 10V7Z"/>
</mask>
<path d="M5 6L5.70711 5.29289C5.31658 4.90237 4.68342 4.90237 4.29289 5.29289L5 6ZM4 7L3.29289 6.29289L3 6.58579V7H4ZM4 10L4.70711 10.7071L5 10.4142V10H4ZM1 13L0.292893 12.2929L0 12.5858V13H1ZM3 15V16H3.41421L3.70711 15.7071L3 15ZM6 12V11H5.58579L5.29289 11.2929L6 12ZM9 12V13H9.41421L9.70711 12.7071L9 12ZM10 11L10.7071 11.7071L11.4142 11L10.7071 10.2929L10 11ZM4.29289 5.29289L3.29289 6.29289L4.70711 7.70711L5.70711 6.70711L4.29289 5.29289ZM3 7V10H5V7H3ZM3.29289 9.29289L0.292893 12.2929L1.70711 13.7071L4.70711 10.7071L3.29289 9.29289ZM3.70711 15.7071L6.70711 12.7071L5.29289 11.2929L2.29289 14.2929L3.70711 15.7071ZM6 13H9V11H6V13ZM9.70711 12.7071L10.7071 11.7071L9.29289 10.2929L8.29289 11.2929L9.70711 12.7071ZM10.7071 10.2929L5.70711 5.29289L4.29289 6.70711L9.29289 11.7071L10.7071 10.2929ZM0 13C0 14.6569 1.34315 16 3 16V14C2.44772 14 2 13.5523 2 13H0Z" fill="url(#paint2_linear_259_4981)" mask="url(#path-7-inside-4_259_4981)"/>
<mask id="path-9-outside-5_259_4981" maskUnits="userSpaceOnUse" x="6" y="0" width="10" height="10" fill="black">
<rect fill="white" x="6" width="10" height="10"/>
<path d="M13 8L12 9L7 4L8 3H11L13 1C14.1046 1 15 1.89543 15 3L13 5V8Z"/>
</mask>
<path d="M13 8L12 9L7 4L8 3H11L13 1C14.1046 1 15 1.89543 15 3L13 5V8Z" fill="url(#paint3_linear_259_4981)"/>
<path d="M12 9L11.2929 9.70711C11.6834 10.0976 12.3166 10.0976 12.7071 9.70711L12 9ZM13 8L13.7071 8.70711C13.8946 8.51957 14 8.26522 14 8H13ZM13 5L12.2929 4.29289L12 4.58579V5H13ZM15 3L15.7071 3.70711L16 3.41421V3H15ZM13 1V0H12.5858L12.2929 0.292893L13 1ZM11 3V4H11.4142L11.7071 3.70711L11 3ZM8 3V2C7.73478 2 7.48043 2.10536 7.29289 2.29289L8 3ZM7 4L6.29289 3.29289C5.90237 3.68342 5.90237 4.31658 6.29289 4.70711L7 4ZM12.7071 9.70711L13.7071 8.70711L12.2929 7.29289L11.2929 8.29289L12.7071 9.70711ZM14 8V5H12V8H14ZM13.7071 5.70711L15.7071 3.70711L14.2929 2.29289L12.2929 4.29289L13.7071 5.70711ZM12.2929 0.292893L10.2929 2.29289L11.7071 3.70711L13.7071 1.70711L12.2929 0.292893ZM11 2H8V4H11V2ZM7.29289 2.29289L6.29289 3.29289L7.70711 4.70711L8.70711 3.70711L7.29289 2.29289ZM6.29289 4.70711L11.2929 9.70711L12.7071 8.29289L7.70711 3.29289L6.29289 4.70711ZM16 3C16 1.34315 14.6569 0 13 0V2C13.5523 2 14 2.44772 14 3H16Z" fill="url(#paint4_linear_259_4981)" mask="url(#path-9-outside-5_259_4981)"/>
<mask id="path-11-inside-6_259_4981" fill="white">
<path d="M13 8L12 9L7 4L8 3H11L13 1C14.1046 1 15 1.89543 15 3L13 5V8Z"/>
</mask>
<path d="M12 9L11.2929 9.70711C11.6834 10.0976 12.3166 10.0976 12.7071 9.70711L12 9ZM13 8L13.7071 8.70711C13.8946 8.51957 14 8.26522 14 8H13ZM13 5L12.2929 4.29289L12 4.58579V5H13ZM15 3L15.7071 3.70711L16 3.41421V3H15ZM13 1V0H12.5858L12.2929 0.292893L13 1ZM11 3V4H11.4142L11.7071 3.70711L11 3ZM8 3V2C7.73478 2 7.48043 2.10536 7.29289 2.29289L8 3ZM7 4L6.29289 3.29289C5.90237 3.68342 5.90237 4.31658 6.29289 4.70711L7 4ZM12.7071 9.70711L13.7071 8.70711L12.2929 7.29289L11.2929 8.29289L12.7071 9.70711ZM14 8V5H12V8H14ZM13.7071 5.70711L15.7071 3.70711L14.2929 2.29289L12.2929 4.29289L13.7071 5.70711ZM12.2929 0.292893L10.2929 2.29289L11.7071 3.70711L13.7071 1.70711L12.2929 0.292893ZM11 2H8V4H11V2ZM7.29289 2.29289L6.29289 3.29289L7.70711 4.70711L8.70711 3.70711L7.29289 2.29289ZM6.29289 4.70711L11.2929 9.70711L12.7071 8.29289L7.70711 3.29289L6.29289 4.70711ZM16 3C16 1.34315 14.6569 0 13 0V2C13.5523 2 14 2.44772 14 3H16Z" fill="url(#paint5_linear_259_4981)" mask="url(#path-11-inside-6_259_4981)"/>
</g>
<defs>
<linearGradient id="paint0_linear_259_4981" x1="1" y1="6" x2="10" y2="15" gradientUnits="userSpaceOnUse">
<stop stop-color="#85AEE1"/>
<stop offset="1" stop-color="#3F7AC3"/>
</linearGradient>
<linearGradient id="paint1_linear_259_4981" x1="1" y1="6" x2="10" y2="15" gradientUnits="userSpaceOnUse">
<stop stop-color="#9CBDEE"/>
<stop offset="1" stop-color="#1B3776"/>
</linearGradient>
<linearGradient id="paint2_linear_259_4981" x1="1" y1="6" x2="10" y2="15" gradientUnits="userSpaceOnUse">
<stop stop-color="#ABC4E6"/>
<stop offset="1" stop-color="#6289BF"/>
</linearGradient>
<linearGradient id="paint3_linear_259_4981" x1="16" y1="9" x2="7" y2="-1.03936e-06" gradientUnits="userSpaceOnUse">
<stop stop-color="#3F7AC3"/>
<stop offset="1" stop-color="#85AEE1"/>
</linearGradient>
<linearGradient id="paint4_linear_259_4981" x1="16" y1="9" x2="7" y2="-3.35276e-08" gradientUnits="userSpaceOnUse">
<stop stop-color="#1B3776"/>
<stop offset="1" stop-color="#9CBDEE"/>
</linearGradient>
<linearGradient id="paint5_linear_259_4981" x1="16" y1="9" x2="7" y2="-3.35276e-08" gradientUnits="userSpaceOnUse">
<stop stop-color="#6289BF"/>
<stop offset="1" stop-color="#ABC4E6"/>
</linearGradient>
<clipPath id="clip0_259_4981">
<rect width="16" height="16" fill="white"/>
</clipPath>
</defs>
</svg>
