<svg width="16" height="16" viewBox="0 0 16 16" fill="none" xmlns="http://www.w3.org/2000/svg">
<g clip-path="url(#clip0_99_12564)">
<circle cx="8" cy="8" r="6.5" fill="url(#paint0_radial_99_12564)" stroke="url(#paint1_linear_99_12564)"/>
<circle cx="8" cy="8" r="5.5" stroke="white" stroke-opacity="0.8" style="mix-blend-mode:soft-light"/>
<path fill-rule="evenodd" clip-rule="evenodd" d="M8 16C12.4183 16 16 12.4183 16 8C16 3.58172 12.4183 0 8 0C3.58172 0 0 3.58172 0 8C0 12.4183 3.58172 16 8 16ZM8 14C11.3137 14 14 11.3137 14 8C14 4.68629 11.3137 2 8 2C4.68629 2 2 4.68629 2 8C2 11.3137 4.68629 14 8 14Z" fill="#90BDF6" fill-opacity="0.5"/>
<g filter="url(#filter0_i_99_12564)">
<path fill-rule="evenodd" clip-rule="evenodd" d="M5.5 6C5.22386 6 5 6.22386 5 6.5V8.5C5 8.77614 5.22386 9 5.5 9H6V10H5.5C4.67157 10 4 9.32843 4 8.5V6.5C4 5.67157 4.67157 5 5.5 5H10.5C11.3284 5 12 5.67157 12 6.5V8.5C12 9.32843 11.3284 10 10.5 10H8.5V9H10.5C10.7761 9 11 8.77614 11 8.5V6.5C11 6.22386 10.7761 6 10.5 6H5.5Z" fill="#5B8FD1"/>
<path d="M10 7L7 9.5L10 12V7Z" fill="#5B8FD1"/>
</g>
</g>
<defs>
<filter id="filter0_i_99_12564" x="4" y="5" width="8.5" height="7.5" filterUnits="userSpaceOnUse" color-interpolation-filters="sRGB">
<feFlood flood-opacity="0" result="BackgroundImageFix"/>
<feBlend mode="normal" in="SourceGraphic" in2="BackgroundImageFix" result="shape"/>
<feColorMatrix in="SourceAlpha" type="matrix" values="0 0 0 0 0 0 0 0 0 0 0 0 0 0 0 0 0 0 127 0" result="hardAlpha"/>
<feOffset dx="0.5" dy="0.5"/>
<feGaussianBlur stdDeviation="1"/>
<feComposite in2="hardAlpha" operator="arithmetic" k2="-1" k3="1"/>
<feColorMatrix type="matrix" values="0 0 0 0 0 0 0 0 0 0 0 0 0 0 0 0 0 0 0.2 0"/>
<feBlend mode="plus-darker" in2="shape" result="effect1_innerShadow_99_12564"/>
</filter>
<radialGradient id="paint0_radial_99_12564" cx="0" cy="0" r="1" gradientUnits="userSpaceOnUse" gradientTransform="translate(13 13) rotate(-135) scale(14.1421)">
<stop offset="0.33089" stop-color="#D1DFF1"/>
<stop offset="1" stop-color="#EBF1F9"/>
</radialGradient>
<linearGradient id="paint1_linear_99_12564" x1="13" y1="13" x2="3" y2="3" gradientUnits="userSpaceOnUse">
<stop stop-color="#8CADD4"/>
<stop offset="1" stop-color="#D7E5F6"/>
</linearGradient>
<clipPath id="clip0_99_12564">
<rect width="16" height="16" fill="white"/>
</clipPath>
</defs>
</svg>
