<svg width="17" height="16" viewBox="0 0 17 16" fill="none" xmlns="http://www.w3.org/2000/svg">
<path d="M1.5 0.5C3.5 1 6 3 6.5 5" stroke="url(#paint0_linear_479_8458)" stroke-linecap="round"/>
<g filter="url(#filter0_i_479_8458)">
<path fill-rule="evenodd" clip-rule="evenodd" d="M3.2011 6.15941C2.47184 6.67064 2.07632 7.16799 1.9903 7.59805C1.88211 8.139 1.90413 8.88406 2.04044 9.72464C2.17544 10.5572 2.41662 11.4477 2.71889 12.2638C3.02243 13.0834 3.37954 13.8061 3.73696 14.3137C3.91607 14.568 4.08327 14.751 4.22921 14.8659C4.37826 14.9832 4.46671 15 4.50003 15C5.20637 15 5.60274 14.8803 5.80526 14.7588C5.9841 14.6515 6.00001 14.5555 6.00001 14.5V12.5C6.00001 12.0874 6.20128 11.7166 6.45894 11.459C6.71661 11.2013 7.08738 11 7.5 11C7.52772 11 7.5568 11.0001 7.58713 11.0002C7.8416 11.0009 8.18459 11.002 8.55923 10.9542C8.98064 10.9006 9.39892 10.7896 9.73184 10.578C10.0726 10.3615 10.4031 10.0124 10.6504 9.66174C10.7723 9.48871 10.8663 9.3261 10.9277 9.19346C10.9797 9.08107 10.975 9.07667 11 9C11.0602 8.81555 11.0235 8.67826 11.1056 8.51449C11.1933 8.33939 11.3561 8.16841 11.6079 8.1085C11.8416 8.05291 12.067 8.11392 12.2527 8.20488C12.4417 8.29742 12.6373 8.4435 12.8418 8.63511C13.2898 9.05479 13.6431 9.57054 13.9305 9.99007C14.0154 10.1139 14.0944 10.2293 14.1685 10.3314C14.5376 10.8402 14.7612 11 15 11C15.1271 11 15.4121 10.9197 15.6803 10.7588C15.8072 10.6826 15.9015 10.605 15.9581 10.5397C15.9744 10.521 15.9849 10.5063 15.9917 10.4958C15.7415 9.13134 14.9318 7.62224 13.9239 6.3771C13.4126 5.74557 12.861 5.19539 12.3251 4.77691C11.7834 4.35393 11.2845 4.08651 10.8787 3.98506C10.484 3.88636 9.75752 3.90145 8.82375 4.05579C7.91046 4.20675 6.8622 4.47986 5.85839 4.84488C4.85183 5.21091 3.91102 5.66173 3.2011 6.15941Z" fill="url(#paint1_linear_479_8458)"/>
</g>
<ellipse cx="9.02987" cy="10.0494" rx="2.9635" ry="1.53471" transform="rotate(-24.5289 9.02987 10.0494)" fill="#808080" fill-opacity="0.33"/>
<path d="M13.5353 6.6917C14.4414 7.811 15.1613 9.12853 15.4433 10.3176C15.4368 10.3217 15.43 10.3258 15.423 10.33C15.3229 10.3901 15.2183 10.4357 15.1292 10.4654C15.085 10.4801 15.0482 10.4897 15.0213 10.4952C15.0105 10.4975 15.0028 10.4987 14.9981 10.4994C14.9928 10.4973 14.9746 10.4889 14.9419 10.4632C14.8653 10.4031 14.7496 10.2809 14.5732 10.0378C14.5039 9.94223 14.4288 9.83275 14.343 9.7075L13.9305 9.99007L14.343 9.7075L14.3327 9.69236C14.0506 9.28053 13.6717 8.72736 13.1837 8.27021C12.9588 8.05954 12.7223 7.87807 12.4726 7.75582C12.2301 7.63706 11.8811 7.52955 11.4922 7.62208C11.0662 7.72342 10.7971 8.01397 10.6585 8.29053C10.5762 8.45489 10.5577 8.60345 10.5476 8.69452C10.5468 8.70239 10.546 8.70977 10.5452 8.71669C10.5366 8.79496 10.5343 8.81524 10.5247 8.84481C10.5166 8.86946 10.5109 8.88867 10.5069 8.90196L10.5066 8.90286C10.5024 8.91682 10.5016 8.91943 10.5008 8.92166C10.5005 8.92246 10.4969 8.93368 10.4739 8.98357C10.4274 9.08399 10.3497 9.22048 10.2417 9.37363C10.0193 9.68912 9.73318 9.98473 9.46367 10.156C9.21802 10.3121 8.88149 10.4092 8.49607 10.4583C8.15731 10.5014 7.84394 10.5009 7.58863 10.5002L7.5 10.5C6.92424 10.5 6.43277 10.778 6.10538 11.1054C5.77799 11.4328 5.50001 11.9243 5.50001 12.5V14.3549C5.37666 14.4114 5.10036 14.4925 4.57451 14.4995C4.56497 14.4931 4.55296 14.4844 4.53846 14.473L4.51724 14.5L4.53846 14.473C4.44387 14.3986 4.30869 14.2572 4.14576 14.0258C3.82155 13.5654 3.48233 12.8855 3.18777 12.0902C2.89572 11.3017 2.66337 10.4425 2.53399 9.64461C2.40199 8.83058 2.38922 8.15299 2.48059 7.69611C2.52763 7.46091 2.78754 7.05994 3.48811 6.56882C4.15014 6.10472 5.04738 5.67183 6.02927 5.31478C7.00563 4.95974 8.02401 4.69476 8.90528 4.5491C9.82781 4.39661 10.468 4.39777 10.7575 4.47013C11.069 4.54802 11.5043 4.77035 12.0174 5.171C12.519 5.56265 13.044 6.08489 13.5353 6.6917Z" stroke="white" stroke-opacity="0.66"/>
<path fill-rule="evenodd" clip-rule="evenodd" d="M11.1213 3.01492C10.5161 2.86361 9.6175 2.91102 8.66065 3.06917C7.68332 3.23071 6.57532 3.5201 5.51663 3.90508C4.46069 4.28906 3.43275 4.77574 2.62705 5.34057C1.84067 5.89184 1.17369 6.58198 1.0097 7.40193C0.867889 8.11097 0.908371 8.99092 1.05331 9.88471C1.19956 10.7866 1.45839 11.7398 1.78112 12.6112C2.1026 13.4791 2.49549 14.2876 2.91933 14.8895C3.13084 15.1898 3.36208 15.456 3.61067 15.6517C3.85615 15.8449 4.15832 16 4.5 16C5.29364 16 5.89727 15.8697 6.31974 15.6162C6.7659 15.3485 6.99999 14.9445 6.99999 14.5V12.5C6.99999 12.4126 7.04872 12.2834 7.16604 12.166C7.28337 12.0487 7.4126 12 7.49998 12L7.58265 12.0002C7.83516 12.0012 8.24216 12.0027 8.68552 11.9462C9.17903 11.8834 9.76075 11.7444 10.2682 11.422C10.7514 11.1149 11.1709 10.6589 11.4676 10.2379C11.6176 10.0252 11.7441 9.81032 11.8353 9.61323C11.8912 9.49229 11.9464 9.35197 11.9765 9.20911C12.0282 9.24881 12.0887 9.29982 12.1582 9.3649C12.5187 9.70265 12.7839 10.089 13.0597 10.4907C13.1567 10.6319 13.2549 10.7751 13.359 10.9186C13.7153 11.4098 14.208 12 15 12C15.3729 12 15.8379 11.8303 16.1947 11.6162C16.3803 11.5049 16.5672 11.3638 16.7138 11.1947C16.856 11.0305 17 10.7929 17 10.5V10.4586L16.9932 10.4178C16.7243 8.80466 15.7968 7.10142 14.7011 5.7479C14.1498 5.06693 13.5452 4.46087 12.9405 3.98872C12.3416 3.52106 11.7155 3.16348 11.1213 3.01492ZM3.20108 6.1594C2.47182 6.67063 2.07629 7.16799 1.99028 7.59805C1.88209 8.139 1.90411 8.88406 2.04042 9.72464C2.17542 10.5572 2.4166 11.4477 2.71887 12.2638C3.0224 13.0834 3.37952 13.8061 3.73693 14.3137C3.91604 14.568 4.08324 14.751 4.22918 14.8659C4.37824 14.9832 4.46669 15 4.5 15C5.20635 15 5.60272 14.8803 5.80524 14.7588C5.98408 14.6515 5.99999 14.5555 5.99999 14.5V12.5C5.99999 12.0874 6.20125 11.7166 6.45892 11.459C6.71659 11.2013 7.08735 11 7.49998 11L7.58711 11.0002C7.84158 11.0009 8.18457 11.0019 8.5592 10.9542C8.98062 10.9006 9.3989 10.7895 9.73182 10.578C10.0726 10.3614 10.4031 10.0124 10.6503 9.66173C10.7723 9.4887 10.8663 9.3261 10.9277 9.19346C10.9796 9.08107 10.9943 9.01973 10.9984 9.00264C10.9998 8.99695 11 8.99616 11 9.00001C11 8.8539 11.0235 8.67826 11.1056 8.51449C11.1933 8.33939 11.3561 8.16841 11.6079 8.1085C11.8416 8.0529 12.067 8.11392 12.2527 8.20487C12.4417 8.29742 12.6373 8.44349 12.8418 8.63511C13.2898 9.05478 13.6431 9.57054 13.9305 9.99007C14.0153 10.1139 14.0944 10.2293 14.1685 10.3314C14.5376 10.8402 14.7612 11 15 11C15.127 11 15.412 10.9197 15.6802 10.7588C15.8072 10.6826 15.9015 10.605 15.9581 10.5397C15.9743 10.521 15.9849 10.5063 15.9917 10.4958C15.7415 9.13134 14.9318 7.62223 13.9239 6.3771C13.4126 5.74557 12.861 5.19538 12.3251 4.7769C11.7834 4.35393 11.2845 4.08651 10.8787 3.98506C10.4839 3.88636 9.7575 3.90144 8.82372 4.05579C7.91043 4.20674 6.86218 4.47986 5.85837 4.84488C4.85181 5.2109 3.911 5.66172 3.20108 6.1594Z" fill="url(#paint2_linear_479_8458)"/>
<path d="M3.5 8.5L6.5 7.5M4.5 6.5L5.5 9.5" stroke="#7EB679" stroke-linecap="round" stroke-linejoin="round"/>
<path d="M8.5 6.5H10.5" stroke="#5CA5FF" stroke-linecap="round" stroke-linejoin="round"/>
<path d="M10 5.5H12" stroke="#DE3330" stroke-linecap="round" stroke-linejoin="round"/>
<circle cx="13.5" cy="12.5" r="3" fill="url(#paint3_radial_479_8458)" stroke="url(#paint4_linear_479_8458)"/>
<path fill-rule="evenodd" clip-rule="evenodd" d="M13 12V11H14V12H15V13H14V14H13V13H12V12H13Z" fill="white"/>
<defs>
<filter id="filter0_i_479_8458" x="1.92169" y="2.92279" width="15.07" height="12.0772" filterUnits="userSpaceOnUse" color-interpolation-filters="sRGB">
<feFlood flood-opacity="0" result="BackgroundImageFix"/>
<feBlend mode="normal" in="SourceGraphic" in2="BackgroundImageFix" result="shape"/>
<feColorMatrix in="SourceAlpha" type="matrix" values="0 0 0 0 0 0 0 0 0 0 0 0 0 0 0 0 0 0 127 0" result="hardAlpha"/>
<feOffset dx="1" dy="-1"/>
<feGaussianBlur stdDeviation="1"/>
<feComposite in2="hardAlpha" operator="arithmetic" k2="-1" k3="1"/>
<feColorMatrix type="matrix" values="0 0 0 0 0 0 0 0 0 0 0 0 0 0 0 0 0 0 0.13 0"/>
<feBlend mode="normal" in2="shape" result="effect1_innerShadow_479_8458"/>
</filter>
<linearGradient id="paint0_linear_479_8458" x1="5.52346" y1="5.5" x2="0.804382" y2="2.15235" gradientUnits="userSpaceOnUse">
<stop offset="0.194557" stop-color="#6F6F6F"/>
<stop offset="0.85617" stop-color="#BDBDBD" stop-opacity="0.66"/>
</linearGradient>
<linearGradient id="paint1_linear_479_8458" x1="1.92169" y1="9.4614" x2="16.2194" y2="9.4614" gradientUnits="userSpaceOnUse">
<stop stop-color="#F3F3F3"/>
<stop offset="1" stop-color="#F7F7F7"/>
</linearGradient>
<linearGradient id="paint2_linear_479_8458" x1="15.1214" y1="15.5" x2="3.04426" y2="3.42285" gradientUnits="userSpaceOnUse">
<stop offset="0.194557" stop-color="#6F6F6F"/>
<stop offset="0.85617" stop-color="#BDBDBD"/>
</linearGradient>
<radialGradient id="paint3_radial_479_8458" cx="0" cy="0" r="1" gradientUnits="userSpaceOnUse" gradientTransform="translate(11 10) rotate(45) scale(5.65685)">
<stop stop-color="#B4D495"/>
<stop offset="1" stop-color="#87B960"/>
</radialGradient>
<linearGradient id="paint4_linear_479_8458" x1="16" y1="15" x2="11" y2="10" gradientUnits="userSpaceOnUse">
<stop stop-color="#376B19"/>
<stop offset="1" stop-color="#5A9438"/>
</linearGradient>
</defs>
</svg>
