<svg width="16" height="16" viewBox="0 0 16 16" fill="none" xmlns="http://www.w3.org/2000/svg">
<mask id="path-1-outside-1_293_7381" maskUnits="userSpaceOnUse" x="1.5" y="1.5" width="13" height="13" fill="black">
<rect fill="white" x="1.5" y="1.5" width="13" height="13"/>
<path fill-rule="evenodd" clip-rule="evenodd" d="M6.5 8L2.5 12L4 13.5L8 9.5L12 13.5L13.5 12L9.5 8L13.5 4L12 2.5L8 6.5L4 2.5L2.5 4L6.5 8Z"/>
</mask>
<path fill-rule="evenodd" clip-rule="evenodd" d="M6.5 8L2.5 12L4 13.5L8 9.5L12 13.5L13.5 12L9.5 8L13.5 4L12 2.5L8 6.5L4 2.5L2.5 4L6.5 8Z" fill="url(#paint0_linear_293_7381)"/>
<path d="M2.5 12L1.79289 11.2929C1.60536 11.4804 1.5 11.7348 1.5 12C1.5 12.2652 1.60536 12.5196 1.79289 12.7071L2.5 12ZM6.5 8L7.20711 8.70711C7.39464 8.51957 7.5 8.26522 7.5 8C7.5 7.73478 7.39464 7.48043 7.20711 7.29289L6.5 8ZM4 13.5L3.29289 14.2071C3.68342 14.5976 4.31658 14.5976 4.70711 14.2071L4 13.5ZM8 9.5L8.70711 8.79289C8.51957 8.60536 8.26522 8.5 8 8.5C7.73478 8.5 7.48043 8.60536 7.29289 8.79289L8 9.5ZM12 13.5L11.2929 14.2071C11.6834 14.5976 12.3166 14.5976 12.7071 14.2071L12 13.5ZM13.5 12L14.2071 12.7071C14.5976 12.3166 14.5976 11.6834 14.2071 11.2929L13.5 12ZM9.5 8L8.79289 7.29289C8.60536 7.48043 8.5 7.73478 8.5 8C8.5 8.26522 8.60536 8.51957 8.79289 8.70711L9.5 8ZM13.5 4L14.2071 4.70711C14.5976 4.31658 14.5976 3.68342 14.2071 3.29289L13.5 4ZM12 2.5L12.7071 1.79289C12.5196 1.60536 12.2652 1.5 12 1.5C11.7348 1.5 11.4804 1.60536 11.2929 1.79289L12 2.5ZM8 6.5L7.29289 7.20711C7.68342 7.59763 8.31658 7.59763 8.70711 7.20711L8 6.5ZM4 2.5L4.70711 1.79289C4.51957 1.60536 4.26522 1.5 4 1.5C3.73478 1.5 3.48043 1.60536 3.29289 1.79289L4 2.5ZM2.5 4L1.79289 3.29289C1.40237 3.68342 1.40237 4.31658 1.79289 4.70711L2.5 4ZM3.20711 12.7071L7.20711 8.70711L5.79289 7.29289L1.79289 11.2929L3.20711 12.7071ZM4.70711 12.7929L3.20711 11.2929L1.79289 12.7071L3.29289 14.2071L4.70711 12.7929ZM7.29289 8.79289L3.29289 12.7929L4.70711 14.2071L8.70711 10.2071L7.29289 8.79289ZM7.29289 10.2071L11.2929 14.2071L12.7071 12.7929L8.70711 8.79289L7.29289 10.2071ZM12.7071 14.2071L14.2071 12.7071L12.7929 11.2929L11.2929 12.7929L12.7071 14.2071ZM14.2071 11.2929L10.2071 7.29289L8.79289 8.70711L12.7929 12.7071L14.2071 11.2929ZM12.7929 3.29289L8.79289 7.29289L10.2071 8.70711L14.2071 4.70711L12.7929 3.29289ZM11.2929 3.20711L12.7929 4.70711L14.2071 3.29289L12.7071 1.79289L11.2929 3.20711ZM8.70711 7.20711L12.7071 3.20711L11.2929 1.79289L7.29289 5.79289L8.70711 7.20711ZM8.70711 5.79289L4.70711 1.79289L3.29289 3.20711L7.29289 7.20711L8.70711 5.79289ZM3.29289 1.79289L1.79289 3.29289L3.20711 4.70711L4.70711 3.20711L3.29289 1.79289ZM1.79289 4.70711L5.79289 8.70711L7.20711 7.29289L3.20711 3.29289L1.79289 4.70711Z" fill="url(#paint1_linear_293_7381)" mask="url(#path-1-outside-1_293_7381)"/>
<defs>
<linearGradient id="paint0_linear_293_7381" x1="3" y1="3" x2="13.5" y2="13.5" gradientUnits="userSpaceOnUse">
<stop stop-color="#FF878A"/>
<stop offset="1" stop-color="#FF6263"/>
</linearGradient>
<linearGradient id="paint1_linear_293_7381" x1="2.5" y1="2" x2="14" y2="14" gradientUnits="userSpaceOnUse">
<stop stop-color="#FF777A"/>
<stop offset="1" stop-color="#E32224" stop-opacity="0.988235"/>
</linearGradient>
</defs>
</svg>
