<svg width="16" height="16" viewBox="0 0 16 16" fill="none" xmlns="http://www.w3.org/2000/svg">
<g filter="url(#filter0_ii_135_2934)">
<rect y="3" width="16" height="11" rx="2" fill="#B4B47E"/>
</g>
<rect x="0.5" y="3.5" width="15" height="10" rx="1.5" stroke="black" style="mix-blend-mode:overlay"/>
<rect x="0.5" y="3.5" width="15" height="10" rx="1.5" stroke="black" stroke-opacity="0.2" style="mix-blend-mode:overlay"/>
<mask id="path-3-outside-1_135_2934" maskUnits="userSpaceOnUse" x="0.5" y="4.85001" width="15" height="8" fill="black">
<rect fill="white" x="0.5" y="4.85001" width="15" height="8"/>
<path d="M4.18238 6.01521C4.86238 6.01521 5.29758 6.20561 5.69198 6.53201L5.14798 7.19161C4.88958 6.98081 4.57678 6.84481 4.20958 6.84481C3.61118 6.84481 3.13518 7.32761 3.13518 8.48361C3.13518 9.61921 3.58398 10.102 4.22998 10.102C4.69918 10.102 4.98478 9.89121 5.24998 9.68041L5.75318 10.3264C5.40638 10.68 4.89638 10.9656 4.16878 10.9656C2.89038 10.9656 1.97918 10.102 1.97918 8.48361C1.97918 6.90601 2.93798 6.01521 4.18238 6.01521ZM9.82373 9.46961C9.82373 10.3536 9.10973 10.9656 7.90613 10.9656C7.01533 10.9656 6.43733 10.6732 6.04293 10.2856L6.60733 9.66001C6.95413 9.96601 7.37573 10.136 7.87893 10.136C8.34813 10.136 8.66093 9.92521 8.66093 9.55801C8.66093 9.21801 8.46373 9.05481 7.81093 8.85761C6.70253 8.51761 6.28773 8.10281 6.28773 7.38881C6.28773 6.51841 7.08333 6.01521 8.06253 6.01521C8.78333 6.01521 9.34093 6.23961 9.74893 6.62721L9.22533 7.23241C8.90573 6.96721 8.52493 6.83801 8.14413 6.83801C7.72253 6.83801 7.44373 6.99441 7.44373 7.30041C7.44373 7.59961 7.65453 7.72201 8.40253 7.95321C9.30013 8.22521 9.82373 8.60601 9.82373 9.46961ZM14.0371 9.46961C14.0371 10.3536 13.3231 10.9656 12.1195 10.9656C11.2287 10.9656 10.6507 10.6732 10.2563 10.2856L10.8207 9.66001C11.1675 9.96601 11.5891 10.136 12.0923 10.136C12.5615 10.136 12.8743 9.92521 12.8743 9.55801C12.8743 9.21801 12.6771 9.05481 12.0243 8.85761C10.9159 8.51761 10.5011 8.10281 10.5011 7.38881C10.5011 6.51841 11.2967 6.01521 12.2759 6.01521C12.9967 6.01521 13.5543 6.23961 13.9623 6.62721L13.4387 7.23241C13.1191 6.96721 12.7383 6.83801 12.3575 6.83801C11.9359 6.83801 11.6571 6.99441 11.6571 7.30041C11.6571 7.59961 11.8679 7.72201 12.6159 7.95321C13.5135 8.22521 14.0371 8.60601 14.0371 9.46961Z"/>
</mask>
<path d="M4.18238 6.01521C4.86238 6.01521 5.29758 6.20561 5.69198 6.53201L5.14798 7.19161C4.88958 6.98081 4.57678 6.84481 4.20958 6.84481C3.61118 6.84481 3.13518 7.32761 3.13518 8.48361C3.13518 9.61921 3.58398 10.102 4.22998 10.102C4.69918 10.102 4.98478 9.89121 5.24998 9.68041L5.75318 10.3264C5.40638 10.68 4.89638 10.9656 4.16878 10.9656C2.89038 10.9656 1.97918 10.102 1.97918 8.48361C1.97918 6.90601 2.93798 6.01521 4.18238 6.01521ZM9.82373 9.46961C9.82373 10.3536 9.10973 10.9656 7.90613 10.9656C7.01533 10.9656 6.43733 10.6732 6.04293 10.2856L6.60733 9.66001C6.95413 9.96601 7.37573 10.136 7.87893 10.136C8.34813 10.136 8.66093 9.92521 8.66093 9.55801C8.66093 9.21801 8.46373 9.05481 7.81093 8.85761C6.70253 8.51761 6.28773 8.10281 6.28773 7.38881C6.28773 6.51841 7.08333 6.01521 8.06253 6.01521C8.78333 6.01521 9.34093 6.23961 9.74893 6.62721L9.22533 7.23241C8.90573 6.96721 8.52493 6.83801 8.14413 6.83801C7.72253 6.83801 7.44373 6.99441 7.44373 7.30041C7.44373 7.59961 7.65453 7.72201 8.40253 7.95321C9.30013 8.22521 9.82373 8.60601 9.82373 9.46961ZM14.0371 9.46961C14.0371 10.3536 13.3231 10.9656 12.1195 10.9656C11.2287 10.9656 10.6507 10.6732 10.2563 10.2856L10.8207 9.66001C11.1675 9.96601 11.5891 10.136 12.0923 10.136C12.5615 10.136 12.8743 9.92521 12.8743 9.55801C12.8743 9.21801 12.6771 9.05481 12.0243 8.85761C10.9159 8.51761 10.5011 8.10281 10.5011 7.38881C10.5011 6.51841 11.2967 6.01521 12.2759 6.01521C12.9967 6.01521 13.5543 6.23961 13.9623 6.62721L13.4387 7.23241C13.1191 6.96721 12.7383 6.83801 12.3575 6.83801C11.9359 6.83801 11.6571 6.99441 11.6571 7.30041C11.6571 7.59961 11.8679 7.72201 12.6159 7.95321C13.5135 8.22521 14.0371 8.60601 14.0371 9.46961Z" fill="white"/>
<path d="M5.69198 6.53201L6.46346 7.16827L7.09865 6.3981L6.32955 5.76161L5.69198 6.53201ZM5.14798 7.19161L4.51586 7.96647L5.28659 8.59522L5.91945 7.82787L5.14798 7.19161ZM5.24998 9.68041L6.03889 9.06589L5.4183 8.26919L4.62774 8.89758L5.24998 9.68041ZM5.75318 10.3264L6.46712 11.0266L7.07968 10.402L6.54209 9.71189L5.75318 10.3264ZM4.18238 7.01521C4.62524 7.01521 4.83594 7.12159 5.05442 7.3024L6.32955 5.76161C5.75923 5.28962 5.09953 5.01521 4.18238 5.01521V7.01521ZM4.92051 5.89574L4.37651 6.55534L5.91945 7.82787L6.46346 7.16827L4.92051 5.89574ZM5.78011 6.41674C5.37291 6.08455 4.84274 5.84481 4.20958 5.84481V7.84481C4.31083 7.84481 4.40626 7.87706 4.51586 7.96647L5.78011 6.41674ZM4.20958 5.84481C3.61068 5.84481 3.03387 6.10253 2.64059 6.64069C2.27561 7.14014 2.13518 7.78771 2.13518 8.48361H4.13518C4.13518 8.0235 4.23276 7.85167 4.25538 7.82072C4.26246 7.81102 4.25511 7.82359 4.23054 7.83567C4.20764 7.84693 4.19613 7.84481 4.20958 7.84481V5.84481ZM2.13518 8.48361C2.13518 9.15991 2.26509 9.80794 2.63443 10.3107C3.03816 10.8603 3.62851 11.102 4.22998 11.102V9.10201C4.19377 9.10201 4.19454 9.09564 4.21473 9.1052C4.23809 9.11628 4.249 9.13037 4.24624 9.12661C4.22968 9.10407 4.13518 8.9429 4.13518 8.48361H2.13518ZM4.22998 11.102C5.06075 11.102 5.57828 10.6969 5.87223 10.4632L4.62774 8.89758C4.49741 9.00118 4.435 9.0439 4.38056 9.07027C4.34315 9.08839 4.30275 9.10201 4.22998 9.10201V11.102ZM4.46108 10.2949L4.96428 10.9409L6.54209 9.71189L6.03889 9.06589L4.46108 10.2949ZM5.03925 9.6262C4.86162 9.80731 4.60197 9.96561 4.16878 9.96561V11.9656C5.19079 11.9656 5.95115 11.5527 6.46712 11.0266L5.03925 9.6262ZM4.16878 9.96561C3.76188 9.96561 3.49716 9.83424 3.32801 9.65174C3.15267 9.46255 2.97918 9.10813 2.97918 8.48361H0.979184C0.979184 9.47749 1.2613 10.3641 1.86115 11.0113C2.46721 11.6652 3.29729 11.9656 4.16878 11.9656V9.96561ZM2.97918 8.48361C2.97918 7.89908 3.15343 7.54385 3.34229 7.34322C3.52899 7.14487 3.80597 7.01521 4.18238 7.01521V5.01521C3.3144 5.01521 2.48978 5.33094 1.88598 5.9724C1.28434 6.61156 0.979184 7.49054 0.979184 8.48361H2.97918ZM6.04293 10.2856L5.30044 9.61575L4.65858 10.3272L5.342 10.9988L6.04293 10.2856ZM6.60733 9.66001L7.26895 8.91017L6.52734 8.25581L5.86484 8.99015L6.60733 9.66001ZM7.81093 8.85761L7.51766 9.81365L7.52175 9.81488L7.81093 8.85761ZM9.74893 6.62721L10.5052 7.28149L11.1297 6.55963L10.4377 5.90221L9.74893 6.62721ZM9.22533 7.23241L8.58676 8.00197L9.34063 8.62752L9.98158 7.88669L9.22533 7.23241ZM8.40253 7.95321L8.10722 8.90862L8.11252 8.91023L8.40253 7.95321ZM8.82373 9.46961C8.82373 9.61813 8.77536 9.70113 8.69109 9.76863C8.58592 9.85288 8.3482 9.96561 7.90613 9.96561V11.9656C8.66765 11.9656 9.38874 11.7723 9.94147 11.3296C10.5151 10.8701 10.8237 10.2051 10.8237 9.46961H8.82373ZM7.90613 9.96561C7.264 9.96561 6.94181 9.76692 6.74386 9.57238L5.342 10.9988C5.93284 11.5795 6.76665 11.9656 7.90613 11.9656V9.96561ZM6.78542 10.9555L7.34982 10.3299L5.86484 8.99015L5.30044 9.61575L6.78542 10.9555ZM5.94571 10.4098C6.472 10.8742 7.12783 11.136 7.87893 11.136V9.13601C7.62363 9.13601 7.43626 9.05779 7.26895 8.91017L5.94571 10.4098ZM7.87893 11.136C8.24671 11.136 8.67024 11.0556 9.03045 10.796C9.42683 10.5105 9.66093 10.0647 9.66093 9.55801H7.66093C7.66093 9.50448 7.67329 9.42798 7.71511 9.34651C7.75677 9.26537 7.81274 9.20836 7.86131 9.17336C7.94782 9.11103 7.98035 9.13601 7.87893 9.13601V11.136ZM9.66093 9.55801C9.66093 9.37691 9.63467 9.15954 9.53745 8.93521C9.43763 8.70489 9.28735 8.52327 9.11696 8.38276C8.81773 8.13599 8.43153 8.00045 8.10011 7.90033L7.52175 9.81488C7.66569 9.85836 7.75847 9.89234 7.81767 9.9183C7.87868 9.94504 7.87486 9.95079 7.84449 9.92575C7.80501 9.89319 7.74482 9.82845 7.70238 9.73051C7.66253 9.63857 7.66093 9.5691 7.66093 9.55801H9.66093ZM8.10419 7.90157C7.59861 7.74649 7.40121 7.61494 7.33065 7.54636C7.30586 7.52226 7.30291 7.51196 7.30193 7.50943C7.29939 7.5029 7.28773 7.47014 7.28773 7.38881H5.28773C5.28773 7.97239 5.47157 8.52847 5.93671 8.98056C6.35064 9.38287 6.91484 9.62872 7.51767 9.81364L8.10419 7.90157ZM7.28773 7.38881C7.28773 7.3282 7.30036 7.29518 7.31089 7.27533C7.32251 7.25339 7.34615 7.22081 7.39762 7.18323C7.50868 7.10214 7.73085 7.01521 8.06253 7.01521V5.01521C7.415 5.01521 6.74977 5.17987 6.21823 5.56798C5.66041 5.97528 5.28773 6.60882 5.28773 7.38881H7.28773ZM8.06253 7.01521C8.56111 7.01521 8.86138 7.16335 9.06018 7.35221L10.4377 5.90221C9.82048 5.31587 9.00554 5.01521 8.06253 5.01521V7.01521ZM8.99268 5.97292L8.46908 6.57812L9.98158 7.88669L10.5052 7.28149L8.99268 5.97292ZM9.8639 6.46284C9.3622 6.04654 8.75471 5.83801 8.14413 5.83801V7.83801C8.29514 7.83801 8.44925 7.88787 8.58676 8.00197L9.8639 6.46284ZM8.14413 5.83801C7.83273 5.83801 7.44507 5.89206 7.10161 6.10911C6.70532 6.35954 6.44373 6.78578 6.44373 7.30041H8.44373C8.44373 7.38076 8.4239 7.48629 8.36369 7.59244C8.30452 7.69677 8.2284 7.76293 8.17004 7.79981C8.07138 7.86215 8.03393 7.83801 8.14413 7.83801V5.83801ZM6.44373 7.30041C6.44373 7.4965 6.47942 7.73682 6.61221 7.97816C6.74276 8.21545 6.92452 8.37606 7.09017 8.48584C7.3759 8.67523 7.7563 8.80014 8.10722 8.90861L8.69783 6.9978C8.51807 6.94224 8.3915 6.89953 8.30006 6.86392C8.20441 6.82667 8.18272 6.81057 8.19509 6.81877C8.21454 6.83166 8.29685 6.89111 8.3645 7.01407C8.43438 7.14109 8.44373 7.25391 8.44373 7.30041H6.44373ZM8.11252 8.91023C8.5145 9.03204 8.68264 9.13825 8.75144 9.20537C8.77668 9.23 8.78797 9.24879 8.79657 9.27078C8.80657 9.29637 8.82373 9.3552 8.82373 9.46961H10.8237C10.8237 8.80727 10.6103 8.22467 10.148 7.77374C9.73062 7.36656 9.18816 7.14637 8.69254 6.99618L8.11252 8.91023ZM10.2563 10.2856L9.51378 9.61575L8.87193 10.3272L9.55534 10.9988L10.2563 10.2856ZM10.8207 9.66001L11.4823 8.91017L10.7407 8.25581L10.0782 8.99015L10.8207 9.66001ZM12.0243 8.85761L11.731 9.81365L11.7351 9.81488L12.0243 8.85761ZM13.9623 6.62721L14.7185 7.28149L15.3431 6.55963L14.651 5.90221L13.9623 6.62721ZM13.4387 7.23241L12.8001 8.00197L13.554 8.62752L14.1949 7.88669L13.4387 7.23241ZM12.6159 7.95321L12.3206 8.90862L12.3259 8.91023L12.6159 7.95321ZM13.0371 9.46961C13.0371 9.61813 12.9887 9.70113 12.9044 9.76863C12.7993 9.85288 12.5615 9.96561 12.1195 9.96561V11.9656C12.881 11.9656 13.6021 11.7723 14.1548 11.3296C14.7284 10.8701 15.0371 10.2051 15.0371 9.46961H13.0371ZM12.1195 9.96561C11.4773 9.96561 11.1552 9.76692 10.9572 9.57238L9.55534 10.9988C10.1462 11.5795 10.98 11.9656 12.1195 11.9656V9.96561ZM10.9988 10.9555L11.5632 10.3299L10.0782 8.99015L9.51378 9.61575L10.9988 10.9555ZM10.1591 10.4098C10.6853 10.8742 11.3412 11.136 12.0923 11.136V9.13601C11.837 9.13601 11.6496 9.05779 11.4823 8.91017L10.1591 10.4098ZM12.0923 11.136C12.46 11.136 12.8836 11.0556 13.2438 10.796C13.6402 10.5105 13.8743 10.0647 13.8743 9.55801H11.8743C11.8743 9.50448 11.8866 9.42798 11.9285 9.34651C11.9701 9.26537 12.0261 9.20836 12.0747 9.17336C12.1612 9.11103 12.1937 9.13601 12.0923 9.13601V11.136ZM13.8743 9.55801C13.8743 9.37691 13.848 9.15954 13.7508 8.93521C13.651 8.70489 13.5007 8.52327 13.3303 8.38276C13.0311 8.13599 12.6449 8.00045 12.3134 7.90033L11.7351 9.81488C11.879 9.85836 11.9718 9.89234 12.031 9.9183C12.092 9.94504 12.0882 9.95079 12.0578 9.92575C12.0184 9.89319 11.9582 9.82845 11.9157 9.73051C11.8759 9.63857 11.8743 9.5691 11.8743 9.55801H13.8743ZM12.3175 7.90157C11.812 7.74649 11.6146 7.61494 11.544 7.54636C11.5192 7.52226 11.5163 7.51196 11.5153 7.50943C11.5127 7.5029 11.5011 7.47014 11.5011 7.38881H9.50107C9.50107 7.97239 9.68491 8.52847 10.1501 8.98056C10.564 9.38287 11.1282 9.62872 11.731 9.81364L12.3175 7.90157ZM11.5011 7.38881C11.5011 7.3282 11.5137 7.29518 11.5242 7.27533C11.5359 7.25339 11.5595 7.22081 11.611 7.18323C11.722 7.10214 11.9442 7.01521 12.2759 7.01521V5.01521C11.6283 5.01521 10.9631 5.17987 10.4316 5.56798C9.87375 5.97528 9.50107 6.60882 9.50107 7.38881H11.5011ZM12.2759 7.01521C12.7745 7.01521 13.0747 7.16335 13.2735 7.35221L14.651 5.90221C14.0338 5.31587 13.2189 5.01521 12.2759 5.01521V7.01521ZM13.206 5.97292L12.6824 6.57812L14.1949 7.88669L14.7185 7.28149L13.206 5.97292ZM14.0772 6.46284C13.5755 6.04654 12.9681 5.83801 12.3575 5.83801V7.83801C12.5085 7.83801 12.6626 7.88787 12.8001 8.00197L14.0772 6.46284ZM12.3575 5.83801C12.0461 5.83801 11.6584 5.89206 11.315 6.10911C10.9187 6.35954 10.6571 6.78578 10.6571 7.30041H12.6571C12.6571 7.38076 12.6372 7.48629 12.577 7.59244C12.5179 7.69677 12.4417 7.76293 12.3834 7.79981C12.2847 7.86215 12.2473 7.83801 12.3575 7.83801V5.83801ZM10.6571 7.30041C10.6571 7.4965 10.6928 7.73682 10.8256 7.97816C10.9561 8.21545 11.1379 8.37606 11.3035 8.48584C11.5892 8.67523 11.9696 8.80014 12.3206 8.90861L12.9112 6.9978C12.7314 6.94224 12.6048 6.89953 12.5134 6.86392C12.4178 6.82667 12.3961 6.81057 12.4084 6.81877C12.4279 6.83166 12.5102 6.89111 12.5778 7.01407C12.6477 7.14109 12.6571 7.25391 12.6571 7.30041H10.6571ZM12.3259 8.91023C12.7278 9.03204 12.896 9.13825 12.9648 9.20537C12.99 9.23 13.0013 9.24879 13.0099 9.27078C13.0199 9.29637 13.0371 9.3552 13.0371 9.46961H15.0371C15.0371 8.80727 14.8236 8.22467 14.3614 7.77374C13.944 7.36656 13.4015 7.14637 12.9059 6.99618L12.3259 8.91023Z" fill="black" style="mix-blend-mode:soft-light" mask="url(#path-3-outside-1_135_2934)"/>
<defs>
<filter id="filter0_ii_135_2934" x="0" y="3" width="19" height="14" filterUnits="userSpaceOnUse" color-interpolation-filters="sRGB">
<feFlood flood-opacity="0" result="BackgroundImageFix"/>
<feBlend mode="normal" in="SourceGraphic" in2="BackgroundImageFix" result="shape"/>
<feColorMatrix in="SourceAlpha" type="matrix" values="0 0 0 0 0 0 0 0 0 0 0 0 0 0 0 0 0 0 127 0" result="hardAlpha"/>
<feMorphology radius="2" operator="erode" in="SourceAlpha" result="effect1_innerShadow_135_2934"/>
<feOffset/>
<feComposite in2="hardAlpha" operator="arithmetic" k2="-1" k3="1"/>
<feColorMatrix type="matrix" values="0 0 0 0 1 0 0 0 0 1 0 0 0 0 1 0 0 0 0.25 0"/>
<feBlend mode="normal" in2="shape" result="effect1_innerShadow_135_2934"/>
<feColorMatrix in="SourceAlpha" type="matrix" values="0 0 0 0 0 0 0 0 0 0 0 0 0 0 0 0 0 0 127 0" result="hardAlpha"/>
<feMorphology radius="1" operator="dilate" in="SourceAlpha" result="effect2_innerShadow_135_2934"/>
<feOffset dx="3" dy="3"/>
<feGaussianBlur stdDeviation="3"/>
<feComposite in2="hardAlpha" operator="arithmetic" k2="-1" k3="1"/>
<feColorMatrix type="matrix" values="0 0 0 0 1 0 0 0 0 1 0 0 0 0 1 0 0 0 0.66 0"/>
<feBlend mode="hard-light" in2="effect1_innerShadow_135_2934" result="effect2_innerShadow_135_2934"/>
</filter>
</defs>
</svg>
