<svg width="16" height="16" viewBox="0 0 16 16" fill="none" xmlns="http://www.w3.org/2000/svg">
<g clip-path="url(#clip0_393_6299)">
<path d="M15.5 5.5C15.5 4.95057 15.1868 4.49472 14.7725 4.14486C14.3558 3.79304 13.7825 3.49873 13.1179 3.26136C11.7843 2.78507 9.97479 2.5 8 2.5C6.02521 2.5 4.2157 2.78507 2.88208 3.26136C2.21745 3.49873 1.64418 3.79304 1.22752 4.14486C0.813175 4.49472 0.5 4.95057 0.5 5.5C0.5 7.45783 0.749518 9.69749 1.82298 11.4598C2.9239 13.2673 4.84605 14.5 8 14.5C11.154 14.5 13.0761 13.2673 14.177 11.4598C15.2505 9.69749 15.5 7.45783 15.5 5.5Z" fill="url(#paint0_linear_393_6299)" stroke="url(#paint1_linear_393_6299)"/>
<path d="M14.5 5.5C14.5 7.40817 14.2495 9.4185 13.323 10.9396C12.4239 12.4157 10.846 13.5 8 13.5C5.15395 13.5 3.5761 12.4157 2.67702 10.9396C1.75048 9.4185 1.5 7.40817 1.5 5.5C1.5 5.35908 1.57858 5.15724 1.87267 4.90891C2.16445 4.66254 2.6163 4.41815 3.21842 4.2031C4.4183 3.77457 6.1088 3.5 8 3.5C9.8912 3.5 11.5817 3.77457 12.7816 4.2031C13.3837 4.41815 13.8356 4.66254 14.1273 4.90891C14.4214 5.15724 14.5 5.35908 14.5 5.5Z" stroke="white" stroke-opacity="0.66"/>
<path d="M2.71372 10.2175C2.71372 9.32624 3.49721 9.02464 3.8562 8.43498C4.21519 7.84532 3.8562 7.26671 3.28496 7.09808C2.71372 6.92945 2.14248 6.92068 1.57124 7.5437C1 8.16672 1 8.81443 1 9.32621C1 11 2 12 2.71372 12C3.11935 12 3.28496 11.7726 3.28496 11.5C3.28496 11.2274 2.71372 11 2.71372 10.2175Z" fill="white"/>
<path d="M3.21372 10.2175C3.21372 9.94848 3.31993 9.76633 3.51755 9.55248C3.58704 9.47728 3.65055 9.41554 3.72264 9.34544C3.7704 9.299 3.82193 9.2489 3.88147 9.18879C4.01399 9.05501 4.1629 8.89271 4.28328 8.69499C4.54759 8.26085 4.56273 7.78877 4.36918 7.39022C4.18359 7.00804 3.82869 6.73726 3.42652 6.61854C3.10409 6.52336 2.73054 6.45715 2.33421 6.53292C1.92719 6.61073 1.54937 6.8277 1.2027 7.20579C0.499749 7.97247 0.499901 8.78826 0.499998 9.30815C0.499999 9.31421 0.5 9.32023 0.5 9.32621C0.5 10.2632 0.780358 11.0373 1.18704 11.5879C1.57915 12.1187 2.13951 12.5 2.71372 12.5C3.00933 12.5 3.2927 12.4154 3.50272 12.2081C3.7117 12.0017 3.78496 11.7361 3.78496 11.5C3.78496 11.2588 3.6595 11.0803 3.59665 10.9959C3.56269 10.9503 3.52493 10.9048 3.49484 10.8685C3.49293 10.8662 3.49105 10.8639 3.4892 10.8617C3.45538 10.8209 3.42626 10.7855 3.39806 10.7483C3.2971 10.6148 3.21372 10.466 3.21372 10.2175Z" stroke="url(#paint2_linear_393_6299)"/>
<path d="M14.5 5.5C14.5 5.64092 14.4214 5.84276 14.1273 6.09109C13.8356 6.33746 13.3837 6.58185 12.7816 6.7969C11.5817 7.22543 9.8912 7.5 8 7.5C6.1088 7.5 4.4183 7.22543 3.21842 6.7969C2.6163 6.58185 2.16445 6.33746 1.87267 6.09109C1.57858 5.84276 1.5 5.64092 1.5 5.5C1.5 5.35908 1.57858 5.15724 1.87267 4.90891C2.16445 4.66254 2.6163 4.41815 3.21842 4.2031C4.4183 3.77457 6.1088 3.5 8 3.5C9.8912 3.5 11.5817 3.77457 12.7816 4.2031C13.3837 4.41815 13.8356 4.66254 14.1273 4.90891C14.4214 5.15724 14.5 5.35908 14.5 5.5Z" fill="url(#paint3_linear_393_6299)" stroke="url(#paint4_linear_393_6299)"/>
<ellipse cx="8" cy="5.5" rx="5" ry="1.5" fill="#8F5035"/>
<path d="M4.54043 14.803C4.45989 14.991 4.50188 15.209 4.64645 15.3536C4.79102 15.4981 5.00904 15.5401 5.19696 15.4596L8.69696 13.9596C8.84946 13.8942 8.9596 13.7575 8.99098 13.5946C9.02235 13.4316 8.97087 13.2638 8.85355 13.1464L6.85355 11.1464C6.73624 11.0291 6.56836 10.9776 6.40545 11.009C6.24253 11.0404 6.10578 11.1505 6.04043 11.303L4.54043 14.803Z" fill="url(#paint5_linear_393_6299)"/>
<path d="M4.54043 14.803C4.45989 14.991 4.50188 15.209 4.64645 15.3536C4.79102 15.4981 5.00904 15.5401 5.19696 15.4596L8.69696 13.9596C8.84946 13.8942 8.9596 13.7575 8.99098 13.5946C9.02235 13.4316 8.97087 13.2638 8.85355 13.1464L6.85355 11.1464C6.73624 11.0291 6.56836 10.9776 6.40545 11.009C6.24253 11.0404 6.10578 11.1505 6.04043 11.303L4.54043 14.803Z" fill="url(#paint6_linear_393_6299)"/>
<path d="M4.54043 14.803C4.45989 14.991 4.50188 15.209 4.64645 15.3536C4.79102 15.4981 5.00904 15.5401 5.19696 15.4596L8.69696 13.9596C8.84946 13.8942 8.9596 13.7575 8.99098 13.5946C9.02235 13.4316 8.97087 13.2638 8.85355 13.1464L6.85355 11.1464C6.73624 11.0291 6.56836 10.9776 6.40545 11.009C6.24253 11.0404 6.10578 11.1505 6.04043 11.303L4.54043 14.803Z" stroke="url(#paint7_linear_393_6299)" stroke-linejoin="round"/>
<path d="M4.54043 14.803C4.45989 14.991 4.50188 15.209 4.64645 15.3536C4.79102 15.4981 5.00904 15.5401 5.19696 15.4596L8.69696 13.9596C8.84946 13.8942 8.9596 13.7575 8.99098 13.5946C9.02235 13.4316 8.97087 13.2638 8.85355 13.1464L6.85355 11.1464C6.73624 11.0291 6.56836 10.9776 6.40545 11.009C6.24253 11.0404 6.10578 11.1505 6.04043 11.303L4.54043 14.803Z" stroke="url(#paint8_linear_393_6299)" stroke-linejoin="round"/>
<path d="M6.14645 11.1464C5.95118 11.3417 5.95118 11.6583 6.14645 11.8536L8.14645 13.8536C8.34171 14.0488 8.65829 14.0488 8.85355 13.8536L14.8536 7.85355C15.0488 7.65829 15.0488 7.34171 14.8536 7.14645L12.8536 5.14645C12.6583 4.95118 12.3417 4.95118 12.1464 5.14645L6.14645 11.1464Z" fill="url(#paint9_linear_393_6299)" stroke="url(#paint10_linear_393_6299)" stroke-linejoin="round"/>
<path fill-rule="evenodd" clip-rule="evenodd" d="M6.5 11.5L7.20711 12.2071L13.2071 6.20711L12.5 5.5L6.5 11.5Z" fill="#FCF4B3"/>
<path d="M14.1464 7.85356L14.5 8.20712L14.8536 7.85356C15.0768 7.63032 15.3397 7.23926 15.4185 6.75535C15.5023 6.24043 15.3688 5.66169 14.8536 5.14646C14.3383 4.63123 13.7596 4.49768 13.2447 4.58151C12.7607 4.66028 12.3697 4.92321 12.1464 5.14646L11.7929 5.50001L12.1464 5.85356L14.1464 7.85356Z" fill="url(#paint11_linear_393_6299)" stroke="url(#paint12_linear_393_6299)"/>
</g>
<defs>
<linearGradient id="paint0_linear_393_6299" x1="1.8776" y1="14.5572" x2="10.7054" y2="6.24614" gradientUnits="userSpaceOnUse">
<stop offset="0.308746" stop-color="#E5E5E5"/>
<stop offset="1" stop-color="#C4C4C4"/>
</linearGradient>
<linearGradient id="paint1_linear_393_6299" x1="2.46475" y1="3" x2="13.5352" y2="14" gradientUnits="userSpaceOnUse">
<stop stop-color="#D9D9D9"/>
<stop offset="1" stop-color="#B3B3B3"/>
</linearGradient>
<linearGradient id="paint2_linear_393_6299" x1="1" y1="9.5" x2="5" y2="9.5" gradientUnits="userSpaceOnUse">
<stop stop-color="#A4A4A4"/>
<stop offset="0.515625" stop-color="#C4C4C4" stop-opacity="0.996078"/>
<stop offset="1" stop-color="#C4C4C4" stop-opacity="0"/>
</linearGradient>
<linearGradient id="paint3_linear_393_6299" x1="8" y1="3" x2="8" y2="8" gradientUnits="userSpaceOnUse">
<stop stop-color="#F6F6F6"/>
<stop offset="1" stop-color="#A8A8A8"/>
</linearGradient>
<linearGradient id="paint4_linear_393_6299" x1="1" y1="5.50174" x2="15" y2="5.49826" gradientUnits="userSpaceOnUse">
<stop stop-color="white"/>
<stop offset="1" stop-color="#F0F0F0"/>
</linearGradient>
<linearGradient id="paint5_linear_393_6299" x1="6.16667" y1="11.8889" x2="8.11111" y2="13.8333" gradientUnits="userSpaceOnUse">
<stop stop-color="#FAE7D1"/>
<stop offset="1" stop-color="#E89840"/>
</linearGradient>
<linearGradient id="paint6_linear_393_6299" x1="6.94444" y1="12.6667" x2="3.83333" y2="15.7778" gradientUnits="userSpaceOnUse">
<stop stop-color="#584013" stop-opacity="0"/>
<stop offset="0.499937" stop-color="#584013" stop-opacity="0"/>
<stop offset="0.661921" stop-color="#584013"/>
</linearGradient>
<linearGradient id="paint7_linear_393_6299" x1="6.16667" y1="12.6667" x2="7.33333" y2="13.8333" gradientUnits="userSpaceOnUse">
<stop stop-color="#B98926"/>
<stop offset="1" stop-color="#AA6016"/>
</linearGradient>
<linearGradient id="paint8_linear_393_6299" x1="7.72222" y1="11.8889" x2="3.83333" y2="15.7778" gradientUnits="userSpaceOnUse">
<stop offset="0.5" stop-color="#B98926" stop-opacity="0"/>
<stop offset="0.656842" stop-color="#584013"/>
</linearGradient>
<linearGradient id="paint9_linear_393_6299" x1="6.5" y1="11.6579" x2="8.34211" y2="13.5" gradientUnits="userSpaceOnUse">
<stop stop-color="#F5DC60"/>
<stop offset="1" stop-color="#EFCB1A"/>
</linearGradient>
<linearGradient id="paint10_linear_393_6299" x1="6.5" y1="11.6579" x2="8.3421" y2="13.5" gradientUnits="userSpaceOnUse">
<stop stop-color="#E9C755"/>
<stop offset="1" stop-color="#D98F3B"/>
</linearGradient>
<linearGradient id="paint11_linear_393_6299" x1="12.4766" y1="6.30195" x2="14.8903" y2="6.69267" gradientUnits="userSpaceOnUse">
<stop stop-color="#FDD7D1"/>
<stop offset="1" stop-color="#FBACA1"/>
</linearGradient>
<linearGradient id="paint12_linear_393_6299" x1="12.5" y1="6.31509" x2="14.8693" y2="6.72938" gradientUnits="userSpaceOnUse">
<stop stop-color="#E1B3AD"/>
<stop offset="1" stop-color="#B17971"/>
</linearGradient>
<clipPath id="clip0_393_6299">
<rect width="16" height="16" fill="white"/>
</clipPath>
</defs>
</svg>
