<svg width="16" height="16" viewBox="0 0 16 16" fill="none" xmlns="http://www.w3.org/2000/svg">
<g clip-path="url(#clip0_393_6298)">
<path d="M15.5 5.5C15.5 4.95057 15.1868 4.49472 14.7725 4.14486C14.3558 3.79304 13.7825 3.49873 13.1179 3.26136C11.7843 2.78507 9.97479 2.5 8 2.5C6.02521 2.5 4.2157 2.78507 2.88208 3.26136C2.21745 3.49873 1.64418 3.79304 1.22752 4.14486C0.813175 4.49472 0.5 4.95057 0.5 5.5C0.5 7.45783 0.749518 9.69749 1.82298 11.4598C2.9239 13.2673 4.84605 14.5 8 14.5C11.154 14.5 13.0761 13.2673 14.177 11.4598C15.2505 9.69749 15.5 7.45783 15.5 5.5Z" fill="url(#paint0_linear_393_6298)" stroke="url(#paint1_linear_393_6298)"/>
<path d="M14.5 5.5C14.5 7.40817 14.2495 9.4185 13.323 10.9396C12.4239 12.4157 10.846 13.5 8 13.5C5.15395 13.5 3.5761 12.4157 2.67702 10.9396C1.75048 9.4185 1.5 7.40817 1.5 5.5C1.5 5.35908 1.57858 5.15724 1.87267 4.90891C2.16445 4.66254 2.6163 4.41815 3.21842 4.2031C4.4183 3.77457 6.1088 3.5 8 3.5C9.8912 3.5 11.5817 3.77457 12.7816 4.2031C13.3837 4.41815 13.8356 4.66254 14.1273 4.90891C14.4214 5.15724 14.5 5.35908 14.5 5.5Z" stroke="white" stroke-opacity="0.66"/>
<path d="M2.71372 10.2175C2.71372 9.32624 3.49721 9.02464 3.8562 8.43498C4.21519 7.84532 3.8562 7.26671 3.28496 7.09808C2.71372 6.92945 2.14248 6.92068 1.57124 7.5437C1 8.16672 1 8.81443 1 9.32621C1 11 2 12 2.71372 12C3.11935 12 3.28496 11.7726 3.28496 11.5C3.28496 11.2274 2.71372 11 2.71372 10.2175Z" fill="white"/>
<path d="M3.21372 10.2175C3.21372 9.94848 3.31993 9.76633 3.51755 9.55248C3.58704 9.47728 3.65055 9.41554 3.72264 9.34544C3.7704 9.299 3.82193 9.2489 3.88147 9.18879C4.01399 9.05501 4.1629 8.89271 4.28328 8.69499C4.54759 8.26085 4.56273 7.78877 4.36918 7.39022C4.18359 7.00804 3.82869 6.73726 3.42652 6.61854C3.10409 6.52336 2.73054 6.45715 2.33421 6.53292C1.92719 6.61073 1.54937 6.8277 1.2027 7.20579C0.499749 7.97247 0.499901 8.78826 0.499998 9.30815C0.499999 9.31421 0.5 9.32023 0.5 9.32621C0.5 10.2632 0.780358 11.0373 1.18704 11.5879C1.57915 12.1187 2.13951 12.5 2.71372 12.5C3.00933 12.5 3.2927 12.4154 3.50272 12.2081C3.7117 12.0017 3.78496 11.7361 3.78496 11.5C3.78496 11.2588 3.6595 11.0803 3.59665 10.9959C3.56269 10.9503 3.52493 10.9048 3.49484 10.8685C3.49293 10.8662 3.49105 10.8639 3.4892 10.8617C3.45538 10.8209 3.42626 10.7855 3.39806 10.7483C3.2971 10.6148 3.21372 10.466 3.21372 10.2175Z" stroke="url(#paint2_linear_393_6298)"/>
<path d="M14.5 5.5C14.5 5.64092 14.4214 5.84276 14.1273 6.09109C13.8356 6.33746 13.3837 6.58185 12.7816 6.7969C11.5817 7.22543 9.8912 7.5 8 7.5C6.1088 7.5 4.4183 7.22543 3.21842 6.7969C2.6163 6.58185 2.16445 6.33746 1.87267 6.09109C1.57858 5.84276 1.5 5.64092 1.5 5.5C1.5 5.35908 1.57858 5.15724 1.87267 4.90891C2.16445 4.66254 2.6163 4.41815 3.21842 4.2031C4.4183 3.77457 6.1088 3.5 8 3.5C9.8912 3.5 11.5817 3.77457 12.7816 4.2031C13.3837 4.41815 13.8356 4.66254 14.1273 4.90891C14.4214 5.15724 14.5 5.35908 14.5 5.5Z" fill="url(#paint3_linear_393_6298)" stroke="url(#paint4_linear_393_6298)"/>
<ellipse cx="8" cy="5.5" rx="5" ry="1.5" fill="#8F5035"/>
<mask id="path-7-outside-1_393_6298" maskUnits="userSpaceOnUse" x="6" y="6" width="10" height="10" fill="black">
<rect fill="white" x="6" y="6" width="10" height="10"/>
<path fill-rule="evenodd" clip-rule="evenodd" d="M7 15V13.5L10 11V8.5L11.5 7H13L15 9V10.5L13.5 12H11V13H10V14H9V15H7ZM13 8L14 9L13 10L12 9L13 8Z"/>
</mask>
<g filter="url(#filter0_i_393_6298)">
<path fill-rule="evenodd" clip-rule="evenodd" d="M7 15V13.5L10 11V8.5L11.5 7H13L15 9V10.5L13.5 12H11V13H10V14H9V15H7ZM13 8L14 9L13 10L12 9L13 8Z" fill="#F4D847"/>
</g>
<path d="M7 13.5L6.35982 12.7318L6 13.0316V13.5H7ZM7 15H6V16H7V15ZM10 11L10.6402 11.7682L11 11.4684V11H10ZM10 8.5L9.29289 7.79289L9 8.08579V8.5H10ZM11.5 7V6H11.0858L10.7929 6.29289L11.5 7ZM13 7L13.7071 6.29289L13.4142 6H13V7ZM15 9H16V8.58579L15.7071 8.29289L15 9ZM15 10.5L15.7071 11.2071L16 10.9142V10.5H15ZM13.5 12V13H13.9142L14.2071 12.7071L13.5 12ZM11 12V11H10V12H11ZM11 13V14H12V13H11ZM10 13V12H9V13H10ZM10 14V15H11V14H10ZM9 14V13H8V14H9ZM9 15V16H10V15H9ZM14 9L14.7071 9.70711L15.4142 9L14.7071 8.29289L14 9ZM13 8L13.7071 7.29289L13 6.58579L12.2929 7.29289L13 8ZM13 10L12.2929 10.7071L13 11.4142L13.7071 10.7071L13 10ZM12 9L11.2929 8.29289L10.5858 9L11.2929 9.70711L12 9ZM6 13.5V15H8V13.5H6ZM9.35982 10.2318L6.35982 12.7318L7.64018 14.2682L10.6402 11.7682L9.35982 10.2318ZM9 8.5V11H11V8.5H9ZM10.7929 6.29289L9.29289 7.79289L10.7071 9.20711L12.2071 7.70711L10.7929 6.29289ZM13 6H11.5V8H13V6ZM15.7071 8.29289L13.7071 6.29289L12.2929 7.70711L14.2929 9.70711L15.7071 8.29289ZM16 10.5V9H14V10.5H16ZM14.2071 12.7071L15.7071 11.2071L14.2929 9.79289L12.7929 11.2929L14.2071 12.7071ZM11 13H13.5V11H11V13ZM12 13V12H10V13H12ZM10 14H11V12H10V14ZM11 14V13H9V14H11ZM9 15H10V13H9V15ZM10 15V14H8V15H10ZM7 16H9V14H7V16ZM14.7071 8.29289L13.7071 7.29289L12.2929 8.70711L13.2929 9.70711L14.7071 8.29289ZM13.7071 10.7071L14.7071 9.70711L13.2929 8.29289L12.2929 9.29289L13.7071 10.7071ZM11.2929 9.70711L12.2929 10.7071L13.7071 9.29289L12.7071 8.29289L11.2929 9.70711ZM12.2929 7.29289L11.2929 8.29289L12.7071 9.70711L13.7071 8.70711L12.2929 7.29289Z" fill="url(#paint5_linear_393_6298)" mask="url(#path-7-outside-1_393_6298)"/>
</g>
<defs>
<filter id="filter0_i_393_6298" x="6" y="6" width="10" height="10" filterUnits="userSpaceOnUse" color-interpolation-filters="sRGB">
<feFlood flood-opacity="0" result="BackgroundImageFix"/>
<feBlend mode="normal" in="SourceGraphic" in2="BackgroundImageFix" result="shape"/>
<feColorMatrix in="SourceAlpha" type="matrix" values="0 0 0 0 0 0 0 0 0 0 0 0 0 0 0 0 0 0 127 0" result="hardAlpha"/>
<feOffset dx="2" dy="1"/>
<feComposite in2="hardAlpha" operator="arithmetic" k2="-1" k3="1"/>
<feColorMatrix type="matrix" values="0 0 0 0 1 0 0 0 0 1 0 0 0 0 1 0 0 0 0.5 0"/>
<feBlend mode="normal" in2="shape" result="effect1_innerShadow_393_6298"/>
</filter>
<linearGradient id="paint0_linear_393_6298" x1="1.8776" y1="14.5572" x2="10.7054" y2="6.24614" gradientUnits="userSpaceOnUse">
<stop offset="0.308746" stop-color="#E5E5E5"/>
<stop offset="1" stop-color="#C4C4C4"/>
</linearGradient>
<linearGradient id="paint1_linear_393_6298" x1="2.46475" y1="3" x2="13.5352" y2="14" gradientUnits="userSpaceOnUse">
<stop stop-color="#D9D9D9"/>
<stop offset="1" stop-color="#B3B3B3"/>
</linearGradient>
<linearGradient id="paint2_linear_393_6298" x1="1" y1="9.5" x2="5" y2="9.5" gradientUnits="userSpaceOnUse">
<stop stop-color="#A4A4A4"/>
<stop offset="0.515625" stop-color="#C4C4C4" stop-opacity="0.996078"/>
<stop offset="1" stop-color="#C4C4C4" stop-opacity="0"/>
</linearGradient>
<linearGradient id="paint3_linear_393_6298" x1="8" y1="3" x2="8" y2="8" gradientUnits="userSpaceOnUse">
<stop stop-color="#F6F6F6"/>
<stop offset="1" stop-color="#A8A8A8"/>
</linearGradient>
<linearGradient id="paint4_linear_393_6298" x1="1" y1="5.50174" x2="15" y2="5.49826" gradientUnits="userSpaceOnUse">
<stop stop-color="white"/>
<stop offset="1" stop-color="#F0F0F0"/>
</linearGradient>
<linearGradient id="paint5_linear_393_6298" x1="8.5" y1="8.5" x2="12.7612" y2="14.0656" gradientUnits="userSpaceOnUse">
<stop stop-color="#EAC15E"/>
<stop offset="1" stop-color="#C98032"/>
</linearGradient>
<clipPath id="clip0_393_6298">
<rect width="16" height="16" fill="white"/>
</clipPath>
</defs>
</svg>
