<svg width="16" height="16" viewBox="0 0 16 16" fill="none" xmlns="http://www.w3.org/2000/svg">
<path d="M7.22844 10.9796L13.4613 3.8563L13.1856 2.4774L6.56479 8.6568L7.22844 10.9796Z" fill="#E1EAF6" stroke="url(#paint0_linear_433_7311)"/>
<path d="M7.49998 11.0657V1.30902L8.57466 0.77168L9.47256 9.75069L7.49998 11.0657Z" fill="#E1EAF6" stroke="url(#paint1_linear_433_7311)"/>
<path d="M10.5 12.5C10.5 13.1153 10.3493 13.6482 10.1319 14.0105C9.90852 14.3828 9.66957 14.5 9.49998 14.5C9.3304 14.5 9.09145 14.3828 8.86807 14.0105C8.65066 13.6482 8.49998 13.1153 8.49998 12.5C8.49998 11.8847 8.65066 11.3518 8.86807 10.9895C9.09145 10.6172 9.3304 10.5 9.49998 10.5C9.66957 10.5 9.90852 10.6172 10.1319 10.9895C10.3493 11.3518 10.5 11.8847 10.5 12.5Z" stroke="#63B2E7"/>
<path d="M9.49998 15.5C10.1588 15.5 10.6699 15.0575 10.9894 14.525C11.3149 13.9825 11.5 13.2654 11.5 12.5C11.5 11.7346 11.3149 11.0175 10.9894 10.475C10.6699 9.94246 10.1588 9.5 9.49998 9.5C8.84114 9.5 8.33009 9.94246 8.01058 10.475C7.68509 11.0175 7.49998 11.7346 7.49998 12.5C7.49998 13.2654 7.68509 13.9825 8.01058 14.525C8.33009 15.0575 8.84114 15.5 9.49998 15.5Z" stroke="#4778B3"/>
<path d="M5.53554 11.5355C5.10044 11.9706 4.61711 12.2409 4.20716 12.3434C3.78595 12.4487 3.53413 12.3626 3.41422 12.2426C3.2943 12.1227 3.2082 11.8709 3.3135 11.4497C3.41599 11.0397 3.68623 10.5564 4.12132 10.1213C4.55642 9.68623 5.03975 9.41599 5.4497 9.3135C5.87091 9.2082 6.12273 9.2943 6.24264 9.41421C6.36256 9.53413 6.44866 9.78595 6.34336 10.2072C6.24087 10.6171 5.97063 11.1004 5.53554 11.5355Z" stroke="#63B2E7"/>
<path d="M2.70711 12.9497C3.17298 13.4156 3.84722 13.4641 4.4497 13.3135C5.06344 13.1601 5.70143 12.7839 6.24264 12.2426C6.78386 11.7014 7.16007 11.0634 7.3135 10.4497C7.46412 9.84722 7.41562 9.17298 6.94975 8.70711C6.48388 8.24123 5.80964 8.19274 5.20716 8.34336C4.59342 8.49679 3.95543 8.873 3.41422 9.41421C2.873 9.95543 2.49679 10.5934 2.34336 11.2072C2.19274 11.8096 2.24124 12.4839 2.70711 12.9497Z" stroke="#4778B3"/>
<defs>
<linearGradient id="paint0_linear_433_7311" x1="14.375" y1="2.375" x2="5.87498" y2="10.875" gradientUnits="userSpaceOnUse">
<stop stop-color="#709ABB"/>
<stop offset="1" stop-color="#9CBDDB"/>
</linearGradient>
<linearGradient id="paint1_linear_433_7311" x1="8.49998" y1="0" x2="8.49998" y2="12" gradientUnits="userSpaceOnUse">
<stop stop-color="#709ABB"/>
<stop offset="1" stop-color="#9CBDDB"/>
</linearGradient>
</defs>
</svg>
