<svg width="16" height="16" viewBox="0 0 16 16" fill="none" xmlns="http://www.w3.org/2000/svg">
<path d="M7.22846 10.9796L13.4614 3.8563L13.1856 2.4774L6.5648 8.6568L7.22846 10.9796Z" fill="#E1EAF6" stroke="url(#paint0_linear_433_7322)"/>
<path d="M7.5 11.0657V1.30902L8.57467 0.77168L9.47258 9.75069L7.5 11.0657Z" fill="#E1EAF6" stroke="url(#paint1_linear_433_7322)"/>
<path d="M10.5 12.5C10.5 13.1153 10.3493 13.6482 10.1319 14.0105C9.90853 14.3828 9.66958 14.5 9.5 14.5C9.33042 14.5 9.09147 14.3828 8.86809 14.0105C8.65068 13.6482 8.5 13.1153 8.5 12.5C8.5 11.8847 8.65068 11.3518 8.86809 10.9895C9.09147 10.6172 9.33042 10.5 9.5 10.5C9.66958 10.5 9.90853 10.6172 10.1319 10.9895C10.3493 11.3518 10.5 11.8847 10.5 12.5Z" stroke="#F56055"/>
<path d="M9.5 15.5C10.1588 15.5 10.6699 15.0575 10.9894 14.525C11.3149 13.9825 11.5 13.2654 11.5 12.5C11.5 11.7346 11.3149 11.0175 10.9894 10.475C10.6699 9.94246 10.1588 9.5 9.5 9.5C8.84116 9.5 8.33011 9.94246 8.01059 10.475C7.68511 11.0175 7.5 11.7346 7.5 12.5C7.5 13.2654 7.68511 13.9825 8.01059 14.525C8.33011 15.0575 8.84116 15.5 9.5 15.5Z" stroke="#C7433A"/>
<path d="M5.53552 11.5355C5.10043 11.9706 4.6171 12.2409 4.20715 12.3434C3.78594 12.4487 3.53412 12.3626 3.4142 12.2426C3.29429 12.1227 3.20818 11.8709 3.31349 11.4497C3.41597 11.0397 3.68622 10.5564 4.12131 10.1213C4.5564 9.68623 5.03973 9.41599 5.44968 9.3135C5.87089 9.2082 6.12272 9.2943 6.24263 9.41421C6.36254 9.53413 6.44865 9.78595 6.34334 10.2072C6.24086 10.6171 5.97062 11.1004 5.53552 11.5355Z" stroke="#F56055"/>
<path d="M2.7071 12.9497C3.17297 13.4156 3.8472 13.4641 4.44968 13.3135C5.06342 13.1601 5.70141 12.7839 6.24263 12.2426C6.78385 11.7014 7.16005 11.0634 7.31349 10.4497C7.46411 9.84722 7.41561 9.17298 6.94974 8.70711C6.48386 8.24123 5.80963 8.19274 5.20715 8.34336C4.59341 8.49679 3.95542 8.873 3.4142 9.41421C2.87299 9.95543 2.49678 10.5934 2.34334 11.2072C2.19272 11.8096 2.24122 12.4839 2.7071 12.9497Z" stroke="#C7433A"/>
<defs>
<linearGradient id="paint0_linear_433_7322" x1="14.375" y1="2.375" x2="5.87499" y2="10.875" gradientUnits="userSpaceOnUse">
<stop stop-color="#709ABB"/>
<stop offset="1" stop-color="#9CBDDB"/>
</linearGradient>
<linearGradient id="paint1_linear_433_7322" x1="8.5" y1="0" x2="8.5" y2="12" gradientUnits="userSpaceOnUse">
<stop stop-color="#709ABB"/>
<stop offset="1" stop-color="#9CBDDB"/>
</linearGradient>
</defs>
</svg>
