<svg width="16" height="16" viewBox="0 0 16 16" fill="none" xmlns="http://www.w3.org/2000/svg">
<g clip-path="url(#clip0_99_13573)">
<mask id="path-1-inside-1_99_13573" fill="white">
<path fill-rule="evenodd" clip-rule="evenodd" d="M16 4V12C16 13.6569 13.3137 15 10 15C6.68629 15 4 13.6569 4 12V4C4 2.34315 6.68629 1 10 1C13.3137 1 16 2.34315 16 4Z"/>
</mask>
<path fill-rule="evenodd" clip-rule="evenodd" d="M16 4V12C16 13.6569 13.3137 15 10 15C6.68629 15 4 13.6569 4 12V4C4 2.34315 6.68629 1 10 1C13.3137 1 16 2.34315 16 4Z" fill="url(#paint0_linear_99_13573)"/>
<path d="M15 4V12H17V4H15ZM10 16C11.7784 16 13.4379 15.6417 14.6899 15.0157C15.8819 14.4197 17 13.4113 17 12H15C15 12.2456 14.7749 12.7372 13.7954 13.2269C12.8758 13.6867 11.5353 14 10 14V16ZM3 12C3 13.4113 4.11805 14.4197 5.31015 15.0157C6.56205 15.6417 8.22156 16 10 16V14C8.46473 14 7.12424 13.6867 6.20457 13.2269C5.22509 12.7372 5 12.2456 5 12H3ZM5 12V4H3V12H5ZM10 0C8.22156 0 6.56205 0.3583 5.31015 0.984252C4.11805 1.5803 3 2.58874 3 4H5C5 3.7544 5.22509 3.26285 6.20457 2.77311C7.12424 2.31327 8.46473 2 10 2V0ZM17 4C17 2.58874 15.8819 1.5803 14.6899 0.984252C13.4379 0.3583 11.7784 0 10 0V2C11.5353 2 12.8758 2.31327 13.7954 2.77311C14.7749 3.26285 15 3.7544 15 4H17Z" fill="url(#paint1_linear_99_13573)" fill-opacity="0.5" mask="url(#path-1-inside-1_99_13573)"/>
<g filter="url(#filter0_d_99_13573)">
<ellipse cx="10" cy="4" rx="5" ry="2" fill="white"/>
</g>
<mask id="path-4-inside-2_99_13573" fill="white">
<path fill-rule="evenodd" clip-rule="evenodd" d="M15 4V12C15 13.1046 12.7614 14 10 14C7.23858 14 5 13.1046 5 12V4C5 2.89543 7.23858 2 10 2C12.7614 2 15 2.89543 15 4Z"/>
</mask>
<path d="M14 4V12H16V4H14ZM10 15C11.4754 15 12.8571 14.7626 13.9069 14.3427C14.4291 14.1338 14.9187 13.8601 15.2942 13.505C15.6718 13.148 16 12.6397 16 12H14C14 11.9126 14.0484 11.9305 13.92 12.0519C13.7894 12.1754 13.5468 12.3327 13.1641 12.4857C12.4043 12.7897 11.2861 13 10 13V15ZM4 12C4 12.6397 4.32823 13.148 4.70582 13.505C5.08129 13.8601 5.57094 14.1338 6.09308 14.3427C7.1429 14.7626 8.52464 15 10 15V13C8.71394 13 7.59568 12.7897 6.83586 12.4857C6.45317 12.3327 6.21059 12.1754 6.08003 12.0519C5.95159 11.9305 6 11.9126 6 12H4ZM6 12V4H4V12H6ZM10 1C8.52464 1 7.1429 1.23738 6.09308 1.65731C5.57094 1.86616 5.08129 2.13987 4.70582 2.49495C4.32823 2.85204 4 3.36029 4 4H6C6 4.08742 5.95159 4.06954 6.08003 3.94807C6.21059 3.8246 6.45317 3.66734 6.83586 3.51426C7.59568 3.21033 8.71394 3 10 3V1ZM16 4C16 3.36029 15.6718 2.85204 15.2942 2.49495C14.9187 2.13987 14.4291 1.86616 13.9069 1.65731C12.8571 1.23738 11.4754 1 10 1V3C11.2861 3 12.4043 3.21033 13.1641 3.51426C13.5468 3.66734 13.7894 3.8246 13.92 3.94807C14.0484 4.06954 14 4.08742 14 4H16Z" fill="url(#paint2_linear_99_13573)" mask="url(#path-4-inside-2_99_13573)"/>
<mask id="path-6-outside-3_99_13573" maskUnits="userSpaceOnUse" x="2" y="5" width="6" height="6" fill="black">
<rect fill="white" x="2" y="5" width="6" height="6"/>
<path d="M6 6L5 7L4 8L5 9L6 8L7 7L6 6Z"/>
</mask>
<path d="M6 6L5 7L4 8L5 9L6 8L7 7L6 6Z" fill="#A9A9A9"/>
<path d="M6 6L6.70711 5.29289C6.31658 4.90237 5.68342 4.90237 5.29289 5.29289L6 6ZM7 7L7.70711 7.70711C8.09763 7.31658 8.09763 6.68342 7.70711 6.29289L7 7ZM5 9L4.29289 9.70711L5 10.4142L5.70711 9.70711L5 9ZM4 8L3.29289 7.29289L2.58579 8L3.29289 8.70711L4 8ZM5.70711 7.70711L6.70711 6.70711L5.29289 5.29289L4.29289 6.29289L5.70711 7.70711ZM6.29289 6.29289L5.29289 7.29289L6.70711 8.70711L7.70711 7.70711L6.29289 6.29289ZM5.29289 7.29289L4.29289 8.29289L5.70711 9.70711L6.70711 8.70711L5.29289 7.29289ZM5.70711 8.29289L4.70711 7.29289L3.29289 8.70711L4.29289 9.70711L5.70711 8.29289ZM4.70711 8.70711L5.70711 7.70711L4.29289 6.29289L3.29289 7.29289L4.70711 8.70711ZM5.29289 6.70711L6.29289 7.70711L7.70711 6.29289L6.70711 5.29289L5.29289 6.70711Z" fill="#838383" mask="url(#path-6-outside-3_99_13573)"/>
<mask id="path-8-outside-4_99_13573" maskUnits="userSpaceOnUse" x="5" y="8" width="6" height="6" fill="black">
<rect fill="white" x="5" y="8" width="6" height="6"/>
<path d="M9 9L8 10L7 11L8 12L9 11L10 10L9 9Z"/>
</mask>
<path d="M9 9L8 10L7 11L8 12L9 11L10 10L9 9Z" fill="#A9A9A9"/>
<path d="M9 9L9.70711 8.29289C9.31658 7.90237 8.68342 7.90237 8.29289 8.29289L9 9ZM10 10L10.7071 10.7071C11.0976 10.3166 11.0976 9.68342 10.7071 9.29289L10 10ZM8 12L7.29289 12.7071L8 13.4142L8.70711 12.7071L8 12ZM7 11L6.29289 10.2929L5.58579 11L6.29289 11.7071L7 11ZM8.70711 10.7071L9.70711 9.70711L8.29289 8.29289L7.29289 9.29289L8.70711 10.7071ZM9.29289 9.29289L8.29289 10.2929L9.70711 11.7071L10.7071 10.7071L9.29289 9.29289ZM8.29289 10.2929L7.29289 11.2929L8.70711 12.7071L9.70711 11.7071L8.29289 10.2929ZM8.70711 11.2929L7.70711 10.2929L6.29289 11.7071L7.29289 12.7071L8.70711 11.2929ZM7.70711 11.7071L8.70711 10.7071L7.29289 9.29289L6.29289 10.2929L7.70711 11.7071ZM8.29289 9.70711L9.29289 10.7071L10.7071 9.29289L9.70711 8.29289L8.29289 9.70711Z" fill="#6F6F6F" mask="url(#path-8-outside-4_99_13573)"/>
<mask id="path-10-outside-5_99_13573" maskUnits="userSpaceOnUse" x="0" y="6" width="10" height="10" fill="black">
<rect fill="white" y="6" width="10" height="10"/>
<path d="M3 8L4 7L9 12L8 13H5L3 15C1.89543 15 1 14.1046 1 13L3 11V8Z"/>
</mask>
<path d="M3 8L4 7L9 12L8 13H5L3 15C1.89543 15 1 14.1046 1 13L3 11V8Z" fill="url(#paint3_linear_99_13573)"/>
<path d="M4 7L4.70711 6.29289C4.31658 5.90237 3.68342 5.90237 3.29289 6.29289L4 7ZM3 8L2.29289 7.29289C2.10536 7.48043 2 7.73478 2 8H3ZM3 11L3.70711 11.7071L4 11.4142V11H3ZM1 13L0.292893 12.2929L0 12.5858V13H1ZM3 15V16H3.41421L3.70711 15.7071L3 15ZM5 13V12H4.58579L4.29289 12.2929L5 13ZM8 13V14C8.26522 14 8.51957 13.8946 8.70711 13.7071L8 13ZM9 12L9.70711 12.7071C10.0976 12.3166 10.0976 11.6834 9.70711 11.2929L9 12ZM3.29289 6.29289L2.29289 7.29289L3.70711 8.70711L4.70711 7.70711L3.29289 6.29289ZM2 8V11H4V8H2ZM2.29289 10.2929L0.292893 12.2929L1.70711 13.7071L3.70711 11.7071L2.29289 10.2929ZM3.70711 15.7071L5.70711 13.7071L4.29289 12.2929L2.29289 14.2929L3.70711 15.7071ZM5 14H8V12H5V14ZM8.70711 13.7071L9.70711 12.7071L8.29289 11.2929L7.29289 12.2929L8.70711 13.7071ZM9.70711 11.2929L4.70711 6.29289L3.29289 7.70711L8.29289 12.7071L9.70711 11.2929ZM0 13C0 14.6569 1.34315 16 3 16V14C2.44772 14 2 13.5523 2 13H0Z" fill="url(#paint4_linear_99_13573)" mask="url(#path-10-outside-5_99_13573)"/>
<mask id="path-12-inside-6_99_13573" fill="white">
<path d="M3 8L4 7L9 12L8 13H5L3 15C1.89543 15 1 14.1046 1 13L3 11V8Z"/>
</mask>
<path d="M4 7L4.70711 6.29289C4.31658 5.90237 3.68342 5.90237 3.29289 6.29289L4 7ZM3 8L2.29289 7.29289L2 7.58579V8H3ZM3 11L3.70711 11.7071L4 11.4142V11H3ZM1 13L0.292893 12.2929L0 12.5858V13H1ZM3 15V16H3.41421L3.70711 15.7071L3 15ZM5 13V12H4.58579L4.29289 12.2929L5 13ZM8 13V14H8.41421L8.70711 13.7071L8 13ZM9 12L9.70711 12.7071L10.4142 12L9.70711 11.2929L9 12ZM3.29289 6.29289L2.29289 7.29289L3.70711 8.70711L4.70711 7.70711L3.29289 6.29289ZM2 8V11H4V8H2ZM2.29289 10.2929L0.292893 12.2929L1.70711 13.7071L3.70711 11.7071L2.29289 10.2929ZM3.70711 15.7071L5.70711 13.7071L4.29289 12.2929L2.29289 14.2929L3.70711 15.7071ZM5 14H8V12H5V14ZM8.70711 13.7071L9.70711 12.7071L8.29289 11.2929L7.29289 12.2929L8.70711 13.7071ZM9.70711 11.2929L4.70711 6.29289L3.29289 7.70711L8.29289 12.7071L9.70711 11.2929ZM0 13C0 14.6569 1.34315 16 3 16V14C2.44772 14 2 13.5523 2 13H0Z" fill="url(#paint5_linear_99_13573)" mask="url(#path-12-inside-6_99_13573)"/>
</g>
<defs>
<filter id="filter0_d_99_13573" x="5" y="2" width="10" height="5" filterUnits="userSpaceOnUse" color-interpolation-filters="sRGB">
<feFlood flood-opacity="0" result="BackgroundImageFix"/>
<feColorMatrix in="SourceAlpha" type="matrix" values="0 0 0 0 0 0 0 0 0 0 0 0 0 0 0 0 0 0 127 0" result="hardAlpha"/>
<feOffset dy="1"/>
<feComposite in2="hardAlpha" operator="out"/>
<feColorMatrix type="matrix" values="0 0 0 0 0 0 0 0 0 0 0 0 0 0 0 0 0 0 0.1 0"/>
<feBlend mode="normal" in2="BackgroundImageFix" result="effect1_dropShadow_99_13573"/>
<feBlend mode="normal" in="SourceGraphic" in2="effect1_dropShadow_99_13573" result="shape"/>
</filter>
<linearGradient id="paint0_linear_99_13573" x1="4" y1="7.46154" x2="16" y2="7.46154" gradientUnits="userSpaceOnUse">
<stop stop-color="#EEEEEE"/>
<stop offset="1" stop-color="#C2C2C2"/>
</linearGradient>
<linearGradient id="paint1_linear_99_13573" x1="16" y1="16" x2="5.68524" y2="-0.08096" gradientUnits="userSpaceOnUse">
<stop offset="0.0914634" stop-color="#727272"/>
<stop offset="0.917175" stop-color="#B8B8B8"/>
</linearGradient>
<linearGradient id="paint2_linear_99_13573" x1="15" y1="14" x2="5.98345" y2="1.30169" gradientUnits="userSpaceOnUse">
<stop stop-color="#E7E7E7"/>
<stop offset="0.883197" stop-color="white"/>
</linearGradient>
<linearGradient id="paint3_linear_99_13573" x1="3.35276e-08" y1="7" x2="9" y2="16" gradientUnits="userSpaceOnUse">
<stop stop-color="#85AEE1"/>
<stop offset="1" stop-color="#3F7AC3"/>
</linearGradient>
<linearGradient id="paint4_linear_99_13573" x1="6.37025e-07" y1="7" x2="9" y2="16" gradientUnits="userSpaceOnUse">
<stop stop-color="#9CBDEE"/>
<stop offset="1" stop-color="#1B3776"/>
</linearGradient>
<linearGradient id="paint5_linear_99_13573" x1="6.37025e-07" y1="7" x2="9" y2="16" gradientUnits="userSpaceOnUse">
<stop stop-color="#ABC4E6"/>
<stop offset="1" stop-color="#6289BF"/>
</linearGradient>
<clipPath id="clip0_99_13573">
<rect width="16" height="16" fill="white"/>
</clipPath>
</defs>
</svg>
