<svg width="16" height="16" viewBox="0 0 16 16" fill="none" xmlns="http://www.w3.org/2000/svg">
<g clip-path="url(#clip0_99_13566)">
<mask id="path-1-inside-1_99_13566" fill="white">
<path fill-rule="evenodd" clip-rule="evenodd" d="M16 4V12C16 13.6569 13.3137 15 10 15C6.68629 15 4 13.6569 4 12V4C4 2.34315 6.68629 1 10 1C13.3137 1 16 2.34315 16 4Z"/>
</mask>
<path fill-rule="evenodd" clip-rule="evenodd" d="M16 4V12C16 13.6569 13.3137 15 10 15C6.68629 15 4 13.6569 4 12V4C4 2.34315 6.68629 1 10 1C13.3137 1 16 2.34315 16 4Z" fill="url(#paint0_linear_99_13566)"/>
<path d="M15 4V12H17V4H15ZM10 16C11.7784 16 13.4379 15.6417 14.6899 15.0157C15.8819 14.4197 17 13.4113 17 12H15C15 12.2456 14.7749 12.7372 13.7954 13.2269C12.8758 13.6867 11.5353 14 10 14V16ZM3 12C3 13.4113 4.11805 14.4197 5.31015 15.0157C6.56205 15.6417 8.22156 16 10 16V14C8.46473 14 7.12424 13.6867 6.20457 13.2269C5.22509 12.7372 5 12.2456 5 12H3ZM5 12V4H3V12H5ZM10 0C8.22156 0 6.56205 0.3583 5.31015 0.984252C4.11805 1.5803 3 2.58874 3 4H5C5 3.7544 5.22509 3.26285 6.20457 2.77311C7.12424 2.31327 8.46473 2 10 2V0ZM17 4C17 2.58874 15.8819 1.5803 14.6899 0.984252C13.4379 0.3583 11.7784 0 10 0V2C11.5353 2 12.8758 2.31327 13.7954 2.77311C14.7749 3.26285 15 3.7544 15 4H17Z" fill="url(#paint1_linear_99_13566)" fill-opacity="0.5" mask="url(#path-1-inside-1_99_13566)"/>
<g filter="url(#filter0_d_99_13566)">
<ellipse cx="10" cy="4" rx="5" ry="2" fill="white"/>
</g>
<mask id="path-4-inside-2_99_13566" fill="white">
<path fill-rule="evenodd" clip-rule="evenodd" d="M15 4V12C15 13.1046 12.7614 14 10 14C7.23858 14 5 13.1046 5 12V4C5 2.89543 7.23858 2 10 2C12.7614 2 15 2.89543 15 4Z"/>
</mask>
<path d="M14 4V12H16V4H14ZM10 15C11.4754 15 12.8571 14.7626 13.9069 14.3427C14.4291 14.1338 14.9187 13.8601 15.2942 13.505C15.6718 13.148 16 12.6397 16 12H14C14 11.9126 14.0484 11.9305 13.92 12.0519C13.7894 12.1754 13.5468 12.3327 13.1641 12.4857C12.4043 12.7897 11.2861 13 10 13V15ZM4 12C4 12.6397 4.32823 13.148 4.70582 13.505C5.08129 13.8601 5.57094 14.1338 6.09308 14.3427C7.1429 14.7626 8.52464 15 10 15V13C8.71394 13 7.59568 12.7897 6.83586 12.4857C6.45317 12.3327 6.21059 12.1754 6.08003 12.0519C5.95159 11.9305 6 11.9126 6 12H4ZM6 12V4H4V12H6ZM10 1C8.52464 1 7.1429 1.23738 6.09308 1.65731C5.57094 1.86616 5.08129 2.13987 4.70582 2.49495C4.32823 2.85204 4 3.36029 4 4H6C6 4.08742 5.95159 4.06954 6.08003 3.94807C6.21059 3.8246 6.45317 3.66734 6.83586 3.51426C7.59568 3.21033 8.71394 3 10 3V1ZM16 4C16 3.36029 15.6718 2.85204 15.2942 2.49495C14.9187 2.13987 14.4291 1.86616 13.9069 1.65731C12.8571 1.23738 11.4754 1 10 1V3C11.2861 3 12.4043 3.21033 13.1641 3.51426C13.5468 3.66734 13.7894 3.8246 13.92 3.94807C14.0484 4.06954 14 4.08742 14 4H16Z" fill="url(#paint2_linear_99_13566)" mask="url(#path-4-inside-2_99_13566)"/>
<path d="M9 8.5H7V8.15139L8.91603 5.27735L9.43426 4.5H8.5H4.5H4.19098L4.05279 4.77639L1.55279 9.77639L1.19098 10.5H2H4.85961L4.51493 11.8787L4.17337 13.245L5.3 12.4L9.3 9.4L10.5 8.5H9Z" fill="url(#paint3_linear_99_13566)" stroke="url(#paint4_linear_99_13566)"/>
<path d="M5.98507 10.1213L6.14039 9.5H6.5H7.5L5.82663 10.755L5.98507 10.1213ZM5.5 9.5H2.80902L4.80902 5.5H7.56574L6.08397 7.72265L6 7.84861V8V9V9.5H5.5Z" stroke="url(#paint5_linear_99_13566)"/>
</g>
<defs>
<filter id="filter0_d_99_13566" x="5" y="2" width="10" height="5" filterUnits="userSpaceOnUse" color-interpolation-filters="sRGB">
<feFlood flood-opacity="0" result="BackgroundImageFix"/>
<feColorMatrix in="SourceAlpha" type="matrix" values="0 0 0 0 0 0 0 0 0 0 0 0 0 0 0 0 0 0 127 0" result="hardAlpha"/>
<feOffset dy="1"/>
<feComposite in2="hardAlpha" operator="out"/>
<feColorMatrix type="matrix" values="0 0 0 0 0 0 0 0 0 0 0 0 0 0 0 0 0 0 0.1 0"/>
<feBlend mode="normal" in2="BackgroundImageFix" result="effect1_dropShadow_99_13566"/>
<feBlend mode="normal" in="SourceGraphic" in2="effect1_dropShadow_99_13566" result="shape"/>
</filter>
<linearGradient id="paint0_linear_99_13566" x1="4" y1="7.46154" x2="16" y2="7.46154" gradientUnits="userSpaceOnUse">
<stop stop-color="#EEEEEE"/>
<stop offset="1" stop-color="#C2C2C2"/>
</linearGradient>
<linearGradient id="paint1_linear_99_13566" x1="16" y1="16" x2="5.68524" y2="-0.08096" gradientUnits="userSpaceOnUse">
<stop offset="0.0914634" stop-color="#727272"/>
<stop offset="0.917175" stop-color="#B8B8B8"/>
</linearGradient>
<linearGradient id="paint2_linear_99_13566" x1="15" y1="14" x2="5.98345" y2="1.30169" gradientUnits="userSpaceOnUse">
<stop stop-color="#E7E7E7"/>
<stop offset="0.883197" stop-color="white"/>
</linearGradient>
<linearGradient id="paint3_linear_99_13566" x1="0.103446" y1="4" x2="9.85338" y2="14.9305" gradientUnits="userSpaceOnUse">
<stop stop-color="#F4D848"/>
<stop offset="1" stop-color="#EBB62F"/>
</linearGradient>
<linearGradient id="paint4_linear_99_13566" x1="2" y1="5.18626" x2="8.68267" y2="12" gradientUnits="userSpaceOnUse">
<stop stop-color="#ECD45D"/>
<stop offset="1" stop-color="#D79D22"/>
</linearGradient>
<linearGradient id="paint5_linear_99_13566" x1="2.00351" y1="5" x2="8.99649" y2="12" gradientUnits="userSpaceOnUse">
<stop offset="0.366222" stop-color="#F8E690"/>
<stop offset="0.68369" stop-color="#F0D07D"/>
</linearGradient>
<clipPath id="clip0_99_13566">
<rect width="16" height="16" fill="white"/>
</clipPath>
</defs>
</svg>
