<svg width="16" height="16" viewBox="0 0 16 16" fill="none" xmlns="http://www.w3.org/2000/svg">
<g clip-path="url(#clip0_99_13569)">
<mask id="path-1-inside-1_99_13569" fill="white">
<path fill-rule="evenodd" clip-rule="evenodd" d="M12 3V11C12 12.6569 9.31371 14 6 14C2.68629 14 0 12.6569 0 11V3C0 1.34315 2.68629 0 6 0C9.31371 0 12 1.34315 12 3Z"/>
</mask>
<path fill-rule="evenodd" clip-rule="evenodd" d="M12 3V11C12 12.6569 9.31371 14 6 14C2.68629 14 0 12.6569 0 11V3C0 1.34315 2.68629 0 6 0C9.31371 0 12 1.34315 12 3Z" fill="url(#paint0_linear_99_13569)"/>
<path d="M11 3V11H13V3H11ZM6 15C7.77844 15 9.43795 14.6417 10.6899 14.0157C11.8819 13.4197 13 12.4113 13 11H11C11 11.2456 10.7749 11.7372 9.79543 12.2269C8.87576 12.6867 7.53527 13 6 13V15ZM-1 11C-1 12.4113 0.118055 13.4197 1.31015 14.0157C2.56205 14.6417 4.22156 15 6 15V13C4.46473 13 3.12424 12.6867 2.20457 12.2269C1.22509 11.7372 1 11.2456 1 11H-1ZM1 11V3H-1V11H1ZM6 -1C4.22156 -1 2.56205 -0.6417 1.31015 -0.0157475C0.118055 0.580298 -1 1.58874 -1 3H1C1 2.7544 1.22509 2.26285 2.20457 1.77311C3.12424 1.31327 4.46473 1 6 1V-1ZM13 3C13 1.58874 11.8819 0.580298 10.6899 -0.0157475C9.43795 -0.6417 7.77844 -1 6 -1V1C7.53527 1 8.87576 1.31327 9.79543 1.77311C10.7749 2.26285 11 2.7544 11 3H13Z" fill="url(#paint1_linear_99_13569)" fill-opacity="0.5" mask="url(#path-1-inside-1_99_13569)"/>
<g filter="url(#filter0_d_99_13569)">
<ellipse cx="6" cy="3" rx="5" ry="2" fill="white"/>
</g>
<mask id="path-4-inside-2_99_13569" fill="white">
<path fill-rule="evenodd" clip-rule="evenodd" d="M11 3V11C11 12.1046 8.76142 13 6 13C3.23858 13 1 12.1046 1 11V3C1 1.89543 3.23858 1 6 1C8.76142 1 11 1.89543 11 3Z"/>
</mask>
<path d="M10 3V11H12V3H10ZM6 14C7.47536 14 8.8571 13.7626 9.90692 13.3427C10.4291 13.1338 10.9187 12.8601 11.2942 12.505C11.6718 12.148 12 11.6397 12 11H10C10 10.9126 10.0484 10.9305 9.91997 11.0519C9.78941 11.1754 9.54683 11.3327 9.16414 11.4857C8.40432 11.7897 7.28606 12 6 12V14ZM0 11C0 11.6397 0.328233 12.148 0.705817 12.505C1.08129 12.8601 1.57094 13.1338 2.09308 13.3427C3.1429 13.7626 4.52464 14 6 14V12C4.71394 12 3.59568 11.7897 2.83586 11.4857C2.45317 11.3327 2.21059 11.1754 2.08003 11.0519C1.95159 10.9305 2 10.9126 2 11H0ZM2 11V3H0V11H2ZM6 0C4.52464 0 3.1429 0.237381 2.09308 0.65731C1.57094 0.866164 1.08129 1.13987 0.705817 1.49495C0.328233 1.85204 0 2.36029 0 3H2C2 3.08742 1.95159 3.06954 2.08003 2.94807C2.21059 2.8246 2.45317 2.66734 2.83586 2.51426C3.59568 2.21033 4.71394 2 6 2V0ZM12 3C12 2.36029 11.6718 1.85204 11.2942 1.49495C10.9187 1.13987 10.4291 0.866164 9.90692 0.65731C8.8571 0.237381 7.47536 0 6 0V2C7.28606 2 8.40432 2.21033 9.16414 2.51426C9.54683 2.66734 9.78941 2.8246 9.91997 2.94807C10.0484 3.06954 10 3.08742 10 3H12Z" fill="url(#paint2_linear_99_13569)" mask="url(#path-4-inside-2_99_13569)"/>
<mask id="path-6-inside-3_99_13569" fill="white">
<path fill-rule="evenodd" clip-rule="evenodd" d="M10.75 6C10.1977 6 9.75 6.44772 9.75 7V7.26484C9.75 7.38383 9.67414 7.48909 9.56423 7.53468C9.45426 7.5803 9.32693 7.55916 9.24274 7.47497L9.05546 7.28769C8.66493 6.89716 8.03177 6.89716 7.64124 7.28769L7.28769 7.64124C6.89717 8.03176 6.89717 8.66493 7.28769 9.05545L7.47497 9.24273C7.55916 9.32692 7.5803 9.45426 7.53468 9.56423C7.48909 9.67414 7.38383 9.75 7.26484 9.75H7C6.44772 9.75 6 10.1977 6 10.75V11.25C6 11.8023 6.44772 12.25 7 12.25H7.26483C7.38383 12.25 7.48909 12.3259 7.53468 12.4358C7.5803 12.5457 7.55916 12.6731 7.47497 12.7573L7.28769 12.9445C6.89716 13.3351 6.89716 13.9682 7.28769 14.3588L7.64124 14.7123C8.03177 15.1028 8.66493 15.1028 9.05545 14.7123L9.24274 14.525C9.32693 14.4408 9.45426 14.4197 9.56423 14.4653C9.67414 14.5109 9.75 14.6162 9.75 14.7352V15C9.75 15.5523 10.1977 16 10.75 16H11.25C11.8023 16 12.25 15.5523 12.25 15V14.7352C12.25 14.6162 12.3259 14.5109 12.4358 14.4653C12.5457 14.4197 12.6731 14.4408 12.7573 14.525L12.9445 14.7123C13.3351 15.1028 13.9682 15.1028 14.3588 14.7123L14.7123 14.3588C15.1028 13.9682 15.1028 13.3351 14.7123 12.9445L14.525 12.7573C14.4408 12.6731 14.4197 12.5457 14.4653 12.4358C14.5109 12.3259 14.6162 12.25 14.7352 12.25H15C15.5523 12.25 16 11.8023 16 11.25V10.75C16 10.1977 15.5523 9.75 15 9.75H14.7352C14.6162 9.75 14.5109 9.67414 14.4653 9.56423C14.4197 9.45426 14.4408 9.32693 14.525 9.24274L14.7123 9.05546C15.1028 8.66494 15.1028 8.03177 14.7123 7.64125L14.3588 7.28769C13.9682 6.89717 13.3351 6.89717 12.9445 7.28769L12.7573 7.47497C12.6731 7.55916 12.5457 7.5803 12.4358 7.53468C12.3259 7.48909 12.25 7.38383 12.25 7.26484V7C12.25 6.44772 11.8023 6 11.25 6H10.75ZM11 12.25C11.6904 12.25 12.25 11.6904 12.25 11C12.25 10.3096 11.6904 9.75 11 9.75C10.3096 9.75 9.75 10.3096 9.75 11C9.75 11.6904 10.3096 12.25 11 12.25Z"/>
</mask>
<g filter="url(#filter1_ii_99_13569)">
<path fill-rule="evenodd" clip-rule="evenodd" d="M10.75 6C10.1977 6 9.75 6.44772 9.75 7V7.26484C9.75 7.38383 9.67414 7.48909 9.56423 7.53468C9.45426 7.5803 9.32693 7.55916 9.24274 7.47497L9.05546 7.28769C8.66493 6.89716 8.03177 6.89716 7.64124 7.28769L7.28769 7.64124C6.89717 8.03176 6.89717 8.66493 7.28769 9.05545L7.47497 9.24273C7.55916 9.32692 7.5803 9.45426 7.53468 9.56423C7.48909 9.67414 7.38383 9.75 7.26484 9.75H7C6.44772 9.75 6 10.1977 6 10.75V11.25C6 11.8023 6.44772 12.25 7 12.25H7.26483C7.38383 12.25 7.48909 12.3259 7.53468 12.4358C7.5803 12.5457 7.55916 12.6731 7.47497 12.7573L7.28769 12.9445C6.89716 13.3351 6.89716 13.9682 7.28769 14.3588L7.64124 14.7123C8.03177 15.1028 8.66493 15.1028 9.05545 14.7123L9.24274 14.525C9.32693 14.4408 9.45426 14.4197 9.56423 14.4653C9.67414 14.5109 9.75 14.6162 9.75 14.7352V15C9.75 15.5523 10.1977 16 10.75 16H11.25C11.8023 16 12.25 15.5523 12.25 15V14.7352C12.25 14.6162 12.3259 14.5109 12.4358 14.4653C12.5457 14.4197 12.6731 14.4408 12.7573 14.525L12.9445 14.7123C13.3351 15.1028 13.9682 15.1028 14.3588 14.7123L14.7123 14.3588C15.1028 13.9682 15.1028 13.3351 14.7123 12.9445L14.525 12.7573C14.4408 12.6731 14.4197 12.5457 14.4653 12.4358C14.5109 12.3259 14.6162 12.25 14.7352 12.25H15C15.5523 12.25 16 11.8023 16 11.25V10.75C16 10.1977 15.5523 9.75 15 9.75H14.7352C14.6162 9.75 14.5109 9.67414 14.4653 9.56423C14.4197 9.45426 14.4408 9.32693 14.525 9.24274L14.7123 9.05546C15.1028 8.66494 15.1028 8.03177 14.7123 7.64125L14.3588 7.28769C13.9682 6.89717 13.3351 6.89717 12.9445 7.28769L12.7573 7.47497C12.6731 7.55916 12.5457 7.5803 12.4358 7.53468C12.3259 7.48909 12.25 7.38383 12.25 7.26484V7C12.25 6.44772 11.8023 6 11.25 6H10.75ZM11 12.25C11.6904 12.25 12.25 11.6904 12.25 11C12.25 10.3096 11.6904 9.75 11 9.75C10.3096 9.75 9.75 10.3096 9.75 11C9.75 11.6904 10.3096 12.25 11 12.25Z" fill="#BEBEBE"/>
</g>
<path d="M9.56423 7.53468L9.1811 6.61099L9.1811 6.61099L9.56423 7.53468ZM9.24274 7.47497L9.94984 6.76786L9.94984 6.76786L9.24274 7.47497ZM9.05546 7.28769L8.34835 7.99479L9.05546 7.28769ZM7.64124 7.28769L6.93414 6.58058L6.93414 6.58058L7.64124 7.28769ZM7.28769 7.64124L6.58058 6.93413L6.58058 6.93413L7.28769 7.64124ZM7.28769 9.05545L7.9948 8.34835L7.9948 8.34835L7.28769 9.05545ZM7.47497 9.24273L8.18208 8.53563L8.18208 8.53563L7.47497 9.24273ZM7.53468 9.56423L8.45837 9.94737L8.45837 9.94737L7.53468 9.56423ZM7.53468 12.4358L8.45837 12.0526L8.45837 12.0526L7.53468 12.4358ZM7.47497 12.7573L6.76786 12.0502L6.76786 12.0502L7.47497 12.7573ZM7.28769 12.9445L7.99479 13.6517H7.99479L7.28769 12.9445ZM7.28769 14.3588L7.99479 13.6517H7.99479L7.28769 14.3588ZM7.64124 14.7123L6.93413 15.4194L6.93413 15.4194L7.64124 14.7123ZM9.05545 14.7123L8.34835 14.0052H8.34835L9.05545 14.7123ZM9.24274 14.525L8.53563 13.8179L8.53563 13.8179L9.24274 14.525ZM9.56423 14.4653L9.1811 15.389L9.1811 15.389L9.56423 14.4653ZM12.4358 14.4653L12.8189 15.389L12.8189 15.389L12.4358 14.4653ZM12.7573 14.525L13.4644 13.8179L13.4644 13.8179L12.7573 14.525ZM12.9445 14.7123L12.2374 15.4194L12.2374 15.4194L12.9445 14.7123ZM14.3588 14.7123L15.0659 15.4194V15.4194L14.3588 14.7123ZM14.7123 14.3588L15.4194 15.0659H15.4194L14.7123 14.3588ZM14.7123 12.9445L14.0052 13.6516V13.6516L14.7123 12.9445ZM14.525 12.7573L15.2321 12.0502L15.2321 12.0502L14.525 12.7573ZM14.4653 12.4358L15.389 12.8189L15.389 12.8189L14.4653 12.4358ZM14.4653 9.56423L15.389 9.1811V9.1811L14.4653 9.56423ZM14.525 9.24274L13.8179 8.53563L13.8179 8.53563L14.525 9.24274ZM14.7123 9.05546L15.4194 9.76257L15.4194 9.76257L14.7123 9.05546ZM14.7123 7.64125L15.4194 6.93414L15.4194 6.93414L14.7123 7.64125ZM14.3588 7.28769L13.6516 7.9948L13.6516 7.9948L14.3588 7.28769ZM12.9445 7.28769L13.6516 7.9948L12.9445 7.28769ZM12.7573 7.47497L12.0502 6.76786L12.0502 6.76786L12.7573 7.47497ZM12.4358 7.53468L12.0526 8.45837L12.0526 8.45837L12.4358 7.53468ZM10.75 7V7V5C9.64543 5 8.75 5.89543 8.75 7H10.75ZM10.75 7.26484V7H8.75V7.26484H10.75ZM9.94737 8.45837C10.4003 8.27049 10.75 7.82002 10.75 7.26484H8.75C8.75 6.94763 8.94796 6.70769 9.1811 6.61099L9.94737 8.45837ZM8.53563 8.18207C8.92594 8.57238 9.49046 8.6479 9.94737 8.45837L9.1811 6.61099C9.41806 6.5127 9.72792 6.54593 9.94984 6.76786L8.53563 8.18207ZM8.34835 7.99479L8.53563 8.18207L9.94984 6.76786L9.76256 6.58058L8.34835 7.99479ZM8.34835 7.99479L8.34835 7.99479L9.76256 6.58058C8.98151 5.79953 7.71518 5.79953 6.93414 6.58058L8.34835 7.99479ZM7.9948 8.34835L8.34835 7.99479L6.93414 6.58058L6.58058 6.93413L7.9948 8.34835ZM7.9948 8.34835L6.58058 6.93413C5.79953 7.71518 5.79953 8.98151 6.58058 9.76256L7.9948 8.34835ZM8.18208 8.53563L7.9948 8.34835L6.58058 9.76256L6.76786 9.94984L8.18208 8.53563ZM8.45837 9.94737C8.6479 9.49045 8.57238 8.92593 8.18208 8.53563L6.76786 9.94984C6.54593 9.72791 6.5127 9.41806 6.61099 9.18109L8.45837 9.94737ZM7.26484 10.75C7.82003 10.75 8.27049 10.4003 8.45837 9.94737L6.61099 9.18109C6.70769 8.94796 6.94763 8.75 7.26484 8.75V10.75ZM7 10.75H7.26484V8.75H7V10.75ZM7 10.75V8.75C5.89543 8.75 5 9.64543 5 10.75H7ZM7 11.25V10.75H5V11.25H7ZM7 11.25H7H5C5 12.3546 5.89543 13.25 7 13.25V11.25ZM7.26483 11.25H7V13.25H7.26483V11.25ZM8.45837 12.0526C8.27049 11.5997 7.82002 11.25 7.26483 11.25V13.25C6.94763 13.25 6.70769 13.052 6.61099 12.8189L8.45837 12.0526ZM8.18207 13.4644C8.57238 13.0741 8.6479 12.5095 8.45837 12.0526L6.61099 12.8189C6.5127 12.5819 6.54593 12.2721 6.76786 12.0502L8.18207 13.4644ZM7.99479 13.6517L8.18207 13.4644L6.76786 12.0502L6.58058 12.2374L7.99479 13.6517ZM7.99479 13.6517V13.6517L6.58058 12.2374C5.79953 13.0185 5.79953 14.2848 6.58058 15.0659L7.99479 13.6517ZM8.34835 14.0052L7.99479 13.6517L6.58058 15.0659L6.93413 15.4194L8.34835 14.0052ZM8.34835 14.0052L6.93413 15.4194C7.71518 16.2005 8.98151 16.2005 9.76256 15.4194L8.34835 14.0052ZM8.53563 13.8179L8.34835 14.0052L9.76256 15.4194L9.94984 15.2321L8.53563 13.8179ZM9.94737 13.5416C9.49046 13.3521 8.92594 13.4276 8.53563 13.8179L9.94984 15.2321C9.72791 15.4541 9.41806 15.4873 9.1811 15.389L9.94737 13.5416ZM10.75 14.7352C10.75 14.18 10.4003 13.7295 9.94737 13.5416L9.1811 15.389C8.94796 15.2923 8.75 15.0524 8.75 14.7352H10.75ZM10.75 15V14.7352H8.75V15H10.75ZM10.75 15H8.75C8.75 16.1046 9.64543 17 10.75 17V15ZM11.25 15H10.75V17H11.25V15ZM11.25 15V17C12.3546 17 13.25 16.1046 13.25 15H11.25ZM11.25 14.7352V15H13.25V14.7352H11.25ZM12.0526 13.5416C11.5997 13.7295 11.25 14.18 11.25 14.7352H13.25C13.25 15.0524 13.052 15.2923 12.8189 15.389L12.0526 13.5416ZM13.4644 13.8179C13.0741 13.4276 12.5095 13.3521 12.0526 13.5416L12.8189 15.389C12.5819 15.4873 12.2721 15.4541 12.0502 15.2321L13.4644 13.8179ZM13.6517 14.0052L13.4644 13.8179L12.0502 15.2321L12.2374 15.4194L13.6517 14.0052ZM13.6517 14.0052H13.6516L12.2374 15.4194C13.0185 16.2005 14.2848 16.2005 15.0659 15.4194L13.6517 14.0052ZM14.0052 13.6516L13.6517 14.0052L15.0659 15.4194L15.4194 15.0659L14.0052 13.6516ZM14.0052 13.6516V13.6516L15.4194 15.0659C16.2005 14.2848 16.2005 13.0185 15.4194 12.2374L14.0052 13.6516ZM13.8179 13.4644L14.0052 13.6516L15.4194 12.2374L15.2321 12.0502L13.8179 13.4644ZM13.5416 12.0526C13.3521 12.5095 13.4276 13.0741 13.8179 13.4644L15.2321 12.0502C15.4541 12.2721 15.4873 12.5819 15.389 12.8189L13.5416 12.0526ZM14.7352 11.25C14.18 11.25 13.7295 11.5997 13.5416 12.0526L15.389 12.8189C15.2923 13.052 15.0524 13.25 14.7352 13.25V11.25ZM15 11.25H14.7352V13.25H15V11.25ZM15 11.25V13.25C16.1046 13.25 17 12.3546 17 11.25H15ZM15 10.75V11.25H17V10.75H15ZM15 10.75H17C17 9.64543 16.1046 8.75 15 8.75V10.75ZM14.7352 10.75H15V8.75H14.7352V10.75ZM13.5416 9.94737C13.7295 10.4003 14.18 10.75 14.7352 10.75V8.75C15.0524 8.75 15.2923 8.94796 15.389 9.1811L13.5416 9.94737ZM13.8179 8.53563C13.4276 8.92594 13.3521 9.49046 13.5416 9.94737L15.389 9.1811C15.4873 9.41806 15.4541 9.72792 15.2321 9.94984L13.8179 8.53563ZM14.0052 8.34835L13.8179 8.53563L15.2321 9.94984L15.4194 9.76257L14.0052 8.34835ZM14.0052 8.34835V8.34835L15.4194 9.76257C16.2005 8.98152 16.2005 7.71519 15.4194 6.93414L14.0052 8.34835ZM13.6516 7.9948L14.0052 8.34835L15.4194 6.93414L15.0659 6.58059L13.6516 7.9948ZM13.6516 7.9948V7.9948L15.0659 6.58059C14.2848 5.79954 13.0185 5.79954 12.2374 6.58059L13.6516 7.9948ZM13.4644 8.18207L13.6516 7.9948L12.2374 6.58059L12.0502 6.76786L13.4644 8.18207ZM12.0526 8.45837C12.5095 8.6479 13.0741 8.57238 13.4644 8.18207L12.0502 6.76786C12.2721 6.54593 12.5819 6.5127 12.8189 6.61099L12.0526 8.45837ZM11.25 7.26484C11.25 7.82003 11.5997 8.27049 12.0526 8.45837L12.8189 6.61099C13.052 6.70769 13.25 6.94763 13.25 7.26484H11.25ZM11.25 7V7.26484H13.25V7H11.25ZM11.25 7H13.25C13.25 5.89543 12.3546 5 11.25 5V7ZM10.75 7H11.25V5H10.75V7ZM11.25 11C11.25 11.1381 11.1381 11.25 11 11.25V13.25C12.2426 13.25 13.25 12.2426 13.25 11H11.25ZM11 10.75C11.1381 10.75 11.25 10.8619 11.25 11H13.25C13.25 9.75736 12.2426 8.75 11 8.75V10.75ZM10.75 11C10.75 10.8619 10.8619 10.75 11 10.75V8.75C9.75736 8.75 8.75 9.75736 8.75 11H10.75ZM11 11.25C10.8619 11.25 10.75 11.1381 10.75 11H8.75C8.75 12.2426 9.75736 13.25 11 13.25V11.25Z" fill="url(#paint3_linear_99_13569)" mask="url(#path-6-inside-3_99_13569)"/>
</g>
<defs>
<filter id="filter0_d_99_13569" x="1" y="1" width="10" height="5" filterUnits="userSpaceOnUse" color-interpolation-filters="sRGB">
<feFlood flood-opacity="0" result="BackgroundImageFix"/>
<feColorMatrix in="SourceAlpha" type="matrix" values="0 0 0 0 0 0 0 0 0 0 0 0 0 0 0 0 0 0 127 0" result="hardAlpha"/>
<feOffset dy="1"/>
<feComposite in2="hardAlpha" operator="out"/>
<feColorMatrix type="matrix" values="0 0 0 0 0 0 0 0 0 0 0 0 0 0 0 0 0 0 0.1 0"/>
<feBlend mode="normal" in2="BackgroundImageFix" result="effect1_dropShadow_99_13569"/>
<feBlend mode="normal" in="SourceGraphic" in2="effect1_dropShadow_99_13569" result="shape"/>
</filter>
<filter id="filter1_ii_99_13569" x="6" y="6" width="12" height="12" filterUnits="userSpaceOnUse" color-interpolation-filters="sRGB">
<feFlood flood-opacity="0" result="BackgroundImageFix"/>
<feBlend mode="normal" in="SourceGraphic" in2="BackgroundImageFix" result="shape"/>
<feColorMatrix in="SourceAlpha" type="matrix" values="0 0 0 0 0 0 0 0 0 0 0 0 0 0 0 0 0 0 127 0" result="hardAlpha"/>
<feOffset dx="4" dy="4"/>
<feGaussianBlur stdDeviation="1"/>
<feComposite in2="hardAlpha" operator="arithmetic" k2="-1" k3="1"/>
<feColorMatrix type="matrix" values="0 0 0 0 1 0 0 0 0 1 0 0 0 0 1 0 0 0 0.33 0"/>
<feBlend mode="normal" in2="shape" result="effect1_innerShadow_99_13569"/>
<feColorMatrix in="SourceAlpha" type="matrix" values="0 0 0 0 0 0 0 0 0 0 0 0 0 0 0 0 0 0 127 0" result="hardAlpha"/>
<feOffset dx="1.5" dy="1.5"/>
<feGaussianBlur stdDeviation="0.5"/>
<feComposite in2="hardAlpha" operator="arithmetic" k2="-1" k3="1"/>
<feColorMatrix type="matrix" values="0 0 0 0 1 0 0 0 0 1 0 0 0 0 1 0 0 0 0.66 0"/>
<feBlend mode="normal" in2="effect1_innerShadow_99_13569" result="effect2_innerShadow_99_13569"/>
</filter>
<linearGradient id="paint0_linear_99_13569" x1="1.37549e-07" y1="6.46154" x2="12" y2="6.46154" gradientUnits="userSpaceOnUse">
<stop stop-color="#EEEEEE"/>
<stop offset="1" stop-color="#C2C2C2"/>
</linearGradient>
<linearGradient id="paint1_linear_99_13569" x1="12" y1="15" x2="1.68524" y2="-1.08096" gradientUnits="userSpaceOnUse">
<stop offset="0.0914634" stop-color="#727272"/>
<stop offset="0.917175" stop-color="#B8B8B8"/>
</linearGradient>
<linearGradient id="paint2_linear_99_13569" x1="11" y1="13" x2="1.98345" y2="0.301692" gradientUnits="userSpaceOnUse">
<stop stop-color="#E7E7E7"/>
<stop offset="0.883197" stop-color="white"/>
</linearGradient>
<linearGradient id="paint3_linear_99_13569" x1="16.001" y1="16.001" x2="5.99904" y2="5.99904" gradientUnits="userSpaceOnUse">
<stop offset="0.14049" stop-color="#4F4F4F"/>
<stop offset="0.857348" stop-color="#CECECE"/>
</linearGradient>
<clipPath id="clip0_99_13569">
<rect width="16" height="16" fill="white"/>
</clipPath>
</defs>
</svg>
