<svg width="16" height="16" viewBox="0 0 16 16" fill="none" xmlns="http://www.w3.org/2000/svg">
<g clip-path="url(#clip0_99_13562)">
<rect x="2.5" y="2.5" width="13" height="13" fill="white" stroke="url(#paint0_linear_99_13562)" stroke-linejoin="round"/>
<mask id="path-2-outside-1_99_13562" maskUnits="userSpaceOnUse" x="3" y="6" width="12" height="9" fill="black">
<rect fill="white" x="3" y="6" width="12" height="9"/>
<path fill-rule="evenodd" clip-rule="evenodd" d="M4 7.5C4 7.22386 4.22386 7 4.5 7C4.77614 7 5 7.22386 5 7.5C5 7.77614 4.77614 8 4.5 8C4.22386 8 4 7.77614 4 7.5ZM6 7.5C6 7.22386 6.22386 7 6.5 7H9.5C9.77614 7 10 7.22386 10 7.5C10 7.77614 9.77614 8 9.5 8H6.5C6.22386 8 6 7.77614 6 7.5ZM11.5 7C11.2239 7 11 7.22386 11 7.5C11 7.77614 11.2239 8 11.5 8H13.5C13.7761 8 14 7.77614 14 7.5C14 7.22386 13.7761 7 13.5 7H11.5ZM11.5 9C11.2239 9 11 9.22386 11 9.5C11 9.77614 11.2239 10 11.5 10H13.5C13.7761 10 14 9.77614 14 9.5C14 9.22386 13.7761 9 13.5 9H11.5ZM11 11.5C11 11.2239 11.2239 11 11.5 11H13.5C13.7761 11 14 11.2239 14 11.5C14 11.7761 13.7761 12 13.5 12H11.5C11.2239 12 11 11.7761 11 11.5ZM11.5 13C11.2239 13 11 13.2239 11 13.5C11 13.7761 11.2239 14 11.5 14H13.5C13.7761 14 14 13.7761 14 13.5C14 13.2239 13.7761 13 13.5 13H11.5ZM6.5 13C6.22386 13 6 13.2239 6 13.5C6 13.7761 6.22386 14 6.5 14H9.5C9.77614 14 10 13.7761 10 13.5C10 13.2239 9.77614 13 9.5 13H6.5ZM6 11.5C6 11.2239 6.22386 11 6.5 11H9.5C9.77614 11 10 11.2239 10 11.5C10 11.7761 9.77614 12 9.5 12H6.5C6.22386 12 6 11.7761 6 11.5ZM6.5 9C6.22386 9 6 9.22386 6 9.5C6 9.77614 6.22386 10 6.5 10H9.5C9.77614 10 10 9.77614 10 9.5C10 9.22386 9.77614 9 9.5 9H6.5ZM4.5 9C4.22386 9 4 9.22386 4 9.5C4 9.77614 4.22386 10 4.5 10C4.77614 10 5 9.77614 5 9.5C5 9.22386 4.77614 9 4.5 9ZM4 11.5C4 11.2239 4.22386 11 4.5 11C4.77614 11 5 11.2239 5 11.5C5 11.7761 4.77614 12 4.5 12C4.22386 12 4 11.7761 4 11.5ZM4.5 13C4.22386 13 4 13.2239 4 13.5C4 13.7761 4.22386 14 4.5 14C4.77614 14 5 13.7761 5 13.5C5 13.2239 4.77614 13 4.5 13Z"/>
</mask>
<path fill-rule="evenodd" clip-rule="evenodd" d="M4 7.5C4 7.22386 4.22386 7 4.5 7C4.77614 7 5 7.22386 5 7.5C5 7.77614 4.77614 8 4.5 8C4.22386 8 4 7.77614 4 7.5ZM6 7.5C6 7.22386 6.22386 7 6.5 7H9.5C9.77614 7 10 7.22386 10 7.5C10 7.77614 9.77614 8 9.5 8H6.5C6.22386 8 6 7.77614 6 7.5ZM11.5 7C11.2239 7 11 7.22386 11 7.5C11 7.77614 11.2239 8 11.5 8H13.5C13.7761 8 14 7.77614 14 7.5C14 7.22386 13.7761 7 13.5 7H11.5ZM11.5 9C11.2239 9 11 9.22386 11 9.5C11 9.77614 11.2239 10 11.5 10H13.5C13.7761 10 14 9.77614 14 9.5C14 9.22386 13.7761 9 13.5 9H11.5ZM11 11.5C11 11.2239 11.2239 11 11.5 11H13.5C13.7761 11 14 11.2239 14 11.5C14 11.7761 13.7761 12 13.5 12H11.5C11.2239 12 11 11.7761 11 11.5ZM11.5 13C11.2239 13 11 13.2239 11 13.5C11 13.7761 11.2239 14 11.5 14H13.5C13.7761 14 14 13.7761 14 13.5C14 13.2239 13.7761 13 13.5 13H11.5ZM6.5 13C6.22386 13 6 13.2239 6 13.5C6 13.7761 6.22386 14 6.5 14H9.5C9.77614 14 10 13.7761 10 13.5C10 13.2239 9.77614 13 9.5 13H6.5ZM6 11.5C6 11.2239 6.22386 11 6.5 11H9.5C9.77614 11 10 11.2239 10 11.5C10 11.7761 9.77614 12 9.5 12H6.5C6.22386 12 6 11.7761 6 11.5ZM6.5 9C6.22386 9 6 9.22386 6 9.5C6 9.77614 6.22386 10 6.5 10H9.5C9.77614 10 10 9.77614 10 9.5C10 9.22386 9.77614 9 9.5 9H6.5ZM4.5 9C4.22386 9 4 9.22386 4 9.5C4 9.77614 4.22386 10 4.5 10C4.77614 10 5 9.77614 5 9.5C5 9.22386 4.77614 9 4.5 9ZM4 11.5C4 11.2239 4.22386 11 4.5 11C4.77614 11 5 11.2239 5 11.5C5 11.7761 4.77614 12 4.5 12C4.22386 12 4 11.7761 4 11.5ZM4.5 13C4.22386 13 4 13.2239 4 13.5C4 13.7761 4.22386 14 4.5 14C4.77614 14 5 13.7761 5 13.5C5 13.2239 4.77614 13 4.5 13Z" fill="white"/>
<path d="M4.5 6C3.67157 6 3 6.67157 3 7.5H5C5 7.77614 4.77614 8 4.5 8V6ZM6 7.5C6 6.67157 5.32843 6 4.5 6V8C4.22386 8 4 7.77614 4 7.5H6ZM4.5 9C5.32843 9 6 8.32843 6 7.5H4C4 7.22386 4.22386 7 4.5 7V9ZM3 7.5C3 8.32843 3.67157 9 4.5 9V7C4.77614 7 5 7.22386 5 7.5H3ZM6.5 6C5.67157 6 5 6.67157 5 7.5H7C7 7.77614 6.77614 8 6.5 8V6ZM9.5 6H6.5V8H9.5V6ZM11 7.5C11 6.67157 10.3284 6 9.5 6V8C9.22386 8 9 7.77614 9 7.5H11ZM9.5 9C10.3284 9 11 8.32843 11 7.5H9C9 7.22386 9.22386 7 9.5 7V9ZM6.5 9H9.5V7H6.5V9ZM5 7.5C5 8.32843 5.67157 9 6.5 9V7C6.77614 7 7 7.22386 7 7.5H5ZM12 7.5C12 7.77614 11.7761 8 11.5 8V6C10.6716 6 10 6.67157 10 7.5H12ZM11.5 7C11.7761 7 12 7.22386 12 7.5H10C10 8.32843 10.6716 9 11.5 9V7ZM13.5 7H11.5V9H13.5V7ZM13 7.5C13 7.22386 13.2239 7 13.5 7V9C14.3284 9 15 8.32843 15 7.5H13ZM13.5 8C13.2239 8 13 7.77614 13 7.5H15C15 6.67157 14.3284 6 13.5 6V8ZM11.5 8H13.5V6H11.5V8ZM12 9.5C12 9.77614 11.7761 10 11.5 10V8C10.6716 8 10 8.67157 10 9.5H12ZM11.5 9C11.7761 9 12 9.22386 12 9.5H10C10 10.3284 10.6716 11 11.5 11V9ZM13.5 9H11.5V11H13.5V9ZM13 9.5C13 9.22386 13.2239 9 13.5 9V11C14.3284 11 15 10.3284 15 9.5H13ZM13.5 10C13.2239 10 13 9.77614 13 9.5H15C15 8.67157 14.3284 8 13.5 8V10ZM11.5 10H13.5V8H11.5V10ZM11.5 10C10.6716 10 10 10.6716 10 11.5H12C12 11.7761 11.7761 12 11.5 12V10ZM13.5 10H11.5V12H13.5V10ZM15 11.5C15 10.6716 14.3284 10 13.5 10V12C13.2239 12 13 11.7761 13 11.5H15ZM13.5 13C14.3284 13 15 12.3284 15 11.5H13C13 11.2239 13.2239 11 13.5 11V13ZM11.5 13H13.5V11H11.5V13ZM10 11.5C10 12.3284 10.6716 13 11.5 13V11C11.7761 11 12 11.2239 12 11.5H10ZM12 13.5C12 13.7761 11.7761 14 11.5 14V12C10.6716 12 10 12.6716 10 13.5H12ZM11.5 13C11.7761 13 12 13.2239 12 13.5H10C10 14.3284 10.6716 15 11.5 15V13ZM13.5 13H11.5V15H13.5V13ZM13 13.5C13 13.2239 13.2239 13 13.5 13V15C14.3284 15 15 14.3284 15 13.5H13ZM13.5 14C13.2239 14 13 13.7761 13 13.5H15C15 12.6716 14.3284 12 13.5 12V14ZM11.5 14H13.5V12H11.5V14ZM7 13.5C7 13.7761 6.77614 14 6.5 14V12C5.67157 12 5 12.6716 5 13.5H7ZM6.5 13C6.77614 13 7 13.2239 7 13.5H5C5 14.3284 5.67157 15 6.5 15V13ZM9.5 13H6.5V15H9.5V13ZM9 13.5C9 13.2239 9.22386 13 9.5 13V15C10.3284 15 11 14.3284 11 13.5H9ZM9.5 14C9.22386 14 9 13.7761 9 13.5H11C11 12.6716 10.3284 12 9.5 12V14ZM6.5 14H9.5V12H6.5V14ZM6.5 10C5.67157 10 5 10.6716 5 11.5H7C7 11.7761 6.77614 12 6.5 12V10ZM9.5 10H6.5V12H9.5V10ZM11 11.5C11 10.6716 10.3284 10 9.5 10V12C9.22386 12 9 11.7761 9 11.5H11ZM9.5 13C10.3284 13 11 12.3284 11 11.5H9C9 11.2239 9.22386 11 9.5 11V13ZM6.5 13H9.5V11H6.5V13ZM5 11.5C5 12.3284 5.67157 13 6.5 13V11C6.77614 11 7 11.2239 7 11.5H5ZM7 9.5C7 9.77614 6.77614 10 6.5 10V8C5.67157 8 5 8.67157 5 9.5H7ZM6.5 9C6.77614 9 7 9.22386 7 9.5H5C5 10.3284 5.67157 11 6.5 11V9ZM9.5 9H6.5V11H9.5V9ZM9 9.5C9 9.22386 9.22386 9 9.5 9V11C10.3284 11 11 10.3284 11 9.5H9ZM9.5 10C9.22386 10 9 9.77614 9 9.5H11C11 8.67157 10.3284 8 9.5 8V10ZM6.5 10H9.5V8H6.5V10ZM5 9.5C5 9.77614 4.77614 10 4.5 10V8C3.67157 8 3 8.67157 3 9.5H5ZM4.5 9C4.77614 9 5 9.22386 5 9.5H3C3 10.3284 3.67157 11 4.5 11V9ZM4 9.5C4 9.22386 4.22386 9 4.5 9V11C5.32843 11 6 10.3284 6 9.5H4ZM4.5 10C4.22386 10 4 9.77614 4 9.5H6C6 8.67157 5.32843 8 4.5 8V10ZM4.5 10C3.67157 10 3 10.6716 3 11.5H5C5 11.7761 4.77614 12 4.5 12V10ZM6 11.5C6 10.6716 5.32843 10 4.5 10V12C4.22386 12 4 11.7761 4 11.5H6ZM4.5 13C5.32843 13 6 12.3284 6 11.5H4C4 11.2239 4.22386 11 4.5 11V13ZM3 11.5C3 12.3284 3.67157 13 4.5 13V11C4.77614 11 5 11.2239 5 11.5H3ZM5 13.5C5 13.7761 4.77614 14 4.5 14V12C3.67157 12 3 12.6716 3 13.5H5ZM4.5 13C4.77614 13 5 13.2239 5 13.5H3C3 14.3284 3.67157 15 4.5 15V13ZM4 13.5C4 13.2239 4.22386 13 4.5 13V15C5.32843 15 6 14.3284 6 13.5H4ZM4.5 14C4.22386 14 4 13.7761 4 13.5H6C6 12.6716 5.32843 12 4.5 12V14Z" fill="url(#paint1_linear_99_13562)" mask="url(#path-2-outside-1_99_13562)"/>
<rect x="3.5" y="3.5" width="11" height="2" rx="1" fill="url(#paint2_linear_99_13562)" stroke="white"/>
<rect x="3.5" y="3.5" width="11" height="11" stroke="url(#paint3_linear_99_13562)" stroke-opacity="0.66" style="mix-blend-mode:screen"/>
<mask id="path-6-inside-2_99_13562" fill="white">
<path fill-rule="evenodd" clip-rule="evenodd" d="M8 2V8C8 9.10457 6.20914 10 4 10C1.79086 10 0 9.10457 0 8V2C0 0.895431 1.79086 0 4 0C6.20914 0 8 0.895431 8 2Z"/>
</mask>
<path fill-rule="evenodd" clip-rule="evenodd" d="M8 2V8C8 9.10457 6.20914 10 4 10C1.79086 10 0 9.10457 0 8V2C0 0.895431 1.79086 0 4 0C6.20914 0 8 0.895431 8 2Z" fill="url(#paint4_linear_99_13562)"/>
<path d="M7 2V8H9V2H7ZM4 11C5.22615 11 6.38566 10.7536 7.27564 10.3086C8.1058 9.89356 9 9.13511 9 8H7C7 8.00106 6.99993 8.00261 6.99936 8.00544C6.99876 8.00839 6.99723 8.01457 6.99324 8.0243C6.98516 8.04405 6.96583 8.08106 6.92219 8.13265C6.83098 8.24047 6.6598 8.38049 6.38121 8.51979C5.82347 8.79866 4.98299 9 4 9V11ZM-1 8C-1 9.13511 -0.105803 9.89356 0.724359 10.3086C1.61434 10.7536 2.77385 11 4 11V9C3.01701 9 2.17653 8.79866 1.61879 8.51979C1.3402 8.38049 1.16902 8.24047 1.07781 8.13265C1.03417 8.08106 1.01484 8.04405 1.00676 8.0243C1.00277 8.01457 1.00124 8.00839 1.00064 8.00544C1.00007 8.00261 1 8.00106 1 8H-1ZM1 8V2H-1V8H1ZM4 -1C2.77385 -1 1.61434 -0.753629 0.724359 -0.308641C-0.105803 0.10644 -1 0.864887 -1 2H1C1 1.99894 1.00007 1.99739 1.00064 1.99456C1.00124 1.99161 1.00277 1.98543 1.00676 1.9757C1.01484 1.95595 1.03417 1.91894 1.07781 1.86735C1.16902 1.75953 1.3402 1.61951 1.61879 1.48021C2.17653 1.20134 3.01701 1 4 1V-1ZM9 2C9 0.864887 8.1058 0.10644 7.27564 -0.308641C6.38566 -0.753629 5.22615 -1 4 -1V1C4.98299 1 5.82347 1.20134 6.38121 1.48021C6.6598 1.61951 6.83098 1.75953 6.92219 1.86735C6.96583 1.91894 6.98516 1.95595 6.99324 1.9757C6.99723 1.98543 6.99876 1.99161 6.99936 1.99456C6.99993 1.99739 7 1.99894 7 2H9Z" fill="url(#paint5_linear_99_13562)" fill-opacity="0.5" mask="url(#path-6-inside-2_99_13562)"/>
<g filter="url(#filter0_d_99_13562)">
<ellipse cx="4" cy="2" rx="3" ry="1" fill="white"/>
</g>
<mask id="path-9-inside-3_99_13562" fill="white">
<path fill-rule="evenodd" clip-rule="evenodd" d="M7 2V8C7 8.55228 5.65685 9 4 9C2.34315 9 1 8.55228 1 8V2C1 1.44772 2.34315 1 4 1C5.65685 1 7 1.44772 7 2Z"/>
</mask>
<path d="M6 2V8H8V2H6ZM4 10C4.906 10 5.76773 9.87906 6.43755 9.65579C6.76723 9.5459 7.10616 9.393 7.38322 9.17466C7.649 8.9652 8 8.5758 8 8H6C6 7.70034 6.18311 7.57402 6.14527 7.60383C6.11871 7.62477 6.0183 7.68735 5.80509 7.75842C5.38912 7.89708 4.75086 8 4 8V10ZM0 8C0 8.5758 0.351 8.9652 0.616781 9.17466C0.893836 9.393 1.23277 9.5459 1.56245 9.65579C2.23227 9.87906 3.094 10 4 10V8C3.24914 8 2.61088 7.89708 2.19491 7.75842C1.9817 7.68735 1.88129 7.62477 1.85473 7.60383C1.81689 7.57402 2 7.70034 2 8H0ZM2 8V2H0V8H2ZM4 0C3.094 0 2.23227 0.120938 1.56245 0.34421C1.23277 0.454104 0.893836 0.606999 0.616781 0.825343C0.351 1.0348 0 1.4242 0 2H2C2 2.29966 1.81689 2.42598 1.85473 2.39617C1.88129 2.37523 1.9817 2.31265 2.19491 2.24158C2.61088 2.10292 3.24914 2 4 2V0ZM8 2C8 1.4242 7.649 1.0348 7.38322 0.825343C7.10616 0.606999 6.76723 0.454104 6.43755 0.34421C5.76773 0.120938 4.906 0 4 0V2C4.75086 2 5.38912 2.10292 5.80509 2.24158C6.0183 2.31265 6.11871 2.37523 6.14527 2.39617C6.18311 2.42598 6 2.29966 6 2H8Z" fill="url(#paint6_linear_99_13562)" mask="url(#path-9-inside-3_99_13562)"/>
</g>
<defs>
<filter id="filter0_d_99_13562" x="1" y="1" width="6" height="3" filterUnits="userSpaceOnUse" color-interpolation-filters="sRGB">
<feFlood flood-opacity="0" result="BackgroundImageFix"/>
<feColorMatrix in="SourceAlpha" type="matrix" values="0 0 0 0 0 0 0 0 0 0 0 0 0 0 0 0 0 0 127 0" result="hardAlpha"/>
<feOffset dy="1"/>
<feComposite in2="hardAlpha" operator="out"/>
<feColorMatrix type="matrix" values="0 0 0 0 0 0 0 0 0 0 0 0 0 0 0 0 0 0 0.1 0"/>
<feBlend mode="normal" in2="BackgroundImageFix" result="effect1_dropShadow_99_13562"/>
<feBlend mode="normal" in="SourceGraphic" in2="effect1_dropShadow_99_13562" result="shape"/>
</filter>
<linearGradient id="paint0_linear_99_13562" x1="3" y1="3" x2="15" y2="15" gradientUnits="userSpaceOnUse">
<stop stop-color="#9FC0ED"/>
<stop offset="1" stop-color="#5284C3"/>
</linearGradient>
<linearGradient id="paint1_linear_99_13562" x1="9.5" y1="7" x2="9.5" y2="14" gradientUnits="userSpaceOnUse">
<stop stop-color="#A6C3E9"/>
<stop offset="1" stop-color="#BFD3EB"/>
</linearGradient>
<linearGradient id="paint2_linear_99_13562" x1="4" y1="4.5" x2="14" y2="4.5" gradientUnits="userSpaceOnUse">
<stop stop-color="#A5D59C"/>
<stop offset="1" stop-color="#7CBE76"/>
</linearGradient>
<linearGradient id="paint3_linear_99_13562" x1="3.5" y1="3" x2="15" y2="15" gradientUnits="userSpaceOnUse">
<stop stop-color="#F4F7FB"/>
<stop offset="1" stop-color="#D8E2F0"/>
</linearGradient>
<linearGradient id="paint4_linear_99_13562" x1="9.16995e-08" y1="4.61538" x2="8" y2="4.61538" gradientUnits="userSpaceOnUse">
<stop stop-color="#EEEEEE"/>
<stop offset="1" stop-color="#C2C2C2"/>
</linearGradient>
<linearGradient id="paint5_linear_99_13562" x1="8" y1="10.7143" x2="0.432439" y2="-0.297192" gradientUnits="userSpaceOnUse">
<stop offset="0.0914634" stop-color="#727272"/>
<stop offset="0.917175" stop-color="#B8B8B8"/>
</linearGradient>
<linearGradient id="paint6_linear_99_13562" x1="7" y1="9" x2="0.807922" y2="1.15154" gradientUnits="userSpaceOnUse">
<stop stop-color="#E7E7E7"/>
<stop offset="0.883197" stop-color="white"/>
</linearGradient>
<clipPath id="clip0_99_13562">
<rect width="16" height="16" fill="white"/>
</clipPath>
</defs>
</svg>
