<svg width="16" height="16" viewBox="0 0 16 16" fill="none" xmlns="http://www.w3.org/2000/svg">
<g clip-path="url(#clip0_99_13565)">
<mask id="path-1-inside-1_99_13565" fill="white">
<path fill-rule="evenodd" clip-rule="evenodd" d="M14 4V12C14 13.6569 11.3137 15 8 15C4.68629 15 2 13.6569 2 12V4C2 2.34315 4.68629 1 8 1C11.3137 1 14 2.34315 14 4Z"/>
</mask>
<path fill-rule="evenodd" clip-rule="evenodd" d="M14 4V12C14 13.6569 11.3137 15 8 15C4.68629 15 2 13.6569 2 12V4C2 2.34315 4.68629 1 8 1C11.3137 1 14 2.34315 14 4Z" fill="url(#paint0_linear_99_13565)"/>
<path d="M13 4V12H15V4H13ZM8 16C9.77844 16 11.4379 15.6417 12.6899 15.0157C13.8819 14.4197 15 13.4113 15 12H13C13 12.2456 12.7749 12.7372 11.7954 13.2269C10.8758 13.6867 9.53527 14 8 14V16ZM1 12C1 13.4113 2.11805 14.4197 3.31015 15.0157C4.56205 15.6417 6.22156 16 8 16V14C6.46473 14 5.12424 13.6867 4.20457 13.2269C3.22509 12.7372 3 12.2456 3 12H1ZM3 12V4H1V12H3ZM8 0C6.22156 0 4.56205 0.3583 3.31015 0.984252C2.11805 1.5803 1 2.58874 1 4H3C3 3.7544 3.22509 3.26285 4.20457 2.77311C5.12424 2.31327 6.46473 2 8 2V0ZM15 4C15 2.58874 13.8819 1.5803 12.6899 0.984252C11.4379 0.3583 9.77844 0 8 0V2C9.53527 2 10.8758 2.31327 11.7954 2.77311C12.7749 3.26285 13 3.7544 13 4H15Z" fill="url(#paint1_linear_99_13565)" fill-opacity="0.5" mask="url(#path-1-inside-1_99_13565)"/>
<g filter="url(#filter0_d_99_13565)">
<ellipse cx="8" cy="4" rx="5" ry="2" fill="white"/>
</g>
<mask id="path-4-inside-2_99_13565" fill="white">
<path fill-rule="evenodd" clip-rule="evenodd" d="M13 4V12C13 13.1046 10.7614 14 8 14C5.23858 14 3 13.1046 3 12V4C3 2.89543 5.23858 2 8 2C10.7614 2 13 2.89543 13 4Z"/>
</mask>
<path d="M12 4V12H14V4H12ZM8 15C9.47536 15 10.8571 14.7626 11.9069 14.3427C12.4291 14.1338 12.9187 13.8601 13.2942 13.505C13.6718 13.148 14 12.6397 14 12H12C12 11.9126 12.0484 11.9305 11.92 12.0519C11.7894 12.1754 11.5468 12.3327 11.1641 12.4857C10.4043 12.7897 9.28606 13 8 13V15ZM2 12C2 12.6397 2.32823 13.148 2.70582 13.505C3.08129 13.8601 3.57094 14.1338 4.09308 14.3427C5.1429 14.7626 6.52464 15 8 15V13C6.71394 13 5.59568 12.7897 4.83586 12.4857C4.45317 12.3327 4.21059 12.1754 4.08003 12.0519C3.95159 11.9305 4 11.9126 4 12H2ZM4 12V4H2V12H4ZM8 1C6.52464 1 5.1429 1.23738 4.09308 1.65731C3.57094 1.86616 3.08129 2.13987 2.70582 2.49495C2.32823 2.85204 2 3.36029 2 4H4C4 4.08742 3.95159 4.06954 4.08003 3.94807C4.21059 3.8246 4.45317 3.66734 4.83586 3.51426C5.59568 3.21033 6.71394 3 8 3V1ZM14 4C14 3.36029 13.6718 2.85204 13.2942 2.49495C12.9187 2.13987 12.4291 1.86616 11.9069 1.65731C10.8571 1.23738 9.47536 1 8 1V3C9.28606 3 10.4043 3.21033 11.1641 3.51426C11.5468 3.66734 11.7894 3.8246 11.92 3.94807C12.0484 4.06954 12 4.08742 12 4H14Z" fill="url(#paint2_linear_99_13565)" mask="url(#path-4-inside-2_99_13565)"/>
<mask id="path-6-inside-3_99_13565" fill="white">
<path fill-rule="evenodd" clip-rule="evenodd" d="M6.5 16C8.433 16 10 14.433 10 12.5C10 10.567 8.433 9 6.5 9C4.567 9 3 10.567 3 12.5C3 14.433 4.567 16 6.5 16ZM6.5 13C6.77614 13 7 12.7761 7 12.5C7 12.2239 6.77614 12 6.5 12C6.22386 12 6 12.2239 6 12.5C6 12.7761 6.22386 13 6.5 13Z"/>
</mask>
<path fill-rule="evenodd" clip-rule="evenodd" d="M6.5 16C8.433 16 10 14.433 10 12.5C10 10.567 8.433 9 6.5 9C4.567 9 3 10.567 3 12.5C3 14.433 4.567 16 6.5 16ZM6.5 13C6.77614 13 7 12.7761 7 12.5C7 12.2239 6.77614 12 6.5 12C6.22386 12 6 12.2239 6 12.5C6 12.7761 6.22386 13 6.5 13Z" fill="url(#paint3_linear_99_13565)"/>
<path d="M9 12.5C9 13.8807 7.88071 15 6.5 15V17C8.98528 17 11 14.9853 11 12.5H9ZM6.5 10C7.88071 10 9 11.1193 9 12.5H11C11 10.0147 8.98528 8 6.5 8V10ZM4 12.5C4 11.1193 5.11929 10 6.5 10V8C4.01472 8 2 10.0147 2 12.5H4ZM6.5 15C5.11929 15 4 13.8807 4 12.5H2C2 14.9853 4.01472 17 6.5 17V15ZM6 12.5C6 12.2239 6.22386 12 6.5 12V14C7.32843 14 8 13.3284 8 12.5H6ZM6.5 13C6.22386 13 6 12.7761 6 12.5H8C8 11.6716 7.32843 11 6.5 11V13ZM7 12.5C7 12.7761 6.77614 13 6.5 13V11C5.67157 11 5 11.6716 5 12.5H7ZM6.5 12C6.77614 12 7 12.2239 7 12.5H5C5 13.3284 5.67157 14 6.5 14V12Z" fill="url(#paint4_linear_99_13565)" mask="url(#path-6-inside-3_99_13565)"/>
<mask id="path-8-inside-4_99_13565" fill="white">
<path fill-rule="evenodd" clip-rule="evenodd" d="M12.5 16C14.433 16 16 14.433 16 12.5C16 10.567 14.433 9 12.5 9C10.567 9 9 10.567 9 12.5C9 14.433 10.567 16 12.5 16ZM12.5 13C12.7761 13 13 12.7761 13 12.5C13 12.2239 12.7761 12 12.5 12C12.2239 12 12 12.2239 12 12.5C12 12.7761 12.2239 13 12.5 13Z"/>
</mask>
<path fill-rule="evenodd" clip-rule="evenodd" d="M12.5 16C14.433 16 16 14.433 16 12.5C16 10.567 14.433 9 12.5 9C10.567 9 9 10.567 9 12.5C9 14.433 10.567 16 12.5 16ZM12.5 13C12.7761 13 13 12.7761 13 12.5C13 12.2239 12.7761 12 12.5 12C12.2239 12 12 12.2239 12 12.5C12 12.7761 12.2239 13 12.5 13Z" fill="url(#paint5_linear_99_13565)"/>
<path d="M15 12.5C15 13.8807 13.8807 15 12.5 15V17C14.9853 17 17 14.9853 17 12.5H15ZM12.5 10C13.8807 10 15 11.1193 15 12.5H17C17 10.0147 14.9853 8 12.5 8V10ZM10 12.5C10 11.1193 11.1193 10 12.5 10V8C10.0147 8 8 10.0147 8 12.5H10ZM12.5 15C11.1193 15 10 13.8807 10 12.5H8C8 14.9853 10.0147 17 12.5 17V15ZM12 12.5C12 12.2239 12.2239 12 12.5 12V14C13.3284 14 14 13.3284 14 12.5H12ZM12.5 13C12.2239 13 12 12.7761 12 12.5H14C14 11.6716 13.3284 11 12.5 11V13ZM13 12.5C13 12.7761 12.7761 13 12.5 13V11C11.6716 11 11 11.6716 11 12.5H13ZM12.5 12C12.7761 12 13 12.2239 13 12.5H11C11 13.3284 11.6716 14 12.5 14V12Z" fill="url(#paint6_linear_99_13565)" mask="url(#path-8-inside-4_99_13565)"/>
<rect x="6.5" y="11.5" width="6" height="2" fill="url(#paint7_linear_99_13565)"/>
<rect x="6.5" y="11.5" width="6" height="2" stroke="url(#paint8_linear_99_13565)" stroke-linejoin="round"/>
<rect x="6.5" y="11.5" width="6" height="2" stroke="url(#paint9_linear_99_13565)" stroke-linejoin="round"/>
</g>
<defs>
<filter id="filter0_d_99_13565" x="3" y="2" width="10" height="5" filterUnits="userSpaceOnUse" color-interpolation-filters="sRGB">
<feFlood flood-opacity="0" result="BackgroundImageFix"/>
<feColorMatrix in="SourceAlpha" type="matrix" values="0 0 0 0 0 0 0 0 0 0 0 0 0 0 0 0 0 0 127 0" result="hardAlpha"/>
<feOffset dy="1"/>
<feComposite in2="hardAlpha" operator="out"/>
<feColorMatrix type="matrix" values="0 0 0 0 0 0 0 0 0 0 0 0 0 0 0 0 0 0 0.1 0"/>
<feBlend mode="normal" in2="BackgroundImageFix" result="effect1_dropShadow_99_13565"/>
<feBlend mode="normal" in="SourceGraphic" in2="effect1_dropShadow_99_13565" result="shape"/>
</filter>
<linearGradient id="paint0_linear_99_13565" x1="2" y1="7.46154" x2="14" y2="7.46154" gradientUnits="userSpaceOnUse">
<stop stop-color="#EEEEEE"/>
<stop offset="1" stop-color="#C2C2C2"/>
</linearGradient>
<linearGradient id="paint1_linear_99_13565" x1="14" y1="16" x2="3.68524" y2="-0.08096" gradientUnits="userSpaceOnUse">
<stop offset="0.0914634" stop-color="#727272"/>
<stop offset="0.917175" stop-color="#B8B8B8"/>
</linearGradient>
<linearGradient id="paint2_linear_99_13565" x1="13" y1="14" x2="3.98345" y2="1.30169" gradientUnits="userSpaceOnUse">
<stop stop-color="#E7E7E7"/>
<stop offset="0.883197" stop-color="white"/>
</linearGradient>
<linearGradient id="paint3_linear_99_13565" x1="5" y1="11" x2="8.5" y2="14.5" gradientUnits="userSpaceOnUse">
<stop stop-color="#D9D9D9"/>
<stop offset="1" stop-color="#737373"/>
</linearGradient>
<linearGradient id="paint4_linear_99_13565" x1="10" y1="16" x2="3" y2="9" gradientUnits="userSpaceOnUse">
<stop stop-color="#404040"/>
<stop offset="1" stop-color="#8D8D8D"/>
</linearGradient>
<linearGradient id="paint5_linear_99_13565" x1="11" y1="11" x2="14" y2="14" gradientUnits="userSpaceOnUse">
<stop stop-color="#D9D9D9"/>
<stop offset="1" stop-color="#737373"/>
</linearGradient>
<linearGradient id="paint6_linear_99_13565" x1="16" y1="16" x2="9" y2="9" gradientUnits="userSpaceOnUse">
<stop stop-color="#404040"/>
<stop offset="1" stop-color="#8D8D8D"/>
</linearGradient>
<linearGradient id="paint7_linear_99_13565" x1="7.71429" y1="12.1429" x2="7.98901" y2="13.5165" gradientUnits="userSpaceOnUse">
<stop stop-color="#D9D9D9"/>
<stop offset="1" stop-color="#737373"/>
</linearGradient>
<linearGradient id="paint8_linear_99_13565" x1="9.5" y1="14" x2="9.5" y2="11" gradientUnits="userSpaceOnUse">
<stop offset="0.33" stop-color="#515151"/>
<stop offset="0.66" stop-color="#8D8D8D"/>
</linearGradient>
<linearGradient id="paint9_linear_99_13565" x1="7" y1="12.5" x2="12" y2="12.5" gradientUnits="userSpaceOnUse">
<stop stop-color="#484848"/>
<stop offset="0.515" stop-color="#484848" stop-opacity="0"/>
<stop offset="1" stop-color="#484848"/>
</linearGradient>
<clipPath id="clip0_99_13565">
<rect width="16" height="16" fill="white"/>
</clipPath>
</defs>
</svg>
