<svg width="16" height="16" viewBox="0 0 16 16" fill="none" xmlns="http://www.w3.org/2000/svg">
<g clip-path="url(#clip0_99_13563)">
<mask id="path-1-inside-1_99_13563" fill="white">
<path fill-rule="evenodd" clip-rule="evenodd" d="M12 3V11C12 12.6569 9.31371 14 6 14C2.68629 14 0 12.6569 0 11V3C0 1.34315 2.68629 0 6 0C9.31371 0 12 1.34315 12 3Z"/>
</mask>
<path fill-rule="evenodd" clip-rule="evenodd" d="M12 3V11C12 12.6569 9.31371 14 6 14C2.68629 14 0 12.6569 0 11V3C0 1.34315 2.68629 0 6 0C9.31371 0 12 1.34315 12 3Z" fill="url(#paint0_linear_99_13563)"/>
<path d="M11 3V11H13V3H11ZM6 15C7.77844 15 9.43795 14.6417 10.6899 14.0157C11.8819 13.4197 13 12.4113 13 11H11C11 11.2456 10.7749 11.7372 9.79543 12.2269C8.87576 12.6867 7.53527 13 6 13V15ZM-1 11C-1 12.4113 0.118055 13.4197 1.31015 14.0157C2.56205 14.6417 4.22156 15 6 15V13C4.46473 13 3.12424 12.6867 2.20457 12.2269C1.22509 11.7372 1 11.2456 1 11H-1ZM1 11V3H-1V11H1ZM6 -1C4.22156 -1 2.56205 -0.6417 1.31015 -0.0157475C0.118055 0.580298 -1 1.58874 -1 3H1C1 2.7544 1.22509 2.26285 2.20457 1.77311C3.12424 1.31327 4.46473 1 6 1V-1ZM13 3C13 1.58874 11.8819 0.580298 10.6899 -0.0157475C9.43795 -0.6417 7.77844 -1 6 -1V1C7.53527 1 8.87576 1.31327 9.79543 1.77311C10.7749 2.26285 11 2.7544 11 3H13Z" fill="url(#paint1_linear_99_13563)" fill-opacity="0.5" mask="url(#path-1-inside-1_99_13563)"/>
<g filter="url(#filter0_d_99_13563)">
<ellipse cx="6" cy="3" rx="5" ry="2" fill="white"/>
</g>
<mask id="path-4-inside-2_99_13563" fill="white">
<path fill-rule="evenodd" clip-rule="evenodd" d="M11 3V11C11 12.1046 8.76142 13 6 13C3.23858 13 1 12.1046 1 11V3C1 1.89543 3.23858 1 6 1C8.76142 1 11 1.89543 11 3Z"/>
</mask>
<path d="M10 3V11H12V3H10ZM6 14C7.47536 14 8.8571 13.7626 9.90692 13.3427C10.4291 13.1338 10.9187 12.8601 11.2942 12.505C11.6718 12.148 12 11.6397 12 11H10C10 10.9126 10.0484 10.9305 9.91997 11.0519C9.78941 11.1754 9.54683 11.3327 9.16414 11.4857C8.40432 11.7897 7.28606 12 6 12V14ZM0 11C0 11.6397 0.328233 12.148 0.705817 12.505C1.08129 12.8601 1.57094 13.1338 2.09308 13.3427C3.1429 13.7626 4.52464 14 6 14V12C4.71394 12 3.59568 11.7897 2.83586 11.4857C2.45317 11.3327 2.21059 11.1754 2.08003 11.0519C1.95159 10.9305 2 10.9126 2 11H0ZM2 11V3H0V11H2ZM6 0C4.52464 0 3.1429 0.237381 2.09308 0.65731C1.57094 0.866164 1.08129 1.13987 0.705817 1.49495C0.328233 1.85204 0 2.36029 0 3H2C2 3.08742 1.95159 3.06954 2.08003 2.94807C2.21059 2.8246 2.45317 2.66734 2.83586 2.51426C3.59568 2.21033 4.71394 2 6 2V0ZM12 3C12 2.36029 11.6718 1.85204 11.2942 1.49495C10.9187 1.13987 10.4291 0.866164 9.90692 0.65731C8.8571 0.237381 7.47536 0 6 0V2C7.28606 2 8.40432 2.21033 9.16414 2.51426C9.54683 2.66734 9.78941 2.8246 9.91997 2.94807C10.0484 3.06954 10 3.08742 10 3H12Z" fill="url(#paint2_linear_99_13563)" mask="url(#path-4-inside-2_99_13563)"/>
<path d="M6.5 7C6.5 6.72386 6.72386 6.5 7 6.5H13C14.3807 6.5 15.5 7.61929 15.5 9V15C15.5 15.2761 15.2761 15.5 15 15.5H7C6.72386 15.5 6.5 15.2761 6.5 15V7Z" fill="url(#paint3_linear_99_13563)" stroke="url(#paint4_linear_99_13563)"/>
<path d="M7.5 7.5H13C13.8284 7.5 14.5 8.17157 14.5 9V14.5H7.5V7.5Z" stroke="white" stroke-opacity="0.33" style="mix-blend-mode:lighten"/>
<rect x="8" y="12" width="6" height="3" fill="white"/>
<path fill-rule="evenodd" clip-rule="evenodd" d="M9 7H8V8C8 8.55228 8.44772 9 9 9H11C11.5523 9 12 8.55228 12 8V7H10V8H9V7Z" fill="url(#paint5_linear_99_13563)"/>
<path fill-rule="evenodd" clip-rule="evenodd" d="M9 7H8V8C8 8.55228 8.44772 9 9 9H11C11.5523 9 12 8.55228 12 8V7H10V8H9V7Z" fill="white"/>
<rect x="9" y="13" width="4" height="1" rx="0.5" fill="url(#paint6_linear_99_13563)"/>
</g>
<defs>
<filter id="filter0_d_99_13563" x="1" y="1" width="10" height="5" filterUnits="userSpaceOnUse" color-interpolation-filters="sRGB">
<feFlood flood-opacity="0" result="BackgroundImageFix"/>
<feColorMatrix in="SourceAlpha" type="matrix" values="0 0 0 0 0 0 0 0 0 0 0 0 0 0 0 0 0 0 127 0" result="hardAlpha"/>
<feOffset dy="1"/>
<feComposite in2="hardAlpha" operator="out"/>
<feColorMatrix type="matrix" values="0 0 0 0 0 0 0 0 0 0 0 0 0 0 0 0 0 0 0.1 0"/>
<feBlend mode="normal" in2="BackgroundImageFix" result="effect1_dropShadow_99_13563"/>
<feBlend mode="normal" in="SourceGraphic" in2="effect1_dropShadow_99_13563" result="shape"/>
</filter>
<linearGradient id="paint0_linear_99_13563" x1="1.37549e-07" y1="6.46154" x2="12" y2="6.46154" gradientUnits="userSpaceOnUse">
<stop stop-color="#EEEEEE"/>
<stop offset="1" stop-color="#C2C2C2"/>
</linearGradient>
<linearGradient id="paint1_linear_99_13563" x1="12" y1="15" x2="1.68524" y2="-1.08096" gradientUnits="userSpaceOnUse">
<stop offset="0.0914634" stop-color="#727272"/>
<stop offset="0.917175" stop-color="#B8B8B8"/>
</linearGradient>
<linearGradient id="paint2_linear_99_13563" x1="11" y1="13" x2="1.98345" y2="0.301692" gradientUnits="userSpaceOnUse">
<stop stop-color="#E7E7E7"/>
<stop offset="0.883197" stop-color="white"/>
</linearGradient>
<linearGradient id="paint3_linear_99_13563" x1="6" y1="6" x2="16" y2="16" gradientUnits="userSpaceOnUse">
<stop stop-color="#9EC0EF"/>
<stop offset="1" stop-color="#85A2DD"/>
</linearGradient>
<linearGradient id="paint4_linear_99_13563" x1="16" y1="16" x2="6" y2="6" gradientUnits="userSpaceOnUse">
<stop stop-color="#2E5FA6"/>
<stop offset="1" stop-color="#5B86C7"/>
</linearGradient>
<linearGradient id="paint5_linear_99_13563" x1="8" y1="7" x2="12" y2="9" gradientUnits="userSpaceOnUse">
<stop stop-color="#B8B8B8"/>
<stop offset="1" stop-color="#E3E3E3"/>
</linearGradient>
<linearGradient id="paint6_linear_99_13563" x1="9" y1="13.5" x2="13" y2="13.5" gradientUnits="userSpaceOnUse">
<stop stop-color="#94D32D"/>
<stop offset="1" stop-color="#84BF54"/>
</linearGradient>
<clipPath id="clip0_99_13563">
<rect width="16" height="16" fill="white"/>
</clipPath>
</defs>
</svg>
