<svg width="16" height="16" viewBox="0 0 16 16" fill="none" xmlns="http://www.w3.org/2000/svg">
<g clip-path="url(#clip0_445_7134)">
<rect x="1.5" y="1.5" width="13" height="14" stroke="#919191" stroke-linejoin="round"/>
<rect x="1.5" y="1.5" width="13" height="13" fill="url(#paint0_linear_445_7134)" stroke="#C9C9C9" stroke-linejoin="round"/>
<mask id="path-3-outside-1_445_7134" maskUnits="userSpaceOnUse" x="1" y="1" width="14" height="5" fill="black">
<rect fill="white" x="1" y="1" width="14" height="5"/>
<path d="M2 2H14V6H2V2Z"/>
</mask>
<path d="M2 2H14V6H2V2Z" fill="#ED0202"/>
<path d="M2 2V1C1.44772 1 1 1.44772 1 2H2ZM14 2H15C15 1.44772 14.5523 1 14 1V2ZM2 3H14V1H2V3ZM13 2V6H15V2H13ZM3 6V2H1V6H3Z" fill="#CD0000" mask="url(#path-3-outside-1_445_7134)"/>
<circle cx="4.5" cy="3.5" r="1" stroke="black" stroke-opacity="0.33"/>
<mask id="path-6-inside-2_445_7134" fill="white">
<path d="M3 1.5C3 0.671573 3.67157 0 4.5 0C5.32843 0 6 0.671573 6 1.5V2.5C6 3.32843 5.32843 4 4.5 4C3.67157 4 3 3.32843 3 2.5V1.5Z"/>
</mask>
<path d="M3 1.5C3 0.671573 3.67157 0 4.5 0C5.32843 0 6 0.671573 6 1.5V2.5C6 3.32843 5.32843 4 4.5 4C3.67157 4 3 3.32843 3 2.5V1.5Z" fill="url(#paint1_linear_445_7134)"/>
<path d="M5 1.5V2.5H7V1.5H5ZM4 2.5V1.5H2V2.5H4ZM4.5 3C4.22386 3 4 2.77614 4 2.5H2C2 3.88071 3.11929 5 4.5 5V3ZM5 2.5C5 2.77614 4.77614 3 4.5 3V5C5.88071 5 7 3.88071 7 2.5H5ZM4.5 1C4.77614 1 5 1.22386 5 1.5H7C7 0.119288 5.88071 -1 4.5 -1V1ZM4.5 -1C3.11929 -1 2 0.119288 2 1.5H4C4 1.22386 4.22386 1 4.5 1V-1Z" fill="black" fill-opacity="0.2" mask="url(#path-6-inside-2_445_7134)"/>
<circle cx="11.5" cy="3.5" r="1" stroke="black" stroke-opacity="0.33"/>
<mask id="path-9-inside-3_445_7134" fill="white">
<path d="M10 1.5C10 0.671573 10.6716 0 11.5 0C12.3284 0 13 0.671573 13 1.5V2.5C13 3.32843 12.3284 4 11.5 4C10.6716 4 10 3.32843 10 2.5V1.5Z"/>
</mask>
<path d="M10 1.5C10 0.671573 10.6716 0 11.5 0C12.3284 0 13 0.671573 13 1.5V2.5C13 3.32843 12.3284 4 11.5 4C10.6716 4 10 3.32843 10 2.5V1.5Z" fill="url(#paint2_linear_445_7134)"/>
<path d="M12 1.5V2.5H14V1.5H12ZM11 2.5V1.5H9V2.5H11ZM11.5 3C11.2239 3 11 2.77614 11 2.5H9C9 3.88071 10.1193 5 11.5 5V3ZM12 2.5C12 2.77614 11.7761 3 11.5 3V5C12.8807 5 14 3.88071 14 2.5H12ZM11.5 1C11.7761 1 12 1.22386 12 1.5H14C14 0.119288 12.8807 -1 11.5 -1V1ZM11.5 -1C10.1193 -1 9 0.119288 9 1.5H11C11 1.22386 11.2239 1 11.5 1V-1Z" fill="black" fill-opacity="0.2" mask="url(#path-9-inside-3_445_7134)"/>
<path d="M7.38 7.275V12H6.351V8.304L5.497 8.913L5.028 8.234L6.435 7.275H7.38ZM11.0426 7.268V7.989L9.55159 12.112L8.59959 11.804L9.97859 8.066H8.33359V7.268H11.0426Z" fill="black" fill-opacity="0.5"/>
<mask id="path-12-inside-4_445_7134" fill="white">
<path fill-rule="evenodd" clip-rule="evenodd" d="M6.5 16C8.433 16 10 14.433 10 12.5C10 10.567 8.433 9 6.5 9C4.567 9 3 10.567 3 12.5C3 14.433 4.567 16 6.5 16ZM6.5 13C6.77614 13 7 12.7761 7 12.5C7 12.2239 6.77614 12 6.5 12C6.22386 12 6 12.2239 6 12.5C6 12.7761 6.22386 13 6.5 13Z"/>
</mask>
<path fill-rule="evenodd" clip-rule="evenodd" d="M6.5 16C8.433 16 10 14.433 10 12.5C10 10.567 8.433 9 6.5 9C4.567 9 3 10.567 3 12.5C3 14.433 4.567 16 6.5 16ZM6.5 13C6.77614 13 7 12.7761 7 12.5C7 12.2239 6.77614 12 6.5 12C6.22386 12 6 12.2239 6 12.5C6 12.7761 6.22386 13 6.5 13Z" fill="url(#paint3_linear_445_7134)"/>
<path d="M9 12.5C9 13.8807 7.88071 15 6.5 15V17C8.98528 17 11 14.9853 11 12.5H9ZM6.5 10C7.88071 10 9 11.1193 9 12.5H11C11 10.0147 8.98528 8 6.5 8V10ZM4 12.5C4 11.1193 5.11929 10 6.5 10V8C4.01472 8 2 10.0147 2 12.5H4ZM6.5 15C5.11929 15 4 13.8807 4 12.5H2C2 14.9853 4.01472 17 6.5 17V15ZM6 12.5C6 12.2239 6.22386 12 6.5 12V14C7.32843 14 8 13.3284 8 12.5H6ZM6.5 13C6.22386 13 6 12.7761 6 12.5H8C8 11.6716 7.32843 11 6.5 11V13ZM7 12.5C7 12.7761 6.77614 13 6.5 13V11C5.67157 11 5 11.6716 5 12.5H7ZM6.5 12C6.77614 12 7 12.2239 7 12.5H5C5 13.3284 5.67157 14 6.5 14V12Z" fill="url(#paint4_linear_445_7134)" mask="url(#path-12-inside-4_445_7134)"/>
<mask id="path-14-inside-5_445_7134" fill="white">
<path fill-rule="evenodd" clip-rule="evenodd" d="M12.5 16C14.433 16 16 14.433 16 12.5C16 10.567 14.433 9 12.5 9C10.567 9 9 10.567 9 12.5C9 14.433 10.567 16 12.5 16ZM12.5 13C12.7761 13 13 12.7761 13 12.5C13 12.2239 12.7761 12 12.5 12C12.2239 12 12 12.2239 12 12.5C12 12.7761 12.2239 13 12.5 13Z"/>
</mask>
<path fill-rule="evenodd" clip-rule="evenodd" d="M12.5 16C14.433 16 16 14.433 16 12.5C16 10.567 14.433 9 12.5 9C10.567 9 9 10.567 9 12.5C9 14.433 10.567 16 12.5 16ZM12.5 13C12.7761 13 13 12.7761 13 12.5C13 12.2239 12.7761 12 12.5 12C12.2239 12 12 12.2239 12 12.5C12 12.7761 12.2239 13 12.5 13Z" fill="url(#paint5_linear_445_7134)"/>
<path d="M15 12.5C15 13.8807 13.8807 15 12.5 15V17C14.9853 17 17 14.9853 17 12.5H15ZM12.5 10C13.8807 10 15 11.1193 15 12.5H17C17 10.0147 14.9853 8 12.5 8V10ZM10 12.5C10 11.1193 11.1193 10 12.5 10V8C10.0147 8 8 10.0147 8 12.5H10ZM12.5 15C11.1193 15 10 13.8807 10 12.5H8C8 14.9853 10.0147 17 12.5 17V15ZM12 12.5C12 12.2239 12.2239 12 12.5 12V14C13.3284 14 14 13.3284 14 12.5H12ZM12.5 13C12.2239 13 12 12.7761 12 12.5H14C14 11.6716 13.3284 11 12.5 11V13ZM13 12.5C13 12.7761 12.7761 13 12.5 13V11C11.6716 11 11 11.6716 11 12.5H13ZM12.5 12C12.7761 12 13 12.2239 13 12.5H11C11 13.3284 11.6716 14 12.5 14V12Z" fill="url(#paint6_linear_445_7134)" mask="url(#path-14-inside-5_445_7134)"/>
<rect x="6.5" y="11.5" width="6" height="2" fill="url(#paint7_linear_445_7134)"/>
<rect x="6.5" y="11.5" width="6" height="2" stroke="url(#paint8_linear_445_7134)" stroke-linejoin="round"/>
<rect x="6.5" y="11.5" width="6" height="2" stroke="url(#paint9_linear_445_7134)" stroke-linejoin="round"/>
</g>
<defs>
<linearGradient id="paint0_linear_445_7134" x1="2" y1="2.09255" x2="14" y2="13.9075" gradientUnits="userSpaceOnUse">
<stop stop-color="#FCFCFC"/>
<stop offset="1" stop-color="white"/>
</linearGradient>
<linearGradient id="paint1_linear_445_7134" x1="4.5" y1="0" x2="4.5" y2="4" gradientUnits="userSpaceOnUse">
<stop stop-color="#D4D4D4"/>
<stop offset="0.465" stop-color="white"/>
<stop offset="1" stop-color="#DFBDBD"/>
</linearGradient>
<linearGradient id="paint2_linear_445_7134" x1="11.5" y1="0" x2="11.5" y2="4" gradientUnits="userSpaceOnUse">
<stop stop-color="#D4D4D4"/>
<stop offset="0.465" stop-color="white"/>
<stop offset="1" stop-color="#DFBDBD"/>
</linearGradient>
<linearGradient id="paint3_linear_445_7134" x1="5" y1="11" x2="8.5" y2="14.5" gradientUnits="userSpaceOnUse">
<stop stop-color="#D9D9D9"/>
<stop offset="1" stop-color="#737373"/>
</linearGradient>
<linearGradient id="paint4_linear_445_7134" x1="10" y1="16" x2="3" y2="9" gradientUnits="userSpaceOnUse">
<stop stop-color="#404040"/>
<stop offset="1" stop-color="#8D8D8D"/>
</linearGradient>
<linearGradient id="paint5_linear_445_7134" x1="11" y1="11" x2="14" y2="14" gradientUnits="userSpaceOnUse">
<stop stop-color="#D9D9D9"/>
<stop offset="1" stop-color="#737373"/>
</linearGradient>
<linearGradient id="paint6_linear_445_7134" x1="16" y1="16" x2="9" y2="9" gradientUnits="userSpaceOnUse">
<stop stop-color="#404040"/>
<stop offset="1" stop-color="#8D8D8D"/>
</linearGradient>
<linearGradient id="paint7_linear_445_7134" x1="7.71429" y1="12.1429" x2="7.98901" y2="13.5165" gradientUnits="userSpaceOnUse">
<stop stop-color="#D9D9D9"/>
<stop offset="1" stop-color="#737373"/>
</linearGradient>
<linearGradient id="paint8_linear_445_7134" x1="9.5" y1="14" x2="9.5" y2="11" gradientUnits="userSpaceOnUse">
<stop offset="0.33" stop-color="#515151"/>
<stop offset="0.66" stop-color="#8D8D8D"/>
</linearGradient>
<linearGradient id="paint9_linear_445_7134" x1="7" y1="12.5" x2="12" y2="12.5" gradientUnits="userSpaceOnUse">
<stop stop-color="#484848"/>
<stop offset="0.515" stop-color="#484848" stop-opacity="0"/>
<stop offset="1" stop-color="#484848"/>
</linearGradient>
<clipPath id="clip0_445_7134">
<rect width="16" height="16" fill="white"/>
</clipPath>
</defs>
</svg>
