<svg width="16" height="16" viewBox="0 0 16 16" fill="none" xmlns="http://www.w3.org/2000/svg">
<g clip-path="url(#clip0_445_7136)">
<g clip-path="url(#clip1_445_7136)">
<rect x="1.5" y="1.5" width="13" height="14" stroke="#919191" stroke-linejoin="round"/>
<rect x="1.5" y="1.5" width="13" height="13" fill="url(#paint0_linear_445_7136)" stroke="#C9C9C9" stroke-linejoin="round"/>
<mask id="path-3-outside-1_445_7136" maskUnits="userSpaceOnUse" x="1" y="1" width="14" height="5" fill="black">
<rect fill="white" x="1" y="1" width="14" height="5"/>
<path d="M2 2H14V6H2V2Z"/>
</mask>
<path d="M2 2H14V6H2V2Z" fill="#ED0202"/>
<path d="M2 2V1C1.44772 1 1 1.44772 1 2H2ZM14 2H15C15 1.44772 14.5523 1 14 1V2ZM2 3H14V1H2V3ZM13 2V6H15V2H13ZM3 6V2H1V6H3Z" fill="#CD0000" mask="url(#path-3-outside-1_445_7136)"/>
<circle cx="4.5" cy="3.5" r="1" stroke="black" stroke-opacity="0.33"/>
<mask id="path-6-inside-2_445_7136" fill="white">
<path d="M3 1.5C3 0.671573 3.67157 0 4.5 0C5.32843 0 6 0.671573 6 1.5V2.5C6 3.32843 5.32843 4 4.5 4C3.67157 4 3 3.32843 3 2.5V1.5Z"/>
</mask>
<path d="M3 1.5C3 0.671573 3.67157 0 4.5 0C5.32843 0 6 0.671573 6 1.5V2.5C6 3.32843 5.32843 4 4.5 4C3.67157 4 3 3.32843 3 2.5V1.5Z" fill="url(#paint1_linear_445_7136)"/>
<path d="M5 1.5V2.5H7V1.5H5ZM4 2.5V1.5H2V2.5H4ZM4.5 3C4.22386 3 4 2.77614 4 2.5H2C2 3.88071 3.11929 5 4.5 5V3ZM5 2.5C5 2.77614 4.77614 3 4.5 3V5C5.88071 5 7 3.88071 7 2.5H5ZM4.5 1C4.77614 1 5 1.22386 5 1.5H7C7 0.119288 5.88071 -1 4.5 -1V1ZM4.5 -1C3.11929 -1 2 0.119288 2 1.5H4C4 1.22386 4.22386 1 4.5 1V-1Z" fill="black" fill-opacity="0.2" mask="url(#path-6-inside-2_445_7136)"/>
<circle cx="11.5" cy="3.5" r="1" stroke="black" stroke-opacity="0.33"/>
<mask id="path-9-inside-3_445_7136" fill="white">
<path d="M10 1.5C10 0.671573 10.6716 0 11.5 0C12.3284 0 13 0.671573 13 1.5V2.5C13 3.32843 12.3284 4 11.5 4C10.6716 4 10 3.32843 10 2.5V1.5Z"/>
</mask>
<path d="M10 1.5C10 0.671573 10.6716 0 11.5 0C12.3284 0 13 0.671573 13 1.5V2.5C13 3.32843 12.3284 4 11.5 4C10.6716 4 10 3.32843 10 2.5V1.5Z" fill="url(#paint2_linear_445_7136)"/>
<path d="M12 1.5V2.5H14V1.5H12ZM11 2.5V1.5H9V2.5H11ZM11.5 3C11.2239 3 11 2.77614 11 2.5H9C9 3.88071 10.1193 5 11.5 5V3ZM12 2.5C12 2.77614 11.7761 3 11.5 3V5C12.8807 5 14 3.88071 14 2.5H12ZM11.5 1C11.7761 1 12 1.22386 12 1.5H14C14 0.119288 12.8807 -1 11.5 -1V1ZM11.5 -1C10.1193 -1 9 0.119288 9 1.5H11C11 1.22386 11.2239 1 11.5 1V-1Z" fill="black" fill-opacity="0.2" mask="url(#path-9-inside-3_445_7136)"/>
<path d="M7.38 7.275V12H6.351V8.304L5.497 8.913L5.028 8.234L6.435 7.275H7.38ZM11.0426 7.268V7.989L9.55159 12.112L8.59959 11.804L9.97859 8.066H8.33359V7.268H11.0426Z" fill="black" fill-opacity="0.5"/>
<g filter="url(#filter0_d_445_7136)">
<path d="M11 14V11H14L11 14Z" fill="#FCFCFC"/>
<path d="M10.5 14C10.5 14.2022 10.6218 14.3845 10.8087 14.4619C10.9955 14.5393 11.2106 14.4966 11.3536 14.3536L14.3536 11.3536C14.4966 11.2106 14.5393 10.9955 14.4619 10.8087C14.3845 10.6218 14.2022 10.5 14 10.5H11C10.7239 10.5 10.5 10.7239 10.5 11V14Z" stroke="#C4C4C4" stroke-linejoin="round"/>
</g>
</g>
<path d="M4.54043 14.803C4.45989 14.991 4.50188 15.209 4.64645 15.3536C4.79102 15.4981 5.00904 15.5401 5.19696 15.4596L8.69696 13.9596C8.84946 13.8942 8.9596 13.7575 8.99098 13.5946C9.02235 13.4316 8.97087 13.2638 8.85355 13.1464L6.85355 11.1464C6.73624 11.0291 6.56836 10.9776 6.40545 11.009C6.24253 11.0404 6.10578 11.1505 6.04043 11.303L4.54043 14.803Z" fill="url(#paint3_linear_445_7136)"/>
<path d="M4.54043 14.803C4.45989 14.991 4.50188 15.209 4.64645 15.3536C4.79102 15.4981 5.00904 15.5401 5.19696 15.4596L8.69696 13.9596C8.84946 13.8942 8.9596 13.7575 8.99098 13.5946C9.02235 13.4316 8.97087 13.2638 8.85355 13.1464L6.85355 11.1464C6.73624 11.0291 6.56836 10.9776 6.40545 11.009C6.24253 11.0404 6.10578 11.1505 6.04043 11.303L4.54043 14.803Z" fill="url(#paint4_linear_445_7136)"/>
<path d="M4.54043 14.803C4.45989 14.991 4.50188 15.209 4.64645 15.3536C4.79102 15.4981 5.00904 15.5401 5.19696 15.4596L8.69696 13.9596C8.84946 13.8942 8.9596 13.7575 8.99098 13.5946C9.02235 13.4316 8.97087 13.2638 8.85355 13.1464L6.85355 11.1464C6.73624 11.0291 6.56836 10.9776 6.40545 11.009C6.24253 11.0404 6.10578 11.1505 6.04043 11.303L4.54043 14.803Z" stroke="url(#paint5_linear_445_7136)" stroke-linejoin="round"/>
<path d="M4.54043 14.803C4.45989 14.991 4.50188 15.209 4.64645 15.3536C4.79102 15.4981 5.00904 15.5401 5.19696 15.4596L8.69696 13.9596C8.84946 13.8942 8.9596 13.7575 8.99098 13.5946C9.02235 13.4316 8.97087 13.2638 8.85355 13.1464L6.85355 11.1464C6.73624 11.0291 6.56836 10.9776 6.40545 11.009C6.24253 11.0404 6.10578 11.1505 6.04043 11.303L4.54043 14.803Z" stroke="url(#paint6_linear_445_7136)" stroke-linejoin="round"/>
<path d="M6.14645 11.1464C5.95118 11.3417 5.95118 11.6583 6.14645 11.8536L8.14645 13.8536C8.34171 14.0488 8.65829 14.0488 8.85355 13.8536L14.8536 7.85355C15.0488 7.65829 15.0488 7.34171 14.8536 7.14645L12.8536 5.14645C12.6583 4.95118 12.3417 4.95118 12.1464 5.14645L6.14645 11.1464Z" fill="url(#paint7_linear_445_7136)" stroke="url(#paint8_linear_445_7136)" stroke-linejoin="round"/>
<path fill-rule="evenodd" clip-rule="evenodd" d="M6.5 11.5L7.20711 12.2071L13.2071 6.20711L12.5 5.5L6.5 11.5Z" fill="#FCF4B3"/>
<path d="M14.1464 7.85356L14.5 8.20712L14.8536 7.85356C15.0768 7.63032 15.3397 7.23926 15.4185 6.75535C15.5023 6.24043 15.3688 5.66169 14.8536 5.14646C14.3383 4.63123 13.7596 4.49768 13.2447 4.58151C12.7607 4.66028 12.3697 4.92321 12.1464 5.14646L11.7929 5.50001L12.1464 5.85356L14.1464 7.85356Z" fill="url(#paint9_linear_445_7136)" stroke="url(#paint10_linear_445_7136)"/>
</g>
<defs>
<filter id="filter0_d_445_7136" x="6" y="6" width="11" height="11" filterUnits="userSpaceOnUse" color-interpolation-filters="sRGB">
<feFlood flood-opacity="0" result="BackgroundImageFix"/>
<feColorMatrix in="SourceAlpha" type="matrix" values="0 0 0 0 0 0 0 0 0 0 0 0 0 0 0 0 0 0 127 0" result="hardAlpha"/>
<feOffset dx="-1" dy="-1"/>
<feGaussianBlur stdDeviation="1.5"/>
<feComposite in2="hardAlpha" operator="out"/>
<feColorMatrix type="matrix" values="0 0 0 0 0 0 0 0 0 0 0 0 0 0 0 0 0 0 0.25 0"/>
<feBlend mode="normal" in2="BackgroundImageFix" result="effect1_dropShadow_445_7136"/>
<feBlend mode="normal" in="SourceGraphic" in2="effect1_dropShadow_445_7136" result="shape"/>
</filter>
<linearGradient id="paint0_linear_445_7136" x1="2" y1="2.09255" x2="14" y2="13.9075" gradientUnits="userSpaceOnUse">
<stop stop-color="#FCFCFC"/>
<stop offset="1" stop-color="white"/>
</linearGradient>
<linearGradient id="paint1_linear_445_7136" x1="4.5" y1="0" x2="4.5" y2="4" gradientUnits="userSpaceOnUse">
<stop stop-color="#D4D4D4"/>
<stop offset="0.465" stop-color="white"/>
<stop offset="1" stop-color="#DFBDBD"/>
</linearGradient>
<linearGradient id="paint2_linear_445_7136" x1="11.5" y1="0" x2="11.5" y2="4" gradientUnits="userSpaceOnUse">
<stop stop-color="#D4D4D4"/>
<stop offset="0.465" stop-color="white"/>
<stop offset="1" stop-color="#DFBDBD"/>
</linearGradient>
<linearGradient id="paint3_linear_445_7136" x1="6.16667" y1="11.8889" x2="8.11111" y2="13.8333" gradientUnits="userSpaceOnUse">
<stop stop-color="#FAE7D1"/>
<stop offset="1" stop-color="#E89840"/>
</linearGradient>
<linearGradient id="paint4_linear_445_7136" x1="6.94444" y1="12.6667" x2="3.83333" y2="15.7778" gradientUnits="userSpaceOnUse">
<stop stop-color="#584013" stop-opacity="0"/>
<stop offset="0.499937" stop-color="#584013" stop-opacity="0"/>
<stop offset="0.661921" stop-color="#584013"/>
</linearGradient>
<linearGradient id="paint5_linear_445_7136" x1="6.16667" y1="12.6667" x2="7.33333" y2="13.8333" gradientUnits="userSpaceOnUse">
<stop stop-color="#B98926"/>
<stop offset="1" stop-color="#AA6016"/>
</linearGradient>
<linearGradient id="paint6_linear_445_7136" x1="7.72222" y1="11.8889" x2="3.83333" y2="15.7778" gradientUnits="userSpaceOnUse">
<stop offset="0.5" stop-color="#B98926" stop-opacity="0"/>
<stop offset="0.656842" stop-color="#584013"/>
</linearGradient>
<linearGradient id="paint7_linear_445_7136" x1="6.5" y1="11.6579" x2="8.34211" y2="13.5" gradientUnits="userSpaceOnUse">
<stop stop-color="#F5DC60"/>
<stop offset="1" stop-color="#EFCB1A"/>
</linearGradient>
<linearGradient id="paint8_linear_445_7136" x1="6.5" y1="11.6579" x2="8.3421" y2="13.5" gradientUnits="userSpaceOnUse">
<stop stop-color="#E9C755"/>
<stop offset="1" stop-color="#D98F3B"/>
</linearGradient>
<linearGradient id="paint9_linear_445_7136" x1="12.4766" y1="6.30195" x2="14.8903" y2="6.69267" gradientUnits="userSpaceOnUse">
<stop stop-color="#FDD7D1"/>
<stop offset="1" stop-color="#FBACA1"/>
</linearGradient>
<linearGradient id="paint10_linear_445_7136" x1="12.5" y1="6.31509" x2="14.8693" y2="6.72938" gradientUnits="userSpaceOnUse">
<stop stop-color="#E1B3AD"/>
<stop offset="1" stop-color="#B17971"/>
</linearGradient>
<clipPath id="clip0_445_7136">
<rect width="16" height="16" fill="white"/>
</clipPath>
<clipPath id="clip1_445_7136">
<rect width="16" height="16" fill="white"/>
</clipPath>
</defs>
</svg>
