<svg width="16" height="16" viewBox="0 0 16 16" fill="none" xmlns="http://www.w3.org/2000/svg">
<g clip-path="url(#clip0_445_7138)">
<rect x="1.5" y="1.5" width="13" height="14" stroke="#919191" stroke-linejoin="round"/>
<rect x="1.5" y="1.5" width="13" height="13" fill="url(#paint0_linear_445_7138)" stroke="#C9C9C9" stroke-linejoin="round"/>
<mask id="path-3-outside-1_445_7138" maskUnits="userSpaceOnUse" x="1" y="1" width="14" height="5" fill="black">
<rect fill="white" x="1" y="1" width="14" height="5"/>
<path d="M2 2H14V6H2V2Z"/>
</mask>
<path d="M2 2H14V6H2V2Z" fill="#ED0202"/>
<path d="M2 2V1C1.44772 1 1 1.44772 1 2H2ZM14 2H15C15 1.44772 14.5523 1 14 1V2ZM2 3H14V1H2V3ZM13 2V6H15V2H13ZM3 6V2H1V6H3Z" fill="#CD0000" mask="url(#path-3-outside-1_445_7138)"/>
<circle cx="4.5" cy="3.5" r="1" stroke="black" stroke-opacity="0.33"/>
<mask id="path-6-inside-2_445_7138" fill="white">
<path d="M3 1.5C3 0.671573 3.67157 0 4.5 0C5.32843 0 6 0.671573 6 1.5V2.5C6 3.32843 5.32843 4 4.5 4C3.67157 4 3 3.32843 3 2.5V1.5Z"/>
</mask>
<path d="M3 1.5C3 0.671573 3.67157 0 4.5 0C5.32843 0 6 0.671573 6 1.5V2.5C6 3.32843 5.32843 4 4.5 4C3.67157 4 3 3.32843 3 2.5V1.5Z" fill="url(#paint1_linear_445_7138)"/>
<path d="M5 1.5V2.5H7V1.5H5ZM4 2.5V1.5H2V2.5H4ZM4.5 3C4.22386 3 4 2.77614 4 2.5H2C2 3.88071 3.11929 5 4.5 5V3ZM5 2.5C5 2.77614 4.77614 3 4.5 3V5C5.88071 5 7 3.88071 7 2.5H5ZM4.5 1C4.77614 1 5 1.22386 5 1.5H7C7 0.119288 5.88071 -1 4.5 -1V1ZM4.5 -1C3.11929 -1 2 0.119288 2 1.5H4C4 1.22386 4.22386 1 4.5 1V-1Z" fill="black" fill-opacity="0.2" mask="url(#path-6-inside-2_445_7138)"/>
<circle cx="11.5" cy="3.5" r="1" stroke="black" stroke-opacity="0.33"/>
<mask id="path-9-inside-3_445_7138" fill="white">
<path d="M10 1.5C10 0.671573 10.6716 0 11.5 0C12.3284 0 13 0.671573 13 1.5V2.5C13 3.32843 12.3284 4 11.5 4C10.6716 4 10 3.32843 10 2.5V1.5Z"/>
</mask>
<path d="M10 1.5C10 0.671573 10.6716 0 11.5 0C12.3284 0 13 0.671573 13 1.5V2.5C13 3.32843 12.3284 4 11.5 4C10.6716 4 10 3.32843 10 2.5V1.5Z" fill="url(#paint2_linear_445_7138)"/>
<path d="M12 1.5V2.5H14V1.5H12ZM11 2.5V1.5H9V2.5H11ZM11.5 3C11.2239 3 11 2.77614 11 2.5H9C9 3.88071 10.1193 5 11.5 5V3ZM12 2.5C12 2.77614 11.7761 3 11.5 3V5C12.8807 5 14 3.88071 14 2.5H12ZM11.5 1C11.7761 1 12 1.22386 12 1.5H14C14 0.119288 12.8807 -1 11.5 -1V1ZM11.5 -1C10.1193 -1 9 0.119288 9 1.5H11C11 1.22386 11.2239 1 11.5 1V-1Z" fill="black" fill-opacity="0.2" mask="url(#path-9-inside-3_445_7138)"/>
<path d="M7.38 7.275V12H6.351V8.304L5.497 8.913L5.028 8.234L6.435 7.275H7.38ZM11.0426 7.268V7.989L9.55159 12.112L8.59959 11.804L9.97859 8.066H8.33359V7.268H11.0426Z" fill="black" fill-opacity="0.5"/>
<circle cx="12.5" cy="12.5" r="3" fill="url(#paint3_radial_445_7138)" stroke="#BC4305"/>
<path fill-rule="evenodd" clip-rule="evenodd" d="M14 13H11V12H14V13Z" fill="white"/>
</g>
<defs>
<linearGradient id="paint0_linear_445_7138" x1="2" y1="2.09255" x2="14" y2="13.9075" gradientUnits="userSpaceOnUse">
<stop stop-color="#FCFCFC"/>
<stop offset="1" stop-color="white"/>
</linearGradient>
<linearGradient id="paint1_linear_445_7138" x1="4.5" y1="0" x2="4.5" y2="4" gradientUnits="userSpaceOnUse">
<stop stop-color="#D4D4D4"/>
<stop offset="0.465" stop-color="white"/>
<stop offset="1" stop-color="#DFBDBD"/>
</linearGradient>
<linearGradient id="paint2_linear_445_7138" x1="11.5" y1="0" x2="11.5" y2="4" gradientUnits="userSpaceOnUse">
<stop stop-color="#D4D4D4"/>
<stop offset="0.465" stop-color="white"/>
<stop offset="1" stop-color="#DFBDBD"/>
</linearGradient>
<radialGradient id="paint3_radial_445_7138" cx="0" cy="0" r="1" gradientUnits="userSpaceOnUse" gradientTransform="translate(11 11) rotate(45) scale(4.24264)">
<stop stop-color="#FFAF7D"/>
<stop offset="1" stop-color="#FF6D00"/>
</radialGradient>
<clipPath id="clip0_445_7138">
<rect width="16" height="16" fill="white"/>
</clipPath>
</defs>
</svg>
