<svg width="16" height="16" viewBox="0 0 16 16" fill="none" xmlns="http://www.w3.org/2000/svg">
<g clip-path="url(#clip0_259_5005)">
<mask id="path-1-outside-1_259_5005" maskUnits="userSpaceOnUse" x="2" y="5" width="6" height="6" fill="black">
<rect fill="white" x="2" y="5" width="6" height="6"/>
<path d="M6 6L5 7L4 8L5 9L6 8L7 7L6 6Z"/>
</mask>
<path d="M6 6L5 7L4 8L5 9L6 8L7 7L6 6Z" fill="#A9A9A9"/>
<path d="M6 6L6.70711 5.29289C6.31658 4.90237 5.68342 4.90237 5.29289 5.29289L6 6ZM7 7L7.70711 7.70711C8.09763 7.31658 8.09763 6.68342 7.70711 6.29289L7 7ZM5 9L4.29289 9.70711L5 10.4142L5.70711 9.70711L5 9ZM4 8L3.29289 7.29289L2.58579 8L3.29289 8.70711L4 8ZM5.70711 7.70711L6.70711 6.70711L5.29289 5.29289L4.29289 6.29289L5.70711 7.70711ZM6.29289 6.29289L5.29289 7.29289L6.70711 8.70711L7.70711 7.70711L6.29289 6.29289ZM5.29289 7.29289L4.29289 8.29289L5.70711 9.70711L6.70711 8.70711L5.29289 7.29289ZM5.70711 8.29289L4.70711 7.29289L3.29289 8.70711L4.29289 9.70711L5.70711 8.29289ZM4.70711 8.70711L5.70711 7.70711L4.29289 6.29289L3.29289 7.29289L4.70711 8.70711ZM5.29289 6.70711L6.29289 7.70711L7.70711 6.29289L6.70711 5.29289L5.29289 6.70711Z" fill="#838383" mask="url(#path-1-outside-1_259_5005)"/>
<mask id="path-3-outside-2_259_5005" maskUnits="userSpaceOnUse" x="5" y="8" width="6" height="6" fill="black">
<rect fill="white" x="5" y="8" width="6" height="6"/>
<path d="M9 9L8 10L7 11L8 12L9 11L10 10L9 9Z"/>
</mask>
<path d="M9 9L8 10L7 11L8 12L9 11L10 10L9 9Z" fill="#A9A9A9"/>
<path d="M9 9L9.70711 8.29289C9.31658 7.90237 8.68342 7.90237 8.29289 8.29289L9 9ZM10 10L10.7071 10.7071C11.0976 10.3166 11.0976 9.68342 10.7071 9.29289L10 10ZM8 12L7.29289 12.7071L8 13.4142L8.70711 12.7071L8 12ZM7 11L6.29289 10.2929L5.58579 11L6.29289 11.7071L7 11ZM8.70711 10.7071L9.70711 9.70711L8.29289 8.29289L7.29289 9.29289L8.70711 10.7071ZM9.29289 9.29289L8.29289 10.2929L9.70711 11.7071L10.7071 10.7071L9.29289 9.29289ZM8.29289 10.2929L7.29289 11.2929L8.70711 12.7071L9.70711 11.7071L8.29289 10.2929ZM8.70711 11.2929L7.70711 10.2929L6.29289 11.7071L7.29289 12.7071L8.70711 11.2929ZM7.70711 11.7071L8.70711 10.7071L7.29289 9.29289L6.29289 10.2929L7.70711 11.7071ZM8.29289 9.70711L9.29289 10.7071L10.7071 9.29289L9.70711 8.29289L8.29289 9.70711Z" fill="#6F6F6F" mask="url(#path-3-outside-2_259_5005)"/>
<mask id="path-5-outside-3_259_5005" maskUnits="userSpaceOnUse" x="0" y="6" width="10" height="10" fill="black">
<rect fill="white" y="6" width="10" height="10"/>
<path d="M3 8L4 7L9 12L8 13H5L3 15C1.89543 15 1 14.1046 1 13L3 11V8Z"/>
</mask>
<path d="M3 8L4 7L9 12L8 13H5L3 15C1.89543 15 1 14.1046 1 13L3 11V8Z" fill="url(#paint0_linear_259_5005)"/>
<path d="M4 7L4.70711 6.29289C4.31658 5.90237 3.68342 5.90237 3.29289 6.29289L4 7ZM3 8L2.29289 7.29289C2.10536 7.48043 2 7.73478 2 8H3ZM3 11L3.70711 11.7071L4 11.4142V11H3ZM1 13L0.292893 12.2929L0 12.5858V13H1ZM3 15V16H3.41421L3.70711 15.7071L3 15ZM5 13V12H4.58579L4.29289 12.2929L5 13ZM8 13V14C8.26522 14 8.51957 13.8946 8.70711 13.7071L8 13ZM9 12L9.70711 12.7071C10.0976 12.3166 10.0976 11.6834 9.70711 11.2929L9 12ZM3.29289 6.29289L2.29289 7.29289L3.70711 8.70711L4.70711 7.70711L3.29289 6.29289ZM2 8V11H4V8H2ZM2.29289 10.2929L0.292893 12.2929L1.70711 13.7071L3.70711 11.7071L2.29289 10.2929ZM3.70711 15.7071L5.70711 13.7071L4.29289 12.2929L2.29289 14.2929L3.70711 15.7071ZM5 14H8V12H5V14ZM8.70711 13.7071L9.70711 12.7071L8.29289 11.2929L7.29289 12.2929L8.70711 13.7071ZM9.70711 11.2929L4.70711 6.29289L3.29289 7.70711L8.29289 12.7071L9.70711 11.2929ZM0 13C0 14.6569 1.34315 16 3 16V14C2.44772 14 2 13.5523 2 13H0Z" fill="url(#paint1_linear_259_5005)" mask="url(#path-5-outside-3_259_5005)"/>
<mask id="path-7-inside-4_259_5005" fill="white">
<path d="M3 8L4 7L9 12L8 13H5L3 15C1.89543 15 1 14.1046 1 13L3 11V8Z"/>
</mask>
<path d="M4 7L4.70711 6.29289C4.31658 5.90237 3.68342 5.90237 3.29289 6.29289L4 7ZM3 8L2.29289 7.29289L2 7.58579V8H3ZM3 11L3.70711 11.7071L4 11.4142V11H3ZM1 13L0.292893 12.2929L0 12.5858V13H1ZM3 15V16H3.41421L3.70711 15.7071L3 15ZM5 13V12H4.58579L4.29289 12.2929L5 13ZM8 13V14H8.41421L8.70711 13.7071L8 13ZM9 12L9.70711 12.7071L10.4142 12L9.70711 11.2929L9 12ZM3.29289 6.29289L2.29289 7.29289L3.70711 8.70711L4.70711 7.70711L3.29289 6.29289ZM2 8V11H4V8H2ZM2.29289 10.2929L0.292893 12.2929L1.70711 13.7071L3.70711 11.7071L2.29289 10.2929ZM3.70711 15.7071L5.70711 13.7071L4.29289 12.2929L2.29289 14.2929L3.70711 15.7071ZM5 14H8V12H5V14ZM8.70711 13.7071L9.70711 12.7071L8.29289 11.2929L7.29289 12.2929L8.70711 13.7071ZM9.70711 11.2929L4.70711 6.29289L3.29289 7.70711L8.29289 12.7071L9.70711 11.2929ZM0 13C0 14.6569 1.34315 16 3 16V14C2.44772 14 2 13.5523 2 13H0Z" fill="url(#paint2_linear_259_5005)" mask="url(#path-7-inside-4_259_5005)"/>
<mask id="path-9-outside-5_259_5005" maskUnits="userSpaceOnUse" x="7" y="0" width="9" height="9" fill="black">
<rect fill="white" x="7" width="9" height="9"/>
<path d="M14 7L13 8L8 3L9 2H12L13 1C14.1046 1 15 1.89543 15 3L14 4V7Z"/>
</mask>
<path d="M14 7L13 8L8 3L9 2H12L13 1C14.1046 1 15 1.89543 15 3L14 4V7Z" fill="url(#paint3_linear_259_5005)"/>
<path d="M13 8L12.2929 8.70711C12.6834 9.09763 13.3166 9.09763 13.7071 8.70711L13 8ZM14 7L14.7071 7.70711C14.8946 7.51957 15 7.26522 15 7H14ZM14 4L13.2929 3.29289L13 3.58579V4H14ZM15 3L15.7071 3.70711L16 3.41421V3H15ZM13 1V0H12.5858L12.2929 0.292893L13 1ZM12 2V3H12.4142L12.7071 2.70711L12 2ZM9 2V1C8.73478 1 8.48043 1.10536 8.29289 1.29289L9 2ZM8 3L7.29289 2.29289C6.90237 2.68342 6.90237 3.31658 7.29289 3.70711L8 3ZM13.7071 8.70711L14.7071 7.70711L13.2929 6.29289L12.2929 7.29289L13.7071 8.70711ZM15 7V4H13V7H15ZM14.7071 4.70711L15.7071 3.70711L14.2929 2.29289L13.2929 3.29289L14.7071 4.70711ZM12.2929 0.292893L11.2929 1.29289L12.7071 2.70711L13.7071 1.70711L12.2929 0.292893ZM12 1H9V3H12V1ZM8.29289 1.29289L7.29289 2.29289L8.70711 3.70711L9.70711 2.70711L8.29289 1.29289ZM7.29289 3.70711L12.2929 8.70711L13.7071 7.29289L8.70711 2.29289L7.29289 3.70711ZM16 3C16 1.34315 14.6569 0 13 0V2C13.5523 2 14 2.44772 14 3H16Z" fill="url(#paint4_linear_259_5005)" mask="url(#path-9-outside-5_259_5005)"/>
<mask id="path-11-inside-6_259_5005" fill="white">
<path d="M14 7L13 8L8 3L9 2H12L13 1C14.1046 1 15 1.89543 15 3L14 4V7Z"/>
</mask>
<path d="M13 8L12.2929 8.70711C12.6834 9.09763 13.3166 9.09763 13.7071 8.70711L13 8ZM14 7L14.7071 7.70711C14.8946 7.51957 15 7.26522 15 7H14ZM14 4L13.2929 3.29289L13 3.58579V4H14ZM15 3L15.7071 3.70711L16 3.41421V3H15ZM13 1V0H12.5858L12.2929 0.292893L13 1ZM12 2V3H12.4142L12.7071 2.70711L12 2ZM9 2V1C8.73478 1 8.48043 1.10536 8.29289 1.29289L9 2ZM8 3L7.29289 2.29289C6.90237 2.68342 6.90237 3.31658 7.29289 3.70711L8 3ZM13.7071 8.70711L14.7071 7.70711L13.2929 6.29289L12.2929 7.29289L13.7071 8.70711ZM15 7V4H13V7H15ZM14.7071 4.70711L15.7071 3.70711L14.2929 2.29289L13.2929 3.29289L14.7071 4.70711ZM12.2929 0.292893L11.2929 1.29289L12.7071 2.70711L13.7071 1.70711L12.2929 0.292893ZM12 1H9V3H12V1ZM8.29289 1.29289L7.29289 2.29289L8.70711 3.70711L9.70711 2.70711L8.29289 1.29289ZM7.29289 3.70711L12.2929 8.70711L13.7071 7.29289L8.70711 2.29289L7.29289 3.70711ZM16 3C16 1.34315 14.6569 0 13 0V2C13.5523 2 14 2.44772 14 3H16Z" fill="url(#paint5_linear_259_5005)" mask="url(#path-11-inside-6_259_5005)"/>
</g>
<defs>
<linearGradient id="paint0_linear_259_5005" x1="3.35276e-08" y1="7" x2="9" y2="16" gradientUnits="userSpaceOnUse">
<stop stop-color="#85AEE1"/>
<stop offset="1" stop-color="#3F7AC3"/>
</linearGradient>
<linearGradient id="paint1_linear_259_5005" x1="6.37025e-07" y1="7" x2="9" y2="16" gradientUnits="userSpaceOnUse">
<stop stop-color="#9CBDEE"/>
<stop offset="1" stop-color="#1B3776"/>
</linearGradient>
<linearGradient id="paint2_linear_259_5005" x1="6.37025e-07" y1="7" x2="9" y2="16" gradientUnits="userSpaceOnUse">
<stop stop-color="#ABC4E6"/>
<stop offset="1" stop-color="#6289BF"/>
</linearGradient>
<linearGradient id="paint3_linear_259_5005" x1="17" y1="8" x2="8" y2="-1" gradientUnits="userSpaceOnUse">
<stop stop-color="#3F7AC3"/>
<stop offset="1" stop-color="#85AEE1"/>
</linearGradient>
<linearGradient id="paint4_linear_259_5005" x1="17" y1="8" x2="8" y2="-1" gradientUnits="userSpaceOnUse">
<stop stop-color="#1B3776"/>
<stop offset="1" stop-color="#9CBDEE"/>
</linearGradient>
<linearGradient id="paint5_linear_259_5005" x1="17" y1="8" x2="8" y2="-1" gradientUnits="userSpaceOnUse">
<stop stop-color="#6289BF"/>
<stop offset="1" stop-color="#ABC4E6"/>
</linearGradient>
<clipPath id="clip0_259_5005">
<rect width="16" height="16" fill="white"/>
</clipPath>
</defs>
</svg>
