<svg width="16" height="16" viewBox="0 0 16 16" fill="none" xmlns="http://www.w3.org/2000/svg">
<path d="M0.5 2C0.5 1.72386 0.723858 1.5 1 1.5H7C8.38071 1.5 9.5 2.61929 9.5 4V10C9.5 10.2761 9.27614 10.5 9 10.5H1C0.723858 10.5 0.5 10.2761 0.5 10V2Z" fill="url(#paint0_linear_81_4051)" stroke="url(#paint1_linear_81_4051)"/>
<path d="M1.5 2.5H7C7.82843 2.5 8.5 3.17157 8.5 4V9.5H1.5V2.5Z" stroke="white" stroke-opacity="0.33" style="mix-blend-mode:lighten"/>
<rect x="2" y="7" width="6" height="3" fill="white"/>
<path fill-rule="evenodd" clip-rule="evenodd" d="M3 2H2V3C2 3.55228 2.44772 4 3 4H5C5.55228 4 6 3.55228 6 3V2H4V3H3V2Z" fill="url(#paint2_linear_81_4051)"/>
<path fill-rule="evenodd" clip-rule="evenodd" d="M3 2H2V3C2 3.55228 2.44772 4 3 4H5C5.55228 4 6 3.55228 6 3V2H4V3H3V2Z" fill="white"/>
<rect x="3" y="8" width="4" height="1" rx="0.5" fill="url(#paint3_linear_81_4051)"/>
<path d="M2.5 4C2.5 3.72386 2.72386 3.5 3 3.5H9C10.3807 3.5 11.5 4.61929 11.5 6V12C11.5 12.2761 11.2761 12.5 11 12.5H3C2.72386 12.5 2.5 12.2761 2.5 12V4Z" fill="url(#paint4_linear_81_4051)" stroke="url(#paint5_linear_81_4051)"/>
<path d="M3.5 4.5H9C9.82843 4.5 10.5 5.17157 10.5 6V11.5H3.5V4.5Z" stroke="white" stroke-opacity="0.33" style="mix-blend-mode:lighten"/>
<rect x="4" y="9" width="6" height="3" fill="white"/>
<path fill-rule="evenodd" clip-rule="evenodd" d="M5 4H4V5C4 5.55228 4.44772 6 5 6H7C7.55228 6 8 5.55228 8 5V4H6V5H5V4Z" fill="url(#paint6_linear_81_4051)"/>
<path fill-rule="evenodd" clip-rule="evenodd" d="M5 4H4V5C4 5.55228 4.44772 6 5 6H7C7.55228 6 8 5.55228 8 5V4H6V5H5V4Z" fill="white"/>
<rect x="5" y="10" width="4" height="1" rx="0.5" fill="url(#paint7_linear_81_4051)"/>
<path d="M4.5 6C4.5 5.72386 4.72386 5.5 5 5.5H11C12.3807 5.5 13.5 6.61929 13.5 8V14C13.5 14.2761 13.2761 14.5 13 14.5H5C4.72386 14.5 4.5 14.2761 4.5 14V6Z" fill="url(#paint8_linear_81_4051)" stroke="url(#paint9_linear_81_4051)"/>
<path d="M5.5 6.5H11C11.8284 6.5 12.5 7.17157 12.5 8V13.5H5.5V6.5Z" stroke="white" stroke-opacity="0.33" style="mix-blend-mode:lighten"/>
<rect x="6" y="11" width="6" height="3" fill="white"/>
<path fill-rule="evenodd" clip-rule="evenodd" d="M7 6H6V7C6 7.55228 6.44772 8 7 8H9C9.55228 8 10 7.55228 10 7V6H8V7H7V6Z" fill="url(#paint10_linear_81_4051)"/>
<path fill-rule="evenodd" clip-rule="evenodd" d="M7 6H6V7C6 7.55228 6.44772 8 7 8H9C9.55228 8 10 7.55228 10 7V6H8V7H7V6Z" fill="white"/>
<rect x="7" y="12" width="4" height="1" rx="0.5" fill="url(#paint11_linear_81_4051)"/>
<defs>
<linearGradient id="paint0_linear_81_4051" x1="0" y1="1" x2="10" y2="11" gradientUnits="userSpaceOnUse">
<stop stop-color="#9EC0EF"/>
<stop offset="1" stop-color="#85A2DD"/>
</linearGradient>
<linearGradient id="paint1_linear_81_4051" x1="10" y1="11" x2="0" y2="1" gradientUnits="userSpaceOnUse">
<stop stop-color="#2E5FA6"/>
<stop offset="1" stop-color="#5B86C7"/>
</linearGradient>
<linearGradient id="paint2_linear_81_4051" x1="2" y1="2" x2="6" y2="4" gradientUnits="userSpaceOnUse">
<stop stop-color="#B8B8B8"/>
<stop offset="1" stop-color="#E3E3E3"/>
</linearGradient>
<linearGradient id="paint3_linear_81_4051" x1="3" y1="8.5" x2="7" y2="8.5" gradientUnits="userSpaceOnUse">
<stop stop-color="#94D32D"/>
<stop offset="1" stop-color="#84BF54"/>
</linearGradient>
<linearGradient id="paint4_linear_81_4051" x1="2" y1="3" x2="12" y2="13" gradientUnits="userSpaceOnUse">
<stop stop-color="#9EC0EF"/>
<stop offset="1" stop-color="#85A2DD"/>
</linearGradient>
<linearGradient id="paint5_linear_81_4051" x1="12" y1="13" x2="2" y2="3" gradientUnits="userSpaceOnUse">
<stop stop-color="#2E5FA6"/>
<stop offset="1" stop-color="#5B86C7"/>
</linearGradient>
<linearGradient id="paint6_linear_81_4051" x1="4" y1="4" x2="8" y2="6" gradientUnits="userSpaceOnUse">
<stop stop-color="#B8B8B8"/>
<stop offset="1" stop-color="#E3E3E3"/>
</linearGradient>
<linearGradient id="paint7_linear_81_4051" x1="5" y1="10.5" x2="9" y2="10.5" gradientUnits="userSpaceOnUse">
<stop stop-color="#94D32D"/>
<stop offset="1" stop-color="#84BF54"/>
</linearGradient>
<linearGradient id="paint8_linear_81_4051" x1="4" y1="5" x2="14" y2="15" gradientUnits="userSpaceOnUse">
<stop stop-color="#9EC0EF"/>
<stop offset="1" stop-color="#85A2DD"/>
</linearGradient>
<linearGradient id="paint9_linear_81_4051" x1="14" y1="15" x2="4" y2="5" gradientUnits="userSpaceOnUse">
<stop stop-color="#2E5FA6"/>
<stop offset="1" stop-color="#5B86C7"/>
</linearGradient>
<linearGradient id="paint10_linear_81_4051" x1="6" y1="6" x2="10" y2="8" gradientUnits="userSpaceOnUse">
<stop stop-color="#B8B8B8"/>
<stop offset="1" stop-color="#E3E3E3"/>
</linearGradient>
<linearGradient id="paint11_linear_81_4051" x1="7" y1="12.5" x2="11" y2="12.5" gradientUnits="userSpaceOnUse">
<stop stop-color="#94D32D"/>
<stop offset="1" stop-color="#84BF54"/>
</linearGradient>
</defs>
</svg>
