<svg width="16" height="16" viewBox="0 0 16 16" fill="none" xmlns="http://www.w3.org/2000/svg">
<path d="M9.5 11.5665V11.5595V9.82843C9.5 9.4306 9.65804 9.04907 9.93934 8.76777L14 4.70711C14.3201 4.38696 14.5 3.95275 14.5 3.5C14.5 3.00698 14.1124 2.68046 13.7829 2.4857C13.4199 2.27116 12.928 2.09529 12.3639 1.95427C11.2281 1.67031 9.68542 1.5 8 1.5C6.31458 1.5 4.77193 1.67031 3.63609 1.95427C3.07202 2.09529 2.58007 2.27116 2.21709 2.4857C1.88759 2.68046 1.5 3.00698 1.5 3.5V3.58579C1.5 3.98361 1.65804 4.36514 1.93934 4.64645L6.06066 8.76777C6.34197 9.04907 6.5 9.4306 6.5 9.82843V11.5595V11.5665C5.51851 11.6559 4.64264 11.8321 3.97357 12.075C3.58899 12.2146 3.24488 12.3861 2.9874 12.5968C2.73429 12.8039 2.5 13.1056 2.5 13.5C2.5 13.9495 2.80151 14.2774 3.10366 14.4917C3.4188 14.7152 3.84238 14.8961 4.32079 15.0396C5.28398 15.3285 6.58465 15.5 8 15.5C9.41535 15.5 10.716 15.3285 11.6792 15.0396C12.1576 14.8961 12.5812 14.7152 12.8963 14.4917C13.1985 14.2774 13.5 13.9495 13.5 13.5C13.5 13.1056 13.2657 12.8039 13.0126 12.5968C12.7551 12.3861 12.411 12.2146 12.0264 12.075C11.3574 11.8321 10.4815 11.6559 9.5 11.5665Z" fill="url(#paint0_linear_505_8763)" stroke="url(#paint1_linear_505_8763)"/>
<path d="M8 2C4.68629 2 2 2.67157 2 3.5V3.58579C2 3.851 2.10536 4.10536 2.29289 4.29289L7 9C7.55228 9.55228 8.44772 9.55228 9 9L13.6464 4.35355C13.8728 4.12718 14 3.82014 14 3.5C14 2.67157 11.3137 2 8 2Z" fill="url(#paint2_linear_505_8763)"/>
<ellipse cx="8" cy="3.5" rx="6" ry="1.5" fill="url(#paint3_radial_505_8763)"/>
<path fill-rule="evenodd" clip-rule="evenodd" d="M2.8734 3.8524C2.8734 3.8524 2.87768 3.84646 2.89204 3.83528C2.88155 3.84692 2.8734 3.8524 2.8734 3.8524ZM3.11861 3.7044C3.31478 3.6115 3.60574 3.50802 3.99989 3.40948C4.98558 3.16306 6.40028 3 8 3C9.59972 3 11.0144 3.16306 12.0001 3.40948C12.3943 3.50802 12.6852 3.6115 12.8814 3.7044L8.29289 8.29289C8.13113 8.45465 7.86887 8.45465 7.70711 8.29289L3.11861 3.7044ZM13.1266 3.8524C13.1266 3.8524 13.1185 3.84692 13.108 3.83528C13.1223 3.84646 13.1266 3.8524 13.1266 3.8524ZM2 3.5C2 2.67157 4.68629 2 8 2C11.3137 2 14 2.67157 14 3.5C14 3.82014 13.8728 4.12718 13.6464 4.35355L9 9C8.44772 9.55228 7.55228 9.55228 7 9L2.29289 4.29289C2.10536 4.10536 2 3.851 2 3.58579V3.5Z" fill="white" fill-opacity="0.66"/>
<path fill-rule="evenodd" clip-rule="evenodd" d="M4.9431 13.355C4.95544 13.3518 4.96792 13.3486 4.98049 13.3454L4.9431 13.355Z" fill="white" fill-opacity="0.66"/>
<path d="M4.44467 13.5L4.48534 13.485C4.59798 13.4441 4.75786 13.4024 4.9431 13.355L4.98049 13.3454C5.77693 13.1415 7 12.8284 7 12.03C4.71776 12.169 3 12.7743 3 13.5C3 14.3285 5.23858 15 8 15C10.7614 15 13 14.3285 13 13.5C13 12.7743 11.2822 12.169 9 12.03C9 12.8085 10.2357 13.1352 11.0318 13.3457C11.2277 13.3975 11.397 13.4423 11.5147 13.485L11.5553 13.5C11.4647 13.534 11.3625 13.5686 11.2482 13.6029C10.4601 13.8393 9.31143 14 8 14C6.68857 14 5.5399 13.8393 4.75181 13.6029C4.63747 13.5686 4.5353 13.534 4.44467 13.5Z" fill="white" fill-opacity="0.66"/>
<defs>
<linearGradient id="paint0_linear_505_8763" x1="3.5" y1="4" x2="12.5" y2="4" gradientUnits="userSpaceOnUse">
<stop stop-color="#DADADA"/>
<stop offset="0.501044" stop-color="#CBCBCB"/>
<stop offset="1" stop-color="#DADADA"/>
</linearGradient>
<linearGradient id="paint1_linear_505_8763" x1="13.5" y1="14.5" x2="2" y2="2.5" gradientUnits="userSpaceOnUse">
<stop stop-color="#9A9A9A"/>
<stop offset="1" stop-color="#CCCCCC"/>
</linearGradient>
<linearGradient id="paint2_linear_505_8763" x1="6" y1="2" x2="8" y2="9" gradientUnits="userSpaceOnUse">
<stop offset="0.522189" stop-color="#F0F0F0"/>
<stop offset="1" stop-color="#CECECE"/>
</linearGradient>
<radialGradient id="paint3_radial_505_8763" cx="0" cy="0" r="1" gradientUnits="userSpaceOnUse" gradientTransform="translate(8 5) rotate(-90) scale(4 6)">
<stop offset="0.225297" stop-color="#CBCBCB"/>
<stop offset="0.597995" stop-color="#DADADA"/>
</radialGradient>
</defs>
</svg>
