<svg width="16" height="16" viewBox="0 0 16 16" fill="none" xmlns="http://www.w3.org/2000/svg">
<mask id="path-1-outside-1_323_10004" maskUnits="userSpaceOnUse" x="0" y="2" width="16" height="11" fill="black">
<rect fill="white" y="2" width="16" height="11"/>
<path fill-rule="evenodd" clip-rule="evenodd" d="M1 7.23607C1 7.08082 1.03614 6.92771 1.10557 6.78885L2.72361 3.55279C2.893 3.214 3.23926 3 3.61803 3H12.382C12.7607 3 13.107 3.214 13.2764 3.55279L14.8944 6.78885C14.9639 6.92771 15 7.08082 15 7.23607V11C15 11.5523 14.5523 12 14 12H2C1.44772 12 1 11.5523 1 11V7.23607Z"/>
</mask>
<path fill-rule="evenodd" clip-rule="evenodd" d="M1 7.23607C1 7.08082 1.03614 6.92771 1.10557 6.78885L2.72361 3.55279C2.893 3.214 3.23926 3 3.61803 3H12.382C12.7607 3 13.107 3.214 13.2764 3.55279L14.8944 6.78885C14.9639 6.92771 15 7.08082 15 7.23607V11C15 11.5523 14.5523 12 14 12H2C1.44772 12 1 11.5523 1 11V7.23607Z" fill="url(#paint0_linear_323_10004)"/>
<path d="M14.8944 6.78885L14 7.23607L14.8944 6.78885ZM13.2764 3.55279L14.1708 3.10557L13.2764 3.55279ZM1.10557 6.78885L0.211146 6.34164L1.10557 6.78885ZM1.82918 3.10557L0.211146 6.34164L2 7.23607L3.61803 4L1.82918 3.10557ZM12.382 2H3.61803V4H12.382V2ZM15.7889 6.34164L14.1708 3.10557L12.382 4L14 7.23607L15.7889 6.34164ZM14 7.23607V11H16V7.23607H14ZM14 11H2V13H14V11ZM2 11V7.23607H0V11H2ZM2 11H2H0C0 12.1046 0.895431 13 2 13V11ZM14 11V13C15.1046 13 16 12.1046 16 11H14ZM14 7.23607H16C16 6.92558 15.9277 6.61935 15.7889 6.34164L14 7.23607ZM12.382 4V4L14.1708 3.10557C13.832 2.428 13.1395 2 12.382 2V4ZM0.211146 6.34164C0.0722901 6.61935 0 6.92558 0 7.23607H2L2 7.23607L0.211146 6.34164ZM3.61803 4H3.61803V2C2.86049 2 2.16796 2.428 1.82918 3.10557L3.61803 4Z" fill="url(#paint1_linear_323_10004)" mask="url(#path-1-outside-1_323_10004)"/>
<path d="M12.3178 5.32396C12.4491 5.41709 12.4869 5.47792 12.4971 5.5C12.4869 5.52208 12.4491 5.58291 12.3178 5.67604C12.1269 5.81143 11.8183 5.95382 11.3919 6.08175C10.5454 6.33568 9.34607 6.5 8 6.5C6.65393 6.5 5.4546 6.33568 4.60814 6.08175C4.18173 5.95382 3.87308 5.81143 3.68219 5.67604C3.55089 5.58291 3.51314 5.52208 3.50291 5.5C3.51314 5.47792 3.55089 5.41709 3.68219 5.32396C3.87308 5.18857 4.18173 5.04618 4.60814 4.91825C5.4546 4.66432 6.65393 4.5 8 4.5C9.34607 4.5 10.5454 4.66432 11.3919 4.91825C11.8183 5.04618 12.1269 5.18857 12.3178 5.32396Z" fill="#D9D9D9" stroke="url(#paint2_linear_323_10004)"/>
<mask id="path-4-inside-2_323_10004" fill="white">
<path d="M1 8H15V11C15 11.5523 14.5523 12 14 12H2C1.44772 12 1 11.5523 1 11V8Z"/>
</mask>
<path d="M1 8H15H1ZM16 11C16 12.1046 15.1046 13 14 13H2C0.895431 13 0 12.1046 0 11H2H14H16ZM2 13C0.895431 13 0 12.1046 0 11V8H2V11V13ZM16 8V11C16 12.1046 15.1046 13 14 13V11V8H16Z" fill="white" fill-opacity="0.66" style="mix-blend-mode:soft-light" mask="url(#path-4-inside-2_323_10004)"/>
<path d="M3.61803 3.5H12.382C12.5714 3.5 12.7445 3.607 12.8292 3.77639L13.2691 3.55645L12.8292 3.77639L14.5 7.11803V7.5H1.5V7.11803L3.17082 3.77639C3.25552 3.607 3.42865 3.5 3.61803 3.5Z" stroke="white" stroke-opacity="0.66" style="mix-blend-mode:hard-light"/>
<circle cx="6.5" cy="13.5" r="1" fill="#EAB378" stroke="#CF7D2A"/>
<circle cx="14.5" cy="13.5" r="1" fill="#EAB378" stroke="#CF7D2A"/>
<path d="M12.5 15.5C12.7294 15.5 12.9294 15.3439 12.9851 15.1213L13.4515 13.2556L14.3536 12.3536C14.4488 12.2583 14.5016 12.1286 14.5 11.9939C14.4983 11.8592 14.4424 11.7308 14.3448 11.6379L12.2448 9.63793C12.1519 9.54939 12.0284 9.5 11.9 9.5H9.1C8.97161 9.5 8.84814 9.54939 8.75517 9.63793L6.65517 11.6379C6.55762 11.7308 6.50168 11.8592 6.50004 11.9939C6.49839 12.1286 6.55118 12.2583 6.64645 12.3536L7.5394 13.2465L7.90971 15.0981C7.95645 15.3318 8.16166 15.5 8.4 15.5H12.5Z" fill="#646464" stroke="#4E4E4E" stroke-linejoin="round"/>
<path d="M12.6 15H8.4L8 13L7 12L9.1 10H11.9L14 12L13 13L12.6 15Z" fill="url(#paint3_linear_323_10004)"/>
<path d="M9.5 11.5V12.5M11.5 11.5V12.5M11.5 12.5V13.5H9.5V12.5M11.5 12.5L13.5 11M9.5 12.5L7.5 11" stroke="#4E4E4E" stroke-linecap="round" stroke-linejoin="round"/>
<path d="M10.5 13.5V15.5" stroke="#4E4E4E" stroke-linecap="round" stroke-linejoin="round"/>
<circle cx="10.5" cy="8.5" r="3" fill="#F6D0A8" stroke="#A87B4D"/>
<mask id="path-14-inside-3_323_10004" fill="white">
<path fill-rule="evenodd" clip-rule="evenodd" d="M7.08419 9.26651C7.57084 8.65862 8.63668 7.625 9.625 7.625C10.3178 7.625 10.6484 8.00813 10.9606 8.36991C11.2398 8.6935 11.5043 9 12 9C12.6104 9 13.377 8.66209 13.998 8.37912C13.9342 6.50209 12.3925 5 10.5 5C8.567 5 7 6.567 7 8.5C7 8.76331 7.02908 9.01982 7.08419 9.26651Z"/>
</mask>
<path fill-rule="evenodd" clip-rule="evenodd" d="M7.08419 9.26651C7.57084 8.65862 8.63668 7.625 9.625 7.625C10.3178 7.625 10.6484 8.00813 10.9606 8.36991C11.2398 8.6935 11.5043 9 12 9C12.6104 9 13.377 8.66209 13.998 8.37912C13.9342 6.50209 12.3925 5 10.5 5C8.567 5 7 6.567 7 8.5C7 8.76331 7.02908 9.01982 7.08419 9.26651Z" fill="url(#paint4_linear_323_10004)"/>
<path d="M7.08419 9.26651L6.10825 9.48456L6.5626 11.5181L7.86485 9.89147L7.08419 9.26651ZM10.9606 8.36991L10.2035 9.02319L10.9606 8.36991ZM13.998 8.37912L14.4126 9.28908L15.02 9.01229L14.9974 8.3452L13.998 8.37912ZM9.625 6.625C8.80894 6.625 8.08102 7.03613 7.57074 7.41462C7.036 7.81124 6.58764 8.28667 6.30354 8.64155L7.86485 9.89147C8.0674 9.63846 8.39529 9.29313 8.76221 9.02098C9.15359 8.73068 9.45275 8.625 9.625 8.625V6.625ZM11.7177 7.71663C11.4022 7.35104 10.8066 6.625 9.625 6.625V8.625C9.765 8.625 9.82662 8.65716 9.87491 8.68986C9.95587 8.74467 10.0343 8.82716 10.2035 9.02319L11.7177 7.71663ZM12 8C11.9822 8 11.9822 7.99776 11.9911 8.00079C11.9989 8.00345 11.9972 8.00469 11.9825 7.99411C11.9653 7.98178 11.9363 7.95762 11.8899 7.90965C11.8412 7.85937 11.7909 7.80152 11.7177 7.71663L10.2035 9.02319C10.4494 9.30823 10.9913 10 12 10V8ZM13.5833 7.46915C13.2718 7.61107 12.9636 7.74814 12.6674 7.85088C12.3612 7.95704 12.1405 8 12 8V10C12.4699 10 12.9376 9.874 13.3227 9.74047C13.7176 9.6035 14.1031 9.43013 14.4126 9.28908L13.5833 7.46915ZM10.5 6C11.8516 6 12.953 7.07294 12.9985 8.41304L14.9974 8.3452C14.9154 5.93125 12.9335 4 10.5 4V6ZM8 8.5C8 7.11929 9.11929 6 10.5 6V4C8.01472 4 6 6.01472 6 8.5H8ZM8.06013 9.04846C8.0209 8.87288 8 8.68948 8 8.5H6C6 8.83714 6.03725 9.16676 6.10825 9.48456L8.06013 9.04846Z" fill="url(#paint5_linear_323_10004)" mask="url(#path-14-inside-3_323_10004)"/>
<defs>
<linearGradient id="paint0_linear_323_10004" x1="1" y1="3" x2="15.9154" y2="11.5231" gradientUnits="userSpaceOnUse">
<stop stop-color="#DBDBDB"/>
<stop offset="1" stop-color="#AEAEAE"/>
</linearGradient>
<linearGradient id="paint1_linear_323_10004" x1="5" y1="3" x2="11.931" y2="11.2145" gradientUnits="userSpaceOnUse">
<stop stop-color="#DEDEDE"/>
<stop offset="1" stop-color="#737373"/>
</linearGradient>
<linearGradient id="paint2_linear_323_10004" x1="7" y1="3" x2="9.73114" y2="7.56232" gradientUnits="userSpaceOnUse">
<stop stop-color="white"/>
<stop offset="1" stop-color="#999999"/>
</linearGradient>
<linearGradient id="paint3_linear_323_10004" x1="10.5" y1="10" x2="10.5" y2="15" gradientUnits="userSpaceOnUse">
<stop stop-color="#A4A4A4"/>
<stop offset="1" stop-color="#848484"/>
</linearGradient>
<linearGradient id="paint4_linear_323_10004" x1="14.0646" y1="11.2097" x2="6.93338" y2="11.2097" gradientUnits="userSpaceOnUse">
<stop stop-color="#693E16"/>
<stop offset="1" stop-color="#935A25"/>
</linearGradient>
<linearGradient id="paint5_linear_323_10004" x1="14.0646" y1="11.2097" x2="6.93338" y2="11.2097" gradientUnits="userSpaceOnUse">
<stop stop-color="#553210"/>
<stop offset="1" stop-color="#7B4D1E"/>
</linearGradient>
</defs>
</svg>
