<svg width="16" height="16" viewBox="0 0 16 16" fill="none" xmlns="http://www.w3.org/2000/svg">
<mask id="path-1-outside-1_199_3908" maskUnits="userSpaceOnUse" x="0" y="2" width="16" height="11" fill="black">
<rect fill="white" y="2" width="16" height="11"/>
<path fill-rule="evenodd" clip-rule="evenodd" d="M1 7.23607C1 7.08082 1.03614 6.92771 1.10557 6.78885L2.72361 3.55279C2.893 3.214 3.23926 3 3.61803 3H12.382C12.7607 3 13.107 3.214 13.2764 3.55279L14.8944 6.78885C14.9639 6.92771 15 7.08082 15 7.23607V11C15 11.5523 14.5523 12 14 12H2C1.44772 12 1 11.5523 1 11V7.23607Z"/>
</mask>
<path fill-rule="evenodd" clip-rule="evenodd" d="M1 7.23607C1 7.08082 1.03614 6.92771 1.10557 6.78885L2.72361 3.55279C2.893 3.214 3.23926 3 3.61803 3H12.382C12.7607 3 13.107 3.214 13.2764 3.55279L14.8944 6.78885C14.9639 6.92771 15 7.08082 15 7.23607V11C15 11.5523 14.5523 12 14 12H2C1.44772 12 1 11.5523 1 11V7.23607Z" fill="url(#paint0_linear_199_3908)"/>
<path d="M14.8944 6.78885L14 7.23607L14.8944 6.78885ZM13.2764 3.55279L14.1708 3.10557L13.2764 3.55279ZM1.10557 6.78885L0.211146 6.34164L1.10557 6.78885ZM1.82918 3.10557L0.211146 6.34164L2 7.23607L3.61803 4L1.82918 3.10557ZM12.382 2H3.61803V4H12.382V2ZM15.7889 6.34164L14.1708 3.10557L12.382 4L14 7.23607L15.7889 6.34164ZM14 7.23607V11H16V7.23607H14ZM14 11H2V13H14V11ZM2 11V7.23607H0V11H2ZM2 11H2H0C0 12.1046 0.895431 13 2 13V11ZM14 11V13C15.1046 13 16 12.1046 16 11H14ZM14 7.23607H16C16 6.92558 15.9277 6.61935 15.7889 6.34164L14 7.23607ZM12.382 4V4L14.1708 3.10557C13.832 2.428 13.1395 2 12.382 2V4ZM0.211146 6.34164C0.0722901 6.61935 0 6.92558 0 7.23607H2L2 7.23607L0.211146 6.34164ZM3.61803 4H3.61803V2C2.86049 2 2.16796 2.428 1.82918 3.10557L3.61803 4Z" fill="url(#paint1_linear_199_3908)" mask="url(#path-1-outside-1_199_3908)"/>
<path d="M12.3178 5.32396C12.4491 5.41709 12.4869 5.47792 12.4971 5.5C12.4869 5.52208 12.4491 5.58291 12.3178 5.67604C12.1269 5.81143 11.8183 5.95382 11.3919 6.08175C10.5454 6.33568 9.34607 6.5 8 6.5C6.65393 6.5 5.4546 6.33568 4.60814 6.08175C4.18173 5.95382 3.87308 5.81143 3.68219 5.67604C3.55089 5.58291 3.51314 5.52208 3.50291 5.5C3.51314 5.47792 3.55089 5.41709 3.68219 5.32396C3.87308 5.18857 4.18173 5.04618 4.60814 4.91825C5.4546 4.66432 6.65393 4.5 8 4.5C9.34607 4.5 10.5454 4.66432 11.3919 4.91825C11.8183 5.04618 12.1269 5.18857 12.3178 5.32396Z" fill="#D9D9D9" stroke="url(#paint2_linear_199_3908)"/>
<mask id="path-4-inside-2_199_3908" fill="white">
<path d="M1 8H15V11C15 11.5523 14.5523 12 14 12H2C1.44772 12 1 11.5523 1 11V8Z"/>
</mask>
<path d="M1 8H15H1ZM16 11C16 12.1046 15.1046 13 14 13H2C0.895431 13 0 12.1046 0 11H2H14H16ZM2 13C0.895431 13 0 12.1046 0 11V8H2V11V13ZM16 8V11C16 12.1046 15.1046 13 14 13V11V8H16Z" fill="white" fill-opacity="0.66" style="mix-blend-mode:soft-light" mask="url(#path-4-inside-2_199_3908)"/>
<path d="M3.61803 3.5H12.382C12.5714 3.5 12.7445 3.607 12.8292 3.77639L13.2691 3.55645L12.8292 3.77639L14.5 7.11803V7.5H1.5V7.11803L3.17082 3.77639C3.25552 3.607 3.42865 3.5 3.61803 3.5Z" stroke="white" stroke-opacity="0.66" style="mix-blend-mode:hard-light"/>
<path d="M4.54043 14.803C4.45989 14.991 4.50188 15.209 4.64645 15.3536C4.79102 15.4981 5.00904 15.5401 5.19696 15.4596L8.69696 13.9596C8.84946 13.8942 8.9596 13.7575 8.99098 13.5946C9.02235 13.4316 8.97087 13.2638 8.85355 13.1464L6.85355 11.1464C6.73624 11.0291 6.56836 10.9776 6.40545 11.009C6.24253 11.0404 6.10578 11.1505 6.04043 11.303L4.54043 14.803Z" fill="url(#paint3_linear_199_3908)"/>
<path d="M4.54043 14.803C4.45989 14.991 4.50188 15.209 4.64645 15.3536C4.79102 15.4981 5.00904 15.5401 5.19696 15.4596L8.69696 13.9596C8.84946 13.8942 8.9596 13.7575 8.99098 13.5946C9.02235 13.4316 8.97087 13.2638 8.85355 13.1464L6.85355 11.1464C6.73624 11.0291 6.56836 10.9776 6.40545 11.009C6.24253 11.0404 6.10578 11.1505 6.04043 11.303L4.54043 14.803Z" fill="url(#paint4_linear_199_3908)"/>
<path d="M4.54043 14.803C4.45989 14.991 4.50188 15.209 4.64645 15.3536C4.79102 15.4981 5.00904 15.5401 5.19696 15.4596L8.69696 13.9596C8.84946 13.8942 8.9596 13.7575 8.99098 13.5946C9.02235 13.4316 8.97087 13.2638 8.85355 13.1464L6.85355 11.1464C6.73624 11.0291 6.56836 10.9776 6.40545 11.009C6.24253 11.0404 6.10578 11.1505 6.04043 11.303L4.54043 14.803Z" stroke="url(#paint5_linear_199_3908)" stroke-linejoin="round"/>
<path d="M4.54043 14.803C4.45989 14.991 4.50188 15.209 4.64645 15.3536C4.79102 15.4981 5.00904 15.5401 5.19696 15.4596L8.69696 13.9596C8.84946 13.8942 8.9596 13.7575 8.99098 13.5946C9.02235 13.4316 8.97087 13.2638 8.85355 13.1464L6.85355 11.1464C6.73624 11.0291 6.56836 10.9776 6.40545 11.009C6.24253 11.0404 6.10578 11.1505 6.04043 11.303L4.54043 14.803Z" stroke="url(#paint6_linear_199_3908)" stroke-linejoin="round"/>
<path d="M6.14645 11.1464C5.95118 11.3417 5.95118 11.6583 6.14645 11.8536L8.14645 13.8536C8.34171 14.0488 8.65829 14.0488 8.85355 13.8536L14.8536 7.85355C15.0488 7.65829 15.0488 7.34171 14.8536 7.14645L12.8536 5.14645C12.6583 4.95118 12.3417 4.95118 12.1464 5.14645L6.14645 11.1464Z" fill="url(#paint7_linear_199_3908)" stroke="url(#paint8_linear_199_3908)" stroke-linejoin="round"/>
<path fill-rule="evenodd" clip-rule="evenodd" d="M6.5 11.5L7.20711 12.2071L13.2071 6.20711L12.5 5.5L6.5 11.5Z" fill="#FCF4B3"/>
<path d="M14.1464 7.85356L14.5 8.20712L14.8536 7.85356C15.0768 7.63032 15.3397 7.23926 15.4185 6.75535C15.5023 6.24043 15.3688 5.66169 14.8536 5.14646C14.3383 4.63123 13.7596 4.49768 13.2447 4.58151C12.7607 4.66028 12.3697 4.92321 12.1464 5.14646L11.7929 5.50001L12.1464 5.85356L14.1464 7.85356Z" fill="url(#paint9_linear_199_3908)" stroke="url(#paint10_linear_199_3908)"/>
<defs>
<linearGradient id="paint0_linear_199_3908" x1="1" y1="3" x2="15.9154" y2="11.5231" gradientUnits="userSpaceOnUse">
<stop stop-color="#DBDBDB"/>
<stop offset="1" stop-color="#AEAEAE"/>
</linearGradient>
<linearGradient id="paint1_linear_199_3908" x1="5" y1="3" x2="11.931" y2="11.2145" gradientUnits="userSpaceOnUse">
<stop stop-color="#DEDEDE"/>
<stop offset="1" stop-color="#737373"/>
</linearGradient>
<linearGradient id="paint2_linear_199_3908" x1="7" y1="3" x2="9.73114" y2="7.56232" gradientUnits="userSpaceOnUse">
<stop stop-color="white"/>
<stop offset="1" stop-color="#999999"/>
</linearGradient>
<linearGradient id="paint3_linear_199_3908" x1="6.16667" y1="11.8889" x2="8.11111" y2="13.8333" gradientUnits="userSpaceOnUse">
<stop stop-color="#FAE7D1"/>
<stop offset="1" stop-color="#E89840"/>
</linearGradient>
<linearGradient id="paint4_linear_199_3908" x1="6.94444" y1="12.6667" x2="3.83333" y2="15.7778" gradientUnits="userSpaceOnUse">
<stop stop-color="#584013" stop-opacity="0"/>
<stop offset="0.499937" stop-color="#584013" stop-opacity="0"/>
<stop offset="0.661921" stop-color="#584013"/>
</linearGradient>
<linearGradient id="paint5_linear_199_3908" x1="6.16667" y1="12.6667" x2="7.33333" y2="13.8333" gradientUnits="userSpaceOnUse">
<stop stop-color="#B98926"/>
<stop offset="1" stop-color="#AA6016"/>
</linearGradient>
<linearGradient id="paint6_linear_199_3908" x1="7.72222" y1="11.8889" x2="3.83333" y2="15.7778" gradientUnits="userSpaceOnUse">
<stop offset="0.5" stop-color="#B98926" stop-opacity="0"/>
<stop offset="0.656842" stop-color="#584013"/>
</linearGradient>
<linearGradient id="paint7_linear_199_3908" x1="6.5" y1="11.6579" x2="8.34211" y2="13.5" gradientUnits="userSpaceOnUse">
<stop stop-color="#F5DC60"/>
<stop offset="1" stop-color="#EFCB1A"/>
</linearGradient>
<linearGradient id="paint8_linear_199_3908" x1="6.5" y1="11.6579" x2="8.3421" y2="13.5" gradientUnits="userSpaceOnUse">
<stop stop-color="#E9C755"/>
<stop offset="1" stop-color="#D98F3B"/>
</linearGradient>
<linearGradient id="paint9_linear_199_3908" x1="12.4766" y1="6.30195" x2="14.8903" y2="6.69267" gradientUnits="userSpaceOnUse">
<stop stop-color="#FDD7D1"/>
<stop offset="1" stop-color="#FBACA1"/>
</linearGradient>
<linearGradient id="paint10_linear_199_3908" x1="12.5" y1="6.31509" x2="14.8693" y2="6.72938" gradientUnits="userSpaceOnUse">
<stop stop-color="#E1B3AD"/>
<stop offset="1" stop-color="#B17971"/>
</linearGradient>
</defs>
</svg>
