<svg width="16" height="16" viewBox="0 0 16 16" fill="none" xmlns="http://www.w3.org/2000/svg">
<mask id="path-1-outside-1_199_3932" maskUnits="userSpaceOnUse" x="0" y="2" width="16" height="11" fill="black">
<rect fill="white" y="2" width="16" height="11"/>
<path fill-rule="evenodd" clip-rule="evenodd" d="M1 7.23607C1 7.08082 1.03614 6.92771 1.10557 6.78885L2.72361 3.55279C2.893 3.214 3.23926 3 3.61803 3H12.382C12.7607 3 13.107 3.214 13.2764 3.55279L14.8944 6.78885C14.9639 6.92771 15 7.08082 15 7.23607V11C15 11.5523 14.5523 12 14 12H2C1.44772 12 1 11.5523 1 11V7.23607Z"/>
</mask>
<path fill-rule="evenodd" clip-rule="evenodd" d="M1 7.23607C1 7.08082 1.03614 6.92771 1.10557 6.78885L2.72361 3.55279C2.893 3.214 3.23926 3 3.61803 3H12.382C12.7607 3 13.107 3.214 13.2764 3.55279L14.8944 6.78885C14.9639 6.92771 15 7.08082 15 7.23607V11C15 11.5523 14.5523 12 14 12H2C1.44772 12 1 11.5523 1 11V7.23607Z" fill="url(#paint0_linear_199_3932)"/>
<path d="M14.8944 6.78885L14 7.23607L14.8944 6.78885ZM13.2764 3.55279L14.1708 3.10557L13.2764 3.55279ZM1.10557 6.78885L0.211146 6.34164L1.10557 6.78885ZM1.82918 3.10557L0.211146 6.34164L2 7.23607L3.61803 4L1.82918 3.10557ZM12.382 2H3.61803V4H12.382V2ZM15.7889 6.34164L14.1708 3.10557L12.382 4L14 7.23607L15.7889 6.34164ZM14 7.23607V11H16V7.23607H14ZM14 11H2V13H14V11ZM2 11V7.23607H0V11H2ZM2 11H2H0C0 12.1046 0.895431 13 2 13V11ZM14 11V13C15.1046 13 16 12.1046 16 11H14ZM14 7.23607H16C16 6.92558 15.9277 6.61935 15.7889 6.34164L14 7.23607ZM12.382 4V4L14.1708 3.10557C13.832 2.428 13.1395 2 12.382 2V4ZM0.211146 6.34164C0.0722901 6.61935 0 6.92558 0 7.23607H2L2 7.23607L0.211146 6.34164ZM3.61803 4H3.61803V2C2.86049 2 2.16796 2.428 1.82918 3.10557L3.61803 4Z" fill="url(#paint1_linear_199_3932)" mask="url(#path-1-outside-1_199_3932)"/>
<path d="M12.3178 5.32396C12.4491 5.41709 12.4869 5.47792 12.4971 5.5C12.4869 5.52208 12.4491 5.58291 12.3178 5.67604C12.1269 5.81143 11.8183 5.95382 11.3919 6.08175C10.5454 6.33568 9.34607 6.5 8 6.5C6.65393 6.5 5.4546 6.33568 4.60814 6.08175C4.18173 5.95382 3.87308 5.81143 3.68219 5.67604C3.55089 5.58291 3.51314 5.52208 3.50291 5.5C3.51314 5.47792 3.55089 5.41709 3.68219 5.32396C3.87308 5.18857 4.18173 5.04618 4.60814 4.91825C5.4546 4.66432 6.65393 4.5 8 4.5C9.34607 4.5 10.5454 4.66432 11.3919 4.91825C11.8183 5.04618 12.1269 5.18857 12.3178 5.32396Z" fill="#D9D9D9" stroke="url(#paint2_linear_199_3932)"/>
<mask id="path-4-inside-2_199_3932" fill="white">
<path d="M1 8H15V11C15 11.5523 14.5523 12 14 12H2C1.44772 12 1 11.5523 1 11V8Z"/>
</mask>
<path d="M1 8H15H1ZM16 11C16 12.1046 15.1046 13 14 13H2C0.895431 13 0 12.1046 0 11H2H14H16ZM2 13C0.895431 13 0 12.1046 0 11V8H2V11V13ZM16 8V11C16 12.1046 15.1046 13 14 13V11V8H16Z" fill="white" fill-opacity="0.66" style="mix-blend-mode:soft-light" mask="url(#path-4-inside-2_199_3932)"/>
<path d="M3.61803 3.5H12.382C12.5714 3.5 12.7445 3.607 12.8292 3.77639L13.2691 3.55645L12.8292 3.77639L14.5 7.11803V7.5H1.5V7.11803L3.17082 3.77639C3.25552 3.607 3.42865 3.5 3.61803 3.5Z" stroke="white" stroke-opacity="0.66" style="mix-blend-mode:hard-light"/>
<g filter="url(#filter0_i_199_3932)">
<path d="M10 9H6V14H10V16H11L16 11.5L11 7H10V9Z" fill="#80B361"/>
</g>
<path d="M10 9.5C10.2761 9.5 10.5 9.27614 10.5 9V7.5H10.8081L15.2526 11.5L10.8081 15.5H10.5V14C10.5 13.7239 10.2761 13.5 10 13.5H6.5V9.5H10Z" stroke="url(#paint3_linear_199_3932)" stroke-linejoin="round"/>
<path d="M7.5 12.5V10.5H10C10.7149 10.5 11.2659 10.0257 11.4412 9.41686L13.7531 11.5L11.4413 13.5831C11.263 12.9643 10.6975 12.5 10.0049 12.5H7.5Z" stroke="white" stroke-opacity="0.2" stroke-linejoin="round"/>
<defs>
<filter id="filter0_i_199_3932" x="6" y="7" width="12" height="11" filterUnits="userSpaceOnUse" color-interpolation-filters="sRGB">
<feFlood flood-opacity="0" result="BackgroundImageFix"/>
<feBlend mode="normal" in="SourceGraphic" in2="BackgroundImageFix" result="shape"/>
<feColorMatrix in="SourceAlpha" type="matrix" values="0 0 0 0 0 0 0 0 0 0 0 0 0 0 0 0 0 0 127 0" result="hardAlpha"/>
<feOffset dx="2" dy="2"/>
<feGaussianBlur stdDeviation="1"/>
<feComposite in2="hardAlpha" operator="arithmetic" k2="-1" k3="1"/>
<feColorMatrix type="matrix" values="0 0 0 0 1 0 0 0 0 1 0 0 0 0 1 0 0 0 0.25 0"/>
<feBlend mode="normal" in2="shape" result="effect1_innerShadow_199_3932"/>
</filter>
<linearGradient id="paint0_linear_199_3932" x1="1" y1="3" x2="15.9154" y2="11.5231" gradientUnits="userSpaceOnUse">
<stop stop-color="#DBDBDB"/>
<stop offset="1" stop-color="#AEAEAE"/>
</linearGradient>
<linearGradient id="paint1_linear_199_3932" x1="5" y1="3" x2="11.931" y2="11.2145" gradientUnits="userSpaceOnUse">
<stop stop-color="#DEDEDE"/>
<stop offset="1" stop-color="#737373"/>
</linearGradient>
<linearGradient id="paint2_linear_199_3932" x1="7" y1="3" x2="9.73114" y2="7.56232" gradientUnits="userSpaceOnUse">
<stop stop-color="white"/>
<stop offset="1" stop-color="#999999"/>
</linearGradient>
<linearGradient id="paint3_linear_199_3932" x1="14.5714" y1="14.7143" x2="8.17837" y2="7.61089" gradientUnits="userSpaceOnUse">
<stop stop-color="#247C10"/>
<stop offset="1" stop-color="#6FA53D"/>
</linearGradient>
</defs>
</svg>
