<svg width="16" height="16" viewBox="0 0 16 16" fill="none" xmlns="http://www.w3.org/2000/svg">
<mask id="path-1-outside-1_199_3943" maskUnits="userSpaceOnUse" x="0" y="2" width="16" height="11" fill="black">
<rect fill="white" y="2" width="16" height="11"/>
<path fill-rule="evenodd" clip-rule="evenodd" d="M1 7.23607C1 7.08082 1.03614 6.92771 1.10557 6.78885L2.72361 3.55279C2.893 3.214 3.23926 3 3.61803 3H12.382C12.7607 3 13.107 3.214 13.2764 3.55279L14.8944 6.78885C14.9639 6.92771 15 7.08082 15 7.23607V11C15 11.5523 14.5523 12 14 12H2C1.44772 12 1 11.5523 1 11V7.23607Z"/>
</mask>
<path fill-rule="evenodd" clip-rule="evenodd" d="M1 7.23607C1 7.08082 1.03614 6.92771 1.10557 6.78885L2.72361 3.55279C2.893 3.214 3.23926 3 3.61803 3H12.382C12.7607 3 13.107 3.214 13.2764 3.55279L14.8944 6.78885C14.9639 6.92771 15 7.08082 15 7.23607V11C15 11.5523 14.5523 12 14 12H2C1.44772 12 1 11.5523 1 11V7.23607Z" fill="url(#paint0_linear_199_3943)"/>
<path d="M14.8944 6.78885L14 7.23607L14.8944 6.78885ZM13.2764 3.55279L14.1708 3.10557L13.2764 3.55279ZM1.10557 6.78885L0.211146 6.34164L1.10557 6.78885ZM1.82918 3.10557L0.211146 6.34164L2 7.23607L3.61803 4L1.82918 3.10557ZM12.382 2H3.61803V4H12.382V2ZM15.7889 6.34164L14.1708 3.10557L12.382 4L14 7.23607L15.7889 6.34164ZM14 7.23607V11H16V7.23607H14ZM14 11H2V13H14V11ZM2 11V7.23607H0V11H2ZM2 11H2H0C0 12.1046 0.895431 13 2 13V11ZM14 11V13C15.1046 13 16 12.1046 16 11H14ZM14 7.23607H16C16 6.92558 15.9277 6.61935 15.7889 6.34164L14 7.23607ZM12.382 4V4L14.1708 3.10557C13.832 2.428 13.1395 2 12.382 2V4ZM0.211146 6.34164C0.0722901 6.61935 0 6.92558 0 7.23607H2L2 7.23607L0.211146 6.34164ZM3.61803 4H3.61803V2C2.86049 2 2.16796 2.428 1.82918 3.10557L3.61803 4Z" fill="url(#paint1_linear_199_3943)" mask="url(#path-1-outside-1_199_3943)"/>
<path d="M12.3178 5.32396C12.4491 5.41709 12.4869 5.47792 12.4971 5.5C12.4869 5.52208 12.4491 5.58291 12.3178 5.67604C12.1269 5.81143 11.8183 5.95382 11.3919 6.08175C10.5454 6.33568 9.34607 6.5 8 6.5C6.65393 6.5 5.4546 6.33568 4.60814 6.08175C4.18173 5.95382 3.87308 5.81143 3.68219 5.67604C3.55089 5.58291 3.51314 5.52208 3.50291 5.5C3.51314 5.47792 3.55089 5.41709 3.68219 5.32396C3.87308 5.18857 4.18173 5.04618 4.60814 4.91825C5.4546 4.66432 6.65393 4.5 8 4.5C9.34607 4.5 10.5454 4.66432 11.3919 4.91825C11.8183 5.04618 12.1269 5.18857 12.3178 5.32396Z" fill="#D9D9D9" stroke="url(#paint2_linear_199_3943)"/>
<mask id="path-4-inside-2_199_3943" fill="white">
<path d="M1 8H15V11C15 11.5523 14.5523 12 14 12H2C1.44772 12 1 11.5523 1 11V8Z"/>
</mask>
<path d="M1 8H15H1ZM16 11C16 12.1046 15.1046 13 14 13H2C0.895431 13 0 12.1046 0 11H2H14H16ZM2 13C0.895431 13 0 12.1046 0 11V8H2V11V13ZM16 8V11C16 12.1046 15.1046 13 14 13V11V8H16Z" fill="white" fill-opacity="0.66" style="mix-blend-mode:soft-light" mask="url(#path-4-inside-2_199_3943)"/>
<path d="M3.61803 3.5H12.382C12.5714 3.5 12.7445 3.607 12.8292 3.77639L13.2691 3.55645L12.8292 3.77639L14.5 7.11803V7.5H1.5V7.11803L3.17082 3.77639C3.25552 3.607 3.42865 3.5 3.61803 3.5Z" stroke="white" stroke-opacity="0.66" style="mix-blend-mode:hard-light"/>
<mask id="path-7-outside-3_199_3943" maskUnits="userSpaceOnUse" x="6" y="6" width="10" height="10" fill="black">
<rect fill="white" x="6" y="6" width="10" height="10"/>
<path fill-rule="evenodd" clip-rule="evenodd" d="M7 15V13.5L10 11V8.5L11.5 7H13L15 9V10.5L13.5 12H11V13H10V14H9V15H7ZM13 8L14 9L13 10L12 9L13 8Z"/>
</mask>
<g filter="url(#filter0_i_199_3943)">
<path fill-rule="evenodd" clip-rule="evenodd" d="M7 15V13.5L10 11V8.5L11.5 7H13L15 9V10.5L13.5 12H11V13H10V14H9V15H7ZM13 8L14 9L13 10L12 9L13 8Z" fill="#F4D847"/>
</g>
<path d="M7 13.5L6.35982 12.7318L6 13.0316V13.5H7ZM7 15H6V16H7V15ZM10 11L10.6402 11.7682L11 11.4684V11H10ZM10 8.5L9.29289 7.79289L9 8.08579V8.5H10ZM11.5 7V6H11.0858L10.7929 6.29289L11.5 7ZM13 7L13.7071 6.29289L13.4142 6H13V7ZM15 9H16V8.58579L15.7071 8.29289L15 9ZM15 10.5L15.7071 11.2071L16 10.9142V10.5H15ZM13.5 12V13H13.9142L14.2071 12.7071L13.5 12ZM11 12V11H10V12H11ZM11 13V14H12V13H11ZM10 13V12H9V13H10ZM10 14V15H11V14H10ZM9 14V13H8V14H9ZM9 15V16H10V15H9ZM14 9L14.7071 9.70711L15.4142 9L14.7071 8.29289L14 9ZM13 8L13.7071 7.29289L13 6.58579L12.2929 7.29289L13 8ZM13 10L12.2929 10.7071L13 11.4142L13.7071 10.7071L13 10ZM12 9L11.2929 8.29289L10.5858 9L11.2929 9.70711L12 9ZM6 13.5V15H8V13.5H6ZM9.35982 10.2318L6.35982 12.7318L7.64018 14.2682L10.6402 11.7682L9.35982 10.2318ZM9 8.5V11H11V8.5H9ZM10.7929 6.29289L9.29289 7.79289L10.7071 9.20711L12.2071 7.70711L10.7929 6.29289ZM13 6H11.5V8H13V6ZM15.7071 8.29289L13.7071 6.29289L12.2929 7.70711L14.2929 9.70711L15.7071 8.29289ZM16 10.5V9H14V10.5H16ZM14.2071 12.7071L15.7071 11.2071L14.2929 9.79289L12.7929 11.2929L14.2071 12.7071ZM11 13H13.5V11H11V13ZM12 13V12H10V13H12ZM10 14H11V12H10V14ZM11 14V13H9V14H11ZM9 15H10V13H9V15ZM10 15V14H8V15H10ZM7 16H9V14H7V16ZM14.7071 8.29289L13.7071 7.29289L12.2929 8.70711L13.2929 9.70711L14.7071 8.29289ZM13.7071 10.7071L14.7071 9.70711L13.2929 8.29289L12.2929 9.29289L13.7071 10.7071ZM11.2929 9.70711L12.2929 10.7071L13.7071 9.29289L12.7071 8.29289L11.2929 9.70711ZM12.2929 7.29289L11.2929 8.29289L12.7071 9.70711L13.7071 8.70711L12.2929 7.29289Z" fill="url(#paint3_linear_199_3943)" mask="url(#path-7-outside-3_199_3943)"/>
<defs>
<filter id="filter0_i_199_3943" x="6" y="6" width="10" height="10" filterUnits="userSpaceOnUse" color-interpolation-filters="sRGB">
<feFlood flood-opacity="0" result="BackgroundImageFix"/>
<feBlend mode="normal" in="SourceGraphic" in2="BackgroundImageFix" result="shape"/>
<feColorMatrix in="SourceAlpha" type="matrix" values="0 0 0 0 0 0 0 0 0 0 0 0 0 0 0 0 0 0 127 0" result="hardAlpha"/>
<feOffset dx="2" dy="1"/>
<feComposite in2="hardAlpha" operator="arithmetic" k2="-1" k3="1"/>
<feColorMatrix type="matrix" values="0 0 0 0 1 0 0 0 0 1 0 0 0 0 1 0 0 0 0.5 0"/>
<feBlend mode="normal" in2="shape" result="effect1_innerShadow_199_3943"/>
</filter>
<linearGradient id="paint0_linear_199_3943" x1="1" y1="3" x2="15.9154" y2="11.5231" gradientUnits="userSpaceOnUse">
<stop stop-color="#DBDBDB"/>
<stop offset="1" stop-color="#AEAEAE"/>
</linearGradient>
<linearGradient id="paint1_linear_199_3943" x1="5" y1="3" x2="11.931" y2="11.2145" gradientUnits="userSpaceOnUse">
<stop stop-color="#DEDEDE"/>
<stop offset="1" stop-color="#737373"/>
</linearGradient>
<linearGradient id="paint2_linear_199_3943" x1="7" y1="3" x2="9.73114" y2="7.56232" gradientUnits="userSpaceOnUse">
<stop stop-color="white"/>
<stop offset="1" stop-color="#999999"/>
</linearGradient>
<linearGradient id="paint3_linear_199_3943" x1="8.5" y1="8.5" x2="12.7612" y2="14.0656" gradientUnits="userSpaceOnUse">
<stop stop-color="#EAC15E"/>
<stop offset="1" stop-color="#C98032"/>
</linearGradient>
</defs>
</svg>
