<svg width="16" height="16" viewBox="0 0 16 16" fill="none" xmlns="http://www.w3.org/2000/svg">
<mask id="path-1-outside-1_199_3890" maskUnits="userSpaceOnUse" x="0" y="2" width="16" height="11" fill="black">
<rect fill="white" y="2" width="16" height="11"/>
<path fill-rule="evenodd" clip-rule="evenodd" d="M1 7.23607C1 7.08082 1.03614 6.92771 1.10557 6.78885L2.72361 3.55279C2.893 3.214 3.23926 3 3.61803 3H12.382C12.7607 3 13.107 3.214 13.2764 3.55279L14.8944 6.78885C14.9639 6.92771 15 7.08082 15 7.23607V11C15 11.5523 14.5523 12 14 12H2C1.44772 12 1 11.5523 1 11V7.23607Z"/>
</mask>
<path fill-rule="evenodd" clip-rule="evenodd" d="M1 7.23607C1 7.08082 1.03614 6.92771 1.10557 6.78885L2.72361 3.55279C2.893 3.214 3.23926 3 3.61803 3H12.382C12.7607 3 13.107 3.214 13.2764 3.55279L14.8944 6.78885C14.9639 6.92771 15 7.08082 15 7.23607V11C15 11.5523 14.5523 12 14 12H2C1.44772 12 1 11.5523 1 11V7.23607Z" fill="url(#paint0_linear_199_3890)"/>
<path d="M14.8944 6.78885L14 7.23607L14.8944 6.78885ZM13.2764 3.55279L14.1708 3.10557L13.2764 3.55279ZM1.10557 6.78885L0.211146 6.34164L1.10557 6.78885ZM1.82918 3.10557L0.211146 6.34164L2 7.23607L3.61803 4L1.82918 3.10557ZM12.382 2H3.61803V4H12.382V2ZM15.7889 6.34164L14.1708 3.10557L12.382 4L14 7.23607L15.7889 6.34164ZM14 7.23607V11H16V7.23607H14ZM14 11H2V13H14V11ZM2 11V7.23607H0V11H2ZM2 11H2H0C0 12.1046 0.895431 13 2 13V11ZM14 11V13C15.1046 13 16 12.1046 16 11H14ZM14 7.23607H16C16 6.92558 15.9277 6.61935 15.7889 6.34164L14 7.23607ZM12.382 4V4L14.1708 3.10557C13.832 2.428 13.1395 2 12.382 2V4ZM0.211146 6.34164C0.0722901 6.61935 0 6.92558 0 7.23607H2L2 7.23607L0.211146 6.34164ZM3.61803 4H3.61803V2C2.86049 2 2.16796 2.428 1.82918 3.10557L3.61803 4Z" fill="url(#paint1_linear_199_3890)" mask="url(#path-1-outside-1_199_3890)"/>
<path d="M12.3178 5.32396C12.4491 5.41709 12.4869 5.47792 12.4971 5.5C12.4869 5.52208 12.4491 5.58291 12.3178 5.67604C12.1269 5.81143 11.8183 5.95382 11.3919 6.08175C10.5454 6.33568 9.34607 6.5 8 6.5C6.65393 6.5 5.4546 6.33568 4.60814 6.08175C4.18173 5.95382 3.87308 5.81143 3.68219 5.67604C3.55089 5.58291 3.51314 5.52208 3.50291 5.5C3.51314 5.47792 3.55089 5.41709 3.68219 5.32396C3.87308 5.18857 4.18173 5.04618 4.60814 4.91825C5.4546 4.66432 6.65393 4.5 8 4.5C9.34607 4.5 10.5454 4.66432 11.3919 4.91825C11.8183 5.04618 12.1269 5.18857 12.3178 5.32396Z" fill="#D9D9D9" stroke="url(#paint2_linear_199_3890)"/>
<mask id="path-4-inside-2_199_3890" fill="white">
<path d="M1 8H15V11C15 11.5523 14.5523 12 14 12H2C1.44772 12 1 11.5523 1 11V8Z"/>
</mask>
<path d="M1 8H15H1ZM16 11C16 12.1046 15.1046 13 14 13H2C0.895431 13 0 12.1046 0 11H2H14H16ZM2 13C0.895431 13 0 12.1046 0 11V8H2V11V13ZM16 8V11C16 12.1046 15.1046 13 14 13V11V8H16Z" fill="white" fill-opacity="0.66" style="mix-blend-mode:soft-light" mask="url(#path-4-inside-2_199_3890)"/>
<path d="M3.61803 3.5H12.382C12.5714 3.5 12.7445 3.607 12.8292 3.77639L13.2691 3.55645L12.8292 3.77639L14.5 7.11803V7.5H1.5V7.11803L3.17082 3.77639C3.25552 3.607 3.42865 3.5 3.61803 3.5Z" stroke="white" stroke-opacity="0.66" style="mix-blend-mode:hard-light"/>
<rect x="4" y="9" width="8" height="1" fill="black" fill-opacity="0.5" style="mix-blend-mode:hard-light"/>
<path d="M6.5 7C6.5 6.72386 6.72386 6.5 7 6.5H13C14.3807 6.5 15.5 7.61929 15.5 9V15C15.5 15.2761 15.2761 15.5 15 15.5H7C6.72386 15.5 6.5 15.2761 6.5 15V7Z" fill="url(#paint3_linear_199_3890)" stroke="url(#paint4_linear_199_3890)"/>
<path d="M7.5 7.5H13C13.8284 7.5 14.5 8.17157 14.5 9V14.5H7.5V7.5Z" stroke="white" stroke-opacity="0.33" style="mix-blend-mode:lighten"/>
<rect x="8" y="12" width="6" height="3" fill="white"/>
<path fill-rule="evenodd" clip-rule="evenodd" d="M9 7H8V8C8 8.55228 8.44772 9 9 9H11C11.5523 9 12 8.55228 12 8V7H10V8H9V7Z" fill="url(#paint5_linear_199_3890)"/>
<path fill-rule="evenodd" clip-rule="evenodd" d="M9 7H8V8C8 8.55228 8.44772 9 9 9H11C11.5523 9 12 8.55228 12 8V7H10V8H9V7Z" fill="white"/>
<rect x="9" y="13" width="4" height="1" rx="0.5" fill="url(#paint6_linear_199_3890)"/>
<defs>
<linearGradient id="paint0_linear_199_3890" x1="1" y1="3" x2="15.9154" y2="11.5231" gradientUnits="userSpaceOnUse">
<stop stop-color="#DBDBDB"/>
<stop offset="1" stop-color="#AEAEAE"/>
</linearGradient>
<linearGradient id="paint1_linear_199_3890" x1="5" y1="3" x2="11.931" y2="11.2145" gradientUnits="userSpaceOnUse">
<stop stop-color="#DEDEDE"/>
<stop offset="1" stop-color="#737373"/>
</linearGradient>
<linearGradient id="paint2_linear_199_3890" x1="7" y1="3" x2="9.73114" y2="7.56232" gradientUnits="userSpaceOnUse">
<stop stop-color="white"/>
<stop offset="1" stop-color="#999999"/>
</linearGradient>
<linearGradient id="paint3_linear_199_3890" x1="6" y1="6" x2="16" y2="16" gradientUnits="userSpaceOnUse">
<stop stop-color="#9EC0EF"/>
<stop offset="1" stop-color="#85A2DD"/>
</linearGradient>
<linearGradient id="paint4_linear_199_3890" x1="16" y1="16" x2="6" y2="6" gradientUnits="userSpaceOnUse">
<stop stop-color="#2E5FA6"/>
<stop offset="1" stop-color="#5B86C7"/>
</linearGradient>
<linearGradient id="paint5_linear_199_3890" x1="8" y1="7" x2="12" y2="9" gradientUnits="userSpaceOnUse">
<stop stop-color="#B8B8B8"/>
<stop offset="1" stop-color="#E3E3E3"/>
</linearGradient>
<linearGradient id="paint6_linear_199_3890" x1="9" y1="13.5" x2="13" y2="13.5" gradientUnits="userSpaceOnUse">
<stop stop-color="#94D32D"/>
<stop offset="1" stop-color="#84BF54"/>
</linearGradient>
</defs>
</svg>
