<svg width="16" height="16" viewBox="0 0 16 16" fill="none" xmlns="http://www.w3.org/2000/svg">
<mask id="path-1-outside-1_199_3971" maskUnits="userSpaceOnUse" x="0" y="2" width="16" height="11" fill="black">
<rect fill="white" y="2" width="16" height="11"/>
<path fill-rule="evenodd" clip-rule="evenodd" d="M1 7.23607C1 7.08082 1.03614 6.92771 1.10557 6.78885L2.72361 3.55279C2.893 3.214 3.23926 3 3.61803 3H12.382C12.7607 3 13.107 3.214 13.2764 3.55279L14.8944 6.78885C14.9639 6.92771 15 7.08082 15 7.23607V11C15 11.5523 14.5523 12 14 12H2C1.44772 12 1 11.5523 1 11V7.23607Z"/>
</mask>
<path fill-rule="evenodd" clip-rule="evenodd" d="M1 7.23607C1 7.08082 1.03614 6.92771 1.10557 6.78885L2.72361 3.55279C2.893 3.214 3.23926 3 3.61803 3H12.382C12.7607 3 13.107 3.214 13.2764 3.55279L14.8944 6.78885C14.9639 6.92771 15 7.08082 15 7.23607V11C15 11.5523 14.5523 12 14 12H2C1.44772 12 1 11.5523 1 11V7.23607Z" fill="url(#paint0_linear_199_3971)"/>
<path d="M14.8944 6.78885L14 7.23607L14.8944 6.78885ZM13.2764 3.55279L14.1708 3.10557L13.2764 3.55279ZM1.10557 6.78885L0.211146 6.34164L1.10557 6.78885ZM1.82918 3.10557L0.211146 6.34164L2 7.23607L3.61803 4L1.82918 3.10557ZM12.382 2H3.61803V4H12.382V2ZM15.7889 6.34164L14.1708 3.10557L12.382 4L14 7.23607L15.7889 6.34164ZM14 7.23607V11H16V7.23607H14ZM14 11H2V13H14V11ZM2 11V7.23607H0V11H2ZM2 11H2H0C0 12.1046 0.895431 13 2 13V11ZM14 11V13C15.1046 13 16 12.1046 16 11H14ZM14 7.23607H16C16 6.92558 15.9277 6.61935 15.7889 6.34164L14 7.23607ZM12.382 4V4L14.1708 3.10557C13.832 2.428 13.1395 2 12.382 2V4ZM0.211146 6.34164C0.0722901 6.61935 0 6.92558 0 7.23607H2L2 7.23607L0.211146 6.34164ZM3.61803 4H3.61803V2C2.86049 2 2.16796 2.428 1.82918 3.10557L3.61803 4Z" fill="url(#paint1_linear_199_3971)" mask="url(#path-1-outside-1_199_3971)"/>
<mask id="path-3-inside-2_199_3971" fill="white">
<path d="M13 5.5C13 6.32843 10.7614 7 8 7C5.23858 7 3 6.32843 3 5.5C3 4.67157 5.23858 4 8 4C10.7614 4 13 4.67157 13 5.5Z"/>
</mask>
<path d="M13 5.5C13 6.32843 10.7614 7 8 7C5.23858 7 3 6.32843 3 5.5C3 4.67157 5.23858 4 8 4C10.7614 4 13 4.67157 13 5.5Z" fill="#D9D9D9"/>
<path d="M12 5.5C12 5.22229 12.1833 5.15846 12.0285 5.26821C11.8998 5.35953 11.6486 5.48271 11.2482 5.60283C10.4601 5.83926 9.31143 6 8 6V8C9.44999 8 10.8013 7.82495 11.8229 7.51849C12.3273 7.36716 12.8083 7.16712 13.1856 6.89953C13.5369 6.65036 14 6.19192 14 5.5H12ZM8 6C6.68857 6 5.5399 5.83926 4.75181 5.60283C4.3514 5.48271 4.10022 5.35953 3.97146 5.26821C3.81672 5.15846 4 5.22229 4 5.5H2C2 6.19192 2.4631 6.65036 2.81439 6.89953C3.19166 7.16712 3.67271 7.36716 4.17712 7.51849C5.19867 7.82495 6.55001 8 8 8V6ZM4 5.5C4 5.77771 3.81672 5.84154 3.97146 5.73179C4.10022 5.64047 4.3514 5.51729 4.75181 5.39717C5.5399 5.16074 6.68857 5 8 5V3C6.55001 3 5.19867 3.17505 4.17712 3.48151C3.67271 3.63284 3.19166 3.83288 2.81439 4.10047C2.4631 4.34964 2 4.80808 2 5.5H4ZM8 5C9.31143 5 10.4601 5.16074 11.2482 5.39717C11.6486 5.51729 11.8998 5.64047 12.0285 5.73179C12.1833 5.84154 12 5.77771 12 5.5H14C14 4.80808 13.5369 4.34964 13.1856 4.10047C12.8083 3.83288 12.3273 3.63284 11.8229 3.48151C10.8013 3.17505 9.44999 3 8 3V5Z" fill="url(#paint2_linear_199_3971)" mask="url(#path-3-inside-2_199_3971)"/>
<mask id="path-5-inside-3_199_3971" fill="white">
<path d="M1 8H15V11C15 11.5523 14.5523 12 14 12H2C1.44772 12 1 11.5523 1 11V8Z"/>
</mask>
<path d="M1 8H15H1ZM16 11C16 12.1046 15.1046 13 14 13H2C0.895431 13 0 12.1046 0 11H2H14H16ZM2 13C0.895431 13 0 12.1046 0 11V8H2V11V13ZM16 8V11C16 12.1046 15.1046 13 14 13V11V8H16Z" fill="white" fill-opacity="0.66" style="mix-blend-mode:soft-light" mask="url(#path-5-inside-3_199_3971)"/>
<path d="M3.61803 3.5H12.382C12.5714 3.5 12.7445 3.607 12.8292 3.77639L13.2691 3.55645L12.8292 3.77639L14.5 7.11803V7.5H1.5V7.11803L3.17082 3.77639C3.25552 3.607 3.42865 3.5 3.61803 3.5Z" stroke="white" stroke-opacity="0.66" style="mix-blend-mode:hard-light"/>
<path d="M15.5 14C15.5 13.8674 15.4473 13.7402 15.3536 13.6464L13.3536 11.6464C13.2598 11.5527 13.1326 11.5 13 11.5H12C11.7239 11.5 11.5 11.7239 11.5 12V13C11.5 13.1326 11.5527 13.2598 11.6464 13.3536L13.6464 15.3536C13.7402 15.4473 13.8674 15.5 14 15.5H15C15.2761 15.5 15.5 15.2761 15.5 15V14Z" fill="#DEB992" stroke="url(#paint3_linear_199_3971)" stroke-linejoin="round"/>
<circle cx="10.5" cy="10.5" r="3.5" fill="url(#paint4_radial_199_3971)"/>
<circle cx="10.5" cy="10.5" r="3" stroke="#9BBDE2" stroke-opacity="0.66"/>
<circle cx="10.5" cy="10.5" r="2" stroke="white" stroke-opacity="0.33"/>
<defs>
<linearGradient id="paint0_linear_199_3971" x1="1" y1="3" x2="15.9154" y2="11.5231" gradientUnits="userSpaceOnUse">
<stop stop-color="#DBDBDB"/>
<stop offset="1" stop-color="#AEAEAE"/>
</linearGradient>
<linearGradient id="paint1_linear_199_3971" x1="5" y1="3" x2="11.931" y2="11.2145" gradientUnits="userSpaceOnUse">
<stop stop-color="#DEDEDE"/>
<stop offset="1" stop-color="#737373"/>
</linearGradient>
<linearGradient id="paint2_linear_199_3971" x1="7" y1="3" x2="9.73114" y2="7.56232" gradientUnits="userSpaceOnUse">
<stop stop-color="white"/>
<stop offset="1" stop-color="#999999"/>
</linearGradient>
<linearGradient id="paint3_linear_199_3971" x1="12" y1="12" x2="15" y2="15" gradientUnits="userSpaceOnUse">
<stop stop-color="#DCAC78"/>
<stop offset="1" stop-color="#BA8A50"/>
</linearGradient>
<radialGradient id="paint4_radial_199_3971" cx="0" cy="0" r="1" gradientUnits="userSpaceOnUse" gradientTransform="translate(13 13) rotate(-135) scale(7.07107)">
<stop offset="0.33" stop-color="#B0D2F3"/>
<stop offset="1" stop-color="#E0EEFC"/>
</radialGradient>
</defs>
</svg>
