<svg width="16" height="16" viewBox="0 0 16 16" fill="none" xmlns="http://www.w3.org/2000/svg">
<mask id="path-1-outside-1_198_3767" maskUnits="userSpaceOnUse" x="0" y="3" width="16" height="11" fill="black">
<rect fill="white" y="3" width="16" height="11"/>
<path fill-rule="evenodd" clip-rule="evenodd" d="M1 8.23607C1 8.08082 1.03614 7.92771 1.10557 7.78885L2.72361 4.55279C2.893 4.214 3.23926 4 3.61803 4H12.382C12.7607 4 13.107 4.214 13.2764 4.55279L14.8944 7.78885C14.9639 7.92771 15 8.08082 15 8.23607V12C15 12.5523 14.5523 13 14 13H2C1.44772 13 1 12.5523 1 12V8.23607Z"/>
</mask>
<path fill-rule="evenodd" clip-rule="evenodd" d="M1 8.23607C1 8.08082 1.03614 7.92771 1.10557 7.78885L2.72361 4.55279C2.893 4.214 3.23926 4 3.61803 4H12.382C12.7607 4 13.107 4.214 13.2764 4.55279L14.8944 7.78885C14.9639 7.92771 15 8.08082 15 8.23607V12C15 12.5523 14.5523 13 14 13H2C1.44772 13 1 12.5523 1 12V8.23607Z" fill="url(#paint0_linear_198_3767)"/>
<path d="M14.8944 7.78885L14 8.23607L14.8944 7.78885ZM13.2764 4.55279L14.1708 4.10557L13.2764 4.55279ZM1.10557 7.78885L0.211146 7.34164L1.10557 7.78885ZM1.82918 4.10557L0.211146 7.34164L2 8.23607L3.61803 5L1.82918 4.10557ZM12.382 3H3.61803V5H12.382V3ZM15.7889 7.34164L14.1708 4.10557L12.382 5L14 8.23607L15.7889 7.34164ZM14 8.23607V12H16V8.23607H14ZM14 12H2V14H14V12ZM2 12V8.23607H0V12H2ZM2 12H2H0C0 13.1046 0.895431 14 2 14V12ZM14 12V14C15.1046 14 16 13.1046 16 12H14ZM14 8.23607H16C16 7.92558 15.9277 7.61935 15.7889 7.34164L14 8.23607ZM12.382 5V5L14.1708 4.10557C13.832 3.428 13.1395 3 12.382 3V5ZM0.211146 7.34164C0.0722901 7.61935 0 7.92558 0 8.23607H2L2 8.23607L0.211146 7.34164ZM3.61803 5H3.61803V3C2.86049 3 2.16796 3.428 1.82918 4.10557L3.61803 5Z" fill="url(#paint1_linear_198_3767)" mask="url(#path-1-outside-1_198_3767)"/>
<path d="M12.3178 6.32396C12.4491 6.41709 12.4869 6.47792 12.4971 6.5C12.4869 6.52208 12.4491 6.58291 12.3178 6.67604C12.1269 6.81143 11.8183 6.95382 11.3919 7.08175C10.5454 7.33568 9.34607 7.5 8 7.5C6.65393 7.5 5.4546 7.33568 4.60814 7.08175C4.18173 6.95382 3.87308 6.81143 3.68219 6.67604C3.55089 6.58291 3.51314 6.52208 3.50291 6.5C3.51314 6.47792 3.55089 6.41709 3.68219 6.32396C3.87308 6.18857 4.18173 6.04618 4.60814 5.91825C5.4546 5.66432 6.65393 5.5 8 5.5C9.34607 5.5 10.5454 5.66432 11.3919 5.91825C11.8183 6.04618 12.1269 6.18857 12.3178 6.32396Z" fill="#D9D9D9" stroke="url(#paint2_linear_198_3767)"/>
<mask id="path-4-inside-2_198_3767" fill="white">
<path d="M1 9H15V12C15 12.5523 14.5523 13 14 13H2C1.44772 13 1 12.5523 1 12V9Z"/>
</mask>
<path d="M1 9H15H1ZM16 12C16 13.1046 15.1046 14 14 14H2C0.895431 14 0 13.1046 0 12H2H14H16ZM2 14C0.895431 14 0 13.1046 0 12V9H2V12V14ZM16 9V12C16 13.1046 15.1046 14 14 14V12V9H16Z" fill="white" fill-opacity="0.66" style="mix-blend-mode:soft-light" mask="url(#path-4-inside-2_198_3767)"/>
<path d="M3.61803 4.5H12.382C12.5714 4.5 12.7445 4.607 12.8292 4.77639L13.2691 4.55645L12.8292 4.77639L14.5 8.11803V8.5H1.5V8.11803L3.17082 4.77639C3.25552 4.607 3.42865 4.5 3.61803 4.5Z" stroke="white" stroke-opacity="0.66" style="mix-blend-mode:hard-light"/>
<mask id="path-7-inside-3_198_3767" fill="white">
<path fill-rule="evenodd" clip-rule="evenodd" d="M12 16C14 16 15 14.5 15 13C15 12.3557 14.5445 11.6431 13.9596 10.8568C13.9606 10.9108 13.9606 10.9588 13.9606 11C13.9606 11.5 13.3477 12 12.7348 12C12.1218 12 11.6451 11.6513 11.5089 11C11.3768 10.3682 11.501 9.55058 12.0681 8.13283C12.0449 8.08872 12.0222 8.04445 12 8C11.8453 8.18048 11.6667 8.37692 11.4752 8.58747C10.4291 9.73789 9 11.3094 9 13C9 14.5 10 16 12 16Z"/>
</mask>
<path fill-rule="evenodd" clip-rule="evenodd" d="M12 16C14 16 15 14.5 15 13C15 12.3557 14.5445 11.6431 13.9596 10.8568C13.9606 10.9108 13.9606 10.9588 13.9606 11C13.9606 11.5 13.3477 12 12.7348 12C12.1218 12 11.6451 11.6513 11.5089 11C11.3768 10.3682 11.501 9.55058 12.0681 8.13283C12.0449 8.08872 12.0222 8.04445 12 8C11.8453 8.18048 11.6667 8.37692 11.4752 8.58747C10.4291 9.73789 9 11.3094 9 13C9 14.5 10 16 12 16Z" fill="url(#paint3_linear_198_3767)"/>
<path d="M13.9596 10.8568L14.7619 10.26L12.9002 7.75722L12.9598 10.8759L13.9596 10.8568ZM11.5089 11L10.5301 11.2047L10.5301 11.2047L11.5089 11ZM12.0681 8.13283L12.9966 8.50423L13.1679 8.07593L12.9533 7.6676L12.0681 8.13283ZM12 8L12.8944 7.55279L12.2209 6.20571L11.2407 7.34921L12 8ZM11.4752 8.58747L12.2151 9.26025V9.26025L11.4752 8.58747ZM14 13C14 13.5369 13.8199 14.0412 13.5026 14.3981C13.2016 14.7367 12.7286 15 12 15V17C13.2714 17 14.2984 16.5133 14.9974 15.7269C15.6801 14.9588 16 13.9631 16 13H14ZM13.1572 11.4537C13.4436 11.8386 13.6645 12.1616 13.8133 12.4457C13.9644 12.7342 14 12.9068 14 13H16C16 12.4489 15.8078 11.9431 15.585 11.5177C15.3598 11.0879 15.0605 10.6613 14.7619 10.26L13.1572 11.4537ZM12.9598 10.8759C12.9606 10.9192 12.9606 10.9584 12.9606 11H14.9606C14.9606 10.9592 14.9606 10.9024 14.9594 10.8377L12.9598 10.8759ZM12.9606 11C12.9606 10.919 12.9851 10.8744 12.9873 10.8706C12.9893 10.8672 12.9789 10.8853 12.9454 10.9126C12.913 10.939 12.8722 10.9631 12.8291 10.9795C12.7861 10.9959 12.7533 11 12.7348 11V13C13.3012 13 13.8257 12.7756 14.2097 12.4624C14.578 12.1619 14.9606 11.654 14.9606 11H12.9606ZM12.7348 11C12.6199 11 12.5753 10.9693 12.564 10.9604C12.556 10.9541 12.5139 10.9203 12.4877 10.7953L10.5301 11.2047C10.6401 11.731 10.9044 12.1972 11.3221 12.5281C11.7365 12.8563 12.2367 13 12.7348 13V11ZM12.4877 10.7953C12.4189 10.4664 12.445 9.88315 12.9966 8.50423L11.1396 7.76143C10.557 9.21801 10.3346 10.27 10.5301 11.2047L12.4877 10.7953ZM11.1056 8.44721C11.1309 8.49789 11.1567 8.54817 11.1829 8.59805L12.9533 7.6676C12.9332 7.62928 12.9135 7.59101 12.8944 7.55279L11.1056 8.44721ZM12.2151 9.26025C12.4039 9.05259 12.5931 8.84461 12.7593 8.65079L11.2407 7.34921C11.0975 7.51636 10.9294 7.70126 10.7354 7.91469L12.2151 9.26025ZM10 13C10 12.4324 10.2433 11.8112 10.6828 11.1376C11.12 10.4675 11.6838 9.84446 12.2151 9.26025L10.7354 7.91468C10.2205 8.48089 9.54664 9.21885 9.00779 10.0447C8.47122 10.8671 8 11.877 8 13H10ZM12 15C11.2714 15 10.7984 14.7367 10.4974 14.3981C10.1801 14.0412 10 13.5369 10 13H8C8 13.9631 8.3199 14.9588 9.00259 15.7269C9.70164 16.5133 10.7286 17 12 17V15Z" fill="url(#paint4_linear_198_3767)" mask="url(#path-7-inside-3_198_3767)"/>
<defs>
<linearGradient id="paint0_linear_198_3767" x1="1" y1="4" x2="15.9154" y2="12.5231" gradientUnits="userSpaceOnUse">
<stop stop-color="#DBDBDB"/>
<stop offset="1" stop-color="#AEAEAE"/>
</linearGradient>
<linearGradient id="paint1_linear_198_3767" x1="5" y1="4" x2="11.931" y2="12.2145" gradientUnits="userSpaceOnUse">
<stop stop-color="#DEDEDE"/>
<stop offset="1" stop-color="#737373"/>
</linearGradient>
<linearGradient id="paint2_linear_198_3767" x1="7" y1="4" x2="9.73114" y2="8.56232" gradientUnits="userSpaceOnUse">
<stop stop-color="white"/>
<stop offset="1" stop-color="#999999"/>
</linearGradient>
<linearGradient id="paint3_linear_198_3767" x1="12" y1="8" x2="12" y2="16" gradientUnits="userSpaceOnUse">
<stop offset="0.378063" stop-color="#FFE828"/>
<stop offset="0.867036" stop-color="#F8AF18"/>
</linearGradient>
<linearGradient id="paint4_linear_198_3767" x1="9" y1="8" x2="15" y2="16" gradientUnits="userSpaceOnUse">
<stop offset="0.255538" stop-color="#F9A400"/>
<stop offset="0.777803" stop-color="#FA2700"/>
</linearGradient>
</defs>
</svg>
