<svg width="16" height="16" viewBox="0 0 16 16" fill="none" xmlns="http://www.w3.org/2000/svg">
<mask id="path-1-outside-1_198_3754" maskUnits="userSpaceOnUse" x="0" y="3" width="16" height="11" fill="black">
<rect fill="white" y="3" width="16" height="11"/>
<path fill-rule="evenodd" clip-rule="evenodd" d="M1 8.23607C1 8.08082 1.03614 7.92771 1.10557 7.78885L2.72361 4.55279C2.893 4.214 3.23926 4 3.61803 4H12.382C12.7607 4 13.107 4.214 13.2764 4.55279L14.8944 7.78885C14.9639 7.92771 15 8.08082 15 8.23607V12C15 12.5523 14.5523 13 14 13H2C1.44772 13 1 12.5523 1 12V8.23607Z"/>
</mask>
<path fill-rule="evenodd" clip-rule="evenodd" d="M1 8.23607C1 8.08082 1.03614 7.92771 1.10557 7.78885L2.72361 4.55279C2.893 4.214 3.23926 4 3.61803 4H12.382C12.7607 4 13.107 4.214 13.2764 4.55279L14.8944 7.78885C14.9639 7.92771 15 8.08082 15 8.23607V12C15 12.5523 14.5523 13 14 13H2C1.44772 13 1 12.5523 1 12V8.23607Z" fill="url(#paint0_linear_198_3754)"/>
<path d="M14.8944 7.78885L14 8.23607L14.8944 7.78885ZM13.2764 4.55279L14.1708 4.10557L13.2764 4.55279ZM1.10557 7.78885L0.211146 7.34164L1.10557 7.78885ZM1.82918 4.10557L0.211146 7.34164L2 8.23607L3.61803 5L1.82918 4.10557ZM12.382 3H3.61803V5H12.382V3ZM15.7889 7.34164L14.1708 4.10557L12.382 5L14 8.23607L15.7889 7.34164ZM14 8.23607V12H16V8.23607H14ZM14 12H2V14H14V12ZM2 12V8.23607H0V12H2ZM2 12H2H0C0 13.1046 0.895431 14 2 14V12ZM14 12V14C15.1046 14 16 13.1046 16 12H14ZM14 8.23607H16C16 7.92558 15.9277 7.61935 15.7889 7.34164L14 8.23607ZM12.382 5V5L14.1708 4.10557C13.832 3.428 13.1395 3 12.382 3V5ZM0.211146 7.34164C0.0722901 7.61935 0 7.92558 0 8.23607H2L2 8.23607L0.211146 7.34164ZM3.61803 5H3.61803V3C2.86049 3 2.16796 3.428 1.82918 4.10557L3.61803 5Z" fill="url(#paint1_linear_198_3754)" mask="url(#path-1-outside-1_198_3754)"/>
<mask id="path-3-inside-2_198_3754" fill="white">
<path d="M13 6.5C13 7.32843 10.7614 8 8 8C5.23858 8 3 7.32843 3 6.5C3 5.67157 5.23858 5 8 5C10.7614 5 13 5.67157 13 6.5Z"/>
</mask>
<path d="M13 6.5C13 7.32843 10.7614 8 8 8C5.23858 8 3 7.32843 3 6.5C3 5.67157 5.23858 5 8 5C10.7614 5 13 5.67157 13 6.5Z" fill="#D9D9D9"/>
<path d="M12 6.5C12 6.22229 12.1833 6.15846 12.0285 6.26821C11.8998 6.35953 11.6486 6.48271 11.2482 6.60283C10.4601 6.83926 9.31143 7 8 7V9C9.44999 9 10.8013 8.82495 11.8229 8.51849C12.3273 8.36716 12.8083 8.16712 13.1856 7.89953C13.5369 7.65036 14 7.19192 14 6.5H12ZM8 7C6.68857 7 5.5399 6.83926 4.75181 6.60283C4.3514 6.48271 4.10022 6.35953 3.97146 6.26821C3.81672 6.15846 4 6.22229 4 6.5H2C2 7.19192 2.4631 7.65036 2.81439 7.89953C3.19166 8.16712 3.67271 8.36716 4.17712 8.51849C5.19867 8.82495 6.55001 9 8 9V7ZM4 6.5C4 6.77771 3.81672 6.84154 3.97146 6.73179C4.10022 6.64047 4.3514 6.51729 4.75181 6.39717C5.5399 6.16074 6.68857 6 8 6V4C6.55001 4 5.19867 4.17505 4.17712 4.48151C3.67271 4.63284 3.19166 4.83288 2.81439 5.10047C2.4631 5.34964 2 5.80808 2 6.5H4ZM8 6C9.31143 6 10.4601 6.16074 11.2482 6.39717C11.6486 6.51729 11.8998 6.64047 12.0285 6.73179C12.1833 6.84154 12 6.77771 12 6.5H14C14 5.80808 13.5369 5.34964 13.1856 5.10047C12.8083 4.83288 12.3273 4.63284 11.8229 4.48151C10.8013 4.17505 9.44999 4 8 4V6Z" fill="url(#paint2_linear_198_3754)" mask="url(#path-3-inside-2_198_3754)"/>
<mask id="path-5-inside-3_198_3754" fill="white">
<path d="M1 9H15V12C15 12.5523 14.5523 13 14 13H2C1.44772 13 1 12.5523 1 12V9Z"/>
</mask>
<path d="M1 9H15H1ZM16 12C16 13.1046 15.1046 14 14 14H2C0.895431 14 0 13.1046 0 12H2H14H16ZM2 14C0.895431 14 0 13.1046 0 12V9H2V12V14ZM16 9V12C16 13.1046 15.1046 14 14 14V12V9H16Z" fill="white" fill-opacity="0.66" style="mix-blend-mode:soft-light" mask="url(#path-5-inside-3_198_3754)"/>
<path d="M3.61803 4.5H12.382C12.5714 4.5 12.7445 4.607 12.8292 4.77639L13.2691 4.55645L12.8292 4.77639L14.5 8.11803V8.5H1.5V8.11803L3.17082 4.77639C3.25552 4.607 3.42865 4.5 3.61803 4.5Z" stroke="white" stroke-opacity="0.66" style="mix-blend-mode:hard-light"/>
<circle cx="12.5" cy="12.5" r="3" fill="url(#paint3_radial_198_3754)" stroke="#BC4305"/>
<path fill-rule="evenodd" clip-rule="evenodd" d="M14 13H11V12H14V13Z" fill="white"/>
<defs>
<linearGradient id="paint0_linear_198_3754" x1="1" y1="4" x2="15.9154" y2="12.5231" gradientUnits="userSpaceOnUse">
<stop stop-color="#DBDBDB"/>
<stop offset="1" stop-color="#AEAEAE"/>
</linearGradient>
<linearGradient id="paint1_linear_198_3754" x1="5" y1="4" x2="11.931" y2="12.2145" gradientUnits="userSpaceOnUse">
<stop stop-color="#DEDEDE"/>
<stop offset="1" stop-color="#737373"/>
</linearGradient>
<linearGradient id="paint2_linear_198_3754" x1="7" y1="4" x2="9.73114" y2="8.56232" gradientUnits="userSpaceOnUse">
<stop stop-color="white"/>
<stop offset="1" stop-color="#999999"/>
</linearGradient>
<radialGradient id="paint3_radial_198_3754" cx="0" cy="0" r="1" gradientUnits="userSpaceOnUse" gradientTransform="translate(11 11) rotate(45) scale(4.24264)">
<stop stop-color="#FFAF7D"/>
<stop offset="1" stop-color="#FF6D00"/>
</radialGradient>
</defs>
</svg>
