<svg width="16" height="16" viewBox="0 0 16 16" fill="none" xmlns="http://www.w3.org/2000/svg">
<mask id="path-1-outside-1_198_3781" maskUnits="userSpaceOnUse" x="0" y="1" width="16" height="11" fill="black">
<rect fill="white" y="1" width="16" height="11"/>
<path fill-rule="evenodd" clip-rule="evenodd" d="M1 6.23607C1 6.08082 1.03614 5.92771 1.10557 5.78885L2.72361 2.55279C2.893 2.214 3.23926 2 3.61803 2H12.382C12.7607 2 13.107 2.214 13.2764 2.55279L14.8944 5.78885C14.9639 5.92771 15 6.08082 15 6.23607V10C15 10.5523 14.5523 11 14 11H2C1.44772 11 1 10.5523 1 10V6.23607Z"/>
</mask>
<path fill-rule="evenodd" clip-rule="evenodd" d="M1 6.23607C1 6.08082 1.03614 5.92771 1.10557 5.78885L2.72361 2.55279C2.893 2.214 3.23926 2 3.61803 2H12.382C12.7607 2 13.107 2.214 13.2764 2.55279L14.8944 5.78885C14.9639 5.92771 15 6.08082 15 6.23607V10C15 10.5523 14.5523 11 14 11H2C1.44772 11 1 10.5523 1 10V6.23607Z" fill="url(#paint0_linear_198_3781)"/>
<path d="M14.8944 5.78885L14 6.23607L14.8944 5.78885ZM13.2764 2.55279L14.1708 2.10557L13.2764 2.55279ZM1.10557 5.78885L0.211146 5.34164L1.10557 5.78885ZM1.82918 2.10557L0.211146 5.34164L2 6.23607L3.61803 3L1.82918 2.10557ZM12.382 1H3.61803V3H12.382V1ZM15.7889 5.34164L14.1708 2.10557L12.382 3L14 6.23607L15.7889 5.34164ZM14 6.23607V10H16V6.23607H14ZM14 10H2V12H14V10ZM2 10V6.23607H0V10H2ZM2 10H2H0C0 11.1046 0.895431 12 2 12V10ZM14 10V12C15.1046 12 16 11.1046 16 10H14ZM14 6.23607H16C16 5.92558 15.9277 5.61935 15.7889 5.34164L14 6.23607ZM12.382 3V3L14.1708 2.10557C13.832 1.428 13.1395 1 12.382 1V3ZM0.211146 5.34164C0.0722901 5.61935 0 5.92558 0 6.23607H2L2 6.23607L0.211146 5.34164ZM3.61803 3H3.61803V1C2.86049 1 2.16796 1.428 1.82918 2.10557L3.61803 3Z" fill="url(#paint1_linear_198_3781)" mask="url(#path-1-outside-1_198_3781)"/>
<path d="M12.3178 4.32396C12.4491 4.41709 12.4869 4.47792 12.4971 4.5C12.4869 4.52208 12.4491 4.58291 12.3178 4.67604C12.1269 4.81143 11.8183 4.95382 11.3919 5.08175C10.5454 5.33568 9.34607 5.5 8 5.5C6.65393 5.5 5.4546 5.33568 4.60814 5.08175C4.18173 4.95382 3.87308 4.81143 3.68219 4.67604C3.55089 4.58291 3.51314 4.52208 3.50291 4.5C3.51314 4.47792 3.55089 4.41709 3.68219 4.32396C3.87308 4.18857 4.18173 4.04618 4.60814 3.91825C5.4546 3.66432 6.65393 3.5 8 3.5C9.34607 3.5 10.5454 3.66432 11.3919 3.91825C11.8183 4.04618 12.1269 4.18857 12.3178 4.32396Z" fill="#D9D9D9" stroke="url(#paint2_linear_198_3781)"/>
<mask id="path-4-inside-2_198_3781" fill="white">
<path d="M1 7H15V10C15 10.5523 14.5523 11 14 11H2C1.44772 11 1 10.5523 1 10V7Z"/>
</mask>
<path d="M1 7H15H1ZM16 10C16 11.1046 15.1046 12 14 12H2C0.895431 12 0 11.1046 0 10H2H14H16ZM2 12C0.895431 12 0 11.1046 0 10V7H2V10V12ZM16 7V10C16 11.1046 15.1046 12 14 12V10V7H16Z" fill="white" fill-opacity="0.66" style="mix-blend-mode:soft-light" mask="url(#path-4-inside-2_198_3781)"/>
<path d="M3.61803 2.5H12.382C12.5714 2.5 12.7445 2.607 12.8292 2.77639L13.2691 2.55645L12.8292 2.77639L14.5 6.11803V6.5H1.5V6.11803L3.17082 2.77639C3.25552 2.607 3.42865 2.5 3.61803 2.5Z" stroke="white" stroke-opacity="0.66" style="mix-blend-mode:hard-light"/>
<rect x="3" y="8" width="10" height="1" rx="0.5" fill="black" fill-opacity="0.5" style="mix-blend-mode:hard-light"/>
<defs>
<linearGradient id="paint0_linear_198_3781" x1="1" y1="2" x2="15.9154" y2="10.5231" gradientUnits="userSpaceOnUse">
<stop stop-color="#DBDBDB"/>
<stop offset="1" stop-color="#AEAEAE"/>
</linearGradient>
<linearGradient id="paint1_linear_198_3781" x1="5" y1="2" x2="11.931" y2="10.2145" gradientUnits="userSpaceOnUse">
<stop stop-color="#DEDEDE"/>
<stop offset="1" stop-color="#737373"/>
</linearGradient>
<linearGradient id="paint2_linear_198_3781" x1="7" y1="2" x2="9.73114" y2="6.56232" gradientUnits="userSpaceOnUse">
<stop stop-color="white"/>
<stop offset="1" stop-color="#999999"/>
</linearGradient>
</defs>
</svg>
