<svg width="16" height="16" viewBox="0 0 16 16" fill="none" xmlns="http://www.w3.org/2000/svg">
<g clip-path="url(#clip0_345_6247)">
<path d="M0.5 6C0.5 5.83852 0.577983 5.68699 0.709381 5.59313L7.70938 0.593133C7.88323 0.468956 8.11677 0.468956 8.29062 0.593133L15.2906 5.59313C15.422 5.68699 15.5 5.83852 15.5 6V15C15.5 15.2761 15.2761 15.5 15 15.5H1C0.723858 15.5 0.5 15.2761 0.5 15V6Z" fill="#DEECFD" stroke="url(#paint0_linear_345_6247)" stroke-linejoin="round"/>
<path d="M8 1L1 6V7H15V6L8 1Z" fill="#DEECFD"/>
<path d="M14.5 6.25731L8 1.61445L1.5 6.25731V6.5H14.5V6.25731Z" stroke="white" stroke-opacity="0.66" stroke-linejoin="round"/>
<rect x="3.5" y="4.5" width="9" height="10" rx="0.5" stroke="#466EAD"/>
<mask id="path-5-inside-1_345_6247" fill="white">
<path d="M4 5H12V14H4V5Z"/>
</mask>
<path d="M4 5V4C3.44772 4 3 4.44772 3 5H4ZM12 5H13C13 4.44772 12.5523 4 12 4V5ZM12 14V16C12.5523 16 13 15.5523 13 15V14H12ZM4 14H3V15C3 15.5523 3.44772 16 4 16V14ZM4 6H12V4H4V6ZM11 5V14H13V5H11ZM12 12H4V16H12V12ZM5 14V5H3V14H5Z" fill="white" style="mix-blend-mode:hard-light" mask="url(#path-5-inside-1_345_6247)"/>
<mask id="path-7-inside-2_345_6247" fill="white">
<path d="M5 6H11V12H5V6Z"/>
</mask>
<path d="M5 6H11V12H5V6Z" fill="url(#paint1_linear_345_6247)"/>
<path d="M5 6V5H4V6H5ZM11 6H12V5H11V6ZM11 12V13H12V12H11ZM5 12H4V13H5V12ZM5 7H11V5H5V7ZM10 6V12H12V6H10ZM11 11H5V13H11V11ZM6 12V6H4V12H6Z" fill="#571B08" fill-opacity="0.33" style="mix-blend-mode:hard-light" mask="url(#path-7-inside-2_345_6247)"/>
<g clip-path="url(#clip1_345_6247)">
<path d="M1 6L5.5 10.5H10.5L15 6V15H1V6Z" fill="url(#paint2_linear_345_6247)"/>
<path d="M1.5 14.5L5.50001 10.5H10.5L14.5 14.5" stroke="#508DC8" stroke-opacity="0.33" stroke-linecap="round"/>
<path d="M1 6L5.5 10.5H10.5L15 6" stroke="url(#paint3_linear_345_6247)" stroke-linejoin="round"/>
<path fill-rule="evenodd" clip-rule="evenodd" d="M2.72045 6.00001H2V5.28571L1 6V15H15V6L14 5.28571V6.00001H13.2795L14 6.51462V14H2V6.51462L2.72045 6.00001ZM7.99999 1.00001H8.00001L8 1L7.99999 1.00001Z" fill="white" fill-opacity="0.66"/>
</g>
</g>
<defs>
<linearGradient id="paint0_linear_345_6247" x1="1" y1="1" x2="7.98397" y2="17.8995" gradientUnits="userSpaceOnUse">
<stop offset="0.152116" stop-color="#82A6DB"/>
<stop offset="0.503843" stop-color="#3870BA"/>
<stop offset="1" stop-color="#508CC8"/>
</linearGradient>
<linearGradient id="paint1_linear_345_6247" x1="8" y1="6" x2="8" y2="12" gradientUnits="userSpaceOnUse">
<stop stop-color="#FFB7C4"/>
<stop offset="0.5" stop-color="#FFC6CF"/>
<stop offset="0.55" stop-color="#FF9246"/>
<stop offset="1" stop-color="#FF7612"/>
</linearGradient>
<linearGradient id="paint2_linear_345_6247" x1="8" y1="6" x2="8" y2="15" gradientUnits="userSpaceOnUse">
<stop stop-color="#B7D7FC"/>
<stop offset="1" stop-color="#DCEBFE"/>
</linearGradient>
<linearGradient id="paint3_linear_345_6247" x1="15" y1="7.96429" x2="1" y2="7.96429" gradientUnits="userSpaceOnUse">
<stop stop-color="#3B74BC"/>
<stop offset="1" stop-color="#508DC8"/>
</linearGradient>
<clipPath id="clip0_345_6247">
<rect width="16" height="16" fill="white"/>
</clipPath>
<clipPath id="clip1_345_6247">
<rect width="14" height="11" fill="white" transform="translate(1 4)"/>
</clipPath>
</defs>
</svg>
