<svg width="16" height="16" viewBox="0 0 16 16" fill="none" xmlns="http://www.w3.org/2000/svg">
<g clip-path="url(#clip0_345_6038)">
<rect x="1" y="3" width="14" height="9" fill="url(#paint0_linear_345_6038)"/>
<path d="M1 12L8 5L15 12" stroke="#508DC8" stroke-opacity="0.66"/>
<path d="M3.20711 3.5H12.7929L8 8.29289L3.20711 3.5Z" fill="#DEECFD" stroke="white" stroke-linejoin="round"/>
<path d="M2 2.5C1.79777 2.5 1.61545 2.62182 1.53806 2.80866C1.46067 2.9955 1.50345 3.21055 1.64645 3.35355L7.64645 9.35355C7.84171 9.54882 8.15829 9.54882 8.35355 9.35355L14.3536 3.35355C14.4966 3.21055 14.5393 2.9955 14.4619 2.80866C14.3845 2.62182 14.2022 2.5 14 2.5H2Z" stroke="#508DC8" stroke-opacity="0.66" stroke-linejoin="round"/>
<rect x="1.5" y="3.5" width="13" height="8" stroke="white" stroke-opacity="0.8" stroke-linejoin="round"/>
<rect x="0.5" y="2.5" width="15" height="10" stroke="url(#paint1_linear_345_6038)" stroke-linejoin="round"/>
<g filter="url(#filter0_i_345_6038)">
<path d="M10 9H6V14H10V16H11L16 11.5L11 7H10V9Z" fill="#80B361"/>
</g>
<path d="M10 9.5C10.2761 9.5 10.5 9.27614 10.5 9V7.5H10.8081L15.2526 11.5L10.8081 15.5H10.5V14C10.5 13.7239 10.2761 13.5 10 13.5H6.5V9.5H10Z" stroke="url(#paint2_linear_345_6038)" stroke-linejoin="round"/>
<path d="M7.5 12.5V10.5H10C10.7149 10.5 11.2659 10.0257 11.4412 9.41686L13.7531 11.5L11.4413 13.5831C11.263 12.9643 10.6975 12.5 10.0049 12.5H7.5Z" stroke="white" stroke-opacity="0.2" stroke-linejoin="round"/>
</g>
<defs>
<filter id="filter0_i_345_6038" x="6" y="7" width="12" height="11" filterUnits="userSpaceOnUse" color-interpolation-filters="sRGB">
<feFlood flood-opacity="0" result="BackgroundImageFix"/>
<feBlend mode="normal" in="SourceGraphic" in2="BackgroundImageFix" result="shape"/>
<feColorMatrix in="SourceAlpha" type="matrix" values="0 0 0 0 0 0 0 0 0 0 0 0 0 0 0 0 0 0 127 0" result="hardAlpha"/>
<feOffset dx="2" dy="2"/>
<feGaussianBlur stdDeviation="1"/>
<feComposite in2="hardAlpha" operator="arithmetic" k2="-1" k3="1"/>
<feColorMatrix type="matrix" values="0 0 0 0 1 0 0 0 0 1 0 0 0 0 1 0 0 0 0.25 0"/>
<feBlend mode="normal" in2="shape" result="effect1_innerShadow_345_6038"/>
</filter>
<linearGradient id="paint0_linear_345_6038" x1="8" y1="3" x2="8" y2="12" gradientUnits="userSpaceOnUse">
<stop stop-color="#B7D7FC"/>
<stop offset="1" stop-color="#DCEBFE"/>
</linearGradient>
<linearGradient id="paint1_linear_345_6038" x1="1" y1="3" x2="15" y2="12" gradientUnits="userSpaceOnUse">
<stop stop-color="#92ABD7"/>
<stop offset="0.503843" stop-color="#3870BA"/>
<stop offset="1" stop-color="#508CC8"/>
</linearGradient>
<linearGradient id="paint2_linear_345_6038" x1="14.5714" y1="14.7143" x2="8.17837" y2="7.61089" gradientUnits="userSpaceOnUse">
<stop stop-color="#247C10"/>
<stop offset="1" stop-color="#6FA53D"/>
</linearGradient>
<clipPath id="clip0_345_6038">
<rect width="16" height="16" fill="white"/>
</clipPath>
</defs>
</svg>
