<svg width="16" height="16" viewBox="0 0 16 16" fill="none" xmlns="http://www.w3.org/2000/svg">
<circle cx="8" cy="8" r="6" fill="url(#paint0_linear_454_7822)"/>
<circle cx="8" cy="8" r="5.5" stroke="white" stroke-opacity="0.5"/>
<circle cx="8" cy="8" r="6.5" stroke="url(#paint1_linear_454_7822)"/>
<path d="M5.5 5.5C5.50227 4.16695 7.50023 4.16311 7.5 5.5" stroke="#A47A45" stroke-linecap="round" stroke-linejoin="round"/>
<path d="M8.5 5.5C8.50227 4.16695 10.5002 4.16311 10.5 5.5" stroke="#A47A45" stroke-linecap="round" stroke-linejoin="round"/>
<path d="M3.5 7.5C3.5 8.5 4.5 9.5 6 9.5C6.76835 9.5 7.5 9 8 8.5C8.5 9 9.23165 9.5 10 9.5C11.5 9.5 12.5 8.5 12.5 7.5" stroke="#A47A45" stroke-linecap="round" stroke-linejoin="round"/>
<defs>
<linearGradient id="paint0_linear_454_7822" x1="2" y1="2" x2="14" y2="14" gradientUnits="userSpaceOnUse">
<stop offset="0.212039" stop-color="#FCEC97"/>
<stop offset="0.790769" stop-color="#F9BE0C"/>
</linearGradient>
<linearGradient id="paint1_linear_454_7822" x1="2" y1="2" x2="14" y2="14" gradientUnits="userSpaceOnUse">
<stop offset="0.145496" stop-color="#FACD3F"/>
<stop offset="0.855296" stop-color="#D18A00"/>
</linearGradient>
</defs>
</svg>
