<svg width="16" height="16" viewBox="0 0 16 16" fill="none" xmlns="http://www.w3.org/2000/svg">
<circle cx="8" cy="8" r="6" fill="url(#paint0_linear_454_7825)"/>
<circle cx="8" cy="8" r="5.5" stroke="white" stroke-opacity="0.5"/>
<circle cx="8" cy="8" r="6.5" stroke="url(#paint1_linear_454_7825)"/>
<path d="M12 8.00001C12 10.2091 10.433 12 8.5 12C6.567 12 5 10.2091 5 8.00001L5 7H12L12 8.00001Z" fill="url(#paint2_linear_454_7825)"/>
<path d="M12 8.00001C12 10.2091 10.433 12 8.5 12C6.567 12 5 10.2091 5 8.00001L5 7H12L12 8.00001Z" fill="url(#paint3_linear_454_7825)"/>
<path d="M9.5 5.5C9.50227 4.16695 11.5002 4.16311 11.5 5.5" stroke="#A47A45" stroke-linecap="round" stroke-linejoin="round"/>
<path d="M5.5 5.5H7.5" stroke="#A47A45" stroke-linecap="round" stroke-linejoin="round"/>
<defs>
<linearGradient id="paint0_linear_454_7825" x1="2" y1="2" x2="14" y2="14" gradientUnits="userSpaceOnUse">
<stop offset="0.212039" stop-color="#FCEC97"/>
<stop offset="0.790769" stop-color="#F9BE0C"/>
</linearGradient>
<linearGradient id="paint1_linear_454_7825" x1="2" y1="2" x2="14" y2="14" gradientUnits="userSpaceOnUse">
<stop offset="0.145496" stop-color="#FACD3F"/>
<stop offset="0.855296" stop-color="#D18A00"/>
</linearGradient>
<linearGradient id="paint2_linear_454_7825" x1="8.5" y1="7" x2="8.5" y2="12" gradientUnits="userSpaceOnUse">
<stop offset="0.198261" stop-color="#D3B48D"/>
<stop offset="0.50282" stop-color="white"/>
</linearGradient>
<linearGradient id="paint3_linear_454_7825" x1="12" y1="9.5" x2="5" y2="9.5" gradientUnits="userSpaceOnUse">
<stop stop-opacity="0.03"/>
<stop offset="0.5" stop-opacity="0"/>
<stop offset="1" stop-opacity="0.03"/>
</linearGradient>
</defs>
</svg>
