<svg width="16" height="16" viewBox="0 0 16 16" fill="none" xmlns="http://www.w3.org/2000/svg">
<path d="M13.7273 13.3C13.9072 13.3 14.0732 13.2034 14.162 13.0469C14.2509 12.8905 14.2488 12.6983 14.1566 12.5438L8.42937 2.94384C8.33916 2.79263 8.17606 2.70001 7.99998 2.70001C7.8239 2.70001 7.6608 2.79263 7.57059 2.94384L1.84331 12.5438C1.75114 12.6983 1.74908 12.8905 1.83791 13.0469C1.92675 13.2034 2.09279 13.3 2.27271 13.3H13.7273Z" fill="#F5DA58" stroke="url(#paint0_linear_189_3688)" stroke-linejoin="round"/>
<path d="M7.99998 4.17592L12.8467 12.3H3.15322L7.99998 4.17592Z" stroke="white" stroke-linejoin="round" style="mix-blend-mode:color-burn"/>
<path d="M7.99998 4.17592L12.8467 12.3H3.15322L7.99998 4.17592Z" stroke="white" stroke-linejoin="round" style="mix-blend-mode:overlay"/>
<path d="M8.792 6.182L8.584 9.59H7.336L7.128 6.182H8.792ZM7.96 10.262C8.18933 10.262 8.384 10.3447 8.544 10.51C8.704 10.67 8.784 10.862 8.784 11.086C8.784 11.31 8.704 11.5047 8.544 11.67C8.384 11.83 8.18933 11.91 7.96 11.91C7.73067 11.91 7.536 11.83 7.376 11.67C7.216 11.5047 7.136 11.31 7.136 11.086C7.136 10.862 7.216 10.67 7.376 10.51C7.536 10.3447 7.73067 10.262 7.96 10.262Z" fill="#C07D2C"/>
<defs>
<linearGradient id="paint0_linear_189_3688" x1="7.99998" y1="3.20001" x2="7.99998" y2="12.8" gradientUnits="userSpaceOnUse">
<stop stop-color="#E1B129"/>
<stop offset="1" stop-color="#BF7C2B"/>
</linearGradient>
</defs>
</svg>
