<svg width="16" height="16" viewBox="0 0 16 16" fill="none" xmlns="http://www.w3.org/2000/svg">
<g clip-path="url(#clip0_135_3326)">
<g clip-path="url(#clip1_135_3326)">
<g filter="url(#filter0_i_135_3326)">
<rect width="16" height="16" rx="3" fill="#FF7134"/>
</g>
<rect x="0.5" y="0.5" width="15" height="15" rx="2.5" stroke="url(#paint0_linear_135_3326)"/>
<rect x="1.5" y="1.5" width="13" height="13" rx="1.5" stroke="white" stroke-opacity="0.33"/>
<path fill-rule="evenodd" clip-rule="evenodd" d="M12 13C11.4477 13 11.0066 12.55 10.9384 12.002C10.4878 8.38166 7.61833 5.51216 3.99801 5.06163C3.44996 4.99343 3 4.55227 3 3.99999C3 3.4477 3.44901 2.99473 3.9986 3.04922C8.72414 3.51773 12.4823 7.27585 12.9508 12.0014C13.0053 12.551 12.5523 13 12 13ZM3.99652 6.4073C3.45034 6.32543 3 6.78103 3 7.33332C3 7.8856 3.45297 8.32219 3.99273 8.43913C5.77324 8.82487 7.17512 10.2267 7.56085 12.0073C7.67779 12.547 8.11438 13 8.66667 13C9.21895 13 9.67455 12.5497 9.59269 12.0035C9.16041 9.11934 6.88064 6.83958 3.99652 6.4073ZM4.5 13C5.32843 13 6 12.3284 6 11.5C6 10.6716 5.32843 9.99999 4.5 9.99999C3.67157 9.99999 3 10.6716 3 11.5C3 12.3284 3.67157 13 4.5 13Z" fill="white"/>
</g>
<path d="M6.5 7C6.5 6.72386 6.72386 6.5 7 6.5H13C14.3807 6.5 15.5 7.61929 15.5 9V15C15.5 15.2761 15.2761 15.5 15 15.5H7C6.72386 15.5 6.5 15.2761 6.5 15V7Z" fill="url(#paint1_linear_135_3326)" stroke="url(#paint2_linear_135_3326)"/>
<path d="M7.5 7.5H13C13.8284 7.5 14.5 8.17157 14.5 9V14.5H7.5V7.5Z" stroke="white" stroke-opacity="0.33" style="mix-blend-mode:lighten"/>
<rect x="8" y="12" width="6" height="3" fill="white"/>
<path fill-rule="evenodd" clip-rule="evenodd" d="M9 7H8V8C8 8.55228 8.44772 9 9 9H11C11.5523 9 12 8.55228 12 8V7H10V8H9V7Z" fill="url(#paint3_linear_135_3326)"/>
<path fill-rule="evenodd" clip-rule="evenodd" d="M9 7H8V8C8 8.55228 8.44772 9 9 9H11C11.5523 9 12 8.55228 12 8V7H10V8H9V7Z" fill="white"/>
<rect x="9" y="13" width="4" height="1" rx="0.5" fill="url(#paint4_linear_135_3326)"/>
</g>
<defs>
<filter id="filter0_i_135_3326" x="0" y="0" width="21" height="21" filterUnits="userSpaceOnUse" color-interpolation-filters="sRGB">
<feFlood flood-opacity="0" result="BackgroundImageFix"/>
<feBlend mode="normal" in="SourceGraphic" in2="BackgroundImageFix" result="shape"/>
<feColorMatrix in="SourceAlpha" type="matrix" values="0 0 0 0 0 0 0 0 0 0 0 0 0 0 0 0 0 0 127 0" result="hardAlpha"/>
<feMorphology radius="2" operator="erode" in="SourceAlpha" result="effect1_innerShadow_135_3326"/>
<feOffset dx="5" dy="5"/>
<feGaussianBlur stdDeviation="2.5"/>
<feComposite in2="hardAlpha" operator="arithmetic" k2="-1" k3="1"/>
<feColorMatrix type="matrix" values="0 0 0 0 1 0 0 0 0 0.692135 0 0 0 0 0.230339 0 0 0 1 0"/>
<feBlend mode="normal" in2="shape" result="effect1_innerShadow_135_3326"/>
</filter>
<linearGradient id="paint0_linear_135_3326" x1="8" y1="0" x2="8" y2="16" gradientUnits="userSpaceOnUse">
<stop stop-color="#93AACE"/>
<stop offset="0.0001" stop-color="#FF8500"/>
<stop offset="1" stop-color="#FF4500"/>
</linearGradient>
<linearGradient id="paint1_linear_135_3326" x1="6" y1="6" x2="16" y2="16" gradientUnits="userSpaceOnUse">
<stop stop-color="#9EC0EF"/>
<stop offset="1" stop-color="#85A2DD"/>
</linearGradient>
<linearGradient id="paint2_linear_135_3326" x1="16" y1="16" x2="6" y2="6" gradientUnits="userSpaceOnUse">
<stop stop-color="#2E5FA6"/>
<stop offset="1" stop-color="#5B86C7"/>
</linearGradient>
<linearGradient id="paint3_linear_135_3326" x1="8" y1="7" x2="12" y2="9" gradientUnits="userSpaceOnUse">
<stop stop-color="#B8B8B8"/>
<stop offset="1" stop-color="#E3E3E3"/>
</linearGradient>
<linearGradient id="paint4_linear_135_3326" x1="9" y1="13.5" x2="13" y2="13.5" gradientUnits="userSpaceOnUse">
<stop stop-color="#94D32D"/>
<stop offset="1" stop-color="#84BF54"/>
</linearGradient>
<clipPath id="clip0_135_3326">
<rect width="16" height="16" fill="white"/>
</clipPath>
<clipPath id="clip1_135_3326">
<rect width="16" height="16" fill="white"/>
</clipPath>
</defs>
</svg>
