<svg width="16" height="16" viewBox="0 0 16 16" fill="none" xmlns="http://www.w3.org/2000/svg">
<g clip-path="url(#clip0_135_3332)">
<g clip-path="url(#clip1_135_3332)">
<g filter="url(#filter0_i_135_3332)">
<rect width="16" height="16" rx="3" fill="#FF7134"/>
</g>
<rect x="0.5" y="0.5" width="15" height="15" rx="2.5" stroke="url(#paint0_linear_135_3332)"/>
<rect x="1.5" y="1.5" width="13" height="13" rx="1.5" stroke="white" stroke-opacity="0.33"/>
<path fill-rule="evenodd" clip-rule="evenodd" d="M12 13C11.4477 13 11.0066 12.55 10.9384 12.002C10.4878 8.38166 7.61833 5.51216 3.99801 5.06163C3.44996 4.99343 3 4.55227 3 3.99999C3 3.4477 3.44901 2.99473 3.9986 3.04922C8.72414 3.51773 12.4823 7.27585 12.9508 12.0014C13.0053 12.551 12.5523 13 12 13ZM3.99652 6.4073C3.45034 6.32543 3 6.78103 3 7.33332C3 7.8856 3.45297 8.32219 3.99273 8.43913C5.77324 8.82487 7.17512 10.2267 7.56085 12.0073C7.67779 12.547 8.11438 13 8.66667 13C9.21895 13 9.67455 12.5497 9.59269 12.0035C9.16041 9.11934 6.88064 6.83958 3.99652 6.4073ZM4.5 13C5.32843 13 6 12.3284 6 11.5C6 10.6716 5.32843 9.99999 4.5 9.99999C3.67157 9.99999 3 10.6716 3 11.5C3 12.3284 3.67157 13 4.5 13Z" fill="white"/>
</g>
<g filter="url(#filter1_i_135_3332)">
<path d="M10 9H6V14H10V16H11L16 11.5L11 7H10V9Z" fill="#80B361"/>
</g>
<path d="M10 9.5C10.2761 9.5 10.5 9.27614 10.5 9V7.5H10.8081L15.2526 11.5L10.8081 15.5H10.5V14C10.5 13.7239 10.2761 13.5 10 13.5H6.5V9.5H10Z" stroke="url(#paint1_linear_135_3332)" stroke-linejoin="round"/>
<path d="M7.5 12.5V10.5H10C10.7149 10.5 11.2659 10.0257 11.4412 9.41686L13.7531 11.5L11.4413 13.5831C11.263 12.9643 10.6975 12.5 10.0049 12.5H7.5Z" stroke="white" stroke-opacity="0.2" stroke-linejoin="round"/>
</g>
<defs>
<filter id="filter0_i_135_3332" x="0" y="0" width="21" height="21" filterUnits="userSpaceOnUse" color-interpolation-filters="sRGB">
<feFlood flood-opacity="0" result="BackgroundImageFix"/>
<feBlend mode="normal" in="SourceGraphic" in2="BackgroundImageFix" result="shape"/>
<feColorMatrix in="SourceAlpha" type="matrix" values="0 0 0 0 0 0 0 0 0 0 0 0 0 0 0 0 0 0 127 0" result="hardAlpha"/>
<feMorphology radius="2" operator="erode" in="SourceAlpha" result="effect1_innerShadow_135_3332"/>
<feOffset dx="5" dy="5"/>
<feGaussianBlur stdDeviation="2.5"/>
<feComposite in2="hardAlpha" operator="arithmetic" k2="-1" k3="1"/>
<feColorMatrix type="matrix" values="0 0 0 0 1 0 0 0 0 0.692135 0 0 0 0 0.230339 0 0 0 1 0"/>
<feBlend mode="normal" in2="shape" result="effect1_innerShadow_135_3332"/>
</filter>
<filter id="filter1_i_135_3332" x="6" y="7" width="12" height="11" filterUnits="userSpaceOnUse" color-interpolation-filters="sRGB">
<feFlood flood-opacity="0" result="BackgroundImageFix"/>
<feBlend mode="normal" in="SourceGraphic" in2="BackgroundImageFix" result="shape"/>
<feColorMatrix in="SourceAlpha" type="matrix" values="0 0 0 0 0 0 0 0 0 0 0 0 0 0 0 0 0 0 127 0" result="hardAlpha"/>
<feOffset dx="2" dy="2"/>
<feGaussianBlur stdDeviation="1"/>
<feComposite in2="hardAlpha" operator="arithmetic" k2="-1" k3="1"/>
<feColorMatrix type="matrix" values="0 0 0 0 1 0 0 0 0 1 0 0 0 0 1 0 0 0 0.25 0"/>
<feBlend mode="normal" in2="shape" result="effect1_innerShadow_135_3332"/>
</filter>
<linearGradient id="paint0_linear_135_3332" x1="8" y1="0" x2="8" y2="16" gradientUnits="userSpaceOnUse">
<stop stop-color="#93AACE"/>
<stop offset="0.0001" stop-color="#FF8500"/>
<stop offset="1" stop-color="#FF4500"/>
</linearGradient>
<linearGradient id="paint1_linear_135_3332" x1="14.5714" y1="14.7143" x2="8.17837" y2="7.61089" gradientUnits="userSpaceOnUse">
<stop stop-color="#247C10"/>
<stop offset="1" stop-color="#6FA53D"/>
</linearGradient>
<clipPath id="clip0_135_3332">
<rect width="16" height="16" fill="white"/>
</clipPath>
<clipPath id="clip1_135_3332">
<rect width="16" height="16" fill="white"/>
</clipPath>
</defs>
</svg>
