<svg width="16" height="16" viewBox="0 0 16 16" fill="none" xmlns="http://www.w3.org/2000/svg">
<g clip-path="url(#clip0_270_5804)">
<mask id="path-1-outside-1_270_5804" maskUnits="userSpaceOnUse" x="1" y="2" width="6" height="12" fill="black">
<rect fill="white" x="1" y="2" width="6" height="12"/>
<path fill-rule="evenodd" clip-rule="evenodd" d="M5 3H6V4H5V3ZM3 7C3 5.89543 3.89543 5 5 5H6V8H3V7ZM2 9H6V13H2V9Z"/>
</mask>
<path fill-rule="evenodd" clip-rule="evenodd" d="M5 3H6V4H5V3ZM3 7C3 5.89543 3.89543 5 5 5H6V8H3V7ZM2 9H6V13H2V9Z" fill="url(#paint0_linear_270_5804)"/>
<path fill-rule="evenodd" clip-rule="evenodd" d="M5 3H6V4H5V3ZM3 7C3 5.89543 3.89543 5 5 5H6V8H3V7ZM2 9H6V13H2V9Z" fill="white" fill-opacity="0.1"/>
<path d="M6 3H7V2H6V3ZM5 3V2H4V3H5ZM6 4V5H7V4H6ZM5 4H4V5H5V4ZM6 5H7V4H6V5ZM6 8V9H7V8H6ZM3 8H2V9H3V8ZM6 9H7V8H6V9ZM2 9V8H1V9H2ZM6 13V14H7V13H6ZM2 13H1V14H2V13ZM6 2H5V4H6V2ZM7 4V3H5V4H7ZM5 5H6V3H5V5ZM4 3V4H6V3H4ZM5 4C3.34315 4 2 5.34315 2 7H4C4 6.44772 4.44772 6 5 6V4ZM6 4H5V6H6V4ZM7 8V5H5V8H7ZM3 9H6V7H3V9ZM2 7V8H4V7H2ZM6 8H2V10H6V8ZM7 13V9H5V13H7ZM2 14H6V12H2V14ZM1 9V13H3V9H1Z" fill="url(#paint1_linear_270_5804)" mask="url(#path-1-outside-1_270_5804)"/>
<mask id="path-3-outside-2_270_5804" maskUnits="userSpaceOnUse" x="8" y="2" width="6" height="12" fill="black">
<rect fill="white" x="8" y="2" width="6" height="12"/>
<path fill-rule="evenodd" clip-rule="evenodd" d="M9 3H10V4H9V3ZM9 9H13V13H9V9ZM10 5C11.1046 5 12 5.89543 12 7V8H9V5H10Z"/>
</mask>
<path fill-rule="evenodd" clip-rule="evenodd" d="M9 3H10V4H9V3ZM9 9H13V13H9V9ZM10 5C11.1046 5 12 5.89543 12 7V8H9V5H10Z" fill="url(#paint2_linear_270_5804)"/>
<path fill-rule="evenodd" clip-rule="evenodd" d="M9 3H10V4H9V3ZM9 9H13V13H9V9ZM10 5C11.1046 5 12 5.89543 12 7V8H9V5H10Z" fill="black" fill-opacity="0.1"/>
<path d="M10 3H11V2H10V3ZM9 3V2H8V3H9ZM10 4V5H11V4H10ZM9 4H8V5H9V4ZM13 9H14V8H13V9ZM9 9V8H8V9H9ZM13 13V14H14V13H13ZM9 13H8V14H9V13ZM12 8V9H13V8H12ZM9 8H8V9H9V8ZM9 5V4H8V5H9ZM10 2H9V4H10V2ZM11 4V3H9V4H11ZM9 5H10V3H9V5ZM8 3V4H10V3H8ZM13 8H9V10H13V8ZM14 13V9H12V13H14ZM9 14H13V12H9V14ZM8 9V13H10V9H8ZM13 7C13 5.34315 11.6569 4 10 4V6C10.5523 6 11 6.44772 11 7H13ZM13 8V7H11V8H13ZM9 9H12V7H9V9ZM8 5V8H10V5H8ZM10 4H9V6H10V4Z" fill="url(#paint3_linear_270_5804)" mask="url(#path-3-outside-2_270_5804)"/>
<path d="M3 6.5C3 6.22386 3.22386 6 3.5 6H4V13H3V6.5Z" fill="url(#paint4_linear_270_5804)"/>
<rect x="10" y="6" width="1" height="7" fill="url(#paint5_linear_270_5804)"/>
<rect x="9" y="9" width="4" height="1" fill="#BAC3CC" fill-opacity="0.5"/>
<rect x="2" y="9" width="4" height="1" fill="#BAC3CC" fill-opacity="0.5"/>
<rect x="4.5" y="5.5" width="6" height="2" rx="1" fill="#90A6B8" stroke="url(#paint6_radial_270_5804)"/>
</g>
<defs>
<linearGradient id="paint0_linear_270_5804" x1="2" y1="3" x2="6" y2="13" gradientUnits="userSpaceOnUse">
<stop stop-color="#AEB8C3"/>
<stop offset="1" stop-color="#656F78"/>
</linearGradient>
<linearGradient id="paint1_linear_270_5804" x1="6" y1="13" x2="2" y2="3" gradientUnits="userSpaceOnUse">
<stop stop-color="#010101"/>
<stop offset="1" stop-color="#87919B"/>
</linearGradient>
<linearGradient id="paint2_linear_270_5804" x1="9" y1="3" x2="13" y2="13" gradientUnits="userSpaceOnUse">
<stop stop-color="#AEB8C3"/>
<stop offset="1" stop-color="#656F78"/>
</linearGradient>
<linearGradient id="paint3_linear_270_5804" x1="13" y1="13" x2="9" y2="3" gradientUnits="userSpaceOnUse">
<stop stop-color="#010101"/>
<stop offset="1" stop-color="#87919B"/>
</linearGradient>
<linearGradient id="paint4_linear_270_5804" x1="3.5" y1="6" x2="3.5" y2="13" gradientUnits="userSpaceOnUse">
<stop stop-color="#BAC3CC" stop-opacity="0.33"/>
<stop offset="0.5" stop-color="#CFD8E2" stop-opacity="0.66"/>
<stop offset="1" stop-color="#BAC3CC" stop-opacity="0.5"/>
</linearGradient>
<linearGradient id="paint5_linear_270_5804" x1="10.5" y1="6" x2="10.5" y2="13" gradientUnits="userSpaceOnUse">
<stop stop-color="#BAC3CC" stop-opacity="0.33"/>
<stop offset="0.5" stop-color="#CFD8E2" stop-opacity="0.66"/>
<stop offset="1" stop-color="#BAC3CC" stop-opacity="0.5"/>
</linearGradient>
<radialGradient id="paint6_radial_270_5804" cx="0" cy="0" r="1" gradientUnits="userSpaceOnUse" gradientTransform="translate(7.5 6.5) rotate(180) scale(2.5 12.5)">
<stop stop-color="#7B91AA"/>
<stop offset="1" stop-color="#586C82"/>
</radialGradient>
<clipPath id="clip0_270_5804">
<rect width="16" height="16" fill="white"/>
</clipPath>
</defs>
</svg>
