<svg width="16" height="16" viewBox="0 0 16 16" fill="none" xmlns="http://www.w3.org/2000/svg">
<g clip-path="url(#clip0_199_4070)">
<path d="M6.14286 5.5H1.85714C1.10761 5.5 0.5 6.10761 0.5 6.85714V14C0.5 14.8284 1.17157 15.5 2 15.5H12C12.8284 15.5 13.5 14.8284 13.5 14V8C13.5 7.17157 12.8284 6.5 12 6.5H7.45252C7.29574 5.92374 6.76878 5.5 6.14286 5.5Z" fill="url(#paint0_linear_199_4070)" stroke="url(#paint1_linear_199_4070)"/>
<path d="M1.85714 6.5H6.14286C6.3401 6.5 6.5 6.6599 6.5 6.85714C6.5 7.21218 6.78782 7.5 7.14286 7.5H12C12.2761 7.5 12.5 7.72386 12.5 8V14C12.5 14.2761 12.2761 14.5 12 14.5H2C1.72386 14.5 1.5 14.2761 1.5 14V6.85714C1.5 6.6599 1.6599 6.5 1.85714 6.5Z" stroke="white" stroke-opacity="0.5" stroke-linejoin="round" style="mix-blend-mode:soft-light"/>
<path d="M1.85714 6.5H6.14286C6.3401 6.5 6.5 6.6599 6.5 6.85714C6.5 7.21218 6.78782 7.5 7.14286 7.5H12C12.2761 7.5 12.5 7.72386 12.5 8V14C12.5 14.2761 12.2761 14.5 12 14.5H2C1.72386 14.5 1.5 14.2761 1.5 14V6.85714C1.5 6.6599 1.6599 6.5 1.85714 6.5Z" stroke="white" stroke-opacity="0.5" stroke-linejoin="round" style="mix-blend-mode:hard-light"/>
<mask id="path-3-outside-1_199_4070" maskUnits="userSpaceOnUse" x="7.49997" y="0.011322" width="9" height="9" fill="black">
<rect fill="white" x="7.49997" y="0.011322" width="9" height="9"/>
<path fill-rule="evenodd" clip-rule="evenodd" d="M10.1495 1.67469C10.7731 1.05105 11.8137 0.848972 12.7844 1.14605L11.6146 1.82146C11.1363 2.0976 10.9724 2.70919 11.2485 3.18748L12.3126 5.03051C12.5887 5.50881 13.2003 5.67268 13.6786 5.39654L14.9961 4.6359C14.9239 5.13578 14.7208 5.58869 14.3921 5.91733C13.8086 6.50083 12.9146 6.63403 12.0399 6.35621C11.0799 6.47918 9.99997 7.50001 9.99997 7.50001L8.49997 6.00001C8.49997 6.00001 9.58063 4.97845 9.71008 4.02521C9.43297 3.15102 9.56637 2.25781 10.1495 1.67469Z"/>
</mask>
<path fill-rule="evenodd" clip-rule="evenodd" d="M10.1495 1.67469C10.7731 1.05105 11.8137 0.848972 12.7844 1.14605L11.6146 1.82146C11.1363 2.0976 10.9724 2.70919 11.2485 3.18748L12.3126 5.03051C12.5887 5.50881 13.2003 5.67268 13.6786 5.39654L14.9961 4.6359C14.9239 5.13578 14.7208 5.58869 14.3921 5.91733C13.8086 6.50083 12.9146 6.63403 12.0399 6.35621C11.0799 6.47918 9.99997 7.50001 9.99997 7.50001L8.49997 6.00001C8.49997 6.00001 9.58063 4.97845 9.71008 4.02521C9.43297 3.15102 9.56637 2.25781 10.1495 1.67469Z" fill="#D9D9D9"/>
<path d="M12.7844 1.14605L13.2844 2.01207C13.6291 1.81304 13.823 1.4285 13.778 1.03299C13.733 0.637472 13.4577 0.306317 13.077 0.189826L12.7844 1.14605ZM10.1495 1.67469L10.8566 2.38179V2.38179L10.1495 1.67469ZM11.6146 1.82146L11.1146 0.95543V0.95543L11.6146 1.82146ZM11.2485 3.18748L10.3825 3.68748L11.2485 3.18748ZM12.3126 5.03051L11.4466 5.53051L11.4466 5.53051L12.3126 5.03051ZM13.6786 5.39654L14.1786 6.26256L13.6786 5.39654ZM14.9961 4.6359L15.9858 4.7789C16.0406 4.39981 15.874 4.02274 15.5569 3.80794C15.2398 3.59314 14.8278 3.57836 14.4961 3.76987L14.9961 4.6359ZM12.0399 6.35621L12.3426 5.40312C12.2039 5.35906 12.0572 5.34582 11.9129 5.36431L12.0399 6.35621ZM9.99997 7.50001L9.29286 8.20712C9.67565 8.58991 10.2935 8.59859 10.6869 8.22671L9.99997 7.50001ZM8.49997 6.00001L7.81301 5.27332C7.61674 5.45886 7.50386 5.7159 7.50007 5.98596C7.49627 6.25602 7.60188 6.51614 7.79286 6.70712L8.49997 6.00001ZM9.71008 4.02521L10.701 4.15978C10.7209 4.01321 10.708 3.86405 10.6633 3.72305L9.71008 4.02521ZM13.077 0.189826C11.8268 -0.192796 10.3782 0.0317783 9.44239 0.967579L10.8566 2.38179C11.1681 2.07031 11.8006 1.89074 12.4917 2.10227L13.077 0.189826ZM12.1146 2.68748L13.2844 2.01207L12.2844 0.280022L11.1146 0.95543L12.1146 2.68748ZM12.1146 2.68748V2.68748L11.1146 0.95543C10.158 1.50771 9.83022 2.7309 10.3825 3.68748L12.1146 2.68748ZM13.1786 4.53051L12.1146 2.68748L10.3825 3.68748L11.4466 5.53051L13.1786 4.53051ZM13.1786 4.53051H13.1786L11.4466 5.53051C11.9989 6.4871 13.222 6.81485 14.1786 6.26256L13.1786 4.53051ZM14.4961 3.76987L13.1786 4.53051L14.1786 6.26256L15.4961 5.50192L14.4961 3.76987ZM15.0992 6.62443C15.608 6.11571 15.8888 5.45043 15.9858 4.7789L14.0064 4.4929C13.9589 4.82113 13.8336 5.06167 13.685 5.21022L15.0992 6.62443ZM11.7372 7.30929C12.8671 7.66815 14.1842 7.53951 15.0992 6.62443L13.685 5.21022C13.4331 5.46216 12.9622 5.5999 12.3426 5.40312L11.7372 7.30929ZM11.9129 5.36431C11.1834 5.45774 10.5081 5.86244 10.0899 6.15262C9.86387 6.30942 9.67419 6.46061 9.54058 6.57283C9.47336 6.62928 9.41927 6.67676 9.38071 6.71133C9.36141 6.72863 9.34593 6.74277 9.33456 6.75325C9.32888 6.75849 9.32421 6.76282 9.32061 6.76618C9.31881 6.76786 9.31727 6.7693 9.316 6.7705C9.31537 6.77109 9.3148 6.77163 9.31431 6.7721C9.31406 6.77233 9.31382 6.77255 9.31361 6.77275C9.3135 6.77285 9.31335 6.773 9.3133 6.77305C9.31315 6.77318 9.31301 6.77332 9.99997 7.50001C10.6869 8.22671 10.6868 8.22684 10.6867 8.22696C10.6866 8.22699 10.6865 8.22711 10.6864 8.22718C10.6863 8.22732 10.6861 8.22745 10.686 8.22756C10.6858 8.22778 10.6856 8.22795 10.6855 8.22805C10.6853 8.22826 10.6853 8.22823 10.6856 8.22798C10.6861 8.22747 10.6876 8.22606 10.6901 8.22379C10.695 8.21926 10.7037 8.21134 10.7158 8.20049C10.74 8.17875 10.7778 8.14552 10.8268 8.10435C10.9257 8.02131 11.066 7.90961 11.23 7.79583C11.5917 7.54485 11.9363 7.37765 12.167 7.3481L11.9129 5.36431ZM10.7071 6.79291L9.20708 5.29291L7.79286 6.70712L9.29286 8.20712L10.7071 6.79291ZM8.49997 6.00001C9.18693 6.72671 9.18708 6.72657 9.18723 6.72643C9.18729 6.72637 9.18744 6.72622 9.18756 6.72612C9.18778 6.7259 9.18802 6.72567 9.18828 6.72543C9.1888 6.72493 9.18939 6.72438 9.19004 6.72376C9.19135 6.72252 9.19291 6.72102 9.19474 6.71927C9.19839 6.71578 9.20307 6.71127 9.20871 6.7058C9.21999 6.69485 9.23515 6.67997 9.25368 6.66144C9.29069 6.62444 9.34145 6.57256 9.40175 6.50798C9.52154 6.37969 9.68314 6.19687 9.85091 5.97743C10.1594 5.57399 10.5996 4.90642 10.701 4.15978L8.71918 3.89064C8.69112 4.09724 8.5263 4.41708 8.26205 4.76272C8.14347 4.91782 8.02682 5.04998 7.93994 5.14302C7.89691 5.18911 7.86223 5.22448 7.83963 5.24707C7.82836 5.25834 7.82018 5.26634 7.81557 5.27082C7.81326 5.27306 7.81186 5.27441 7.81141 5.27484C7.81118 5.27505 7.8112 5.27503 7.81147 5.27478C7.8116 5.27466 7.81179 5.27447 7.81205 5.27423C7.81218 5.27411 7.81232 5.27397 7.81248 5.27382C7.81256 5.27374 7.81269 5.27362 7.81273 5.27358C7.81287 5.27345 7.81301 5.27332 8.49997 6.00001ZM9.44239 0.967579C8.52793 1.88205 8.39884 3.19803 8.75683 4.32738L10.6633 3.72305C10.4671 3.10401 10.6048 2.63358 10.8566 2.38179L9.44239 0.967579Z" fill="#929292" mask="url(#path-3-outside-1_199_4070)"/>
<path d="M4.5 9.5C4.5 9.36739 4.55268 9.24021 4.64645 9.14645L8.14645 5.64645C8.34171 5.45118 8.65829 5.45118 8.85355 5.64645L10.3536 7.14645C10.5488 7.34171 10.5488 7.65829 10.3536 7.85355L6.85355 11.3536C6.75979 11.4473 6.63261 11.5 6.5 11.5H5C4.72386 11.5 4.5 11.2761 4.5 11V9.5Z" fill="#B2C8EC" stroke="url(#paint2_linear_199_4070)" stroke-linejoin="round"/>
<path d="M13.5 14V10C13.5 9.17157 12.8284 8.5 12 8.5H6.70711C6.12175 8.5 5.56036 8.73253 5.14645 9.14645C4.92007 9.37282 4.61304 9.5 4.29289 9.5H2C1.17157 9.5 0.5 10.1716 0.5 11V14C0.5 14.8284 1.17157 15.5 2 15.5H12C12.8284 15.5 13.5 14.8284 13.5 14Z" fill="url(#paint3_linear_199_4070)" stroke="url(#paint4_linear_199_4070)"/>
<path d="M12.5 10V14C12.5 14.2761 12.2761 14.5 12 14.5H2C1.72386 14.5 1.5 14.2761 1.5 14V11C1.5 10.7239 1.72386 10.5 2 10.5H4.29289C4.87825 10.5 5.43964 10.2675 5.85355 9.85355C6.07993 9.62718 6.38696 9.5 6.70711 9.5H12C12.2761 9.5 12.5 9.72386 12.5 10Z" stroke="white" stroke-opacity="0.5" style="mix-blend-mode:hard-light"/>
<path d="M12.5 10V14C12.5 14.2761 12.2761 14.5 12 14.5H2C1.72386 14.5 1.5 14.2761 1.5 14V11C1.5 10.7239 1.72386 10.5 2 10.5H4.29289C4.87825 10.5 5.43964 10.2675 5.85355 9.85355C6.07993 9.62718 6.38696 9.5 6.70711 9.5H12C12.2761 9.5 12.5 9.72386 12.5 10Z" stroke="white" stroke-opacity="0.5" style="mix-blend-mode:soft-light"/>
</g>
<defs>
<linearGradient id="paint0_linear_199_4070" x1="1" y1="6" x2="13" y2="15" gradientUnits="userSpaceOnUse">
<stop stop-color="#F8E48E"/>
<stop offset="1" stop-color="#F1CD2E"/>
</linearGradient>
<linearGradient id="paint1_linear_199_4070" x1="7" y1="6" x2="7" y2="15" gradientUnits="userSpaceOnUse">
<stop stop-color="#E0C259"/>
<stop offset="1" stop-color="#D98C34"/>
</linearGradient>
<linearGradient id="paint2_linear_199_4070" x1="6" y1="8" x2="8" y2="10" gradientUnits="userSpaceOnUse">
<stop stop-color="#90ADDE"/>
<stop offset="1" stop-color="#5283D3"/>
</linearGradient>
<linearGradient id="paint3_linear_199_4070" x1="6" y1="9" x2="8" y2="15" gradientUnits="userSpaceOnUse">
<stop stop-color="white" stop-opacity="0.66"/>
<stop offset="1" stop-color="#F1CD2E"/>
</linearGradient>
<linearGradient id="paint4_linear_199_4070" x1="7" y1="9" x2="7" y2="15" gradientUnits="userSpaceOnUse">
<stop stop-color="#DEB04D"/>
<stop offset="1" stop-color="#D98B34"/>
</linearGradient>
<clipPath id="clip0_199_4070">
<rect width="16" height="16" fill="white"/>
</clipPath>
</defs>
</svg>
