<svg width="16" height="16" viewBox="0 0 16 16" fill="none" xmlns="http://www.w3.org/2000/svg">
<g clip-path="url(#clip0_170_3007)">
<path d="M6.14286 5.5H1.85714C1.10761 5.5 0.5 6.10761 0.5 6.85714V14C0.5 14.8284 1.17157 15.5 2 15.5H12C12.8284 15.5 13.5 14.8284 13.5 14V8C13.5 7.17157 12.8284 6.5 12 6.5H7.45252C7.29574 5.92374 6.76878 5.5 6.14286 5.5Z" fill="url(#paint0_linear_170_3007)" stroke="url(#paint1_linear_170_3007)"/>
<path d="M1.85714 6.5H6.14286C6.3401 6.5 6.5 6.6599 6.5 6.85714C6.5 7.21218 6.78782 7.5 7.14286 7.5H12C12.2761 7.5 12.5 7.72386 12.5 8V14C12.5 14.2761 12.2761 14.5 12 14.5H2C1.72386 14.5 1.5 14.2761 1.5 14V6.85714C1.5 6.6599 1.6599 6.5 1.85714 6.5Z" stroke="white" stroke-opacity="0.5" stroke-linejoin="round" style="mix-blend-mode:soft-light"/>
<path d="M1.85714 6.5H6.14286C6.3401 6.5 6.5 6.6599 6.5 6.85714C6.5 7.21218 6.78782 7.5 7.14286 7.5H12C12.2761 7.5 12.5 7.72386 12.5 8V14C12.5 14.2761 12.2761 14.5 12 14.5H2C1.72386 14.5 1.5 14.2761 1.5 14V6.85714C1.5 6.6599 1.6599 6.5 1.85714 6.5Z" stroke="white" stroke-opacity="0.5" stroke-linejoin="round" style="mix-blend-mode:hard-light"/>
<path fill-rule="evenodd" clip-rule="evenodd" d="M9.65814 0.0257945C9.92011 0.113119 10.0617 0.39628 9.97437 0.658251C9.82099 1.11837 9.82033 1.4842 9.85999 1.82988C9.87506 1.96123 9.89472 2.0817 9.91595 2.21185L9.91596 2.21189L9.91596 2.21192L9.91597 2.212L9.916 2.21217C9.92472 2.26561 9.93371 2.32069 9.94275 2.37883C9.97222 2.56831 9.99996 2.77815 9.99995 3.00014C9.99995 3.27628 9.77609 3.50014 9.49995 3.50014C9.22381 3.50013 8.99995 3.27627 8.99995 3.00013C8.99996 2.85749 8.98212 2.70925 8.95463 2.53253C8.94792 2.4894 8.9404 2.44329 8.93252 2.39496L8.93247 2.39467L8.93247 2.39464C8.90995 2.25665 8.88449 2.10056 8.86651 1.94387C8.81505 1.49534 8.81442 0.975809 9.02569 0.34202C9.11301 0.0800489 9.39617 -0.0615302 9.65814 0.0257945ZM15.9743 6.34201C16.0616 6.60398 15.92 6.88714 15.6581 6.97447C15.0243 7.18573 14.5047 7.18508 14.0562 7.1336C13.8996 7.11562 13.7435 7.09016 13.6056 7.06766L13.6056 7.06765L13.6055 7.06764L13.6054 7.06763C13.557 7.05972 13.5108 7.05218 13.4675 7.04546C13.2908 7.01796 13.1426 7.00012 13 7.00012C12.7238 7.00012 12.5 6.77627 12.5 6.50012C12.5 6.22398 12.7238 6.00012 13 6.00012C13.222 6.00012 13.4318 6.02787 13.6213 6.05735C13.6795 6.06641 13.7347 6.07541 13.7883 6.08415L13.7883 6.08416C13.9184 6.10539 14.0389 6.12505 14.1702 6.14013C14.5159 6.1798 14.8817 6.17915 15.3418 6.02578C15.6038 5.93846 15.887 6.08004 15.9743 6.34201ZM12.9473 7.77653C12.8238 7.52954 12.5234 7.42942 12.2764 7.55292C12.0295 7.67641 11.9293 7.97675 12.0528 8.22374C12.4731 9.0643 13.0618 9.51438 13.5604 9.74938C13.8066 9.86541 14.0272 9.92746 14.19 9.96074C14.2716 9.97741 14.3393 9.98699 14.3893 9.9925C14.4144 9.99526 14.435 9.997 14.4509 9.99811L14.4711 9.99933L14.4784 9.99967L14.4813 9.99978L14.4826 9.99983L14.4832 9.99985C14.4835 9.99986 14.4838 9.99987 14.5001 9.50013L14.4838 9.99987C14.7597 10.0089 14.9908 9.79243 14.9998 9.51644C15.0087 9.24209 14.7949 9.01218 14.5213 9.00058L14.5203 9.00052C14.5172 9.0003 14.5099 8.99973 14.4987 8.99851C14.4764 8.99605 14.4392 8.991 14.3902 8.98099C14.292 8.96092 14.1493 8.92145 13.9867 8.8448C13.6676 8.69443 13.2563 8.39451 12.9473 7.77653ZM8.44726 3.72373C8.57076 3.47675 8.47065 3.17641 8.22366 3.05291C7.60567 2.74392 7.30575 2.33255 7.15538 2.01349C7.07874 1.85086 7.03927 1.70819 7.01919 1.60996C7.00919 1.56101 7.00413 1.52375 7.00168 1.50144C7.00045 1.4903 6.99988 1.48298 6.99967 1.47988L6.9996 1.47887L6.9996 1.47887C6.98801 1.20524 6.75809 0.991444 6.48375 1.00039C6.20775 1.0094 5.99131 1.24043 6.00032 1.51643L6.50005 1.50013C6.00032 1.51643 6.00033 1.51671 6.00034 1.517L6.00036 1.51759L6.0004 1.51888L6.00052 1.5218L6.00085 1.5291L6.00208 1.54927C6.00318 1.56514 6.00493 1.58583 6.00768 1.61087C6.01319 1.6609 6.02277 1.72861 6.03944 1.81019C6.07272 1.97301 6.13477 2.1936 6.25081 2.43981C6.4858 2.93843 6.93588 3.52706 7.77644 3.94734C8.02343 4.07084 8.32377 3.97072 8.44726 3.72373ZM11.1465 9.3537C10.9512 9.15844 10.9512 8.84186 11.1465 8.6466C11.3417 8.45133 11.6583 8.45133 11.8536 8.64659C12.4624 9.25538 12.5899 10.6173 11.3535 11.8537C11.1583 12.049 10.8417 12.049 10.6464 11.8537C10.4512 11.6584 10.4512 11.3418 10.6464 11.1466C11.5978 10.1952 11.2669 9.47419 11.1465 9.3537ZM7.35355 4.85368C7.15829 5.04894 6.84171 5.04894 6.64645 4.85368C6.52595 4.73318 5.80496 4.40227 4.85355 5.35368C4.65829 5.54894 4.34171 5.54894 4.14645 5.35368C3.95118 5.15841 3.95118 4.84183 4.14645 4.64657C5.38286 3.41015 6.74478 3.53779 7.35355 4.14657C7.54882 4.34183 7.54882 4.65841 7.35355 4.85368ZM13.0001 0.500136C13.0001 0.223993 12.7762 0.000134042 12.5001 0.000134042C12.2239 0.000134042 12.0001 0.223993 12.0001 0.500136V3.50014V4.00014H12.5001H15.5001C15.7762 4.00014 16.0001 3.77628 16.0001 3.50014C16.0001 3.22399 15.7762 3.00014 15.5001 3.00014H13.0001V0.500136Z" fill="url(#paint2_linear_170_3007)"/>
<g filter="url(#filter0_i_170_3007)">
<ellipse cx="12.6691" cy="3.25264" rx="1.46963" ry="0.890761" transform="rotate(45 12.6691 3.25264)" fill="#54A24C"/>
</g>
<path d="M11.6857 4.23605C12.0263 4.57671 12.4347 4.8192 12.8394 4.91844C13.2337 5.01513 13.7167 4.99051 14.0618 4.64537C14.407 4.30024 14.4316 3.81723 14.3349 3.42298C14.2356 3.01829 13.9932 2.60988 13.6525 2.26922C13.3118 1.92856 12.9034 1.68608 12.4987 1.58683C12.1045 1.49014 11.6215 1.51476 11.2763 1.8599C10.9312 2.20503 10.9066 2.68804 11.0033 3.08229C11.1025 3.48698 11.345 3.89539 11.6857 4.23605Z" stroke="url(#paint3_linear_170_3007)"/>
<path d="M10.9405 3.08285C10.9405 3.08285 10.3424 2.89643 9.62703 3.08286C8.91162 3.26928 7 5.70703 7 5.70703C7 5.70703 7 7.02421 7.98514 8.01211C8.97028 9 10.2838 9 10.2838 9C10.2838 9 12.7102 7.10627 12.9108 6.36562C13.1115 5.62497 12.9108 5.04843 12.9108 5.04843L11.5973 4.38984L10.9405 3.08285Z" fill="url(#paint4_linear_170_3007)"/>
<path d="M11.1505 4.61434L11.225 4.76249L11.3732 4.8368L12.4769 5.39018C12.4812 5.41806 12.4853 5.44875 12.4888 5.48197C12.5089 5.67146 12.509 5.93673 12.4282 6.23488C12.4284 6.23418 12.4274 6.23812 12.4237 6.24709C12.42 6.25596 12.4144 6.26817 12.4061 6.28388C12.3892 6.31581 12.3645 6.3563 12.3302 6.40544C12.2612 6.50442 12.1651 6.62183 12.0455 6.75365C11.8064 7.017 11.4987 7.31013 11.1884 7.58818C10.8797 7.86481 10.576 8.11973 10.349 8.30591C10.2608 8.37822 10.1845 8.43993 10.1242 8.48827C10.1223 8.48806 10.1204 8.48785 10.1185 8.48764C10.0011 8.47456 9.83226 8.44796 9.63579 8.39423C9.2406 8.28614 8.7527 8.07372 8.33918 7.65905C7.92558 7.24428 7.71353 6.7547 7.60562 6.35789C7.55198 6.16066 7.52542 5.99113 7.51235 5.87321C7.51213 5.87122 7.51191 5.86924 7.5117 5.86728C7.56053 5.80662 7.62292 5.72971 7.69601 5.64086C7.88356 5.41286 8.14006 5.10808 8.41751 4.79864C8.69639 4.4876 8.98958 4.17957 9.25135 3.94125C9.38242 3.82192 9.49847 3.72665 9.59544 3.65878C9.64359 3.62508 9.68265 3.60124 9.71278 3.58536C9.7407 3.57064 9.75376 3.56659 9.75375 3.56654C9.75374 3.56653 9.75353 3.56659 9.75311 3.5667C10.0397 3.49202 10.3065 3.49137 10.5035 3.51059C10.539 3.51405 10.5719 3.51812 10.6019 3.52244L11.1505 4.61434ZM10.286 8.50001L10.2858 8.50001L10.286 8.50001Z" stroke="white" stroke-opacity="0.5" style="mix-blend-mode:soft-light"/>
<path d="M12 4L8 8" stroke="url(#paint5_linear_170_3007)" stroke-linecap="square"/>
<path d="M10.2838 9C10.5914 9.39416 10.5915 9.39413 10.5915 9.39409L10.5916 9.39398L10.5921 9.39363L10.5936 9.39242L10.5993 9.38796L10.6207 9.37118C10.6392 9.35659 10.6661 9.33531 10.7002 9.30808C10.7685 9.25364 10.8658 9.17534 10.9831 9.07916C11.2173 8.88712 11.5328 8.62231 11.8557 8.33293C12.1771 8.04496 12.5136 7.72579 12.7859 7.42576C12.922 7.27588 13.0484 7.12384 13.1504 6.97749C13.2474 6.83853 13.3459 6.67191 13.3934 6.49637C13.5133 6.05387 13.5134 5.66054 13.4833 5.3766C13.4682 5.23426 13.4454 5.11774 13.4254 5.03392C13.4153 4.99194 13.4059 4.95793 13.3985 4.93274C13.3948 4.92013 13.3915 4.90971 13.3889 4.90157L13.3854 4.89109L13.3841 4.88715L13.3835 4.88551L13.3833 4.88477L13.3832 4.88442C13.3831 4.88425 13.383 4.88409 12.9108 5.04843L13.383 4.88409L13.3163 4.69243L13.1349 4.60147L11.9696 4.01719L11.3873 2.85836L11.292 2.66867L11.0893 2.6055L10.9405 3.08285C11.0893 2.6055 11.0892 2.60546 11.089 2.60541L11.0887 2.60531L11.0881 2.60511L11.0865 2.60464L11.0829 2.60353L11.0728 2.60056C11.0649 2.59828 11.0547 2.5954 11.0423 2.59209C11.0174 2.58546 10.9836 2.57703 10.9417 2.56797C10.8583 2.54989 10.7419 2.52908 10.6006 2.51531C10.3197 2.48791 9.92976 2.48727 9.50095 2.59901C9.32471 2.64494 9.15824 2.74418 9.02206 2.83949C8.87756 2.94062 8.72688 3.06638 8.57814 3.20181C8.28027 3.473 7.96141 3.80936 7.67297 4.13106C7.38309 4.45436 7.11696 4.77067 6.92373 5.00558C6.82695 5.12322 6.74809 5.2209 6.69325 5.28939C6.66582 5.32364 6.64437 5.35063 6.62967 5.36919L6.61277 5.39058L6.60829 5.39628L6.60707 5.39783L6.60672 5.39827L6.60661 5.39841C6.60658 5.39846 6.60655 5.39849 7 5.70703M10.2838 9C10.2838 9.5 10.2836 9.5 10.2834 9.5L10.283 9.5L10.2821 9.5L10.2799 9.49999L10.274 9.49993L10.2566 9.49961C10.2425 9.49926 10.2235 9.49862 10.2 9.49742C10.153 9.49503 10.0878 9.49041 10.0078 9.48149C9.84813 9.4637 9.62705 9.42856 9.37199 9.3588C8.86414 9.21991 8.20271 8.93838 7.63109 8.36517C7.05956 7.79204 6.77903 7.12908 6.64067 6.62032C6.57116 6.36477 6.53615 6.14327 6.51843 5.98334C6.50955 5.90318 6.50495 5.83791 6.50257 5.79088C6.50137 5.76734 6.50073 5.74832 6.50039 5.73422L6.50007 5.7168L6.50001 5.71094L6.5 5.70874L6.5 5.70782L6.5 5.70741C6.5 5.70722 6.5 5.70703 7 5.70703M10.2838 9L10.5914 9.39416L10.4558 9.5H10.2838V9ZM7 5.70703L6.5 5.70703L6.5 5.53436L6.60655 5.39849L7 5.70703Z" stroke="url(#paint6_linear_170_3007)"/>
<path d="M13.5 14V10C13.5 9.17157 12.8284 8.5 12 8.5H6.70711C6.12175 8.5 5.56036 8.73253 5.14645 9.14645C4.92007 9.37282 4.61304 9.5 4.29289 9.5H2C1.17157 9.5 0.5 10.1716 0.5 11V14C0.5 14.8284 1.17157 15.5 2 15.5H12C12.8284 15.5 13.5 14.8284 13.5 14Z" fill="url(#paint7_linear_170_3007)" stroke="url(#paint8_linear_170_3007)"/>
<path d="M12.5 10V14C12.5 14.2761 12.2761 14.5 12 14.5H2C1.72386 14.5 1.5 14.2761 1.5 14V11C1.5 10.7239 1.72386 10.5 2 10.5H4.29289C4.87825 10.5 5.43964 10.2675 5.85355 9.85355C6.07993 9.62718 6.38696 9.5 6.70711 9.5H12C12.2761 9.5 12.5 9.72386 12.5 10Z" stroke="white" stroke-opacity="0.5" style="mix-blend-mode:hard-light"/>
<path d="M12.5 10V14C12.5 14.2761 12.2761 14.5 12 14.5H2C1.72386 14.5 1.5 14.2761 1.5 14V11C1.5 10.7239 1.72386 10.5 2 10.5H4.29289C4.87825 10.5 5.43964 10.2675 5.85355 9.85355C6.07993 9.62718 6.38696 9.5 6.70711 9.5H12C12.2761 9.5 12.5 9.72386 12.5 10Z" stroke="white" stroke-opacity="0.5" style="mix-blend-mode:soft-light"/>
</g>
<defs>
<filter id="filter0_i_170_3007" x="10.4547" y="1.0383" width="4.42868" height="4.42868" filterUnits="userSpaceOnUse" color-interpolation-filters="sRGB">
<feFlood flood-opacity="0" result="BackgroundImageFix"/>
<feBlend mode="normal" in="SourceGraphic" in2="BackgroundImageFix" result="shape"/>
<feColorMatrix in="SourceAlpha" type="matrix" values="0 0 0 0 0 0 0 0 0 0 0 0 0 0 0 0 0 0 127 0" result="hardAlpha"/>
<feOffset dx="-1.3" dy="1.3"/>
<feComposite in2="hardAlpha" operator="arithmetic" k2="-1" k3="1"/>
<feColorMatrix type="matrix" values="0 0 0 0 1 0 0 0 0 1 0 0 0 0 1 0 0 0 0.5 0"/>
<feBlend mode="hard-light" in2="shape" result="effect1_innerShadow_170_3007"/>
</filter>
<linearGradient id="paint0_linear_170_3007" x1="1" y1="6" x2="13" y2="15" gradientUnits="userSpaceOnUse">
<stop stop-color="#F8E48E"/>
<stop offset="1" stop-color="#F1CD2E"/>
</linearGradient>
<linearGradient id="paint1_linear_170_3007" x1="7" y1="6" x2="7" y2="15" gradientUnits="userSpaceOnUse">
<stop stop-color="#E0C259"/>
<stop offset="1" stop-color="#D98C34"/>
</linearGradient>
<linearGradient id="paint2_linear_170_3007" x1="3.6013" y1="-2.42624e-07" x2="15.3089" y2="12.3795" gradientUnits="userSpaceOnUse">
<stop stop-color="#40B73A"/>
<stop offset="1" stop-color="#235C20"/>
</linearGradient>
<linearGradient id="paint3_linear_170_3007" x1="13.8491" y1="4.15095" x2="12.2726" y2="1.82355" gradientUnits="userSpaceOnUse">
<stop stop-color="#33822E"/>
<stop offset="1" stop-color="#379532"/>
</linearGradient>
<linearGradient id="paint4_linear_170_3007" x1="8.31352" y1="3.73125" x2="12.2651" y2="7.67178" gradientUnits="userSpaceOnUse">
<stop stop-color="#A5CC8D"/>
<stop offset="0.44542" stop-color="#5C9F42"/>
<stop offset="0.554484" stop-color="#96BF83"/>
<stop offset="1" stop-color="#609A46"/>
</linearGradient>
<linearGradient id="paint5_linear_170_3007" x1="12.7273" y1="3.63636" x2="8.36364" y2="8" gradientUnits="userSpaceOnUse">
<stop stop-color="#358A30"/>
<stop offset="0.505" stop-color="#549E4D"/>
<stop offset="1" stop-color="#358D30"/>
</linearGradient>
<linearGradient id="paint6_linear_170_3007" x1="7" y1="3.07265" x2="12.9273" y2="8.98345" gradientUnits="userSpaceOnUse">
<stop stop-color="#3BA635"/>
<stop offset="1" stop-color="#2E712A"/>
</linearGradient>
<linearGradient id="paint7_linear_170_3007" x1="6" y1="9" x2="8" y2="15" gradientUnits="userSpaceOnUse">
<stop stop-color="white" stop-opacity="0.66"/>
<stop offset="1" stop-color="#F1CD2E"/>
</linearGradient>
<linearGradient id="paint8_linear_170_3007" x1="7" y1="9" x2="7" y2="15" gradientUnits="userSpaceOnUse">
<stop stop-color="#DEB04D"/>
<stop offset="1" stop-color="#D98B34"/>
</linearGradient>
<clipPath id="clip0_170_3007">
<rect width="16" height="16" fill="white"/>
</clipPath>
</defs>
</svg>
