<svg width="16" height="16" viewBox="0 0 16 16" fill="none" xmlns="http://www.w3.org/2000/svg">
<g clip-path="url(#clip0_203_6107)">
<path d="M6.14286 5.5H1.85714C1.10761 5.5 0.5 6.10761 0.5 6.85714V14C0.5 14.8284 1.17157 15.5 2 15.5H12C12.8284 15.5 13.5 14.8284 13.5 14V8C13.5 7.17157 12.8284 6.5 12 6.5H7.45252C7.29574 5.92374 6.76878 5.5 6.14286 5.5Z" fill="url(#paint0_linear_203_6107)" stroke="url(#paint1_linear_203_6107)"/>
<path d="M1.85714 6.5H6.14286C6.3401 6.5 6.5 6.6599 6.5 6.85714C6.5 7.21218 6.78782 7.5 7.14286 7.5H12C12.2761 7.5 12.5 7.72386 12.5 8V14C12.5 14.2761 12.2761 14.5 12 14.5H2C1.72386 14.5 1.5 14.2761 1.5 14V6.85714C1.5 6.6599 1.6599 6.5 1.85714 6.5Z" stroke="white" stroke-opacity="0.5" stroke-linejoin="round" style="mix-blend-mode:soft-light"/>
<path d="M1.85714 6.5H6.14286C6.3401 6.5 6.5 6.6599 6.5 6.85714C6.5 7.21218 6.78782 7.5 7.14286 7.5H12C12.2761 7.5 12.5 7.72386 12.5 8V14C12.5 14.2761 12.2761 14.5 12 14.5H2C1.72386 14.5 1.5 14.2761 1.5 14V6.85714C1.5 6.6599 1.6599 6.5 1.85714 6.5Z" stroke="white" stroke-opacity="0.5" stroke-linejoin="round" style="mix-blend-mode:hard-light"/>
<rect x="5.5" y="0.5" width="10" height="10" fill="white" stroke="url(#paint2_linear_203_6107)" stroke-linejoin="round"/>
<mask id="path-4-outside-1_203_6107" maskUnits="userSpaceOnUse" x="6" y="3" width="9" height="7" fill="black">
<rect fill="white" x="6" y="3" width="9" height="7"/>
<path fill-rule="evenodd" clip-rule="evenodd" d="M7.5 4C7.22386 4 7 4.22386 7 4.5C7 4.77614 7.22386 5 7.5 5C7.77614 5 8 4.77614 8 4.5C8 4.22386 7.77614 4 7.5 4ZM9.5 4C9.22386 4 9 4.22386 9 4.5C9 4.77614 9.22386 5 9.5 5H10.5C10.7761 5 11 4.77614 11 4.5C11 4.22386 10.7761 4 10.5 4H9.5ZM12 4.5C12 4.22386 12.2239 4 12.5 4H13.5C13.7761 4 14 4.22386 14 4.5C14 4.77614 13.7761 5 13.5 5H12.5C12.2239 5 12 4.77614 12 4.5ZM12 6.5C12 6.22386 12.2239 6 12.5 6H13.5C13.7761 6 14 6.22386 14 6.5C14 6.77614 13.7761 7 13.5 7H12.5C12.2239 7 12 6.77614 12 6.5ZM9 6.5C9 6.22386 9.22386 6 9.5 6H10.5C10.7761 6 11 6.22386 11 6.5C11 6.77614 10.7761 7 10.5 7H9.5C9.22386 7 9 6.77614 9 6.5ZM7 6.5C7 6.22386 7.22386 6 7.5 6C7.77614 6 8 6.22386 8 6.5C8 6.77614 7.77614 7 7.5 7C7.22386 7 7 6.77614 7 6.5ZM12.5 8C12.2239 8 12 8.22386 12 8.5C12 8.77614 12.2239 9 12.5 9H13.5C13.7761 9 14 8.77614 14 8.5C14 8.22386 13.7761 8 13.5 8H12.5ZM9 8.5C9 8.22386 9.22386 8 9.5 8H10.5C10.7761 8 11 8.22386 11 8.5C11 8.77614 10.7761 9 10.5 9H9.5C9.22386 9 9 8.77614 9 8.5ZM7.5 8C7.22386 8 7 8.22386 7 8.5C7 8.77614 7.22386 9 7.5 9C7.77614 9 8 8.77614 8 8.5C8 8.22386 7.77614 8 7.5 8Z"/>
</mask>
<path fill-rule="evenodd" clip-rule="evenodd" d="M7.5 4C7.22386 4 7 4.22386 7 4.5C7 4.77614 7.22386 5 7.5 5C7.77614 5 8 4.77614 8 4.5C8 4.22386 7.77614 4 7.5 4ZM9.5 4C9.22386 4 9 4.22386 9 4.5C9 4.77614 9.22386 5 9.5 5H10.5C10.7761 5 11 4.77614 11 4.5C11 4.22386 10.7761 4 10.5 4H9.5ZM12 4.5C12 4.22386 12.2239 4 12.5 4H13.5C13.7761 4 14 4.22386 14 4.5C14 4.77614 13.7761 5 13.5 5H12.5C12.2239 5 12 4.77614 12 4.5ZM12 6.5C12 6.22386 12.2239 6 12.5 6H13.5C13.7761 6 14 6.22386 14 6.5C14 6.77614 13.7761 7 13.5 7H12.5C12.2239 7 12 6.77614 12 6.5ZM9 6.5C9 6.22386 9.22386 6 9.5 6H10.5C10.7761 6 11 6.22386 11 6.5C11 6.77614 10.7761 7 10.5 7H9.5C9.22386 7 9 6.77614 9 6.5ZM7 6.5C7 6.22386 7.22386 6 7.5 6C7.77614 6 8 6.22386 8 6.5C8 6.77614 7.77614 7 7.5 7C7.22386 7 7 6.77614 7 6.5ZM12.5 8C12.2239 8 12 8.22386 12 8.5C12 8.77614 12.2239 9 12.5 9H13.5C13.7761 9 14 8.77614 14 8.5C14 8.22386 13.7761 8 13.5 8H12.5ZM9 8.5C9 8.22386 9.22386 8 9.5 8H10.5C10.7761 8 11 8.22386 11 8.5C11 8.77614 10.7761 9 10.5 9H9.5C9.22386 9 9 8.77614 9 8.5ZM7.5 8C7.22386 8 7 8.22386 7 8.5C7 8.77614 7.22386 9 7.5 9C7.77614 9 8 8.77614 8 8.5C8 8.22386 7.77614 8 7.5 8Z" fill="white"/>
<path d="M8 4.5C8 4.77614 7.77614 5 7.5 5V3C6.67157 3 6 3.67157 6 4.5H8ZM7.5 4C7.77614 4 8 4.22386 8 4.5H6C6 5.32843 6.67157 6 7.5 6V4ZM7 4.5C7 4.22386 7.22386 4 7.5 4V6C8.32843 6 9 5.32843 9 4.5H7ZM7.5 5C7.22386 5 7 4.77614 7 4.5H9C9 3.67157 8.32843 3 7.5 3V5ZM10 4.5C10 4.77614 9.77614 5 9.5 5V3C8.67157 3 8 3.67157 8 4.5H10ZM9.5 4C9.77614 4 10 4.22386 10 4.5H8C8 5.32843 8.67157 6 9.5 6V4ZM10.5 4H9.5V6H10.5V4ZM10 4.5C10 4.22386 10.2239 4 10.5 4V6C11.3284 6 12 5.32843 12 4.5H10ZM10.5 5C10.2239 5 10 4.77614 10 4.5H12C12 3.67157 11.3284 3 10.5 3V5ZM9.5 5H10.5V3H9.5V5ZM12.5 3C11.6716 3 11 3.67157 11 4.5H13C13 4.77614 12.7761 5 12.5 5V3ZM13.5 3H12.5V5H13.5V3ZM15 4.5C15 3.67157 14.3284 3 13.5 3V5C13.2239 5 13 4.77614 13 4.5H15ZM13.5 6C14.3284 6 15 5.32843 15 4.5H13C13 4.22386 13.2239 4 13.5 4V6ZM12.5 6H13.5V4H12.5V6ZM11 4.5C11 5.32843 11.6716 6 12.5 6V4C12.7761 4 13 4.22386 13 4.5H11ZM12.5 5C11.6716 5 11 5.67157 11 6.5H13C13 6.77614 12.7761 7 12.5 7V5ZM13.5 5H12.5V7H13.5V5ZM15 6.5C15 5.67157 14.3284 5 13.5 5V7C13.2239 7 13 6.77614 13 6.5H15ZM13.5 8C14.3284 8 15 7.32843 15 6.5H13C13 6.22386 13.2239 6 13.5 6V8ZM12.5 8H13.5V6H12.5V8ZM11 6.5C11 7.32843 11.6716 8 12.5 8V6C12.7761 6 13 6.22386 13 6.5H11ZM9.5 5C8.67157 5 8 5.67157 8 6.5H10C10 6.77614 9.77614 7 9.5 7V5ZM10.5 5H9.5V7H10.5V5ZM12 6.5C12 5.67157 11.3284 5 10.5 5V7C10.2239 7 10 6.77614 10 6.5H12ZM10.5 8C11.3284 8 12 7.32843 12 6.5H10C10 6.22386 10.2239 6 10.5 6V8ZM9.5 8H10.5V6H9.5V8ZM8 6.5C8 7.32843 8.67157 8 9.5 8V6C9.77614 6 10 6.22386 10 6.5H8ZM7.5 5C6.67157 5 6 5.67157 6 6.5H8C8 6.77614 7.77614 7 7.5 7V5ZM9 6.5C9 5.67157 8.32843 5 7.5 5V7C7.22386 7 7 6.77614 7 6.5H9ZM7.5 8C8.32843 8 9 7.32843 9 6.5H7C7 6.22386 7.22386 6 7.5 6V8ZM6 6.5C6 7.32843 6.67157 8 7.5 8V6C7.77614 6 8 6.22386 8 6.5H6ZM13 8.5C13 8.77614 12.7761 9 12.5 9V7C11.6716 7 11 7.67157 11 8.5H13ZM12.5 8C12.7761 8 13 8.22386 13 8.5H11C11 9.32843 11.6716 10 12.5 10V8ZM13.5 8H12.5V10H13.5V8ZM13 8.5C13 8.22386 13.2239 8 13.5 8V10C14.3284 10 15 9.32843 15 8.5H13ZM13.5 9C13.2239 9 13 8.77614 13 8.5H15C15 7.67157 14.3284 7 13.5 7V9ZM12.5 9H13.5V7H12.5V9ZM9.5 7C8.67157 7 8 7.67157 8 8.5H10C10 8.77614 9.77614 9 9.5 9V7ZM10.5 7H9.5V9H10.5V7ZM12 8.5C12 7.67157 11.3284 7 10.5 7V9C10.2239 9 10 8.77614 10 8.5H12ZM10.5 10C11.3284 10 12 9.32843 12 8.5H10C10 8.22386 10.2239 8 10.5 8V10ZM9.5 10H10.5V8H9.5V10ZM8 8.5C8 9.32843 8.67157 10 9.5 10V8C9.77614 8 10 8.22386 10 8.5H8ZM8 8.5C8 8.77614 7.77614 9 7.5 9V7C6.67157 7 6 7.67157 6 8.5H8ZM7.5 8C7.77614 8 8 8.22386 8 8.5H6C6 9.32843 6.67157 10 7.5 10V8ZM7 8.5C7 8.22386 7.22386 8 7.5 8V10C8.32843 10 9 9.32843 9 8.5H7ZM7.5 9C7.22386 9 7 8.77614 7 8.5H9C9 7.67157 8.32843 7 7.5 7V9Z" fill="url(#paint3_linear_203_6107)" mask="url(#path-4-outside-1_203_6107)"/>
<rect x="6.5" y="1.5" width="8" height="2" rx="1" fill="url(#paint4_linear_203_6107)" stroke="white"/>
<rect x="6.5" y="1.5" width="8" height="8" stroke="url(#paint5_linear_203_6107)" stroke-opacity="0.66" style="mix-blend-mode:screen"/>
<path d="M13.5 14V10C13.5 9.17157 12.8284 8.5 12 8.5H6.70711C6.12175 8.5 5.56036 8.73253 5.14645 9.14645C4.92007 9.37282 4.61304 9.5 4.29289 9.5H2C1.17157 9.5 0.5 10.1716 0.5 11V14C0.5 14.8284 1.17157 15.5 2 15.5H12C12.8284 15.5 13.5 14.8284 13.5 14Z" fill="url(#paint6_linear_203_6107)" stroke="url(#paint7_linear_203_6107)"/>
<path d="M12.5 10V14C12.5 14.2761 12.2761 14.5 12 14.5H2C1.72386 14.5 1.5 14.2761 1.5 14V11C1.5 10.7239 1.72386 10.5 2 10.5H4.29289C4.87825 10.5 5.43964 10.2675 5.85355 9.85355C6.07993 9.62718 6.38696 9.5 6.70711 9.5H12C12.2761 9.5 12.5 9.72386 12.5 10Z" stroke="white" stroke-opacity="0.5" style="mix-blend-mode:hard-light"/>
<path d="M12.5 10V14C12.5 14.2761 12.2761 14.5 12 14.5H2C1.72386 14.5 1.5 14.2761 1.5 14V11C1.5 10.7239 1.72386 10.5 2 10.5H4.29289C4.87825 10.5 5.43964 10.2675 5.85355 9.85355C6.07993 9.62718 6.38696 9.5 6.70711 9.5H12C12.2761 9.5 12.5 9.72386 12.5 10Z" stroke="white" stroke-opacity="0.5" style="mix-blend-mode:soft-light"/>
</g>
<defs>
<linearGradient id="paint0_linear_203_6107" x1="1" y1="6" x2="13" y2="15" gradientUnits="userSpaceOnUse">
<stop stop-color="#F8E48E"/>
<stop offset="1" stop-color="#F1CD2E"/>
</linearGradient>
<linearGradient id="paint1_linear_203_6107" x1="7" y1="6" x2="7" y2="15" gradientUnits="userSpaceOnUse">
<stop stop-color="#E0C259"/>
<stop offset="1" stop-color="#D98C34"/>
</linearGradient>
<linearGradient id="paint2_linear_203_6107" x1="6" y1="1" x2="15" y2="10" gradientUnits="userSpaceOnUse">
<stop stop-color="#9FC0ED"/>
<stop offset="1" stop-color="#5284C3"/>
</linearGradient>
<linearGradient id="paint3_linear_203_6107" x1="12.5" y1="5.66667" x2="12.5" y2="10.6667" gradientUnits="userSpaceOnUse">
<stop stop-color="#A6C3E9"/>
<stop offset="1" stop-color="#BFD3EB"/>
</linearGradient>
<linearGradient id="paint4_linear_203_6107" x1="7" y1="2.5" x2="14" y2="2.5" gradientUnits="userSpaceOnUse">
<stop stop-color="#A5D59C"/>
<stop offset="1" stop-color="#7CBE76"/>
</linearGradient>
<linearGradient id="paint5_linear_203_6107" x1="6.375" y1="1" x2="15" y2="10" gradientUnits="userSpaceOnUse">
<stop stop-color="#F4F7FB"/>
<stop offset="1" stop-color="#D8E2F0"/>
</linearGradient>
<linearGradient id="paint6_linear_203_6107" x1="6" y1="9" x2="8" y2="15" gradientUnits="userSpaceOnUse">
<stop stop-color="white" stop-opacity="0.66"/>
<stop offset="1" stop-color="#F1CD2E"/>
</linearGradient>
<linearGradient id="paint7_linear_203_6107" x1="7" y1="9" x2="7" y2="15" gradientUnits="userSpaceOnUse">
<stop stop-color="#DEB04D"/>
<stop offset="1" stop-color="#D98B34"/>
</linearGradient>
<clipPath id="clip0_203_6107">
<rect width="16" height="16" fill="white"/>
</clipPath>
</defs>
</svg>
