<svg width="16" height="16" viewBox="0 0 16 16" fill="none" xmlns="http://www.w3.org/2000/svg">
<g clip-path="url(#clip0_161_3209)">
<path d="M6.14286 5.5H1.85714C1.10761 5.5 0.5 6.10761 0.5 6.85714V14C0.5 14.8284 1.17157 15.5 2 15.5H12C12.8284 15.5 13.5 14.8284 13.5 14V8C13.5 7.17157 12.8284 6.5 12 6.5H7.45252C7.29574 5.92374 6.76878 5.5 6.14286 5.5Z" fill="url(#paint0_linear_161_3209)" stroke="url(#paint1_linear_161_3209)"/>
<path d="M1.85714 6.5H6.14286C6.3401 6.5 6.5 6.6599 6.5 6.85714C6.5 7.21218 6.78782 7.5 7.14286 7.5H12C12.2761 7.5 12.5 7.72386 12.5 8V14C12.5 14.2761 12.2761 14.5 12 14.5H2C1.72386 14.5 1.5 14.2761 1.5 14V6.85714C1.5 6.6599 1.6599 6.5 1.85714 6.5Z" stroke="white" stroke-opacity="0.5" stroke-linejoin="round" style="mix-blend-mode:soft-light"/>
<path d="M1.85714 6.5H6.14286C6.3401 6.5 6.5 6.6599 6.5 6.85714C6.5 7.21218 6.78782 7.5 7.14286 7.5H12C12.2761 7.5 12.5 7.72386 12.5 8V14C12.5 14.2761 12.2761 14.5 12 14.5H2C1.72386 14.5 1.5 14.2761 1.5 14V6.85714C1.5 6.6599 1.6599 6.5 1.85714 6.5Z" stroke="white" stroke-opacity="0.5" stroke-linejoin="round" style="mix-blend-mode:hard-light"/>
<g filter="url(#filter0_ii_161_3209)">
<circle cx="13.9227" cy="1.76281" r="1.53151" fill="url(#paint2_linear_161_3209)"/>
</g>
<circle cx="13.9227" cy="1.76281" r="1.03151" stroke="url(#paint3_linear_161_3209)" stroke-linecap="round"/>
<g filter="url(#filter1_ii_161_3209)">
<ellipse cx="8.98548" cy="8.65609" rx="5.3603" ry="2.23099" transform="rotate(35 8.98548 8.65609)" fill="url(#paint4_linear_161_3209)"/>
</g>
<path d="M12.9668 11.4438C12.8901 11.5533 12.7395 11.6587 12.4504 11.7073C12.1588 11.7563 11.7677 11.7385 11.2929 11.634C10.3455 11.4257 9.16463 10.8947 7.99263 10.074C6.82062 9.25339 5.91776 8.32539 5.39795 7.50638C5.13741 7.09587 4.98691 6.73444 4.93323 6.44373C4.88 6.15543 4.92749 5.97782 5.00416 5.86834C5.08082 5.75885 5.23147 5.65348 5.52059 5.60489C5.81212 5.55591 6.20323 5.57371 6.6781 5.67814C7.6255 5.88649 8.80633 6.4175 9.97834 7.23815C11.1503 8.05879 12.0532 8.98679 12.573 9.8058C12.8336 10.2163 12.9841 10.5777 13.0377 10.8685C13.091 11.1568 13.0435 11.3344 12.9668 11.4438Z" stroke="url(#paint5_linear_161_3209)" stroke-linecap="round"/>
<g filter="url(#filter2_ii_161_3209)">
<circle cx="9.46273" cy="7.97453" r="2.29727" transform="rotate(35 9.46273 7.97453)" fill="url(#paint6_linear_161_3209)"/>
</g>
<circle cx="9.46273" cy="7.97453" r="1.79727" transform="rotate(35 9.46273 7.97453)" stroke="url(#paint7_linear_161_3209)" stroke-linecap="round"/>
<mask id="path-9-inside-1_161_3209" fill="white">
<path fill-rule="evenodd" clip-rule="evenodd" d="M10.3623 1.34478C11.7089 1.02056 12.6716 1.37785 12.9846 1.59702L14.2366 2.47371C14.592 2.85451 15.3162 3.86319 15.3705 4.85155C15.3973 5.3381 15.1512 5.94914 14.7887 6.84942C14.5847 7.35601 14.3438 7.95419 14.0939 8.6733C14.0611 8.76767 14.0662 8.91914 14.0728 9.11827C14.0916 9.68276 14.1231 10.6303 13.3417 11.7463L12.5216 11.172C12.6954 10.4129 11.5259 8.91579 9.72586 7.6554C7.92583 6.39501 6.11899 5.80807 5.46514 6.23106L4.57735 5.60942C5.35158 4.50369 6.24903 4.20841 6.78644 4.03159C6.98275 3.96699 7.13103 3.9182 7.20769 3.85149C7.68045 3.44013 8.06616 3.06479 8.40437 2.73569C9.14653 2.01349 9.65993 1.51391 10.3623 1.34478Z"/>
</mask>
<g filter="url(#filter3_iii_161_3209)">
<path fill-rule="evenodd" clip-rule="evenodd" d="M10.3623 1.34478C11.7089 1.02056 12.6716 1.37785 12.9846 1.59702L14.2366 2.47371C14.592 2.85451 15.3162 3.86319 15.3705 4.85155C15.3973 5.3381 15.1512 5.94914 14.7887 6.84942C14.5847 7.35601 14.3438 7.95419 14.0939 8.6733C14.0611 8.76767 14.0662 8.91914 14.0728 9.11827C14.0916 9.68276 14.1231 10.6303 13.3417 11.7463L12.5216 11.172C12.6954 10.4129 11.5259 8.91579 9.72586 7.6554C7.92583 6.39501 6.11899 5.80807 5.46514 6.23106L4.57735 5.60942C5.35158 4.50369 6.24903 4.20841 6.78644 4.03159C6.98275 3.96699 7.13103 3.9182 7.20769 3.85149C7.68045 3.44013 8.06616 3.06479 8.40437 2.73569C9.14653 2.01349 9.65993 1.51391 10.3623 1.34478Z" fill="url(#paint8_radial_161_3209)"/>
</g>
<path d="M12.9846 1.59702L13.5582 0.777871L12.9846 1.59702ZM10.3623 1.34478L10.1283 0.372566L10.1283 0.372566L10.3623 1.34478ZM14.2366 2.47371L14.9678 1.79147L14.8962 1.71475L14.8102 1.65456L14.2366 2.47371ZM15.3705 4.85155L16.369 4.79668L16.369 4.79668L15.3705 4.85155ZM14.7887 6.84942L13.8611 6.47589L13.8611 6.47589L14.7887 6.84942ZM14.0939 8.6733L15.0385 9.00155L15.0385 9.00155L14.0939 8.6733ZM14.0728 9.11827L15.0722 9.08504L15.0722 9.08504L14.0728 9.11827ZM13.3417 11.7463L12.7681 12.5654L13.5872 13.139L14.1608 12.3198L13.3417 11.7463ZM12.5216 11.172L11.5468 10.9488L11.3965 11.605L11.948 11.9912L12.5216 11.172ZM5.46514 6.23106L4.89156 7.05021L5.44304 7.43636L6.0083 7.07068L5.46514 6.23106ZM4.57735 5.60942L3.7582 5.03584L3.18462 5.85499L4.00377 6.42857L4.57735 5.60942ZM6.78644 4.03159L7.09898 4.98149L7.09898 4.98149L6.78644 4.03159ZM7.20769 3.85149L6.55127 3.0971L6.55127 3.0971L7.20769 3.85149ZM8.40437 2.73569L7.70697 2.01901L7.70697 2.01901L8.40437 2.73569ZM13.5582 0.777871C12.9882 0.378762 11.7261 -0.0121652 10.1283 0.372566L10.5964 2.317C11.1336 2.18766 11.5741 2.19868 11.8934 2.25298C12.0542 2.28031 12.1826 2.31834 12.2757 2.35387C12.3743 2.39149 12.4158 2.4195 12.411 2.41618L13.5582 0.777871ZM14.8102 1.65456L13.5582 0.777871L12.411 2.41618L13.6631 3.29287L14.8102 1.65456ZM16.369 4.79668C16.3304 4.09444 16.0624 3.44451 15.7932 2.95376C15.5199 2.4558 15.2007 2.04112 14.9678 1.79147L13.5055 3.15595C13.6279 3.2871 13.8485 3.56716 14.0398 3.91583C14.235 4.27171 14.3563 4.6203 14.372 4.90642L16.369 4.79668ZM15.7163 7.22294C15.8928 6.78467 16.0613 6.36777 16.1787 5.9978C16.2952 5.63069 16.3923 5.21983 16.369 4.79668L14.372 4.90641C14.3755 4.96982 14.3629 5.10776 14.2724 5.39287C14.1828 5.67514 14.0471 6.01389 13.8611 6.47589L15.7163 7.22294ZM15.0385 9.00155C15.2797 8.30766 15.5123 7.72952 15.7163 7.22294L13.8611 6.47589C13.6571 6.9825 13.408 7.60071 13.1493 8.34505L15.0385 9.00155ZM15.0722 9.08504C15.0705 9.03376 15.0692 8.99366 15.0685 8.95762C15.0678 8.92176 15.0678 8.89863 15.0682 8.88349C15.0687 8.86765 15.0692 8.87055 15.0673 8.88548C15.0655 8.89921 15.0591 8.94245 15.0385 9.00155L13.1494 8.34504C13.0808 8.54222 13.0716 8.7297 13.069 8.82951C13.066 8.94056 13.0704 9.06149 13.0734 9.1515L15.0722 9.08504ZM14.1608 12.3198C15.1324 10.9323 15.0931 9.71269 15.0722 9.08504L13.0734 9.1515C13.09 9.65282 13.1138 10.3283 12.5225 11.1727L14.1608 12.3198ZM11.948 11.9912L12.7681 12.5654L13.9152 10.9271L13.0951 10.3529L11.948 11.9912ZM9.15228 8.47455C9.99041 9.06141 10.6562 9.68669 11.0796 10.222C11.2923 10.4909 11.4232 10.7113 11.4908 10.8705C11.5661 11.0478 11.523 11.0526 11.5468 10.9488L13.4963 11.3952C13.607 10.9119 13.4829 10.4449 13.3316 10.0886C13.1726 9.71417 12.9312 9.33916 12.6483 8.98138C12.0803 8.26327 11.2613 7.50978 10.2994 6.83625L9.15228 8.47455ZM6.0083 7.07068C5.91889 7.12853 5.90863 7.08641 6.10103 7.09654C6.27372 7.10563 6.52558 7.15329 6.85104 7.26117C7.49888 7.47592 8.31416 7.88769 9.15228 8.47455L10.2994 6.83625C9.33754 6.16272 8.34938 5.65083 7.48033 5.36276C7.04735 5.21923 6.6124 5.12069 6.20616 5.0993C5.81962 5.07896 5.33832 5.1221 4.92198 5.39143L6.0083 7.07068ZM4.00377 6.42857L4.89156 7.05021L6.03872 5.41191L5.15092 4.79027L4.00377 6.42857ZM6.47389 3.08168C5.87836 3.27763 4.72252 3.65864 3.7582 5.03584L5.3965 6.183C5.98065 5.34875 6.61969 5.13919 7.09898 4.98149L6.47389 3.08168ZM6.55127 3.0971C6.57879 3.07316 6.60307 3.05558 6.6212 3.04351C6.63937 3.0314 6.65376 3.02323 6.66249 3.01852C6.67848 3.00989 6.6834 3.00869 6.66905 3.01446C6.65544 3.01992 6.63371 3.02802 6.59883 3.04002C6.56378 3.05209 6.52449 3.06503 6.47389 3.08168L7.09898 4.98149C7.18732 4.95242 7.30746 4.91336 7.41482 4.87021C7.51009 4.83192 7.69501 4.75303 7.86412 4.60589L6.55127 3.0971ZM7.70697 2.01901C7.3684 2.34847 7.00066 2.70607 6.55127 3.0971L7.86412 4.60589C8.36024 4.17419 8.76393 3.78112 9.10177 3.45237L7.70697 2.01901ZM10.1283 0.372566C9.10602 0.618697 8.39074 1.35363 7.70697 2.01901L9.10177 3.45237C9.90233 2.67334 10.2138 2.40912 10.5964 2.317L10.1283 0.372566Z" fill="url(#paint9_linear_161_3209)" mask="url(#path-9-inside-1_161_3209)"/>
<path d="M13.5 14V10C13.5 9.17157 12.8284 8.5 12 8.5H6.70711C6.12175 8.5 5.56036 8.73253 5.14645 9.14645C4.92007 9.37282 4.61304 9.5 4.29289 9.5H2C1.17157 9.5 0.5 10.1716 0.5 11V14C0.5 14.8284 1.17157 15.5 2 15.5H12C12.8284 15.5 13.5 14.8284 13.5 14Z" fill="url(#paint10_linear_161_3209)" stroke="url(#paint11_linear_161_3209)"/>
<path d="M12.5 10V14C12.5 14.2761 12.2761 14.5 12 14.5H2C1.72386 14.5 1.5 14.2761 1.5 14V11C1.5 10.7239 1.72386 10.5 2 10.5H4.29289C4.87825 10.5 5.43964 10.2675 5.85355 9.85355C6.07993 9.62718 6.38696 9.5 6.70711 9.5H12C12.2761 9.5 12.5 9.72386 12.5 10Z" stroke="white" stroke-opacity="0.5" style="mix-blend-mode:hard-light"/>
<path d="M12.5 10V14C12.5 14.2761 12.2761 14.5 12 14.5H2C1.72386 14.5 1.5 14.2761 1.5 14V11C1.5 10.7239 1.72386 10.5 2 10.5H4.29289C4.87825 10.5 5.43964 10.2675 5.85355 9.85355C6.07993 9.62718 6.38696 9.5 6.70711 9.5H12C12.2761 9.5 12.5 9.72386 12.5 10Z" stroke="white" stroke-opacity="0.5" style="mix-blend-mode:soft-light"/>
</g>
<defs>
<filter id="filter0_ii_161_3209" x="12.3912" y="0.231293" width="3.06303" height="3.06302" filterUnits="userSpaceOnUse" color-interpolation-filters="sRGB">
<feFlood flood-opacity="0" result="BackgroundImageFix"/>
<feBlend mode="normal" in="SourceGraphic" in2="BackgroundImageFix" result="shape"/>
<feColorMatrix in="SourceAlpha" type="matrix" values="0 0 0 0 0 0 0 0 0 0 0 0 0 0 0 0 0 0 127 0" result="hardAlpha"/>
<feOffset dx="2.5" dy="2"/>
<feComposite in2="hardAlpha" operator="arithmetic" k2="-1" k3="1"/>
<feColorMatrix type="matrix" values="0 0 0 0 1 0 0 0 0 1 0 0 0 0 1 0 0 0 0.66 0"/>
<feBlend mode="soft-light" in2="shape" result="effect1_innerShadow_161_3209"/>
<feColorMatrix in="SourceAlpha" type="matrix" values="0 0 0 0 0 0 0 0 0 0 0 0 0 0 0 0 0 0 127 0" result="hardAlpha"/>
<feOffset dx="1.5" dy="1.5"/>
<feComposite in2="hardAlpha" operator="arithmetic" k2="-1" k3="1"/>
<feColorMatrix type="matrix" values="0 0 0 0 1 0 0 0 0 1 0 0 0 0 1 0 0 0 0.66 0"/>
<feBlend mode="normal" in2="effect1_innerShadow_161_3209" result="effect2_innerShadow_161_3209"/>
</filter>
<filter id="filter1_ii_161_3209" x="4.41072" y="5.07886" width="9.14952" height="7.15448" filterUnits="userSpaceOnUse" color-interpolation-filters="sRGB">
<feFlood flood-opacity="0" result="BackgroundImageFix"/>
<feBlend mode="normal" in="SourceGraphic" in2="BackgroundImageFix" result="shape"/>
<feColorMatrix in="SourceAlpha" type="matrix" values="0 0 0 0 0 0 0 0 0 0 0 0 0 0 0 0 0 0 127 0" result="hardAlpha"/>
<feOffset dx="-0.75" dy="2"/>
<feComposite in2="hardAlpha" operator="arithmetic" k2="-1" k3="1"/>
<feColorMatrix type="matrix" values="0 0 0 0 0.533333 0 0 0 0 0.290196 0 0 0 0 0.0352941 0 0 0 0.66 0"/>
<feBlend mode="darken" in2="shape" result="effect1_innerShadow_161_3209"/>
<feColorMatrix in="SourceAlpha" type="matrix" values="0 0 0 0 0 0 0 0 0 0 0 0 0 0 0 0 0 0 127 0" result="hardAlpha"/>
<feOffset dx="1.5" dy="-1.5"/>
<feComposite in2="hardAlpha" operator="arithmetic" k2="-1" k3="1"/>
<feColorMatrix type="matrix" values="0 0 0 0 0.988235 0 0 0 0 0.94902 0 0 0 0 0.533333 0 0 0 1 0"/>
<feBlend mode="normal" in2="effect1_innerShadow_161_3209" result="effect2_innerShadow_161_3209"/>
</filter>
<filter id="filter2_ii_161_3209" x="7.16525" y="5.67706" width="4.59494" height="4.59494" filterUnits="userSpaceOnUse" color-interpolation-filters="sRGB">
<feFlood flood-opacity="0" result="BackgroundImageFix"/>
<feBlend mode="normal" in="SourceGraphic" in2="BackgroundImageFix" result="shape"/>
<feColorMatrix in="SourceAlpha" type="matrix" values="0 0 0 0 0 0 0 0 0 0 0 0 0 0 0 0 0 0 127 0" result="hardAlpha"/>
<feOffset dx="2.5" dy="2"/>
<feComposite in2="hardAlpha" operator="arithmetic" k2="-1" k3="1"/>
<feColorMatrix type="matrix" values="0 0 0 0 1 0 0 0 0 1 0 0 0 0 1 0 0 0 0.66 0"/>
<feBlend mode="soft-light" in2="shape" result="effect1_innerShadow_161_3209"/>
<feColorMatrix in="SourceAlpha" type="matrix" values="0 0 0 0 0 0 0 0 0 0 0 0 0 0 0 0 0 0 127 0" result="hardAlpha"/>
<feOffset dx="1.5" dy="1.5"/>
<feComposite in2="hardAlpha" operator="arithmetic" k2="-1" k3="1"/>
<feColorMatrix type="matrix" values="0 0 0 0 1 0 0 0 0 1 0 0 0 0 1 0 0 0 0.66 0"/>
<feBlend mode="normal" in2="effect1_innerShadow_161_3209" result="effect2_innerShadow_161_3209"/>
</filter>
<filter id="filter3_iii_161_3209" x="4.57735" y="1.21466" width="10.7952" height="10.5316" filterUnits="userSpaceOnUse" color-interpolation-filters="sRGB">
<feFlood flood-opacity="0" result="BackgroundImageFix"/>
<feBlend mode="normal" in="SourceGraphic" in2="BackgroundImageFix" result="shape"/>
<feColorMatrix in="SourceAlpha" type="matrix" values="0 0 0 0 0 0 0 0 0 0 0 0 0 0 0 0 0 0 127 0" result="hardAlpha"/>
<feOffset dx="1.5" dy="1.5"/>
<feComposite in2="hardAlpha" operator="arithmetic" k2="-1" k3="1"/>
<feColorMatrix type="matrix" values="0 0 0 0 1 0 0 0 0 1 0 0 0 0 1 0 0 0 0.66 0"/>
<feBlend mode="overlay" in2="shape" result="effect1_innerShadow_161_3209"/>
<feColorMatrix in="SourceAlpha" type="matrix" values="0 0 0 0 0 0 0 0 0 0 0 0 0 0 0 0 0 0 127 0" result="hardAlpha"/>
<feOffset dx="1.25" dy="-1.5"/>
<feComposite in2="hardAlpha" operator="arithmetic" k2="-1" k3="1"/>
<feColorMatrix type="matrix" values="0 0 0 0 1 0 0 0 0 0.790012 0 0 0 0 0.496029 0 0 0 1 0"/>
<feBlend mode="soft-light" in2="effect1_innerShadow_161_3209" result="effect2_innerShadow_161_3209"/>
<feColorMatrix in="SourceAlpha" type="matrix" values="0 0 0 0 0 0 0 0 0 0 0 0 0 0 0 0 0 0 127 0" result="hardAlpha"/>
<feOffset dx="-2"/>
<feComposite in2="hardAlpha" operator="arithmetic" k2="-1" k3="1"/>
<feColorMatrix type="matrix" values="0 0 0 0 1 0 0 0 0 1 0 0 0 0 1 0 0 0 0.25 0"/>
<feBlend mode="overlay" in2="effect2_innerShadow_161_3209" result="effect3_innerShadow_161_3209"/>
</filter>
<linearGradient id="paint0_linear_161_3209" x1="1" y1="6" x2="13" y2="15" gradientUnits="userSpaceOnUse">
<stop stop-color="#F8E48E"/>
<stop offset="1" stop-color="#F1CD2E"/>
</linearGradient>
<linearGradient id="paint1_linear_161_3209" x1="7" y1="6" x2="7" y2="15" gradientUnits="userSpaceOnUse">
<stop stop-color="#E0C259"/>
<stop offset="1" stop-color="#D98C34"/>
</linearGradient>
<linearGradient id="paint2_linear_161_3209" x1="12.3912" y1="1.94659" x2="15.4542" y2="1.94659" gradientUnits="userSpaceOnUse">
<stop stop-color="#F1CB4A"/>
<stop offset="1" stop-color="#DD9D20"/>
</linearGradient>
<linearGradient id="paint3_linear_161_3209" x1="12.3912" y1="1.70155" x2="15.4542" y2="1.70155" gradientUnits="userSpaceOnUse">
<stop stop-color="#E0B639"/>
<stop offset="1" stop-color="#AB7A38"/>
</linearGradient>
<linearGradient id="paint4_linear_161_3209" x1="3.62518" y1="8.92381" x2="14.3458" y2="8.92381" gradientUnits="userSpaceOnUse">
<stop stop-color="#F1AB4A"/>
<stop offset="1" stop-color="#DD8E20"/>
</linearGradient>
<linearGradient id="paint5_linear_161_3209" x1="4.64576" y1="5.50845" x2="13.4276" y2="11.6575" gradientUnits="userSpaceOnUse">
<stop stop-color="#D7BD3A"/>
<stop offset="1" stop-color="#955B0C"/>
</linearGradient>
<linearGradient id="paint6_linear_161_3209" x1="7.16546" y1="8.2502" x2="11.76" y2="8.2502" gradientUnits="userSpaceOnUse">
<stop stop-color="#F1AB4A"/>
<stop offset="1" stop-color="#DD8E20"/>
</linearGradient>
<linearGradient id="paint7_linear_161_3209" x1="7.16546" y1="7.88264" x2="11.76" y2="7.88264" gradientUnits="userSpaceOnUse">
<stop stop-color="#BD8940"/>
<stop offset="1" stop-color="#C57624"/>
</linearGradient>
<radialGradient id="paint8_radial_161_3209" cx="0" cy="0" r="1" gradientUnits="userSpaceOnUse" gradientTransform="translate(10.3137 7.56109) rotate(-81.5194) scale(6.84642 7.65881)">
<stop stop-color="#BC7D25"/>
<stop offset="0.534375" stop-color="#F4B22F"/>
<stop offset="1" stop-color="#FFE76F"/>
</radialGradient>
<linearGradient id="paint9_linear_161_3209" x1="4.93938" y1="0.768249" x2="13.3553" y2="12.6112" gradientUnits="userSpaceOnUse">
<stop offset="0.245673" stop-color="#DEC43F"/>
<stop offset="0.482332" stop-color="#D7AD3A"/>
<stop offset="1" stop-color="#975E0E"/>
</linearGradient>
<linearGradient id="paint10_linear_161_3209" x1="6" y1="9" x2="8" y2="15" gradientUnits="userSpaceOnUse">
<stop stop-color="white" stop-opacity="0.66"/>
<stop offset="1" stop-color="#F1CD2E"/>
</linearGradient>
<linearGradient id="paint11_linear_161_3209" x1="7" y1="9" x2="7" y2="15" gradientUnits="userSpaceOnUse">
<stop stop-color="#DEB04D"/>
<stop offset="1" stop-color="#D98B34"/>
</linearGradient>
<clipPath id="clip0_161_3209">
<rect width="16" height="16" fill="white"/>
</clipPath>
</defs>
</svg>
