<svg width="16" height="16" viewBox="0 0 16 16" fill="none" xmlns="http://www.w3.org/2000/svg">
<g clip-path="url(#clip0_324_11701)">
<path d="M6.14286 5.5H1.85714C1.10761 5.5 0.5 6.10761 0.5 6.85714V14C0.5 14.8284 1.17157 15.5 2 15.5H12C12.8284 15.5 13.5 14.8284 13.5 14V8C13.5 7.17157 12.8284 6.5 12 6.5H7.45252C7.29574 5.92374 6.76878 5.5 6.14286 5.5Z" fill="url(#paint0_linear_324_11701)" stroke="url(#paint1_linear_324_11701)"/>
<path d="M1.85714 6.5H6.14286C6.3401 6.5 6.5 6.6599 6.5 6.85714C6.5 7.21218 6.78782 7.5 7.14286 7.5H12C12.2761 7.5 12.5 7.72386 12.5 8V14C12.5 14.2761 12.2761 14.5 12 14.5H2C1.72386 14.5 1.5 14.2761 1.5 14V6.85714C1.5 6.6599 1.6599 6.5 1.85714 6.5Z" stroke="white" stroke-opacity="0.5" stroke-linejoin="round" style="mix-blend-mode:soft-light"/>
<path d="M1.85714 6.5H6.14286C6.3401 6.5 6.5 6.6599 6.5 6.85714C6.5 7.21218 6.78782 7.5 7.14286 7.5H12C12.2761 7.5 12.5 7.72386 12.5 8V14C12.5 14.2761 12.2761 14.5 12 14.5H2C1.72386 14.5 1.5 14.2761 1.5 14V6.85714C1.5 6.6599 1.6599 6.5 1.85714 6.5Z" stroke="white" stroke-opacity="0.5" stroke-linejoin="round" style="mix-blend-mode:hard-light"/>
<circle cx="6.5" cy="8.5" r="1" fill="#EAB378" stroke="#CF7D2A"/>
<circle cx="14.5" cy="8.5" r="1" fill="#EAB378" stroke="#CF7D2A"/>
<path d="M12.5 10H8.4L8 8L7 7L9.1 5H11.9L14 7L13 8L12.5 10Z" fill="url(#paint2_linear_324_11701)"/>
<path d="M12.5 10.5C12.7294 10.5 12.9294 10.3439 12.9851 10.1213L13.4515 8.25562L14.3536 7.35355C14.4488 7.25829 14.5016 7.12862 14.5 6.9939C14.4983 6.85919 14.4424 6.73084 14.3448 6.63793L12.2448 4.63793C12.1519 4.54939 12.0284 4.5 11.9 4.5H9.1C8.97161 4.5 8.84814 4.54939 8.75517 4.63793L6.65517 6.63793C6.55762 6.73084 6.50168 6.85919 6.50004 6.9939C6.49839 7.12862 6.55118 7.25829 6.64645 7.35355L7.5394 8.24651L7.90971 10.0981C7.95645 10.3318 8.16166 10.5 8.4 10.5H12.5Z" stroke="#2E5ABA" stroke-opacity="0.972549" stroke-linejoin="round"/>
<path d="M11.7 5.5L13.2842 7.00873L12.6464 7.64645L12.5394 7.75349L12.5097 7.90194L12.1901 9.5H8.8099L8.49029 7.90194L8.4606 7.75349L8.35355 7.64645L7.71584 7.00873L9.3 5.5H11.7Z" stroke="url(#paint3_linear_324_11701)"/>
<circle cx="10.5" cy="3.5" r="3" fill="#F6D0A8" stroke="#A87B4D"/>
<mask id="path-9-inside-1_324_11701" fill="white">
<path fill-rule="evenodd" clip-rule="evenodd" d="M7.08419 4.26651C7.57084 3.65862 8.63668 2.625 9.625 2.625C10.3178 2.625 10.6484 3.00813 10.9606 3.36991C11.2398 3.6935 11.5043 4 12 4C12.6104 4 13.377 3.66209 13.998 3.37912C13.9342 1.50209 12.3925 0 10.5 0C8.567 0 7 1.567 7 3.5C7 3.76331 7.02908 4.01982 7.08419 4.26651Z"/>
</mask>
<path fill-rule="evenodd" clip-rule="evenodd" d="M7.08419 4.26651C7.57084 3.65862 8.63668 2.625 9.625 2.625C10.3178 2.625 10.6484 3.00813 10.9606 3.36991C11.2398 3.6935 11.5043 4 12 4C12.6104 4 13.377 3.66209 13.998 3.37912C13.9342 1.50209 12.3925 0 10.5 0C8.567 0 7 1.567 7 3.5C7 3.76331 7.02908 4.01982 7.08419 4.26651Z" fill="url(#paint4_linear_324_11701)"/>
<path d="M7.08419 4.26651L6.10825 4.48456L6.5626 6.51814L7.86485 4.89147L7.08419 4.26651ZM10.9606 3.36991L10.2035 4.02319L10.9606 3.36991ZM13.998 3.37912L14.4126 4.28908L15.02 4.01229L14.9974 3.3452L13.998 3.37912ZM9.625 1.625C8.80894 1.625 8.08102 2.03613 7.57074 2.41462C7.036 2.81124 6.58764 3.28667 6.30354 3.64155L7.86485 4.89147C8.0674 4.63846 8.39529 4.29313 8.76221 4.02098C9.15359 3.73068 9.45275 3.625 9.625 3.625V1.625ZM11.7177 2.71663C11.4022 2.35104 10.8066 1.625 9.625 1.625V3.625C9.765 3.625 9.82662 3.65716 9.87491 3.68986C9.95587 3.74467 10.0343 3.82716 10.2035 4.02319L11.7177 2.71663ZM12 3C11.9822 3 11.9822 2.99776 11.9911 3.00079C11.9989 3.00345 11.9972 3.00469 11.9825 2.99411C11.9653 2.98178 11.9363 2.95762 11.8899 2.90965C11.8412 2.85937 11.7909 2.80152 11.7177 2.71663L10.2035 4.02319C10.4494 4.30823 10.9913 5 12 5V3ZM13.5833 2.46915C13.2718 2.61107 12.9636 2.74814 12.6674 2.85088C12.3612 2.95704 12.1405 3 12 3V5C12.4699 5 12.9376 4.874 13.3227 4.74047C13.7176 4.6035 14.1031 4.43013 14.4126 4.28908L13.5833 2.46915ZM10.5 1C11.8516 1 12.953 2.07294 12.9985 3.41304L14.9974 3.3452C14.9154 0.931247 12.9335 -1 10.5 -1V1ZM8 3.5C8 2.11929 9.11929 1 10.5 1V-1C8.01472 -1 6 1.01472 6 3.5H8ZM8.06013 4.04846C8.0209 3.87288 8 3.68948 8 3.5H6C6 3.83714 6.03725 4.16676 6.10825 4.48456L8.06013 4.04846Z" fill="url(#paint5_linear_324_11701)" mask="url(#path-9-inside-1_324_11701)"/>
<path d="M13.5 14V10C13.5 9.17157 12.8284 8.5 12 8.5H6.70711C6.12175 8.5 5.56036 8.73253 5.14645 9.14645C4.92007 9.37282 4.61304 9.5 4.29289 9.5H2C1.17157 9.5 0.5 10.1716 0.5 11V14C0.5 14.8284 1.17157 15.5 2 15.5H12C12.8284 15.5 13.5 14.8284 13.5 14Z" fill="url(#paint6_linear_324_11701)" stroke="url(#paint7_linear_324_11701)"/>
<path d="M12.5 10V14C12.5 14.2761 12.2761 14.5 12 14.5H2C1.72386 14.5 1.5 14.2761 1.5 14V11C1.5 10.7239 1.72386 10.5 2 10.5H4.29289C4.87825 10.5 5.43964 10.2675 5.85355 9.85355C6.07993 9.62718 6.38696 9.5 6.70711 9.5H12C12.2761 9.5 12.5 9.72386 12.5 10Z" stroke="white" stroke-opacity="0.5" style="mix-blend-mode:hard-light"/>
<path d="M12.5 10V14C12.5 14.2761 12.2761 14.5 12 14.5H2C1.72386 14.5 1.5 14.2761 1.5 14V11C1.5 10.7239 1.72386 10.5 2 10.5H4.29289C4.87825 10.5 5.43964 10.2675 5.85355 9.85355C6.07993 9.62718 6.38696 9.5 6.70711 9.5H12C12.2761 9.5 12.5 9.72386 12.5 10Z" stroke="white" stroke-opacity="0.5" style="mix-blend-mode:soft-light"/>
</g>
<defs>
<linearGradient id="paint0_linear_324_11701" x1="1" y1="6" x2="13" y2="15" gradientUnits="userSpaceOnUse">
<stop stop-color="#F8E48E"/>
<stop offset="1" stop-color="#F1CD2E"/>
</linearGradient>
<linearGradient id="paint1_linear_324_11701" x1="7" y1="6" x2="7" y2="15" gradientUnits="userSpaceOnUse">
<stop stop-color="#E0C259"/>
<stop offset="1" stop-color="#D98C34"/>
</linearGradient>
<linearGradient id="paint2_linear_324_11701" x1="13.3" y1="9.16667" x2="7.34964" y2="6.66752" gradientUnits="userSpaceOnUse">
<stop stop-color="#438DFF"/>
<stop offset="0.488845" stop-color="#5DACFE"/>
<stop offset="1" stop-color="#72D4FF"/>
</linearGradient>
<linearGradient id="paint3_linear_324_11701" x1="10.5" y1="5" x2="10.5" y2="10" gradientUnits="userSpaceOnUse">
<stop stop-color="white" stop-opacity="0.66"/>
<stop offset="1" stop-color="#63BAFF"/>
</linearGradient>
<linearGradient id="paint4_linear_324_11701" x1="13.998" y1="2.13325" x2="7" y2="2.13325" gradientUnits="userSpaceOnUse">
<stop stop-color="#754112"/>
<stop offset="1" stop-color="#9F5812"/>
</linearGradient>
<linearGradient id="paint5_linear_324_11701" x1="13.998" y1="2.13325" x2="7" y2="2.13325" gradientUnits="userSpaceOnUse">
<stop stop-color="#5C320E"/>
<stop offset="1" stop-color="#974B0F"/>
</linearGradient>
<linearGradient id="paint6_linear_324_11701" x1="6" y1="9" x2="8" y2="15" gradientUnits="userSpaceOnUse">
<stop stop-color="white" stop-opacity="0.66"/>
<stop offset="1" stop-color="#F1CD2E"/>
</linearGradient>
<linearGradient id="paint7_linear_324_11701" x1="7" y1="9" x2="7" y2="15" gradientUnits="userSpaceOnUse">
<stop stop-color="#DEB04D"/>
<stop offset="1" stop-color="#D98B34"/>
</linearGradient>
<clipPath id="clip0_324_11701">
<rect width="16" height="16" fill="white"/>
</clipPath>
</defs>
</svg>
