<svg width="16" height="16" viewBox="0 0 16 16" fill="none" xmlns="http://www.w3.org/2000/svg">
<g clip-path="url(#clip0_155_3000)">
<path d="M6.14286 5.5H1.85714C1.10761 5.5 0.5 6.10761 0.5 6.85714V14C0.5 14.8284 1.17157 15.5 2 15.5H12C12.8284 15.5 13.5 14.8284 13.5 14V8C13.5 7.17157 12.8284 6.5 12 6.5H7.45252C7.29574 5.92374 6.76878 5.5 6.14286 5.5Z" fill="url(#paint0_linear_155_3000)" stroke="url(#paint1_linear_155_3000)"/>
<path d="M1.85714 6.5H6.14286C6.3401 6.5 6.5 6.6599 6.5 6.85714C6.5 7.21218 6.78782 7.5 7.14286 7.5H12C12.2761 7.5 12.5 7.72386 12.5 8V14C12.5 14.2761 12.2761 14.5 12 14.5H2C1.72386 14.5 1.5 14.2761 1.5 14V6.85714C1.5 6.6599 1.6599 6.5 1.85714 6.5Z" stroke="white" stroke-opacity="0.5" stroke-linejoin="round" style="mix-blend-mode:soft-light"/>
<path d="M1.85714 6.5H6.14286C6.3401 6.5 6.5 6.6599 6.5 6.85714C6.5 7.21218 6.78782 7.5 7.14286 7.5H12C12.2761 7.5 12.5 7.72386 12.5 8V14C12.5 14.2761 12.2761 14.5 12 14.5H2C1.72386 14.5 1.5 14.2761 1.5 14V6.85714C1.5 6.6599 1.6599 6.5 1.85714 6.5Z" stroke="white" stroke-opacity="0.5" stroke-linejoin="round" style="mix-blend-mode:hard-light"/>
<g filter="url(#filter0_i_155_3000)">
<path d="M11 0L12.3225 3.17971L15.7553 3.45492L13.1399 5.69529L13.9389 9.04508L11 7.25L8.06107 9.04508L8.86012 5.69529L6.24472 3.45492L9.67748 3.17971L11 0Z" fill="#FFDC6B"/>
</g>
<path d="M11 1.30198L11.8609 3.37173C11.9329 3.54484 12.0957 3.66313 12.2826 3.67811L14.517 3.85725L12.8146 5.31556C12.6722 5.43754 12.61 5.62892 12.6535 5.8113L13.1736 7.99176L11.2606 6.8233C11.1006 6.72557 10.8994 6.72557 10.7394 6.8233L8.82636 7.99176L9.34648 5.8113C9.38998 5.62892 9.3278 5.43754 9.1854 5.31556L7.48297 3.85725L9.71744 3.67811C9.90433 3.66313 10.0671 3.54484 10.1391 3.37173L11 1.30198Z" stroke="url(#paint2_linear_155_3000)" stroke-linejoin="round"/>
<path d="M13.5 14V10C13.5 9.17157 12.8284 8.5 12 8.5H6.70711C6.12175 8.5 5.56036 8.73253 5.14645 9.14645C4.92007 9.37282 4.61304 9.5 4.29289 9.5H2C1.17157 9.5 0.5 10.1716 0.5 11V14C0.5 14.8284 1.17157 15.5 2 15.5H12C12.8284 15.5 13.5 14.8284 13.5 14Z" fill="url(#paint3_linear_155_3000)" stroke="url(#paint4_linear_155_3000)"/>
<path d="M12.5 10V14C12.5 14.2761 12.2761 14.5 12 14.5H2C1.72386 14.5 1.5 14.2761 1.5 14V11C1.5 10.7239 1.72386 10.5 2 10.5H4.29289C4.87825 10.5 5.43964 10.2675 5.85355 9.85355C6.07993 9.62718 6.38696 9.5 6.70711 9.5H12C12.2761 9.5 12.5 9.72386 12.5 10Z" stroke="white" stroke-opacity="0.5" style="mix-blend-mode:hard-light"/>
<path d="M12.5 10V14C12.5 14.2761 12.2761 14.5 12 14.5H2C1.72386 14.5 1.5 14.2761 1.5 14V11C1.5 10.7239 1.72386 10.5 2 10.5H4.29289C4.87825 10.5 5.43964 10.2675 5.85355 9.85355C6.07993 9.62718 6.38696 9.5 6.70711 9.5H12C12.2761 9.5 12.5 9.72386 12.5 10Z" stroke="white" stroke-opacity="0.5" style="mix-blend-mode:soft-light"/>
</g>
<defs>
<filter id="filter0_i_155_3000" x="6.24469" y="0" width="10.5106" height="10.0451" filterUnits="userSpaceOnUse" color-interpolation-filters="sRGB">
<feFlood flood-opacity="0" result="BackgroundImageFix"/>
<feBlend mode="normal" in="SourceGraphic" in2="BackgroundImageFix" result="shape"/>
<feColorMatrix in="SourceAlpha" type="matrix" values="0 0 0 0 0 0 0 0 0 0 0 0 0 0 0 0 0 0 127 0" result="hardAlpha"/>
<feOffset dx="1" dy="1"/>
<feGaussianBlur stdDeviation="1"/>
<feComposite in2="hardAlpha" operator="arithmetic" k2="-1" k3="1"/>
<feColorMatrix type="matrix" values="0 0 0 0 1 0 0 0 0 1 0 0 0 0 1 0 0 0 1 0"/>
<feBlend mode="hard-light" in2="shape" result="effect1_innerShadow_155_3000"/>
</filter>
<linearGradient id="paint0_linear_155_3000" x1="1" y1="6" x2="13" y2="15" gradientUnits="userSpaceOnUse">
<stop stop-color="#F8E48E"/>
<stop offset="1" stop-color="#F1CD2E"/>
</linearGradient>
<linearGradient id="paint1_linear_155_3000" x1="7" y1="6" x2="7" y2="15" gradientUnits="userSpaceOnUse">
<stop stop-color="#E0C259"/>
<stop offset="1" stop-color="#D98C34"/>
</linearGradient>
<linearGradient id="paint2_linear_155_3000" x1="8" y1="1.33333" x2="14.7204" y2="8.30558" gradientUnits="userSpaceOnUse">
<stop stop-color="#FDC922"/>
<stop offset="0.5" stop-color="#F0B411"/>
<stop offset="1" stop-color="#C88311"/>
</linearGradient>
<linearGradient id="paint3_linear_155_3000" x1="6" y1="9" x2="8" y2="15" gradientUnits="userSpaceOnUse">
<stop stop-color="white" stop-opacity="0.66"/>
<stop offset="1" stop-color="#F1CD2E"/>
</linearGradient>
<linearGradient id="paint4_linear_155_3000" x1="7" y1="9" x2="7" y2="15" gradientUnits="userSpaceOnUse">
<stop stop-color="#DEB04D"/>
<stop offset="1" stop-color="#D98B34"/>
</linearGradient>
<clipPath id="clip0_155_3000">
<rect width="16" height="16" fill="white"/>
</clipPath>
</defs>
</svg>
