<svg width="16" height="16" viewBox="0 0 16 16" fill="none" xmlns="http://www.w3.org/2000/svg">
<path d="M6.14286 5.5H1.85714C1.10761 5.5 0.5 6.10761 0.5 6.85714V14C0.5 14.8284 1.17157 15.5 2 15.5H12C12.8284 15.5 13.5 14.8284 13.5 14V8C13.5 7.17157 12.8284 6.5 12 6.5H7.45252C7.29574 5.92374 6.76878 5.5 6.14286 5.5Z" fill="url(#paint0_linear_155_2523)" stroke="url(#paint1_linear_155_2523)"/>
<path d="M1.85714 6.5H6.14286C6.3401 6.5 6.5 6.6599 6.5 6.85714C6.5 7.21218 6.78782 7.5 7.14286 7.5H12C12.2761 7.5 12.5 7.72386 12.5 8V14C12.5 14.2761 12.2761 14.5 12 14.5H2C1.72386 14.5 1.5 14.2761 1.5 14V6.85714C1.5 6.6599 1.6599 6.5 1.85714 6.5Z" stroke="white" stroke-opacity="0.5" stroke-linejoin="round" style="mix-blend-mode:soft-light"/>
<path d="M1.85714 6.5H6.14286C6.3401 6.5 6.5 6.6599 6.5 6.85714C6.5 7.21218 6.78782 7.5 7.14286 7.5H12C12.2761 7.5 12.5 7.72386 12.5 8V14C12.5 14.2761 12.2761 14.5 12 14.5H2C1.72386 14.5 1.5 14.2761 1.5 14V6.85714C1.5 6.6599 1.6599 6.5 1.85714 6.5Z" stroke="white" stroke-opacity="0.5" stroke-linejoin="round" style="mix-blend-mode:hard-light"/>
<path d="M7 5.54822L11 7.54822V10.5482L7 8.54822V5.54822Z" fill="url(#paint2_linear_155_2523)"/>
<path d="M15 5.54822L11 7.54822V10.5482L15 8.54822V5.54822Z" fill="#C4C4C4"/>
<path d="M11 3.54822L7 5.54822L11 7.54822L15 5.54822L11 3.54822Z" fill="#C7C7C7"/>
<path d="M10.7764 10.9954L11 11.1072L11.2236 10.9954L15.2236 8.99543L15.5 8.85723V8.54822V5.54822V5.2392L15.2236 5.101L11.2236 3.101L11 2.9892L10.7764 3.101L6.77639 5.101L6.5 5.2392V5.54822V8.54822V8.85723L6.77639 8.99543L10.7764 10.9954Z" stroke="url(#paint3_linear_155_2523)"/>
<g filter="url(#filter0_d_155_2523)">
<ellipse cx="11" cy="3.54822" rx="1" ry="0.5" fill="#F2F2F2"/>
<path d="M11 4.54822C11.3369 4.54822 11.6667 4.481 11.9307 4.34898C12.1648 4.23193 12.5 3.9777 12.5 3.54822C12.5 3.11873 12.1648 2.86451 11.9307 2.74745C11.6667 2.61544 11.3369 2.54822 11 2.54822C10.6631 2.54822 10.3333 2.61544 10.0693 2.74745C9.83517 2.86451 9.5 3.11873 9.5 3.54822C9.5 3.9777 9.83517 4.23193 10.0693 4.34898C10.3333 4.481 10.6631 4.54822 11 4.54822Z" stroke="url(#paint4_linear_155_2523)"/>
</g>
<g filter="url(#filter1_d_155_2523)">
<ellipse cx="9" cy="4.54822" rx="1" ry="0.5" fill="#F2F2F2"/>
<path d="M9 5.54822C9.33693 5.54822 9.66669 5.481 9.93071 5.34898C10.1648 5.23193 10.5 4.9777 10.5 4.54822C10.5 4.11873 10.1648 3.86451 9.93071 3.74745C9.66669 3.61544 9.33693 3.54822 9 3.54822C8.66307 3.54822 8.33331 3.61544 8.06929 3.74745C7.83517 3.86451 7.5 4.11873 7.5 4.54822C7.5 4.9777 7.83517 5.23193 8.06929 5.34898C8.33331 5.481 8.66307 5.54822 9 5.54822Z" stroke="url(#paint5_linear_155_2523)"/>
</g>
<g filter="url(#filter2_d_155_2523)">
<ellipse cx="13" cy="4.54822" rx="1" ry="0.5" fill="#F2F2F2"/>
<path d="M13 5.54822C13.3369 5.54822 13.6667 5.481 13.9307 5.34898C14.1648 5.23193 14.5 4.9777 14.5 4.54822C14.5 4.11873 14.1648 3.86451 13.9307 3.74745C13.6667 3.61544 13.3369 3.54822 13 3.54822C12.6631 3.54822 12.3333 3.61544 12.0693 3.74745C11.8352 3.86451 11.5 4.11873 11.5 4.54822C11.5 4.9777 11.8352 5.23193 12.0693 5.34898C12.3333 5.481 12.6631 5.54822 13 5.54822Z" stroke="url(#paint6_linear_155_2523)"/>
</g>
<g filter="url(#filter3_d_155_2523)">
<ellipse cx="11" cy="5.54822" rx="1" ry="0.5" fill="#F2F2F2"/>
<path d="M11 6.54822C11.3369 6.54822 11.6667 6.481 11.9307 6.34898C12.1648 6.23193 12.5 5.9777 12.5 5.54822C12.5 5.11873 12.1648 4.86451 11.9307 4.74745C11.6667 4.61544 11.3369 4.54822 11 4.54822C10.6631 4.54822 10.3333 4.61544 10.0693 4.74745C9.83517 4.86451 9.5 5.11873 9.5 5.54822C9.5 5.9777 9.83517 6.23193 10.0693 6.34898C10.3333 6.481 10.6631 6.54822 11 6.54822Z" stroke="url(#paint7_linear_155_2523)"/>
</g>
<path d="M13.5 14V10C13.5 9.17157 12.8284 8.5 12 8.5H6.70711C6.12175 8.5 5.56036 8.73253 5.14645 9.14645C4.92007 9.37282 4.61304 9.5 4.29289 9.5H2C1.17157 9.5 0.5 10.1716 0.5 11V14C0.5 14.8284 1.17157 15.5 2 15.5H12C12.8284 15.5 13.5 14.8284 13.5 14Z" fill="url(#paint8_linear_155_2523)" stroke="url(#paint9_linear_155_2523)"/>
<path d="M12.5 10V14C12.5 14.2761 12.2761 14.5 12 14.5H2C1.72386 14.5 1.5 14.2761 1.5 14V11C1.5 10.7239 1.72386 10.5 2 10.5H4.29289C4.87825 10.5 5.43964 10.2675 5.85355 9.85355C6.07993 9.62718 6.38696 9.5 6.70711 9.5H12C12.2761 9.5 12.5 9.72386 12.5 10Z" stroke="white" stroke-opacity="0.5" style="mix-blend-mode:hard-light"/>
<path d="M12.5 10V14C12.5 14.2761 12.2761 14.5 12 14.5H2C1.72386 14.5 1.5 14.2761 1.5 14V11C1.5 10.7239 1.72386 10.5 2 10.5H4.29289C4.87825 10.5 5.43964 10.2675 5.85355 9.85355C6.07993 9.62718 6.38696 9.5 6.70711 9.5H12C12.2761 9.5 12.5 9.72386 12.5 10Z" stroke="white" stroke-opacity="0.5" style="mix-blend-mode:soft-light"/>
<defs>
<filter id="filter0_d_155_2523" x="9" y="2.04822" width="4" height="3.5" filterUnits="userSpaceOnUse" color-interpolation-filters="sRGB">
<feFlood flood-opacity="0" result="BackgroundImageFix"/>
<feColorMatrix in="SourceAlpha" type="matrix" values="0 0 0 0 0 0 0 0 0 0 0 0 0 0 0 0 0 0 127 0" result="hardAlpha"/>
<feOffset dy="0.5"/>
<feComposite in2="hardAlpha" operator="out"/>
<feColorMatrix type="matrix" values="0 0 0 0 0.876 0 0 0 0 0.876 0 0 0 0 0.876 0 0 0 1 0"/>
<feBlend mode="normal" in2="BackgroundImageFix" result="effect1_dropShadow_155_2523"/>
<feBlend mode="normal" in="SourceGraphic" in2="effect1_dropShadow_155_2523" result="shape"/>
</filter>
<filter id="filter1_d_155_2523" x="7" y="3.04822" width="4" height="3.5" filterUnits="userSpaceOnUse" color-interpolation-filters="sRGB">
<feFlood flood-opacity="0" result="BackgroundImageFix"/>
<feColorMatrix in="SourceAlpha" type="matrix" values="0 0 0 0 0 0 0 0 0 0 0 0 0 0 0 0 0 0 127 0" result="hardAlpha"/>
<feOffset dy="0.5"/>
<feComposite in2="hardAlpha" operator="out"/>
<feColorMatrix type="matrix" values="0 0 0 0 0.876 0 0 0 0 0.876 0 0 0 0 0.876 0 0 0 1 0"/>
<feBlend mode="normal" in2="BackgroundImageFix" result="effect1_dropShadow_155_2523"/>
<feBlend mode="normal" in="SourceGraphic" in2="effect1_dropShadow_155_2523" result="shape"/>
</filter>
<filter id="filter2_d_155_2523" x="11" y="3.04822" width="4" height="3.5" filterUnits="userSpaceOnUse" color-interpolation-filters="sRGB">
<feFlood flood-opacity="0" result="BackgroundImageFix"/>
<feColorMatrix in="SourceAlpha" type="matrix" values="0 0 0 0 0 0 0 0 0 0 0 0 0 0 0 0 0 0 127 0" result="hardAlpha"/>
<feOffset dy="0.5"/>
<feComposite in2="hardAlpha" operator="out"/>
<feColorMatrix type="matrix" values="0 0 0 0 0.876 0 0 0 0 0.876 0 0 0 0 0.876 0 0 0 1 0"/>
<feBlend mode="normal" in2="BackgroundImageFix" result="effect1_dropShadow_155_2523"/>
<feBlend mode="normal" in="SourceGraphic" in2="effect1_dropShadow_155_2523" result="shape"/>
</filter>
<filter id="filter3_d_155_2523" x="9" y="4.04822" width="4" height="3.5" filterUnits="userSpaceOnUse" color-interpolation-filters="sRGB">
<feFlood flood-opacity="0" result="BackgroundImageFix"/>
<feColorMatrix in="SourceAlpha" type="matrix" values="0 0 0 0 0 0 0 0 0 0 0 0 0 0 0 0 0 0 127 0" result="hardAlpha"/>
<feOffset dy="0.5"/>
<feComposite in2="hardAlpha" operator="out"/>
<feColorMatrix type="matrix" values="0 0 0 0 0.876 0 0 0 0 0.876 0 0 0 0 0.876 0 0 0 1 0"/>
<feBlend mode="normal" in2="BackgroundImageFix" result="effect1_dropShadow_155_2523"/>
<feBlend mode="normal" in="SourceGraphic" in2="effect1_dropShadow_155_2523" result="shape"/>
</filter>
<linearGradient id="paint0_linear_155_2523" x1="1" y1="6" x2="13" y2="15" gradientUnits="userSpaceOnUse">
<stop stop-color="#F8E48E"/>
<stop offset="1" stop-color="#F1CD2E"/>
</linearGradient>
<linearGradient id="paint1_linear_155_2523" x1="7" y1="6" x2="7" y2="15" gradientUnits="userSpaceOnUse">
<stop stop-color="#E0C259"/>
<stop offset="1" stop-color="#D98C34"/>
</linearGradient>
<linearGradient id="paint2_linear_155_2523" x1="7" y1="9.04822" x2="10.9673" y2="9.40849" gradientUnits="userSpaceOnUse">
<stop stop-color="white"/>
<stop offset="1" stop-color="#E2E2E2"/>
</linearGradient>
<linearGradient id="paint3_linear_155_2523" x1="7.09375" y1="3.54822" x2="14.4822" y2="11.0577" gradientUnits="userSpaceOnUse">
<stop stop-color="#D9D9D9"/>
<stop offset="1" stop-color="#B5B5B5"/>
</linearGradient>
<linearGradient id="paint4_linear_155_2523" x1="11" y1="3.04822" x2="11" y2="4.04822" gradientUnits="userSpaceOnUse">
<stop offset="0.245" stop-color="#B5B5B5"/>
<stop offset="1" stop-color="#C4C4C4"/>
</linearGradient>
<linearGradient id="paint5_linear_155_2523" x1="9" y1="4.04822" x2="9" y2="5.04822" gradientUnits="userSpaceOnUse">
<stop offset="0.245" stop-color="#B5B5B5"/>
<stop offset="1" stop-color="#C4C4C4"/>
</linearGradient>
<linearGradient id="paint6_linear_155_2523" x1="13" y1="4.04822" x2="13" y2="5.04822" gradientUnits="userSpaceOnUse">
<stop offset="0.245" stop-color="#B5B5B5"/>
<stop offset="1" stop-color="#C4C4C4"/>
</linearGradient>
<linearGradient id="paint7_linear_155_2523" x1="11" y1="5.04822" x2="11" y2="6.04822" gradientUnits="userSpaceOnUse">
<stop offset="0.245" stop-color="#B5B5B5"/>
<stop offset="1" stop-color="#C4C4C4"/>
</linearGradient>
<linearGradient id="paint8_linear_155_2523" x1="6" y1="9" x2="8" y2="15" gradientUnits="userSpaceOnUse">
<stop stop-color="white" stop-opacity="0.66"/>
<stop offset="1" stop-color="#F1CD2E"/>
</linearGradient>
<linearGradient id="paint9_linear_155_2523" x1="7" y1="9" x2="7" y2="15" gradientUnits="userSpaceOnUse">
<stop stop-color="#DEB04D"/>
<stop offset="1" stop-color="#D98B34"/>
</linearGradient>
</defs>
</svg>
