<svg width="16" height="16" viewBox="0 0 16 16" fill="none" xmlns="http://www.w3.org/2000/svg">
<g clip-path="url(#clip0_329_14162)">
<path d="M7.14286 5.5H2.85714C2.10761 5.5 1.5 6.10761 1.5 6.85714V14C1.5 14.8284 2.17157 15.5 3 15.5H13C13.8284 15.5 14.5 14.8284 14.5 14V8C14.5 7.17157 13.8284 6.5 13 6.5H8.45252C8.29574 5.92374 7.76878 5.5 7.14286 5.5Z" fill="url(#paint0_linear_329_14162)" stroke="url(#paint1_linear_329_14162)"/>
<path d="M2.85714 6.5H7.14286C7.3401 6.5 7.5 6.6599 7.5 6.85714C7.5 7.21218 7.78782 7.5 8.14286 7.5H13C13.2761 7.5 13.5 7.72386 13.5 8V14C13.5 14.2761 13.2761 14.5 13 14.5H3C2.72386 14.5 2.5 14.2761 2.5 14V6.85714C2.5 6.6599 2.6599 6.5 2.85714 6.5Z" stroke="white" stroke-opacity="0.5" stroke-linejoin="round" style="mix-blend-mode:soft-light"/>
<path d="M2.85714 6.5H7.14286C7.3401 6.5 7.5 6.6599 7.5 6.85714C7.5 7.21218 7.78782 7.5 8.14286 7.5H13C13.2761 7.5 13.5 7.72386 13.5 8V14C13.5 14.2761 13.2761 14.5 13 14.5H3C2.72386 14.5 2.5 14.2761 2.5 14V6.85714C2.5 6.6599 2.6599 6.5 2.85714 6.5Z" stroke="white" stroke-opacity="0.5" stroke-linejoin="round" style="mix-blend-mode:hard-light"/>
<mask id="path-3-outside-1_329_14162" maskUnits="userSpaceOnUse" x="5" y="0" width="12" height="11" fill="black">
<rect fill="white" x="5" width="12" height="11"/>
<path fill-rule="evenodd" clip-rule="evenodd" d="M15.0023 4.80801C15.0801 6.26173 14.1395 7.40526 13.3549 8.26971C12.5702 9.13417 10.2346 10.5036 9.57561 9.81123C9.25217 9.47143 9.2126 9.09025 9.17302 8.70902C9.13231 8.31689 9.0916 7.9247 8.74197 7.57737C8.40015 7.23781 7.92483 7.11009 7.4496 6.98239C6.98375 6.85722 6.51799 6.73207 6.17815 6.40742C5.48863 5.74873 6.96886 3.59532 7.75349 2.73086C8.53812 1.8664 9.66255 1 11.0484 1C11.7074 1 12.5606 1.0311 13.4602 1.92318C14.3719 2.8273 14.9417 3.67395 15.0023 4.80801ZM10 7C10.5523 7 11 6.55228 11 6C11 5.44772 10.5523 5 10 5C9.44772 5 9 5.44772 9 6C9 6.55228 9.44772 7 10 7Z"/>
</mask>
<path fill-rule="evenodd" clip-rule="evenodd" d="M15.0023 4.80801C15.0801 6.26173 14.1395 7.40526 13.3549 8.26971C12.5702 9.13417 10.2346 10.5036 9.57561 9.81123C9.25217 9.47143 9.2126 9.09025 9.17302 8.70902C9.13231 8.31689 9.0916 7.9247 8.74197 7.57737C8.40015 7.23781 7.92483 7.11009 7.4496 6.98239C6.98375 6.85722 6.51799 6.73207 6.17815 6.40742C5.48863 5.74873 6.96886 3.59532 7.75349 2.73086C8.53812 1.8664 9.66255 1 11.0484 1C11.7074 1 12.5606 1.0311 13.4602 1.92318C14.3719 2.8273 14.9417 3.67395 15.0023 4.80801ZM10 7C10.5523 7 11 6.55228 11 6C11 5.44772 10.5523 5 10 5C9.44772 5 9 5.44772 9 6C9 6.55228 9.44772 7 10 7Z" fill="url(#paint2_linear_329_14162)"/>
<path d="M13.3549 8.26971L12.6144 7.59762V7.59762L13.3549 8.26971ZM15.0023 4.80801L16.0009 4.75461V4.75461L15.0023 4.80801ZM9.57561 9.81123L10.2999 9.12179L10.2999 9.12179L9.57561 9.81123ZM9.17302 8.70902L10.1677 8.60576L9.17302 8.70902ZM8.74197 7.57737L8.0372 8.28681L8.74197 7.57737ZM7.4496 6.98239L7.7091 6.01665L7.70909 6.01665L7.4496 6.98239ZM6.17815 6.40742L6.86891 5.68434L6.86891 5.68434L6.17815 6.40742ZM7.75349 2.73086L8.49396 3.40295V3.40295L7.75349 2.73086ZM13.4602 1.92318L14.1643 1.21311V1.21311L13.4602 1.92318ZM14.0953 8.94181C14.8613 8.0979 16.1033 6.6693 16.0009 4.75461L14.0038 4.8614C14.0569 5.85417 13.4177 6.71262 12.6144 7.59762L14.0953 8.94181ZM8.85128 10.5007C9.35357 11.0284 10.0418 11.0336 10.47 10.9747C10.9368 10.9105 11.4199 10.7309 11.8479 10.5272C12.6965 10.1232 13.5937 9.4945 14.0953 8.94181L12.6144 7.59762C12.3314 7.90939 11.6684 8.39759 10.9883 8.72135C10.652 8.88147 10.3785 8.96846 10.1976 8.99333C9.97798 9.02352 10.1271 8.94024 10.2999 9.12179L8.85128 10.5007ZM8.17837 8.81228C8.21581 9.17299 8.2664 9.88621 8.85128 10.5007L10.2999 9.12179C10.2627 9.08264 10.2434 9.04772 10.2262 8.99001C10.202 8.90881 10.189 8.81156 10.1677 8.60576L8.17837 8.81228ZM8.0372 8.28681C8.08126 8.33058 8.10099 8.36695 8.11807 8.42214C8.14306 8.50285 8.15636 8.60025 8.17837 8.81228L10.1677 8.60576C10.1287 8.23071 10.0761 7.49313 9.44673 6.86793L8.0372 8.28681ZM7.1901 7.94814C7.72045 8.09064 7.9168 8.1672 8.0372 8.28681L9.44673 6.86793C8.8835 6.30841 8.12921 6.12953 7.7091 6.01665L7.1901 7.94814ZM5.48739 7.13051C6.04422 7.66244 6.77748 7.83726 7.1901 7.94814L7.70909 6.01665C7.19003 5.87717 6.99176 5.8017 6.86891 5.68434L5.48739 7.13051ZM7.01302 2.05877C6.57331 2.54322 5.95479 3.36644 5.5273 4.18209C5.31627 4.58471 5.11808 5.04828 5.03813 5.50375C4.9629 5.93229 4.95258 6.61961 5.48739 7.13051L6.86891 5.68434C7.05896 5.86589 6.9751 6.03702 7.00801 5.84953C7.03619 5.68897 7.12781 5.43664 7.29874 5.11052C7.63514 4.46868 8.14904 3.78296 8.49396 3.40295L7.01302 2.05877ZM11.0484 0C9.23555 0 7.8608 1.12473 7.01302 2.05877L8.49396 3.40295C9.21544 2.60807 10.0895 2 11.0484 2V0ZM14.1643 1.21311C13.5981 0.651627 13.0149 0.333907 12.4446 0.167219C11.8902 0.00518799 11.3899 0 11.0484 0V2C11.366 2 11.6217 2.01036 11.8835 2.0869C12.1295 2.15878 12.4227 2.30265 12.756 2.63324L14.1643 1.21311ZM16.0009 4.75461C15.9208 3.25561 15.146 2.18662 14.1643 1.21311L12.756 2.63324C13.5978 3.46797 13.9626 4.09229 14.0038 4.8614L16.0009 4.75461ZM10 6V8C11.1046 8 12 7.10457 12 6H10ZM10 6H12C12 4.89543 11.1046 4 10 4V6ZM10 6V4C8.89543 4 8 4.89543 8 6H10ZM10 6H8C8 7.10457 8.89543 8 10 8V6Z" fill="url(#paint3_linear_329_14162)" mask="url(#path-3-outside-1_329_14162)"/>
<mask id="path-5-inside-2_329_14162" fill="white">
<path fill-rule="evenodd" clip-rule="evenodd" d="M15.0023 4.80801C15.0801 6.26173 14.1395 7.40526 13.3549 8.26971C12.5702 9.13417 10.2346 10.5036 9.57561 9.81123C9.25217 9.47143 9.2126 9.09025 9.17302 8.70902C9.13231 8.31689 9.0916 7.9247 8.74197 7.57737C8.40015 7.23781 7.92483 7.11009 7.4496 6.98239C6.98375 6.85722 6.51799 6.73207 6.17815 6.40742C5.48863 5.74873 6.96886 3.59532 7.75349 2.73086C8.53812 1.8664 9.66255 1 11.0484 1C11.7074 1 12.5606 1.0311 13.4602 1.92318C14.3719 2.8273 14.9417 3.67395 15.0023 4.80801ZM10 7C10.5523 7 11 6.55228 11 6C11 5.44772 10.5523 5 10 5C9.44772 5 9 5.44772 9 6C9 6.55228 9.44772 7 10 7Z"/>
</mask>
<path d="M13.3549 8.26971L12.6144 7.59762V7.59762L13.3549 8.26971ZM15.0023 4.80801L16.0009 4.75461V4.75461L15.0023 4.80801ZM9.57561 9.81123L10.2999 9.12179L10.2999 9.12179L9.57561 9.81123ZM9.17302 8.70902L10.1677 8.60576L9.17302 8.70902ZM8.74197 7.57737L8.0372 8.28681L8.74197 7.57737ZM7.4496 6.98239L7.7091 6.01665L7.70909 6.01665L7.4496 6.98239ZM6.17815 6.40742L6.86891 5.68434L6.86891 5.68434L6.17815 6.40742ZM7.75349 2.73086L8.49396 3.40295V3.40295L7.75349 2.73086ZM13.4602 1.92318L14.1643 1.21311V1.21311L13.4602 1.92318ZM14.0953 8.94181C14.8613 8.0979 16.1033 6.6693 16.0009 4.75461L14.0038 4.8614C14.0569 5.85417 13.4177 6.71262 12.6144 7.59762L14.0953 8.94181ZM8.85128 10.5007C9.35357 11.0284 10.0418 11.0336 10.47 10.9747C10.9368 10.9105 11.4199 10.7309 11.8479 10.5272C12.6965 10.1232 13.5937 9.4945 14.0953 8.94181L12.6144 7.59762C12.3314 7.90939 11.6684 8.39759 10.9883 8.72135C10.652 8.88147 10.3785 8.96846 10.1976 8.99333C9.97798 9.02352 10.1271 8.94024 10.2999 9.12179L8.85128 10.5007ZM8.17837 8.81228C8.21581 9.17299 8.2664 9.88621 8.85128 10.5007L10.2999 9.12179C10.2627 9.08264 10.2434 9.04772 10.2262 8.99001C10.202 8.90881 10.189 8.81156 10.1677 8.60576L8.17837 8.81228ZM8.0372 8.28681C8.08126 8.33058 8.10099 8.36695 8.11807 8.42214C8.14306 8.50285 8.15636 8.60025 8.17837 8.81228L10.1677 8.60576C10.1287 8.23071 10.0761 7.49313 9.44673 6.86793L8.0372 8.28681ZM7.1901 7.94814C7.72045 8.09064 7.9168 8.1672 8.0372 8.28681L9.44673 6.86793C8.8835 6.30841 8.12921 6.12953 7.7091 6.01665L7.1901 7.94814ZM5.48739 7.13051C6.04422 7.66244 6.77748 7.83726 7.1901 7.94814L7.70909 6.01665C7.19003 5.87717 6.99176 5.8017 6.86891 5.68434L5.48739 7.13051ZM7.01302 2.05877C6.57331 2.54322 5.95479 3.36644 5.5273 4.18209C5.31627 4.58471 5.11808 5.04828 5.03813 5.50375C4.9629 5.93229 4.95258 6.61961 5.48739 7.13051L6.86891 5.68434C7.05896 5.86589 6.9751 6.03702 7.00801 5.84953C7.03619 5.68897 7.12781 5.43664 7.29874 5.11052C7.63514 4.46868 8.14904 3.78296 8.49396 3.40295L7.01302 2.05877ZM11.0484 0C9.23555 0 7.8608 1.12473 7.01302 2.05877L8.49396 3.40295C9.21544 2.60807 10.0895 2 11.0484 2V0ZM14.1643 1.21311C13.5981 0.651627 13.0149 0.333907 12.4446 0.167219C11.8902 0.00518799 11.3899 0 11.0484 0V2C11.366 2 11.6217 2.01036 11.8835 2.0869C12.1295 2.15878 12.4227 2.30265 12.756 2.63324L14.1643 1.21311ZM16.0009 4.75461C15.9208 3.25561 15.146 2.18662 14.1643 1.21311L12.756 2.63324C13.5978 3.46797 13.9626 4.09229 14.0038 4.8614L16.0009 4.75461ZM10 6V8C11.1046 8 12 7.10457 12 6H10ZM10 6H12C12 4.89543 11.1046 4 10 4V6ZM10 6V4C8.89543 4 8 4.89543 8 6H10ZM10 6H8C8 7.10457 8.89543 8 10 8V6Z" fill="white" fill-opacity="0.33" mask="url(#path-5-inside-2_329_14162)"/>
<circle cx="7" cy="5" r="0.5" fill="#F58582" stroke="url(#paint4_linear_329_14162)"/>
<circle cx="9" cy="4" r="0.5" fill="#FFC06D" stroke="url(#paint5_linear_329_14162)"/>
<circle cx="11" cy="3" r="0.5" fill="#FFE26D" stroke="url(#paint6_linear_329_14162)"/>
<circle cx="13" cy="4" r="0.5" fill="#98C861" stroke="#7BB83C"/>
<circle cx="13" cy="6" r="0.5" fill="#5BB6C5" stroke="#2798AD"/>
<path d="M14.5 14V10C14.5 9.17157 13.8284 8.5 13 8.5H7.70711C7.12175 8.5 6.56036 8.73253 6.14645 9.14645C5.92007 9.37282 5.61304 9.5 5.29289 9.5H3C2.17157 9.5 1.5 10.1716 1.5 11V14C1.5 14.8284 2.17157 15.5 3 15.5H13C13.8284 15.5 14.5 14.8284 14.5 14Z" fill="url(#paint7_linear_329_14162)" stroke="url(#paint8_linear_329_14162)"/>
<path d="M13.5 10V14C13.5 14.2761 13.2761 14.5 13 14.5H3C2.72386 14.5 2.5 14.2761 2.5 14V11C2.5 10.7239 2.72386 10.5 3 10.5H5.29289C5.87825 10.5 6.43964 10.2675 6.85355 9.85355C7.07993 9.62718 7.38696 9.5 7.70711 9.5H13C13.2761 9.5 13.5 9.72386 13.5 10Z" stroke="white" stroke-opacity="0.5" style="mix-blend-mode:hard-light"/>
<path d="M13.5 10V14C13.5 14.2761 13.2761 14.5 13 14.5H3C2.72386 14.5 2.5 14.2761 2.5 14V11C2.5 10.7239 2.72386 10.5 3 10.5H5.29289C5.87825 10.5 6.43964 10.2675 6.85355 9.85355C7.07993 9.62718 7.38696 9.5 7.70711 9.5H13C13.2761 9.5 13.5 9.72386 13.5 10Z" stroke="white" stroke-opacity="0.5" style="mix-blend-mode:soft-light"/>
</g>
<defs>
<linearGradient id="paint0_linear_329_14162" x1="2" y1="6" x2="14" y2="15" gradientUnits="userSpaceOnUse">
<stop stop-color="#F8E48E"/>
<stop offset="1" stop-color="#F1CD2E"/>
</linearGradient>
<linearGradient id="paint1_linear_329_14162" x1="8" y1="6" x2="8" y2="15" gradientUnits="userSpaceOnUse">
<stop stop-color="#E0C259"/>
<stop offset="1" stop-color="#D98C34"/>
</linearGradient>
<linearGradient id="paint2_linear_329_14162" x1="10.5034" y1="1" x2="10.5034" y2="10.0002" gradientUnits="userSpaceOnUse">
<stop stop-color="#E8B180"/>
<stop offset="1" stop-color="#DF9259"/>
</linearGradient>
<linearGradient id="paint3_linear_329_14162" x1="10.5034" y1="1" x2="10.5034" y2="10.0002" gradientUnits="userSpaceOnUse">
<stop stop-color="#D0905C" stop-opacity="0.823529"/>
<stop offset="1" stop-color="#9F641D"/>
</linearGradient>
<linearGradient id="paint4_linear_329_14162" x1="8" y1="5" x2="6" y2="5" gradientUnits="userSpaceOnUse">
<stop stop-color="#F04141"/>
<stop offset="1" stop-color="#F6756F"/>
</linearGradient>
<linearGradient id="paint5_linear_329_14162" x1="10" y1="4" x2="8" y2="4" gradientUnits="userSpaceOnUse">
<stop stop-color="#FEA733"/>
<stop offset="1" stop-color="#FFA42C"/>
</linearGradient>
<linearGradient id="paint6_linear_329_14162" x1="11" y1="2" x2="11" y2="4" gradientUnits="userSpaceOnUse">
<stop stop-color="#FFD52B"/>
<stop offset="1" stop-color="#FBCE3B"/>
</linearGradient>
<linearGradient id="paint7_linear_329_14162" x1="7" y1="9" x2="9" y2="15" gradientUnits="userSpaceOnUse">
<stop stop-color="white" stop-opacity="0.66"/>
<stop offset="1" stop-color="#F1CD2E"/>
</linearGradient>
<linearGradient id="paint8_linear_329_14162" x1="8" y1="9" x2="8" y2="15" gradientUnits="userSpaceOnUse">
<stop stop-color="#DEB04D"/>
<stop offset="1" stop-color="#D98B34"/>
</linearGradient>
<clipPath id="clip0_329_14162">
<rect width="16" height="16" fill="white"/>
</clipPath>
</defs>
</svg>
