<svg width="16" height="16" viewBox="0 0 16 16" fill="none" xmlns="http://www.w3.org/2000/svg">
<g clip-path="url(#clip0_280_5962)">
<path d="M6.14286 5.5H1.85714C1.10761 5.5 0.5 6.10761 0.5 6.85714V14C0.5 14.8284 1.17157 15.5 2 15.5H12C12.8284 15.5 13.5 14.8284 13.5 14V8C13.5 7.17157 12.8284 6.5 12 6.5H7.45252C7.29574 5.92374 6.76878 5.5 6.14286 5.5Z" fill="url(#paint0_linear_280_5962)" stroke="url(#paint1_linear_280_5962)"/>
<path d="M1.85714 6.5H6.14286C6.3401 6.5 6.5 6.6599 6.5 6.85714C6.5 7.21218 6.78782 7.5 7.14286 7.5H12C12.2761 7.5 12.5 7.72386 12.5 8V14C12.5 14.2761 12.2761 14.5 12 14.5H2C1.72386 14.5 1.5 14.2761 1.5 14V6.85714C1.5 6.6599 1.6599 6.5 1.85714 6.5Z" stroke="white" stroke-opacity="0.5" stroke-linejoin="round" style="mix-blend-mode:soft-light"/>
<path d="M1.85714 6.5H6.14286C6.3401 6.5 6.5 6.6599 6.5 6.85714C6.5 7.21218 6.78782 7.5 7.14286 7.5H12C12.2761 7.5 12.5 7.72386 12.5 8V14C12.5 14.2761 12.2761 14.5 12 14.5H2C1.72386 14.5 1.5 14.2761 1.5 14V6.85714C1.5 6.6599 1.6599 6.5 1.85714 6.5Z" stroke="white" stroke-opacity="0.5" stroke-linejoin="round" style="mix-blend-mode:hard-light"/>
<path d="M7.20495 7.58549L7.20591 7.58619L7.22053 7.59682L7.2351 7.60741L7.2496 7.61796L7.26405 7.62847L7.27844 7.63894L7.29278 7.64936L7.30706 7.65975L7.32128 7.67009L7.33545 7.68039L7.34956 7.69065L7.36361 7.70087L7.37761 7.71105L7.39155 7.72119L7.40544 7.73129L7.41927 7.74135L7.43304 7.75137L7.44676 7.76135L7.46042 7.77129L7.47403 7.78118L7.48759 7.79104L7.50109 7.80086L7.51453 7.81064L7.52792 7.82037L7.54125 7.83007L7.55453 7.83973L7.56776 7.84935L7.58093 7.85893L7.59405 7.86847L7.60711 7.87797L7.62012 7.88743L7.63308 7.89685L7.64598 7.90623L7.65883 7.91558L7.67162 7.92488L7.68436 7.93415L7.69705 7.94337L7.70968 7.95256L7.72226 7.96171L7.73479 7.97082L7.74727 7.9799L7.75969 7.98893L7.77206 7.99793L7.78438 8.00689L7.79664 8.01581L7.80886 8.02469L7.82102 8.03353L7.83312 8.04234L7.84518 8.05111L7.85719 8.05984L7.86914 8.06853L7.88104 8.07719L7.89289 8.0858L7.90469 8.09439L7.91644 8.10293L7.92813 8.11144L7.93978 8.1199L7.95137 8.12834L7.96291 8.13673L7.97441 8.14509L7.98585 8.15341L7.99724 8.16169L8.00858 8.16994L8.01987 8.17815L8.03111 8.18633L8.0423 8.19447L8.05344 8.20257L8.06453 8.21063L8.07557 8.21866L8.08656 8.22666L8.0975 8.23461L8.1084 8.24254L8.11924 8.25042L8.13003 8.25827L8.14078 8.26609L8.15147 8.27387L8.16212 8.28161L8.17272 8.28932L8.18327 8.29699L8.19377 8.30463L8.20422 8.31223L8.21462 8.31979L8.22498 8.32733L8.23529 8.33482L8.24555 8.34228L8.25576 8.34971L8.26593 8.3571L8.27604 8.36446L8.28611 8.37179L8.29613 8.37907L8.30611 8.38633L8.31604 8.39355L8.32592 8.40073L8.33575 8.40789L8.34554 8.415L8.35528 8.42209L8.36497 8.42914L8.37462 8.43615L8.38422 8.44314L8.39377 8.45008L8.40328 8.457L8.41274 8.46388L8.42216 8.47073L8.43153 8.47754L8.44086 8.48433L8.45013 8.49107L8.45937 8.49779L8.46856 8.50447L8.4777 8.51112L8.4868 8.51774L8.49585 8.52432L8.50486 8.53087L8.51382 8.53739L8.52274 8.54388L8.53161 8.55033L8.54044 8.55675L8.54923 8.56314L8.55797 8.5695L8.56666 8.57582L8.57532 8.58212L8.58393 8.58838L8.59249 8.59461L8.60101 8.6008L8.60949 8.60697L8.61792 8.6131L8.62631 8.6192L8.63466 8.62528L8.64297 8.63131L8.65123 8.63732L8.65945 8.6433L8.66762 8.64925L8.67575 8.65516L8.68384 8.66104L8.69189 8.6669L8.6999 8.67272L8.70786 8.67851L8.71578 8.68427L8.72366 8.69L8.7315 8.6957L8.73929 8.70137L8.74705 8.70701L8.75476 8.71262L8.76243 8.7182L8.77006 8.72375L8.77765 8.72926L8.78519 8.73475L8.7927 8.74021L8.80016 8.74564L8.80759 8.75104L8.81497 8.75641L8.82231 8.76175L8.82962 8.76706L8.83688 8.77234L8.8441 8.77759L8.85128 8.78282L8.85842 8.78801L8.86553 8.79318L8.87259 8.79831L8.87961 8.80342L8.88659 8.8085L8.89354 8.81355L8.90044 8.81857L8.90731 8.82356L8.91413 8.82853L8.92092 8.83346L8.92767 8.83837L8.93437 8.84325L8.94104 8.8481L8.94768 8.85292L8.95427 8.85772L8.96082 8.86248L8.96734 8.86722L8.97382 8.87194L8.98026 8.87662L8.98666 8.88128L8.99303 8.88591L8.99936 8.89051L9.00565 8.89508L9.0119 8.89963L9.01811 8.90415L9.02429 8.90864L9.03043 8.91311L9.03654 8.91755L9.0426 8.92196L9.04863 8.92634L9.05463 8.9307L9.06058 8.93504L9.0665 8.93934L9.07239 8.94362L9.07824 8.94787L9.08405 8.9521L9.08982 8.9563L9.09556 8.96048L9.10127 8.96462L9.10694 8.96875L9.11257 8.97284L9.11817 8.97691L9.12373 8.98096L9.12926 8.98498L9.13475 8.98897L9.1402 8.99294L9.14563 8.99689L9.15101 9.0008L9.15637 9.0047L9.16168 9.00856L9.16697 9.01241L9.17222 9.01622L9.17743 9.02002L9.18261 9.02379L9.18776 9.02753L9.19287 9.03125L9.19795 9.03494L9.203 9.03861L9.20801 9.04226L9.21299 9.04588L9.21794 9.04948L9.22285 9.05305L9.22773 9.0566L9.23258 9.06012L9.23739 9.06362L9.24217 9.0671L9.24692 9.07055L9.25163 9.07398L9.25632 9.07739L9.26097 9.08077L9.26559 9.08413L9.27017 9.08747L9.27473 9.09078L9.27925 9.09407L9.28374 9.09733L9.2882 9.10058L9.29263 9.1038L9.29703 9.107L9.30139 9.11017L9.30573 9.11332L9.31003 9.11645L9.3143 9.11956L9.31854 9.12264L9.32275 9.1257L9.32693 9.12875L9.33108 9.13176L9.3352 9.13476L9.33929 9.13773L9.34335 9.14068L9.34738 9.14361L9.35138 9.14652L9.35534 9.14941L9.35928 9.15227L9.36319 9.15512L9.36707 9.15794L9.37092 9.16074L9.37474 9.16352L9.37854 9.16628L9.3823 9.16901L9.38603 9.17173L9.38974 9.17442L9.39341 9.1771L9.39706 9.17975L9.40068 9.18238L9.40427 9.18499L9.40784 9.18758L9.41137 9.19015L9.41488 9.1927L9.41835 9.19523L9.4218 9.19774L9.42523 9.20023L9.42862 9.2027L9.43199 9.20515L9.43533 9.20758L9.43864 9.20999L9.44193 9.21238L9.44519 9.21475L9.44842 9.2171L9.45163 9.21943L9.45481 9.22174L9.45796 9.22404L9.46108 9.22631L9.46418 9.22856L9.46726 9.2308L9.4703 9.23301L9.47332 9.23521L9.47632 9.23739L9.47929 9.23955L9.48223 9.24169L9.48515 9.24381L9.48804 9.24591L9.49091 9.248L9.49375 9.25006L9.49656 9.25211L9.49935 9.25414L9.50212 9.25616L9.50486 9.25815L9.50758 9.26013L9.51027 9.26208L9.51294 9.26402L9.51558 9.26595L9.5182 9.26785L9.5208 9.26974L9.52337 9.27161L9.52592 9.27346L9.52844 9.2753L9.53094 9.27711L9.53341 9.27891L9.53587 9.2807L9.5383 9.28246L9.5407 9.28421L9.54309 9.28595L9.54544 9.28766L9.54778 9.28936L9.5501 9.29105L9.55239 9.29271L9.55466 9.29436L9.5569 9.296L9.55913 9.29761L9.56133 9.29921L9.56351 9.3008L9.56567 9.30237L9.5678 9.30392L9.56992 9.30546L9.57201 9.30698L9.57408 9.30849L9.57613 9.30998L9.57816 9.31145L9.58016 9.31291L9.58215 9.31436L9.58411 9.31578L9.58606 9.3172L9.58798 9.3186L9.58988 9.31998L9.59176 9.32135L9.59362 9.3227L9.59546 9.32404L9.59728 9.32537L9.59909 9.32667L9.60087 9.32797L9.60263 9.32925L9.60437 9.33052L9.60609 9.33177L9.60779 9.333L9.60947 9.33423L9.61113 9.33544L9.61278 9.33663L9.6144 9.33781L9.61601 9.33898L9.61759 9.34014L9.61916 9.34128L9.62071 9.3424L9.62224 9.34352L9.62375 9.34461L9.62525 9.3457L9.62672 9.34678L9.62818 9.34783L9.62962 9.34888L9.63104 9.34992L9.63245 9.35094L9.63383 9.35194L9.6352 9.35294L9.63655 9.35392L9.63789 9.35489L9.6392 9.35585L9.6405 9.3568L9.64178 9.35773L9.64305 9.35865L9.6443 9.35956L9.64553 9.36045L9.64675 9.36134L9.64795 9.36221L9.64913 9.36307L9.6503 9.36392L9.65145 9.36476L9.65258 9.36558L9.6537 9.36639L9.6548 9.3672L9.65589 9.36799L9.65696 9.36877L9.65802 9.36954L9.65906 9.37029L9.66009 9.37104L9.6611 9.37177L9.66209 9.3725L9.66307 9.37321L9.66404 9.37391L9.66499 9.37461L9.66593 9.37529L9.66685 9.37596L9.66776 9.37662L9.66865 9.37727L9.66953 9.37791L9.6704 9.37854L9.67125 9.37916L9.67209 9.37977L9.67292 9.38037L9.67373 9.38096L9.67453 9.38154L9.67531 9.38211L9.67608 9.38267L9.67684 9.38322L9.67759 9.38377L9.67832 9.3843L9.67904 9.38482L9.67975 9.38534L9.68044 9.38584L9.68112 9.38634L9.68179 9.38682L9.68245 9.3873L9.6831 9.38777L9.68373 9.38823L9.68435 9.38869L9.68496 9.38913L9.68556 9.38957L9.68615 9.38999L9.68672 9.39041L9.68729 9.39082L9.68784 9.39122L9.68838 9.39162L9.68891 9.392L9.68943 9.39238L9.68994 9.39275L9.69044 9.39312L9.69093 9.39347L9.69141 9.39382L9.69188 9.39416L9.69234 9.39449L9.69278 9.39482L9.69322 9.39514L9.69365 9.39545L9.69407 9.39575L9.69448 9.39605L9.69487 9.39634L9.69526 9.39662L9.69564 9.3969L9.69602 9.39717L9.69638 9.39743L9.69673 9.39769L9.69707 9.39794L9.69741 9.39818L9.69774 9.39842L9.69806 9.39865L9.69837 9.39888L9.69867 9.3991L9.69896 9.39931L9.69925 9.39952L9.69953 9.39972L9.6998 9.39992L9.70006 9.40011L9.70031 9.40029L9.70056 9.40047L9.7008 9.40065L9.70103 9.40082L9.70126 9.40098L9.70148 9.40114L9.70169 9.40129L9.70189 9.40144L9.70209 9.40159L9.70228 9.40172L9.70246 9.40186L9.70264 9.40199L9.70282 9.40211L9.70298 9.40224L9.70314 9.40235L9.7033 9.40246L9.70344 9.40257L9.70359 9.40267L9.70372 9.40277L9.70385 9.40287L9.70398 9.40296L9.7041 9.40305L9.70422 9.40313L9.70433 9.40321L9.70443 9.40329L9.70453 9.40336L9.70463 9.40343L9.70472 9.4035L9.70481 9.40356L9.70489 9.40362L9.70497 9.40368L9.70505 9.40374L9.70512 9.40379L9.70518 9.40384L9.70525 9.40388L9.7053 9.40392L9.70536 9.40396L9.70541 9.404L9.70546 9.40404L9.70551 9.40407L9.70555 9.4041L9.70559 9.40413L9.70562 9.40416L9.70566 9.40418L9.70569 9.4042L9.70572 9.40422L9.70574 9.40424L9.70577 9.40426L9.70579 9.40427L9.70581 9.40429L9.70582 9.4043L9.70584 9.40431L9.70585 9.40432L9.70586 9.40433L9.70587 9.40434L9.70588 9.40434L9.70589 9.40435L9.7059 9.40435L9.7059 9.40436L9.70591 9.40437L10 9L9.70591 9.40437L10 9.61825L10.2941 9.40437L10.2941 9.40436L10.2941 9.40436L10.2941 9.40435L10.2941 9.40434L10.2941 9.40434L10.2941 9.40433L10.2941 9.40432L10.2942 9.40431L10.2942 9.4043L10.2942 9.40429L10.2942 9.40427L10.2942 9.40426L10.2943 9.40424L10.2943 9.40422L10.2943 9.4042L10.2943 9.40418L10.2944 9.40416L10.2944 9.40413L10.2945 9.4041L10.2945 9.40407L10.2945 9.40404L10.2946 9.404L10.2946 9.40396L10.2947 9.40392L10.2948 9.40388L10.2948 9.40384L10.2949 9.40379L10.295 9.40374L10.295 9.40368L10.2951 9.40362L10.2952 9.40356L10.2953 9.4035L10.2954 9.40343L10.2955 9.40336L10.2956 9.40329L10.2957 9.40321L10.2958 9.40313L10.2959 9.40305L10.296 9.40296L10.2961 9.40287L10.2963 9.40277L10.2964 9.40267L10.2966 9.40257L10.2967 9.40246L10.2969 9.40235L10.297 9.40224L10.2972 9.40211L10.2974 9.40199L10.2975 9.40186L10.2977 9.40172L10.2979 9.40159L10.2981 9.40144L10.2983 9.40129L10.2985 9.40114L10.2987 9.40098L10.299 9.40082L10.2992 9.40065L10.2994 9.40047L10.2997 9.40029L10.2999 9.40011L10.3002 9.39992L10.3005 9.39972L10.3008 9.39952L10.301 9.39931L10.3013 9.3991L10.3016 9.39888L10.3019 9.39865L10.3023 9.39842L10.3026 9.39818L10.3029 9.39794L10.3033 9.39769L10.3036 9.39743L10.304 9.39717L10.3044 9.3969L10.3047 9.39662L10.3051 9.39634L10.3055 9.39605L10.3059 9.39575L10.3064 9.39545L10.3068 9.39514L10.3072 9.39482L10.3077 9.39449L10.3081 9.39416L10.3086 9.39382L10.3091 9.39347L10.3096 9.39312L10.3101 9.39275L10.3106 9.39238L10.3111 9.392L10.3116 9.39162L10.3122 9.39122L10.3127 9.39082L10.3133 9.39041L10.3139 9.38999L10.3144 9.38957L10.315 9.38913L10.3156 9.38869L10.3163 9.38823L10.3169 9.38777L10.3175 9.3873L10.3182 9.38682L10.3189 9.38634L10.3196 9.38584L10.3203 9.38534L10.321 9.38482L10.3217 9.3843L10.3224 9.38377L10.3232 9.38322L10.3239 9.38267L10.3247 9.38211L10.3255 9.38154L10.3263 9.38096L10.3271 9.38037L10.3279 9.37977L10.3287 9.37916L10.3296 9.37854L10.3305 9.37791L10.3313 9.37727L10.3322 9.37662L10.3331 9.37596L10.3341 9.37529L10.335 9.37461L10.336 9.37391L10.3369 9.37321L10.3379 9.3725L10.3389 9.37177L10.3399 9.37104L10.3409 9.37029L10.342 9.36954L10.343 9.36877L10.3441 9.36799L10.3452 9.3672L10.3463 9.36639L10.3474 9.36558L10.3486 9.36476L10.3497 9.36392L10.3509 9.36307L10.3521 9.36221L10.3533 9.36134L10.3545 9.36045L10.3557 9.35956L10.357 9.35865L10.3582 9.35773L10.3595 9.3568L10.3608 9.35585L10.3621 9.35489L10.3634 9.35392L10.3648 9.35294L10.3662 9.35194L10.3676 9.35094L10.369 9.34992L10.3704 9.34888L10.3718 9.34783L10.3733 9.34678L10.3748 9.3457L10.3762 9.34461L10.3778 9.34352L10.3793 9.3424L10.3808 9.34128L10.3824 9.34014L10.384 9.33898L10.3856 9.33781L10.3872 9.33663L10.3889 9.33544L10.3905 9.33423L10.3922 9.333L10.3939 9.33177L10.3956 9.33052L10.3974 9.32925L10.3991 9.32797L10.4009 9.32667L10.4027 9.32537L10.4045 9.32404L10.4064 9.3227L10.4082 9.32135L10.4101 9.31998L10.412 9.3186L10.4139 9.3172L10.4159 9.31578L10.4179 9.31436L10.4198 9.31291L10.4218 9.31145L10.4239 9.30998L10.4259 9.30849L10.428 9.30698L10.4301 9.30546L10.4322 9.30392L10.4343 9.30237L10.4365 9.3008L10.4387 9.29921L10.4409 9.29761L10.4431 9.296L10.4453 9.29436L10.4476 9.29271L10.4499 9.29105L10.4522 9.28936L10.4546 9.28766L10.4569 9.28595L10.4593 9.28421L10.4617 9.28246L10.4641 9.2807L10.4666 9.27891L10.4691 9.27711L10.4716 9.2753L10.4741 9.27346L10.4766 9.27161L10.4792 9.26974L10.4818 9.26785L10.4844 9.26595L10.4871 9.26402L10.4897 9.26208L10.4924 9.26013L10.4951 9.25815L10.4979 9.25616L10.5006 9.25414L10.5034 9.25211L10.5063 9.25006L10.5091 9.248L10.512 9.24591L10.5149 9.24381L10.5178 9.24169L10.5207 9.23955L10.5237 9.23739L10.5267 9.23521L10.5297 9.23301L10.5327 9.2308L10.5358 9.22856L10.5389 9.22631L10.542 9.22404L10.5452 9.22174L10.5484 9.21943L10.5516 9.2171L10.5548 9.21475L10.5581 9.21238L10.5614 9.20999L10.5647 9.20758L10.568 9.20515L10.5714 9.2027L10.5748 9.20023L10.5782 9.19774L10.5816 9.19523L10.5851 9.1927L10.5886 9.19015L10.5922 9.18758L10.5957 9.18499L10.5993 9.18238L10.6029 9.17975L10.6066 9.1771L10.6103 9.17442L10.614 9.17173L10.6177 9.16901L10.6215 9.16628L10.6253 9.16352L10.6291 9.16074L10.6329 9.15794L10.6368 9.15512L10.6407 9.15227L10.6447 9.14941L10.6486 9.14652L10.6526 9.14361L10.6567 9.14068L10.6607 9.13773L10.6648 9.13476L10.6689 9.13176L10.6731 9.12875L10.6772 9.1257L10.6815 9.12264L10.6857 9.11956L10.69 9.11645L10.6943 9.11332L10.6986 9.11017L10.703 9.107L10.7074 9.1038L10.7118 9.10058L10.7163 9.09733L10.7207 9.09407L10.7253 9.09078L10.7298 9.08747L10.7344 9.08413L10.739 9.08077L10.7437 9.07739L10.7484 9.07398L10.7531 9.07055L10.7578 9.0671L10.7626 9.06362L10.7674 9.06012L10.7723 9.0566L10.7772 9.05305L10.7821 9.04948L10.787 9.04588L10.792 9.04226L10.797 9.03861L10.802 9.03494L10.8071 9.03125L10.8122 9.02753L10.8174 9.02379L10.8226 9.02002L10.8278 9.01622L10.833 9.01241L10.8383 9.00856L10.8436 9.0047L10.849 9.0008L10.8544 8.99689L10.8598 8.99294L10.8653 8.98897L10.8707 8.98498L10.8763 8.98096L10.8818 8.97691L10.8874 8.97284L10.8931 8.96875L10.8987 8.96462L10.9044 8.96048L10.9102 8.9563L10.916 8.9521L10.9218 8.94787L10.9276 8.94362L10.9335 8.93934L10.9394 8.93504L10.9454 8.9307L10.9514 8.92634L10.9574 8.92196L10.9635 8.91755L10.9696 8.91311L10.9757 8.90864L10.9819 8.90415L10.9881 8.89963L10.9944 8.89508L11.0006 8.89051L11.007 8.88591L11.0133 8.88128L11.0197 8.87662L11.0262 8.87194L11.0327 8.86722L11.0392 8.86248L11.0457 8.85772L11.0523 8.85292L11.059 8.8481L11.0656 8.84325L11.0723 8.83837L11.0791 8.83346L11.0859 8.82853L11.0927 8.82356L11.0996 8.81857L11.1065 8.81355L11.1134 8.8085L11.1204 8.80342L11.1274 8.79831L11.1345 8.79318L11.1416 8.78801L11.1487 8.78282L11.1559 8.77759L11.1631 8.77234L11.1704 8.76706L11.1777 8.76175L11.185 8.75641L11.1924 8.75104L11.1998 8.74564L11.2073 8.74021L11.2148 8.73475L11.2224 8.72926L11.2299 8.72375L11.2376 8.7182L11.2452 8.71262L11.253 8.70701L11.2607 8.70137L11.2685 8.6957L11.2763 8.69L11.2842 8.68427L11.2921 8.67851L11.3001 8.67272L11.3081 8.6669L11.3162 8.66104L11.3242 8.65516L11.3324 8.64925L11.3406 8.6433L11.3488 8.63732L11.357 8.63131L11.3653 8.62528L11.3737 8.6192L11.3821 8.6131L11.3905 8.60697L11.399 8.6008L11.4075 8.59461L11.4161 8.58838L11.4247 8.58212L11.4333 8.57582L11.442 8.5695L11.4508 8.56314L11.4596 8.55675L11.4684 8.55033L11.4773 8.54388L11.4862 8.53739L11.4951 8.53087L11.5041 8.52432L11.5132 8.51774L11.5223 8.51112L11.5314 8.50447L11.5406 8.49779L11.5499 8.49107L11.5591 8.48433L11.5685 8.47754L11.5778 8.47073L11.5873 8.46388L11.5967 8.457L11.6062 8.45008L11.6158 8.44314L11.6254 8.43615L11.635 8.42914L11.6447 8.42209L11.6545 8.415L11.6642 8.40789L11.6741 8.40073L11.684 8.39355L11.6939 8.38633L11.7039 8.37907L11.7139 8.37179L11.724 8.36446L11.7341 8.3571L11.7442 8.34971L11.7545 8.34228L11.7647 8.33482L11.775 8.32733L11.7854 8.31979L11.7958 8.31223L11.8062 8.30463L11.8167 8.29699L11.8273 8.28932L11.8379 8.28161L11.8485 8.27387L11.8592 8.26609L11.87 8.25827L11.8808 8.25042L11.8916 8.24254L11.9025 8.23461L11.9134 8.22666L11.9244 8.21866L11.9355 8.21063L11.9466 8.20257L11.9577 8.19447L11.9689 8.18633L11.9801 8.17815L11.9914 8.16994L12.0028 8.16169L12.0142 8.15341L12.0256 8.14509L12.0371 8.13673L12.0486 8.12834L12.0602 8.1199L12.0719 8.11144L12.0836 8.10293L12.0953 8.09439L12.1071 8.0858L12.119 8.07719L12.1309 8.06853L12.1428 8.05984L12.1548 8.05111L12.1669 8.04234L12.179 8.03353L12.1911 8.02469L12.2034 8.01581L12.2156 8.00689L12.2279 7.99793L12.2403 7.98893L12.2527 7.9799L12.2652 7.97082L12.2777 7.96171L12.2903 7.95256L12.303 7.94337L12.3156 7.93415L12.3284 7.92488L12.3412 7.91558L12.354 7.90623L12.3669 7.89685L12.3799 7.88743L12.3929 7.87797L12.406 7.86847L12.4191 7.85893L12.4322 7.84935L12.4455 7.83973L12.4587 7.83007L12.4721 7.82037L12.4855 7.81064L12.4989 7.80086L12.5124 7.79104L12.526 7.78118L12.5396 7.77129L12.5532 7.76135L12.567 7.75137L12.5807 7.74135L12.5946 7.73129L12.6085 7.72119L12.6224 7.71105L12.6364 7.70087L12.6504 7.69065L12.6646 7.68039L12.6787 7.67009L12.6929 7.65975L12.7072 7.64936L12.7216 7.63894L12.7359 7.62847L12.7504 7.61796L12.7649 7.60741L12.7795 7.59682L12.7941 7.58619L12.7955 7.58518C12.8081 7.57593 12.821 7.56649 12.8341 7.55687C13.6637 6.94985 15.5 5.60617 15.5 3.18182C15.5 1.70922 14.3252 0.5 12.8571 0.5C12.0711 0.5 11.3665 0.848668 10.8844 1.39716C10.7647 1.53329 10.5757 1.75092 10.3808 1.97602C10.18 2.20782 9.82 2.20783 9.61926 1.97602C9.42455 1.75118 9.23563 1.53369 9.11561 1.39716C8.63346 0.848668 7.92891 0.5 7.14286 0.5C5.67479 0.5 4.5 1.70922 4.5 3.18182C4.5 5.61054 6.45524 7.03809 7.17352 7.56253C7.18428 7.57038 7.19476 7.57803 7.20495 7.58549Z" fill="#D9D9D9" stroke="url(#paint2_linear_280_5962)"/>
<path d="M5 3.18182C5 4.3868 5.95939 5.36364 7.14286 5.36364C8.32632 5.36364 9.28571 4.3868 9.28571 3.18182C9.28571 2.62302 9.07939 2.11328 8.74008 1.72727C8.3477 1.28091 7.7775 1 7.14286 1C5.95939 1 5 1.97683 5 3.18182Z" fill="url(#paint3_linear_280_5962)"/>
<path d="M12.8571 5.36364C14.0406 5.36364 15 4.3868 15 3.18182C15 1.97683 14.0406 1 12.8571 1C12.2225 1 11.6523 1.28091 11.2599 1.72727C10.9206 2.11328 10.7143 2.62302 10.7143 3.18182C10.7143 4.3868 11.6737 5.36364 12.8571 5.36364Z" fill="url(#paint4_linear_280_5962)"/>
<path d="M15 3.18182C15 4.3868 14.0406 5.36364 12.8571 5.36364C11.6737 5.36364 10.7143 4.3868 10.7143 3.18182C10.7143 2.62302 10.9206 2.11328 11.2599 1.72727C11.1416 1.86184 10.9537 2.07819 10.7587 2.30334C10.3586 2.76539 9.64141 2.76538 9.24129 2.30334C9.04653 2.07845 8.85872 1.86225 8.74008 1.72727C9.07939 2.11328 9.28571 2.62302 9.28571 3.18182C9.28571 4.3868 8.32632 5.36364 7.14286 5.36364C5.95939 5.36364 5 4.3868 5 3.18182C5 5.36364 6.78571 6.65973 7.5 7.18182C10 9 10 9 10 9C10 9 10 9 12.5 7.18182C13.3292 6.57441 15 5.36364 15 3.18182Z" fill="url(#paint5_linear_280_5962)"/>
<path d="M7.78616 6.77166L7.78615 6.77165C7.04412 6.22932 5.5 5.07219 5.5 3.18182C5.5 2.24444 6.24399 1.5 7.14286 1.5C7.62609 1.5 8.06195 1.71315 8.36454 2.05738C8.48182 2.1908 8.66851 2.40572 8.86332 2.63066C9.46283 3.32294 10.5372 3.32295 11.1367 2.63066C11.3317 2.40545 11.5185 2.19039 11.6355 2.05738C11.9381 1.71315 12.3739 1.5 12.8571 1.5C13.756 1.5 14.5 2.24444 14.5 3.18182C14.5 5.07108 13.0706 6.14412 12.2193 6.76765L12.2193 6.76766L12.2059 6.77745L12.2046 6.77844L10 8.38175L7.79504 6.77815L7.79409 6.77745L7.78616 6.77166Z" stroke="url(#paint6_linear_280_5962)"/>
<path d="M13.5 14V10C13.5 9.17157 12.8284 8.5 12 8.5H6.70711C6.12175 8.5 5.56036 8.73253 5.14645 9.14645C4.92007 9.37282 4.61304 9.5 4.29289 9.5H2C1.17157 9.5 0.5 10.1716 0.5 11V14C0.5 14.8284 1.17157 15.5 2 15.5H12C12.8284 15.5 13.5 14.8284 13.5 14Z" fill="url(#paint7_linear_280_5962)" stroke="url(#paint8_linear_280_5962)"/>
<path d="M12.5 10V14C12.5 14.2761 12.2761 14.5 12 14.5H2C1.72386 14.5 1.5 14.2761 1.5 14V11C1.5 10.7239 1.72386 10.5 2 10.5H4.29289C4.87825 10.5 5.43964 10.2675 5.85355 9.85355C6.07993 9.62718 6.38696 9.5 6.70711 9.5H12C12.2761 9.5 12.5 9.72386 12.5 10Z" stroke="white" stroke-opacity="0.5" style="mix-blend-mode:hard-light"/>
<path d="M12.5 10V14C12.5 14.2761 12.2761 14.5 12 14.5H2C1.72386 14.5 1.5 14.2761 1.5 14V11C1.5 10.7239 1.72386 10.5 2 10.5H4.29289C4.87825 10.5 5.43964 10.2675 5.85355 9.85355C6.07993 9.62718 6.38696 9.5 6.70711 9.5H12C12.2761 9.5 12.5 9.72386 12.5 10Z" stroke="white" stroke-opacity="0.5" style="mix-blend-mode:soft-light"/>
</g>
<defs>
<linearGradient id="paint0_linear_280_5962" x1="1" y1="6" x2="13" y2="15" gradientUnits="userSpaceOnUse">
<stop stop-color="#F8E48E"/>
<stop offset="1" stop-color="#F1CD2E"/>
</linearGradient>
<linearGradient id="paint1_linear_280_5962" x1="7" y1="6" x2="7" y2="15" gradientUnits="userSpaceOnUse">
<stop stop-color="#E0C259"/>
<stop offset="1" stop-color="#D98C34"/>
</linearGradient>
<linearGradient id="paint2_linear_280_5962" x1="5" y1="1" x2="15.1522" y2="9.54649" gradientUnits="userSpaceOnUse">
<stop stop-color="#FCB2B0"/>
<stop offset="0.836863" stop-color="#D24343"/>
</linearGradient>
<linearGradient id="paint3_linear_280_5962" x1="5" y1="1" x2="14.2156" y2="9.81962" gradientUnits="userSpaceOnUse">
<stop stop-color="#FFB5B4"/>
<stop offset="0.778805" stop-color="#FF6E6D"/>
</linearGradient>
<linearGradient id="paint4_linear_280_5962" x1="5" y1="1" x2="14.2156" y2="9.81962" gradientUnits="userSpaceOnUse">
<stop stop-color="#FFB5B4"/>
<stop offset="0.778805" stop-color="#FF6E6D"/>
</linearGradient>
<linearGradient id="paint5_linear_280_5962" x1="5" y1="1" x2="14.2156" y2="9.81962" gradientUnits="userSpaceOnUse">
<stop stop-color="#FFB5B4"/>
<stop offset="0.778805" stop-color="#FF6E6D"/>
</linearGradient>
<linearGradient id="paint6_linear_280_5962" x1="5" y1="1" x2="14.4103" y2="9.64211" gradientUnits="userSpaceOnUse">
<stop stop-color="#FED9D6"/>
<stop offset="0.836863" stop-color="#FEBEB9"/>
</linearGradient>
<linearGradient id="paint7_linear_280_5962" x1="6" y1="9" x2="8" y2="15" gradientUnits="userSpaceOnUse">
<stop stop-color="white" stop-opacity="0.66"/>
<stop offset="1" stop-color="#F1CD2E"/>
</linearGradient>
<linearGradient id="paint8_linear_280_5962" x1="7" y1="9" x2="7" y2="15" gradientUnits="userSpaceOnUse">
<stop stop-color="#DEB04D"/>
<stop offset="1" stop-color="#D98B34"/>
</linearGradient>
<clipPath id="clip0_280_5962">
<rect width="16" height="16" fill="white"/>
</clipPath>
</defs>
</svg>
