<svg width="16" height="16" viewBox="0 0 16 16" fill="none" xmlns="http://www.w3.org/2000/svg">
<g clip-path="url(#clip0_324_11906)">
<g clip-path="url(#clip1_324_11906)">
<circle cx="6.5" cy="8.5" r="1" fill="#EAB378" stroke="#CF7D2A"/>
<circle cx="14.5" cy="8.5" r="1" fill="#EAB378" stroke="#CF7D2A"/>
<path d="M12.5 10.5C12.7294 10.5 12.9294 10.3439 12.9851 10.1213L13.4515 8.25562L14.3536 7.35355C14.4488 7.25829 14.5016 7.12862 14.5 6.9939C14.4983 6.85919 14.4424 6.73084 14.3448 6.63793L12.2448 4.63793C12.1519 4.54939 12.0284 4.5 11.9 4.5H9.1C8.97161 4.5 8.84814 4.54939 8.75517 4.63793L6.65517 6.63793C6.55762 6.73084 6.50168 6.85919 6.50004 6.9939C6.49839 7.12862 6.55118 7.25829 6.64645 7.35355L7.5394 8.24651L7.90971 10.0981C7.95645 10.3318 8.16166 10.5 8.4 10.5H12.5Z" fill="url(#paint0_linear_324_11906)" stroke="#518830" stroke-linejoin="round"/>
<path d="M11.7 5.5L13.2842 7.00873L12.6464 7.64645L12.5394 7.75349L12.5097 7.90194L12.1901 9.5H8.8099L8.49029 7.90194L8.4606 7.75349L8.35355 7.64645L7.71584 7.00873L9.3 5.5H11.7Z" stroke="url(#paint1_linear_324_11906)"/>
<circle cx="10.5" cy="3.5" r="3" fill="#F6D0A8" stroke="#A87B4D"/>
<mask id="path-6-inside-1_324_11906" fill="white">
<path fill-rule="evenodd" clip-rule="evenodd" d="M7.08419 4.26651C7.57084 3.65862 8.63668 2.625 9.625 2.625C10.3178 2.625 10.6484 3.00813 10.9606 3.36991C11.2398 3.6935 11.5043 4 12 4C12.6104 4 13.377 3.66209 13.998 3.37912C13.9342 1.50209 12.3925 0 10.5 0C8.567 0 7 1.567 7 3.5C7 3.76331 7.02908 4.01982 7.08419 4.26651Z"/>
</mask>
<path fill-rule="evenodd" clip-rule="evenodd" d="M7.08419 4.26651C7.57084 3.65862 8.63668 2.625 9.625 2.625C10.3178 2.625 10.6484 3.00813 10.9606 3.36991C11.2398 3.6935 11.5043 4 12 4C12.6104 4 13.377 3.66209 13.998 3.37912C13.9342 1.50209 12.3925 0 10.5 0C8.567 0 7 1.567 7 3.5C7 3.76331 7.02908 4.01982 7.08419 4.26651Z" fill="url(#paint2_linear_324_11906)"/>
<path d="M7.08419 4.26651L6.10825 4.48456L6.5626 6.51814L7.86485 4.89147L7.08419 4.26651ZM10.9606 3.36991L10.2035 4.02319L10.9606 3.36991ZM13.998 3.37912L14.4126 4.28908L15.02 4.01229L14.9974 3.3452L13.998 3.37912ZM9.625 1.625C8.80894 1.625 8.08102 2.03613 7.57074 2.41462C7.036 2.81124 6.58764 3.28667 6.30354 3.64155L7.86485 4.89147C8.0674 4.63846 8.39529 4.29313 8.76221 4.02098C9.15359 3.73068 9.45275 3.625 9.625 3.625V1.625ZM11.7177 2.71663C11.4022 2.35104 10.8066 1.625 9.625 1.625V3.625C9.765 3.625 9.82662 3.65716 9.87491 3.68986C9.95587 3.74467 10.0343 3.82716 10.2035 4.02319L11.7177 2.71663ZM12 3C11.9822 3 11.9822 2.99776 11.9911 3.00079C11.9989 3.00345 11.9972 3.00469 11.9825 2.99411C11.9653 2.98178 11.9363 2.95762 11.8899 2.90965C11.8412 2.85937 11.7909 2.80152 11.7177 2.71663L10.2035 4.02319C10.4494 4.30823 10.9913 5 12 5V3ZM13.5833 2.46915C13.2718 2.61107 12.9636 2.74814 12.6674 2.85088C12.3612 2.95704 12.1405 3 12 3V5C12.4699 5 12.9376 4.874 13.3227 4.74047C13.7176 4.6035 14.1031 4.43013 14.4126 4.28908L13.5833 2.46915ZM10.5 1C11.8516 1 12.953 2.07294 12.9985 3.41304L14.9974 3.3452C14.9154 0.931247 12.9335 -1 10.5 -1V1ZM8 3.5C8 2.11929 9.11929 1 10.5 1V-1C8.01472 -1 6 1.01472 6 3.5H8ZM8.06013 4.04846C8.0209 3.87288 8 3.68948 8 3.5H6C6 3.83714 6.03725 4.16676 6.10825 4.48456L8.06013 4.04846Z" fill="url(#paint3_linear_324_11906)" mask="url(#path-6-inside-1_324_11906)"/>
<circle cx="1.5" cy="13.5" r="1" fill="#EAB378" stroke="#CF7D2A"/>
<circle cx="9.5" cy="13.5" r="1" fill="#EAB378" stroke="#CF7D2A"/>
<path d="M7.5 15H3.4L3 13L2 12L4.1 10H6.9L9 12L8 13L7.5 15Z" fill="url(#paint4_linear_324_11906)"/>
<path d="M7.5 15.5C7.72943 15.5 7.92943 15.3439 7.98507 15.1213L8.45148 13.2556L9.35355 12.3536C9.44882 12.2583 9.50161 12.1286 9.49996 11.9939C9.49832 11.8592 9.44238 11.7308 9.34483 11.6379L7.24483 9.63793C7.15186 9.54939 7.02839 9.5 6.9 9.5H4.1C3.97161 9.5 3.84814 9.54939 3.75517 9.63793L1.65517 11.6379C1.55762 11.7308 1.50168 11.8592 1.50004 11.9939C1.49839 12.1286 1.55118 12.2583 1.64645 12.3536L2.5394 13.2465L2.90971 15.0981C2.95645 15.3318 3.16166 15.5 3.4 15.5H7.5Z" stroke="#2E5ABA" stroke-opacity="0.972549" stroke-linejoin="round"/>
<path d="M6.7 10.5L8.28416 12.0087L7.64645 12.6464L7.5394 12.7535L7.50971 12.9019L7.1901 14.5H3.8099L3.49029 12.9019L3.4606 12.7535L3.35355 12.6464L2.71584 12.0087L4.3 10.5H6.7Z" stroke="url(#paint5_linear_324_11906)"/>
<circle cx="5.5" cy="8.5" r="3" fill="#F6D0A8" stroke="#A87B4D"/>
<mask id="path-14-inside-2_324_11906" fill="white">
<path fill-rule="evenodd" clip-rule="evenodd" d="M2.08419 9.26651C2.57084 8.65862 3.63668 7.625 4.625 7.625C5.31782 7.625 5.64841 8.00813 5.96058 8.36991C6.23979 8.6935 6.50426 9 7 9C7.61037 9 8.37702 8.66209 8.99795 8.37912C8.93424 6.50209 7.39254 5 5.5 5C3.567 5 2 6.567 2 8.5C2 8.76331 2.02908 9.01982 2.08419 9.26651Z"/>
</mask>
<path fill-rule="evenodd" clip-rule="evenodd" d="M2.08419 9.26651C2.57084 8.65862 3.63668 7.625 4.625 7.625C5.31782 7.625 5.64841 8.00813 5.96058 8.36991C6.23979 8.6935 6.50426 9 7 9C7.61037 9 8.37702 8.66209 8.99795 8.37912C8.93424 6.50209 7.39254 5 5.5 5C3.567 5 2 6.567 2 8.5C2 8.76331 2.02908 9.01982 2.08419 9.26651Z" fill="url(#paint6_linear_324_11906)"/>
<path d="M2.08419 9.26651L1.10825 9.48456L1.5626 11.5181L2.86485 9.89147L2.08419 9.26651ZM5.96058 8.36991L5.20346 9.02319L5.96058 8.36991ZM8.99795 8.37912L9.41264 9.28908L10.02 9.01229L9.99738 8.3452L8.99795 8.37912ZM4.625 6.625C3.80894 6.625 3.08102 7.03613 2.57074 7.41462C2.036 7.81124 1.58764 8.28667 1.30354 8.64155L2.86485 9.89147C3.0674 9.63846 3.39529 9.29313 3.76221 9.02098C4.15359 8.73068 4.45275 8.625 4.625 8.625V6.625ZM6.71769 7.71663C6.40224 7.35104 5.80662 6.625 4.625 6.625V8.625C4.765 8.625 4.82662 8.65716 4.87491 8.68986C4.95587 8.74467 5.03431 8.82716 5.20346 9.02319L6.71769 7.71663ZM7 8C6.98217 8 6.98223 7.99776 6.99111 8.00079C6.99888 8.00345 6.99721 8.00469 6.98249 7.99411C6.96531 7.98178 6.93625 7.95762 6.88986 7.90965C6.84123 7.85937 6.79094 7.80152 6.71769 7.71663L5.20346 9.02319C5.44941 9.30823 5.99128 10 7 10V8ZM8.58327 7.46915C8.27185 7.61107 7.96358 7.74814 7.66735 7.85088C7.36124 7.95704 7.14048 8 7 8V10C7.46989 10 7.93764 9.874 8.32268 9.74047C8.71761 9.6035 9.10313 9.43013 9.41264 9.28908L8.58327 7.46915ZM5.5 6C6.85161 6 7.95304 7.07294 7.99853 8.41304L9.99738 8.3452C9.91545 5.93125 7.93346 4 5.5 4V6ZM3 8.5C3 7.11929 4.11929 6 5.5 6V4C3.01472 4 1 6.01472 1 8.5H3ZM3.06013 9.04846C3.0209 8.87288 3 8.68948 3 8.5H1C1 8.83714 1.03725 9.16676 1.10825 9.48456L3.06013 9.04846Z" fill="url(#paint7_linear_324_11906)" mask="url(#path-14-inside-2_324_11906)"/>
</g>
<mask id="path-16-inside-3_324_11906" fill="white">
<path fill-rule="evenodd" clip-rule="evenodd" d="M10.75 6C10.1977 6 9.75 6.44772 9.75 7V7.26484C9.75 7.38383 9.67414 7.48909 9.56423 7.53468C9.45426 7.5803 9.32693 7.55916 9.24274 7.47497L9.05546 7.28769C8.66493 6.89716 8.03177 6.89716 7.64124 7.28769L7.28769 7.64124C6.89717 8.03176 6.89717 8.66493 7.28769 9.05545L7.47497 9.24273C7.55916 9.32692 7.5803 9.45426 7.53468 9.56423C7.48909 9.67414 7.38383 9.75 7.26484 9.75H7C6.44772 9.75 6 10.1977 6 10.75V11.25C6 11.8023 6.44772 12.25 7 12.25H7.26483C7.38383 12.25 7.48909 12.3259 7.53468 12.4358C7.5803 12.5457 7.55916 12.6731 7.47497 12.7573L7.28769 12.9445C6.89716 13.3351 6.89716 13.9682 7.28769 14.3588L7.64124 14.7123C8.03177 15.1028 8.66493 15.1028 9.05545 14.7123L9.24274 14.525C9.32693 14.4408 9.45426 14.4197 9.56423 14.4653C9.67414 14.5109 9.75 14.6162 9.75 14.7352V15C9.75 15.5523 10.1977 16 10.75 16H11.25C11.8023 16 12.25 15.5523 12.25 15V14.7352C12.25 14.6162 12.3259 14.5109 12.4358 14.4653C12.5457 14.4197 12.6731 14.4408 12.7573 14.525L12.9445 14.7123C13.3351 15.1028 13.9682 15.1028 14.3588 14.7123L14.7123 14.3588C15.1028 13.9682 15.1028 13.3351 14.7123 12.9445L14.525 12.7573C14.4408 12.6731 14.4197 12.5457 14.4653 12.4358C14.5109 12.3259 14.6162 12.25 14.7352 12.25H15C15.5523 12.25 16 11.8023 16 11.25V10.75C16 10.1977 15.5523 9.75 15 9.75H14.7352C14.6162 9.75 14.5109 9.67414 14.4653 9.56423C14.4197 9.45426 14.4408 9.32693 14.525 9.24274L14.7123 9.05546C15.1028 8.66494 15.1028 8.03177 14.7123 7.64125L14.3588 7.28769C13.9682 6.89717 13.3351 6.89717 12.9445 7.28769L12.7573 7.47497C12.6731 7.55916 12.5457 7.5803 12.4358 7.53468C12.3259 7.48909 12.25 7.38383 12.25 7.26484V7C12.25 6.44772 11.8023 6 11.25 6H10.75ZM11 12.25C11.6904 12.25 12.25 11.6904 12.25 11C12.25 10.3096 11.6904 9.75 11 9.75C10.3096 9.75 9.75 10.3096 9.75 11C9.75 11.6904 10.3096 12.25 11 12.25Z"/>
</mask>
<g filter="url(#filter0_ii_324_11906)">
<path fill-rule="evenodd" clip-rule="evenodd" d="M10.75 6C10.1977 6 9.75 6.44772 9.75 7V7.26484C9.75 7.38383 9.67414 7.48909 9.56423 7.53468C9.45426 7.5803 9.32693 7.55916 9.24274 7.47497L9.05546 7.28769C8.66493 6.89716 8.03177 6.89716 7.64124 7.28769L7.28769 7.64124C6.89717 8.03176 6.89717 8.66493 7.28769 9.05545L7.47497 9.24273C7.55916 9.32692 7.5803 9.45426 7.53468 9.56423C7.48909 9.67414 7.38383 9.75 7.26484 9.75H7C6.44772 9.75 6 10.1977 6 10.75V11.25C6 11.8023 6.44772 12.25 7 12.25H7.26483C7.38383 12.25 7.48909 12.3259 7.53468 12.4358C7.5803 12.5457 7.55916 12.6731 7.47497 12.7573L7.28769 12.9445C6.89716 13.3351 6.89716 13.9682 7.28769 14.3588L7.64124 14.7123C8.03177 15.1028 8.66493 15.1028 9.05545 14.7123L9.24274 14.525C9.32693 14.4408 9.45426 14.4197 9.56423 14.4653C9.67414 14.5109 9.75 14.6162 9.75 14.7352V15C9.75 15.5523 10.1977 16 10.75 16H11.25C11.8023 16 12.25 15.5523 12.25 15V14.7352C12.25 14.6162 12.3259 14.5109 12.4358 14.4653C12.5457 14.4197 12.6731 14.4408 12.7573 14.525L12.9445 14.7123C13.3351 15.1028 13.9682 15.1028 14.3588 14.7123L14.7123 14.3588C15.1028 13.9682 15.1028 13.3351 14.7123 12.9445L14.525 12.7573C14.4408 12.6731 14.4197 12.5457 14.4653 12.4358C14.5109 12.3259 14.6162 12.25 14.7352 12.25H15C15.5523 12.25 16 11.8023 16 11.25V10.75C16 10.1977 15.5523 9.75 15 9.75H14.7352C14.6162 9.75 14.5109 9.67414 14.4653 9.56423C14.4197 9.45426 14.4408 9.32693 14.525 9.24274L14.7123 9.05546C15.1028 8.66494 15.1028 8.03177 14.7123 7.64125L14.3588 7.28769C13.9682 6.89717 13.3351 6.89717 12.9445 7.28769L12.7573 7.47497C12.6731 7.55916 12.5457 7.5803 12.4358 7.53468C12.3259 7.48909 12.25 7.38383 12.25 7.26484V7C12.25 6.44772 11.8023 6 11.25 6H10.75ZM11 12.25C11.6904 12.25 12.25 11.6904 12.25 11C12.25 10.3096 11.6904 9.75 11 9.75C10.3096 9.75 9.75 10.3096 9.75 11C9.75 11.6904 10.3096 12.25 11 12.25Z" fill="#BEBEBE"/>
</g>
<path d="M9.56423 7.53468L9.1811 6.61099L9.1811 6.61099L9.56423 7.53468ZM9.24274 7.47497L9.94984 6.76786L9.94984 6.76786L9.24274 7.47497ZM9.05546 7.28769L8.34835 7.99479L9.05546 7.28769ZM7.64124 7.28769L6.93414 6.58058L6.93414 6.58058L7.64124 7.28769ZM7.28769 7.64124L6.58058 6.93413L6.58058 6.93413L7.28769 7.64124ZM7.28769 9.05545L7.9948 8.34835L7.9948 8.34835L7.28769 9.05545ZM7.47497 9.24273L8.18208 8.53563L8.18208 8.53563L7.47497 9.24273ZM7.53468 9.56423L8.45837 9.94737L8.45837 9.94737L7.53468 9.56423ZM7.53468 12.4358L8.45837 12.0526L8.45837 12.0526L7.53468 12.4358ZM7.47497 12.7573L6.76786 12.0502L6.76786 12.0502L7.47497 12.7573ZM7.28769 12.9445L7.99479 13.6517H7.99479L7.28769 12.9445ZM7.28769 14.3588L7.99479 13.6517H7.99479L7.28769 14.3588ZM7.64124 14.7123L6.93413 15.4194L6.93413 15.4194L7.64124 14.7123ZM9.05545 14.7123L8.34835 14.0052H8.34835L9.05545 14.7123ZM9.24274 14.525L8.53563 13.8179L8.53563 13.8179L9.24274 14.525ZM9.56423 14.4653L9.1811 15.389L9.1811 15.389L9.56423 14.4653ZM12.4358 14.4653L12.8189 15.389L12.8189 15.389L12.4358 14.4653ZM12.7573 14.525L13.4644 13.8179L13.4644 13.8179L12.7573 14.525ZM12.9445 14.7123L12.2374 15.4194L12.2374 15.4194L12.9445 14.7123ZM14.3588 14.7123L15.0659 15.4194V15.4194L14.3588 14.7123ZM14.7123 14.3588L15.4194 15.0659H15.4194L14.7123 14.3588ZM14.7123 12.9445L14.0052 13.6516V13.6516L14.7123 12.9445ZM14.525 12.7573L15.2321 12.0502L15.2321 12.0502L14.525 12.7573ZM14.4653 12.4358L15.389 12.8189L15.389 12.8189L14.4653 12.4358ZM14.4653 9.56423L15.389 9.1811V9.1811L14.4653 9.56423ZM14.525 9.24274L13.8179 8.53563L13.8179 8.53563L14.525 9.24274ZM14.7123 9.05546L15.4194 9.76257L15.4194 9.76257L14.7123 9.05546ZM14.7123 7.64125L15.4194 6.93414L15.4194 6.93414L14.7123 7.64125ZM14.3588 7.28769L13.6516 7.9948L13.6516 7.9948L14.3588 7.28769ZM12.9445 7.28769L13.6516 7.9948L12.9445 7.28769ZM12.7573 7.47497L12.0502 6.76786L12.0502 6.76786L12.7573 7.47497ZM12.4358 7.53468L12.0526 8.45837L12.0526 8.45837L12.4358 7.53468ZM10.75 7V7V5C9.64543 5 8.75 5.89543 8.75 7H10.75ZM10.75 7.26484V7H8.75V7.26484H10.75ZM9.94737 8.45837C10.4003 8.27049 10.75 7.82002 10.75 7.26484H8.75C8.75 6.94763 8.94796 6.70769 9.1811 6.61099L9.94737 8.45837ZM8.53563 8.18207C8.92594 8.57238 9.49046 8.6479 9.94737 8.45837L9.1811 6.61099C9.41806 6.5127 9.72792 6.54593 9.94984 6.76786L8.53563 8.18207ZM8.34835 7.99479L8.53563 8.18207L9.94984 6.76786L9.76256 6.58058L8.34835 7.99479ZM8.34835 7.99479L8.34835 7.99479L9.76256 6.58058C8.98151 5.79953 7.71518 5.79953 6.93414 6.58058L8.34835 7.99479ZM7.9948 8.34835L8.34835 7.99479L6.93414 6.58058L6.58058 6.93413L7.9948 8.34835ZM7.9948 8.34835L6.58058 6.93413C5.79953 7.71518 5.79953 8.98151 6.58058 9.76256L7.9948 8.34835ZM8.18208 8.53563L7.9948 8.34835L6.58058 9.76256L6.76786 9.94984L8.18208 8.53563ZM8.45837 9.94737C8.6479 9.49045 8.57238 8.92593 8.18208 8.53563L6.76786 9.94984C6.54593 9.72791 6.5127 9.41806 6.61099 9.18109L8.45837 9.94737ZM7.26484 10.75C7.82003 10.75 8.27049 10.4003 8.45837 9.94737L6.61099 9.18109C6.70769 8.94796 6.94763 8.75 7.26484 8.75V10.75ZM7 10.75H7.26484V8.75H7V10.75ZM7 10.75V8.75C5.89543 8.75 5 9.64543 5 10.75H7ZM7 11.25V10.75H5V11.25H7ZM7 11.25H7H5C5 12.3546 5.89543 13.25 7 13.25V11.25ZM7.26483 11.25H7V13.25H7.26483V11.25ZM8.45837 12.0526C8.27049 11.5997 7.82002 11.25 7.26483 11.25V13.25C6.94763 13.25 6.70769 13.052 6.61099 12.8189L8.45837 12.0526ZM8.18207 13.4644C8.57238 13.0741 8.6479 12.5095 8.45837 12.0526L6.61099 12.8189C6.5127 12.5819 6.54593 12.2721 6.76786 12.0502L8.18207 13.4644ZM7.99479 13.6517L8.18207 13.4644L6.76786 12.0502L6.58058 12.2374L7.99479 13.6517ZM7.99479 13.6517V13.6517L6.58058 12.2374C5.79953 13.0185 5.79953 14.2848 6.58058 15.0659L7.99479 13.6517ZM8.34835 14.0052L7.99479 13.6517L6.58058 15.0659L6.93413 15.4194L8.34835 14.0052ZM8.34835 14.0052L6.93413 15.4194C7.71518 16.2005 8.98151 16.2005 9.76256 15.4194L8.34835 14.0052ZM8.53563 13.8179L8.34835 14.0052L9.76256 15.4194L9.94984 15.2321L8.53563 13.8179ZM9.94737 13.5416C9.49046 13.3521 8.92594 13.4276 8.53563 13.8179L9.94984 15.2321C9.72791 15.4541 9.41806 15.4873 9.1811 15.389L9.94737 13.5416ZM10.75 14.7352C10.75 14.18 10.4003 13.7295 9.94737 13.5416L9.1811 15.389C8.94796 15.2923 8.75 15.0524 8.75 14.7352H10.75ZM10.75 15V14.7352H8.75V15H10.75ZM10.75 15H8.75C8.75 16.1046 9.64543 17 10.75 17V15ZM11.25 15H10.75V17H11.25V15ZM11.25 15V17C12.3546 17 13.25 16.1046 13.25 15H11.25ZM11.25 14.7352V15H13.25V14.7352H11.25ZM12.0526 13.5416C11.5997 13.7295 11.25 14.18 11.25 14.7352H13.25C13.25 15.0524 13.052 15.2923 12.8189 15.389L12.0526 13.5416ZM13.4644 13.8179C13.0741 13.4276 12.5095 13.3521 12.0526 13.5416L12.8189 15.389C12.5819 15.4873 12.2721 15.4541 12.0502 15.2321L13.4644 13.8179ZM13.6517 14.0052L13.4644 13.8179L12.0502 15.2321L12.2374 15.4194L13.6517 14.0052ZM13.6517 14.0052H13.6516L12.2374 15.4194C13.0185 16.2005 14.2848 16.2005 15.0659 15.4194L13.6517 14.0052ZM14.0052 13.6516L13.6517 14.0052L15.0659 15.4194L15.4194 15.0659L14.0052 13.6516ZM14.0052 13.6516V13.6516L15.4194 15.0659C16.2005 14.2848 16.2005 13.0185 15.4194 12.2374L14.0052 13.6516ZM13.8179 13.4644L14.0052 13.6516L15.4194 12.2374L15.2321 12.0502L13.8179 13.4644ZM13.5416 12.0526C13.3521 12.5095 13.4276 13.0741 13.8179 13.4644L15.2321 12.0502C15.4541 12.2721 15.4873 12.5819 15.389 12.8189L13.5416 12.0526ZM14.7352 11.25C14.18 11.25 13.7295 11.5997 13.5416 12.0526L15.389 12.8189C15.2923 13.052 15.0524 13.25 14.7352 13.25V11.25ZM15 11.25H14.7352V13.25H15V11.25ZM15 11.25V13.25C16.1046 13.25 17 12.3546 17 11.25H15ZM15 10.75V11.25H17V10.75H15ZM15 10.75H17C17 9.64543 16.1046 8.75 15 8.75V10.75ZM14.7352 10.75H15V8.75H14.7352V10.75ZM13.5416 9.94737C13.7295 10.4003 14.18 10.75 14.7352 10.75V8.75C15.0524 8.75 15.2923 8.94796 15.389 9.1811L13.5416 9.94737ZM13.8179 8.53563C13.4276 8.92594 13.3521 9.49046 13.5416 9.94737L15.389 9.1811C15.4873 9.41806 15.4541 9.72792 15.2321 9.94984L13.8179 8.53563ZM14.0052 8.34835L13.8179 8.53563L15.2321 9.94984L15.4194 9.76257L14.0052 8.34835ZM14.0052 8.34835V8.34835L15.4194 9.76257C16.2005 8.98152 16.2005 7.71519 15.4194 6.93414L14.0052 8.34835ZM13.6516 7.9948L14.0052 8.34835L15.4194 6.93414L15.0659 6.58059L13.6516 7.9948ZM13.6516 7.9948V7.9948L15.0659 6.58059C14.2848 5.79954 13.0185 5.79954 12.2374 6.58059L13.6516 7.9948ZM13.4644 8.18207L13.6516 7.9948L12.2374 6.58059L12.0502 6.76786L13.4644 8.18207ZM12.0526 8.45837C12.5095 8.6479 13.0741 8.57238 13.4644 8.18207L12.0502 6.76786C12.2721 6.54593 12.5819 6.5127 12.8189 6.61099L12.0526 8.45837ZM11.25 7.26484C11.25 7.82003 11.5997 8.27049 12.0526 8.45837L12.8189 6.61099C13.052 6.70769 13.25 6.94763 13.25 7.26484H11.25ZM11.25 7V7.26484H13.25V7H11.25ZM11.25 7H13.25C13.25 5.89543 12.3546 5 11.25 5V7ZM10.75 7H11.25V5H10.75V7ZM11.25 11C11.25 11.1381 11.1381 11.25 11 11.25V13.25C12.2426 13.25 13.25 12.2426 13.25 11H11.25ZM11 10.75C11.1381 10.75 11.25 10.8619 11.25 11H13.25C13.25 9.75736 12.2426 8.75 11 8.75V10.75ZM10.75 11C10.75 10.8619 10.8619 10.75 11 10.75V8.75C9.75736 8.75 8.75 9.75736 8.75 11H10.75ZM11 11.25C10.8619 11.25 10.75 11.1381 10.75 11H8.75C8.75 12.2426 9.75736 13.25 11 13.25V11.25Z" fill="url(#paint8_linear_324_11906)" mask="url(#path-16-inside-3_324_11906)"/>
</g>
<defs>
<filter id="filter0_ii_324_11906" x="6" y="6" width="12" height="12" filterUnits="userSpaceOnUse" color-interpolation-filters="sRGB">
<feFlood flood-opacity="0" result="BackgroundImageFix"/>
<feBlend mode="normal" in="SourceGraphic" in2="BackgroundImageFix" result="shape"/>
<feColorMatrix in="SourceAlpha" type="matrix" values="0 0 0 0 0 0 0 0 0 0 0 0 0 0 0 0 0 0 127 0" result="hardAlpha"/>
<feOffset dx="4" dy="4"/>
<feGaussianBlur stdDeviation="1"/>
<feComposite in2="hardAlpha" operator="arithmetic" k2="-1" k3="1"/>
<feColorMatrix type="matrix" values="0 0 0 0 1 0 0 0 0 1 0 0 0 0 1 0 0 0 0.33 0"/>
<feBlend mode="normal" in2="shape" result="effect1_innerShadow_324_11906"/>
<feColorMatrix in="SourceAlpha" type="matrix" values="0 0 0 0 0 0 0 0 0 0 0 0 0 0 0 0 0 0 127 0" result="hardAlpha"/>
<feOffset dx="1.5" dy="1.5"/>
<feGaussianBlur stdDeviation="0.5"/>
<feComposite in2="hardAlpha" operator="arithmetic" k2="-1" k3="1"/>
<feColorMatrix type="matrix" values="0 0 0 0 1 0 0 0 0 1 0 0 0 0 1 0 0 0 0.66 0"/>
<feBlend mode="normal" in2="effect1_innerShadow_324_11906" result="effect2_innerShadow_324_11906"/>
</filter>
<linearGradient id="paint0_linear_324_11906" x1="13.3" y1="9.16667" x2="7.34964" y2="6.66752" gradientUnits="userSpaceOnUse">
<stop stop-color="#679E41"/>
<stop offset="0.488845" stop-color="#81B85A"/>
<stop offset="1" stop-color="#9FD678"/>
</linearGradient>
<linearGradient id="paint1_linear_324_11906" x1="10.5" y1="5" x2="10.5" y2="10" gradientUnits="userSpaceOnUse">
<stop stop-color="white" stop-opacity="0.66"/>
<stop offset="1" stop-color="white" stop-opacity="0.33"/>
</linearGradient>
<linearGradient id="paint2_linear_324_11906" x1="13.998" y1="2.13325" x2="7" y2="2.13325" gradientUnits="userSpaceOnUse">
<stop stop-color="#F0A11C"/>
<stop offset="1" stop-color="#F5B61C"/>
</linearGradient>
<linearGradient id="paint3_linear_324_11906" x1="13.998" y1="2.13325" x2="7" y2="2.13325" gradientUnits="userSpaceOnUse">
<stop stop-color="#E4931C"/>
<stop offset="1" stop-color="#F39E1B"/>
</linearGradient>
<linearGradient id="paint4_linear_324_11906" x1="8.3" y1="14.1667" x2="2.34964" y2="11.6675" gradientUnits="userSpaceOnUse">
<stop stop-color="#438DFF"/>
<stop offset="0.488845" stop-color="#5DACFE"/>
<stop offset="1" stop-color="#72D4FF"/>
</linearGradient>
<linearGradient id="paint5_linear_324_11906" x1="5.5" y1="10" x2="5.5" y2="15" gradientUnits="userSpaceOnUse">
<stop stop-color="white" stop-opacity="0.66"/>
<stop offset="1" stop-color="#63BAFF"/>
</linearGradient>
<linearGradient id="paint6_linear_324_11906" x1="8.99795" y1="7.13325" x2="2" y2="7.13325" gradientUnits="userSpaceOnUse">
<stop stop-color="#754112"/>
<stop offset="1" stop-color="#9F5812"/>
</linearGradient>
<linearGradient id="paint7_linear_324_11906" x1="8.99795" y1="7.13325" x2="2" y2="7.13325" gradientUnits="userSpaceOnUse">
<stop stop-color="#5C320E"/>
<stop offset="1" stop-color="#974B0F"/>
</linearGradient>
<linearGradient id="paint8_linear_324_11906" x1="16.001" y1="16.001" x2="5.99904" y2="5.99904" gradientUnits="userSpaceOnUse">
<stop offset="0.14049" stop-color="#4F4F4F"/>
<stop offset="0.857348" stop-color="#CECECE"/>
</linearGradient>
<clipPath id="clip0_324_11906">
<rect width="16" height="16" fill="white"/>
</clipPath>
<clipPath id="clip1_324_11906">
<rect width="16" height="16" fill="white"/>
</clipPath>
</defs>
</svg>
