<svg width="16" height="16" viewBox="0 0 16 16" fill="none" xmlns="http://www.w3.org/2000/svg">
<g clip-path="url(#clip0_324_11779)">
<circle cx="6.5" cy="8.5" r="1" fill="#EAB378" stroke="#CF7D2A"/>
<circle cx="14.5" cy="8.5" r="1" fill="#EAB378" stroke="#CF7D2A"/>
<path d="M12.5 10.5C12.7294 10.5 12.9294 10.3439 12.9851 10.1213L13.4515 8.25562L14.3536 7.35355C14.4488 7.25829 14.5016 7.12862 14.5 6.9939C14.4983 6.85919 14.4424 6.73084 14.3448 6.63793L12.2448 4.63793C12.1519 4.54939 12.0284 4.5 11.9 4.5H9.1C8.97161 4.5 8.84814 4.54939 8.75517 4.63793L6.65517 6.63793C6.55762 6.73084 6.50168 6.85919 6.50004 6.9939C6.49839 7.12862 6.55118 7.25829 6.64645 7.35355L7.5394 8.24651L7.90971 10.0981C7.95645 10.3318 8.16166 10.5 8.4 10.5H12.5Z" fill="url(#paint0_linear_324_11779)" stroke="#518830" stroke-linejoin="round"/>
<path d="M11.7 5.5L13.2842 7.00873L12.6464 7.64645L12.5394 7.75349L12.5097 7.90194L12.1901 9.5H8.8099L8.49029 7.90194L8.4606 7.75349L8.35355 7.64645L7.71584 7.00873L9.3 5.5H11.7Z" stroke="url(#paint1_linear_324_11779)"/>
<circle cx="10.5" cy="3.5" r="3" fill="#F6D0A8" stroke="#A87B4D"/>
<mask id="path-6-inside-1_324_11779" fill="white">
<path fill-rule="evenodd" clip-rule="evenodd" d="M7.08419 4.26651C7.57084 3.65862 8.63668 2.625 9.625 2.625C10.3178 2.625 10.6484 3.00813 10.9606 3.36991C11.2398 3.6935 11.5043 4 12 4C12.6104 4 13.377 3.66209 13.998 3.37912C13.9342 1.50209 12.3925 0 10.5 0C8.567 0 7 1.567 7 3.5C7 3.76331 7.02908 4.01982 7.08419 4.26651Z"/>
</mask>
<path fill-rule="evenodd" clip-rule="evenodd" d="M7.08419 4.26651C7.57084 3.65862 8.63668 2.625 9.625 2.625C10.3178 2.625 10.6484 3.00813 10.9606 3.36991C11.2398 3.6935 11.5043 4 12 4C12.6104 4 13.377 3.66209 13.998 3.37912C13.9342 1.50209 12.3925 0 10.5 0C8.567 0 7 1.567 7 3.5C7 3.76331 7.02908 4.01982 7.08419 4.26651Z" fill="url(#paint2_linear_324_11779)"/>
<path d="M7.08419 4.26651L6.10825 4.48456L6.5626 6.51814L7.86485 4.89147L7.08419 4.26651ZM10.9606 3.36991L10.2035 4.02319L10.9606 3.36991ZM13.998 3.37912L14.4126 4.28908L15.02 4.01229L14.9974 3.3452L13.998 3.37912ZM9.625 1.625C8.80894 1.625 8.08102 2.03613 7.57074 2.41462C7.036 2.81124 6.58764 3.28667 6.30354 3.64155L7.86485 4.89147C8.0674 4.63846 8.39529 4.29313 8.76221 4.02098C9.15359 3.73068 9.45275 3.625 9.625 3.625V1.625ZM11.7177 2.71663C11.4022 2.35104 10.8066 1.625 9.625 1.625V3.625C9.765 3.625 9.82662 3.65716 9.87491 3.68986C9.95587 3.74467 10.0343 3.82716 10.2035 4.02319L11.7177 2.71663ZM12 3C11.9822 3 11.9822 2.99776 11.9911 3.00079C11.9989 3.00345 11.9972 3.00469 11.9825 2.99411C11.9653 2.98178 11.9363 2.95762 11.8899 2.90965C11.8412 2.85937 11.7909 2.80152 11.7177 2.71663L10.2035 4.02319C10.4494 4.30823 10.9913 5 12 5V3ZM13.5833 2.46915C13.2718 2.61107 12.9636 2.74814 12.6674 2.85088C12.3612 2.95704 12.1405 3 12 3V5C12.4699 5 12.9376 4.874 13.3227 4.74047C13.7176 4.6035 14.1031 4.43013 14.4126 4.28908L13.5833 2.46915ZM10.5 1C11.8516 1 12.953 2.07294 12.9985 3.41304L14.9974 3.3452C14.9154 0.931247 12.9335 -1 10.5 -1V1ZM8 3.5C8 2.11929 9.11929 1 10.5 1V-1C8.01472 -1 6 1.01472 6 3.5H8ZM8.06013 4.04846C8.0209 3.87288 8 3.68948 8 3.5H6C6 3.83714 6.03725 4.16676 6.10825 4.48456L8.06013 4.04846Z" fill="url(#paint3_linear_324_11779)" mask="url(#path-6-inside-1_324_11779)"/>
<circle cx="1.5" cy="13.5" r="1" fill="#EAB378" stroke="#CF7D2A"/>
<circle cx="9.5" cy="13.5" r="1" fill="#EAB378" stroke="#CF7D2A"/>
<path d="M7.5 15H3.4L3 13L2 12L4.1 10H6.9L9 12L8 13L7.5 15Z" fill="url(#paint4_linear_324_11779)"/>
<path d="M7.5 15.5C7.72943 15.5 7.92943 15.3439 7.98507 15.1213L8.45148 13.2556L9.35355 12.3536C9.44882 12.2583 9.50161 12.1286 9.49996 11.9939C9.49832 11.8592 9.44238 11.7308 9.34483 11.6379L7.24483 9.63793C7.15186 9.54939 7.02839 9.5 6.9 9.5H4.1C3.97161 9.5 3.84814 9.54939 3.75517 9.63793L1.65517 11.6379C1.55762 11.7308 1.50168 11.8592 1.50004 11.9939C1.49839 12.1286 1.55118 12.2583 1.64645 12.3536L2.5394 13.2465L2.90971 15.0981C2.95645 15.3318 3.16166 15.5 3.4 15.5H7.5Z" stroke="#2E5ABA" stroke-opacity="0.972549" stroke-linejoin="round"/>
<path d="M6.7 10.5L8.28416 12.0087L7.64645 12.6464L7.5394 12.7535L7.50971 12.9019L7.1901 14.5H3.8099L3.49029 12.9019L3.4606 12.7535L3.35355 12.6464L2.71584 12.0087L4.3 10.5H6.7Z" stroke="url(#paint5_linear_324_11779)"/>
<circle cx="5.5" cy="8.5" r="3" fill="#F6D0A8" stroke="#A87B4D"/>
<mask id="path-14-inside-2_324_11779" fill="white">
<path fill-rule="evenodd" clip-rule="evenodd" d="M2.08419 9.26651C2.57084 8.65862 3.63668 7.625 4.625 7.625C5.31782 7.625 5.64841 8.00813 5.96058 8.36991C6.23979 8.6935 6.50426 9 7 9C7.61037 9 8.37702 8.66209 8.99795 8.37912C8.93424 6.50209 7.39254 5 5.5 5C3.567 5 2 6.567 2 8.5C2 8.76331 2.02908 9.01982 2.08419 9.26651Z"/>
</mask>
<path fill-rule="evenodd" clip-rule="evenodd" d="M2.08419 9.26651C2.57084 8.65862 3.63668 7.625 4.625 7.625C5.31782 7.625 5.64841 8.00813 5.96058 8.36991C6.23979 8.6935 6.50426 9 7 9C7.61037 9 8.37702 8.66209 8.99795 8.37912C8.93424 6.50209 7.39254 5 5.5 5C3.567 5 2 6.567 2 8.5C2 8.76331 2.02908 9.01982 2.08419 9.26651Z" fill="url(#paint6_linear_324_11779)"/>
<path d="M2.08419 9.26651L1.10825 9.48456L1.5626 11.5181L2.86485 9.89147L2.08419 9.26651ZM5.96058 8.36991L5.20346 9.02319L5.96058 8.36991ZM8.99795 8.37912L9.41264 9.28908L10.02 9.01229L9.99738 8.3452L8.99795 8.37912ZM4.625 6.625C3.80894 6.625 3.08102 7.03613 2.57074 7.41462C2.036 7.81124 1.58764 8.28667 1.30354 8.64155L2.86485 9.89147C3.0674 9.63846 3.39529 9.29313 3.76221 9.02098C4.15359 8.73068 4.45275 8.625 4.625 8.625V6.625ZM6.71769 7.71663C6.40224 7.35104 5.80662 6.625 4.625 6.625V8.625C4.765 8.625 4.82662 8.65716 4.87491 8.68986C4.95587 8.74467 5.03431 8.82716 5.20346 9.02319L6.71769 7.71663ZM7 8C6.98217 8 6.98223 7.99776 6.99111 8.00079C6.99888 8.00345 6.99721 8.00469 6.98249 7.99411C6.96531 7.98178 6.93625 7.95762 6.88986 7.90965C6.84123 7.85937 6.79094 7.80152 6.71769 7.71663L5.20346 9.02319C5.44941 9.30823 5.99128 10 7 10V8ZM8.58327 7.46915C8.27185 7.61107 7.96358 7.74814 7.66735 7.85088C7.36124 7.95704 7.14048 8 7 8V10C7.46989 10 7.93764 9.874 8.32268 9.74047C8.71761 9.6035 9.10313 9.43013 9.41264 9.28908L8.58327 7.46915ZM5.5 6C6.85161 6 7.95304 7.07294 7.99853 8.41304L9.99738 8.3452C9.91545 5.93125 7.93346 4 5.5 4V6ZM3 8.5C3 7.11929 4.11929 6 5.5 6V4C3.01472 4 1 6.01472 1 8.5H3ZM3.06013 9.04846C3.0209 8.87288 3 8.68948 3 8.5H1C1 8.83714 1.03725 9.16676 1.10825 9.48456L3.06013 9.04846Z" fill="url(#paint7_linear_324_11779)" mask="url(#path-14-inside-2_324_11779)"/>
</g>
<defs>
<linearGradient id="paint0_linear_324_11779" x1="13.3" y1="9.16667" x2="7.34964" y2="6.66752" gradientUnits="userSpaceOnUse">
<stop stop-color="#679E41"/>
<stop offset="0.488845" stop-color="#81B85A"/>
<stop offset="1" stop-color="#9FD678"/>
</linearGradient>
<linearGradient id="paint1_linear_324_11779" x1="10.5" y1="5" x2="10.5" y2="10" gradientUnits="userSpaceOnUse">
<stop stop-color="white" stop-opacity="0.66"/>
<stop offset="1" stop-color="white" stop-opacity="0.33"/>
</linearGradient>
<linearGradient id="paint2_linear_324_11779" x1="13.998" y1="2.13325" x2="7" y2="2.13325" gradientUnits="userSpaceOnUse">
<stop stop-color="#F0A11C"/>
<stop offset="1" stop-color="#F5B61C"/>
</linearGradient>
<linearGradient id="paint3_linear_324_11779" x1="13.998" y1="2.13325" x2="7" y2="2.13325" gradientUnits="userSpaceOnUse">
<stop stop-color="#E4931C"/>
<stop offset="1" stop-color="#F39E1B"/>
</linearGradient>
<linearGradient id="paint4_linear_324_11779" x1="8.3" y1="14.1667" x2="2.34964" y2="11.6675" gradientUnits="userSpaceOnUse">
<stop stop-color="#438DFF"/>
<stop offset="0.488845" stop-color="#5DACFE"/>
<stop offset="1" stop-color="#72D4FF"/>
</linearGradient>
<linearGradient id="paint5_linear_324_11779" x1="5.5" y1="10" x2="5.5" y2="15" gradientUnits="userSpaceOnUse">
<stop stop-color="white" stop-opacity="0.66"/>
<stop offset="1" stop-color="#63BAFF"/>
</linearGradient>
<linearGradient id="paint6_linear_324_11779" x1="8.99795" y1="7.13325" x2="2" y2="7.13325" gradientUnits="userSpaceOnUse">
<stop stop-color="#754112"/>
<stop offset="1" stop-color="#9F5812"/>
</linearGradient>
<linearGradient id="paint7_linear_324_11779" x1="8.99795" y1="7.13325" x2="2" y2="7.13325" gradientUnits="userSpaceOnUse">
<stop stop-color="#5C320E"/>
<stop offset="1" stop-color="#974B0F"/>
</linearGradient>
<clipPath id="clip0_324_11779">
<rect width="16" height="16" fill="white"/>
</clipPath>
</defs>
</svg>
