<svg width="16" height="16" viewBox="0 0 16 16" fill="none" xmlns="http://www.w3.org/2000/svg">
<path d="M6.60867 2.66654C5.96851 1.9513 5.03663 1.5 4 1.5C2.067 1.5 0.5 3.067 0.5 5C0.5 8.24604 3.16656 10.1588 4.17091 10.8793C4.18368 10.8884 4.19619 10.8974 4.20842 10.9062L4.20938 10.9069L4.22985 10.9215L4.25024 10.936L4.27054 10.9506L4.29077 10.965L4.31092 10.9794L4.33099 10.9937L4.35098 11.008L4.37089 11.0222L4.39073 11.0364L4.41048 11.0505L4.43016 11.0646L4.44975 11.0786L4.46927 11.0925L4.48871 11.1064L4.50807 11.1202L4.52736 11.134L4.54657 11.1477L4.5657 11.1614L4.58475 11.175L4.60372 11.1885L4.62262 11.202L4.64144 11.2155L4.66019 11.2289L4.67886 11.2422L4.69745 11.2555L4.71597 11.2687L4.73441 11.2819L4.75277 11.295L4.77106 11.3081L4.78927 11.3211L4.80741 11.334L4.82547 11.3469L4.84346 11.3598L4.86137 11.3726L4.87921 11.3853L4.89697 11.398L4.91466 11.4106L4.93227 11.4232L4.94981 11.4357L4.96728 11.4482L4.98467 11.4606L5.00199 11.473L5.01923 11.4853L5.0364 11.4976L5.0535 11.5098L5.07052 11.522L5.08748 11.5341L5.10435 11.5461L5.12116 11.5581L5.1379 11.5701L5.15456 11.582L5.17115 11.5938L5.18766 11.6056L5.20411 11.6174L5.22048 11.6291L5.23679 11.6407L5.25302 11.6523L5.26918 11.6639L5.28527 11.6754L5.30129 11.6868L5.31723 11.6982L5.33311 11.7095L5.34892 11.7208L5.36465 11.7321L5.38032 11.7433L5.39592 11.7544L5.41144 11.7655L5.4269 11.7765L5.44229 11.7875L5.45761 11.7985L5.47286 11.8093L5.48804 11.8202L5.50315 11.831L5.51819 11.8417L5.53316 11.8524L5.54807 11.8631L5.56291 11.8737L5.57767 11.8842L5.59238 11.8947L5.60701 11.9052L5.62158 11.9156L5.63607 11.9259L5.65051 11.9362L5.66487 11.9465L5.67917 11.9567L5.6934 11.9669L5.70756 11.977L5.72166 11.9871L5.73569 11.9971L5.74965 12.0071L5.76355 12.017L5.77739 12.0269L5.79115 12.0367L5.80485 12.0465L5.81849 12.0562L5.83206 12.0659L5.84557 12.0756L5.85901 12.0852L5.87238 12.0947L5.8857 12.1042L5.89894 12.1137L5.91213 12.1231L5.92524 12.1325L5.9383 12.1418L5.95129 12.1511L5.96422 12.1603L5.97708 12.1695L5.98988 12.1787L6.00262 12.1877L6.01529 12.1968L6.0279 12.2058L6.04045 12.2148L6.05294 12.2237L6.06536 12.2326L6.07772 12.2414L6.09002 12.2502L6.10226 12.2589L6.11443 12.2676L6.12655 12.2763L6.1386 12.2849L6.15059 12.2934L6.16252 12.302L6.17439 12.3104L6.18619 12.3189L6.19794 12.3273L6.20963 12.3356L6.22125 12.3439L6.23282 12.3522L6.24432 12.3604L6.25577 12.3686L6.26716 12.3767L6.27848 12.3848L6.28975 12.3928L6.30096 12.4008L6.3121 12.4088L6.32319 12.4167L6.33422 12.4246L6.3452 12.4324L6.35611 12.4402L6.36697 12.448L6.37776 12.4557L6.3885 12.4634L6.39918 12.471L6.40981 12.4786L6.42037 12.4861L6.43088 12.4937L6.44133 12.5011L6.45172 12.5085L6.46206 12.5159L6.47234 12.5233L6.48256 12.5306L6.49273 12.5378L6.50284 12.5451L6.5129 12.5522L6.52289 12.5594L6.53284 12.5665L6.54272 12.5735L6.55256 12.5806L6.56233 12.5875L6.57205 12.5945L6.58172 12.6014L6.59133 12.6083L6.60088 12.6151L6.61039 12.6219L6.61983 12.6286L6.62922 12.6353L6.63856 12.642L6.64785 12.6486L6.65708 12.6552L6.66626 12.6618L6.67538 12.6683L6.68445 12.6748L6.69347 12.6812L6.70243 12.6876L6.71134 12.694L6.7202 12.7003L6.72901 12.7066L6.73776 12.7129L6.74646 12.7191L6.75511 12.7252L6.76371 12.7314L6.77225 12.7375L6.78074 12.7436L6.78919 12.7496L6.79758 12.7556L6.80592 12.7615L6.81421 12.7675L6.82244 12.7733L6.83063 12.7792L6.83877 12.785L6.84685 12.7908L6.85489 12.7965L6.86287 12.8022L6.87081 12.8079L6.8787 12.8135L6.88653 12.8191L6.89432 12.8247L6.90206 12.8302L6.90975 12.8357L6.91739 12.8412L6.92498 12.8466L6.93252 12.852L6.94001 12.8573L6.94746 12.8626L6.95486 12.8679L6.96221 12.8732L6.96951 12.8784L6.97676 12.8836L6.98397 12.8887L6.99113 12.8938L6.99824 12.8989L7.0053 12.904L7.01232 12.909L7.01929 12.9139L7.02621 12.9189L7.03309 12.9238L7.03992 12.9287L7.04671 12.9335L7.05345 12.9383L7.06014 12.9431L7.06679 12.9479L7.07339 12.9526L7.07994 12.9573L7.08646 12.9619L7.09292 12.9665L7.09934 12.9711L7.10572 12.9757L7.11205 12.9802L7.11834 12.9847L7.12458 12.9892L7.13078 12.9936L7.13694 12.998L7.14305 13.0023L7.14912 13.0067L7.15514 13.011L7.16112 13.0153L7.16706 13.0195L7.17296 13.0237L7.17881 13.0279L7.18462 13.032L7.19038 13.0362L7.19611 13.0402L7.20179 13.0443L7.20743 13.0483L7.21303 13.0523L7.21858 13.0563L7.2241 13.0602L7.22957 13.0641L7.235 13.068L7.24039 13.0719L7.24574 13.0757L7.25105 13.0795L7.25632 13.0833L7.26155 13.087L7.26673 13.0907L7.27188 13.0944L7.27699 13.098L7.28205 13.1016L7.28708 13.1052L7.29207 13.1088L7.29702 13.1123L7.30193 13.1158L7.3068 13.1193L7.31163 13.1228L7.31642 13.1262L7.32117 13.1296L7.32589 13.1329L7.33057 13.1363L7.3352 13.1396L7.3398 13.1429L7.34437 13.1461L7.34889 13.1494L7.35338 13.1526L7.35783 13.1558L7.36224 13.1589L7.36662 13.162L7.37096 13.1651L7.37526 13.1682L7.37952 13.1713L7.38375 13.1743L7.38795 13.1773L7.3921 13.1802L7.39622 13.1832L7.40031 13.1861L7.40436 13.189L7.40837 13.1919L7.41235 13.1947L7.41629 13.1975L7.4202 13.2003L7.42407 13.2031L7.42791 13.2058L7.43171 13.2085L7.43548 13.2112L7.43922 13.2139L7.44292 13.2165L7.44658 13.2192L7.45022 13.2218L7.45382 13.2243L7.45738 13.2269L7.46092 13.2294L7.46442 13.2319L7.46788 13.2344L7.47131 13.2368L7.47472 13.2392L7.47808 13.2417L7.48142 13.244L7.48472 13.2464L7.488 13.2487L7.49124 13.251L7.49444 13.2533L7.49762 13.2556L7.50076 13.2579L7.50388 13.2601L7.50696 13.2623L7.51001 13.2645L7.51303 13.2666L7.51602 13.2688L7.51898 13.2709L7.52191 13.273L7.52481 13.275L7.52768 13.2771L7.53052 13.2791L7.53333 13.2811L7.53611 13.2831L7.53886 13.2851L7.54158 13.287L7.54427 13.2889L7.54693 13.2908L7.54957 13.2927L7.55217 13.2946L7.55475 13.2964L7.5573 13.2982L7.55982 13.3L7.56231 13.3018L7.56478 13.3036L7.56721 13.3053L7.56962 13.307L7.57201 13.3087L7.57436 13.3104L7.57669 13.3121L7.57899 13.3137L7.58126 13.3154L7.58351 13.317L7.58573 13.3185L7.58793 13.3201L7.5901 13.3217L7.59224 13.3232L7.59436 13.3247L7.59645 13.3262L7.59851 13.3277L7.60055 13.3291L7.60257 13.3306L7.60456 13.332L7.60652 13.3334L7.60847 13.3348L7.61038 13.3362L7.61227 13.3375L7.61414 13.3388L7.61598 13.3402L7.6178 13.3415L7.6196 13.3427L7.62137 13.344L7.62312 13.3453L7.62484 13.3465L7.62655 13.3477L7.62823 13.3489L7.62988 13.3501L7.63152 13.3512L7.63313 13.3524L7.63472 13.3535L7.63628 13.3547L7.63783 13.3558L7.63935 13.3568L7.64085 13.3579L7.64233 13.359L7.64379 13.36L7.64522 13.361L7.64664 13.362L7.64803 13.363L7.6494 13.364L7.65076 13.365L7.65209 13.3659L7.6534 13.3669L7.65469 13.3678L7.65597 13.3687L7.65722 13.3696L7.65845 13.3705L7.65966 13.3714L7.66085 13.3722L7.66203 13.373L7.66318 13.3739L7.66432 13.3747L7.66544 13.3755L7.66654 13.3763L7.66762 13.377L7.66868 13.3778L7.66972 13.3785L7.67075 13.3793L7.67175 13.38L7.67274 13.3807L7.67372 13.3814L7.67467 13.3821L7.67561 13.3827L7.67653 13.3834L7.67744 13.384L7.67832 13.3847L7.67919 13.3853L7.68005 13.3859L7.68089 13.3865L7.68171 13.3871L7.68251 13.3877L7.6833 13.3882L7.68408 13.3888L7.68484 13.3893L7.68558 13.3899L7.68631 13.3904L7.68702 13.3909L7.68772 13.3914L7.68841 13.3919L7.68907 13.3924L7.68973 13.3928L7.69037 13.3933L7.691 13.3937L7.69161 13.3942L7.69221 13.3946L7.69279 13.395L7.69337 13.3954L7.69392 13.3958L7.69447 13.3962L7.695 13.3966L7.69552 13.397L7.69603 13.3973L7.69652 13.3977L7.69701 13.398L7.69748 13.3984L7.69793 13.3987L7.69838 13.399L7.69881 13.3993L7.69924 13.3996L7.69965 13.3999L7.70005 13.4002L7.70044 13.4005L7.70081 13.4007L7.70118 13.401L7.70154 13.4013L7.70188 13.4015L7.70222 13.4018L7.70255 13.402L7.70286 13.4022L7.70317 13.4024L7.70346 13.4026L7.70375 13.4028L7.70403 13.403L7.70429 13.4032L7.70455 13.4034L7.7048 13.4036L7.70504 13.4038L7.70527 13.4039L7.7055 13.4041L7.70571 13.4042L7.70592 13.4044L7.70612 13.4045L7.70631 13.4047L7.7065 13.4048L7.70667 13.4049L7.70684 13.4051L7.707 13.4052L7.70716 13.4053L7.70731 13.4054L7.70745 13.4055L7.70758 13.4056L7.70771 13.4057L7.70783 13.4058L7.70795 13.4058L7.70806 13.4059L7.70816 13.406L7.70826 13.4061L7.70836 13.4061L7.70844 13.4062L7.70853 13.4063L7.7086 13.4063L7.70868 13.4064L7.70875 13.4064L7.70881 13.4065L7.70887 13.4065L7.70892 13.4065L7.70897 13.4066L7.70902 13.4066L7.70906 13.4066L7.7091 13.4067L7.70914 13.4067L7.70917 13.4067L7.7092 13.4067L7.70923 13.4068L7.70925 13.4068L7.70927 13.4068L7.70929 13.4068L7.70931 13.4068L7.70932 13.4068L7.70934 13.4068L7.70935 13.4068L7.70935 13.4068L7.70936 13.4069L7.70937 13.4069L7.70938 13.4069L7.70938 13.4069L8 13.6145L8.29062 13.4069L8.29062 13.4069L8.29063 13.4069L8.29064 13.4069L8.29065 13.4068L8.29065 13.4068L8.29066 13.4068L8.29068 13.4068L8.29069 13.4068L8.29071 13.4068L8.29073 13.4068L8.29075 13.4068L8.29077 13.4068L8.2908 13.4067L8.29083 13.4067L8.29086 13.4067L8.2909 13.4067L8.29094 13.4066L8.29098 13.4066L8.29103 13.4066L8.29108 13.4065L8.29113 13.4065L8.29119 13.4065L8.29125 13.4064L8.29132 13.4064L8.2914 13.4063L8.29147 13.4063L8.29156 13.4062L8.29164 13.4061L8.29174 13.4061L8.29184 13.406L8.29194 13.4059L8.29205 13.4058L8.29217 13.4058L8.29229 13.4057L8.29242 13.4056L8.29255 13.4055L8.29269 13.4054L8.29284 13.4053L8.293 13.4052L8.29316 13.4051L8.29333 13.4049L8.2935 13.4048L8.29369 13.4047L8.29388 13.4045L8.29408 13.4044L8.29429 13.4042L8.2945 13.4041L8.29473 13.4039L8.29496 13.4038L8.2952 13.4036L8.29545 13.4034L8.29571 13.4032L8.29597 13.403L8.29625 13.4028L8.29654 13.4026L8.29683 13.4024L8.29714 13.4022L8.29745 13.402L8.29778 13.4018L8.29812 13.4015L8.29846 13.4013L8.29882 13.401L8.29919 13.4007L8.29956 13.4005L8.29995 13.4002L8.30035 13.3999L8.30076 13.3996L8.30119 13.3993L8.30162 13.399L8.30207 13.3987L8.30252 13.3984L8.30299 13.398L8.30348 13.3977L8.30397 13.3973L8.30448 13.397L8.305 13.3966L8.30553 13.3962L8.30608 13.3958L8.30663 13.3954L8.30721 13.395L8.30779 13.3946L8.30839 13.3942L8.309 13.3937L8.30963 13.3933L8.31027 13.3928L8.31093 13.3924L8.31159 13.3919L8.31228 13.3914L8.31298 13.3909L8.31369 13.3904L8.31442 13.3899L8.31516 13.3893L8.31592 13.3888L8.3167 13.3882L8.31749 13.3877L8.31829 13.3871L8.31911 13.3865L8.31995 13.3859L8.32081 13.3853L8.32168 13.3847L8.32256 13.384L8.32347 13.3834L8.32439 13.3827L8.32533 13.3821L8.32628 13.3814L8.32726 13.3807L8.32825 13.38L8.32925 13.3793L8.33028 13.3785L8.33132 13.3778L8.33238 13.377L8.33346 13.3763L8.33456 13.3755L8.33568 13.3747L8.33682 13.3739L8.33797 13.373L8.33915 13.3722L8.34034 13.3714L8.34155 13.3705L8.34278 13.3696L8.34403 13.3687L8.34531 13.3678L8.3466 13.3669L8.34791 13.3659L8.34924 13.365L8.3506 13.364L8.35197 13.363L8.35336 13.362L8.35478 13.361L8.35621 13.36L8.35767 13.359L8.35915 13.3579L8.36065 13.3568L8.36217 13.3558L8.36372 13.3547L8.36528 13.3535L8.36687 13.3524L8.36848 13.3512L8.37012 13.3501L8.37177 13.3489L8.37345 13.3477L8.37516 13.3465L8.37688 13.3453L8.37863 13.344L8.3804 13.3427L8.3822 13.3415L8.38402 13.3402L8.38586 13.3388L8.38773 13.3375L8.38962 13.3362L8.39153 13.3348L8.39348 13.3334L8.39544 13.332L8.39743 13.3306L8.39945 13.3291L8.40149 13.3277L8.40355 13.3262L8.40564 13.3247L8.40776 13.3232L8.4099 13.3217L8.41207 13.3201L8.41427 13.3185L8.41649 13.317L8.41874 13.3154L8.42101 13.3137L8.42331 13.3121L8.42564 13.3104L8.42799 13.3087L8.43038 13.307L8.43279 13.3053L8.43522 13.3036L8.43769 13.3018L8.44018 13.3L8.4427 13.2982L8.44525 13.2964L8.44783 13.2946L8.45043 13.2927L8.45307 13.2908L8.45573 13.2889L8.45842 13.287L8.46114 13.2851L8.46389 13.2831L8.46667 13.2811L8.46948 13.2791L8.47232 13.2771L8.47519 13.275L8.47809 13.273L8.48102 13.2709L8.48398 13.2688L8.48697 13.2666L8.48999 13.2645L8.49304 13.2623L8.49612 13.2601L8.49924 13.2579L8.50238 13.2556L8.50556 13.2533L8.50876 13.251L8.512 13.2487L8.51528 13.2464L8.51858 13.244L8.52192 13.2417L8.52528 13.2392L8.52869 13.2368L8.53212 13.2344L8.53558 13.2319L8.53908 13.2294L8.54262 13.2269L8.54618 13.2243L8.54978 13.2218L8.55342 13.2192L8.55708 13.2165L8.56078 13.2139L8.56452 13.2112L8.56829 13.2085L8.57209 13.2058L8.57593 13.2031L8.5798 13.2003L8.58371 13.1975L8.58765 13.1947L8.59163 13.1919L8.59564 13.189L8.59969 13.1861L8.60378 13.1832L8.6079 13.1802L8.61205 13.1773L8.61625 13.1743L8.62048 13.1713L8.62474 13.1682L8.62904 13.1651L8.63338 13.162L8.63776 13.1589L8.64217 13.1558L8.64662 13.1526L8.65111 13.1494L8.65563 13.1461L8.6602 13.1429L8.6648 13.1396L8.66943 13.1363L8.67411 13.1329L8.67883 13.1296L8.68358 13.1262L8.68837 13.1228L8.6932 13.1193L8.69807 13.1158L8.70298 13.1123L8.70793 13.1088L8.71292 13.1052L8.71795 13.1016L8.72301 13.098L8.72812 13.0944L8.73327 13.0907L8.73845 13.087L8.74368 13.0833L8.74895 13.0795L8.75426 13.0757L8.75961 13.0719L8.765 13.068L8.77043 13.0641L8.7759 13.0602L8.78142 13.0563L8.78697 13.0523L8.79257 13.0483L8.79821 13.0443L8.80389 13.0402L8.80962 13.0362L8.81538 13.032L8.82119 13.0279L8.82704 13.0237L8.83294 13.0195L8.83888 13.0153L8.84486 13.011L8.85088 13.0067L8.85695 13.0023L8.86306 12.998L8.86922 12.9936L8.87542 12.9892L8.88166 12.9847L8.88795 12.9802L8.89428 12.9757L8.90066 12.9711L8.90708 12.9665L8.91354 12.9619L8.92006 12.9573L8.92661 12.9526L8.93321 12.9479L8.93986 12.9431L8.94655 12.9383L8.95329 12.9335L8.96008 12.9287L8.96691 12.9238L8.97379 12.9189L8.98071 12.9139L8.98768 12.909L8.9947 12.904L9.00176 12.8989L9.00887 12.8938L9.01603 12.8887L9.02324 12.8836L9.03049 12.8784L9.03779 12.8732L9.04514 12.8679L9.05254 12.8626L9.05999 12.8573L9.06748 12.852L9.07502 12.8466L9.08261 12.8412L9.09025 12.8357L9.09794 12.8302L9.10568 12.8247L9.11347 12.8191L9.1213 12.8135L9.12919 12.8079L9.13713 12.8022L9.14511 12.7965L9.15315 12.7908L9.16123 12.785L9.16937 12.7792L9.17756 12.7733L9.18579 12.7675L9.19408 12.7615L9.20242 12.7556L9.21081 12.7496L9.21926 12.7436L9.22775 12.7375L9.23629 12.7314L9.24489 12.7252L9.25354 12.7191L9.26224 12.7129L9.271 12.7066L9.2798 12.7003L9.28866 12.694L9.29757 12.6876L9.30653 12.6812L9.31555 12.6748L9.32462 12.6683L9.33374 12.6618L9.34292 12.6552L9.35215 12.6486L9.36144 12.642L9.37078 12.6353L9.38017 12.6286L9.38961 12.6219L9.39912 12.6151L9.40867 12.6083L9.41828 12.6014L9.42795 12.5945L9.43767 12.5875L9.44744 12.5806L9.45728 12.5735L9.46716 12.5665L9.47711 12.5594L9.4871 12.5522L9.49716 12.5451L9.50727 12.5378L9.51744 12.5306L9.52766 12.5233L9.53794 12.5159L9.54828 12.5085L9.55867 12.5011L9.56912 12.4937L9.57963 12.4861L9.59019 12.4786L9.60082 12.471L9.6115 12.4634L9.62224 12.4557L9.63303 12.448L9.64389 12.4402L9.6548 12.4324L9.66578 12.4246L9.67681 12.4167L9.68789 12.4088L9.69904 12.4008L9.71025 12.3928L9.72152 12.3848L9.73284 12.3767L9.74423 12.3686L9.75568 12.3604L9.76718 12.3522L9.77875 12.3439L9.79037 12.3356L9.80206 12.3273L9.81381 12.3189L9.82561 12.3104L9.83748 12.302L9.84941 12.2934L9.8614 12.2849L9.87346 12.2763L9.88557 12.2676L9.89774 12.2589L9.90998 12.2502L9.92228 12.2414L9.93464 12.2326L9.94706 12.2237L9.95955 12.2148L9.9721 12.2058L9.98471 12.1968L9.99738 12.1877L10.0101 12.1787L10.0229 12.1695L10.0358 12.1603L10.0487 12.1511L10.0617 12.1418L10.0748 12.1325L10.0879 12.1231L10.1011 12.1137L10.1143 12.1042L10.1276 12.0947L10.141 12.0852L10.1544 12.0756L10.1679 12.0659L10.1815 12.0562L10.1951 12.0465L10.2088 12.0367L10.2226 12.0269L10.2364 12.017L10.2503 12.0071L10.2643 11.9971L10.2783 11.9871L10.2924 11.977L10.3066 11.9669L10.3208 11.9567L10.3351 11.9465L10.3495 11.9362L10.3639 11.9259L10.3784 11.9156L10.393 11.9052L10.4076 11.8947L10.4223 11.8842L10.4371 11.8737L10.4519 11.8631L10.4668 11.8524L10.4818 11.8417L10.4969 11.831L10.512 11.8202L10.5271 11.8093L10.5424 11.7985L10.5577 11.7875L10.5731 11.7765L10.5886 11.7655L10.6041 11.7544L10.6197 11.7433L10.6353 11.7321L10.6511 11.7208L10.6669 11.7095L10.6828 11.6982L10.6987 11.6868L10.7147 11.6754L10.7308 11.6639L10.747 11.6523L10.7632 11.6407L10.7795 11.6291L10.7959 11.6174L10.8123 11.6056L10.8289 11.5938L10.8454 11.582L10.8621 11.5701L10.8788 11.5581L10.8956 11.5461L10.9125 11.5341L10.9295 11.522L10.9465 11.5098L10.9636 11.4976L10.9808 11.4853L10.998 11.473L11.0153 11.4606L11.0327 11.4482L11.0502 11.4357L11.0677 11.4232L11.0853 11.4106L11.103 11.398L11.1208 11.3853L11.1386 11.3726L11.1565 11.3598L11.1745 11.3469L11.1926 11.334L11.2107 11.3211L11.2289 11.3081L11.2472 11.295L11.2656 11.2819L11.284 11.2687L11.3026 11.2555L11.3211 11.2422L11.3398 11.2289L11.3586 11.2155L11.3774 11.202L11.3963 11.1885L11.4153 11.175L11.4343 11.1614L11.4534 11.1477L11.4726 11.134L11.4919 11.1202L11.5113 11.1064L11.5307 11.0925L11.5502 11.0786L11.5698 11.0646L11.5895 11.0505L11.6093 11.0364L11.6291 11.0222L11.649 11.008L11.669 10.9937L11.6891 10.9794L11.7092 10.965L11.7295 10.9506L11.7498 10.936L11.7702 10.9215L11.7906 10.9069L11.792 10.9059C11.8075 10.8947 11.8233 10.8834 11.8393 10.8719C13 10.0375 15.5 8.2403 15.5 5C15.5 3.067 13.933 1.5 12 1.5C10.9634 1.5 10.0315 1.9513 9.39133 2.66654C9.16133 2.92351 8.7462 3.39406 8.37708 3.81345C8.1771 4.04066 7.82292 4.04066 7.62293 3.81344C7.2542 3.3945 6.83944 2.92437 6.60867 2.66654Z" fill="#D9D9D9" stroke="url(#paint0_linear_280_5925)"/>
<path d="M1 5C1 6.65685 2.34315 8 4 8C5.65685 8 7 6.65685 7 5C7 4.23165 6.71115 3.53076 6.23611 3C5.68679 2.38625 4.8885 2 4 2C2.34315 2 1 3.34315 1 5Z" fill="url(#paint1_linear_280_5925)"/>
<path d="M12 8C13.6569 8 15 6.65685 15 5C15 3.34315 13.6569 2 12 2C11.1115 2 10.3132 2.38625 9.76389 3C9.28885 3.53076 9 4.23165 9 5C9 6.65685 10.3431 8 12 8Z" fill="url(#paint2_linear_280_5925)"/>
<path d="M15 5C15 6.65685 13.6569 8 12 8C10.3431 8 9 6.65685 9 5C9 4.23165 9.28885 3.53076 9.76389 3C9.53553 3.25514 9.1218 3.72409 8.75241 4.14379C8.35333 4.59722 7.64667 4.59721 7.2476 4.14379C6.8786 3.72454 6.46524 3.256 6.23611 3C6.71115 3.53076 7 4.23165 7 5C7 6.65685 5.65685 8 4 8C2.34315 8 1 6.65685 1 5C1 8 3.5 9.78213 4.5 10.5C8 13 8 13 8 13C8 13 8 13 11.5 10.5C12.6609 9.66481 15 8 15 5Z" fill="url(#paint3_linear_280_5925)"/>
<path d="M11.2286 10.0793L11.2286 10.0793L11.2094 10.0931L11.208 10.0941L8 12.3855L4.79156 10.0938L4.79062 10.0931L4.77913 10.0849C3.74627 9.34348 1.5 7.70113 1.5 5C1.5 3.61929 2.61929 2.5 4 2.5C4.74037 2.5 5.40506 2.8212 5.86354 3.33346C6.09103 3.58764 6.503 4.05457 6.87227 4.47413C7.47043 5.15376 8.52956 5.15377 9.12774 4.47414C9.49741 4.05413 9.90973 3.58677 10.1365 3.33346C10.5949 2.8212 11.2596 2.5 12 2.5C13.3807 2.5 14.5 3.61929 14.5 5C14.5 7.69857 12.4164 9.22492 11.2286 10.0793Z" stroke="url(#paint4_linear_280_5925)"/>
<defs>
<linearGradient id="paint0_linear_280_5925" x1="1" y1="2" x2="15" y2="14" gradientUnits="userSpaceOnUse">
<stop stop-color="#FCB2B0"/>
<stop offset="0.836863" stop-color="#D24343"/>
</linearGradient>
<linearGradient id="paint1_linear_280_5925" x1="1" y1="2" x2="13.6794" y2="14.3552" gradientUnits="userSpaceOnUse">
<stop stop-color="#FFB5B4"/>
<stop offset="0.778805" stop-color="#FF6E6D"/>
</linearGradient>
<linearGradient id="paint2_linear_280_5925" x1="1" y1="2" x2="13.6794" y2="14.3552" gradientUnits="userSpaceOnUse">
<stop stop-color="#FFB5B4"/>
<stop offset="0.778805" stop-color="#FF6E6D"/>
</linearGradient>
<linearGradient id="paint3_linear_280_5925" x1="1" y1="2" x2="13.6794" y2="14.3552" gradientUnits="userSpaceOnUse">
<stop stop-color="#FFB5B4"/>
<stop offset="0.778805" stop-color="#FF6E6D"/>
</linearGradient>
<linearGradient id="paint4_linear_280_5925" x1="1" y1="2" x2="13.9569" y2="14.1155" gradientUnits="userSpaceOnUse">
<stop stop-color="#FED9D6"/>
<stop offset="0.836863" stop-color="#FEBEB9"/>
</linearGradient>
</defs>
</svg>
