<svg width="16" height="16" viewBox="0 0 16 16" fill="none" xmlns="http://www.w3.org/2000/svg">
<g clip-path="url(#clip0_319_9661)">
<g clip-path="url(#clip1_319_9661)">
<path d="M12.5 14.5H3.5V8.70711L8 4.20711L12.5 8.70711V14.5Z" fill="#F3F8FE" stroke="url(#paint0_linear_319_9661)"/>
<mask id="path-2-inside-1_319_9661" fill="white">
<path d="M6 9H10V15H6V9Z"/>
</mask>
<path d="M6 9H10V15H6V9Z" fill="url(#paint1_linear_319_9661)"/>
<path d="M6 9V8H5V9H6ZM10 9H11V8H10V9ZM10 15V16H11V15H10ZM6 15H5V16H6V15ZM6 10H10V8H6V10ZM9 9V15H11V9H9ZM10 14H6V16H10V14ZM7 15V9H5V15H7Z" fill="url(#paint2_linear_319_9661)" mask="url(#path-2-inside-1_319_9661)"/>
<path d="M5 14C5 14.4907 5 15 5 15H0C0 15 0 14.8284 0 14C0 13.1716 1.11929 12 2.50001 12C3.88072 12 5 13.1716 5 14Z" fill="url(#paint3_linear_319_9661)"/>
<path d="M4.5 14L4.5 14.5H0.5V14.4995V14.4964V14.4932V14.4901V14.4869V14.4837V14.4805V14.4773V14.4741V14.4708V14.4676V14.4643V14.461V14.4577V14.4544V14.4511V14.4478V14.4445V14.4411V14.4378V14.4344V14.431V14.4276V14.4242V14.4207V14.4173V14.4139V14.4104V14.4069V14.4034V14.3999V14.3964V14.3929V14.3893V14.3858V14.3822V14.3786V14.375V14.3714V14.3678V14.3642V14.3605V14.3568V14.3532V14.3495V14.3458V14.3421V14.3383V14.3346V14.3308V14.3271V14.3233V14.3195V14.3157V14.3119V14.308V14.3042V14.3003V14.2965V14.2926V14.2887V14.2847V14.2808V14.2769V14.2729V14.2689V14.265V14.261V14.257V14.2529V14.2489V14.2448V14.2408V14.2367V14.2326V14.2285V14.2244V14.2202V14.2161V14.2119V14.2077V14.2035V14.1993V14.1951V14.1909V14.1866V14.1824V14.1781V14.1738V14.1695V14.1652V14.1608V14.1565V14.1521V14.1478V14.1434V14.139V14.1345V14.1301V14.1257V14.1212V14.1167V14.1122V14.1077V14.1032V14.0987V14.0941V14.0895V14.085V14.0804V14.0758V14.0711V14.0665V14.0618V14.0572V14.0525V14.0478V14.0431V14.0384V14.0336V14.0289V14.0241V14.0193V14.0145V14.0097V14.0048V14C0.5 13.7856 0.667179 13.4112 1.06176 13.0654C1.43956 12.7343 1.95123 12.5 2.50001 12.5C3.04878 12.5 3.56045 12.7343 3.93824 13.0654C4.33282 13.4112 4.5 13.7856 4.5 14Z" stroke="#2F6F29" stroke-opacity="0.33"/>
<path d="M16 14C16 14.4907 16 15 16 15H11C11 15 11 14.8284 11 14C11 13.1716 12.1193 12 13.5 12C14.8807 12 16 13.1716 16 14Z" fill="url(#paint4_linear_319_9661)"/>
<path d="M15.5 14L15.5 14.5H11.5V14.4995V14.4964V14.4932V14.4901V14.4869V14.4837V14.4805V14.4773V14.4741V14.4708V14.4676V14.4643V14.461V14.4577V14.4544V14.4511V14.4478V14.4445V14.4411V14.4378V14.4344V14.431V14.4276V14.4242V14.4207V14.4173V14.4139V14.4104V14.4069V14.4034V14.3999V14.3964V14.3929V14.3893V14.3858V14.3822V14.3786V14.375V14.3714V14.3678V14.3642V14.3605V14.3568V14.3532V14.3495V14.3458V14.3421V14.3383V14.3346V14.3308V14.3271V14.3233V14.3195V14.3157V14.3119V14.308V14.3042V14.3003V14.2965V14.2926V14.2887V14.2847V14.2808V14.2769V14.2729V14.2689V14.265V14.261V14.257V14.2529V14.2489V14.2448V14.2408V14.2367V14.2326V14.2285V14.2244V14.2202V14.2161V14.2119V14.2077V14.2035V14.1993V14.1951V14.1909V14.1866V14.1824V14.1781V14.1738V14.1695V14.1652V14.1608V14.1565V14.1521V14.1478V14.1434V14.139V14.1345V14.1301V14.1257V14.1212V14.1167V14.1122V14.1077V14.1032V14.0987V14.0941V14.0895V14.085V14.0804V14.0758V14.0711V14.0665V14.0618V14.0572V14.0525V14.0478V14.0431V14.0384V14.0336V14.0289V14.0241V14.0193V14.0145V14.0097V14.0048V14C11.5 13.7856 11.6672 13.4112 12.0618 13.0654C12.4396 12.7343 12.9512 12.5 13.5 12.5C14.0488 12.5 14.5605 12.7343 14.9382 13.0654C15.3328 13.4112 15.5 13.7856 15.5 14Z" stroke="#2F6F29" stroke-opacity="0.33"/>
<path d="M7 1.5C6.86739 1.5 6.74021 1.55268 6.64645 1.64645L1.14645 7.14645C0.951184 7.34171 0.951184 7.65829 1.14645 7.85355L2.14645 8.85355C2.34171 9.04882 2.65829 9.04882 2.85355 8.85355L7.20711 4.5H8.79289L13.1464 8.85355C13.3417 9.04882 13.6583 9.04882 13.8536 8.85355L14.8536 7.85355C15.0488 7.65829 15.0488 7.34171 14.8536 7.14645L9.35355 1.64645C9.25979 1.55268 9.13261 1.5 9 1.5H7Z" fill="url(#paint5_linear_319_9661)" stroke="url(#paint6_linear_319_9661)" stroke-linejoin="round"/>
</g>
<g filter="url(#filter0_i_319_9661)">
<path d="M10 9H6V14H10V16H11L16 11.5L11 7H10V9Z" fill="#80B361"/>
</g>
<path d="M10 9.5C10.2761 9.5 10.5 9.27614 10.5 9V7.5H10.8081L15.2526 11.5L10.8081 15.5H10.5V14C10.5 13.7239 10.2761 13.5 10 13.5H6.5V9.5H10Z" stroke="url(#paint7_linear_319_9661)" stroke-linejoin="round"/>
<path d="M7.5 12.5V10.5H10C10.7149 10.5 11.2659 10.0257 11.4412 9.41686L13.7531 11.5L11.4413 13.5831C11.263 12.9643 10.6975 12.5 10.0049 12.5H7.5Z" stroke="white" stroke-opacity="0.2" stroke-linejoin="round"/>
</g>
<defs>
<filter id="filter0_i_319_9661" x="6" y="7" width="12" height="11" filterUnits="userSpaceOnUse" color-interpolation-filters="sRGB">
<feFlood flood-opacity="0" result="BackgroundImageFix"/>
<feBlend mode="normal" in="SourceGraphic" in2="BackgroundImageFix" result="shape"/>
<feColorMatrix in="SourceAlpha" type="matrix" values="0 0 0 0 0 0 0 0 0 0 0 0 0 0 0 0 0 0 127 0" result="hardAlpha"/>
<feOffset dx="2" dy="2"/>
<feGaussianBlur stdDeviation="1"/>
<feComposite in2="hardAlpha" operator="arithmetic" k2="-1" k3="1"/>
<feColorMatrix type="matrix" values="0 0 0 0 1 0 0 0 0 1 0 0 0 0 1 0 0 0 0.25 0"/>
<feBlend mode="normal" in2="shape" result="effect1_innerShadow_319_9661"/>
</filter>
<linearGradient id="paint0_linear_319_9661" x1="3" y1="6.5" x2="10" y2="14.5" gradientUnits="userSpaceOnUse">
<stop stop-color="#CFCDCB"/>
<stop offset="1" stop-color="#666666"/>
</linearGradient>
<linearGradient id="paint1_linear_319_9661" x1="8" y1="9" x2="8" y2="15" gradientUnits="userSpaceOnUse">
<stop stop-color="#999999"/>
<stop offset="1" stop-color="#ACACAC"/>
</linearGradient>
<linearGradient id="paint2_linear_319_9661" x1="8" y1="9" x2="8" y2="15" gradientUnits="userSpaceOnUse">
<stop stop-color="#747474"/>
<stop offset="1" stop-color="#8C8C8C"/>
</linearGradient>
<linearGradient id="paint3_linear_319_9661" x1="2.34112e-08" y1="13.5" x2="4.99933" y2="13.5581" gradientUnits="userSpaceOnUse">
<stop stop-color="#8FCA84"/>
<stop offset="1" stop-color="#5EA455"/>
</linearGradient>
<linearGradient id="paint4_linear_319_9661" x1="11" y1="13.5" x2="15.9993" y2="13.5581" gradientUnits="userSpaceOnUse">
<stop stop-color="#8FCA84"/>
<stop offset="1" stop-color="#2F6F29" stop-opacity="0.956863"/>
</linearGradient>
<linearGradient id="paint5_linear_319_9661" x1="14.5" y1="5.25" x2="1.5" y2="5.25" gradientUnits="userSpaceOnUse">
<stop stop-color="#B18C5C"/>
<stop offset="1" stop-color="#D3AF7A"/>
</linearGradient>
<linearGradient id="paint6_linear_319_9661" x1="14" y1="9" x2="7" y2="2" gradientUnits="userSpaceOnUse">
<stop stop-color="#783E25" stop-opacity="0.992157"/>
<stop offset="1" stop-color="#BA7D33" stop-opacity="0.945098"/>
</linearGradient>
<linearGradient id="paint7_linear_319_9661" x1="14.5714" y1="14.7143" x2="8.17837" y2="7.61089" gradientUnits="userSpaceOnUse">
<stop stop-color="#247C10"/>
<stop offset="1" stop-color="#6FA53D"/>
</linearGradient>
<clipPath id="clip0_319_9661">
<rect width="16" height="16" fill="white"/>
</clipPath>
<clipPath id="clip1_319_9661">
<rect width="16" height="16" fill="white"/>
</clipPath>
</defs>
</svg>
