<svg width="16" height="16" viewBox="0 0 16 16" fill="none" xmlns="http://www.w3.org/2000/svg">
<g clip-path="url(#clip0_319_9660)">
<g clip-path="url(#clip1_319_9660)">
<path d="M12.5 13.5H3.5V7.70711L8 3.20711L12.5 7.70711V13.5Z" fill="#F3F8FE" stroke="url(#paint0_linear_319_9660)"/>
<mask id="path-2-inside-1_319_9660" fill="white">
<path d="M6 8H10V14H6V8Z"/>
</mask>
<path d="M6 8H10V14H6V8Z" fill="url(#paint1_linear_319_9660)"/>
<path d="M6 8V7H5V8H6ZM10 8H11V7H10V8ZM10 14V15H11V14H10ZM6 14H5V15H6V14ZM6 9H10V7H6V9ZM9 8V14H11V8H9ZM10 13H6V15H10V13ZM7 14V8H5V14H7Z" fill="url(#paint2_linear_319_9660)" mask="url(#path-2-inside-1_319_9660)"/>
<path d="M5 13C5 13.4907 5 14 5 14H0C0 14 0 13.8284 0 13C0 12.1716 1.11929 11 2.50001 11C3.88072 11 5 12.1716 5 13Z" fill="url(#paint3_linear_319_9660)"/>
<path d="M4.5 13L4.5 13.5H0.5V13.4995V13.4964V13.4932V13.4901V13.4869V13.4837V13.4805V13.4773V13.4741V13.4708V13.4676V13.4643V13.461V13.4577V13.4544V13.4511V13.4478V13.4445V13.4411V13.4378V13.4344V13.431V13.4276V13.4242V13.4207V13.4173V13.4139V13.4104V13.4069V13.4034V13.3999V13.3964V13.3929V13.3893V13.3858V13.3822V13.3786V13.375V13.3714V13.3678V13.3642V13.3605V13.3568V13.3532V13.3495V13.3458V13.3421V13.3383V13.3346V13.3308V13.3271V13.3233V13.3195V13.3157V13.3119V13.308V13.3042V13.3003V13.2965V13.2926V13.2887V13.2847V13.2808V13.2769V13.2729V13.2689V13.265V13.261V13.257V13.2529V13.2489V13.2448V13.2408V13.2367V13.2326V13.2285V13.2244V13.2202V13.2161V13.2119V13.2077V13.2035V13.1993V13.1951V13.1909V13.1866V13.1824V13.1781V13.1738V13.1695V13.1652V13.1608V13.1565V13.1521V13.1478V13.1434V13.139V13.1345V13.1301V13.1257V13.1212V13.1167V13.1122V13.1077V13.1032V13.0987V13.0941V13.0895V13.085V13.0804V13.0758V13.0711V13.0665V13.0618V13.0572V13.0525V13.0478V13.0431V13.0384V13.0336V13.0289V13.0241V13.0193V13.0145V13.0097V13.0048V13C0.5 12.7856 0.667179 12.4112 1.06176 12.0654C1.43956 11.7343 1.95123 11.5 2.50001 11.5C3.04878 11.5 3.56045 11.7343 3.93824 12.0654C4.33282 12.4112 4.5 12.7856 4.5 13Z" stroke="#2F6F29" stroke-opacity="0.33"/>
<path d="M16 13C16 13.4907 16 14 16 14H11C11 14 11 13.8284 11 13C11 12.1716 12.1193 11 13.5 11C14.8807 11 16 12.1716 16 13Z" fill="url(#paint4_linear_319_9660)"/>
<path d="M15.5 13L15.5 13.5H11.5V13.4995V13.4964V13.4932V13.4901V13.4869V13.4837V13.4805V13.4773V13.4741V13.4708V13.4676V13.4643V13.461V13.4577V13.4544V13.4511V13.4478V13.4445V13.4411V13.4378V13.4344V13.431V13.4276V13.4242V13.4207V13.4173V13.4139V13.4104V13.4069V13.4034V13.3999V13.3964V13.3929V13.3893V13.3858V13.3822V13.3786V13.375V13.3714V13.3678V13.3642V13.3605V13.3568V13.3532V13.3495V13.3458V13.3421V13.3383V13.3346V13.3308V13.3271V13.3233V13.3195V13.3157V13.3119V13.308V13.3042V13.3003V13.2965V13.2926V13.2887V13.2847V13.2808V13.2769V13.2729V13.2689V13.265V13.261V13.257V13.2529V13.2489V13.2448V13.2408V13.2367V13.2326V13.2285V13.2244V13.2202V13.2161V13.2119V13.2077V13.2035V13.1993V13.1951V13.1909V13.1866V13.1824V13.1781V13.1738V13.1695V13.1652V13.1608V13.1565V13.1521V13.1478V13.1434V13.139V13.1345V13.1301V13.1257V13.1212V13.1167V13.1122V13.1077V13.1032V13.0987V13.0941V13.0895V13.085V13.0804V13.0758V13.0711V13.0665V13.0618V13.0572V13.0525V13.0478V13.0431V13.0384V13.0336V13.0289V13.0241V13.0193V13.0145V13.0097V13.0048V13C11.5 12.7856 11.6672 12.4112 12.0618 12.0654C12.4396 11.7343 12.9512 11.5 13.5 11.5C14.0488 11.5 14.5605 11.7343 14.9382 12.0654C15.3328 12.4112 15.5 12.7856 15.5 13Z" stroke="#2F6F29" stroke-opacity="0.33"/>
<path d="M7 0.5C6.86739 0.5 6.74021 0.552678 6.64645 0.646447L1.14645 6.14645C0.951184 6.34171 0.951184 6.65829 1.14645 6.85355L2.14645 7.85355C2.34171 8.04882 2.65829 8.04882 2.85355 7.85355L7.20711 3.5H8.79289L13.1464 7.85355C13.3417 8.04882 13.6583 8.04882 13.8536 7.85355L14.8536 6.85355C15.0488 6.65829 15.0488 6.34171 14.8536 6.14645L9.35355 0.646447C9.25979 0.552678 9.13261 0.5 9 0.5H7Z" fill="url(#paint5_linear_319_9660)" stroke="url(#paint6_linear_319_9660)" stroke-linejoin="round"/>
</g>
<mask id="path-9-inside-2_319_9660" fill="white">
<path fill-rule="evenodd" clip-rule="evenodd" d="M6.5 16C8.433 16 10 14.433 10 12.5C10 10.567 8.433 9 6.5 9C4.567 9 3 10.567 3 12.5C3 14.433 4.567 16 6.5 16ZM6.5 13C6.77614 13 7 12.7761 7 12.5C7 12.2239 6.77614 12 6.5 12C6.22386 12 6 12.2239 6 12.5C6 12.7761 6.22386 13 6.5 13Z"/>
</mask>
<path fill-rule="evenodd" clip-rule="evenodd" d="M6.5 16C8.433 16 10 14.433 10 12.5C10 10.567 8.433 9 6.5 9C4.567 9 3 10.567 3 12.5C3 14.433 4.567 16 6.5 16ZM6.5 13C6.77614 13 7 12.7761 7 12.5C7 12.2239 6.77614 12 6.5 12C6.22386 12 6 12.2239 6 12.5C6 12.7761 6.22386 13 6.5 13Z" fill="url(#paint7_linear_319_9660)"/>
<path d="M9 12.5C9 13.8807 7.88071 15 6.5 15V17C8.98528 17 11 14.9853 11 12.5H9ZM6.5 10C7.88071 10 9 11.1193 9 12.5H11C11 10.0147 8.98528 8 6.5 8V10ZM4 12.5C4 11.1193 5.11929 10 6.5 10V8C4.01472 8 2 10.0147 2 12.5H4ZM6.5 15C5.11929 15 4 13.8807 4 12.5H2C2 14.9853 4.01472 17 6.5 17V15ZM6 12.5C6 12.2239 6.22386 12 6.5 12V14C7.32843 14 8 13.3284 8 12.5H6ZM6.5 13C6.22386 13 6 12.7761 6 12.5H8C8 11.6716 7.32843 11 6.5 11V13ZM7 12.5C7 12.7761 6.77614 13 6.5 13V11C5.67157 11 5 11.6716 5 12.5H7ZM6.5 12C6.77614 12 7 12.2239 7 12.5H5C5 13.3284 5.67157 14 6.5 14V12Z" fill="url(#paint8_linear_319_9660)" mask="url(#path-9-inside-2_319_9660)"/>
<mask id="path-11-inside-3_319_9660" fill="white">
<path fill-rule="evenodd" clip-rule="evenodd" d="M12.5 16C14.433 16 16 14.433 16 12.5C16 10.567 14.433 9 12.5 9C10.567 9 9 10.567 9 12.5C9 14.433 10.567 16 12.5 16ZM12.5 13C12.7761 13 13 12.7761 13 12.5C13 12.2239 12.7761 12 12.5 12C12.2239 12 12 12.2239 12 12.5C12 12.7761 12.2239 13 12.5 13Z"/>
</mask>
<path fill-rule="evenodd" clip-rule="evenodd" d="M12.5 16C14.433 16 16 14.433 16 12.5C16 10.567 14.433 9 12.5 9C10.567 9 9 10.567 9 12.5C9 14.433 10.567 16 12.5 16ZM12.5 13C12.7761 13 13 12.7761 13 12.5C13 12.2239 12.7761 12 12.5 12C12.2239 12 12 12.2239 12 12.5C12 12.7761 12.2239 13 12.5 13Z" fill="url(#paint9_linear_319_9660)"/>
<path d="M15 12.5C15 13.8807 13.8807 15 12.5 15V17C14.9853 17 17 14.9853 17 12.5H15ZM12.5 10C13.8807 10 15 11.1193 15 12.5H17C17 10.0147 14.9853 8 12.5 8V10ZM10 12.5C10 11.1193 11.1193 10 12.5 10V8C10.0147 8 8 10.0147 8 12.5H10ZM12.5 15C11.1193 15 10 13.8807 10 12.5H8C8 14.9853 10.0147 17 12.5 17V15ZM12 12.5C12 12.2239 12.2239 12 12.5 12V14C13.3284 14 14 13.3284 14 12.5H12ZM12.5 13C12.2239 13 12 12.7761 12 12.5H14C14 11.6716 13.3284 11 12.5 11V13ZM13 12.5C13 12.7761 12.7761 13 12.5 13V11C11.6716 11 11 11.6716 11 12.5H13ZM12.5 12C12.7761 12 13 12.2239 13 12.5H11C11 13.3284 11.6716 14 12.5 14V12Z" fill="url(#paint10_linear_319_9660)" mask="url(#path-11-inside-3_319_9660)"/>
<rect x="6.5" y="11.5" width="6" height="2" fill="url(#paint11_linear_319_9660)"/>
<rect x="6.5" y="11.5" width="6" height="2" stroke="url(#paint12_linear_319_9660)" stroke-linejoin="round"/>
<rect x="6.5" y="11.5" width="6" height="2" stroke="url(#paint13_linear_319_9660)" stroke-linejoin="round"/>
</g>
<defs>
<linearGradient id="paint0_linear_319_9660" x1="3" y1="5.5" x2="10" y2="13.5" gradientUnits="userSpaceOnUse">
<stop stop-color="#CFCDCB"/>
<stop offset="1" stop-color="#666666"/>
</linearGradient>
<linearGradient id="paint1_linear_319_9660" x1="8" y1="8" x2="8" y2="14" gradientUnits="userSpaceOnUse">
<stop stop-color="#999999"/>
<stop offset="1" stop-color="#ACACAC"/>
</linearGradient>
<linearGradient id="paint2_linear_319_9660" x1="8" y1="8" x2="8" y2="14" gradientUnits="userSpaceOnUse">
<stop stop-color="#747474"/>
<stop offset="1" stop-color="#8C8C8C"/>
</linearGradient>
<linearGradient id="paint3_linear_319_9660" x1="2.34112e-08" y1="12.5" x2="4.99933" y2="12.5581" gradientUnits="userSpaceOnUse">
<stop stop-color="#8FCA84"/>
<stop offset="1" stop-color="#5EA455"/>
</linearGradient>
<linearGradient id="paint4_linear_319_9660" x1="11" y1="12.5" x2="15.9993" y2="12.5581" gradientUnits="userSpaceOnUse">
<stop stop-color="#8FCA84"/>
<stop offset="1" stop-color="#2F6F29" stop-opacity="0.956863"/>
</linearGradient>
<linearGradient id="paint5_linear_319_9660" x1="14.5" y1="4.25" x2="1.5" y2="4.25" gradientUnits="userSpaceOnUse">
<stop stop-color="#B18C5C"/>
<stop offset="1" stop-color="#D3AF7A"/>
</linearGradient>
<linearGradient id="paint6_linear_319_9660" x1="14" y1="8" x2="7" y2="1" gradientUnits="userSpaceOnUse">
<stop stop-color="#783E25" stop-opacity="0.992157"/>
<stop offset="1" stop-color="#BA7D33" stop-opacity="0.945098"/>
</linearGradient>
<linearGradient id="paint7_linear_319_9660" x1="5" y1="11" x2="8.5" y2="14.5" gradientUnits="userSpaceOnUse">
<stop stop-color="#D9D9D9"/>
<stop offset="1" stop-color="#737373"/>
</linearGradient>
<linearGradient id="paint8_linear_319_9660" x1="10" y1="16" x2="3" y2="9" gradientUnits="userSpaceOnUse">
<stop stop-color="#404040"/>
<stop offset="1" stop-color="#8D8D8D"/>
</linearGradient>
<linearGradient id="paint9_linear_319_9660" x1="11" y1="11" x2="14" y2="14" gradientUnits="userSpaceOnUse">
<stop stop-color="#D9D9D9"/>
<stop offset="1" stop-color="#737373"/>
</linearGradient>
<linearGradient id="paint10_linear_319_9660" x1="16" y1="16" x2="9" y2="9" gradientUnits="userSpaceOnUse">
<stop stop-color="#404040"/>
<stop offset="1" stop-color="#8D8D8D"/>
</linearGradient>
<linearGradient id="paint11_linear_319_9660" x1="7.71429" y1="12.1429" x2="7.98901" y2="13.5165" gradientUnits="userSpaceOnUse">
<stop stop-color="#D9D9D9"/>
<stop offset="1" stop-color="#737373"/>
</linearGradient>
<linearGradient id="paint12_linear_319_9660" x1="9.5" y1="14" x2="9.5" y2="11" gradientUnits="userSpaceOnUse">
<stop offset="0.33" stop-color="#515151"/>
<stop offset="0.66" stop-color="#8D8D8D"/>
</linearGradient>
<linearGradient id="paint13_linear_319_9660" x1="7" y1="12.5" x2="12" y2="12.5" gradientUnits="userSpaceOnUse">
<stop stop-color="#484848"/>
<stop offset="0.515" stop-color="#484848" stop-opacity="0"/>
<stop offset="1" stop-color="#484848"/>
</linearGradient>
<clipPath id="clip0_319_9660">
<rect width="16" height="16" fill="white"/>
</clipPath>
<clipPath id="clip1_319_9660">
<rect width="16" height="16" fill="white" transform="translate(0 -1)"/>
</clipPath>
</defs>
</svg>
