<svg width="16" height="16" viewBox="0 0 16 16" fill="none" xmlns="http://www.w3.org/2000/svg">
<g clip-path="url(#clip0_135_2653)">
<g filter="url(#filter0_ii_135_2653)">
<rect y="3" width="16" height="11" rx="2" fill="#3E7DD0"/>
</g>
<rect x="0.5" y="3.5" width="15" height="10" rx="1.5" stroke="black" style="mix-blend-mode:overlay"/>
<rect x="0.5" y="3.5" width="15" height="10" rx="1.5" stroke="black" stroke-opacity="0.2" style="mix-blend-mode:overlay"/>
<mask id="path-3-outside-1_135_2653" maskUnits="userSpaceOnUse" x="0.5" y="5" width="16" height="7" fill="black">
<rect fill="white" x="0.5" y="5" width="16" height="7"/>
<path d="M4.076 11V8.907H2.956V11H1.857V6.149H2.956V8.046H4.076V6.149H5.182V11H4.076ZM8.13004 6.149L8.01804 6.989H7.02404V11H5.92504V6.989H4.88204V6.149H8.13004ZM11.6451 6.149L11.9531 11H10.9101L10.8541 9.075C10.8331 8.396 10.8191 7.717 10.8331 7.115L10.2451 10.482H9.20908L8.58608 7.115C8.61408 7.815 8.60708 8.403 8.59308 9.089L8.53708 11H7.50108L7.81608 6.149H9.17408L9.74108 9.474L10.2661 6.149H11.6451ZM12.9146 6.149V10.132H14.5246L14.4056 11H11.8156V6.149H12.9146Z"/>
</mask>
<path d="M4.076 11V8.907H2.956V11H1.857V6.149H2.956V8.046H4.076V6.149H5.182V11H4.076ZM8.13004 6.149L8.01804 6.989H7.02404V11H5.92504V6.989H4.88204V6.149H8.13004ZM11.6451 6.149L11.9531 11H10.9101L10.8541 9.075C10.8331 8.396 10.8191 7.717 10.8331 7.115L10.2451 10.482H9.20908L8.58608 7.115C8.61408 7.815 8.60708 8.403 8.59308 9.089L8.53708 11H7.50108L7.81608 6.149H9.17408L9.74108 9.474L10.2661 6.149H11.6451ZM12.9146 6.149V10.132H14.5246L14.4056 11H11.8156V6.149H12.9146Z" fill="white"/>
<path d="M4.076 11H3.076V12H4.076V11ZM4.076 8.907H5.076V7.907H4.076V8.907ZM2.956 8.907V7.907H1.956V8.907H2.956ZM2.956 11V12H3.956V11H2.956ZM1.857 11H0.857V12H1.857V11ZM1.857 6.149V5.149H0.857V6.149H1.857ZM2.956 6.149H3.956V5.149H2.956V6.149ZM2.956 8.046H1.956V9.046H2.956V8.046ZM4.076 8.046V9.046H5.076V8.046H4.076ZM4.076 6.149V5.149H3.076V6.149H4.076ZM5.182 6.149H6.182V5.149H5.182V6.149ZM5.182 11V12H6.182V11H5.182ZM5.076 11V8.907H3.076V11H5.076ZM4.076 7.907H2.956V9.907H4.076V7.907ZM1.956 8.907V11H3.956V8.907H1.956ZM2.956 10H1.857V12H2.956V10ZM2.857 11V6.149H0.857V11H2.857ZM1.857 7.149H2.956V5.149H1.857V7.149ZM1.956 6.149V8.046H3.956V6.149H1.956ZM2.956 9.046H4.076V7.046H2.956V9.046ZM5.076 8.046V6.149H3.076V8.046H5.076ZM4.076 7.149H5.182V5.149H4.076V7.149ZM4.182 6.149V11H6.182V6.149H4.182ZM5.182 10H4.076V12H5.182V10ZM8.13004 6.149L9.12127 6.28116L9.27222 5.149H8.13004V6.149ZM8.01804 6.989V7.989H8.89356L9.00927 7.12116L8.01804 6.989ZM7.02404 6.989V5.989H6.02404V6.989H7.02404ZM7.02404 11V12H8.02404V11H7.02404ZM5.92504 11H4.92504V12H5.92504V11ZM5.92504 6.989H6.92504V5.989H5.92504V6.989ZM4.88204 6.989H3.88204V7.989H4.88204V6.989ZM4.88204 6.149V5.149H3.88204V6.149H4.88204ZM7.13881 6.01684L7.02681 6.85684L9.00927 7.12116L9.12127 6.28116L7.13881 6.01684ZM8.01804 5.989H7.02404V7.989H8.01804V5.989ZM6.02404 6.989V11H8.02404V6.989H6.02404ZM7.02404 10H5.92504V12H7.02404V10ZM6.92504 11V6.989H4.92504V11H6.92504ZM5.92504 5.989H4.88204V7.989H5.92504V5.989ZM5.88204 6.989V6.149H3.88204V6.989H5.88204ZM4.88204 7.149H8.13004V5.149H4.88204V7.149ZM11.6451 6.149L12.6431 6.08564L12.5836 5.149H11.6451V6.149ZM11.9531 11V12H13.0186L12.9511 10.9366L11.9531 11ZM10.9101 11L9.9105 11.0291L9.93875 12H10.9101V11ZM10.8541 9.075L11.8537 9.04592L11.8536 9.04409L10.8541 9.075ZM10.8331 7.115L11.8328 7.13825L9.84799 6.94297L10.8331 7.115ZM10.2451 10.482V11.482H11.0856L11.2302 10.654L10.2451 10.482ZM9.20908 10.482L8.22577 10.6639L8.37714 11.482H9.20908V10.482ZM8.58608 7.115L9.56939 6.93306L7.58688 7.15497L8.58608 7.115ZM8.59308 9.089L9.59269 9.11829L9.59287 9.1094L8.59308 9.089ZM8.53708 11V12H9.5082L9.53665 11.0293L8.53708 11ZM7.50108 11L6.50318 10.9352L6.43404 12H7.50108V11ZM7.81608 6.149V5.149H6.87891L6.81818 6.0842L7.81608 6.149ZM9.17408 6.149L10.1598 5.9809L10.018 5.149H9.17408V6.149ZM9.74108 9.474L8.75531 9.6421L10.7288 9.62996L9.74108 9.474ZM10.2661 6.149V5.149H9.41158L9.27832 5.99304L10.2661 6.149ZM10.6471 6.21236L10.9551 11.0634L12.9511 10.9366L12.6431 6.08564L10.6471 6.21236ZM11.9531 10H10.9101V12H11.9531V10ZM11.9097 10.9709L11.8537 9.04592L9.8545 9.10408L9.9105 11.0291L11.9097 10.9709ZM11.8536 9.04409C11.8327 8.36838 11.8195 7.71181 11.8328 7.13825L9.83335 7.09175C9.81869 7.72219 9.83345 8.42362 9.85456 9.10591L11.8536 9.04409ZM9.84799 6.94297L9.25999 10.31L11.2302 10.654L11.8182 7.28703L9.84799 6.94297ZM10.2451 9.482H9.20908V11.482H10.2451V9.482ZM10.1924 10.3001L9.56939 6.93306L7.60277 7.29694L8.22577 10.6639L10.1924 10.3001ZM7.58688 7.15497C7.61364 7.82392 7.60718 8.38755 7.59329 9.0686L9.59287 9.1094C9.60697 8.41845 9.61452 7.80608 9.58528 7.07503L7.58688 7.15497ZM7.59351 9.05971L7.53751 10.9707L9.53665 11.0293L9.59265 9.11829L7.59351 9.05971ZM8.53708 10H7.50108V12H8.53708V10ZM8.49898 11.0648L8.81398 6.2138L6.81818 6.0842L6.50318 10.9352L8.49898 11.0648ZM7.81608 7.149H9.17408V5.149H7.81608V7.149ZM8.18831 6.3171L8.75531 9.6421L10.7268 9.3059L10.1598 5.9809L8.18831 6.3171ZM10.7288 9.62996L11.2538 6.30496L9.27832 5.99304L8.75331 9.31804L10.7288 9.62996ZM10.2661 7.149H11.6451V5.149H10.2661V7.149ZM12.9146 6.149H13.9146V5.149H12.9146V6.149ZM12.9146 10.132H11.9146V11.132H12.9146V10.132ZM14.5246 10.132L15.5153 10.2678L15.671 9.132H14.5246V10.132ZM14.4056 11V12H15.2779L15.3963 11.1358L14.4056 11ZM11.8156 11H10.8156V12H11.8156V11ZM11.8156 6.149V5.149H10.8156V6.149H11.8156ZM11.9146 6.149V10.132H13.9146V6.149H11.9146ZM12.9146 11.132H14.5246V9.132H12.9146V11.132ZM13.5339 9.99617L13.4149 10.8642L15.3963 11.1358L15.5153 10.2678L13.5339 9.99617ZM14.4056 10H11.8156V12H14.4056V10ZM12.8156 11V6.149H10.8156V11H12.8156ZM11.8156 7.149H12.9146V5.149H11.8156V7.149Z" fill="black" style="mix-blend-mode:soft-light" mask="url(#path-3-outside-1_135_2653)"/>
<circle cx="12.5" cy="12.5" r="3" fill="url(#paint0_radial_135_2653)" stroke="url(#paint1_linear_135_2653)"/>
<path fill-rule="evenodd" clip-rule="evenodd" d="M12 12V11H13V12H14V13H13V14H12V13H11V12H12Z" fill="white"/>
</g>
<defs>
<filter id="filter0_ii_135_2653" x="0" y="3" width="19" height="15" filterUnits="userSpaceOnUse" color-interpolation-filters="sRGB">
<feFlood flood-opacity="0" result="BackgroundImageFix"/>
<feBlend mode="normal" in="SourceGraphic" in2="BackgroundImageFix" result="shape"/>
<feColorMatrix in="SourceAlpha" type="matrix" values="0 0 0 0 0 0 0 0 0 0 0 0 0 0 0 0 0 0 127 0" result="hardAlpha"/>
<feMorphology radius="2" operator="erode" in="SourceAlpha" result="effect1_innerShadow_135_2653"/>
<feOffset/>
<feComposite in2="hardAlpha" operator="arithmetic" k2="-1" k3="1"/>
<feColorMatrix type="matrix" values="0 0 0 0 1 0 0 0 0 1 0 0 0 0 1 0 0 0 0.25 0"/>
<feBlend mode="normal" in2="shape" result="effect1_innerShadow_135_2653"/>
<feColorMatrix in="SourceAlpha" type="matrix" values="0 0 0 0 0 0 0 0 0 0 0 0 0 0 0 0 0 0 127 0" result="hardAlpha"/>
<feMorphology radius="1" operator="dilate" in="SourceAlpha" result="effect2_innerShadow_135_2653"/>
<feOffset dx="3" dy="4"/>
<feGaussianBlur stdDeviation="2.5"/>
<feComposite in2="hardAlpha" operator="arithmetic" k2="-1" k3="1"/>
<feColorMatrix type="matrix" values="0 0 0 0 1 0 0 0 0 1 0 0 0 0 1 0 0 0 0.66 0"/>
<feBlend mode="hard-light" in2="effect1_innerShadow_135_2653" result="effect2_innerShadow_135_2653"/>
</filter>
<radialGradient id="paint0_radial_135_2653" cx="0" cy="0" r="1" gradientUnits="userSpaceOnUse" gradientTransform="translate(10 10) rotate(45) scale(5.65685)">
<stop stop-color="#B4D495"/>
<stop offset="1" stop-color="#87B960"/>
</radialGradient>
<linearGradient id="paint1_linear_135_2653" x1="15" y1="15" x2="10" y2="10" gradientUnits="userSpaceOnUse">
<stop stop-color="#376B19"/>
<stop offset="1" stop-color="#5A9438"/>
</linearGradient>
<clipPath id="clip0_135_2653">
<rect width="16" height="16" fill="white"/>
</clipPath>
</defs>
</svg>
