<svg width="16" height="16" viewBox="0 0 16 16" fill="none" xmlns="http://www.w3.org/2000/svg">
<g clip-path="url(#clip0_283_6191)">
<rect x="0.5" y="0.5" width="9" height="10" rx="0.5" stroke="#466EAD"/>
<mask id="path-2-inside-1_283_6191" fill="white">
<path d="M1 1H9V10H1V1Z"/>
</mask>
<path d="M1 1V0C0.447715 0 0 0.447715 0 1L1 1ZM9 1H10C10 0.447715 9.55229 0 9 0V1ZM9 10V12C9.55229 12 10 11.5523 10 11V10H9ZM1 10H0V11C0 11.5523 0.447715 12 1 12V10ZM1 2H9V0H1V2ZM8 1V10H10V1H8ZM9 8H1V12H9V8ZM2 10V1H0V10H2Z" fill="white" style="mix-blend-mode:hard-light" mask="url(#path-2-inside-1_283_6191)"/>
<mask id="path-4-inside-2_283_6191" fill="white">
<path d="M2 2H8V8H2V2Z"/>
</mask>
<path d="M2 2H8V8H2V2Z" fill="url(#paint0_linear_283_6191)"/>
<path d="M2 2V1H1V2H2ZM8 2H9V1H8V2ZM8 8V9H9V8H8ZM2 8H1V9H2V8ZM2 3H8V1H2V3ZM7 2V8H9V2H7ZM8 7H2V9H8V7ZM3 8V2H1V8H3Z" fill="#093D00" fill-opacity="0.33" style="mix-blend-mode:hard-light" mask="url(#path-4-inside-2_283_6191)"/>
<rect x="6.5" y="2.5" width="9" height="10" rx="0.5" stroke="#466EAD"/>
<mask id="path-7-inside-3_283_6191" fill="white">
<path d="M7 3H15V12H7V3Z"/>
</mask>
<path d="M7 3V2C6.44772 2 6 2.44772 6 3H7ZM15 3H16C16 2.44772 15.5523 2 15 2V3ZM15 12V14C15.5523 14 16 13.5523 16 13V12H15ZM7 12H6V13C6 13.5523 6.44772 14 7 14V12ZM7 4H15V2H7V4ZM14 3V12H16V3H14ZM15 10H7V14H15V10ZM8 12V3H6V12H8Z" fill="white" style="mix-blend-mode:hard-light" mask="url(#path-7-inside-3_283_6191)"/>
<mask id="path-9-inside-4_283_6191" fill="white">
<path d="M8 4H14V10H8V4Z"/>
</mask>
<path d="M8 4H14V10H8V4Z" fill="url(#paint1_linear_283_6191)"/>
<path d="M8 4V3H7V4H8ZM14 4H15V3H14V4ZM14 10V11H15V10H14ZM8 10H7V11H8V10ZM8 5H14V3H8V5ZM13 4V10H15V4H13ZM14 9H8V11H14V9ZM9 10V4H7V10H9Z" fill="#571B08" fill-opacity="0.33" style="mix-blend-mode:hard-light" mask="url(#path-9-inside-4_283_6191)"/>
<rect x="3.5" y="5.5" width="9" height="10" rx="0.5" stroke="#466EAD"/>
<mask id="path-12-inside-5_283_6191" fill="white">
<path d="M4 6H12V15H4V6Z"/>
</mask>
<path d="M4 6V5C3.44772 5 3 5.44772 3 6H4ZM12 6H13C13 5.44772 12.5523 5 12 5V6ZM12 15V17C12.5523 17 13 16.5523 13 16V15H12ZM4 15H3V16C3 16.5523 3.44772 17 4 17V15ZM4 7H12V5H4V7ZM11 6V15H13V6H11ZM12 13H4V17H12V13ZM5 15V6H3V15H5Z" fill="white" style="mix-blend-mode:hard-light" mask="url(#path-12-inside-5_283_6191)"/>
<mask id="path-14-inside-6_283_6191" fill="white">
<path d="M5 7H11V13H5V7Z"/>
</mask>
<path d="M5 7H11V13H5V7Z" fill="url(#paint2_linear_283_6191)"/>
<path d="M5 7V6H4V7H5ZM11 7H12V6H11V7ZM11 13V14H12V13H11ZM5 13H4V14H5V13ZM5 8H11V6H5V8ZM10 7V13H12V7H10ZM11 12H5V14H11V12ZM6 13V7H4V13H6Z" fill="#02394A" fill-opacity="0.33" style="mix-blend-mode:hard-light" mask="url(#path-14-inside-6_283_6191)"/>
</g>
<defs>
<linearGradient id="paint0_linear_283_6191" x1="5" y1="2" x2="5" y2="8" gradientUnits="userSpaceOnUse">
<stop stop-color="#A0D192"/>
<stop offset="0.5" stop-color="#A3D394"/>
<stop offset="0.55" stop-color="#5F9888"/>
<stop offset="1" stop-color="#4C9047"/>
</linearGradient>
<linearGradient id="paint1_linear_283_6191" x1="11" y1="4" x2="11" y2="10" gradientUnits="userSpaceOnUse">
<stop stop-color="#FFB7C4"/>
<stop offset="0.5" stop-color="#FFC6CF"/>
<stop offset="0.55" stop-color="#FF9246"/>
<stop offset="1" stop-color="#FF7612"/>
</linearGradient>
<linearGradient id="paint2_linear_283_6191" x1="8" y1="7" x2="8" y2="13" gradientUnits="userSpaceOnUse">
<stop stop-color="#B3DDF5"/>
<stop offset="0.5" stop-color="#B5E4FD"/>
<stop offset="0.55" stop-color="#72A7DC"/>
<stop offset="1" stop-color="#75ADE5"/>
</linearGradient>
<clipPath id="clip0_283_6191">
<rect width="16" height="16" fill="white"/>
</clipPath>
</defs>
</svg>
