<svg width="16" height="16" viewBox="0 0 16 16" fill="none" xmlns="http://www.w3.org/2000/svg">
<rect x="5.5" y="9.5" width="5" height="5" rx="1.5" fill="#8B8F94" stroke="url(#paint0_linear_330_14268)" stroke-linejoin="round"/>
<rect x="6.5" y="9.5" width="3" height="4" rx="0.5" stroke="url(#paint1_linear_330_14268)"/>
<path d="M14 4.68182C14 8.36364 10.5 11 8 11C5.5 11 2 8.36364 2 4.68182C2 2.64841 4.68629 1 8 1C11.3137 1 14 2.64841 14 4.68182Z" fill="url(#paint2_linear_330_14268)"/>
<path d="M13.5 4.68182C13.5 6.35725 12.704 7.81202 11.5945 8.85775C10.4759 9.91218 9.09302 10.5 8 10.5C6.90698 10.5 5.52411 9.91218 4.40545 8.85775C3.29603 7.81202 2.5 6.35725 2.5 4.68182C2.5 3.9042 3.01555 3.12021 4.01887 2.50454C5.0139 1.89395 6.42019 1.5 8 1.5C9.57981 1.5 10.9861 1.89395 11.9811 2.50454C12.9845 3.12021 13.5 3.9042 13.5 4.68182Z" stroke="url(#paint3_linear_330_14268)"/>
<path d="M5.5 10.5V8C5.5 7.17157 6.17157 6.5 7 6.5H9C9.82843 6.5 10.5 7.17157 10.5 8V10.5" stroke="#9D8F52" stroke-opacity="0.66"/>
<ellipse cx="8" cy="4.5" rx="5" ry="2.5" fill="#FFFEF9" fill-opacity="0.33"/>
<path d="M8 11.5C9.40698 11.5 11.0241 10.7696 12.2805 9.58543C13.546 8.39253 14.5 6.6882 14.5 4.68182C14.5 3.42603 13.6724 2.3691 12.5041 1.65222C11.3276 0.93025 9.7339 0.5 8 0.5C6.2661 0.5 4.67239 0.93025 3.49585 1.65222C2.3276 2.3691 1.5 3.42603 1.5 4.68182C1.5 6.6882 2.45397 8.39253 3.71955 9.58543C4.97589 10.7696 6.59302 11.5 8 11.5Z" stroke="url(#paint4_linear_330_14268)" stroke-opacity="0.984314"/>
<defs>
<linearGradient id="paint0_linear_330_14268" x1="8" y1="10" x2="8" y2="14" gradientUnits="userSpaceOnUse">
<stop stop-color="#7D7667" stop-opacity="0.886275"/>
<stop offset="1" stop-color="#41413F" stop-opacity="0.996078"/>
</linearGradient>
<linearGradient id="paint1_linear_330_14268" x1="10" y1="11.5" x2="6" y2="11.5" gradientUnits="userSpaceOnUse">
<stop stop-color="#61666D"/>
<stop offset="0.638913" stop-color="#EAEAEB"/>
<stop offset="1" stop-color="#8B8F94"/>
</linearGradient>
<linearGradient id="paint2_linear_330_14268" x1="3.49606" y1="1" x2="12.5039" y2="10" gradientUnits="userSpaceOnUse">
<stop stop-color="#ECF2F6"/>
<stop offset="0.5" stop-color="#BED5E2"/>
<stop offset="1" stop-color="#9ABED2"/>
</linearGradient>
<linearGradient id="paint3_linear_330_14268" x1="8" y1="1" x2="8" y2="11" gradientUnits="userSpaceOnUse">
<stop offset="0.615" stop-color="#EFF5F8"/>
<stop offset="0.845" stop-color="#EFF5F8" stop-opacity="0.01"/>
<stop offset="1" stop-color="#EFF5F8" stop-opacity="0.01"/>
</linearGradient>
<linearGradient id="paint4_linear_330_14268" x1="3.51575" y1="1" x2="12.4843" y2="10" gradientUnits="userSpaceOnUse">
<stop stop-color="#D6E5ED"/>
<stop offset="0.53" stop-color="#90B7CD" stop-opacity="0.929412"/>
<stop offset="1" stop-color="#76A8C3"/>
</linearGradient>
</defs>
</svg>
