<svg width="16" height="16" viewBox="0 0 16 16" fill="none" xmlns="http://www.w3.org/2000/svg">
<path d="M2 9L4 2H12L8 7V8H12L5 13L6 9H2Z" fill="url(#paint0_linear_364_6725)"/>
<path d="M1.51924 8.86264L1.33714 9.5H2H5.35961L4.51493 12.8787L4.18556 14.1962L5.29062 13.4069L12.2906 8.40687L13.5602 7.5H12H8.5V7.17539L12.3904 2.31235L13.0403 1.5H12H4H3.62285L3.51924 1.86264L1.51924 8.86264Z" stroke="url(#paint1_linear_364_6725)"/>
<path d="M4.37715 2.5H10.9597L7.60957 6.68765L7.5 6.82461V7V8V8.5H8H10.4398L5.81444 11.8038L6.48507 9.12127L6.64039 8.5H6H2.66286L4.37715 2.5Z" stroke="white" stroke-opacity="0.5"/>
<g filter="url(#filter0_i_364_6725)">
<path d="M10 9H6V14H10V16H11L16 11.5L11 7H10V9Z" fill="#80B361"/>
</g>
<path d="M10 9.5C10.2761 9.5 10.5 9.27614 10.5 9V7.5H10.8081L15.2526 11.5L10.8081 15.5H10.5V14C10.5 13.7239 10.2761 13.5 10 13.5H6.5V9.5H10Z" stroke="url(#paint2_linear_364_6725)" stroke-linejoin="round"/>
<path d="M7.5 12.5V10.5H10C10.7149 10.5 11.2659 10.0257 11.4412 9.41686L13.7531 11.5L11.4413 13.5831C11.263 12.9643 10.6975 12.5 10.0049 12.5H7.5Z" stroke="white" stroke-opacity="0.2" stroke-linejoin="round"/>
<defs>
<filter id="filter0_i_364_6725" x="6" y="7" width="12" height="11" filterUnits="userSpaceOnUse" color-interpolation-filters="sRGB">
<feFlood flood-opacity="0" result="BackgroundImageFix"/>
<feBlend mode="normal" in="SourceGraphic" in2="BackgroundImageFix" result="shape"/>
<feColorMatrix in="SourceAlpha" type="matrix" values="0 0 0 0 0 0 0 0 0 0 0 0 0 0 0 0 0 0 127 0" result="hardAlpha"/>
<feOffset dx="2" dy="2"/>
<feGaussianBlur stdDeviation="1"/>
<feComposite in2="hardAlpha" operator="arithmetic" k2="-1" k3="1"/>
<feColorMatrix type="matrix" values="0 0 0 0 1 0 0 0 0 1 0 0 0 0 1 0 0 0 0.25 0"/>
<feBlend mode="normal" in2="shape" result="effect1_innerShadow_364_6725"/>
</filter>
<linearGradient id="paint0_linear_364_6725" x1="1.60345" y1="2" x2="12.3966" y2="13" gradientUnits="userSpaceOnUse">
<stop stop-color="#F4D848"/>
<stop offset="1" stop-color="#EBB62F"/>
</linearGradient>
<linearGradient id="paint1_linear_364_6725" x1="2.53307" y1="2.57143" x2="11.1201" y2="11.8172" gradientUnits="userSpaceOnUse">
<stop stop-color="#ECD45D"/>
<stop offset="1" stop-color="#D79D22"/>
</linearGradient>
<linearGradient id="paint2_linear_364_6725" x1="14.5714" y1="14.7143" x2="8.17837" y2="7.61089" gradientUnits="userSpaceOnUse">
<stop stop-color="#247C10"/>
<stop offset="1" stop-color="#6FA53D"/>
</linearGradient>
</defs>
</svg>
