<svg width="16" height="16" viewBox="0 0 16 16" fill="none" xmlns="http://www.w3.org/2000/svg">
<path d="M14.5 8.5C14.5 10.1569 13.1569 11.5 11.5 11.5H9.5C8.94772 11.5 8.5 11.0523 8.5 10.5C8.5 9.94772 8.94772 9.5 9.5 9.5H11.5C12.0523 9.5 12.5 9.05228 12.5 8.5C12.5 7.94772 12.0523 7.5 11.5 7.5H9.5C8.94772 7.5 8.5 7.05228 8.5 6.5C8.5 5.94772 8.94772 5.5 9.5 5.5H11.5C13.1569 5.5 14.5 6.84315 14.5 8.5Z" fill="url(#paint0_linear_358_6238)" stroke="url(#paint1_linear_358_6238)"/>
<path d="M0.5 8.5C0.5 10.1569 1.84315 11.5 3.5 11.5H5.5C6.05228 11.5 6.5 11.0523 6.5 10.5C6.5 9.94772 6.05228 9.5 5.5 9.5H3.5C2.94772 9.5 2.5 9.05228 2.5 8.5C2.5 7.94772 2.94772 7.5 3.5 7.5H5.5C6.05228 7.5 6.5 7.05228 6.5 6.5C6.5 5.94772 6.05228 5.5 5.5 5.5H3.5C1.84315 5.5 0.5 6.84315 0.5 8.5Z" fill="url(#paint2_linear_358_6238)" stroke="url(#paint3_linear_358_6238)"/>
<path fill-rule="evenodd" clip-rule="evenodd" d="M7.5 2C7.22386 2 7 2.22386 7 2.5V3.5C7 3.77614 7.22386 4 7.5 4C7.77614 4 8 3.77614 8 3.5V2.5C8 2.22386 7.77614 2 7.5 2ZM7.5 13C7.22386 13 7 13.2239 7 13.5V14.5C7 14.7761 7.22386 15 7.5 15C7.77614 15 8 14.7761 8 14.5V13.5C8 13.2239 7.77614 13 7.5 13ZM11.0666 2.35357C11.2619 2.15831 11.5785 2.15831 11.7737 2.35357C11.969 2.54883 11.969 2.86541 11.7737 3.06067L10.0607 4.77376C9.8654 4.96902 9.54882 4.96902 9.35355 4.77376C9.15829 4.5785 9.15829 4.26192 9.35355 4.06666L11.0666 2.35357ZM5.77375 12.3536C5.57849 12.1583 5.2619 12.1583 5.06664 12.3536L3.35356 14.0666C3.15829 14.2619 3.15829 14.5785 3.35356 14.7737C3.54882 14.969 3.8654 14.969 4.06066 14.7737L5.77375 13.0607C5.96901 12.8654 5.96901 12.5488 5.77375 12.3536ZM10.0606 12.3536C9.86538 12.1583 9.5488 12.1583 9.35354 12.3536C9.15828 12.5488 9.15828 12.8654 9.35354 13.0607L11.0666 14.7737C11.2619 14.969 11.5785 14.969 11.7737 14.7737C11.969 14.5785 11.969 14.2619 11.7737 14.0666L10.0606 12.3536ZM3.35354 2.35355C3.5488 2.15829 3.86538 2.15829 4.06065 2.35355L5.77373 4.06664C5.969 4.2619 5.969 4.57849 5.77373 4.77375C5.57847 4.96901 5.26189 4.96901 5.06663 4.77375L3.35354 3.06066C3.15828 2.8654 3.15828 2.54882 3.35354 2.35355Z" fill="url(#paint4_linear_358_6238)"/>
<defs>
<linearGradient id="paint0_linear_358_6238" x1="9.71429" y1="7" x2="12.679" y2="9.54118" gradientUnits="userSpaceOnUse">
<stop stop-color="#D9D9D9"/>
<stop offset="1" stop-color="#737373"/>
</linearGradient>
<linearGradient id="paint1_linear_358_6238" x1="14" y1="12" x2="7.08235" y2="6.07059" gradientUnits="userSpaceOnUse">
<stop stop-color="#404040"/>
<stop offset="1" stop-color="#8D8D8D"/>
</linearGradient>
<linearGradient id="paint2_linear_358_6238" x1="1" y1="6" x2="4.15073" y2="11.4876" gradientUnits="userSpaceOnUse">
<stop stop-color="#D9D9D9"/>
<stop offset="1" stop-color="#737373"/>
</linearGradient>
<linearGradient id="paint3_linear_358_6238" x1="6" y1="12" x2="1.19834" y2="4.25689" gradientUnits="userSpaceOnUse">
<stop stop-color="#404040"/>
<stop offset="1" stop-color="#8D8D8D"/>
</linearGradient>
<linearGradient id="paint4_linear_358_6238" x1="7.60654" y1="1.99402" x2="7.60654" y2="15" gradientUnits="userSpaceOnUse">
<stop stop-color="#4E9FFF"/>
<stop offset="1" stop-color="#3869FF"/>
</linearGradient>
</defs>
</svg>
