<svg width="16" height="16" viewBox="0 0 16 16" fill="none" xmlns="http://www.w3.org/2000/svg">
<g clip-path="url(#clip0_358_6239)">
<mask id="path-1-inside-1_358_6239" fill="white">
<path fill-rule="evenodd" clip-rule="evenodd" d="M4.5 11C6.433 11 8 9.433 8 7.5C8 5.567 6.433 4 4.5 4C2.567 4 1 5.567 1 7.5C1 9.433 2.567 11 4.5 11ZM4.5 8C4.77614 8 5 7.77614 5 7.5C5 7.22386 4.77614 7 4.5 7C4.22386 7 4 7.22386 4 7.5C4 7.77614 4.22386 8 4.5 8Z"/>
</mask>
<path fill-rule="evenodd" clip-rule="evenodd" d="M4.5 11C6.433 11 8 9.433 8 7.5C8 5.567 6.433 4 4.5 4C2.567 4 1 5.567 1 7.5C1 9.433 2.567 11 4.5 11ZM4.5 8C4.77614 8 5 7.77614 5 7.5C5 7.22386 4.77614 7 4.5 7C4.22386 7 4 7.22386 4 7.5C4 7.77614 4.22386 8 4.5 8Z" fill="url(#paint0_linear_358_6239)"/>
<path d="M7 7.5C7 8.88071 5.88071 10 4.5 10V12C6.98528 12 9 9.98528 9 7.5H7ZM4.5 5C5.88071 5 7 6.11929 7 7.5H9C9 5.01472 6.98528 3 4.5 3V5ZM2 7.5C2 6.11929 3.11929 5 4.5 5V3C2.01472 3 0 5.01472 0 7.5H2ZM4.5 10C3.11929 10 2 8.88071 2 7.5H0C0 9.98528 2.01472 12 4.5 12V10ZM4 7.5C4 7.22386 4.22386 7 4.5 7V9C5.32843 9 6 8.32843 6 7.5H4ZM4.5 8C4.22386 8 4 7.77614 4 7.5H6C6 6.67157 5.32843 6 4.5 6V8ZM5 7.5C5 7.77614 4.77614 8 4.5 8V6C3.67157 6 3 6.67157 3 7.5H5ZM4.5 7C4.77614 7 5 7.22386 5 7.5H3C3 8.32843 3.67157 9 4.5 9V7Z" fill="url(#paint1_linear_358_6239)" mask="url(#path-1-inside-1_358_6239)"/>
<mask id="path-3-inside-2_358_6239" fill="white">
<path fill-rule="evenodd" clip-rule="evenodd" d="M11.5 11C13.433 11 15 9.433 15 7.5C15 5.567 13.433 4 11.5 4C9.567 4 8 5.567 8 7.5C8 9.433 9.567 11 11.5 11ZM11.5 8C11.7761 8 12 7.77614 12 7.5C12 7.22386 11.7761 7 11.5 7C11.2239 7 11 7.22386 11 7.5C11 7.77614 11.2239 8 11.5 8Z"/>
</mask>
<path fill-rule="evenodd" clip-rule="evenodd" d="M11.5 11C13.433 11 15 9.433 15 7.5C15 5.567 13.433 4 11.5 4C9.567 4 8 5.567 8 7.5C8 9.433 9.567 11 11.5 11ZM11.5 8C11.7761 8 12 7.77614 12 7.5C12 7.22386 11.7761 7 11.5 7C11.2239 7 11 7.22386 11 7.5C11 7.77614 11.2239 8 11.5 8Z" fill="url(#paint2_linear_358_6239)"/>
<path d="M14 7.5C14 8.88071 12.8807 10 11.5 10V12C13.9853 12 16 9.98528 16 7.5H14ZM11.5 5C12.8807 5 14 6.11929 14 7.5H16C16 5.01472 13.9853 3 11.5 3V5ZM9 7.5C9 6.11929 10.1193 5 11.5 5V3C9.01472 3 7 5.01472 7 7.5H9ZM11.5 10C10.1193 10 9 8.88071 9 7.5H7C7 9.98528 9.01472 12 11.5 12V10ZM11 7.5C11 7.22386 11.2239 7 11.5 7V9C12.3284 9 13 8.32843 13 7.5H11ZM11.5 8C11.2239 8 11 7.77614 11 7.5H13C13 6.67157 12.3284 6 11.5 6V8ZM12 7.5C12 7.77614 11.7761 8 11.5 8V6C10.6716 6 10 6.67157 10 7.5H12ZM11.5 7C11.7761 7 12 7.22386 12 7.5H10C10 8.32843 10.6716 9 11.5 9V7Z" fill="url(#paint3_linear_358_6239)" mask="url(#path-3-inside-2_358_6239)"/>
<rect x="5.5" y="6.5" width="5" height="2" fill="url(#paint4_linear_358_6239)"/>
<rect x="5.5" y="6.5" width="5" height="2" stroke="url(#paint5_linear_358_6239)" stroke-linejoin="round"/>
<rect x="5.5" y="6.5" width="5" height="2" stroke="url(#paint6_linear_358_6239)" stroke-linejoin="round"/>
<circle cx="12.5" cy="12.5" r="3" fill="url(#paint7_radial_358_6239)" stroke="url(#paint8_linear_358_6239)"/>
<path fill-rule="evenodd" clip-rule="evenodd" d="M12 12V11H13V12H14V13H13V14H12V13H11V12H12Z" fill="white"/>
</g>
<defs>
<linearGradient id="paint0_linear_358_6239" x1="3" y1="6" x2="6.5" y2="9.5" gradientUnits="userSpaceOnUse">
<stop stop-color="#D9D9D9"/>
<stop offset="1" stop-color="#737373"/>
</linearGradient>
<linearGradient id="paint1_linear_358_6239" x1="8" y1="11" x2="1" y2="4" gradientUnits="userSpaceOnUse">
<stop stop-color="#404040"/>
<stop offset="1" stop-color="#8D8D8D"/>
</linearGradient>
<linearGradient id="paint2_linear_358_6239" x1="10" y1="6" x2="13" y2="9" gradientUnits="userSpaceOnUse">
<stop stop-color="#D9D9D9"/>
<stop offset="1" stop-color="#737373"/>
</linearGradient>
<linearGradient id="paint3_linear_358_6239" x1="15" y1="11" x2="8" y2="4" gradientUnits="userSpaceOnUse">
<stop stop-color="#404040"/>
<stop offset="1" stop-color="#8D8D8D"/>
</linearGradient>
<linearGradient id="paint4_linear_358_6239" x1="6.57143" y1="7.14286" x2="6.90756" y2="8.48739" gradientUnits="userSpaceOnUse">
<stop stop-color="#D9D9D9"/>
<stop offset="1" stop-color="#737373"/>
</linearGradient>
<linearGradient id="paint5_linear_358_6239" x1="8" y1="9" x2="8" y2="6" gradientUnits="userSpaceOnUse">
<stop offset="0.33" stop-color="#515151"/>
<stop offset="0.66" stop-color="#8D8D8D"/>
</linearGradient>
<linearGradient id="paint6_linear_358_6239" x1="6" y1="7.5" x2="10" y2="7.5" gradientUnits="userSpaceOnUse">
<stop stop-color="#484848"/>
<stop offset="0.515" stop-color="#484848" stop-opacity="0"/>
<stop offset="1" stop-color="#484848"/>
</linearGradient>
<radialGradient id="paint7_radial_358_6239" cx="0" cy="0" r="1" gradientUnits="userSpaceOnUse" gradientTransform="translate(10 10) rotate(45) scale(5.65685)">
<stop stop-color="#B4D495"/>
<stop offset="1" stop-color="#87B960"/>
</radialGradient>
<linearGradient id="paint8_linear_358_6239" x1="15" y1="15" x2="10" y2="10" gradientUnits="userSpaceOnUse">
<stop stop-color="#376B19"/>
<stop offset="1" stop-color="#5A9438"/>
</linearGradient>
<clipPath id="clip0_358_6239">
<rect width="16" height="16" fill="white"/>
</clipPath>
</defs>
</svg>
