<svg width="16" height="16" viewBox="0 0 16 16" fill="none" xmlns="http://www.w3.org/2000/svg">
<g clip-path="url(#clip0_241_4708)">
<rect x="0.5" y="6.5" width="13" height="9" fill="url(#paint0_linear_241_4708)" stroke="url(#paint1_linear_241_4708)"/>
<rect x="1.5" y="7.5" width="11" height="7" stroke="white" stroke-opacity="0.5" stroke-linejoin="round" style="mix-blend-mode:soft-light"/>
<rect x="1.5" y="7.5" width="11" height="7" stroke="white" stroke-opacity="0.5" stroke-linejoin="round" style="mix-blend-mode:hard-light"/>
<path fill-rule="evenodd" clip-rule="evenodd" d="M5 9H3.5C3.22386 9 3 9.22386 3 9.5C3 9.77614 3.22386 10 3.5 10H5V9ZM5 11H3.5C3.22386 11 3 11.2239 3 11.5C3 11.7761 3.22386 12 3.5 12H5V11ZM9 12V11H10.5C10.7761 11 11 11.2239 11 11.5C11 11.7761 10.7761 12 10.5 12H9ZM5 13H3.5C3.22386 13 3 13.2239 3 13.5C3 13.7761 3.22386 14 3.5 14H10.5C10.7761 14 11 13.7761 11 13.5C11 13.2239 10.7761 13 10.5 13H9H5ZM9 10V9H10.5C10.7761 9 11 9.22386 11 9.5C11 9.77614 10.7761 10 10.5 10H9Z" fill="#CE6E01" fill-opacity="0.5"/>
<g filter="url(#filter0_i_241_4708)">
<rect x="6" y="9" width="2" height="3" rx="1" fill="#AB824D"/>
</g>
<mask id="path-5-inside-1_241_4708" fill="white">
<path fill-rule="evenodd" clip-rule="evenodd" d="M1.08296 7C1.0284 6.67479 1 6.34071 1 6C1 2.68629 3.68629 0 7 0C10.3137 0 13 2.68629 13 6C13 6.34071 12.9716 6.67479 12.917 7H9.82929C9.93985 6.68722 10 6.35064 10 6C10 4.34315 8.65685 3 7 3C5.34315 3 4 4.34315 4 6C4 6.35064 4.06015 6.68722 4.17071 7H1.08296Z"/>
</mask>
<path fill-rule="evenodd" clip-rule="evenodd" d="M1.08296 7C1.0284 6.67479 1 6.34071 1 6C1 2.68629 3.68629 0 7 0C10.3137 0 13 2.68629 13 6C13 6.34071 12.9716 6.67479 12.917 7H9.82929C9.93985 6.68722 10 6.35064 10 6C10 4.34315 8.65685 3 7 3C5.34315 3 4 4.34315 4 6C4 6.35064 4.06015 6.68722 4.17071 7H1.08296Z" fill="url(#paint2_linear_241_4708)"/>
<path d="M1.08296 7L0.0967413 7.16546L0.236751 8H1.08296V7ZM12.917 7V8H13.7632L13.9033 7.16546L12.917 7ZM9.82929 7L8.88645 6.66675L8.41522 8H9.82929V7ZM4.17071 7V8H5.58478L5.11355 6.66675L4.17071 7ZM0 6C0 6.39638 0.0330462 6.78579 0.0967413 7.16546L2.06918 6.83454C2.02375 6.56379 2 6.28505 2 6H0ZM7 -1C3.13401 -1 0 2.13401 0 6H2C2 3.23858 4.23858 1 7 1V-1ZM14 6C14 2.13401 10.866 -1 7 -1V1C9.76142 1 12 3.23858 12 6H14ZM13.9033 7.16546C13.967 6.78579 14 6.39637 14 6H12C12 6.28505 11.9762 6.56379 11.9308 6.83454L13.9033 7.16546ZM9.82929 8H12.917V6H9.82929V8ZM10.7721 7.33325C10.92 6.91492 11 6.46573 11 6H9C9 6.23555 8.9597 6.45952 8.88645 6.66675L10.7721 7.33325ZM11 6C11 3.79086 9.20914 2 7 2V4C8.10457 4 9 4.89543 9 6H11ZM7 2C4.79086 2 3 3.79086 3 6H5C5 4.89543 5.89543 4 7 4V2ZM3 6C3 6.46573 3.08001 6.91492 3.22787 7.33325L5.11355 6.66675C5.0403 6.45952 5 6.23555 5 6H3ZM1.08296 8H4.17071V6H1.08296V8Z" fill="url(#paint3_linear_241_4708)" fill-opacity="0.5" mask="url(#path-5-inside-1_241_4708)"/>
<g filter="url(#filter1_i_241_4708)">
<path d="M10 9H6V14H10V16H11L16 11.5L11 7H10V9Z" fill="#80B361"/>
</g>
<path d="M10 9.5C10.2761 9.5 10.5 9.27614 10.5 9V7.5H10.8081L15.2526 11.5L10.8081 15.5H10.5V14C10.5 13.7239 10.2761 13.5 10 13.5H6.5V9.5H10Z" stroke="url(#paint4_linear_241_4708)" stroke-linejoin="round"/>
<path d="M7.5 12.5V10.5H10C10.7149 10.5 11.2659 10.0257 11.4412 9.41686L13.7531 11.5L11.4413 13.5831C11.263 12.9643 10.6975 12.5 10.0049 12.5H7.5Z" stroke="white" stroke-opacity="0.2" stroke-linejoin="round"/>
</g>
<defs>
<filter id="filter0_i_241_4708" x="6" y="9" width="2" height="3" filterUnits="userSpaceOnUse" color-interpolation-filters="sRGB">
<feFlood flood-opacity="0" result="BackgroundImageFix"/>
<feBlend mode="normal" in="SourceGraphic" in2="BackgroundImageFix" result="shape"/>
<feColorMatrix in="SourceAlpha" type="matrix" values="0 0 0 0 0 0 0 0 0 0 0 0 0 0 0 0 0 0 127 0" result="hardAlpha"/>
<feOffset dx="1" dy="1"/>
<feComposite in2="hardAlpha" operator="arithmetic" k2="-1" k3="1"/>
<feColorMatrix type="matrix" values="0 0 0 0 0.866667 0 0 0 0 0.592157 0 0 0 0 0.188235 0 0 0 1 0"/>
<feBlend mode="normal" in2="shape" result="effect1_innerShadow_241_4708"/>
</filter>
<filter id="filter1_i_241_4708" x="6" y="7" width="12" height="11" filterUnits="userSpaceOnUse" color-interpolation-filters="sRGB">
<feFlood flood-opacity="0" result="BackgroundImageFix"/>
<feBlend mode="normal" in="SourceGraphic" in2="BackgroundImageFix" result="shape"/>
<feColorMatrix in="SourceAlpha" type="matrix" values="0 0 0 0 0 0 0 0 0 0 0 0 0 0 0 0 0 0 127 0" result="hardAlpha"/>
<feOffset dx="2" dy="2"/>
<feGaussianBlur stdDeviation="1"/>
<feComposite in2="hardAlpha" operator="arithmetic" k2="-1" k3="1"/>
<feColorMatrix type="matrix" values="0 0 0 0 1 0 0 0 0 1 0 0 0 0 1 0 0 0 0.25 0"/>
<feBlend mode="normal" in2="shape" result="effect1_innerShadow_241_4708"/>
</filter>
<linearGradient id="paint0_linear_241_4708" x1="1" y1="12" x2="12.8478" y2="13.3428" gradientUnits="userSpaceOnUse">
<stop stop-color="#F8E48E"/>
<stop offset="0.477181" stop-color="#FFF297"/>
<stop offset="1" stop-color="#EEBA3C"/>
</linearGradient>
<linearGradient id="paint1_linear_241_4708" x1="1" y1="7" x2="13" y2="15" gradientUnits="userSpaceOnUse">
<stop stop-color="#E0C259"/>
<stop offset="1" stop-color="#CE6E01"/>
</linearGradient>
<linearGradient id="paint2_linear_241_4708" x1="4.42857" y1="3.42857" x2="10.4286" y2="9.42857" gradientUnits="userSpaceOnUse">
<stop stop-color="#D9D9D9"/>
<stop offset="1" stop-color="#737373"/>
</linearGradient>
<linearGradient id="paint3_linear_241_4708" x1="13" y1="12" x2="1" y2="5.10897e-08" gradientUnits="userSpaceOnUse">
<stop stop-color="#404040"/>
<stop offset="1" stop-color="#8D8D8D"/>
</linearGradient>
<linearGradient id="paint4_linear_241_4708" x1="14.5714" y1="14.7143" x2="8.17837" y2="7.61089" gradientUnits="userSpaceOnUse">
<stop stop-color="#247C10"/>
<stop offset="1" stop-color="#6FA53D"/>
</linearGradient>
<clipPath id="clip0_241_4708">
<rect width="16" height="16" fill="white"/>
</clipPath>
</defs>
</svg>
