<svg width="16" height="16" viewBox="0 0 16 16" fill="none" xmlns="http://www.w3.org/2000/svg">
<circle cx="3" cy="12" r="1.5" fill="#6C6C6C" stroke="url(#paint0_linear_464_7896)"/>
<circle cx="6" cy="12" r="1.5" fill="#6C6C6C" stroke="url(#paint1_linear_464_7896)"/>
<circle cx="13" cy="12" r="1.5" fill="#6C6C6C" stroke="url(#paint2_linear_464_7896)"/>
<rect x="0.5" y="9.5" width="10" height="2" fill="url(#paint3_linear_464_7896)" stroke="url(#paint4_linear_464_7896)" stroke-linejoin="round"/>
<rect x="1.25" y="10.25" width="8.5" height="0.5" stroke="white" stroke-opacity="0.33" stroke-width="0.5" stroke-linejoin="round"/>
<rect y="11" width="15" height="1" rx="0.5" fill="black" fill-opacity="0.5"/>
<path d="M11 5.5H10.5V6V11V11.5H11H14H14.5V11V7C14.5 6.17157 13.8284 5.5 13 5.5H11Z" fill="#A5C2E3" stroke="url(#paint5_linear_464_7896)"/>
<rect x="12" y="7" width="2" height="2" fill="#D1E6FF"/>
<path d="M11.5 6.5H13C13.2761 6.5 13.5 6.72386 13.5 7V10.5H11.5V6.5Z" stroke="white" stroke-opacity="0.2"/>
<defs>
<linearGradient id="paint0_linear_464_7896" x1="2" y1="12" x2="4" y2="12" gradientUnits="userSpaceOnUse">
<stop stop-color="#292929" stop-opacity="0.964706"/>
<stop offset="1" stop-color="#282828" stop-opacity="0.741176"/>
</linearGradient>
<linearGradient id="paint1_linear_464_7896" x1="5" y1="12" x2="7" y2="12" gradientUnits="userSpaceOnUse">
<stop stop-color="#292929" stop-opacity="0.964706"/>
<stop offset="1" stop-color="#282828" stop-opacity="0.741176"/>
</linearGradient>
<linearGradient id="paint2_linear_464_7896" x1="12" y1="12" x2="14" y2="12" gradientUnits="userSpaceOnUse">
<stop stop-color="#292929" stop-opacity="0.964706"/>
<stop offset="1" stop-color="#282828" stop-opacity="0.741176"/>
</linearGradient>
<linearGradient id="paint3_linear_464_7896" x1="2" y1="10" x2="2.28" y2="11.96" gradientUnits="userSpaceOnUse">
<stop stop-color="#E1C698"/>
<stop offset="1" stop-color="#CA9958"/>
</linearGradient>
<linearGradient id="paint4_linear_464_7896" x1="9" y1="11" x2="8.72" y2="9.04" gradientUnits="userSpaceOnUse">
<stop stop-color="#AE7637"/>
<stop offset="1" stop-color="#D49C6D"/>
</linearGradient>
<linearGradient id="paint5_linear_464_7896" x1="11" y1="7" x2="14" y2="10" gradientUnits="userSpaceOnUse">
<stop stop-color="#4783C1"/>
<stop offset="1" stop-color="#24569C"/>
</linearGradient>
</defs>
</svg>
