<svg width="16" height="16" viewBox="0 0 16 16" fill="none" xmlns="http://www.w3.org/2000/svg">
<g clip-path="url(#clip0_444_7035)">
<mask id="mask0_444_7035" style="mask-type:alpha" maskUnits="userSpaceOnUse" x="1" y="1" width="14" height="14">
<rect x="1" y="1" width="14" height="14" fill="#D9D9D9"/>
</mask>
<g mask="url(#mask0_444_7035)">
<rect x="1" y="1" width="14" height="14" fill="url(#paint0_linear_444_7035)"/>
<path d="M6.5 9C2.5 9 1 12 1 12V15H15V10C10 15 10.5 9 6.5 9Z" fill="url(#paint1_linear_444_7035)"/>
<path d="M15 9C15 9 12.5 11 10 8.5C7.5 6 8.00001 1 8.00001 1H15V9Z" fill="url(#paint2_linear_444_7035)"/>
<path d="M3.5 1L11 15" stroke="#F05A52" stroke-linecap="round"/>
<path d="M15 10L5 16" stroke="#F05A52" stroke-linecap="round"/>
</g>
<rect x="1.5" y="1.5" width="13" height="13" stroke="white" stroke-opacity="0.66"/>
<rect x="0.5" y="0.5" width="15" height="15" stroke="#5F6A5E" stroke-linejoin="round"/>
<path d="M3 2H4V14H3V2Z" fill="black" fill-opacity="0.05"/>
<path d="M5 2H6V14H5V2Z" fill="black" fill-opacity="0.05"/>
<path d="M7 2H8V14H7V2Z" fill="black" fill-opacity="0.05"/>
<path d="M9 2H10V14H9V2Z" fill="black" fill-opacity="0.05"/>
<path d="M11 2H12V14H11V2Z" fill="black" fill-opacity="0.05"/>
<path d="M13 2H14V14H13V2Z" fill="black" fill-opacity="0.05"/>
<path d="M14 3L14 4L2 4L2 3L14 3Z" fill="black" fill-opacity="0.05"/>
<path d="M14 5V6L2 6L2 5L14 5Z" fill="black" fill-opacity="0.05"/>
<path d="M14 7V8L2 8L2 7L14 7Z" fill="black" fill-opacity="0.05"/>
<path d="M14 9V10H2L2 9L14 9Z" fill="black" fill-opacity="0.05"/>
<path d="M14 11V12L2 12L2 11L14 11Z" fill="black" fill-opacity="0.05"/>
<path d="M14 13V14H2L2 13L14 13Z" fill="black" fill-opacity="0.05"/>
<path d="M4.54043 14.803C4.45989 14.991 4.50188 15.209 4.64645 15.3536C4.79102 15.4981 5.00904 15.5401 5.19696 15.4596L8.69696 13.9596C8.84946 13.8942 8.9596 13.7575 8.99098 13.5946C9.02235 13.4316 8.97087 13.2638 8.85355 13.1464L6.85355 11.1464C6.73624 11.0291 6.56836 10.9776 6.40545 11.009C6.24253 11.0404 6.10578 11.1505 6.04043 11.303L4.54043 14.803Z" fill="url(#paint3_linear_444_7035)"/>
<path d="M4.54043 14.803C4.45989 14.991 4.50188 15.209 4.64645 15.3536C4.79102 15.4981 5.00904 15.5401 5.19696 15.4596L8.69696 13.9596C8.84946 13.8942 8.9596 13.7575 8.99098 13.5946C9.02235 13.4316 8.97087 13.2638 8.85355 13.1464L6.85355 11.1464C6.73624 11.0291 6.56836 10.9776 6.40545 11.009C6.24253 11.0404 6.10578 11.1505 6.04043 11.303L4.54043 14.803Z" fill="url(#paint4_linear_444_7035)"/>
<path d="M4.54043 14.803C4.45989 14.991 4.50188 15.209 4.64645 15.3536C4.79102 15.4981 5.00904 15.5401 5.19696 15.4596L8.69696 13.9596C8.84946 13.8942 8.9596 13.7575 8.99098 13.5946C9.02235 13.4316 8.97087 13.2638 8.85355 13.1464L6.85355 11.1464C6.73624 11.0291 6.56836 10.9776 6.40545 11.009C6.24253 11.0404 6.10578 11.1505 6.04043 11.303L4.54043 14.803Z" stroke="url(#paint5_linear_444_7035)" stroke-linejoin="round"/>
<path d="M4.54043 14.803C4.45989 14.991 4.50188 15.209 4.64645 15.3536C4.79102 15.4981 5.00904 15.5401 5.19696 15.4596L8.69696 13.9596C8.84946 13.8942 8.9596 13.7575 8.99098 13.5946C9.02235 13.4316 8.97087 13.2638 8.85355 13.1464L6.85355 11.1464C6.73624 11.0291 6.56836 10.9776 6.40545 11.009C6.24253 11.0404 6.10578 11.1505 6.04043 11.303L4.54043 14.803Z" stroke="url(#paint6_linear_444_7035)" stroke-linejoin="round"/>
<path d="M6.14645 11.1464C5.95118 11.3417 5.95118 11.6583 6.14645 11.8536L8.14645 13.8536C8.34171 14.0488 8.65829 14.0488 8.85355 13.8536L14.8536 7.85355C15.0488 7.65829 15.0488 7.34171 14.8536 7.14645L12.8536 5.14645C12.6583 4.95118 12.3417 4.95118 12.1464 5.14645L6.14645 11.1464Z" fill="url(#paint7_linear_444_7035)" stroke="url(#paint8_linear_444_7035)" stroke-linejoin="round"/>
<path fill-rule="evenodd" clip-rule="evenodd" d="M6.5 11.5L7.20711 12.2071L13.2071 6.20711L12.5 5.5L6.5 11.5Z" fill="#FCF4B3"/>
<path d="M14.1464 7.85356L14.5 8.20712L14.8536 7.85356C15.0768 7.63032 15.3397 7.23926 15.4185 6.75535C15.5023 6.24043 15.3688 5.66169 14.8536 5.14646C14.3383 4.63123 13.7596 4.49768 13.2447 4.58151C12.7607 4.66028 12.3697 4.92321 12.1464 5.14646L11.7929 5.50001L12.1464 5.85356L14.1464 7.85356Z" fill="url(#paint9_linear_444_7035)" stroke="url(#paint10_linear_444_7035)"/>
</g>
<defs>
<linearGradient id="paint0_linear_444_7035" x1="1" y1="10.9709" x2="15" y2="5.02913" gradientUnits="userSpaceOnUse">
<stop stop-color="#FBFBBC"/>
<stop offset="0.515" stop-color="#FBF68C"/>
<stop offset="1" stop-color="#E6D987"/>
</linearGradient>
<linearGradient id="paint1_linear_444_7035" x1="1" y1="12" x2="15" y2="12" gradientUnits="userSpaceOnUse">
<stop stop-color="#AFDB96"/>
<stop offset="1" stop-color="#8FC16F"/>
</linearGradient>
<linearGradient id="paint2_linear_444_7035" x1="14.9323" y1="1" x2="8.06773" y2="9" gradientUnits="userSpaceOnUse">
<stop stop-color="#75A0DA"/>
<stop offset="1" stop-color="#C9DBDC"/>
</linearGradient>
<linearGradient id="paint3_linear_444_7035" x1="6.16667" y1="11.8889" x2="8.11111" y2="13.8333" gradientUnits="userSpaceOnUse">
<stop stop-color="#FAE7D1"/>
<stop offset="1" stop-color="#E89840"/>
</linearGradient>
<linearGradient id="paint4_linear_444_7035" x1="6.94444" y1="12.6667" x2="3.83333" y2="15.7778" gradientUnits="userSpaceOnUse">
<stop stop-color="#584013" stop-opacity="0"/>
<stop offset="0.499937" stop-color="#584013" stop-opacity="0"/>
<stop offset="0.661921" stop-color="#584013"/>
</linearGradient>
<linearGradient id="paint5_linear_444_7035" x1="6.16667" y1="12.6667" x2="7.33333" y2="13.8333" gradientUnits="userSpaceOnUse">
<stop stop-color="#B98926"/>
<stop offset="1" stop-color="#AA6016"/>
</linearGradient>
<linearGradient id="paint6_linear_444_7035" x1="7.72222" y1="11.8889" x2="3.83333" y2="15.7778" gradientUnits="userSpaceOnUse">
<stop offset="0.5" stop-color="#B98926" stop-opacity="0"/>
<stop offset="0.656842" stop-color="#584013"/>
</linearGradient>
<linearGradient id="paint7_linear_444_7035" x1="6.5" y1="11.6579" x2="8.34211" y2="13.5" gradientUnits="userSpaceOnUse">
<stop stop-color="#F5DC60"/>
<stop offset="1" stop-color="#EFCB1A"/>
</linearGradient>
<linearGradient id="paint8_linear_444_7035" x1="6.5" y1="11.6579" x2="8.3421" y2="13.5" gradientUnits="userSpaceOnUse">
<stop stop-color="#E9C755"/>
<stop offset="1" stop-color="#D98F3B"/>
</linearGradient>
<linearGradient id="paint9_linear_444_7035" x1="12.4766" y1="6.30195" x2="14.8903" y2="6.69267" gradientUnits="userSpaceOnUse">
<stop stop-color="#FDD7D1"/>
<stop offset="1" stop-color="#FBACA1"/>
</linearGradient>
<linearGradient id="paint10_linear_444_7035" x1="12.5" y1="6.31509" x2="14.8693" y2="6.72938" gradientUnits="userSpaceOnUse">
<stop stop-color="#E1B3AD"/>
<stop offset="1" stop-color="#B17971"/>
</linearGradient>
<clipPath id="clip0_444_7035">
<rect width="16" height="16" fill="white"/>
</clipPath>
</defs>
</svg>
