<svg width="16" height="16" viewBox="0 0 16 16" fill="none" xmlns="http://www.w3.org/2000/svg">
<g clip-path="url(#clip0_444_7034)">
<mask id="mask0_444_7034" style="mask-type:alpha" maskUnits="userSpaceOnUse" x="1" y="1" width="14" height="14">
<rect x="1" y="1" width="14" height="14" fill="#D9D9D9"/>
</mask>
<g mask="url(#mask0_444_7034)">
<rect x="1" y="1" width="14" height="14" fill="url(#paint0_linear_444_7034)"/>
<path d="M6.5 9C2.5 9 1 12 1 12V15H15V10C10 15 10.5 9 6.5 9Z" fill="url(#paint1_linear_444_7034)"/>
<path d="M15 9C15 9 12.5 11 9.99997 8.5C7.49997 6 7.99998 1 7.99998 1H15V9Z" fill="url(#paint2_linear_444_7034)"/>
<path d="M3.5 1L11 15" stroke="#F05A52" stroke-linecap="round"/>
<path d="M15 10L5 16" stroke="#F05A52" stroke-linecap="round"/>
</g>
<rect x="1.5" y="1.5" width="13" height="13" stroke="white" stroke-opacity="0.66"/>
<rect x="0.5" y="0.5" width="15" height="15" stroke="#5F6A5E" stroke-linejoin="round"/>
<path d="M3 2H4V14H3V2Z" fill="black" fill-opacity="0.05"/>
<path d="M5 2H6V14H5V2Z" fill="black" fill-opacity="0.05"/>
<path d="M7 2H8V14H7V2Z" fill="black" fill-opacity="0.05"/>
<path d="M9 2H10V14H9V2Z" fill="black" fill-opacity="0.05"/>
<path d="M11 2H12V14H11V2Z" fill="black" fill-opacity="0.05"/>
<path d="M13 2H14V14H13V2Z" fill="black" fill-opacity="0.05"/>
<path d="M14 3L14 4L2 4L2 3L14 3Z" fill="black" fill-opacity="0.05"/>
<path d="M14 5V6L2 6L2 5L14 5Z" fill="black" fill-opacity="0.05"/>
<path d="M14 7V8L2 8L2 7L14 7Z" fill="black" fill-opacity="0.05"/>
<path d="M14 9V10H2L2 9L14 9Z" fill="black" fill-opacity="0.05"/>
<path d="M14 11V12L2 12L2 11L14 11Z" fill="black" fill-opacity="0.05"/>
<path d="M14 13V14H2L2 13L14 13Z" fill="black" fill-opacity="0.05"/>
<g filter="url(#filter0_i_444_7034)">
<path d="M10 9H6V14H10V16H11L16 11.5L11 7H10V9Z" fill="#80B361"/>
</g>
<path d="M10 9.5C10.2761 9.5 10.5 9.27614 10.5 9V7.5H10.8081L15.2526 11.5L10.8081 15.5H10.5V14C10.5 13.7239 10.2761 13.5 10 13.5H6.5V9.5H10Z" stroke="url(#paint3_linear_444_7034)" stroke-linejoin="round"/>
<path d="M7.5 12.5V10.5H10C10.7149 10.5 11.2659 10.0257 11.4412 9.41686L13.7531 11.5L11.4413 13.5831C11.263 12.9643 10.6975 12.5 10.0049 12.5H7.5Z" stroke="white" stroke-opacity="0.2" stroke-linejoin="round"/>
</g>
<defs>
<filter id="filter0_i_444_7034" x="6" y="7" width="12" height="11" filterUnits="userSpaceOnUse" color-interpolation-filters="sRGB">
<feFlood flood-opacity="0" result="BackgroundImageFix"/>
<feBlend mode="normal" in="SourceGraphic" in2="BackgroundImageFix" result="shape"/>
<feColorMatrix in="SourceAlpha" type="matrix" values="0 0 0 0 0 0 0 0 0 0 0 0 0 0 0 0 0 0 127 0" result="hardAlpha"/>
<feOffset dx="2" dy="2"/>
<feGaussianBlur stdDeviation="1"/>
<feComposite in2="hardAlpha" operator="arithmetic" k2="-1" k3="1"/>
<feColorMatrix type="matrix" values="0 0 0 0 1 0 0 0 0 1 0 0 0 0 1 0 0 0 0.25 0"/>
<feBlend mode="normal" in2="shape" result="effect1_innerShadow_444_7034"/>
</filter>
<linearGradient id="paint0_linear_444_7034" x1="1" y1="10.9709" x2="15" y2="5.02913" gradientUnits="userSpaceOnUse">
<stop stop-color="#FBFBBC"/>
<stop offset="0.515" stop-color="#FBF68C"/>
<stop offset="1" stop-color="#E6D987"/>
</linearGradient>
<linearGradient id="paint1_linear_444_7034" x1="1" y1="12" x2="15" y2="12" gradientUnits="userSpaceOnUse">
<stop stop-color="#AFDB96"/>
<stop offset="1" stop-color="#8FC16F"/>
</linearGradient>
<linearGradient id="paint2_linear_444_7034" x1="14.9322" y1="1" x2="8.0677" y2="9" gradientUnits="userSpaceOnUse">
<stop stop-color="#75A0DA"/>
<stop offset="1" stop-color="#C9DBDC"/>
</linearGradient>
<linearGradient id="paint3_linear_444_7034" x1="14.5714" y1="14.7143" x2="8.17837" y2="7.61089" gradientUnits="userSpaceOnUse">
<stop stop-color="#247C10"/>
<stop offset="1" stop-color="#6FA53D"/>
</linearGradient>
<clipPath id="clip0_444_7034">
<rect width="16" height="16" fill="white"/>
</clipPath>
</defs>
</svg>
