<svg width="16" height="16" viewBox="0 0 16 16" fill="none" xmlns="http://www.w3.org/2000/svg">
<g clip-path="url(#clip0_134_2201)">
<mask id="path-1-outside-1_134_2201" maskUnits="userSpaceOnUse" x="2" y="0" width="12" height="15" fill="black">
<rect fill="white" x="2" width="12" height="15"/>
<path d="M7.10548 10.328C7.10548 11.498 6.88948 12.128 6.00748 12.614H11.7675L11.5695 14H3.99148V12.686C5.21548 12.236 5.46748 11.786 5.46748 10.31V8.204H4.27948V7.124H5.46748V5.126C5.46748 3.2 6.67348 1.778 8.86948 1.778C10.1835 1.778 11.2275 2.246 12.0915 3.272L10.9935 4.1C10.4355 3.434 9.84148 3.128 8.94148 3.128C7.78948 3.128 7.10548 3.812 7.10548 5.108V7.124H10.8495V8.204H7.10548V10.328Z"/>
</mask>
<path d="M7.10548 10.328C7.10548 11.498 6.88948 12.128 6.00748 12.614H11.7675L11.5695 14H3.99148V12.686C5.21548 12.236 5.46748 11.786 5.46748 10.31V8.204H4.27948V7.124H5.46748V5.126C5.46748 3.2 6.67348 1.778 8.86948 1.778C10.1835 1.778 11.2275 2.246 12.0915 3.272L10.9935 4.1C10.4355 3.434 9.84148 3.128 8.94148 3.128C7.78948 3.128 7.10548 3.812 7.10548 5.108V7.124H10.8495V8.204H7.10548V10.328Z" fill="url(#paint0_linear_134_2201)"/>
<path d="M6.00748 12.614L5.52488 11.7382L6.00748 13.614V12.614ZM11.7675 12.614L12.7574 12.7554L12.9205 11.614H11.7675V12.614ZM11.5695 14V15H12.4368L12.5594 14.1414L11.5695 14ZM3.99148 14H2.99148V15H3.99148V14ZM3.99148 12.686L3.64642 11.7474L2.99148 11.9882V12.686H3.99148ZM5.46748 8.204H6.46748V7.204H5.46748V8.204ZM4.27948 8.204H3.27948V9.204H4.27948V8.204ZM4.27948 7.124V6.124H3.27948V7.124H4.27948ZM5.46748 7.124V8.124H6.46748V7.124H5.46748ZM12.0915 3.272L12.6936 4.07043L13.5361 3.43505L12.8564 2.62786L12.0915 3.272ZM10.9935 4.1L10.227 4.74222L10.8371 5.47041L11.5956 4.89843L10.9935 4.1ZM7.10548 7.124H6.10548V8.124H7.10548V7.124ZM10.8495 7.124H11.8495V6.124H10.8495V7.124ZM10.8495 8.204V9.204H11.8495V8.204H10.8495ZM7.10548 8.204V7.204H6.10548V8.204H7.10548ZM6.10548 10.328C6.10548 10.8743 6.05048 11.1503 5.97552 11.3167C5.9195 11.441 5.822 11.5744 5.52488 11.7382L6.49009 13.4898C7.07497 13.1676 7.52647 12.743 7.79895 12.1383C8.05248 11.5757 8.10548 10.9517 8.10548 10.328H6.10548ZM6.00748 13.614H11.7675V11.614H6.00748V13.614ZM10.7775 12.4726L10.5795 13.8586L12.5594 14.1414L12.7574 12.7554L10.7775 12.4726ZM11.5695 13H3.99148V15H11.5695V13ZM4.99148 14V12.686H2.99148V14H4.99148ZM4.33655 13.6246C4.99824 13.3813 5.64197 13.058 6.04163 12.4044C6.41723 11.7902 6.46748 11.0514 6.46748 10.31H4.46748C4.46748 11.0446 4.39174 11.2688 4.33534 11.3611C4.303 11.414 4.20873 11.5407 3.64642 11.7474L4.33655 13.6246ZM6.46748 10.31V8.204H4.46748V10.31H6.46748ZM5.46748 7.204H4.27948V9.204H5.46748V7.204ZM5.27948 8.204V7.124H3.27948V8.204H5.27948ZM4.27948 8.124H5.46748V6.124H4.27948V8.124ZM6.46748 7.124V5.126H4.46748V7.124H6.46748ZM6.46748 5.126C6.46748 4.37067 6.70121 3.80028 7.0642 3.42454C7.42097 3.05522 7.99492 2.778 8.86948 2.778V0.778C7.54805 0.778 6.421 1.21178 5.62577 2.03496C4.83676 2.85171 4.46748 3.95533 4.46748 5.126H6.46748ZM8.86948 2.778C9.89498 2.778 10.6567 3.12067 11.3266 3.91613L12.8564 2.62786C11.7983 1.37133 10.472 0.778 8.86948 0.778V2.778ZM11.4894 2.47357L10.3914 3.30157L11.5956 4.89843L12.6936 4.07043L11.4894 2.47357ZM11.76 3.45778C11.4165 3.0478 11.0215 2.70087 10.5307 2.46378C10.0373 2.2255 9.50899 2.128 8.94148 2.128V4.128C9.27398 4.128 9.49265 4.1835 9.66081 4.26472C9.83144 4.34713 10.0125 4.4862 10.227 4.74222L11.76 3.45778ZM8.94148 2.128C8.16651 2.128 7.41537 2.36299 6.86502 2.9448C6.32215 3.51868 6.10548 4.29211 6.10548 5.108H8.10548C8.10548 4.62789 8.23082 4.41131 8.31795 4.3192C8.39759 4.23501 8.56446 4.128 8.94148 4.128V2.128ZM6.10548 5.108V7.124H8.10548V5.108H6.10548ZM7.10548 8.124H10.8495V6.124H7.10548V8.124ZM9.84948 7.124V8.204H11.8495V7.124H9.84948ZM10.8495 7.204H7.10548V9.204H10.8495V7.204ZM6.10548 8.204V10.328H8.10548V8.204H6.10548Z" fill="url(#paint1_linear_134_2201)" mask="url(#path-1-outside-1_134_2201)"/>
</g>
<defs>
<linearGradient id="paint0_linear_134_2201" x1="3" y1="-2.61178" x2="16.6292" y2="16.3874" gradientUnits="userSpaceOnUse">
<stop stop-color="#B4C6D6"/>
<stop offset="1" stop-color="#98ACCC"/>
</linearGradient>
<linearGradient id="paint1_linear_134_2201" x1="3" y1="-3" x2="14.5441" y2="16.2402" gradientUnits="userSpaceOnUse">
<stop stop-color="#9FB7CB"/>
<stop offset="1" stop-color="#7590BC"/>
</linearGradient>
<clipPath id="clip0_134_2201">
<rect width="16" height="16" fill="white"/>
</clipPath>
</defs>
</svg>
