<svg width="16" height="16" viewBox="0 0 16 16" fill="none" xmlns="http://www.w3.org/2000/svg">
<g clip-path="url(#clip0_134_2194)">
<mask id="path-1-outside-1_134_2194" maskUnits="userSpaceOnUse" x="1.5" y="0" width="13" height="16" fill="black">
<rect fill="white" x="1.5" width="13" height="16"/>
<path d="M6.61245 9.842C6.91845 11.948 7.85445 12.83 9.63645 12.83C10.6805 12.83 11.4545 12.47 12.1565 12.092V13.532C11.3465 13.928 10.5185 14.216 9.38445 14.216C6.90045 14.216 5.31645 12.686 4.84845 9.842H3.26445L3.53445 8.744H4.79445V7.124H3.26445L3.53445 6.008H4.86645C5.44245 3.272 7.22445 1.778 9.45645 1.778C10.6985 1.778 11.7425 2.12 12.7325 2.786L12.0845 3.92C11.2205 3.398 10.5365 3.146 9.52845 3.146C8.14245 3.146 7.11645 4.01 6.66645 6.008H11.2565L10.9865 7.124H6.55845V8.744H10.6445L10.3925 9.842H6.61245Z"/>
</mask>
<path d="M6.61245 9.842C6.91845 11.948 7.85445 12.83 9.63645 12.83C10.6805 12.83 11.4545 12.47 12.1565 12.092V13.532C11.3465 13.928 10.5185 14.216 9.38445 14.216C6.90045 14.216 5.31645 12.686 4.84845 9.842H3.26445L3.53445 8.744H4.79445V7.124H3.26445L3.53445 6.008H4.86645C5.44245 3.272 7.22445 1.778 9.45645 1.778C10.6985 1.778 11.7425 2.12 12.7325 2.786L12.0845 3.92C11.2205 3.398 10.5365 3.146 9.52845 3.146C8.14245 3.146 7.11645 4.01 6.66645 6.008H11.2565L10.9865 7.124H6.55845V8.744H10.6445L10.3925 9.842H6.61245Z" fill="url(#paint0_linear_134_2194)"/>
<path d="M6.61245 9.842V8.842H5.45665L5.62284 9.98579L6.61245 9.842ZM12.1565 12.092H13.1565V10.4178L11.6824 11.2115L12.1565 12.092ZM12.1565 13.532L12.5957 14.4304L13.1565 14.1562V13.532H12.1565ZM4.84845 9.842L5.83518 9.67963L5.69735 8.842H4.84845V9.842ZM3.26445 9.842L2.29338 9.60321L1.98876 10.842H3.26445V9.842ZM3.53445 8.744V7.744H2.75056L2.56338 8.50521L3.53445 8.744ZM4.79445 8.744V9.744H5.79445V8.744H4.79445ZM4.79445 7.124H5.79445V6.124H4.79445V7.124ZM3.26445 7.124L2.29249 6.88885L1.99367 8.124H3.26445V7.124ZM3.53445 6.008V5.008H2.74754L2.56249 5.77285L3.53445 6.008ZM4.86645 6.008V7.008H5.67785L5.845 6.21401L4.86645 6.008ZM12.7325 2.786L13.6007 3.28214L14.0619 2.4751L13.2906 1.95628L12.7325 2.786ZM12.0845 3.92L11.5673 4.77592L12.4443 5.30577L12.9527 4.41614L12.0845 3.92ZM6.66645 6.008L5.69089 5.78828L5.41618 7.008H6.66645V6.008ZM11.2565 6.008L12.2284 6.24315L12.5272 5.008H11.2565V6.008ZM10.9865 7.124V8.124H11.7734L11.9584 7.35915L10.9865 7.124ZM6.55845 7.124V6.124H5.55845V7.124H6.55845ZM6.55845 8.744H5.55845V9.744H6.55845V8.744ZM10.6445 8.744L11.6191 8.96769L11.9 7.744H10.6445V8.744ZM10.3925 9.842V10.842H11.1889L11.3671 10.0657L10.3925 9.842ZM5.62284 9.98579C5.79079 11.1416 6.15371 12.139 6.87202 12.8409C7.61281 13.5649 8.58023 13.83 9.63645 13.83V11.83C8.91068 11.83 8.5191 11.6541 8.26989 11.4106C7.99819 11.145 7.74012 10.6484 7.60206 9.69821L5.62284 9.98579ZM9.63645 13.83C10.9334 13.83 11.8867 13.373 12.6306 12.9725L11.6824 11.2115C11.0222 11.567 10.4275 11.83 9.63645 11.83V13.83ZM11.1565 12.092V13.532H13.1565V12.092H11.1565ZM11.7172 12.6336C10.9958 12.9863 10.3204 13.216 9.38445 13.216V15.216C10.7165 15.216 11.6971 14.8697 12.5957 14.4304L11.7172 12.6336ZM9.38445 13.216C8.36036 13.216 7.60573 12.9073 7.05475 12.3758C6.48904 11.8301 6.04578 10.9594 5.83518 9.67963L3.86172 10.0044C4.11913 11.5686 4.70186 12.8849 5.66616 13.8152C6.64518 14.7597 7.92455 15.216 9.38445 15.216V13.216ZM4.84845 8.842H3.26445V10.842H4.84845V8.842ZM4.23552 10.0808L4.50552 8.98279L2.56338 8.50521L2.29338 9.60321L4.23552 10.0808ZM3.53445 9.744H4.79445V7.744H3.53445V9.744ZM5.79445 8.744V7.124H3.79445V8.744H5.79445ZM4.79445 6.124H3.26445V8.124H4.79445V6.124ZM4.23641 7.35915L4.50641 6.24315L2.56249 5.77285L2.29249 6.88885L4.23641 7.35915ZM3.53445 7.008H4.86645V5.008H3.53445V7.008ZM5.845 6.21401C6.09795 5.0125 6.59879 4.15882 7.20872 3.61092C7.81244 3.0686 8.57446 2.778 9.45645 2.778V0.778C8.10645 0.778 6.86147 1.2344 5.87219 2.12308C4.88912 3.00618 4.21095 4.2675 3.8879 5.80199L5.845 6.21401ZM9.45645 2.778C10.4902 2.778 11.3413 3.05537 12.1743 3.61572L13.2906 1.95628C12.1436 1.18463 10.9067 0.778 9.45645 0.778V2.778ZM11.8642 2.28986L11.2162 3.42386L12.9527 4.41614L13.6007 3.28214L11.8642 2.28986ZM12.6016 3.06408C11.6255 2.47439 10.7641 2.146 9.52845 2.146V4.146C10.3089 4.146 10.8154 4.32161 11.5673 4.77592L12.6016 3.06408ZM9.52845 2.146C8.61015 2.146 7.74896 2.44028 7.05455 3.10576C6.38052 3.75171 5.94244 4.67138 5.69089 5.78828L7.64202 6.22772C7.84046 5.34661 8.14039 4.83529 8.43836 4.54974C8.71594 4.28372 9.06075 4.146 9.52845 4.146V2.146ZM6.66645 7.008H11.2565V5.008H6.66645V7.008ZM10.2845 5.77285L10.0145 6.88885L11.9584 7.35915L12.2284 6.24315L10.2845 5.77285ZM10.9865 6.124H6.55845V8.124H10.9865V6.124ZM5.55845 7.124V8.744H7.55845V7.124H5.55845ZM6.55845 9.744H10.6445V7.744H6.55845V9.744ZM9.66979 8.52031L9.41779 9.61831L11.3671 10.0657L11.6191 8.96769L9.66979 8.52031ZM10.3925 8.842H6.61245V10.842H10.3925V8.842Z" fill="url(#paint1_linear_134_2194)" mask="url(#path-1-outside-1_134_2194)"/>
</g>
<defs>
<linearGradient id="paint0_linear_134_2194" x1="2.5" y1="-2.61178" x2="15.6665" y2="17.5779" gradientUnits="userSpaceOnUse">
<stop stop-color="#ECD88C"/>
<stop offset="1" stop-color="#EAC66A"/>
</linearGradient>
<linearGradient id="paint1_linear_134_2194" x1="2.5" y1="-3" x2="13.5" y2="17.1667" gradientUnits="userSpaceOnUse">
<stop stop-color="#D7C16F"/>
<stop offset="1" stop-color="#D9B356"/>
</linearGradient>
<clipPath id="clip0_134_2194">
<rect width="16" height="16" fill="white"/>
</clipPath>
</defs>
</svg>
