<svg width="16" height="16" viewBox="0 0 16 16" fill="none" xmlns="http://www.w3.org/2000/svg">
<g clip-path="url(#clip0_134_2208)">
<mask id="path-1-outside-1_134_2208" maskUnits="userSpaceOnUse" x="1" y="0" width="14" height="15" fill="black">
<rect fill="white" x="1" width="14" height="15"/>
<path d="M12.7328 1.958L9.2948 7.772H11.3288V8.888H8.84481V10.508H11.3288V11.606H8.84481V14H7.1528V11.606H4.6508V10.508H7.1528V8.888H4.6508V7.772H6.7028L3.2648 1.958H5.1008L8.05281 7.268L10.9868 1.958H12.7328Z"/>
</mask>
<path d="M12.7328 1.958L9.2948 7.772H11.3288V8.888H8.84481V10.508H11.3288V11.606H8.84481V14H7.1528V11.606H4.6508V10.508H7.1528V8.888H4.6508V7.772H6.7028L3.2648 1.958H5.1008L8.05281 7.268L10.9868 1.958H12.7328Z" fill="url(#paint0_linear_134_2208)"/>
<path d="M12.7328 1.958L13.5936 2.467L14.4859 0.957999H12.7328V1.958ZM9.2948 7.772L8.43404 7.263L7.54172 8.772H9.2948V7.772ZM11.3288 7.772H12.3288V6.772H11.3288V7.772ZM11.3288 8.888V9.888H12.3288V8.888H11.3288ZM8.84481 8.888V7.888H7.84481V8.888H8.84481ZM8.84481 10.508H7.84481V11.508H8.84481V10.508ZM11.3288 10.508H12.3288V9.508H11.3288V10.508ZM11.3288 11.606V12.606H12.3288V11.606H11.3288ZM8.84481 11.606V10.606H7.84481V11.606H8.84481ZM8.84481 14V15H9.84481V14H8.84481ZM7.1528 14H6.1528V15H7.1528V14ZM7.1528 11.606H8.1528V10.606H7.1528V11.606ZM4.6508 11.606H3.6508V12.606H4.6508V11.606ZM4.6508 10.508V9.508H3.6508V10.508H4.6508ZM7.1528 10.508V11.508H8.1528V10.508H7.1528ZM7.1528 8.888H8.1528V7.888H7.1528V8.888ZM4.6508 8.888H3.6508V9.888H4.6508V8.888ZM4.6508 7.772V6.772H3.6508V7.772H4.6508ZM6.7028 7.772V8.772H8.45589L7.56357 7.263L6.7028 7.772ZM3.2648 1.958V0.957999H1.51172L2.40404 2.467L3.2648 1.958ZM5.1008 1.958L5.97482 1.47211L5.68901 0.957999H5.1008V1.958ZM8.0528 7.268L7.17879 7.75389L8.05548 9.33087L8.92808 7.75163L8.0528 7.268ZM10.9868 1.958V0.957999H10.3968L10.1115 1.47437L10.9868 1.958ZM11.872 1.449L8.43404 7.263L10.1556 8.281L13.5936 2.467L11.872 1.449ZM9.2948 8.772H11.3288V6.772H9.2948V8.772ZM10.3288 7.772V8.888H12.3288V7.772H10.3288ZM11.3288 7.888H8.84481V9.888H11.3288V7.888ZM7.84481 8.888V10.508H9.84481V8.888H7.84481ZM8.84481 11.508H11.3288V9.508H8.84481V11.508ZM10.3288 10.508V11.606H12.3288V10.508H10.3288ZM11.3288 10.606H8.84481V12.606H11.3288V10.606ZM7.84481 11.606V14H9.84481V11.606H7.84481ZM8.84481 13H7.1528V15H8.84481V13ZM8.1528 14V11.606H6.1528V14H8.1528ZM7.1528 10.606H4.6508V12.606H7.1528V10.606ZM5.6508 11.606V10.508H3.6508V11.606H5.6508ZM4.6508 11.508H7.1528V9.508H4.6508V11.508ZM8.1528 10.508V8.888H6.1528V10.508H8.1528ZM7.1528 7.888H4.6508V9.888H7.1528V7.888ZM5.6508 8.888V7.772H3.6508V8.888H5.6508ZM4.6508 8.772H6.7028V6.772H4.6508V8.772ZM7.56357 7.263L4.12557 1.449L2.40404 2.467L5.84204 8.281L7.56357 7.263ZM3.2648 2.958H5.1008V0.957999H3.2648V2.958ZM4.22679 2.44389L7.17879 7.75389L8.92682 6.78211L5.97482 1.47211L4.22679 2.44389ZM8.92808 7.75163L11.8621 2.44163L10.1115 1.47437L7.17753 6.78437L8.92808 7.75163ZM10.9868 2.958H12.7328V0.957999H10.9868V2.958Z" fill="url(#paint1_linear_134_2208)" mask="url(#path-1-outside-1_134_2208)"/>
</g>
<defs>
<linearGradient id="paint0_linear_134_2208" x1="3" y1="-2.61178" x2="16.6292" y2="16.3874" gradientUnits="userSpaceOnUse">
<stop stop-color="#B1D7AA"/>
<stop offset="1" stop-color="#91C98E"/>
</linearGradient>
<linearGradient id="paint1_linear_134_2208" x1="3" y1="-3" x2="14.5441" y2="16.2402" gradientUnits="userSpaceOnUse">
<stop stop-color="#80BD75"/>
<stop offset="1" stop-color="#62B061"/>
</linearGradient>
<clipPath id="clip0_134_2208">
<rect width="16" height="16" fill="white"/>
</clipPath>
</defs>
</svg>
