<svg width="16" height="16" viewBox="0 0 16 16" fill="none" xmlns="http://www.w3.org/2000/svg">
<path d="M10 8H6C6 10 6 11 4 12V14H12L12 12C10 11 10 10 10 8Z" fill="url(#paint0_linear_179_3180)"/>
<path d="M6.49903 8.5H9.50097C9.5066 9.26566 9.5439 9.95604 9.78576 10.5607C10.0699 11.2711 10.6067 11.8114 11.5 12.3024L11.5 13.5H4.5V12.3024C5.39327 11.8114 5.93009 11.2711 6.21424 10.5607C6.4561 9.95604 6.49339 9.26566 6.49903 8.5Z" stroke="black" stroke-opacity="0.2"/>
<path d="M5 13C5 12.4477 5.44772 12 6 12H10C10.5523 12 11 12.4477 11 13H5Z" fill="#FDFDF7"/>
<rect x="1" width="14" height="11" rx="1" fill="url(#paint1_linear_179_3180)"/>
<rect x="1.5" y="0.5" width="13" height="10" rx="0.5" stroke="black" stroke-opacity="0.66" stroke-linejoin="round" style="mix-blend-mode:overlay"/>
<rect x="3" y="2" width="10" height="7" fill="#6EA4DC"/>
<rect x="3" y="2" width="10" height="7" fill="url(#paint2_linear_179_3180)"/>
<rect x="3" y="2" width="10" height="7" fill="url(#paint3_linear_179_3180)"/>
<rect x="3.5" y="2.5" width="9" height="6" stroke="black" stroke-opacity="0.33" stroke-linejoin="round" style="mix-blend-mode:overlay"/>
<mask id="path-8-inside-1_179_3180" fill="white">
<path fill-rule="evenodd" clip-rule="evenodd" d="M6.5 16C8.433 16 10 14.433 10 12.5C10 10.567 8.433 9 6.5 9C4.567 9 3 10.567 3 12.5C3 14.433 4.567 16 6.5 16ZM6.5 13C6.77614 13 7 12.7761 7 12.5C7 12.2239 6.77614 12 6.5 12C6.22386 12 6 12.2239 6 12.5C6 12.7761 6.22386 13 6.5 13Z"/>
</mask>
<path fill-rule="evenodd" clip-rule="evenodd" d="M6.5 16C8.433 16 10 14.433 10 12.5C10 10.567 8.433 9 6.5 9C4.567 9 3 10.567 3 12.5C3 14.433 4.567 16 6.5 16ZM6.5 13C6.77614 13 7 12.7761 7 12.5C7 12.2239 6.77614 12 6.5 12C6.22386 12 6 12.2239 6 12.5C6 12.7761 6.22386 13 6.5 13Z" fill="url(#paint4_linear_179_3180)"/>
<path d="M9 12.5C9 13.8807 7.88071 15 6.5 15V17C8.98528 17 11 14.9853 11 12.5H9ZM6.5 10C7.88071 10 9 11.1193 9 12.5H11C11 10.0147 8.98528 8 6.5 8V10ZM4 12.5C4 11.1193 5.11929 10 6.5 10V8C4.01472 8 2 10.0147 2 12.5H4ZM6.5 15C5.11929 15 4 13.8807 4 12.5H2C2 14.9853 4.01472 17 6.5 17V15ZM6 12.5C6 12.2239 6.22386 12 6.5 12V14C7.32843 14 8 13.3284 8 12.5H6ZM6.5 13C6.22386 13 6 12.7761 6 12.5H8C8 11.6716 7.32843 11 6.5 11V13ZM7 12.5C7 12.7761 6.77614 13 6.5 13V11C5.67157 11 5 11.6716 5 12.5H7ZM6.5 12C6.77614 12 7 12.2239 7 12.5H5C5 13.3284 5.67157 14 6.5 14V12Z" fill="url(#paint5_linear_179_3180)" mask="url(#path-8-inside-1_179_3180)"/>
<mask id="path-10-inside-2_179_3180" fill="white">
<path fill-rule="evenodd" clip-rule="evenodd" d="M12.5 16C14.433 16 16 14.433 16 12.5C16 10.567 14.433 9 12.5 9C10.567 9 9 10.567 9 12.5C9 14.433 10.567 16 12.5 16ZM12.5 13C12.7761 13 13 12.7761 13 12.5C13 12.2239 12.7761 12 12.5 12C12.2239 12 12 12.2239 12 12.5C12 12.7761 12.2239 13 12.5 13Z"/>
</mask>
<path fill-rule="evenodd" clip-rule="evenodd" d="M12.5 16C14.433 16 16 14.433 16 12.5C16 10.567 14.433 9 12.5 9C10.567 9 9 10.567 9 12.5C9 14.433 10.567 16 12.5 16ZM12.5 13C12.7761 13 13 12.7761 13 12.5C13 12.2239 12.7761 12 12.5 12C12.2239 12 12 12.2239 12 12.5C12 12.7761 12.2239 13 12.5 13Z" fill="url(#paint6_linear_179_3180)"/>
<path d="M15 12.5C15 13.8807 13.8807 15 12.5 15V17C14.9853 17 17 14.9853 17 12.5H15ZM12.5 10C13.8807 10 15 11.1193 15 12.5H17C17 10.0147 14.9853 8 12.5 8V10ZM10 12.5C10 11.1193 11.1193 10 12.5 10V8C10.0147 8 8 10.0147 8 12.5H10ZM12.5 15C11.1193 15 10 13.8807 10 12.5H8C8 14.9853 10.0147 17 12.5 17V15ZM12 12.5C12 12.2239 12.2239 12 12.5 12V14C13.3284 14 14 13.3284 14 12.5H12ZM12.5 13C12.2239 13 12 12.7761 12 12.5H14C14 11.6716 13.3284 11 12.5 11V13ZM13 12.5C13 12.7761 12.7761 13 12.5 13V11C11.6716 11 11 11.6716 11 12.5H13ZM12.5 12C12.7761 12 13 12.2239 13 12.5H11C11 13.3284 11.6716 14 12.5 14V12Z" fill="url(#paint7_linear_179_3180)" mask="url(#path-10-inside-2_179_3180)"/>
<rect x="6.5" y="11.5" width="6" height="2" fill="url(#paint8_linear_179_3180)"/>
<rect x="6.5" y="11.5" width="6" height="2" stroke="url(#paint9_linear_179_3180)" stroke-linejoin="round"/>
<rect x="6.5" y="11.5" width="6" height="2" stroke="url(#paint10_linear_179_3180)" stroke-linejoin="round"/>
<defs>
<linearGradient id="paint0_linear_179_3180" x1="8" y1="8" x2="8" y2="14" gradientUnits="userSpaceOnUse">
<stop stop-color="#E3E0D2"/>
<stop offset="1" stop-color="#EEEDDE"/>
</linearGradient>
<linearGradient id="paint1_linear_179_3180" x1="1" y1="0" x2="15" y2="11" gradientUnits="userSpaceOnUse">
<stop stop-color="#F0F0E9"/>
<stop offset="1" stop-color="#CDCDC8"/>
</linearGradient>
<linearGradient id="paint2_linear_179_3180" x1="12.1667" y1="2" x2="4.35085" y2="9.53668" gradientUnits="userSpaceOnUse">
<stop stop-color="white" stop-opacity="0.2"/>
<stop offset="0.494495" stop-color="white" stop-opacity="0.66"/>
<stop offset="0.5" stop-color="white" stop-opacity="0.33"/>
<stop offset="1" stop-color="white" stop-opacity="0"/>
</linearGradient>
<linearGradient id="paint3_linear_179_3180" x1="13" y1="5.5" x2="3" y2="5.5" gradientUnits="userSpaceOnUse">
<stop offset="0.205" stop-color="#96BDF1"/>
<stop offset="1" stop-color="#90BDF6" stop-opacity="0"/>
</linearGradient>
<linearGradient id="paint4_linear_179_3180" x1="5" y1="11" x2="8.5" y2="14.5" gradientUnits="userSpaceOnUse">
<stop stop-color="#D9D9D9"/>
<stop offset="1" stop-color="#737373"/>
</linearGradient>
<linearGradient id="paint5_linear_179_3180" x1="10" y1="16" x2="3" y2="9" gradientUnits="userSpaceOnUse">
<stop stop-color="#404040"/>
<stop offset="1" stop-color="#8D8D8D"/>
</linearGradient>
<linearGradient id="paint6_linear_179_3180" x1="11" y1="11" x2="14" y2="14" gradientUnits="userSpaceOnUse">
<stop stop-color="#D9D9D9"/>
<stop offset="1" stop-color="#737373"/>
</linearGradient>
<linearGradient id="paint7_linear_179_3180" x1="16" y1="16" x2="9" y2="9" gradientUnits="userSpaceOnUse">
<stop stop-color="#404040"/>
<stop offset="1" stop-color="#8D8D8D"/>
</linearGradient>
<linearGradient id="paint8_linear_179_3180" x1="7.71429" y1="12.1429" x2="7.98901" y2="13.5165" gradientUnits="userSpaceOnUse">
<stop stop-color="#D9D9D9"/>
<stop offset="1" stop-color="#737373"/>
</linearGradient>
<linearGradient id="paint9_linear_179_3180" x1="9.5" y1="14" x2="9.5" y2="11" gradientUnits="userSpaceOnUse">
<stop offset="0.33" stop-color="#515151"/>
<stop offset="0.66" stop-color="#8D8D8D"/>
</linearGradient>
<linearGradient id="paint10_linear_179_3180" x1="7" y1="12.5" x2="12" y2="12.5" gradientUnits="userSpaceOnUse">
<stop stop-color="#484848"/>
<stop offset="0.515" stop-color="#484848" stop-opacity="0"/>
<stop offset="1" stop-color="#484848"/>
</linearGradient>
</defs>
</svg>
