<svg width="16" height="16" viewBox="0 0 16 16" fill="none" xmlns="http://www.w3.org/2000/svg">
<path d="M14.5 2.5C13 3 12 4 11 5" stroke="url(#paint0_linear_495_8451)" stroke-width="3" stroke-linecap="round"/>
<path d="M14.5 2.5C13 3 12 4 11 5" stroke="#DADADA" stroke-linecap="round"/>
<path d="M10.8536 4.14645C10.6407 3.93358 10.4767 3.74572 10.3239 3.57082C10.3074 3.5519 10.291 3.53313 10.2747 3.5145C10.1135 3.33027 9.9457 3.14125 9.74985 2.98457C9.31475 2.63649 8.81071 2.5 8 2.5C7.07075 2.5 6.33041 2.96788 5.73032 3.5013C5.42878 3.76933 5.14872 4.06657 4.88924 4.34964C4.83087 4.41331 4.77385 4.47592 4.71785 4.5374C4.51925 4.75545 4.33352 4.95937 4.14645 5.14645C3.94408 5.34881 3.65199 5.53804 3.26625 5.77913C3.24719 5.79104 3.22795 5.80305 3.20854 5.81517C2.85293 6.03718 2.44001 6.29497 2.05491 6.61589C1.21354 7.31703 0.5 8.32448 0.5 10C0.5 11.037 0.628848 11.7366 0.852927 12.2595C1.07844 12.7857 1.38538 13.0925 1.63686 13.344L1.64645 13.3536L1.65603 13.3631C1.90747 13.6146 2.21434 13.9216 2.74054 14.1471C3.26339 14.3712 3.96303 14.5 5 14.5C6.67552 14.5 7.68297 13.7865 8.38411 12.9451C8.70503 12.56 8.96282 12.1471 9.18483 11.7915C9.19695 11.772 9.20896 11.7528 9.22087 11.7337C9.46196 11.348 9.65119 11.0559 9.85355 10.8536C10.0758 10.6313 10.3321 10.4307 10.615 10.2242C10.7027 10.1603 10.7953 10.0941 10.8902 10.0263C11.0896 9.88384 11.2992 9.73407 11.4945 9.58218C12.0878 9.12071 12.6785 8.54572 12.9743 7.65811C13.2307 6.88897 12.8149 6.19685 12.3841 5.67991C12.0879 5.32443 11.6961 4.95288 11.3318 4.60743C11.1623 4.4467 10.9987 4.29163 10.8536 4.14645Z" fill="url(#paint1_linear_495_8451)"/>
<path d="M10.8536 4.14645C10.6407 3.93358 10.4767 3.74572 10.3239 3.57082C10.3074 3.5519 10.291 3.53313 10.2747 3.5145C10.1135 3.33027 9.9457 3.14125 9.74985 2.98457C9.31475 2.63649 8.81071 2.5 8 2.5C7.07075 2.5 6.33041 2.96788 5.73032 3.5013C5.42878 3.76933 5.14872 4.06657 4.88924 4.34964C4.83087 4.41331 4.77385 4.47592 4.71785 4.5374C4.51925 4.75545 4.33352 4.95937 4.14645 5.14645C3.94408 5.34881 3.65199 5.53804 3.26625 5.77913C3.24719 5.79104 3.22795 5.80305 3.20854 5.81517C2.85293 6.03718 2.44001 6.29497 2.05491 6.61589C1.21354 7.31703 0.5 8.32448 0.5 10C0.5 11.037 0.628848 11.7366 0.852927 12.2595C1.07844 12.7857 1.38538 13.0925 1.63686 13.344L1.64645 13.3536L1.65603 13.3631C1.90747 13.6146 2.21434 13.9216 2.74054 14.1471C3.26339 14.3712 3.96303 14.5 5 14.5C6.67552 14.5 7.68297 13.7865 8.38411 12.9451C8.70503 12.56 8.96282 12.1471 9.18483 11.7915C9.19695 11.772 9.20896 11.7528 9.22087 11.7337C9.46196 11.348 9.65119 11.0559 9.85355 10.8536C10.0758 10.6313 10.3321 10.4307 10.615 10.2242C10.7027 10.1603 10.7953 10.0941 10.8902 10.0263C11.0896 9.88384 11.2992 9.73407 11.4945 9.58218C12.0878 9.12071 12.6785 8.54572 12.9743 7.65811C13.2307 6.88897 12.8149 6.19685 12.3841 5.67991C12.0879 5.32443 11.6961 4.95288 11.3318 4.60743C11.1623 4.4467 10.9987 4.29163 10.8536 4.14645Z" stroke="url(#paint2_linear_495_8451)"/>
<path d="M10.8536 4.14645C10.6407 3.93358 10.4767 3.74572 10.3239 3.57082C10.3074 3.5519 10.291 3.53313 10.2747 3.5145C10.1135 3.33027 9.9457 3.14125 9.74985 2.98457C9.31475 2.63649 8.81071 2.5 8 2.5C7.07075 2.5 6.33041 2.96788 5.73032 3.5013C5.42878 3.76933 5.14872 4.06657 4.88924 4.34964C4.83087 4.41331 4.77385 4.47592 4.71785 4.5374C4.51925 4.75545 4.33352 4.95937 4.14645 5.14645C3.94408 5.34881 3.65199 5.53804 3.26625 5.77913C3.24719 5.79104 3.22795 5.80305 3.20854 5.81517C2.85293 6.03718 2.44001 6.29497 2.05491 6.61589C1.21354 7.31703 0.5 8.32448 0.5 10C0.5 11.037 0.628848 11.7366 0.852927 12.2595C1.07844 12.7857 1.38538 13.0925 1.63686 13.344L1.64645 13.3536L1.65603 13.3631C1.90747 13.6146 2.21434 13.9216 2.74054 14.1471C3.26339 14.3712 3.96303 14.5 5 14.5C6.67552 14.5 7.68297 13.7865 8.38411 12.9451C8.70503 12.56 8.96282 12.1471 9.18483 11.7915C9.19695 11.772 9.20896 11.7528 9.22087 11.7337C9.46196 11.348 9.65119 11.0559 9.85355 10.8536C10.0758 10.6313 10.3321 10.4307 10.615 10.2242C10.7027 10.1603 10.7953 10.0941 10.8902 10.0263C11.0896 9.88384 11.2992 9.73407 11.4945 9.58218C12.0878 9.12071 12.6785 8.54572 12.9743 7.65811C13.2307 6.88897 12.8149 6.19685 12.3841 5.67991C12.0879 5.32443 11.6961 4.95288 11.3318 4.60743C11.1623 4.4467 10.9987 4.29163 10.8536 4.14645Z" stroke="url(#paint3_radial_495_8451)"/>
<path opacity="0.5" d="M4.5 5C5.5 5.5 6.78755 6.83544 7.5 7.5M10 10.5C9.5 9.5 8.3393 8.28288 7.5 7.5M7.5 7.5C9 6 10 5 11 4.5" stroke="url(#paint4_linear_495_8451)" stroke-linecap="round"/>
<path d="M8 3.5C8.68929 3.5 8.93525 3.61351 9.12515 3.76543C9.2418 3.85875 9.35522 3.98223 9.52215 4.173C9.53809 4.19122 9.5544 4.20991 9.57111 4.22905C9.72329 4.40341 9.90847 4.61557 10.1464 4.85355C10.336 5.04314 10.5237 5.22075 10.7048 5.39203C11.042 5.71115 11.3561 6.00832 11.6159 6.32009C12.0184 6.80315 12.1026 7.11103 12.0257 7.34189C11.8215 7.95428 11.4122 8.37929 10.8805 8.79282C10.7007 8.93271 10.5208 9.06115 10.3318 9.1961C10.2327 9.26689 10.131 9.33946 10.0256 9.41642C9.7304 9.63181 9.42422 9.86867 9.14645 10.1464C8.84881 10.4441 8.60054 10.8395 8.37288 11.2038C8.364 11.218 8.35512 11.2322 8.34626 11.2463C8.1169 11.6135 7.89179 11.9738 7.61589 12.3049C7.06703 12.9635 6.32448 13.5 5 13.5C4.03697 13.5 3.48661 13.3788 3.13446 13.2279C2.79237 13.0813 2.60032 12.8932 2.35355 12.6464C2.10678 12.3997 1.91868 12.2076 1.77207 11.8655C1.62115 11.5134 1.5 10.963 1.5 10C1.5 8.67552 2.03646 7.93297 2.69509 7.38411C3.02617 7.10821 3.3865 6.8831 3.75364 6.65374C3.76784 6.64488 3.78204 6.63601 3.79625 6.62712C4.16051 6.39946 4.55592 6.15119 4.85355 5.85355C5.05883 5.64828 5.26548 5.42133 5.46648 5.20059C5.52023 5.14156 5.57358 5.08297 5.62639 5.02536C5.88253 4.74593 6.13372 4.48067 6.39468 4.2487C6.91959 3.78212 7.42925 3.5 8 3.5Z" stroke="white" stroke-opacity="0.66"/>
<defs>
<linearGradient id="paint0_linear_495_8451" x1="12" y1="2" x2="14" y2="5" gradientUnits="userSpaceOnUse">
<stop stop-color="#DADADA"/>
<stop offset="1" stop-color="#747474"/>
</linearGradient>
<linearGradient id="paint1_linear_495_8451" x1="3.5" y1="5.5" x2="9" y2="12" gradientUnits="userSpaceOnUse">
<stop stop-color="white"/>
<stop offset="1" stop-color="#F0F0F0"/>
</linearGradient>
<linearGradient id="paint2_linear_495_8451" x1="3" y1="5" x2="10" y2="12" gradientUnits="userSpaceOnUse">
<stop stop-color="#DEDEDE"/>
<stop offset="1" stop-color="#787878"/>
</linearGradient>
<radialGradient id="paint3_radial_495_8451" cx="0" cy="0" r="1" gradientUnits="userSpaceOnUse" gradientTransform="translate(1 14) rotate(-39.8056) scale(7.81025 8.16526)">
<stop offset="0.202303" stop-color="#F68382"/>
<stop offset="0.455413" stop-color="#F68382" stop-opacity="0"/>
</radialGradient>
<linearGradient id="paint4_linear_495_8451" x1="4" y1="5" x2="9.18422" y2="11.6372" gradientUnits="userSpaceOnUse">
<stop stop-color="#DEDEDE"/>
<stop offset="1" stop-color="#787878"/>
</linearGradient>
</defs>
</svg>
