<svg width="16" height="16" viewBox="0 0 16 16" fill="none" xmlns="http://www.w3.org/2000/svg">
<mask id="path-1-outside-1_495_8404" maskUnits="userSpaceOnUse" x="0.00964355" y="1" width="16" height="14" fill="black">
<rect fill="white" x="0.00964355" y="1" width="16" height="14"/>
<path fill-rule="evenodd" clip-rule="evenodd" d="M7.00003 11.1097C7.05059 11.8213 6.35916 12.7663 5.25613 13.4032C3.94144 14.1622 2.53988 14.1959 2.12567 13.4785C1.71145 12.761 2.44144 11.5641 3.75613 10.8051C4.55162 10.3458 5.3789 10.1521 6.00003 10.2296V2H15V10.0831C15.0729 10.7981 14.3763 11.762 13.2559 12.4089C11.9395 13.1689 10.5366 13.2034 10.1224 12.4859C9.70822 11.7685 10.4395 10.5708 11.7559 9.8108C12.5514 9.35149 13.3786 9.15717 14 9.23367V3H7.00003V11.1097Z"/>
</mask>
<path fill-rule="evenodd" clip-rule="evenodd" d="M7.00003 11.1097C7.05059 11.8213 6.35916 12.7663 5.25613 13.4032C3.94144 14.1622 2.53988 14.1959 2.12567 13.4785C1.71145 12.761 2.44144 11.5641 3.75613 10.8051C4.55162 10.3458 5.3789 10.1521 6.00003 10.2296V2H15V10.0831C15.0729 10.7981 14.3763 11.762 13.2559 12.4089C11.9395 13.1689 10.5366 13.2034 10.1224 12.4859C9.70822 11.7685 10.4395 10.5708 11.7559 9.8108C12.5514 9.35149 13.3786 9.15717 14 9.23367V3H7.00003V11.1097Z" fill="url(#paint0_linear_495_8404)"/>
<path d="M5.25613 13.4032L4.75613 12.5371L5.25613 13.4032ZM7.00003 11.1097H6.00003V11.1452L6.00254 11.1806L7.00003 11.1097ZM2.12567 13.4785L2.99169 12.9785L2.12567 13.4785ZM3.75613 10.8051L4.25613 11.6711H4.25613L3.75613 10.8051ZM6.00003 10.2296L5.87614 11.2219L7.00003 11.3622V10.2296H6.00003ZM6.00003 2V1H5.00003V2H6.00003ZM15 2H16V1H15V2ZM15 10.0831H14V10.1339L14.0052 10.1844L15 10.0831ZM13.2559 12.4089L12.7559 11.5429L13.2559 12.4089ZM10.1224 12.4859L10.9885 11.9859L10.1224 12.4859ZM11.7559 9.8108L12.2559 10.6768L11.7559 9.8108ZM14 9.23367L13.8778 10.2262L15 10.3643V9.23367H14ZM14 3H15V2H14V3ZM7.00003 3V2H6.00003V3H7.00003ZM5.75613 14.2692C6.40912 13.8922 6.96475 13.411 7.35991 12.8855C7.73983 12.3803 8.04661 11.7297 7.99751 11.0389L6.00254 11.1806C6.00401 11.2014 5.99036 11.379 5.76144 11.6834C5.54777 11.9676 5.20617 12.2773 4.75613 12.5371L5.75613 14.2692ZM1.25964 13.9785C1.73537 14.8025 2.65626 15.0116 3.37727 14.9942C4.14123 14.9758 4.98237 14.7159 5.75613 14.2692L4.75613 12.5371C4.2152 12.8494 3.69821 12.9859 3.32916 12.9948C2.91717 13.0047 2.93017 12.8719 2.99169 12.9785L1.25964 13.9785ZM3.25613 9.93905C2.48238 10.3858 1.83671 10.9843 1.43881 11.6367C1.06328 12.2524 0.783907 13.1545 1.25964 13.9785L2.99169 12.9785C3.05321 13.085 2.93172 13.0299 3.14631 12.6781C3.33852 12.3629 3.7152 11.9834 4.25613 11.6711L3.25613 9.93905ZM6.12391 9.23733C5.22719 9.12538 4.18083 9.40518 3.25613 9.93906L4.25613 11.6711C4.9224 11.2864 5.53061 11.1788 5.87614 11.2219L6.12391 9.23733ZM5.00003 2V10.2296H7.00003V2H5.00003ZM15 1H6.00003V3H15V1ZM16 10.0831V2H14V10.0831H16ZM13.7559 13.2749C14.4186 12.8923 14.9817 12.4023 15.3785 11.8674C15.7591 11.3544 16.0667 10.6871 15.9949 9.98173L14.0052 10.1844C14.0049 10.1819 14.0091 10.2237 13.9752 10.3176C13.9417 10.4104 13.8783 10.5328 13.7723 10.6757C13.559 10.9632 13.2135 11.2786 12.7559 11.5429L13.7559 13.2749ZM9.25641 12.9859C9.73246 13.8105 10.6544 14.0189 11.3754 14.0011C12.1398 13.9823 12.9815 13.722 13.7559 13.2749L12.7559 11.5429C12.214 11.8557 11.696 11.9926 11.3263 12.0017C10.9133 12.0119 10.9266 11.8788 10.9885 11.9859L9.25641 12.9859ZM11.2559 8.94477C10.4815 9.39188 9.83517 9.99065 9.43673 10.6432C9.06083 11.2588 8.78035 12.1614 9.25641 12.9859L10.9885 11.9859C11.0503 12.093 10.9284 12.0381 11.1437 11.6855C11.3364 11.3698 11.714 10.9897 12.2559 10.6768L11.2559 8.94477ZM14.1222 8.24117C13.226 8.13082 12.1804 8.41101 11.2559 8.94477L12.2559 10.6768C12.9225 10.292 13.5312 10.1835 13.8778 10.2262L14.1222 8.24117ZM13 3V9.23367H15V3H13ZM7.00003 4H14V2H7.00003V4ZM8.00003 11.1097V3H6.00003V11.1097H8.00003Z" fill="url(#paint1_linear_495_8404)" mask="url(#path-1-outside-1_495_8404)"/>
<defs>
<linearGradient id="paint0_linear_495_8404" x1="2.50981" y1="2" x2="14" y2="13" gradientUnits="userSpaceOnUse">
<stop offset="0.224386" stop-color="#D1D1D1"/>
<stop offset="1" stop-color="#969696"/>
</linearGradient>
<linearGradient id="paint1_linear_495_8404" x1="14" y1="14" x2="5.00003" y2="2" gradientUnits="userSpaceOnUse">
<stop stop-color="#262626"/>
<stop offset="1" stop-color="#9C9C9C"/>
</linearGradient>
</defs>
</svg>
