<svg width="16" height="16" viewBox="0 0 16 16" fill="none" xmlns="http://www.w3.org/2000/svg">
<mask id="path-1-outside-1_155_3022" maskUnits="userSpaceOnUse" x="-0.799988" y="3" width="17" height="8" fill="black">
<rect fill="white" x="-0.799988" y="3" width="17" height="8"/>
<path d="M3.5287 10L1.7687 5.304C1.8007 5.632 1.8967 6.6 1.8967 7.496V10H1.0727V4.48H2.2807L4.0407 9.176C4.0087 8.848 3.9127 7.992 3.9127 6.992V4.48H4.7367V10H3.5287ZM7.13357 5.184V6.848H9.13357V7.544H7.13357V9.296H9.57358V10H6.20557V4.48H9.52557L9.42158 5.184H7.13357ZM14.8825 4.48L14.1224 10H13.0344L12.4904 5.912L11.9224 10H10.8184L10.1144 4.48H11.0104L11.4424 9.104L12.0344 5.12H12.9864L13.5384 9.104L14.0504 4.48H14.8825Z"/>
</mask>
<path d="M3.5287 10L1.7687 5.304C1.8007 5.632 1.8967 6.6 1.8967 7.496V10H1.0727V4.48H2.2807L4.0407 9.176C4.0087 8.848 3.9127 7.992 3.9127 6.992V4.48H4.7367V10H3.5287ZM7.13357 5.184V6.848H9.13357V7.544H7.13357V9.296H9.57358V10H6.20557V4.48H9.52557L9.42158 5.184H7.13357ZM14.8825 4.48L14.1224 10H13.0344L12.4904 5.912L11.9224 10H10.8184L10.1144 4.48H11.0104L11.4424 9.104L12.0344 5.12H12.9864L13.5384 9.104L14.0504 4.48H14.8825Z" fill="white"/>
<path d="M3.5287 10L2.59231 10.3509C2.73862 10.7413 3.11179 11 3.5287 11V10ZM1.7687 5.304L2.70509 4.95305C2.52895 4.48306 2.03169 4.21645 1.54275 4.32986C1.05381 4.44327 0.724689 4.90155 0.773425 5.4011L1.7687 5.304ZM1.8967 10V11C2.44898 11 2.8967 10.5523 2.8967 10H1.8967ZM1.0727 10H0.0726997C0.0726997 10.5523 0.520415 11 1.0727 11V10ZM1.0727 4.48V3.48C0.520415 3.48 0.0726997 3.92771 0.0726997 4.48H1.0727ZM2.2807 4.48L3.21709 4.12905C3.07078 3.73866 2.69761 3.48 2.2807 3.48V4.48ZM4.0407 9.176L3.10431 9.52695C3.28045 9.99694 3.77771 10.2635 4.26665 10.1501C4.75559 10.0367 5.08471 9.57845 5.03597 9.0789L4.0407 9.176ZM3.9127 4.48V3.48C3.36042 3.48 2.9127 3.92771 2.9127 4.48H3.9127ZM4.7367 4.48H5.7367C5.7367 3.92771 5.28898 3.48 4.7367 3.48V4.48ZM4.7367 10V11C5.28898 11 5.7367 10.5523 5.7367 10H4.7367ZM4.46509 9.64905L2.70509 4.95305L0.832305 5.65495L2.59231 10.3509L4.46509 9.64905ZM0.773425 5.4011C0.805799 5.73294 0.8967 6.65525 0.8967 7.496H2.8967C2.8967 6.54475 2.7956 5.53106 2.76397 5.2069L0.773425 5.4011ZM0.8967 7.496V10H2.8967V7.496H0.8967ZM1.8967 9H1.0727V11H1.8967V9ZM2.0727 10V4.48H0.0726997V10H2.0727ZM1.0727 5.48H2.2807V3.48H1.0727V5.48ZM1.34431 4.83095L3.10431 9.52695L4.97709 8.82505L3.21709 4.12905L1.34431 4.83095ZM5.03597 9.0789C5.00307 8.74158 4.9127 7.93483 4.9127 6.992H2.9127C2.9127 8.04917 3.01433 8.95442 3.04543 9.2731L5.03597 9.0789ZM4.9127 6.992V4.48H2.9127V6.992H4.9127ZM3.9127 5.48H4.7367V3.48H3.9127V5.48ZM3.7367 4.48V10H5.7367V4.48H3.7367ZM4.7367 9H3.5287V11H4.7367V9ZM7.13357 5.184V4.184C6.58129 4.184 6.13357 4.63171 6.13357 5.184H7.13357ZM7.13357 6.848H6.13357C6.13357 7.40028 6.58129 7.848 7.13357 7.848V6.848ZM9.13358 6.848H10.1336C10.1336 6.29572 9.68586 5.848 9.13358 5.848V6.848ZM9.13358 7.544V8.544C9.68586 8.544 10.1336 8.09628 10.1336 7.544H9.13358ZM7.13357 7.544V6.544C6.58129 6.544 6.13357 6.99172 6.13357 7.544H7.13357ZM7.13357 9.296H6.13357C6.13357 9.84828 6.58129 10.296 7.13357 10.296V9.296ZM9.57358 9.296H10.5736C10.5736 8.74372 10.1259 8.296 9.57358 8.296V9.296ZM9.57358 10V11C10.1259 11 10.5736 10.5523 10.5736 10H9.57358ZM6.20557 10H5.20557C5.20557 10.5523 5.65329 11 6.20557 11V10ZM6.20557 4.48V3.48C5.65329 3.48 5.20557 3.92771 5.20557 4.48H6.20557ZM9.52557 4.48L10.5148 4.62614C10.5573 4.33854 10.4725 4.04668 10.2826 3.8266C10.0926 3.60652 9.8163 3.48 9.52557 3.48V4.48ZM9.42158 5.184V6.184C9.91742 6.184 10.3384 5.82066 10.4108 5.33014L9.42158 5.184ZM6.13357 5.184V6.848H8.13357V5.184H6.13357ZM7.13357 7.848H9.13358V5.848H7.13357V7.848ZM8.13357 6.848V7.544H10.1336V6.848H8.13357ZM9.13358 6.544H7.13357V8.544H9.13358V6.544ZM6.13357 7.544V9.296H8.13357V7.544H6.13357ZM7.13357 10.296H9.57358V8.296H7.13357V10.296ZM8.57358 9.296V10H10.5736V9.296H8.57358ZM9.57358 9H6.20557V11H9.57358V9ZM7.20557 10V4.48H5.20557V10H7.20557ZM6.20557 5.48H9.52557V3.48H6.20557V5.48ZM8.53631 4.33386L8.43231 5.03786L10.4108 5.33014L10.5148 4.62614L8.53631 4.33386ZM9.42158 4.184H7.13357V6.184H9.42158V4.184ZM14.8825 4.48L15.8731 4.61639C15.9125 4.33009 15.8261 4.04073 15.6362 3.82288C15.4463 3.60503 15.1715 3.48 14.8825 3.48V4.48ZM14.1224 10V11C14.622 11 15.045 10.6313 15.1131 10.1364L14.1224 10ZM13.0344 10L12.0432 10.1319C12.1093 10.6288 12.5331 11 13.0344 11V10ZM12.4904 5.912L13.4817 5.78009C13.4157 5.28426 12.9935 4.91345 12.4933 4.912C11.9931 4.91056 11.5688 5.27893 11.5 5.77438L12.4904 5.912ZM11.9225 10V11C12.4216 11 12.8442 10.632 12.9129 10.1376L11.9225 10ZM10.8184 10L9.82648 10.1265C9.89017 10.6258 10.3151 11 10.8184 11V10ZM10.1144 4.48V3.48C9.82718 3.48 9.55379 3.60354 9.36395 3.81913C9.1741 4.03473 9.08614 4.32155 9.12248 4.60651L10.1144 4.48ZM11.0104 4.48L12.0061 4.38698C11.9581 3.87297 11.5267 3.48 11.0104 3.48V4.48ZM11.4424 9.104L10.4468 9.19702C10.4938 9.70068 10.9096 10.0899 11.4153 10.1036C11.9209 10.1174 12.3572 9.75134 12.4316 9.25098L11.4424 9.104ZM12.0344 5.12V4.12C11.5389 4.12 11.1181 4.48288 11.0453 4.97302L12.0344 5.12ZM12.9865 5.12L13.977 4.98276C13.9085 4.48823 13.4857 4.12 12.9865 4.12V5.12ZM13.5385 9.104L12.5479 9.24124C12.6171 9.74094 13.0477 10.1108 13.5521 10.1039C14.0566 10.097 14.4769 9.71546 14.5324 9.21405L13.5385 9.104ZM14.0504 4.48V3.48C13.5408 3.48 13.1126 3.86335 13.0565 4.36995L14.0504 4.48ZM13.8918 4.34361L13.1318 9.86361L15.1131 10.1364L15.8731 4.61639L13.8918 4.34361ZM14.1224 9H13.0344V11H14.1224V9ZM14.0257 9.86809L13.4817 5.78009L11.4992 6.04391L12.0432 10.1319L14.0257 9.86809ZM11.5 5.77438L10.932 9.86238L12.9129 10.1376L13.4809 6.04962L11.5 5.77438ZM11.9225 9H10.8184V11H11.9225V9ZM11.8104 9.87349L11.1064 4.35349L9.12248 4.60651L9.82648 10.1265L11.8104 9.87349ZM10.1144 5.48H11.0104V3.48H10.1144V5.48ZM10.0148 4.57302L10.4468 9.19702L12.4381 9.01098L12.0061 4.38698L10.0148 4.57302ZM12.4316 9.25098L13.0236 5.26698L11.0453 4.97302L10.4533 8.95702L12.4316 9.25098ZM12.0344 6.12H12.9865V4.12H12.0344V6.12ZM11.9959 5.25724L12.5479 9.24124L14.529 8.96676L13.977 4.98276L11.9959 5.25724ZM14.5324 9.21405L15.0444 4.59005L13.0565 4.36995L12.5445 8.99395L14.5324 9.21405ZM14.0504 5.48H14.8825V3.48H14.0504V5.48Z" fill="#FF900C" mask="url(#path-1-outside-1_155_3022)"/>
</svg>
