<svg width="16" height="17" viewBox="0 0 16 17" fill="none" xmlns="http://www.w3.org/2000/svg">
<path d="M8.93934 2.85355L1.85355 9.93934C1.26777 10.5251 1.26777 11.4749 1.85355 12.0607L4.93934 15.1464C5.52513 15.7322 6.47487 15.7322 7.06066 15.1464L14.1464 8.06066C14.7322 7.47487 14.7322 6.52513 14.1464 5.93934L11.0607 2.85355C10.4749 2.26777 9.52513 2.26777 8.93934 2.85355Z" fill="url(#paint0_linear_475_13882)" stroke="url(#paint1_linear_475_13882)" stroke-linejoin="round"/>
<path d="M8.8651 1.92779L2.78637 8.00652C2.24145 8.55144 2.1981 9.42061 2.68609 10.017L5.9133 13.9614C6.47526 14.6482 7.50739 14.6997 8.1349 14.0722L14.2136 7.99348C14.7585 7.44856 14.8019 6.57939 14.3139 5.98296L11.0867 2.03859C10.5247 1.35176 9.49261 1.30028 8.8651 1.92779Z" fill="url(#paint2_linear_475_13882)"/>
<path d="M8.8651 1.92779L2.78637 8.00652C2.24145 8.55144 2.1981 9.42061 2.68609 10.017L5.9133 13.9614C6.47526 14.6482 7.50739 14.6997 8.1349 14.0722L14.2136 7.99348C14.7585 7.44856 14.8019 6.57939 14.3139 5.98296L11.0867 2.03859C10.5247 1.35176 9.49261 1.30028 8.8651 1.92779Z" stroke="url(#paint3_linear_475_13882)" stroke-linejoin="round"/>
<path d="M8.8651 1.92779L2.78637 8.00652C2.24145 8.55144 2.1981 9.42061 2.68609 10.017L5.9133 13.9614C6.47526 14.6482 7.50739 14.6997 8.1349 14.0722L14.2136 7.99348C14.7585 7.44856 14.8019 6.57939 14.3139 5.98296L11.0867 2.03859C10.5247 1.35176 9.49261 1.30028 8.8651 1.92779Z" stroke="url(#paint4_linear_475_13882)" stroke-opacity="0.2" stroke-linejoin="round"/>
<path d="M3.49348 8.71363L9.57221 2.6349C9.78138 2.42573 10.1254 2.44289 10.3127 2.67183L13.5399 6.6162C13.7026 6.81501 13.6882 7.10473 13.5065 7.28637L7.42779 13.3651C7.21862 13.5743 6.87458 13.5571 6.68726 13.3282L3.46005 9.3838C3.29739 9.18499 3.31184 8.89527 3.49348 8.71363Z" stroke="url(#paint5_radial_475_13882)" stroke-opacity="0.66" stroke-linejoin="round"/>
<path d="M10.4876 5.01238L6.26238 9.23762C5.86797 9.63203 5.21134 9.56701 4.90194 9.10291C4.66823 8.75234 4.71445 8.28555 5.01238 7.98762L9.23762 3.76238C9.63203 3.36797 10.2887 3.43299 10.5981 3.89709C10.8318 4.24766 10.7855 4.71445 10.4876 5.01238Z" fill="#B5B5B5"/>
<path d="M7 10.5L9.5 8" stroke="#B5B5B5" stroke-linecap="round"/>
<path d="M10.6847 5.8153L10.6133 5.88673C10.2614 6.23862 10.2218 6.79572 10.5204 7.19384L10.8082 7.57759C11.1733 8.06443 11.885 8.11501 12.3153 7.6847L12.3867 7.61327C12.7386 7.26138 12.7782 6.70428 12.4796 6.30616L12.1918 5.92241C11.8267 5.43557 11.115 5.38499 10.6847 5.8153Z" fill="#649BC9"/>
<mask id="path-7-inside-1_475_13882" fill="white">
<path fill-rule="evenodd" clip-rule="evenodd" d="M6.5 16C8.433 16 10 14.433 10 12.5C10 10.567 8.433 9 6.5 9C4.567 9 3 10.567 3 12.5C3 14.433 4.567 16 6.5 16ZM6.5 13C6.77614 13 7 12.7761 7 12.5C7 12.2239 6.77614 12 6.5 12C6.22386 12 6 12.2239 6 12.5C6 12.7761 6.22386 13 6.5 13Z"/>
</mask>
<path fill-rule="evenodd" clip-rule="evenodd" d="M6.5 16C8.433 16 10 14.433 10 12.5C10 10.567 8.433 9 6.5 9C4.567 9 3 10.567 3 12.5C3 14.433 4.567 16 6.5 16ZM6.5 13C6.77614 13 7 12.7761 7 12.5C7 12.2239 6.77614 12 6.5 12C6.22386 12 6 12.2239 6 12.5C6 12.7761 6.22386 13 6.5 13Z" fill="url(#paint6_linear_475_13882)"/>
<path d="M9 12.5C9 13.8807 7.88071 15 6.5 15V17C8.98528 17 11 14.9853 11 12.5H9ZM6.5 10C7.88071 10 9 11.1193 9 12.5H11C11 10.0147 8.98528 8 6.5 8V10ZM4 12.5C4 11.1193 5.11929 10 6.5 10V8C4.01472 8 2 10.0147 2 12.5H4ZM6.5 15C5.11929 15 4 13.8807 4 12.5H2C2 14.9853 4.01472 17 6.5 17V15ZM6 12.5C6 12.2239 6.22386 12 6.5 12V14C7.32843 14 8 13.3284 8 12.5H6ZM6.5 13C6.22386 13 6 12.7761 6 12.5H8C8 11.6716 7.32843 11 6.5 11V13ZM7 12.5C7 12.7761 6.77614 13 6.5 13V11C5.67157 11 5 11.6716 5 12.5H7ZM6.5 12C6.77614 12 7 12.2239 7 12.5H5C5 13.3284 5.67157 14 6.5 14V12Z" fill="url(#paint7_linear_475_13882)" mask="url(#path-7-inside-1_475_13882)"/>
<mask id="path-9-inside-2_475_13882" fill="white">
<path fill-rule="evenodd" clip-rule="evenodd" d="M12.5 16C14.433 16 16 14.433 16 12.5C16 10.567 14.433 9 12.5 9C10.567 9 9 10.567 9 12.5C9 14.433 10.567 16 12.5 16ZM12.5 13C12.7761 13 13 12.7761 13 12.5C13 12.2239 12.7761 12 12.5 12C12.2239 12 12 12.2239 12 12.5C12 12.7761 12.2239 13 12.5 13Z"/>
</mask>
<path fill-rule="evenodd" clip-rule="evenodd" d="M12.5 16C14.433 16 16 14.433 16 12.5C16 10.567 14.433 9 12.5 9C10.567 9 9 10.567 9 12.5C9 14.433 10.567 16 12.5 16ZM12.5 13C12.7761 13 13 12.7761 13 12.5C13 12.2239 12.7761 12 12.5 12C12.2239 12 12 12.2239 12 12.5C12 12.7761 12.2239 13 12.5 13Z" fill="url(#paint8_linear_475_13882)"/>
<path d="M15 12.5C15 13.8807 13.8807 15 12.5 15V17C14.9853 17 17 14.9853 17 12.5H15ZM12.5 10C13.8807 10 15 11.1193 15 12.5H17C17 10.0147 14.9853 8 12.5 8V10ZM10 12.5C10 11.1193 11.1193 10 12.5 10V8C10.0147 8 8 10.0147 8 12.5H10ZM12.5 15C11.1193 15 10 13.8807 10 12.5H8C8 14.9853 10.0147 17 12.5 17V15ZM12 12.5C12 12.2239 12.2239 12 12.5 12V14C13.3284 14 14 13.3284 14 12.5H12ZM12.5 13C12.2239 13 12 12.7761 12 12.5H14C14 11.6716 13.3284 11 12.5 11V13ZM13 12.5C13 12.7761 12.7761 13 12.5 13V11C11.6716 11 11 11.6716 11 12.5H13ZM12.5 12C12.7761 12 13 12.2239 13 12.5H11C11 13.3284 11.6716 14 12.5 14V12Z" fill="url(#paint9_linear_475_13882)" mask="url(#path-9-inside-2_475_13882)"/>
<rect x="6.5" y="11.5" width="6" height="2" fill="url(#paint10_linear_475_13882)"/>
<rect x="6.5" y="11.5" width="6" height="2" stroke="url(#paint11_linear_475_13882)" stroke-linejoin="round"/>
<rect x="6.5" y="11.5" width="6" height="2" stroke="url(#paint12_linear_475_13882)" stroke-linejoin="round"/>
<defs>
<linearGradient id="paint0_linear_475_13882" x1="3" y1="9.5" x2="7.5" y2="14" gradientUnits="userSpaceOnUse">
<stop stop-color="#D2D2D2"/>
<stop offset="1" stop-color="#B1B1B1"/>
</linearGradient>
<linearGradient id="paint1_linear_475_13882" x1="1.5" y1="9" x2="14.5" y2="9" gradientUnits="userSpaceOnUse">
<stop stop-color="#ABABAB"/>
<stop offset="1" stop-color="#8D8D8D"/>
</linearGradient>
<linearGradient id="paint2_linear_475_13882" x1="3.5" y1="8" x2="8.5" y2="13.5" gradientUnits="userSpaceOnUse">
<stop stop-color="#E4E4E4"/>
<stop offset="1" stop-color="#D3D3D3"/>
</linearGradient>
<linearGradient id="paint3_linear_475_13882" x1="10" y1="2" x2="6" y2="14" gradientUnits="userSpaceOnUse">
<stop offset="0.729256" stop-color="#ABABAB"/>
<stop offset="1" stop-color="#8D8D8D" stop-opacity="0"/>
</linearGradient>
<linearGradient id="paint4_linear_475_13882" x1="3" y1="8" x2="15" y2="8" gradientUnits="userSpaceOnUse">
<stop offset="0.335076" stop-color="#8D8D8D" stop-opacity="0"/>
<stop offset="0.880019" stop-color="#8D8D8D"/>
</linearGradient>
<radialGradient id="paint5_radial_475_13882" cx="0" cy="0" r="1" gradientUnits="userSpaceOnUse" gradientTransform="translate(11 11) rotate(-170.538) scale(6.08276 5.61486)">
<stop offset="0.777355" stop-color="white" stop-opacity="0"/>
<stop offset="1" stop-color="white"/>
</radialGradient>
<linearGradient id="paint6_linear_475_13882" x1="5" y1="11" x2="8.5" y2="14.5" gradientUnits="userSpaceOnUse">
<stop stop-color="#D9D9D9"/>
<stop offset="1" stop-color="#737373"/>
</linearGradient>
<linearGradient id="paint7_linear_475_13882" x1="10" y1="16" x2="3" y2="9" gradientUnits="userSpaceOnUse">
<stop stop-color="#404040"/>
<stop offset="1" stop-color="#8D8D8D"/>
</linearGradient>
<linearGradient id="paint8_linear_475_13882" x1="11" y1="11" x2="14" y2="14" gradientUnits="userSpaceOnUse">
<stop stop-color="#D9D9D9"/>
<stop offset="1" stop-color="#737373"/>
</linearGradient>
<linearGradient id="paint9_linear_475_13882" x1="16" y1="16" x2="9" y2="9" gradientUnits="userSpaceOnUse">
<stop stop-color="#404040"/>
<stop offset="1" stop-color="#8D8D8D"/>
</linearGradient>
<linearGradient id="paint10_linear_475_13882" x1="7.71429" y1="12.1429" x2="7.98901" y2="13.5165" gradientUnits="userSpaceOnUse">
<stop stop-color="#D9D9D9"/>
<stop offset="1" stop-color="#737373"/>
</linearGradient>
<linearGradient id="paint11_linear_475_13882" x1="9.5" y1="14" x2="9.5" y2="11" gradientUnits="userSpaceOnUse">
<stop offset="0.33" stop-color="#515151"/>
<stop offset="0.66" stop-color="#8D8D8D"/>
</linearGradient>
<linearGradient id="paint12_linear_475_13882" x1="7" y1="12.5" x2="12" y2="12.5" gradientUnits="userSpaceOnUse">
<stop stop-color="#484848"/>
<stop offset="0.515" stop-color="#484848" stop-opacity="0"/>
<stop offset="1" stop-color="#484848"/>
</linearGradient>
</defs>
</svg>
