<svg width="16" height="17" viewBox="0 0 16 17" fill="none" xmlns="http://www.w3.org/2000/svg">
<path d="M8.93934 2.85355L1.85355 9.93934C1.26777 10.5251 1.26777 11.4749 1.85355 12.0607L4.93934 15.1464C5.52513 15.7322 6.47487 15.7322 7.06066 15.1464L14.1464 8.06066C14.7322 7.47487 14.7322 6.52513 14.1464 5.93934L11.0607 2.85355C10.4749 2.26777 9.52513 2.26777 8.93934 2.85355Z" fill="url(#paint0_linear_475_13880)" stroke="url(#paint1_linear_475_13880)" stroke-linejoin="round"/>
<path d="M8.8651 1.92779L2.78637 8.00652C2.24145 8.55144 2.1981 9.42061 2.68609 10.017L5.9133 13.9614C6.47526 14.6482 7.50739 14.6997 8.1349 14.0722L14.2136 7.99348C14.7585 7.44856 14.8019 6.57939 14.3139 5.98296L11.0867 2.03859C10.5247 1.35176 9.49261 1.30028 8.8651 1.92779Z" fill="url(#paint2_linear_475_13880)"/>
<path d="M8.8651 1.92779L2.78637 8.00652C2.24145 8.55144 2.1981 9.42061 2.68609 10.017L5.9133 13.9614C6.47526 14.6482 7.50739 14.6997 8.1349 14.0722L14.2136 7.99348C14.7585 7.44856 14.8019 6.57939 14.3139 5.98296L11.0867 2.03859C10.5247 1.35176 9.49261 1.30028 8.8651 1.92779Z" stroke="url(#paint3_linear_475_13880)" stroke-linejoin="round"/>
<path d="M8.8651 1.92779L2.78637 8.00652C2.24145 8.55144 2.1981 9.42061 2.68609 10.017L5.9133 13.9614C6.47526 14.6482 7.50739 14.6997 8.1349 14.0722L14.2136 7.99348C14.7585 7.44856 14.8019 6.57939 14.3139 5.98296L11.0867 2.03859C10.5247 1.35176 9.49261 1.30028 8.8651 1.92779Z" stroke="url(#paint4_linear_475_13880)" stroke-opacity="0.2" stroke-linejoin="round"/>
<path d="M3.49348 8.71363L9.57221 2.6349C9.78138 2.42573 10.1254 2.44289 10.3127 2.67183L13.5399 6.6162C13.7026 6.81501 13.6882 7.10473 13.5065 7.28637L7.42779 13.3651C7.21862 13.5743 6.87458 13.5571 6.68726 13.3282L3.46005 9.3838C3.29739 9.18499 3.31184 8.89527 3.49348 8.71363Z" stroke="url(#paint5_radial_475_13880)" stroke-opacity="0.66" stroke-linejoin="round"/>
<path d="M10.4876 5.01238L6.26238 9.23762C5.86797 9.63203 5.21134 9.56701 4.90194 9.10291C4.66823 8.75234 4.71445 8.28555 5.01238 7.98762L9.23762 3.76238C9.63203 3.36797 10.2887 3.43299 10.5981 3.89709C10.8318 4.24766 10.7855 4.71445 10.4876 5.01238Z" fill="#B5B5B5"/>
<path d="M7 10.5L9.5 8" stroke="#B5B5B5" stroke-linecap="round"/>
<path d="M10.6847 5.8153L10.6133 5.88673C10.2614 6.23862 10.2218 6.79572 10.5204 7.19384L10.8082 7.57759C11.1733 8.06443 11.885 8.11501 12.3153 7.6847L12.3867 7.61327C12.7386 7.26138 12.7782 6.70428 12.4796 6.30616L12.1918 5.92241C11.8267 5.43557 11.115 5.38499 10.6847 5.8153Z" fill="#649BC9"/>
<g filter="url(#filter0_i_475_13880)">
<path d="M10 9H6V14H10V16H11L16 11.5L11 7H10V9Z" fill="#80B361"/>
</g>
<path d="M10 9.5C10.2761 9.5 10.5 9.27614 10.5 9V7.5H10.8081L15.2526 11.5L10.8081 15.5H10.5V14C10.5 13.7239 10.2761 13.5 10 13.5H6.5V9.5H10Z" stroke="url(#paint6_linear_475_13880)" stroke-linejoin="round"/>
<path d="M7.5 12.5V10.5H10C10.7149 10.5 11.2659 10.0257 11.4412 9.41686L13.7531 11.5L11.4413 13.5831C11.263 12.9643 10.6975 12.5 10.0049 12.5H7.5Z" stroke="white" stroke-opacity="0.2" stroke-linejoin="round"/>
<defs>
<filter id="filter0_i_475_13880" x="6" y="7" width="12" height="11" filterUnits="userSpaceOnUse" color-interpolation-filters="sRGB">
<feFlood flood-opacity="0" result="BackgroundImageFix"/>
<feBlend mode="normal" in="SourceGraphic" in2="BackgroundImageFix" result="shape"/>
<feColorMatrix in="SourceAlpha" type="matrix" values="0 0 0 0 0 0 0 0 0 0 0 0 0 0 0 0 0 0 127 0" result="hardAlpha"/>
<feOffset dx="2" dy="2"/>
<feGaussianBlur stdDeviation="1"/>
<feComposite in2="hardAlpha" operator="arithmetic" k2="-1" k3="1"/>
<feColorMatrix type="matrix" values="0 0 0 0 1 0 0 0 0 1 0 0 0 0 1 0 0 0 0.25 0"/>
<feBlend mode="normal" in2="shape" result="effect1_innerShadow_475_13880"/>
</filter>
<linearGradient id="paint0_linear_475_13880" x1="3" y1="9.5" x2="7.5" y2="14" gradientUnits="userSpaceOnUse">
<stop stop-color="#D2D2D2"/>
<stop offset="1" stop-color="#B1B1B1"/>
</linearGradient>
<linearGradient id="paint1_linear_475_13880" x1="1.5" y1="9" x2="14.5" y2="9" gradientUnits="userSpaceOnUse">
<stop stop-color="#ABABAB"/>
<stop offset="1" stop-color="#8D8D8D"/>
</linearGradient>
<linearGradient id="paint2_linear_475_13880" x1="3.5" y1="8" x2="8.5" y2="13.5" gradientUnits="userSpaceOnUse">
<stop stop-color="#E4E4E4"/>
<stop offset="1" stop-color="#D3D3D3"/>
</linearGradient>
<linearGradient id="paint3_linear_475_13880" x1="10" y1="2" x2="6" y2="14" gradientUnits="userSpaceOnUse">
<stop offset="0.729256" stop-color="#ABABAB"/>
<stop offset="1" stop-color="#8D8D8D" stop-opacity="0"/>
</linearGradient>
<linearGradient id="paint4_linear_475_13880" x1="3" y1="8" x2="15" y2="8" gradientUnits="userSpaceOnUse">
<stop offset="0.335076" stop-color="#8D8D8D" stop-opacity="0"/>
<stop offset="0.880019" stop-color="#8D8D8D"/>
</linearGradient>
<radialGradient id="paint5_radial_475_13880" cx="0" cy="0" r="1" gradientUnits="userSpaceOnUse" gradientTransform="translate(11 11) rotate(-170.538) scale(6.08276 5.61486)">
<stop offset="0.777355" stop-color="white" stop-opacity="0"/>
<stop offset="1" stop-color="white"/>
</radialGradient>
<linearGradient id="paint6_linear_475_13880" x1="14.5714" y1="14.7143" x2="8.17837" y2="7.61089" gradientUnits="userSpaceOnUse">
<stop stop-color="#247C10"/>
<stop offset="1" stop-color="#6FA53D"/>
</linearGradient>
</defs>
</svg>
