<svg width="16" height="16" viewBox="0 0 16 16" fill="none" xmlns="http://www.w3.org/2000/svg">
<g clip-path="url(#clip0_147_4573)">
<g filter="url(#filter0_ii_147_4573)">
<rect x="1" y="1" width="12" height="12" fill="#F3D65A"/>
</g>
<rect x="1.5" y="1.5" width="11" height="11" stroke="url(#paint0_linear_147_4573)"/>
<rect x="2" y="2" width="10" height="2" fill="white" fill-opacity="0.66"/>
<g filter="url(#filter1_di_147_4573)">
<path d="M6 8H2L6 12V8Z" fill="#F3D65A"/>
<path d="M6.5 8L6 7.5H2L1.64645 8.35355L5.64645 12.3536L6.5 12V8Z" stroke="url(#paint1_linear_147_4573)" stroke-linejoin="bevel"/>
</g>
<path d="M15 15.5C15.1776 15.5 15.3419 15.4058 15.4316 15.2524C15.5213 15.0991 15.5229 14.9097 15.4358 14.7549L10.9358 6.75487C10.8472 6.59743 10.6806 6.5 10.5 6.5C10.3194 6.5 10.1528 6.59743 10.0642 6.75487L5.56421 14.7549C5.47713 14.9097 5.47872 15.0991 5.5684 15.2524C5.65807 15.4058 5.82237 15.5 6 15.5H15Z" fill="#F5DA58" stroke="url(#paint2_linear_147_4573)" stroke-linejoin="round"/>
<path d="M10.5 8.01986L14.1451 14.5H6.85492L10.5 8.01986Z" stroke="white" stroke-opacity="0.66" stroke-linejoin="round"/>
<path d="M10.5 10V12M10.5 13V14" stroke="#C28731" stroke-linejoin="round"/>
</g>
<defs>
<filter id="filter0_ii_147_4573" x="1" y="1" width="14" height="14" filterUnits="userSpaceOnUse" color-interpolation-filters="sRGB">
<feFlood flood-opacity="0" result="BackgroundImageFix"/>
<feBlend mode="normal" in="SourceGraphic" in2="BackgroundImageFix" result="shape"/>
<feColorMatrix in="SourceAlpha" type="matrix" values="0 0 0 0 0 0 0 0 0 0 0 0 0 0 0 0 0 0 127 0" result="hardAlpha"/>
<feOffset dx="2" dy="2"/>
<feGaussianBlur stdDeviation="4"/>
<feComposite in2="hardAlpha" operator="arithmetic" k2="-1" k3="1"/>
<feColorMatrix type="matrix" values="0 0 0 0 0.976471 0 0 0 0 0.917647 0 0 0 0 0.666667 0 0 0 1 0"/>
<feBlend mode="normal" in2="shape" result="effect1_innerShadow_147_4573"/>
<feColorMatrix in="SourceAlpha" type="matrix" values="0 0 0 0 0 0 0 0 0 0 0 0 0 0 0 0 0 0 127 0" result="hardAlpha"/>
<feMorphology radius="2" operator="erode" in="SourceAlpha" result="effect2_innerShadow_147_4573"/>
<feOffset/>
<feComposite in2="hardAlpha" operator="arithmetic" k2="-1" k3="1"/>
<feColorMatrix type="matrix" values="0 0 0 0 1 0 0 0 0 1 0 0 0 0 1 0 0 0 0.66 0"/>
<feBlend mode="normal" in2="effect1_innerShadow_147_4573" result="effect2_innerShadow_147_4573"/>
</filter>
<filter id="filter1_di_147_4573" x="1.29291" y="6" width="6.70709" height="8.70709" filterUnits="userSpaceOnUse" color-interpolation-filters="sRGB">
<feFlood flood-opacity="0" result="BackgroundImageFix"/>
<feColorMatrix in="SourceAlpha" type="matrix" values="0 0 0 0 0 0 0 0 0 0 0 0 0 0 0 0 0 0 127 0" result="hardAlpha"/>
<feOffset dx="1" dy="-1"/>
<feComposite in2="hardAlpha" operator="out"/>
<feColorMatrix type="matrix" values="0 0 0 0 1 0 0 0 0 1 0 0 0 0 1 0 0 0 0.33 0"/>
<feBlend mode="normal" in2="BackgroundImageFix" result="effect1_dropShadow_147_4573"/>
<feBlend mode="normal" in="SourceGraphic" in2="effect1_dropShadow_147_4573" result="shape"/>
<feColorMatrix in="SourceAlpha" type="matrix" values="0 0 0 0 0 0 0 0 0 0 0 0 0 0 0 0 0 0 127 0" result="hardAlpha"/>
<feOffset dx="1" dy="2"/>
<feGaussianBlur stdDeviation="1"/>
<feComposite in2="hardAlpha" operator="arithmetic" k2="-1" k3="1"/>
<feColorMatrix type="matrix" values="0 0 0 0 0.976471 0 0 0 0 0.917647 0 0 0 0 0.666667 0 0 0 1 0"/>
<feBlend mode="normal" in2="shape" result="effect2_innerShadow_147_4573"/>
</filter>
<linearGradient id="paint0_linear_147_4573" x1="13" y1="13" x2="1" y2="1" gradientUnits="userSpaceOnUse">
<stop stop-color="#DF7900"/>
<stop offset="1" stop-color="#FEDFB6"/>
</linearGradient>
<linearGradient id="paint1_linear_147_4573" x1="6" y1="13" x2="1" y2="8" gradientUnits="userSpaceOnUse">
<stop stop-color="#DF7900"/>
<stop offset="0.0001" stop-color="#E99837"/>
<stop offset="1" stop-color="#F6C281"/>
</linearGradient>
<linearGradient id="paint2_linear_147_4573" x1="10.5" y1="7" x2="10.5" y2="15" gradientUnits="userSpaceOnUse">
<stop stop-color="#E1B129"/>
<stop offset="1" stop-color="#BF7C2B"/>
</linearGradient>
<clipPath id="clip0_147_4573">
<rect width="16" height="16" fill="white"/>
</clipPath>
</defs>
</svg>
