<svg width="16" height="16" viewBox="0 0 16 16" fill="none" xmlns="http://www.w3.org/2000/svg">
<g clip-path="url(#clip0_385_6250)">
<path d="M3 2C3 1.44772 3.44772 1 4 1H11.5858C11.851 1 12.1054 1.10536 12.2929 1.29289L14.7071 3.70711C14.8946 3.89464 15 4.149 15 4.41421V14C15 14.5523 14.5523 15 14 15H4C3.44772 15 3 14.5523 3 14V2Z" fill="url(#paint0_linear_385_6250)"/>
<path d="M4 0.5C3.17157 0.5 2.5 1.17157 2.5 2V14C2.5 14.8284 3.17157 15.5 4 15.5H14C14.8284 15.5 15.5 14.8284 15.5 14V4.41421C15.5 4.01639 15.342 3.63486 15.0607 3.35355L12.6464 0.93934C12.3651 0.658035 11.9836 0.5 11.5858 0.5H4Z" stroke="#A8A8A8" stroke-opacity="0.66" stroke-linejoin="round"/>
<path d="M3.5 2C3.5 1.72386 3.72386 1.5 4 1.5H11C11.2761 1.5 11.5 1.72386 11.5 2V3C11.5 3.82843 12.1716 4.5 13 4.5H14C14.2761 4.5 14.5 4.72386 14.5 5V14C14.5 14.2761 14.2761 14.5 14 14.5H4C3.72386 14.5 3.5 14.2761 3.5 14V2Z" stroke="white" stroke-linejoin="round"/>
<path fill-rule="evenodd" clip-rule="evenodd" d="M6.55102 3.875C6.55102 4.49381 6.28501 5.58784 5.92627 6.71487C6.20669 7.18149 6.55341 7.69064 6.97959 8.25C7.28223 8.64721 7.57143 8.98138 7.84737 9.26166C8.59211 9.14213 9.34435 9.0625 9.97959 9.0625C11.5714 9.0625 12 9.75 12 10.25C12 10.875 11.3265 11.1875 10.5918 11.1875C9.95031 11.1875 8.96581 10.8024 7.74102 9.69147C7.07321 9.80972 6.41133 9.94899 5.93878 10.0625C5.51309 10.1647 4.92202 10.3583 4.31122 10.5833C3.79835 11.494 3.30002 12.1536 2.85911 12.7372L2.7551 12.875C2.14286 13.6875 1.59184 14 0.918367 14C0.244898 14 0 13.6875 0 13.1875C0 12.5625 0.612247 12 1.28572 11.5C1.68751 11.2017 2.52514 10.8367 3.36958 10.5111C3.57887 10.1296 3.79629 9.67524 4.10204 8.9375C4.42008 8.1701 4.82005 7.15182 5.15363 6.15252C4.66696 4.97133 4.46939 3.8508 4.46939 3.3125C4.46939 2.5625 4.71429 2 5.44898 2C6.18367 2 6.55102 2.6875 6.55102 3.875ZM5.33553 5.58696C5.6166 4.67573 5.81633 3.82494 5.81633 3.25C5.81633 2.5 5.57143 2.3125 5.32653 2.3125C5.08163 2.3125 4.83674 2.6875 4.83674 3.4375C4.83674 4.03913 4.9593 4.73012 5.33553 5.58696ZM5.72797 7.31412C5.93236 7.6613 6.16508 7.99869 6.42857 8.3125C6.75569 8.70208 7.07115 9.04409 7.37358 9.34311C6.42222 9.5173 5.52774 9.74403 4.95919 9.9375C4.84406 9.97668 4.72024 10.0193 4.59005 10.0647C4.67216 9.90466 4.75445 9.7375 4.83674 9.5625C5.12079 8.95838 5.44146 8.14872 5.72797 7.31412ZM10.4694 10.625C11.0204 10.625 11.1429 10.375 11.1429 10.0625C11.1429 9.75 10.7755 9.4375 9.85714 9.4375C9.4548 9.4375 8.85268 9.50948 8.21553 9.61139C9.11893 10.4095 9.86787 10.625 10.4694 10.625ZM0.306122 13.1875C0.306122 12.8125 1.0562 12.1158 1.77551 11.6875C2.03696 11.5318 2.49634 11.3155 3.03064 11.0893C2.98502 11.1636 2.93795 11.2395 2.88875 11.3188C2.77638 11.5 2.65291 11.6991 2.5102 11.9375C1.83673 13.0625 1.10204 13.5625 0.857143 13.5625C0.612245 13.5625 0.306122 13.4375 0.306122 13.1875Z" fill="#DA382D"/>
</g>
<defs>
<linearGradient id="paint0_linear_385_6250" x1="3" y1="15" x2="15" y2="0.999999" gradientUnits="userSpaceOnUse">
<stop offset="0.500484" stop-color="white"/>
<stop offset="0.806982" stop-color="#E6E6E6"/>
<stop offset="0.901248" stop-color="white"/>
</linearGradient>
<clipPath id="clip0_385_6250">
<rect width="16" height="16" fill="white"/>
</clipPath>
</defs>
</svg>
