<svg width="16" height="16" viewBox="0 0 16 16" fill="none" xmlns="http://www.w3.org/2000/svg">
<path d="M2 2C2 1.44772 2.44772 1 3 1H10.5858C10.851 1 11.1054 1.10536 11.2929 1.29289L13.7071 3.70711C13.8946 3.89464 14 4.149 14 4.41421V14C14 14.5523 13.5523 15 13 15H3C2.44772 15 2 14.5523 2 14V2Z" fill="url(#paint0_linear_99_13027)"/>
<path d="M3 0.5C2.17157 0.5 1.5 1.17157 1.5 2V14C1.5 14.8284 2.17157 15.5 3 15.5H13C13.8284 15.5 14.5 14.8284 14.5 14V4.41421C14.5 4.01639 14.342 3.63486 14.0607 3.35355L11.6464 0.93934C11.3651 0.658035 10.9836 0.5 10.5858 0.5H3Z" stroke="#A8A8A8" stroke-opacity="0.66" stroke-linejoin="round"/>
<path d="M2.5 2C2.5 1.72386 2.72386 1.5 3 1.5H10C10.2761 1.5 10.5 1.72386 10.5 2V3C10.5 3.82843 11.1716 4.5 12 4.5H13C13.2761 4.5 13.5 4.72386 13.5 5V14C13.5 14.2761 13.2761 14.5 13 14.5H3C2.72386 14.5 2.5 14.2761 2.5 14V2Z" stroke="white" stroke-linejoin="round"/>
<path d="M15.5 14C15.5 13.8674 15.4473 13.7402 15.3536 13.6464L13.3536 11.6464C13.2598 11.5527 13.1326 11.5 13 11.5H12C11.7239 11.5 11.5 11.7239 11.5 12V13C11.5 13.1326 11.5527 13.2598 11.6464 13.3536L13.6464 15.3536C13.7402 15.4473 13.8674 15.5 14 15.5H15C15.2761 15.5 15.5 15.2761 15.5 15V14Z" fill="#DEB992" stroke="url(#paint1_linear_99_13027)" stroke-linejoin="round"/>
<circle cx="10.5" cy="10.5" r="3.5" fill="url(#paint2_radial_99_13027)"/>
<circle cx="10.5" cy="10.5" r="3" stroke="#9BBDE2" stroke-opacity="0.66"/>
<circle cx="10.5" cy="10.5" r="2" stroke="white" stroke-opacity="0.33"/>
<defs>
<linearGradient id="paint0_linear_99_13027" x1="2" y1="15" x2="14" y2="0.999999" gradientUnits="userSpaceOnUse">
<stop offset="0.500484" stop-color="white"/>
<stop offset="0.806982" stop-color="#E6E6E6"/>
<stop offset="0.901248" stop-color="white"/>
</linearGradient>
<linearGradient id="paint1_linear_99_13027" x1="12" y1="12" x2="15" y2="15" gradientUnits="userSpaceOnUse">
<stop stop-color="#DCAC78"/>
<stop offset="1" stop-color="#BA8A50"/>
</linearGradient>
<radialGradient id="paint2_radial_99_13027" cx="0" cy="0" r="1" gradientUnits="userSpaceOnUse" gradientTransform="translate(13 13) rotate(-135) scale(7.07107)">
<stop offset="0.33" stop-color="#B0D2F3"/>
<stop offset="1" stop-color="#E0EEFC"/>
</radialGradient>
</defs>
</svg>
