<svg width="16" height="16" viewBox="0 0 16 16" fill="none" xmlns="http://www.w3.org/2000/svg">
<g clip-path="url(#clip0_385_6268)">
<path d="M3 2C3 1.44772 3.44772 1 4 1H11.5858C11.851 1 12.1054 1.10536 12.2929 1.29289L14.7071 3.70711C14.8946 3.89464 15 4.149 15 4.41421V14C15 14.5523 14.5523 15 14 15H4C3.44772 15 3 14.5523 3 14V2Z" fill="url(#paint0_linear_385_6268)"/>
<path d="M4 0.5C3.17157 0.5 2.5 1.17157 2.5 2V14C2.5 14.8284 3.17157 15.5 4 15.5H14C14.8284 15.5 15.5 14.8284 15.5 14V4.41421C15.5 4.01639 15.342 3.63486 15.0607 3.35355L12.6464 0.93934C12.3651 0.658035 11.9836 0.5 11.5858 0.5H4Z" stroke="#A8A8A8" stroke-opacity="0.66" stroke-linejoin="round"/>
<path d="M3.5 2C3.5 1.72386 3.72386 1.5 4 1.5H11C11.2761 1.5 11.5 1.72386 11.5 2V3C11.5 3.82843 12.1716 4.5 13 4.5H14C14.2761 4.5 14.5 4.72386 14.5 5V14C14.5 14.2761 14.2761 14.5 14 14.5H4C3.72386 14.5 3.5 14.2761 3.5 14V2Z" stroke="white" stroke-linejoin="round"/>
<path d="M6.10539 6.79178L5.78099 7.5H6.55998H7.5V9.5H5.6366H5.26916L5.15942 9.85067C4.99495 10.3763 4.77934 10.9566 4.49361 11.4795C3.96556 12.4459 3.03886 13.5 1.5 13.5H0.5V11.5H1.5C1.68658 11.5 1.90883 11.4536 2.14023 11.2794C2.35227 11.1198 2.54651 10.8719 2.73854 10.5205C3.10326 9.85301 3.32019 9.04136 3.50067 8.36609L3.50845 8.33699L3.53405 8.24126L3.57351 8.09277C3.74554 7.44309 4.02198 6.407 4.50639 5.52049C5.03444 4.55413 5.96114 3.5 7.5 3.5H8.5V5.5H7.5C7.31342 5.5 7.09117 5.54643 6.85977 5.72063C6.64773 5.88024 6.45349 6.1281 6.26146 6.47951C6.20571 6.58154 6.15386 6.68597 6.10539 6.79178Z" fill="#FC7E78" stroke="#F23A3F" stroke-miterlimit="3.8637" stroke-linecap="square"/>
</g>
<defs>
<linearGradient id="paint0_linear_385_6268" x1="3" y1="15" x2="15" y2="0.999999" gradientUnits="userSpaceOnUse">
<stop offset="0.500484" stop-color="white"/>
<stop offset="0.806982" stop-color="#E6E6E6"/>
<stop offset="0.901248" stop-color="white"/>
</linearGradient>
<clipPath id="clip0_385_6268">
<rect width="16" height="16" fill="white"/>
</clipPath>
</defs>
</svg>
