<svg width="16" height="16" viewBox="0 0 16 16" fill="none" xmlns="http://www.w3.org/2000/svg">
<path d="M3 2C3 1.44772 3.44772 1 4 1H11.5858C11.851 1 12.1054 1.10536 12.2929 1.29289L14.7071 3.70711C14.8946 3.89464 15 4.149 15 4.41421V14C15 14.5523 14.5523 15 14 15H4C3.44772 15 3 14.5523 3 14V2Z" fill="url(#paint0_linear_201_5701)"/>
<path d="M4 0.5C3.17157 0.5 2.5 1.17157 2.5 2V14C2.5 14.8284 3.17157 15.5 4 15.5H14C14.8284 15.5 15.5 14.8284 15.5 14V4.41421C15.5 4.01639 15.342 3.63486 15.0607 3.35355L12.6464 0.93934C12.3651 0.658035 11.9836 0.5 11.5858 0.5H4Z" stroke="#A8A8A8" stroke-opacity="0.66" stroke-linejoin="round"/>
<path d="M3.5 2C3.5 1.72386 3.72386 1.5 4 1.5H11C11.2761 1.5 11.5 1.72386 11.5 2V3C11.5 3.82843 12.1716 4.5 13 4.5H14C14.2761 4.5 14.5 4.72386 14.5 5V14C14.5 14.2761 14.2761 14.5 14 14.5H4C3.72386 14.5 3.5 14.2761 3.5 14V2Z" stroke="white" stroke-linejoin="round"/>
<mask id="path-4-outside-1_201_5701" maskUnits="userSpaceOnUse" x="4.49997" y="4.01129" width="9" height="9" fill="black">
<rect fill="white" x="4.49997" y="4.01129" width="9" height="9"/>
<path fill-rule="evenodd" clip-rule="evenodd" d="M7.1495 5.67465C7.77314 5.05102 8.81369 4.84894 9.78439 5.14602L8.61455 5.82142C8.13626 6.09757 7.97238 6.70916 8.24853 7.18745L9.3126 9.03048C9.58874 9.50877 10.2003 9.67265 10.6786 9.39651L11.9961 8.63587C11.9239 9.13575 11.7208 9.58865 11.3921 9.9173C10.8086 10.5008 9.91465 10.634 9.03991 10.3562C8.07985 10.4792 6.99997 11.5 6.99997 11.5L5.49997 9.99998C5.49997 9.99998 6.58063 8.97842 6.71008 8.02518C6.43297 7.15099 6.56637 6.25778 7.1495 5.67465Z"/>
</mask>
<path fill-rule="evenodd" clip-rule="evenodd" d="M7.1495 5.67465C7.77314 5.05102 8.81369 4.84894 9.78439 5.14602L8.61455 5.82142C8.13626 6.09757 7.97238 6.70916 8.24853 7.18745L9.3126 9.03048C9.58874 9.50877 10.2003 9.67265 10.6786 9.39651L11.9961 8.63587C11.9239 9.13575 11.7208 9.58865 11.3921 9.9173C10.8086 10.5008 9.91465 10.634 9.03991 10.3562C8.07985 10.4792 6.99997 11.5 6.99997 11.5L5.49997 9.99998C5.49997 9.99998 6.58063 8.97842 6.71008 8.02518C6.43297 7.15099 6.56637 6.25778 7.1495 5.67465Z" fill="#D9D9D9"/>
<path d="M9.78439 5.14602L10.2844 6.01204C10.6291 5.81301 10.823 5.42847 10.778 5.03295C10.733 4.63744 10.4577 4.30629 10.077 4.1898L9.78439 5.14602ZM7.1495 5.67465L7.85661 6.38176V6.38176L7.1495 5.67465ZM8.61455 5.82142L8.11455 4.9554V4.9554L8.61455 5.82142ZM8.24853 7.18745L7.3825 7.68745L8.24853 7.18745ZM9.3126 9.03048L8.44658 9.53048L8.44658 9.53048L9.3126 9.03048ZM10.6786 9.39651L11.1786 10.2625L10.6786 9.39651ZM11.9961 8.63587L12.9858 8.77887C13.0406 8.39978 12.874 8.02271 12.5569 7.80791C12.2398 7.59311 11.8278 7.57833 11.4961 7.76984L11.9961 8.63587ZM9.03991 10.3562L9.34261 9.40309C9.20389 9.35903 9.05723 9.34579 8.91286 9.36428L9.03991 10.3562ZM6.99997 11.5L6.29286 12.2071C6.67565 12.5899 7.29354 12.5986 7.68693 12.2267L6.99997 11.5ZM5.49997 9.99998L4.81301 9.27329C4.61674 9.45883 4.50386 9.71587 4.50007 9.98593C4.49627 10.256 4.60188 10.5161 4.79286 10.7071L5.49997 9.99998ZM6.71008 8.02518L7.70098 8.15975C7.72089 8.01318 7.70803 7.86402 7.66334 7.72302L6.71008 8.02518ZM10.077 4.1898C8.82681 3.80717 7.3782 4.03175 6.44239 4.96755L7.85661 6.38176C8.16809 6.07028 8.80057 5.89071 9.49175 6.10224L10.077 4.1898ZM9.11455 6.68745L10.2844 6.01204L9.28439 4.27999L8.11455 4.9554L9.11455 6.68745ZM9.11455 6.68745V6.68745L8.11455 4.9554C7.15797 5.50768 6.83022 6.73086 7.3825 7.68745L9.11455 6.68745ZM10.1786 8.53048L9.11455 6.68745L7.3825 7.68745L8.44658 9.53048L10.1786 8.53048ZM10.1786 8.53048H10.1786L8.44658 9.53048C8.99886 10.4871 10.222 10.8148 11.1786 10.2625L10.1786 8.53048ZM11.4961 7.76984L10.1786 8.53048L11.1786 10.2625L12.4961 9.50189L11.4961 7.76984ZM12.0992 10.6244C12.608 10.1157 12.8888 9.4504 12.9858 8.77887L11.0064 8.49287C10.9589 8.8211 10.8336 9.06164 10.685 9.21019L12.0992 10.6244ZM8.73721 11.3093C9.86712 11.6681 11.1842 11.5395 12.0992 10.6244L10.685 9.21019C10.4331 9.46213 9.96218 9.59987 9.34261 9.40309L8.73721 11.3093ZM8.91286 9.36428C8.18344 9.45771 7.50809 9.86241 7.08986 10.1526C6.86387 10.3094 6.67419 10.4606 6.54058 10.5728C6.47336 10.6292 6.41927 10.6767 6.38071 10.7113C6.36141 10.7286 6.34593 10.7427 6.33456 10.7532C6.32888 10.7585 6.32421 10.7628 6.32061 10.7662C6.31881 10.7678 6.31727 10.7693 6.316 10.7705C6.31537 10.7711 6.3148 10.7716 6.31431 10.7721C6.31406 10.7723 6.31382 10.7725 6.31361 10.7727C6.3135 10.7728 6.31335 10.773 6.3133 10.773C6.31315 10.7732 6.31301 10.7733 6.99997 11.5C7.68693 12.2267 7.68679 12.2268 7.68667 12.2269C7.68663 12.227 7.68651 12.2271 7.68643 12.2271C7.68628 12.2273 7.68615 12.2274 7.68603 12.2275C7.68579 12.2278 7.68562 12.2279 7.68551 12.228C7.68528 12.2282 7.68531 12.2282 7.68558 12.2279C7.68613 12.2274 7.68764 12.226 7.6901 12.2238C7.69502 12.2192 7.70368 12.2113 7.71578 12.2005C7.74003 12.1787 7.7778 12.1455 7.82683 12.1043C7.9257 12.0213 8.06599 11.9096 8.22998 11.7958C8.59171 11.5448 8.93632 11.3776 9.16696 11.3481L8.91286 9.36428ZM7.70708 10.7929L6.20708 9.29288L4.79286 10.7071L6.29286 12.2071L7.70708 10.7929ZM5.49997 9.99998C6.18693 10.7267 6.18708 10.7265 6.18723 10.7264C6.18729 10.7263 6.18744 10.7262 6.18756 10.7261C6.18778 10.7259 6.18802 10.7256 6.18828 10.7254C6.1888 10.7249 6.18939 10.7243 6.19004 10.7237C6.19135 10.7225 6.19291 10.721 6.19474 10.7192C6.19839 10.7157 6.20307 10.7112 6.20871 10.7058C6.21999 10.6948 6.23515 10.6799 6.25368 10.6614C6.29069 10.6244 6.34145 10.5725 6.40175 10.5079C6.52154 10.3797 6.68314 10.1968 6.85091 9.9774C7.15935 9.57395 7.59959 8.90639 7.70098 8.15975L5.71918 7.89061C5.69112 8.09721 5.5263 8.41705 5.26205 8.76269C5.14347 8.91779 5.02682 9.04995 4.93994 9.14299C4.89691 9.18908 4.86223 9.22445 4.83963 9.24704C4.82836 9.25831 4.82018 9.26631 4.81557 9.27079C4.81326 9.27303 4.81186 9.27438 4.81141 9.2748C4.81118 9.27502 4.8112 9.275 4.81147 9.27475C4.8116 9.27463 4.81179 9.27444 4.81205 9.2742C4.81218 9.27408 4.81232 9.27394 4.81248 9.27379C4.81256 9.27371 4.81269 9.27359 4.81273 9.27355C4.81287 9.27342 4.81301 9.27329 5.49997 9.99998ZM6.44239 4.96755C5.52793 5.88202 5.39884 7.198 5.75683 8.32735L7.66334 7.72302C7.46711 7.10398 7.60482 6.63355 7.85661 6.38176L6.44239 4.96755Z" fill="#929292" mask="url(#path-4-outside-1_201_5701)"/>
<path d="M1.5 13.5C1.5 13.3674 1.55268 13.2402 1.64645 13.1464L5.14645 9.64645C5.34171 9.45118 5.65829 9.45118 5.85355 9.64645L7.35355 11.1464C7.54882 11.3417 7.54882 11.6583 7.35355 11.8536L3.85355 15.3536C3.75979 15.4473 3.63261 15.5 3.5 15.5H2C1.72386 15.5 1.5 15.2761 1.5 15V13.5Z" fill="#B2C8EC" stroke="url(#paint1_linear_201_5701)" stroke-linejoin="round"/>
<defs>
<linearGradient id="paint0_linear_201_5701" x1="3" y1="15" x2="15" y2="0.999999" gradientUnits="userSpaceOnUse">
<stop offset="0.500484" stop-color="white"/>
<stop offset="0.806982" stop-color="#E6E6E6"/>
<stop offset="0.901248" stop-color="white"/>
</linearGradient>
<linearGradient id="paint1_linear_201_5701" x1="3" y1="12" x2="5" y2="14" gradientUnits="userSpaceOnUse">
<stop stop-color="#90ADDE"/>
<stop offset="1" stop-color="#5283D3"/>
</linearGradient>
</defs>
</svg>
