<svg width="16" height="16" viewBox="0 0 16 16" fill="none" xmlns="http://www.w3.org/2000/svg">
<g clip-path="url(#clip0_115_1514)">
<path d="M1 2C1 1.44772 1.44772 1 2 1H6.56545C6.84263 1 7.10738 1.11505 7.2965 1.31768L8.73106 2.8547C8.90388 3.03987 9 3.28373 9 3.53702V10C9 10.5523 8.55228 11 8 11H2C1.44772 11 1 10.5523 1 10V2Z" fill="url(#paint0_linear_115_1514)"/>
<path d="M2 0.5C1.17157 0.5 0.5 1.17157 0.5 2V10C0.5 10.8284 1.17157 11.5 2 11.5H8C8.82843 11.5 9.5 10.8284 9.5 10V3.53702C9.5 3.15708 9.35582 2.7913 9.09658 2.51354L7.66203 0.976523C7.37834 0.67257 6.98122 0.5 6.56545 0.5H2Z" stroke="#A8A8A8" stroke-opacity="0.66" stroke-linejoin="round"/>
<path d="M7.40325 2.75595L7.12741 1.86933L8.23076 3.05149L7.40325 2.75595Z" stroke="url(#paint1_linear_115_1514)"/>
<path d="M1.5 2C1.5 1.72386 1.72386 1.5 2 1.5H6C6.27614 1.5 6.5 1.72386 6.5 2V2.14286C6.5 2.97128 7.17157 3.64286 8 3.64286C8.27614 3.64286 8.5 3.86671 8.5 4.14286V10C8.5 10.2761 8.27614 10.5 8 10.5H2C1.72386 10.5 1.5 10.2761 1.5 10V2Z" stroke="white" stroke-linejoin="round"/>
<path d="M4 4C4 3.44772 4.44772 3 5 3H9.56545C9.84263 3 10.1074 3.11505 10.2965 3.31768L11.7311 4.8547C11.9039 5.03987 12 5.28373 12 5.53702V12C12 12.5523 11.5523 13 11 13H5C4.44772 13 4 12.5523 4 12V4Z" fill="url(#paint2_linear_115_1514)"/>
<path d="M5 2.5C4.17157 2.5 3.5 3.17157 3.5 4V12C3.5 12.8284 4.17157 13.5 5 13.5H11C11.8284 13.5 12.5 12.8284 12.5 12V5.53702C12.5 5.15708 12.3558 4.7913 12.0966 4.51354L10.662 2.97652C10.3783 2.67257 9.98122 2.5 9.56545 2.5H5Z" stroke="#A8A8A8" stroke-opacity="0.66" stroke-linejoin="round"/>
<path d="M10.4032 4.75595L10.1274 3.86933L11.2308 5.05149L10.4032 4.75595Z" stroke="url(#paint3_linear_115_1514)"/>
<path d="M4.5 4C4.5 3.72386 4.72386 3.5 5 3.5H9C9.27614 3.5 9.5 3.72386 9.5 4V4.14286C9.5 4.97128 10.1716 5.64286 11 5.64286C11.2761 5.64286 11.5 5.86671 11.5 6.14286V12C11.5 12.2761 11.2761 12.5 11 12.5H5C4.72386 12.5 4.5 12.2761 4.5 12V4Z" stroke="white" stroke-linejoin="round"/>
<path d="M7 6C7 5.44772 7.44772 5 8 5H12.5654C12.8426 5 13.1074 5.11505 13.2965 5.31768L14.7311 6.8547C14.9039 7.03987 15 7.28373 15 7.53702V14C15 14.5523 14.5523 15 14 15H8C7.44772 15 7 14.5523 7 14V6Z" fill="url(#paint4_linear_115_1514)"/>
<path d="M8 4.5C7.17157 4.5 6.5 5.17157 6.5 6V14C6.5 14.8284 7.17157 15.5 8 15.5H14C14.8284 15.5 15.5 14.8284 15.5 14V7.53702C15.5 7.15708 15.3558 6.7913 15.0966 6.51354L13.662 4.97652C13.3783 4.67257 12.9812 4.5 12.5654 4.5H8Z" stroke="#A8A8A8" stroke-opacity="0.66" stroke-linejoin="round"/>
<path d="M13.4032 6.75595L13.1274 5.86933L14.2308 7.05149L13.4032 6.75595Z" stroke="url(#paint5_linear_115_1514)"/>
<path d="M7.5 6C7.5 5.72386 7.72386 5.5 8 5.5H12C12.2761 5.5 12.5 5.72386 12.5 6V6.14286C12.5 6.97128 13.1716 7.64286 14 7.64286C14.2761 7.64286 14.5 7.86671 14.5 8.14286V14C14.5 14.2761 14.2761 14.5 14 14.5H8C7.72386 14.5 7.5 14.2761 7.5 14V6Z" stroke="white" stroke-linejoin="round"/>
</g>
<defs>
<linearGradient id="paint0_linear_115_1514" x1="1" y1="11" x2="9.64211" y2="1.5897" gradientUnits="userSpaceOnUse">
<stop offset="0.500484" stop-color="white"/>
<stop offset="0.872799" stop-color="#E6E6E6"/>
</linearGradient>
<linearGradient id="paint1_linear_115_1514" x1="6.99998" y1="3.14286" x2="8.06886" y2="2.14523" gradientUnits="userSpaceOnUse">
<stop offset="0.385417" stop-color="#F1F1F1"/>
<stop offset="1" stop-color="white"/>
</linearGradient>
<linearGradient id="paint2_linear_115_1514" x1="4" y1="13" x2="12.6421" y2="3.5897" gradientUnits="userSpaceOnUse">
<stop offset="0.500484" stop-color="white"/>
<stop offset="0.872799" stop-color="#E6E6E6"/>
</linearGradient>
<linearGradient id="paint3_linear_115_1514" x1="9.99998" y1="5.14286" x2="11.0689" y2="4.14523" gradientUnits="userSpaceOnUse">
<stop offset="0.385417" stop-color="#F1F1F1"/>
<stop offset="1" stop-color="white"/>
</linearGradient>
<linearGradient id="paint4_linear_115_1514" x1="7" y1="15" x2="15.6421" y2="5.5897" gradientUnits="userSpaceOnUse">
<stop offset="0.500484" stop-color="white"/>
<stop offset="0.872799" stop-color="#E6E6E6"/>
</linearGradient>
<linearGradient id="paint5_linear_115_1514" x1="13" y1="7.14286" x2="14.0689" y2="6.14523" gradientUnits="userSpaceOnUse">
<stop offset="0.385417" stop-color="#F1F1F1"/>
<stop offset="1" stop-color="white"/>
</linearGradient>
<clipPath id="clip0_115_1514">
<rect width="16" height="16" fill="white"/>
</clipPath>
</defs>
</svg>
