<svg width="16" height="16" viewBox="0 0 16 16" fill="none" xmlns="http://www.w3.org/2000/svg">
<g clip-path="url(#clip0_290_6659)">
<path d="M3 2C3 1.44772 3.44772 1 4 1H11.5858C11.851 1 12.1054 1.10536 12.2929 1.29289L14.7071 3.70711C14.8946 3.89464 15 4.149 15 4.41421V14C15 14.5523 14.5523 15 14 15H4C3.44772 15 3 14.5523 3 14V2Z" fill="url(#paint0_linear_290_6659)"/>
<path d="M4 0.5C3.17157 0.5 2.5 1.17157 2.5 2V14C2.5 14.8284 3.17157 15.5 4 15.5H14C14.8284 15.5 15.5 14.8284 15.5 14V4.41421C15.5 4.01639 15.342 3.63486 15.0607 3.35355L12.6464 0.93934C12.3651 0.658035 11.9836 0.5 11.5858 0.5H4Z" stroke="#A8A8A8" stroke-opacity="0.66" stroke-linejoin="round"/>
<path d="M3.5 2C3.5 1.72386 3.72386 1.5 4 1.5H11C11.2761 1.5 11.5 1.72386 11.5 2V3C11.5 3.82843 12.1716 4.5 13 4.5H14C14.2761 4.5 14.5 4.72386 14.5 5V14C14.5 14.2761 14.2761 14.5 14 14.5H4C3.72386 14.5 3.5 14.2761 3.5 14V2Z" stroke="white" stroke-linejoin="round"/>
<circle cx="4" cy="12" r="1" fill="url(#paint1_linear_290_6659)"/>
<circle cx="9" cy="12" r="1" fill="url(#paint2_linear_290_6659)"/>
<path fill-rule="evenodd" clip-rule="evenodd" d="M3.00378 10.4389C3.03464 10.1883 3.24752 10 3.50004 10H7.50004C7.77618 10 8.00004 10.2239 8.00004 10.5V11.5C8.00004 11.654 7.9291 11.7993 7.80774 11.8941C7.68638 11.9889 7.52814 12.0224 7.37877 11.9851L3.37877 10.9851C3.13379 10.9238 2.97293 10.6895 3.00378 10.4389Z" fill="#805555"/>
<rect x="0.5" y="4.5" width="5" height="6" fill="url(#paint3_linear_290_6659)"/>
<rect x="0.5" y="4.5" width="5" height="6" stroke="#C0AF14" stroke-linejoin="round"/>
<rect x="0.5" y="4.5" width="5" height="6" stroke="url(#paint4_linear_290_6659)" stroke-opacity="0.2" stroke-linejoin="round"/>
<rect x="2.25" y="6.25" width="1.5" height="0.5" rx="0.25" fill="#CFB743" stroke="#C0AF14" stroke-width="0.5"/>
<rect x="2.25" y="8.25" width="1.5" height="0.5" rx="0.25" fill="#CFB743" stroke="#C0AF14" stroke-width="0.5"/>
<path fill-rule="evenodd" clip-rule="evenodd" d="M7.80774 3.1059C7.9291 3.20066 8.00004 3.34604 8.00004 3.5V11.5H7.00004V5H3.50004C3.24752 5 3.03464 4.81172 3.00378 4.5611C2.97293 4.31047 3.13379 4.07618 3.37877 4.01493L7.37877 3.01493C7.52814 2.97759 7.68638 3.01115 7.80774 3.1059Z" fill="#805555"/>
</g>
<defs>
<linearGradient id="paint0_linear_290_6659" x1="3" y1="15" x2="15" y2="0.999999" gradientUnits="userSpaceOnUse">
<stop offset="0.500484" stop-color="white"/>
<stop offset="0.806982" stop-color="#E6E6E6"/>
<stop offset="0.901248" stop-color="white"/>
</linearGradient>
<linearGradient id="paint1_linear_290_6659" x1="3" y1="11" x2="5" y2="13" gradientUnits="userSpaceOnUse">
<stop stop-color="#72A5F2"/>
<stop offset="1" stop-color="#4568A6" stop-opacity="0.992157"/>
</linearGradient>
<linearGradient id="paint2_linear_290_6659" x1="8" y1="11" x2="10" y2="13" gradientUnits="userSpaceOnUse">
<stop stop-color="#72A5F2"/>
<stop offset="1" stop-color="#4568A6" stop-opacity="0.992157"/>
</linearGradient>
<linearGradient id="paint3_linear_290_6659" x1="1" y1="5" x2="5" y2="10" gradientUnits="userSpaceOnUse">
<stop stop-color="#EAEA53"/>
<stop offset="1" stop-color="#EDDE35"/>
</linearGradient>
<linearGradient id="paint4_linear_290_6659" x1="1" y1="7.5" x2="5" y2="7.5" gradientUnits="userSpaceOnUse">
<stop stop-color="#FD0000" stop-opacity="0"/>
<stop offset="1" stop-color="#FF0000"/>
</linearGradient>
<clipPath id="clip0_290_6659">
<rect width="16" height="16" fill="white"/>
</clipPath>
</defs>
</svg>
