<svg width="16" height="16" viewBox="0 0 16 16" fill="none" xmlns="http://www.w3.org/2000/svg">
<g clip-path="url(#clip0_201_5726)">
<path d="M2 2C2 1.44772 2.44772 1 3 1H10.5858C10.851 1 11.1054 1.10536 11.2929 1.29289L13.7071 3.70711C13.8946 3.89464 14 4.149 14 4.41421V14C14 14.5523 13.5523 15 13 15H3C2.44772 15 2 14.5523 2 14V2Z" fill="url(#paint0_linear_201_5726)"/>
<path d="M3 0.5C2.17157 0.5 1.5 1.17157 1.5 2V14C1.5 14.8284 2.17157 15.5 3 15.5H13C13.8284 15.5 14.5 14.8284 14.5 14V4.41421C14.5 4.01639 14.342 3.63486 14.0607 3.35355L11.6464 0.93934C11.3651 0.658035 10.9836 0.5 10.5858 0.5H3Z" stroke="#A8A8A8" stroke-opacity="0.66" stroke-linejoin="round"/>
<path d="M2.5 2C2.5 1.72386 2.72386 1.5 3 1.5H10C10.2761 1.5 10.5 1.72386 10.5 2V3C10.5 3.82843 11.1716 4.5 12 4.5H13C13.2761 4.5 13.5 4.72386 13.5 5V14C13.5 14.2761 13.2761 14.5 13 14.5H3C2.72386 14.5 2.5 14.2761 2.5 14V2Z" stroke="white" stroke-linejoin="round"/>
<ellipse cx="13.1281" cy="14.128" rx="4.9616" ry="11.4869" transform="rotate(-45 13.1281 14.128)" stroke="url(#paint1_linear_201_5726)" stroke-width="2"/>
<path d="M7.5 3.5L2.5 8.5" stroke="url(#paint2_linear_201_5726)"/>
<path d="M2.5 9.5C2.5 10.0523 2.05228 10.5 1.5 10.5C0.947715 10.5 0.5 10.0523 0.5 9.5C0.5 8.94772 0.947715 8.5 1.5 8.5C2.05228 8.5 2.5 8.94772 2.5 9.5Z" stroke="url(#paint3_linear_201_5726)"/>
<path d="M9.5 2.5C9.5 3.05228 9.05228 3.5 8.5 3.5C7.94772 3.5 7.5 3.05228 7.5 2.5C7.5 1.94772 7.94772 1.5 8.5 1.5C9.05228 1.5 9.5 1.94772 9.5 2.5Z" stroke="url(#paint4_linear_201_5726)"/>
<rect x="4" y="5" width="2" height="2" fill="#808080"/>
</g>
<defs>
<linearGradient id="paint0_linear_201_5726" x1="2" y1="15" x2="14" y2="0.999999" gradientUnits="userSpaceOnUse">
<stop offset="0.500484" stop-color="white"/>
<stop offset="0.806982" stop-color="#E6E6E6"/>
<stop offset="0.901248" stop-color="white"/>
</linearGradient>
<linearGradient id="paint1_linear_201_5726" x1="16.6636" y1="13.9469" x2="12.2314" y2="10.1901" gradientUnits="userSpaceOnUse">
<stop stop-color="#78AAE3" stop-opacity="0"/>
<stop offset="1" stop-color="#78AAE3"/>
</linearGradient>
<linearGradient id="paint2_linear_201_5726" x1="7.14645" y1="3.14645" x2="2.14645" y2="8.14645" gradientUnits="userSpaceOnUse">
<stop stop-color="#585858"/>
<stop offset="0.50416" stop-color="#808080"/>
<stop offset="1" stop-color="#585858"/>
</linearGradient>
<linearGradient id="paint3_linear_201_5726" x1="0.999998" y1="1" x2="15" y2="15" gradientUnits="userSpaceOnUse">
<stop stop-color="#848484"/>
<stop offset="1" stop-color="#090909"/>
</linearGradient>
<linearGradient id="paint4_linear_201_5726" x1="8" y1="-6" x2="22" y2="8" gradientUnits="userSpaceOnUse">
<stop stop-color="#848484"/>
<stop offset="1" stop-color="#090909"/>
</linearGradient>
<clipPath id="clip0_201_5726">
<rect width="16" height="16" fill="white"/>
</clipPath>
</defs>
</svg>
