<svg width="16" height="16" viewBox="0 0 16 16" fill="none" xmlns="http://www.w3.org/2000/svg">
<g clip-path="url(#clip0_134_1616)">
<path d="M2 2C2 1.44772 2.44772 1 3 1H10.5858C10.851 1 11.1054 1.10536 11.2929 1.29289L13.7071 3.70711C13.8946 3.89464 14 4.149 14 4.41421V14C14 14.5523 13.5523 15 13 15H3C2.44772 15 2 14.5523 2 14V2Z" fill="url(#paint0_linear_134_1616)"/>
<path d="M3 0.5C2.17157 0.5 1.5 1.17157 1.5 2V14C1.5 14.8284 2.17157 15.5 3 15.5H13C13.8284 15.5 14.5 14.8284 14.5 14V4.41421C14.5 4.01639 14.342 3.63486 14.0607 3.35355L11.6464 0.93934C11.3651 0.658035 10.9836 0.5 10.5858 0.5H3Z" stroke="url(#paint1_linear_134_1616)" stroke-opacity="0.8" stroke-linejoin="round"/>
<path d="M2.5 2C2.5 1.72386 2.72386 1.5 3 1.5H10C10.2761 1.5 10.5 1.72386 10.5 2V3C10.5 3.82843 11.1716 4.5 12 4.5H13C13.2761 4.5 13.5 4.72386 13.5 5V14C13.5 14.2761 13.2761 14.5 13 14.5H3C2.72386 14.5 2.5 14.2761 2.5 14V2Z" stroke="#EDF3F8" stroke-linejoin="round"/>
<rect x="3.5" y="11.5" width="9" height="2" fill="#93D4FF" stroke="url(#paint2_linear_134_1616)"/>
<path d="M4.54043 11.803C4.45989 11.991 4.50188 12.209 4.64645 12.3536C4.79102 12.4981 5.00904 12.5401 5.19696 12.4596L8.69696 10.9596C8.84946 10.8942 8.9596 10.7575 8.99098 10.5946C9.02235 10.4316 8.97087 10.2638 8.85355 10.1464L6.85355 8.14645C6.73624 8.02913 6.56836 7.97765 6.40545 8.00902C6.24253 8.0404 6.10578 8.15054 6.04043 8.30304L4.54043 11.803Z" fill="url(#paint3_linear_134_1616)"/>
<path d="M4.54043 11.803C4.45989 11.991 4.50188 12.209 4.64645 12.3536C4.79102 12.4981 5.00904 12.5401 5.19696 12.4596L8.69696 10.9596C8.84946 10.8942 8.9596 10.7575 8.99098 10.5946C9.02235 10.4316 8.97087 10.2638 8.85355 10.1464L6.85355 8.14645C6.73624 8.02913 6.56836 7.97765 6.40545 8.00902C6.24253 8.0404 6.10578 8.15054 6.04043 8.30304L4.54043 11.803Z" fill="url(#paint4_linear_134_1616)"/>
<path d="M4.54043 11.803C4.45989 11.991 4.50188 12.209 4.64645 12.3536C4.79102 12.4981 5.00904 12.5401 5.19696 12.4596L8.69696 10.9596C8.84946 10.8942 8.9596 10.7575 8.99098 10.5946C9.02235 10.4316 8.97087 10.2638 8.85355 10.1464L6.85355 8.14645C6.73624 8.02913 6.56836 7.97765 6.40545 8.00902C6.24253 8.0404 6.10578 8.15054 6.04043 8.30304L4.54043 11.803Z" stroke="url(#paint5_linear_134_1616)" stroke-linejoin="round"/>
<path d="M4.54043 11.803C4.45989 11.991 4.50188 12.209 4.64645 12.3536C4.79102 12.4981 5.00904 12.5401 5.19696 12.4596L8.69696 10.9596C8.84946 10.8942 8.9596 10.7575 8.99098 10.5946C9.02235 10.4316 8.97087 10.2638 8.85355 10.1464L6.85355 8.14645C6.73624 8.02913 6.56836 7.97765 6.40545 8.00902C6.24253 8.0404 6.10578 8.15054 6.04043 8.30304L4.54043 11.803Z" stroke="url(#paint6_linear_134_1616)" stroke-linejoin="round"/>
<path d="M6.14645 8.14645C5.95118 8.34171 5.95118 8.65829 6.14645 8.85355L8.14645 10.8536C8.34171 11.0488 8.65829 11.0488 8.85355 10.8536L14.8536 4.85355C15.0488 4.65829 15.0488 4.34171 14.8536 4.14645L12.8536 2.14645C12.6583 1.95118 12.3417 1.95118 12.1464 2.14645L6.14645 8.14645Z" fill="url(#paint7_linear_134_1616)" stroke="url(#paint8_linear_134_1616)" stroke-linejoin="round"/>
<path fill-rule="evenodd" clip-rule="evenodd" d="M6.5 8.5L7.20711 9.20711L13.2071 3.20711L12.5 2.5L6.5 8.5Z" fill="#FCF4B3"/>
<path d="M14.1464 4.85356L14.5 5.20712L14.8536 4.85356C15.0768 4.63032 15.3397 4.23926 15.4185 3.75535C15.5023 3.24043 15.3688 2.66169 14.8536 2.14646C14.3383 1.63123 13.7596 1.49768 13.2447 1.58151C12.7607 1.66028 12.3697 1.92321 12.1464 2.14646L11.7929 2.50001L12.1464 2.85356L14.1464 4.85356Z" fill="url(#paint9_linear_134_1616)" stroke="url(#paint10_linear_134_1616)"/>
</g>
<defs>
<linearGradient id="paint0_linear_134_1616" x1="2" y1="15" x2="14" y2="0.999999" gradientUnits="userSpaceOnUse">
<stop offset="0.500484" stop-color="#D2E5FD"/>
<stop offset="0.844906" stop-color="#A6CBF0"/>
</linearGradient>
<linearGradient id="paint1_linear_134_1616" x1="2" y1="1.21042" x2="14" y2="15.2104" gradientUnits="userSpaceOnUse">
<stop stop-color="#2F88DF"/>
<stop offset="1" stop-color="#053C92"/>
</linearGradient>
<linearGradient id="paint2_linear_134_1616" x1="3" y1="11" x2="13" y2="14" gradientUnits="userSpaceOnUse">
<stop stop-color="#55B4F8"/>
<stop offset="1" stop-color="#62BCFC"/>
</linearGradient>
<linearGradient id="paint3_linear_134_1616" x1="6.16667" y1="8.88889" x2="8.11111" y2="10.8333" gradientUnits="userSpaceOnUse">
<stop stop-color="#FAE7D1"/>
<stop offset="1" stop-color="#E89840"/>
</linearGradient>
<linearGradient id="paint4_linear_134_1616" x1="6.94444" y1="9.66667" x2="3.83333" y2="12.7778" gradientUnits="userSpaceOnUse">
<stop stop-color="#584013" stop-opacity="0"/>
<stop offset="0.499937" stop-color="#584013" stop-opacity="0"/>
<stop offset="0.661921" stop-color="#584013"/>
</linearGradient>
<linearGradient id="paint5_linear_134_1616" x1="6.16667" y1="9.66667" x2="7.33333" y2="10.8333" gradientUnits="userSpaceOnUse">
<stop stop-color="#B98926"/>
<stop offset="1" stop-color="#AA6016"/>
</linearGradient>
<linearGradient id="paint6_linear_134_1616" x1="7.72222" y1="8.88889" x2="3.83333" y2="12.7778" gradientUnits="userSpaceOnUse">
<stop offset="0.5" stop-color="#B98926" stop-opacity="0"/>
<stop offset="0.656842" stop-color="#584013"/>
</linearGradient>
<linearGradient id="paint7_linear_134_1616" x1="6.5" y1="8.65789" x2="8.34211" y2="10.5" gradientUnits="userSpaceOnUse">
<stop stop-color="#F5DC60"/>
<stop offset="1" stop-color="#EFCB1A"/>
</linearGradient>
<linearGradient id="paint8_linear_134_1616" x1="6.5" y1="8.65789" x2="8.3421" y2="10.5" gradientUnits="userSpaceOnUse">
<stop stop-color="#E9C755"/>
<stop offset="1" stop-color="#D98F3B"/>
</linearGradient>
<linearGradient id="paint9_linear_134_1616" x1="12.4766" y1="3.30195" x2="14.8903" y2="3.69267" gradientUnits="userSpaceOnUse">
<stop stop-color="#FDD7D1"/>
<stop offset="1" stop-color="#FBACA1"/>
</linearGradient>
<linearGradient id="paint10_linear_134_1616" x1="12.5" y1="3.31509" x2="14.8693" y2="3.72938" gradientUnits="userSpaceOnUse">
<stop stop-color="#E1B3AD"/>
<stop offset="1" stop-color="#B17971"/>
</linearGradient>
<clipPath id="clip0_134_1616">
<rect width="16" height="16" fill="white"/>
</clipPath>
</defs>
</svg>
