<svg width="16" height="16" viewBox="0 0 16 16" fill="none" xmlns="http://www.w3.org/2000/svg">
<g clip-path="url(#clip0_134_1582)">
<g opacity="0.8">
<path d="M1 2C1 1.44772 1.44772 1 2 1H6.56545C6.84263 1 7.10738 1.11505 7.2965 1.31768L8.73106 2.8547C8.90388 3.03987 9 3.28373 9 3.53702V10C9 10.5523 8.55228 11 8 11H2C1.44772 11 1 10.5523 1 10V2Z" fill="url(#paint0_linear_134_1582)"/>
<path d="M2 0.5C1.17157 0.5 0.5 1.17157 0.5 2V10C0.5 10.8284 1.17157 11.5 2 11.5H8C8.82843 11.5 9.5 10.8284 9.5 10V3.53702C9.5 3.15708 9.35582 2.7913 9.09658 2.51354L7.66203 0.976523C7.37834 0.67257 6.98122 0.5 6.56545 0.5H2Z" stroke="url(#paint1_linear_134_1582)" stroke-opacity="0.8" stroke-linejoin="round"/>
<path d="M1.5 2C1.5 1.72386 1.72386 1.5 2 1.5H6C6.27614 1.5 6.5 1.72386 6.5 2V2.14286C6.5 2.97128 7.17157 3.64286 8 3.64286C8.27614 3.64286 8.5 3.86671 8.5 4.14286V10C8.5 10.2761 8.27614 10.5 8 10.5H2C1.72386 10.5 1.5 10.2761 1.5 10V2Z" stroke="white" stroke-linejoin="round" style="mix-blend-mode:soft-light"/>
</g>
<path d="M7 6C7 5.44772 7.44772 5 8 5H12.5654C12.8426 5 13.1074 5.11505 13.2965 5.31768L14.7311 6.8547C14.9039 7.03987 15 7.28373 15 7.53702V14C15 14.5523 14.5523 15 14 15H8C7.44772 15 7 14.5523 7 14V6Z" fill="url(#paint2_linear_134_1582)"/>
<path d="M8 4.5C7.17157 4.5 6.5 5.17157 6.5 6V14C6.5 14.8284 7.17157 15.5 8 15.5H14C14.8284 15.5 15.5 14.8284 15.5 14V7.53702C15.5 7.15708 15.3558 6.7913 15.0966 6.51354L13.662 4.97652C13.3783 4.67257 12.9812 4.5 12.5654 4.5H8Z" stroke="url(#paint3_linear_134_1582)" stroke-opacity="0.8" stroke-linejoin="round"/>
<path d="M7.5 6C7.5 5.72386 7.72386 5.5 8 5.5H12C12.2761 5.5 12.5 5.72386 12.5 6V6.14286C12.5 6.97128 13.1716 7.64286 14 7.64286C14.2761 7.64286 14.5 7.86671 14.5 8.14286V14C14.5 14.2761 14.2761 14.5 14 14.5H8C7.72386 14.5 7.5 14.2761 7.5 14V6Z" stroke="white" stroke-linejoin="round" style="mix-blend-mode:soft-light"/>
</g>
<defs>
<linearGradient id="paint0_linear_134_1582" x1="1" y1="11" x2="9.64211" y2="1.5897" gradientUnits="userSpaceOnUse">
<stop offset="0.500484" stop-color="#D2E5FD"/>
<stop offset="0.844906" stop-color="#A6CBF0"/>
</linearGradient>
<linearGradient id="paint1_linear_134_1582" x1="1" y1="1.1503" x2="9.64212" y2="10.5606" gradientUnits="userSpaceOnUse">
<stop stop-color="#2F88DF"/>
<stop offset="1" stop-color="#053C92"/>
</linearGradient>
<linearGradient id="paint2_linear_134_1582" x1="7" y1="15" x2="15.6421" y2="5.5897" gradientUnits="userSpaceOnUse">
<stop offset="0.500484" stop-color="#D2E5FD"/>
<stop offset="0.844906" stop-color="#A6CBF0"/>
</linearGradient>
<linearGradient id="paint3_linear_134_1582" x1="7" y1="5.1503" x2="15.6421" y2="14.5606" gradientUnits="userSpaceOnUse">
<stop stop-color="#2F88DF"/>
<stop offset="1" stop-color="#053C92"/>
</linearGradient>
<clipPath id="clip0_134_1582">
<rect width="16" height="16" fill="white"/>
</clipPath>
</defs>
</svg>
