<svg width="16" height="16" viewBox="0 0 16 16" fill="none" xmlns="http://www.w3.org/2000/svg">
<g clip-path="url(#clip0_134_1803)">
<path d="M1 2C1 1.44772 1.44772 1 2 1H9.58579C9.851 1 10.1054 1.10536 10.2929 1.29289L12.7071 3.70711C12.8946 3.89464 13 4.149 13 4.41421V14C13 14.5523 12.5523 15 12 15H2C1.44772 15 1 14.5523 1 14V2Z" fill="url(#paint0_linear_134_1803)"/>
<path d="M2 0.5C1.17157 0.5 0.5 1.17157 0.5 2V14C0.5 14.8284 1.17157 15.5 2 15.5H12C12.8284 15.5 13.5 14.8284 13.5 14V4.41421C13.5 4.01639 13.342 3.63486 13.0607 3.35355L10.6464 0.93934C10.3651 0.658035 9.98361 0.5 9.58579 0.5H2Z" stroke="url(#paint1_linear_134_1803)" stroke-opacity="0.8" stroke-linejoin="round"/>
<path d="M1.5 2C1.5 1.72386 1.72386 1.5 2 1.5H9C9.27614 1.5 9.5 1.72386 9.5 2V3C9.5 3.82843 10.1716 4.5 11 4.5H12C12.2761 4.5 12.5 4.72386 12.5 5V14C12.5 14.2761 12.2761 14.5 12 14.5H2C1.72386 14.5 1.5 14.2761 1.5 14V2Z" stroke="#EDF3F8" stroke-linejoin="round"/>
<rect x="2.5" y="11.5" width="9" height="2" fill="#93D4FF" stroke="url(#paint2_linear_134_1803)"/>
<path d="M6.5 7C6.5 6.72386 6.72386 6.5 7 6.5H13C14.3807 6.5 15.5 7.61929 15.5 9V15C15.5 15.2761 15.2761 15.5 15 15.5H7C6.72386 15.5 6.5 15.2761 6.5 15V7Z" fill="url(#paint3_linear_134_1803)" stroke="url(#paint4_linear_134_1803)"/>
<path d="M7.5 7.5H13C13.8284 7.5 14.5 8.17157 14.5 9V14.5H7.5V7.5Z" stroke="white" stroke-opacity="0.33" style="mix-blend-mode:lighten"/>
<rect x="8" y="12" width="6" height="3" fill="white"/>
<path fill-rule="evenodd" clip-rule="evenodd" d="M9 7H8V8C8 8.55228 8.44772 9 9 9H11C11.5523 9 12 8.55228 12 8V7H10V8H9V7Z" fill="url(#paint5_linear_134_1803)"/>
<path fill-rule="evenodd" clip-rule="evenodd" d="M9 7H8V8C8 8.55228 8.44772 9 9 9H11C11.5523 9 12 8.55228 12 8V7H10V8H9V7Z" fill="white"/>
<rect x="9" y="13" width="4" height="1" rx="0.5" fill="url(#paint6_linear_134_1803)"/>
</g>
<defs>
<linearGradient id="paint0_linear_134_1803" x1="1" y1="15" x2="13" y2="0.999999" gradientUnits="userSpaceOnUse">
<stop offset="0.500484" stop-color="#D2E5FD"/>
<stop offset="0.844906" stop-color="#A6CBF0"/>
</linearGradient>
<linearGradient id="paint1_linear_134_1803" x1="1" y1="1.21042" x2="13" y2="15.2104" gradientUnits="userSpaceOnUse">
<stop stop-color="#2F88DF"/>
<stop offset="1" stop-color="#053C92"/>
</linearGradient>
<linearGradient id="paint2_linear_134_1803" x1="2" y1="11" x2="12" y2="14" gradientUnits="userSpaceOnUse">
<stop stop-color="#55B4F8"/>
<stop offset="1" stop-color="#62BCFC"/>
</linearGradient>
<linearGradient id="paint3_linear_134_1803" x1="6" y1="6" x2="16" y2="16" gradientUnits="userSpaceOnUse">
<stop stop-color="#9EC0EF"/>
<stop offset="1" stop-color="#85A2DD"/>
</linearGradient>
<linearGradient id="paint4_linear_134_1803" x1="16" y1="16" x2="6" y2="6" gradientUnits="userSpaceOnUse">
<stop stop-color="#2E5FA6"/>
<stop offset="1" stop-color="#5B86C7"/>
</linearGradient>
<linearGradient id="paint5_linear_134_1803" x1="8" y1="7" x2="12" y2="9" gradientUnits="userSpaceOnUse">
<stop stop-color="#B8B8B8"/>
<stop offset="1" stop-color="#E3E3E3"/>
</linearGradient>
<linearGradient id="paint6_linear_134_1803" x1="9" y1="13.5" x2="13" y2="13.5" gradientUnits="userSpaceOnUse">
<stop stop-color="#94D32D"/>
<stop offset="1" stop-color="#84BF54"/>
</linearGradient>
<clipPath id="clip0_134_1803">
<rect width="16" height="16" fill="white"/>
</clipPath>
</defs>
</svg>
