<svg width="16" height="16" viewBox="0 0 16 16" fill="none" xmlns="http://www.w3.org/2000/svg">
<g clip-path="url(#clip0_115_1568)">
<path d="M3 2C3 1.44772 3.44772 1 4 1H11.5858C11.851 1 12.1054 1.10536 12.2929 1.29289L14.7071 3.70711C14.8946 3.89464 15 4.149 15 4.41421V14C15 14.5523 14.5523 15 14 15H4C3.44772 15 3 14.5523 3 14V2Z" fill="url(#paint0_linear_115_1568)"/>
<path d="M4 0.5C3.17157 0.5 2.5 1.17157 2.5 2V14C2.5 14.8284 3.17157 15.5 4 15.5H14C14.8284 15.5 15.5 14.8284 15.5 14V4.41421C15.5 4.01639 15.342 3.63486 15.0607 3.35355L12.6464 0.93934C12.3651 0.658035 11.9836 0.5 11.5858 0.5H4Z" stroke="#A8A8A8" stroke-opacity="0.66" stroke-linejoin="round"/>
<path d="M3.5 2C3.5 1.72386 3.72386 1.5 4 1.5H11C11.2761 1.5 11.5 1.72386 11.5 2V3C11.5 3.82843 12.1716 4.5 13 4.5H14C14.2761 4.5 14.5 4.72386 14.5 5V14C14.5 14.2761 14.2761 14.5 14 14.5H4C3.72386 14.5 3.5 14.2761 3.5 14V2Z" stroke="white" stroke-linejoin="round"/>
<path d="M3.938 4.179C5.038 4.179 5.742 4.487 6.38 5.015L5.5 6.082C5.082 5.741 4.576 5.521 3.982 5.521C3.014 5.521 2.244 6.302 2.244 8.172C2.244 10.009 2.97 10.79 4.015 10.79C4.774 10.79 5.236 10.449 5.665 10.108L6.479 11.153C5.918 11.725 5.093 12.187 3.916 12.187C1.848 12.187 0.374 10.79 0.374 8.172C0.374 5.62 1.925 4.179 3.938 4.179ZM11.9967 7.094L11.7217 9.261H12.4147V10.405H11.5677L11.3587 12H9.9287L10.1377 10.405H9.0817L8.8727 12H7.4427L7.6407 10.405H6.9807V9.261H7.7947L8.0807 7.094H7.3877V5.939H8.2347L8.4327 4.377H9.8737L9.6647 5.939H10.7207L10.9297 4.377H12.3597L12.1507 5.939H12.8217V7.094H11.9967ZM9.2247 9.261H10.2807L10.5667 7.094H9.5107L9.2247 9.261Z" fill="url(#paint1_linear_115_1568)"/>
</g>
<defs>
<linearGradient id="paint0_linear_115_1568" x1="3" y1="15" x2="15" y2="0.999999" gradientUnits="userSpaceOnUse">
<stop offset="0.500484" stop-color="white"/>
<stop offset="0.806982" stop-color="#E6E6E6"/>
<stop offset="0.901248" stop-color="white"/>
</linearGradient>
<linearGradient id="paint1_linear_115_1568" x1="-4.93766e-09" y1="4" x2="5.18689" y2="15.8557" gradientUnits="userSpaceOnUse">
<stop stop-color="#99BBEC"/>
<stop offset="1" stop-color="#648DDD"/>
</linearGradient>
<clipPath id="clip0_115_1568">
<rect width="16" height="16" fill="white"/>
</clipPath>
</defs>
</svg>
