<svg width="16" height="16" viewBox="0 0 16 16" fill="none" xmlns="http://www.w3.org/2000/svg">
<g clip-path="url(#clip0_133_2091)">
<path d="M2 2C2 1.44772 2.44772 1 3 1H10.5858C10.851 1 11.1054 1.10536 11.2929 1.29289L13.7071 3.70711C13.8946 3.89464 14 4.149 14 4.41421V14C14 14.5523 13.5523 15 13 15H3C2.44772 15 2 14.5523 2 14V2Z" fill="url(#paint0_linear_133_2091)"/>
<path d="M3 0.5C2.17157 0.5 1.5 1.17157 1.5 2V14C1.5 14.8284 2.17157 15.5 3 15.5H13C13.8284 15.5 14.5 14.8284 14.5 14V4.41421C14.5 4.01639 14.342 3.63486 14.0607 3.35355L11.6464 0.93934C11.3651 0.658035 10.9836 0.5 10.5858 0.5H3Z" stroke="url(#paint1_linear_133_2091)" stroke-opacity="0.8" stroke-linejoin="round"/>
<path d="M2.5 2C2.5 1.72386 2.72386 1.5 3 1.5H10C10.2761 1.5 10.5 1.72386 10.5 2V3C10.5 3.82843 11.1716 4.5 12 4.5H13C13.2761 4.5 13.5 4.72386 13.5 5V14C13.5 14.2761 13.2761 14.5 13 14.5H3C2.72386 14.5 2.5 14.2761 2.5 14V2Z" stroke="#EDF3F8" stroke-linejoin="round"/>
<rect x="3.5" y="11.5" width="9" height="2" fill="#93D4FF" stroke="url(#paint2_linear_133_2091)"/>
<path d="M12.5 7.5L8.22366 11.7763C7.76031 12.2397 7.5 12.8681 7.5 13.5234V13.5234C7.5 14.615 8.38495 15.5 9.47659 15.5V15.5C10.1319 15.5 10.7603 15.2397 11.2237 14.7763L15.0835 10.9165C15.3502 10.6498 15.5 10.2833 15.5 9.9061V9.9061C15.5 9.11858 14.8532 8.47293 14.0659 8.48867V8.48867C13.7028 8.49594 13.3566 8.64341 13.0998 8.9002L9.70711 12.2929C9.5745 12.4255 9.5 12.6053 9.5 12.7929V12.7929C9.5 13.1834 9.81658 13.5 10.2071 13.5V13.5C10.3946 13.5 10.5745 13.4255 10.7071 13.2929L14 9.99999" stroke="url(#paint3_linear_133_2091)" stroke-linecap="round"/>
<path d="M12.5 7.5L8.22366 11.7763C7.76031 12.2397 7.5 12.8681 7.5 13.5234V13.5234C7.5 14.615 8.38495 15.5 9.47659 15.5V15.5C10.1319 15.5 10.7603 15.2397 11.2237 14.7763L15.0835 10.9165C15.3502 10.6498 15.5 10.2833 15.5 9.9061V9.9061C15.5 9.11858 14.8532 8.47293 14.0659 8.48867V8.48867C13.7028 8.49594 13.3566 8.64341 13.0998 8.9002L9.70711 12.2929C9.5745 12.4255 9.5 12.6053 9.5 12.7929V12.7929C9.5 13.1834 9.81658 13.5 10.2071 13.5V13.5C10.3946 13.5 10.5745 13.4255 10.7071 13.2929L14 9.99999" stroke="black" stroke-opacity="0.2" stroke-linecap="round"/>
</g>
<defs>
<linearGradient id="paint0_linear_133_2091" x1="2" y1="15" x2="14" y2="0.999999" gradientUnits="userSpaceOnUse">
<stop offset="0.500484" stop-color="#D2E5FD"/>
<stop offset="0.844906" stop-color="#A6CBF0"/>
</linearGradient>
<linearGradient id="paint1_linear_133_2091" x1="2" y1="1.21042" x2="14" y2="15.2104" gradientUnits="userSpaceOnUse">
<stop stop-color="#2F88DF"/>
<stop offset="1" stop-color="#053C92"/>
</linearGradient>
<linearGradient id="paint2_linear_133_2091" x1="3" y1="11" x2="13" y2="14" gradientUnits="userSpaceOnUse">
<stop stop-color="#55B4F8"/>
<stop offset="1" stop-color="#62BCFC"/>
</linearGradient>
<linearGradient id="paint3_linear_133_2091" x1="13.1667" y1="13.26" x2="9.96933" y2="9.92944" gradientUnits="userSpaceOnUse">
<stop stop-color="#565656"/>
<stop offset="1" stop-color="#A5A5A5"/>
</linearGradient>
<clipPath id="clip0_133_2091">
<rect width="16" height="16" fill="white"/>
</clipPath>
</defs>
</svg>
