<svg width="16" height="16" viewBox="0 0 16 16" fill="none" xmlns="http://www.w3.org/2000/svg">
<g clip-path="url(#clip0_381_7195)">
<path d="M3 2C3 1.44772 3.44772 1 4 1H11.5858C11.851 1 12.1054 1.10536 12.2929 1.29289L14.7071 3.70711C14.8946 3.89464 15 4.149 15 4.41421V14C15 14.5523 14.5523 15 14 15H4C3.44772 15 3 14.5523 3 14V2Z" fill="url(#paint0_linear_381_7195)"/>
<path d="M4 0.5C3.17157 0.5 2.5 1.17157 2.5 2V14C2.5 14.8284 3.17157 15.5 4 15.5H14C14.8284 15.5 15.5 14.8284 15.5 14V4.41421C15.5 4.01639 15.342 3.63486 15.0607 3.35355L12.6464 0.93934C12.3651 0.658035 11.9836 0.5 11.5858 0.5H4Z" stroke="#A8A8A8" stroke-opacity="0.66" stroke-linejoin="round"/>
<path d="M3.5 2C3.5 1.72386 3.72386 1.5 4 1.5H11C11.2761 1.5 11.5 1.72386 11.5 2V3C11.5 3.82843 12.1716 4.5 13 4.5H14C14.2761 4.5 14.5 4.72386 14.5 5V14C14.5 14.2761 14.2761 14.5 14 14.5H4C3.72386 14.5 3.5 14.2761 3.5 14V2Z" stroke="white" stroke-linejoin="round"/>
<rect x="0.5" y="2.5" width="5" height="5" stroke="url(#paint1_linear_381_7195)" stroke-linejoin="round"/>
<rect x="7.5" y="4.5" width="3" height="3" stroke="url(#paint2_linear_381_7195)" stroke-linejoin="round"/>
<rect x="1.5" y="9.5" width="4" height="4" stroke="url(#paint3_linear_381_7195)" stroke-linejoin="round"/>
<rect x="7.5" y="9.5" width="3.5" height="3.5" stroke="url(#paint4_linear_381_7195)" stroke-linejoin="round"/>
</g>
<defs>
<linearGradient id="paint0_linear_381_7195" x1="3" y1="15" x2="15" y2="0.999999" gradientUnits="userSpaceOnUse">
<stop offset="0.500484" stop-color="white"/>
<stop offset="0.806982" stop-color="#E6E6E6"/>
<stop offset="0.901248" stop-color="white"/>
</linearGradient>
<linearGradient id="paint1_linear_381_7195" x1="1" y1="3" x2="5" y2="7" gradientUnits="userSpaceOnUse">
<stop stop-color="#D14339"/>
<stop offset="1" stop-color="#F9AD55"/>
</linearGradient>
<linearGradient id="paint2_linear_381_7195" x1="8" y1="5" x2="10" y2="7" gradientUnits="userSpaceOnUse">
<stop stop-color="#5F96C8"/>
<stop offset="1" stop-color="#6FA4CF"/>
</linearGradient>
<linearGradient id="paint3_linear_381_7195" x1="2" y1="10" x2="5" y2="13" gradientUnits="userSpaceOnUse">
<stop stop-color="#E7C352"/>
<stop offset="1" stop-color="#EABA30"/>
</linearGradient>
<linearGradient id="paint4_linear_381_7195" x1="8" y1="10" x2="10.5" y2="12.5" gradientUnits="userSpaceOnUse">
<stop stop-color="#9FC164"/>
<stop offset="1" stop-color="#658247"/>
</linearGradient>
<clipPath id="clip0_381_7195">
<rect width="16" height="16" fill="white"/>
</clipPath>
</defs>
</svg>
