<svg width="16" height="16" viewBox="0 0 16 16" fill="none" xmlns="http://www.w3.org/2000/svg">
<g clip-path="url(#clip0_201_5679)">
<path d="M3 2C3 1.44772 3.44772 1 4 1H11.5858C11.851 1 12.1054 1.10536 12.2929 1.29289L14.7071 3.70711C14.8946 3.89464 15 4.149 15 4.41421V14C15 14.5523 14.5523 15 14 15H4C3.44772 15 3 14.5523 3 14V2Z" fill="url(#paint0_linear_201_5679)"/>
<path d="M4 0.5C3.17157 0.5 2.5 1.17157 2.5 2V14C2.5 14.8284 3.17157 15.5 4 15.5H14C14.8284 15.5 15.5 14.8284 15.5 14V4.41421C15.5 4.01639 15.342 3.63486 15.0607 3.35355L12.6464 0.93934C12.3651 0.658035 11.9836 0.5 11.5858 0.5H4Z" stroke="#A8A8A8" stroke-opacity="0.66" stroke-linejoin="round"/>
<path d="M3.5 2C3.5 1.72386 3.72386 1.5 4 1.5H11C11.2761 1.5 11.5 1.72386 11.5 2V3C11.5 3.82843 12.1716 4.5 13 4.5H14C14.2761 4.5 14.5 4.72386 14.5 5V14C14.5 14.2761 14.2761 14.5 14 14.5H4C3.72386 14.5 3.5 14.2761 3.5 14V2Z" stroke="white" stroke-linejoin="round"/>
<mask id="mask0_201_5679" style="mask-type:alpha" maskUnits="userSpaceOnUse" x="0" y="2" width="15" height="13">
<rect y="2" width="15" height="13" fill="#D9D9D9"/>
</mask>
<g mask="url(#mask0_201_5679)">
<path fill-rule="evenodd" clip-rule="evenodd" d="M19.7328 12.4044C20.4058 8.15522 16.5784 4.01799 11.184 3.1636C5.78957 2.30921 0.870975 5.0612 0.197978 9.31034C-0.47502 13.5595 3.35243 17.6967 8.74684 18.5511C14.1412 19.4055 19.0598 16.6535 19.7328 12.4044ZM19.6549 12.1387C20.0011 9.95275 17.0159 7.66345 12.9872 7.02536C8.95847 6.38728 5.41191 7.64205 5.06569 9.82797C4.71947 12.0139 7.70472 14.3032 11.7334 14.9413C15.7621 15.5794 19.3087 14.3246 19.6549 12.1387Z" fill="url(#paint1_linear_201_5679)"/>
</g>
</g>
<defs>
<linearGradient id="paint0_linear_201_5679" x1="3" y1="15" x2="15" y2="0.999999" gradientUnits="userSpaceOnUse">
<stop offset="0.500484" stop-color="white"/>
<stop offset="0.806982" stop-color="#E6E6E6"/>
<stop offset="0.901248" stop-color="white"/>
</linearGradient>
<linearGradient id="paint1_linear_201_5679" x1="1.99999" y1="15" x2="15" y2="4" gradientUnits="userSpaceOnUse">
<stop offset="0.26611" stop-color="#51B6F8"/>
<stop offset="0.874375" stop-color="#51B6F8" stop-opacity="0"/>
</linearGradient>
<clipPath id="clip0_201_5679">
<rect width="16" height="16" fill="white"/>
</clipPath>
</defs>
</svg>
