<svg width="16" height="16" viewBox="0 0 16 16" fill="none" xmlns="http://www.w3.org/2000/svg">
<g clip-path="url(#clip0_134_1844)">
<path d="M3 2C3 1.44772 3.44772 1 4 1H11.5858C11.851 1 12.1054 1.10536 12.2929 1.29289L14.7071 3.70711C14.8946 3.89464 15 4.149 15 4.41421V14C15 14.5523 14.5523 15 14 15H4C3.44772 15 3 14.5523 3 14V2Z" fill="url(#paint0_linear_134_1844)"/>
<path d="M4 0.5C3.17157 0.5 2.5 1.17157 2.5 2V14C2.5 14.8284 3.17157 15.5 4 15.5H14C14.8284 15.5 15.5 14.8284 15.5 14V4.41421C15.5 4.01639 15.342 3.63486 15.0607 3.35355L12.6464 0.93934C12.3651 0.658035 11.9836 0.5 11.5858 0.5H4Z" stroke="#A8A8A8" stroke-opacity="0.66" stroke-linejoin="round"/>
<path d="M3.5 2C3.5 1.72386 3.72386 1.5 4 1.5H11C11.2761 1.5 11.5 1.72386 11.5 2V3C11.5 3.82843 12.1716 4.5 13 4.5H14C14.2761 4.5 14.5 4.72386 14.5 5V14C14.5 14.2761 14.2761 14.5 14 14.5H4C3.72386 14.5 3.5 14.2761 3.5 14V2Z" stroke="white" stroke-linejoin="round"/>
<path d="M1.079 10.955C1.079 10.295 1.618 9.734 2.3 9.734C2.982 9.734 3.521 10.295 3.521 10.955C3.521 11.626 2.982 12.187 2.3 12.187C1.618 12.187 1.079 11.626 1.079 10.955ZM6.1237 3.662V6.742C6.6187 6.214 7.1907 5.961 7.8397 5.961C8.8737 5.961 9.4457 6.599 9.4457 7.71V12H7.7077V8.194C7.7077 7.49 7.5757 7.248 7.1467 7.248C6.7727 7.248 6.4537 7.523 6.1237 7.963V12H4.3857V3.838L6.1237 3.662Z" fill="url(#paint1_linear_134_1844)"/>
</g>
<defs>
<linearGradient id="paint0_linear_134_1844" x1="3" y1="15" x2="15" y2="0.999999" gradientUnits="userSpaceOnUse">
<stop offset="0.500484" stop-color="white"/>
<stop offset="0.806982" stop-color="#E6E6E6"/>
<stop offset="0.901248" stop-color="white"/>
</linearGradient>
<linearGradient id="paint1_linear_134_1844" x1="-1" y1="4" x2="4.71955" y2="15.2056" gradientUnits="userSpaceOnUse">
<stop stop-color="#99BBEC"/>
<stop offset="1" stop-color="#6190DE"/>
</linearGradient>
<clipPath id="clip0_134_1844">
<rect width="16" height="16" fill="white"/>
</clipPath>
</defs>
</svg>
