<svg width="16" height="16" viewBox="0 0 16 16" fill="none" xmlns="http://www.w3.org/2000/svg">
<g clip-path="url(#clip0_147_4624)">
<path d="M3 2C3 1.44772 3.44772 1 4 1H11.5858C11.851 1 12.1054 1.10536 12.2929 1.29289L14.7071 3.70711C14.8946 3.89464 15 4.149 15 4.41421V14C15 14.5523 14.5523 15 14 15H4C3.44772 15 3 14.5523 3 14V2Z" fill="url(#paint0_linear_147_4624)"/>
<path d="M4 0.5C3.17157 0.5 2.5 1.17157 2.5 2V14C2.5 14.8284 3.17157 15.5 4 15.5H14C14.8284 15.5 15.5 14.8284 15.5 14V4.41421C15.5 4.01639 15.342 3.63486 15.0607 3.35355L12.6464 0.93934C12.3651 0.658035 11.9836 0.5 11.5858 0.5H4Z" stroke="#A8A8A8" stroke-opacity="0.66" stroke-linejoin="round"/>
<path d="M3.5 2C3.5 1.72386 3.72386 1.5 4 1.5H11C11.2761 1.5 11.5 1.72386 11.5 2V3C11.5 3.82843 12.1716 4.5 13 4.5H14C14.2761 4.5 14.5 4.72386 14.5 5V14C14.5 14.2761 14.2761 14.5 14 14.5H4C3.72386 14.5 3.5 14.2761 3.5 14V2Z" stroke="white" stroke-linejoin="round"/>
<ellipse cx="6.5" cy="8" rx="6.5" ry="4" fill="#51539A"/>
<path d="M3.78552 6.34801C4.61952 6.34801 4.93752 7.00201 4.93752 8.01001C4.93752 8.97601 4.51752 9.67801 3.71352 9.67801C3.38352 9.67801 3.11352 9.56401 2.90952 9.33001V10.818L2.23752 10.896V6.43201H2.81952L2.86152 6.84001C3.10152 6.51601 3.43152 6.34801 3.78552 6.34801ZM3.59952 6.86401C3.29952 6.86401 3.06552 7.07401 2.90952 7.32001V8.80201C3.05952 9.03001 3.27552 9.15601 3.53352 9.15601C3.98952 9.15601 4.22952 8.80801 4.22952 8.01601C4.22952 7.20001 4.01952 6.86401 3.59952 6.86401ZM5.90717 5.09401V6.82201C6.16517 6.51001 6.51917 6.34801 6.89117 6.34801C7.48517 6.34801 7.77317 6.69601 7.77317 7.29001V9.60001H7.10117V7.39201C7.10117 7.01401 6.96317 6.86401 6.64517 6.86401C6.34517 6.86401 6.07517 7.09201 5.90717 7.33201V9.60001H5.23517V5.16601L5.90717 5.09401ZM9.78083 6.34801C10.6148 6.34801 10.9328 7.00201 10.9328 8.01001C10.9328 8.97601 10.5128 9.67801 9.70883 9.67801C9.37883 9.67801 9.10883 9.56401 8.90483 9.33001V10.818L8.23283 10.896V6.43201H8.81483L8.85683 6.84001C9.09683 6.51601 9.42683 6.34801 9.78083 6.34801ZM9.59483 6.86401C9.29483 6.86401 9.06083 7.07401 8.90483 7.32001V8.80201C9.05483 9.03001 9.27083 9.15601 9.52883 9.15601C9.98483 9.15601 10.2248 8.80801 10.2248 8.01601C10.2248 7.20001 10.0148 6.86401 9.59483 6.86401Z" fill="white"/>
</g>
<defs>
<linearGradient id="paint0_linear_147_4624" x1="3" y1="15" x2="15" y2="0.999999" gradientUnits="userSpaceOnUse">
<stop offset="0.500484" stop-color="white"/>
<stop offset="0.806982" stop-color="#E6E6E6"/>
<stop offset="0.901248" stop-color="white"/>
</linearGradient>
<clipPath id="clip0_147_4624">
<rect width="16" height="16" fill="white"/>
</clipPath>
</defs>
</svg>
