<svg width="16" height="16" viewBox="0 0 16 16" fill="none" xmlns="http://www.w3.org/2000/svg">
<g clip-path="url(#clip0_393_6252)">
<path d="M3 2C3 1.44772 3.44772 1 4 1H11.5858C11.851 1 12.1054 1.10536 12.2929 1.29289L14.7071 3.70711C14.8946 3.89464 15 4.149 15 4.41421V14C15 14.5523 14.5523 15 14 15H4C3.44772 15 3 14.5523 3 14V2Z" fill="url(#paint0_linear_393_6252)"/>
<path d="M4 0.5C3.17157 0.5 2.5 1.17157 2.5 2V14C2.5 14.8284 3.17157 15.5 4 15.5H14C14.8284 15.5 15.5 14.8284 15.5 14V4.41421C15.5 4.01639 15.342 3.63486 15.0607 3.35355L12.6464 0.93934C12.3651 0.658035 11.9836 0.5 11.5858 0.5H4Z" stroke="#A8A8A8" stroke-opacity="0.66" stroke-linejoin="round"/>
<path d="M3.5 2C3.5 1.72386 3.72386 1.5 4 1.5H11C11.2761 1.5 11.5 1.72386 11.5 2V3C11.5 3.82843 12.1716 4.5 13 4.5H14C14.2761 4.5 14.5 4.72386 14.5 5V14C14.5 14.2761 14.2761 14.5 14 14.5H4C3.72386 14.5 3.5 14.2761 3.5 14V2Z" stroke="white" stroke-linejoin="round"/>
<path d="M11.5 5.81818C11.5 5.36659 11.2468 5.00103 10.933 4.73132C10.6177 4.46021 10.1906 4.23872 9.70641 4.06264C8.73382 3.70897 7.42334 3.5 6 3.5C4.57666 3.5 3.26618 3.70897 2.29359 4.06264C1.80936 4.23872 1.3823 4.46021 1.06696 4.73132C0.753246 5.00103 0.5 5.36659 0.5 5.81818C0.5 7.24803 0.677954 8.90656 1.46378 10.2201C2.2771 11.5797 3.69902 12.5 6 12.5C8.30098 12.5 9.7229 11.5797 10.5362 10.2201C11.322 8.90656 11.5 7.24803 11.5 5.81818Z" fill="url(#paint1_linear_393_6252)" stroke="url(#paint2_linear_393_6252)"/>
<path d="M10.5 5.81818C10.5 7.19997 10.3208 8.63234 9.67806 9.70676C9.06281 10.7352 7.98474 11.5 6 11.5C4.01526 11.5 2.93719 10.7352 2.32194 9.70676C1.67919 8.63234 1.5 7.19997 1.5 5.81818C1.5 5.76769 1.52658 5.65494 1.71889 5.48961C1.90957 5.32567 2.21475 5.15537 2.63534 5.00243C3.4724 4.69805 4.66191 4.5 6 4.5C7.33809 4.5 8.5276 4.69805 9.36466 5.00243C9.78525 5.15537 10.0904 5.32567 10.2811 5.48961C10.4734 5.65494 10.5 5.76769 10.5 5.81818Z" stroke="white" stroke-opacity="0.66"/>
<path d="M2.5 9.5C2.36536 8.96562 2.66481 8.61971 2.90413 8.14798C3.14346 7.67626 2.90413 7.21337 2.52331 7.07846C2.14248 6.94356 1.76165 6.93654 1.38083 7.43496C1 7.93338 1 8.45155 1 8.86097C1 10.2 2 11 3 11C3.27042 11 3.5 10.7545 3.5 10.5C3.5 10 2.63493 10.0355 2.5 9.5Z" fill="white"/>
<path d="M2.98485 9.37784C2.95003 9.23965 2.96599 9.13128 3.02374 8.9919C3.05597 8.91413 3.09957 8.83119 3.15797 8.72628C3.16935 8.70583 3.18147 8.68424 3.19413 8.66171C3.24226 8.57599 3.29809 8.47658 3.35003 8.3742C3.72774 7.62973 3.35153 6.84141 2.69026 6.60716C2.45861 6.5251 2.16294 6.45785 1.84026 6.53188C1.50789 6.60813 1.22488 6.81551 0.983527 7.13139C0.499553 7.76481 0.499825 8.42884 0.499994 8.83857C0.499997 8.84613 0.5 8.85359 0.5 8.86097C0.5 10.4858 1.73359 11.5 3 11.5C3.5567 11.5 4 11.0204 4 10.5C4 10.2024 3.86041 9.98426 3.69834 9.8375C3.5636 9.71548 3.39769 9.62983 3.29244 9.57549C3.28829 9.57334 3.28423 9.57125 3.28027 9.5692C3.15144 9.50258 3.07883 9.46394 3.02488 9.42093C3.00223 9.40287 2.99246 9.39105 2.98875 9.38584C2.98608 9.3821 2.98555 9.38063 2.98485 9.37784Z" stroke="url(#paint3_linear_393_6252)"/>
<path d="M10.5 6C10.5 6.09436 10.4543 6.23484 10.2635 6.41521C10.0717 6.59658 9.76739 6.78296 9.34984 6.94998C8.51752 7.2829 7.33339 7.5 6 7.5C4.66661 7.5 3.48248 7.2829 2.65016 6.94998C2.23261 6.78296 1.92826 6.59658 1.73648 6.41521C1.54575 6.23484 1.5 6.09436 1.5 6C1.5 5.90564 1.54575 5.76516 1.73648 5.58479C1.92826 5.40342 2.23261 5.21704 2.65016 5.05002C3.48248 4.7171 4.66661 4.5 6 4.5C7.33339 4.5 8.51752 4.7171 9.34984 5.05002C9.76739 5.21704 10.0717 5.40342 10.2635 5.58479C10.4543 5.76516 10.5 5.90564 10.5 6Z" fill="url(#paint4_linear_393_6252)" stroke="url(#paint5_linear_393_6252)"/>
<ellipse cx="6" cy="6" rx="4" ry="1" fill="#8F5035"/>
</g>
<defs>
<linearGradient id="paint0_linear_393_6252" x1="3" y1="15" x2="15" y2="0.999999" gradientUnits="userSpaceOnUse">
<stop offset="0.500484" stop-color="white"/>
<stop offset="0.806982" stop-color="#E6E6E6"/>
<stop offset="0.901248" stop-color="white"/>
</linearGradient>
<linearGradient id="paint1_linear_393_6252" x1="1.62686" y1="12.4052" x2="8.03908" y2="6.47616" gradientUnits="userSpaceOnUse">
<stop offset="0.308746" stop-color="#E5E5E5"/>
<stop offset="1" stop-color="#C4C4C4"/>
</linearGradient>
<linearGradient id="paint2_linear_393_6252" x1="2.04625" y1="4" x2="10.0953" y2="11.855" gradientUnits="userSpaceOnUse">
<stop stop-color="#D9D9D9"/>
<stop offset="1" stop-color="#B3B3B3"/>
</linearGradient>
<linearGradient id="paint3_linear_393_6252" x1="1" y1="9" x2="4" y2="9" gradientUnits="userSpaceOnUse">
<stop stop-color="#AEAEAE"/>
<stop offset="0.558695" stop-color="#C4C4C4"/>
<stop offset="1" stop-color="#C4C4C4" stop-opacity="0.66"/>
</linearGradient>
<linearGradient id="paint4_linear_393_6252" x1="6" y1="4" x2="6" y2="8" gradientUnits="userSpaceOnUse">
<stop stop-color="#F6F6F6"/>
<stop offset="1" stop-color="#A8A8A8"/>
</linearGradient>
<linearGradient id="paint5_linear_393_6252" x1="1" y1="6.00139" x2="11" y2="5.99917" gradientUnits="userSpaceOnUse">
<stop stop-color="white"/>
<stop offset="1" stop-color="#F0F0F0"/>
</linearGradient>
<clipPath id="clip0_393_6252">
<rect width="16" height="16" fill="white"/>
</clipPath>
</defs>
</svg>
