<svg width="16" height="16" viewBox="0 0 16 16" fill="none" xmlns="http://www.w3.org/2000/svg">
<path d="M2 2C2 1.44772 2.44772 1 3 1H10.5858C10.851 1 11.1054 1.10536 11.2929 1.29289L13.7071 3.70711C13.8946 3.89464 14 4.149 14 4.41421V14C14 14.5523 13.5523 15 13 15H3C2.44772 15 2 14.5523 2 14V2Z" fill="url(#paint0_linear_99_13030)"/>
<path d="M3 0.5C2.17157 0.5 1.5 1.17157 1.5 2V14C1.5 14.8284 2.17157 15.5 3 15.5H13C13.8284 15.5 14.5 14.8284 14.5 14V4.41421C14.5 4.01639 14.342 3.63486 14.0607 3.35355L11.6464 0.93934C11.3651 0.658035 10.9836 0.5 10.5858 0.5H3Z" stroke="#A8A8A8" stroke-opacity="0.66" stroke-linejoin="round"/>
<path d="M2.5 2C2.5 1.72386 2.72386 1.5 3 1.5H10C10.2761 1.5 10.5 1.72386 10.5 2V3C10.5 3.82843 11.1716 4.5 12 4.5H13C13.2761 4.5 13.5 4.72386 13.5 5V14C13.5 14.2761 13.2761 14.5 13 14.5H3C2.72386 14.5 2.5 14.2761 2.5 14V2Z" stroke="white" stroke-linejoin="round"/>
<g filter="url(#filter0_i_99_13030)">
<path d="M10 13V16H14V13H16L12 9L8 13H10Z" fill="#82C27C"/>
</g>
<path d="M10.5 13C10.5 12.7239 10.2761 12.5 10 12.5H9.20711L12 9.70711L14.7929 12.5H14C13.7239 12.5 13.5 12.7239 13.5 13V15.5H10.5V13Z" stroke="url(#paint1_linear_99_13030)" stroke-linejoin="round"/>
<defs>
<filter id="filter0_i_99_13030" x="8" y="9" width="9" height="8" filterUnits="userSpaceOnUse" color-interpolation-filters="sRGB">
<feFlood flood-opacity="0" result="BackgroundImageFix"/>
<feBlend mode="normal" in="SourceGraphic" in2="BackgroundImageFix" result="shape"/>
<feColorMatrix in="SourceAlpha" type="matrix" values="0 0 0 0 0 0 0 0 0 0 0 0 0 0 0 0 0 0 127 0" result="hardAlpha"/>
<feOffset dx="1" dy="1"/>
<feGaussianBlur stdDeviation="1"/>
<feComposite in2="hardAlpha" operator="arithmetic" k2="-1" k3="1"/>
<feColorMatrix type="matrix" values="0 0 0 0 0.71381 0 0 0 0 0.864312 0 0 0 0 0.687251 0 0 0 1 0"/>
<feBlend mode="normal" in2="shape" result="effect1_innerShadow_99_13030"/>
</filter>
<linearGradient id="paint0_linear_99_13030" x1="2" y1="15" x2="14" y2="0.999999" gradientUnits="userSpaceOnUse">
<stop offset="0.500484" stop-color="white"/>
<stop offset="0.806982" stop-color="#E6E6E6"/>
<stop offset="0.901248" stop-color="white"/>
</linearGradient>
<linearGradient id="paint1_linear_99_13030" x1="14.8571" y1="15" x2="9.90139" y2="9.33628" gradientUnits="userSpaceOnUse">
<stop stop-color="#2A6B26"/>
<stop offset="1" stop-color="#80C178"/>
</linearGradient>
</defs>
</svg>
