<svg width="16" height="16" viewBox="0 0 16 16" fill="none" xmlns="http://www.w3.org/2000/svg">
<g clip-path="url(#clip0_99_13034)">
<path d="M3 2C3 1.44772 3.44772 1 4 1H11.5858C11.851 1 12.1054 1.10536 12.2929 1.29289L14.7071 3.70711C14.8946 3.89464 15 4.149 15 4.41421V14C15 14.5523 14.5523 15 14 15H4C3.44772 15 3 14.5523 3 14V2Z" fill="url(#paint0_linear_99_13034)"/>
<path d="M4 0.5C3.17157 0.5 2.5 1.17157 2.5 2V14C2.5 14.8284 3.17157 15.5 4 15.5H14C14.8284 15.5 15.5 14.8284 15.5 14V4.41421C15.5 4.01639 15.342 3.63486 15.0607 3.35355L12.6464 0.93934C12.3651 0.658035 11.9836 0.5 11.5858 0.5H4Z" stroke="#A8A8A8" stroke-opacity="0.66" stroke-linejoin="round"/>
<path d="M3.5 2C3.5 1.72386 3.72386 1.5 4 1.5H11C11.2761 1.5 11.5 1.72386 11.5 2V3C11.5 3.82843 12.1716 4.5 13 4.5H14C14.2761 4.5 14.5 4.72386 14.5 5V14C14.5 14.2761 14.2761 14.5 14 14.5H4C3.72386 14.5 3.5 14.2761 3.5 14V2Z" stroke="white" stroke-linejoin="round"/>
<mask id="path-4-inside-1_99_13034" fill="white">
<path fill-rule="evenodd" clip-rule="evenodd" d="M8 5V11C8 12.1046 6.20914 13 4 13C1.79086 13 0 12.1046 0 11V5C0 3.89543 1.79086 3 4 3C6.20914 3 8 3.89543 8 5Z"/>
</mask>
<path fill-rule="evenodd" clip-rule="evenodd" d="M8 5V11C8 12.1046 6.20914 13 4 13C1.79086 13 0 12.1046 0 11V5C0 3.89543 1.79086 3 4 3C6.20914 3 8 3.89543 8 5Z" fill="url(#paint1_linear_99_13034)"/>
<path d="M7 5V11H9V5H7ZM4 14C5.22615 14 6.38566 13.7536 7.27564 13.3086C8.1058 12.8936 9 12.1351 9 11H7C7 11.0011 6.99993 11.0026 6.99936 11.0054C6.99876 11.0084 6.99723 11.0146 6.99324 11.0243C6.98516 11.044 6.96583 11.0811 6.92219 11.1326C6.83098 11.2405 6.6598 11.3805 6.38121 11.5198C5.82347 11.7987 4.98299 12 4 12V14ZM-1 11C-1 12.1351 -0.105803 12.8936 0.724359 13.3086C1.61434 13.7536 2.77385 14 4 14V12C3.01701 12 2.17653 11.7987 1.61879 11.5198C1.3402 11.3805 1.16902 11.2405 1.07781 11.1326C1.03417 11.0811 1.01484 11.044 1.00676 11.0243C1.00277 11.0146 1.00124 11.0084 1.00064 11.0054C1.00007 11.0026 1 11.0011 1 11H-1ZM1 11V5H-1V11H1ZM4 2C2.77385 2 1.61434 2.24637 0.724359 2.69136C-0.105803 3.10644 -1 3.86489 -1 5H1C1 4.99894 1.00007 4.99739 1.00064 4.99456C1.00124 4.99161 1.00277 4.98543 1.00676 4.9757C1.01484 4.95595 1.03417 4.91894 1.07781 4.86735C1.16902 4.75953 1.3402 4.61951 1.61879 4.48021C2.17653 4.20134 3.01701 4 4 4V2ZM9 5C9 3.86489 8.1058 3.10644 7.27564 2.69136C6.38566 2.24637 5.22615 2 4 2V4C4.98299 4 5.82347 4.20134 6.38121 4.48021C6.6598 4.61951 6.83098 4.75953 6.92219 4.86735C6.96583 4.91894 6.98516 4.95595 6.99324 4.9757C6.99723 4.98543 6.99876 4.99161 6.99936 4.99456C6.99993 4.99739 7 4.99894 7 5H9Z" fill="url(#paint2_linear_99_13034)" fill-opacity="0.5" mask="url(#path-4-inside-1_99_13034)"/>
<g filter="url(#filter0_d_99_13034)">
<ellipse cx="4" cy="5" rx="3" ry="1" fill="white"/>
</g>
<mask id="path-7-inside-2_99_13034" fill="white">
<path fill-rule="evenodd" clip-rule="evenodd" d="M7 5V11C7 11.5523 5.65685 12 4 12C2.34315 12 1 11.5523 1 11V5C1 4.44772 2.34315 4 4 4C5.65685 4 7 4.44772 7 5Z"/>
</mask>
<path d="M6 5V11H8V5H6ZM4 13C4.906 13 5.76773 12.8791 6.43755 12.6558C6.76723 12.5459 7.10616 12.393 7.38322 12.1747C7.649 11.9652 8 11.5758 8 11H6C6 10.7003 6.18311 10.574 6.14527 10.6038C6.11871 10.6248 6.0183 10.6874 5.80509 10.7584C5.38912 10.8971 4.75086 11 4 11V13ZM0 11C0 11.5758 0.351 11.9652 0.616781 12.1747C0.893836 12.393 1.23277 12.5459 1.56245 12.6558C2.23227 12.8791 3.094 13 4 13V11C3.24914 11 2.61088 10.8971 2.19491 10.7584C1.9817 10.6874 1.88129 10.6248 1.85473 10.6038C1.81689 10.574 2 10.7003 2 11H0ZM2 11V5H0V11H2ZM4 3C3.094 3 2.23227 3.12094 1.56245 3.34421C1.23277 3.4541 0.893836 3.607 0.616781 3.82534C0.351 4.0348 0 4.4242 0 5H2C2 5.29966 1.81689 5.42598 1.85473 5.39617C1.88129 5.37523 1.9817 5.31265 2.19491 5.24158C2.61088 5.10292 3.24914 5 4 5V3ZM8 5C8 4.4242 7.649 4.0348 7.38322 3.82534C7.10616 3.607 6.76723 3.4541 6.43755 3.34421C5.76773 3.12094 4.906 3 4 3V5C4.75086 5 5.38912 5.10292 5.80509 5.24158C6.0183 5.31265 6.11871 5.37523 6.14527 5.39617C6.18311 5.42598 6 5.29966 6 5H8Z" fill="url(#paint3_linear_99_13034)" mask="url(#path-7-inside-2_99_13034)"/>
</g>
<defs>
<filter id="filter0_d_99_13034" x="1" y="4" width="6" height="3" filterUnits="userSpaceOnUse" color-interpolation-filters="sRGB">
<feFlood flood-opacity="0" result="BackgroundImageFix"/>
<feColorMatrix in="SourceAlpha" type="matrix" values="0 0 0 0 0 0 0 0 0 0 0 0 0 0 0 0 0 0 127 0" result="hardAlpha"/>
<feOffset dy="1"/>
<feComposite in2="hardAlpha" operator="out"/>
<feColorMatrix type="matrix" values="0 0 0 0 0 0 0 0 0 0 0 0 0 0 0 0 0 0 0.1 0"/>
<feBlend mode="normal" in2="BackgroundImageFix" result="effect1_dropShadow_99_13034"/>
<feBlend mode="normal" in="SourceGraphic" in2="effect1_dropShadow_99_13034" result="shape"/>
</filter>
<linearGradient id="paint0_linear_99_13034" x1="3" y1="15" x2="15" y2="0.999999" gradientUnits="userSpaceOnUse">
<stop offset="0.500484" stop-color="white"/>
<stop offset="0.806982" stop-color="#E6E6E6"/>
<stop offset="0.901248" stop-color="white"/>
</linearGradient>
<linearGradient id="paint1_linear_99_13034" x1="9.16995e-08" y1="7.61538" x2="8" y2="7.61538" gradientUnits="userSpaceOnUse">
<stop stop-color="#EEEEEE"/>
<stop offset="1" stop-color="#C2C2C2"/>
</linearGradient>
<linearGradient id="paint2_linear_99_13034" x1="8" y1="13.7143" x2="0.432439" y2="2.70281" gradientUnits="userSpaceOnUse">
<stop offset="0.0914634" stop-color="#727272"/>
<stop offset="0.917175" stop-color="#B8B8B8"/>
</linearGradient>
<linearGradient id="paint3_linear_99_13034" x1="7" y1="12" x2="0.807922" y2="4.15154" gradientUnits="userSpaceOnUse">
<stop stop-color="#E7E7E7"/>
<stop offset="0.883197" stop-color="white"/>
</linearGradient>
<clipPath id="clip0_99_13034">
<rect width="16" height="16" fill="white"/>
</clipPath>
</defs>
</svg>
