<svg width="16" height="16" viewBox="0 0 16 16" fill="none" xmlns="http://www.w3.org/2000/svg">
<g clip-path="url(#clip0_385_6292)">
<path d="M3 2C3 1.44772 3.44772 1 4 1H11.5858C11.851 1 12.1054 1.10536 12.2929 1.29289L14.7071 3.70711C14.8946 3.89464 15 4.149 15 4.41421V14C15 14.5523 14.5523 15 14 15H4C3.44772 15 3 14.5523 3 14V2Z" fill="url(#paint0_linear_385_6292)"/>
<path d="M4 0.5C3.17157 0.5 2.5 1.17157 2.5 2V14C2.5 14.8284 3.17157 15.5 4 15.5H14C14.8284 15.5 15.5 14.8284 15.5 14V4.41421C15.5 4.01639 15.342 3.63486 15.0607 3.35355L12.6464 0.93934C12.3651 0.658035 11.9836 0.5 11.5858 0.5H4Z" stroke="#A8A8A8" stroke-opacity="0.66" stroke-linejoin="round"/>
<path d="M3.5 2C3.5 1.72386 3.72386 1.5 4 1.5H11C11.2761 1.5 11.5 1.72386 11.5 2V3C11.5 3.82843 12.1716 4.5 13 4.5H14C14.2761 4.5 14.5 4.72386 14.5 5V14C14.5 14.2761 14.2761 14.5 14 14.5H4C3.72386 14.5 3.5 14.2761 3.5 14V2Z" stroke="white" stroke-linejoin="round"/>
<path fill-rule="evenodd" clip-rule="evenodd" d="M8.06763 5.28073C8.6293 4.25284 9.68808 3 11.5 3H13V6H11.5C11.3119 6 11.0493 6.08049 10.7002 6.71927C10.6507 6.80984 10.6041 6.90365 10.56 7H12V10H9.6366C9.46722 10.5413 9.24014 11.156 8.93237 11.7193C8.3707 12.7472 7.31192 14 5.5 14H3.5C1.567 14 0 12.433 0 10.5C0 8.567 1.567 7 3.5 7H5V10H3.5C3.22386 10 3 10.2239 3 10.5C3 10.7761 3.22386 11 3.5 11H5.5C5.68808 11 5.95072 10.9195 6.29977 10.2807C6.63555 9.66623 6.83964 8.90277 7.02541 8.20786C7.034 8.17572 7.04255 8.14372 7.05108 8.1119C7.06337 8.06601 7.07638 8.01687 7.09017 7.96479C7.26069 7.32079 7.55008 6.22788 8.06763 5.28073Z" fill="url(#paint1_linear_385_6292)"/>
<path d="M4.5 7.5V9.5H3.5C2.94772 9.5 2.5 9.94771 2.5 10.5C2.5 11.0523 2.94772 11.5 3.5 11.5H5.5C5.68658 11.5 5.90883 11.4536 6.14023 11.2794C6.35227 11.1198 6.54651 10.8719 6.73854 10.5205C7.10326 9.85302 7.32019 9.04137 7.50067 8.36609L7.50844 8.33699L7.53405 8.24126L7.57351 8.09278C7.74554 7.4431 8.02198 6.407 8.50639 5.52049C9.03444 4.55413 9.96114 3.5 11.5 3.5H12.5V5.5H11.5C11.3134 5.5 11.0912 5.54643 10.8598 5.72063C10.6477 5.88024 10.4535 6.1281 10.2615 6.47951C10.2057 6.58154 10.1539 6.68597 10.1054 6.79178L9.78099 7.5H10.56H11.5V9.5H9.6366H9.26916L9.15942 9.85067C8.99494 10.3763 8.77934 10.9566 8.49361 11.4795C7.96556 12.4459 7.03886 13.5 5.5 13.5H3.5C1.84315 13.5 0.5 12.1569 0.5 10.5C0.5 8.84315 1.84315 7.5 3.5 7.5H4.5Z" stroke="#005177" stroke-opacity="0.33"/>
</g>
<defs>
<linearGradient id="paint0_linear_385_6292" x1="3" y1="15" x2="15" y2="0.999999" gradientUnits="userSpaceOnUse">
<stop offset="0.500484" stop-color="white"/>
<stop offset="0.806982" stop-color="#E6E6E6"/>
<stop offset="0.901248" stop-color="white"/>
</linearGradient>
<linearGradient id="paint1_linear_385_6292" x1="10.5" y1="12.5" x2="2.5" y2="4.5" gradientUnits="userSpaceOnUse">
<stop stop-color="#4AC6FF"/>
<stop offset="1" stop-color="#6DD6FF"/>
</linearGradient>
<clipPath id="clip0_385_6292">
<rect width="16" height="16" fill="white"/>
</clipPath>
</defs>
</svg>
