<svg width="16" height="16" viewBox="0 0 16 16" fill="none" xmlns="http://www.w3.org/2000/svg">
<g clip-path="url(#clip0_385_6258)">
<path d="M3 2C3 1.44772 3.44772 1 4 1H11.5858C11.851 1 12.1054 1.10536 12.2929 1.29289L14.7071 3.70711C14.8946 3.89464 15 4.149 15 4.41421V14C15 14.5523 14.5523 15 14 15H4C3.44772 15 3 14.5523 3 14V2Z" fill="url(#paint0_linear_385_6258)"/>
<path d="M4 0.5C3.17157 0.5 2.5 1.17157 2.5 2V14C2.5 14.8284 3.17157 15.5 4 15.5H14C14.8284 15.5 15.5 14.8284 15.5 14V4.41421C15.5 4.01639 15.342 3.63486 15.0607 3.35355L12.6464 0.93934C12.3651 0.658035 11.9836 0.5 11.5858 0.5H4Z" stroke="#A8A8A8" stroke-opacity="0.66" stroke-linejoin="round"/>
<path d="M3.5 2C3.5 1.72386 3.72386 1.5 4 1.5H11C11.2761 1.5 11.5 1.72386 11.5 2V3C11.5 3.82843 12.1716 4.5 13 4.5H14C14.2761 4.5 14.5 4.72386 14.5 5V14C14.5 14.2761 14.2761 14.5 14 14.5H4C3.72386 14.5 3.5 14.2761 3.5 14V2Z" stroke="white" stroke-linejoin="round"/>
<path d="M6.10539 6.79178L5.78099 7.5H6.55998H7.5V9.5H5.6366H5.26916L5.15942 9.85067C4.99495 10.3763 4.77934 10.9566 4.49361 11.4795C3.96556 12.4459 3.03886 13.5 1.5 13.5H0.5V11.5H1.5C1.68658 11.5 1.90883 11.4536 2.14023 11.2794C2.35227 11.1198 2.54651 10.8719 2.73854 10.5205C3.10326 9.85301 3.32019 9.04136 3.50067 8.36609L3.50845 8.33699L3.53405 8.24126L3.57351 8.09277C3.74554 7.44309 4.02198 6.407 4.50639 5.52049C5.03444 4.55413 5.96114 3.5 7.5 3.5H8.5V5.5H7.5C7.31342 5.5 7.09117 5.54643 6.85977 5.72063C6.64773 5.88024 6.45349 6.1281 6.26146 6.47951C6.20571 6.58154 6.15386 6.68597 6.10539 6.79178Z" fill="#FC7E78" stroke="#F23A3F" stroke-miterlimit="3.8637" stroke-linecap="square"/>
<path d="M8.24733 10.6477V10.1506C8.5693 10.1506 8.79373 10.0852 8.92062 9.95455C9.04941 9.82197 9.11381 9.60701 9.11381 9.30966V8.58523C9.11381 8.26515 9.15358 8.00284 9.23312 7.7983C9.31456 7.59375 9.43294 7.43466 9.58824 7.32102C9.74354 7.20739 9.93294 7.12879 10.1564 7.08523C10.3799 7.03977 10.6337 7.01705 10.9178 7.01705V7.80682C10.6943 7.80682 10.5229 7.83807 10.4036 7.90057C10.2843 7.96117 10.2019 8.05492 10.1564 8.18182C10.1129 8.30871 10.0911 8.47064 10.0911 8.66761V9.59943C10.0911 9.74527 10.0665 9.88163 10.0172 10.0085C9.96797 10.1354 9.87801 10.2472 9.74733 10.3438C9.61665 10.4384 9.43009 10.5133 9.18767 10.5682C8.94714 10.6212 8.63369 10.6477 8.24733 10.6477ZM10.9178 14.2358C10.6337 14.2358 10.3799 14.2131 10.1564 14.1676C9.93294 14.1241 9.74354 14.0455 9.58824 13.9318C9.43294 13.8182 9.31456 13.6591 9.23312 13.4545C9.15358 13.25 9.11381 12.9877 9.11381 12.6676V11.946C9.11381 11.6487 9.04941 11.4347 8.92062 11.304C8.79373 11.1714 8.5693 11.1051 8.24733 11.1051V10.608C8.63369 10.608 8.94714 10.6354 9.18767 10.6903C9.43009 10.7434 9.61665 10.8182 9.74733 10.9148C9.87801 11.0095 9.96797 11.1203 10.0172 11.2472C10.0665 11.3741 10.0911 11.5095 10.0911 11.6534V12.5852C10.0911 12.7822 10.1129 12.9441 10.1564 13.071C10.2019 13.1979 10.2843 13.2926 10.4036 13.3551C10.5229 13.4176 10.6943 13.4489 10.9178 13.4489V14.2358ZM8.24733 11.1051V10.1506H9.1479V11.1051H8.24733ZM14.7351 10.608V11.1051C14.4131 11.1051 14.1877 11.1714 14.0589 11.304C13.9321 11.4347 13.8686 11.6487 13.8686 11.946V12.6676C13.8686 12.9877 13.8279 13.25 13.7464 13.4545C13.6669 13.6591 13.5495 13.8182 13.3942 13.9318C13.2389 14.0455 13.0495 14.1241 12.826 14.1676C12.6025 14.2131 12.3487 14.2358 12.0646 14.2358V13.4489C12.2881 13.4489 12.4595 13.4176 12.5788 13.3551C12.6982 13.2926 12.7796 13.1979 12.8232 13.071C12.8686 12.9441 12.8913 12.7822 12.8913 12.5852V11.6534C12.8913 11.5095 12.916 11.3741 12.9652 11.2472C13.0144 11.1203 13.1044 11.0095 13.2351 10.9148C13.3658 10.8182 13.5514 10.7434 13.7919 10.6903C14.0343 10.6354 14.3487 10.608 14.7351 10.608ZM12.0646 7.01705C12.3487 7.01705 12.6025 7.03977 12.826 7.08523C13.0495 7.12879 13.2389 7.20739 13.3942 7.32102C13.5495 7.43466 13.6669 7.59375 13.7464 7.7983C13.8279 8.00284 13.8686 8.26515 13.8686 8.58523V9.30966C13.8686 9.60701 13.9321 9.82197 14.0589 9.95455C14.1877 10.0852 14.4131 10.1506 14.7351 10.1506V10.6477C14.3487 10.6477 14.0343 10.6212 13.7919 10.5682C13.5514 10.5133 13.3658 10.4384 13.2351 10.3438C13.1044 10.2472 13.0144 10.1354 12.9652 10.0085C12.916 9.88163 12.8913 9.74527 12.8913 9.59943V8.66761C12.8913 8.47064 12.8686 8.30871 12.8232 8.18182C12.7796 8.05492 12.6982 7.96117 12.5788 7.90057C12.4595 7.83807 12.2881 7.80682 12.0646 7.80682V7.01705ZM14.7351 10.1506V11.1051H13.8345V10.1506H14.7351Z" fill="#A8A8A8"/>
</g>
<defs>
<linearGradient id="paint0_linear_385_6258" x1="3" y1="15" x2="15" y2="0.999999" gradientUnits="userSpaceOnUse">
<stop offset="0.500484" stop-color="white"/>
<stop offset="0.806982" stop-color="#E6E6E6"/>
<stop offset="0.901248" stop-color="white"/>
</linearGradient>
<clipPath id="clip0_385_6258">
<rect width="16" height="16" fill="white"/>
</clipPath>
</defs>
</svg>
