<svg width="16" height="16" viewBox="0 0 16 16" fill="none" xmlns="http://www.w3.org/2000/svg">
<g clip-path="url(#clip0_301_8832)">
<rect x="1" y="2" width="10" height="12" rx="1" fill="url(#paint0_linear_301_8832)"/>
<rect x="1.5" y="2.5" width="9" height="11" rx="0.5" stroke="white" stroke-opacity="0.33"/>
<rect x="0.5" y="1.5" width="11" height="13" rx="1.5" stroke="#956324"/>
<rect x="4" y="1" width="4" height="2" fill="#F0D475"/>
<rect x="3.5" y="0.5" width="5" height="3" stroke="#C7822A" stroke-opacity="0.698039"/>
<mask id="path-6-inside-1_301_8832" fill="white">
<path d="M4 1H8V3H4V1Z"/>
</mask>
<path d="M7 1V3H9V1H7ZM5 3V1H3V3H5Z" fill="#FDEEB5" mask="url(#path-6-inside-1_301_8832)"/>
<rect x="7" y="7" width="8" height="8" fill="url(#paint1_linear_301_8832)"/>
<rect x="6.5" y="6.5" width="9" height="9" stroke="#A8A8A8" stroke-opacity="0.66" stroke-linejoin="round"/>
<path d="M8 8.5C8 8.22386 8.22386 8 8.5 8H13.5C13.7761 8 14 8.22386 14 8.5C14 8.77614 13.7761 9 13.5 9H8.5C8.22386 9 8 8.77614 8 8.5Z" fill="#D9D9D9"/>
<path d="M8 10.5C8 10.2239 8.22386 10 8.5 10H13.5C13.7761 10 14 10.2239 14 10.5C14 10.7761 13.7761 11 13.5 11H8.5C8.22386 11 8 10.7761 8 10.5Z" fill="#D9D9D9"/>
<path d="M8 12.5C8 12.2239 8.22386 12 8.5 12H13.5C13.7761 12 14 12.2239 14 12.5C14 12.7761 13.7761 13 13.5 13H8.5C8.22386 13 8 12.7761 8 12.5Z" fill="#D9D9D9"/>
</g>
<defs>
<linearGradient id="paint0_linear_301_8832" x1="1" y1="2.01837" x2="11" y2="13.9816" gradientUnits="userSpaceOnUse">
<stop stop-color="#DEB269"/>
<stop offset="1" stop-color="#C37931"/>
</linearGradient>
<linearGradient id="paint1_linear_301_8832" x1="7" y1="15" x2="13.6216" y2="5.98729" gradientUnits="userSpaceOnUse">
<stop offset="0.500484" stop-color="white"/>
<stop offset="0.872799" stop-color="#E6E6E6"/>
</linearGradient>
<clipPath id="clip0_301_8832">
<rect width="16" height="16" fill="white"/>
</clipPath>
</defs>
</svg>
