<svg width="16" height="16" viewBox="0 0 16 16" fill="none" xmlns="http://www.w3.org/2000/svg">
<g clip-path="url(#clip0_134_1819)">
<path d="M3 2C3 1.44772 3.44772 1 4 1H11.5858C11.851 1 12.1054 1.10536 12.2929 1.29289L14.7071 3.70711C14.8946 3.89464 15 4.149 15 4.41421V14C15 14.5523 14.5523 15 14 15H4C3.44772 15 3 14.5523 3 14V2Z" fill="url(#paint0_linear_134_1819)"/>
<path d="M4 0.5C3.17157 0.5 2.5 1.17157 2.5 2V14C2.5 14.8284 3.17157 15.5 4 15.5H14C14.8284 15.5 15.5 14.8284 15.5 14V4.41421C15.5 4.01639 15.342 3.63486 15.0607 3.35355L12.6464 0.93934C12.3651 0.658035 11.9836 0.5 11.5858 0.5H4Z" stroke="url(#paint1_linear_134_1819)" stroke-opacity="0.8" stroke-linejoin="round"/>
<path d="M3.5 2C3.5 1.72386 3.72386 1.5 4 1.5H11C11.2761 1.5 11.5 1.72386 11.5 2V3C11.5 3.82843 12.1716 4.5 13 4.5H14C14.2761 4.5 14.5 4.72386 14.5 5V14C14.5 14.2761 14.2761 14.5 14 14.5H4C3.72386 14.5 3.5 14.2761 3.5 14V2Z" stroke="#EDF3F8" stroke-linejoin="round"/>
<rect x="4.5" y="11.5" width="9" height="2" fill="#93D4FF" stroke="url(#paint2_linear_134_1819)"/>
<circle cx="5.5" cy="8.5" r="5" fill="url(#paint3_linear_134_1819)" stroke="url(#paint4_linear_134_1819)"/>
<mask id="mask0_134_1819" style="mask-type:alpha" maskUnits="userSpaceOnUse" x="1" y="4" width="9" height="9">
<circle cx="5.5" cy="8.5" r="4.5" fill="#D9D9D9"/>
</mask>
<g mask="url(#mask0_134_1819)">
<g filter="url(#filter0_d_134_1819)">
<path d="M7.42984 8.8217C6.78674 9.14325 6.45695 8.8217 6.21943 8.8217C5.89788 8.8217 5.50054 8.69308 5.50054 8.17861C5.50054 7.53551 5.8221 7.53551 6.4652 6.89241C7.1083 6.24931 7.42985 6.24931 7.7514 5.28466C8.03901 4.42185 8.39449 5.60621 9.68069 4.96311C10.9669 4.32001 10.3238 4.32001 10.9669 4.32001C11.61 4.32001 11.61 6.24931 11.61 7.53551C11.61 8.8217 11.2884 11.0726 10.6453 12.3588C10.0022 13.645 6.86253 13.9665 6.21943 13.9665C5.57633 13.9665 6.4652 12.3588 6.78674 11.7157C7.10828 11.0726 7.79524 11.0371 8.14873 10.751C8.54606 10.4295 8.14873 10.1079 8.47028 9.4648C8.79183 8.8217 8.71603 8.17861 7.42984 8.8217Z" fill="url(#paint5_linear_134_1819)"/>
<path d="M3.32548 7.21396C3.07973 7.53551 3.32548 8.17861 3.32548 8.50015C3.32548 8.8217 2.68238 9.20756 2.68238 9.4648C2.68238 10.1079 2.43662 9.78635 3.32548 10.4295C4.21435 11.0726 3.64703 12.0372 3.96858 12.3588C4.29013 12.6803 3.24969 13.9665 1.9635 13.0019C0.934542 12.2301 0.9988 10.751 0.677289 9.4648C0.516535 8.8217 -0.287349 7.21396 0.35575 5.92776C0.99885 4.64156 1.3204 5.60621 1.9635 5.60621C2.6066 5.60621 5.25478 4.64156 4.21435 6.24931C3.82371 6.85294 3.716 6.703 3.32548 7.21396Z" fill="url(#paint6_linear_134_1819)"/>
</g>
<g filter="url(#filter1_f_134_1819)">
<ellipse cx="4.01792" cy="6.21702" rx="1.92857" ry="1.39108" transform="rotate(-33 4.01792 6.21702)" fill="white" fill-opacity="0.66"/>
</g>
<g filter="url(#filter2_f_134_1819)">
<ellipse cx="8.51794" cy="10.717" rx="1.92857" ry="1.39108" transform="rotate(-66 8.51794 10.717)" fill="black" fill-opacity="0.33"/>
</g>
</g>
<circle cx="5.5" cy="8.5" r="4" stroke="white" stroke-opacity="0.5"/>
<path fill-rule="evenodd" clip-rule="evenodd" d="M1.03232 7.9578C2.19706 7.36411 3.76957 7 5.50001 7C7.23042 7 8.80291 7.3641 9.96766 7.95778C9.69989 5.72817 7.80176 4 5.49999 4C3.19821 4 1.30007 5.72818 1.03232 7.9578Z" fill="url(#paint7_linear_134_1819)" fill-opacity="0.5"/>
</g>
<defs>
<filter id="filter0_d_134_1819" x="-0.890015" y="3.32001" width="15.5" height="13.6465" filterUnits="userSpaceOnUse" color-interpolation-filters="sRGB">
<feFlood flood-opacity="0" result="BackgroundImageFix"/>
<feColorMatrix in="SourceAlpha" type="matrix" values="0 0 0 0 0 0 0 0 0 0 0 0 0 0 0 0 0 0 127 0" result="hardAlpha"/>
<feOffset dx="1" dy="1"/>
<feGaussianBlur stdDeviation="1"/>
<feComposite in2="hardAlpha" operator="out"/>
<feColorMatrix type="matrix" values="0 0 0 0 0.143298 0 0 0 0 0.485319 0 0 0 0 0.753675 0 0 0 1 0"/>
<feBlend mode="normal" in2="BackgroundImageFix" result="effect1_dropShadow_134_1819"/>
<feBlend mode="normal" in="SourceGraphic" in2="effect1_dropShadow_134_1819" result="shape"/>
</filter>
<filter id="filter1_f_134_1819" x="-0.768585" y="1.64719" width="9.57303" height="9.13968" filterUnits="userSpaceOnUse" color-interpolation-filters="sRGB">
<feFlood flood-opacity="0" result="BackgroundImageFix"/>
<feBlend mode="normal" in="SourceGraphic" in2="BackgroundImageFix" result="shape"/>
<feGaussianBlur stdDeviation="1.5" result="effect1_foregroundBlur_134_1819"/>
</filter>
<filter id="filter2_f_134_1819" x="5.02432" y="6.86606" width="6.98724" height="7.70193" filterUnits="userSpaceOnUse" color-interpolation-filters="sRGB">
<feFlood flood-opacity="0" result="BackgroundImageFix"/>
<feBlend mode="normal" in="SourceGraphic" in2="BackgroundImageFix" result="shape"/>
<feGaussianBlur stdDeviation="1" result="effect1_foregroundBlur_134_1819"/>
</filter>
<linearGradient id="paint0_linear_134_1819" x1="3" y1="15" x2="15" y2="0.999999" gradientUnits="userSpaceOnUse">
<stop offset="0.500484" stop-color="#D2E5FD"/>
<stop offset="0.844906" stop-color="#A6CBF0"/>
</linearGradient>
<linearGradient id="paint1_linear_134_1819" x1="3" y1="1.21042" x2="15" y2="15.2104" gradientUnits="userSpaceOnUse">
<stop stop-color="#2F88DF"/>
<stop offset="1" stop-color="#053C92"/>
</linearGradient>
<linearGradient id="paint2_linear_134_1819" x1="4" y1="11" x2="14" y2="14" gradientUnits="userSpaceOnUse">
<stop stop-color="#55B4F8"/>
<stop offset="1" stop-color="#62BCFC"/>
</linearGradient>
<linearGradient id="paint3_linear_134_1819" x1="5.5" y1="4" x2="5.5" y2="13" gradientUnits="userSpaceOnUse">
<stop stop-color="#7DB4CA"/>
<stop offset="0.505" stop-color="#3FA0D9"/>
<stop offset="1" stop-color="#6CD5FF"/>
</linearGradient>
<linearGradient id="paint4_linear_134_1819" x1="1.00246" y1="4" x2="9.99754" y2="13" gradientUnits="userSpaceOnUse">
<stop stop-color="#71D960" stop-opacity="0.960784"/>
<stop offset="1" stop-color="#297B24"/>
</linearGradient>
<linearGradient id="paint5_linear_134_1819" x1="3.57124" y1="4.96311" x2="7.75139" y2="13.3234" gradientUnits="userSpaceOnUse">
<stop stop-color="#83F7AA"/>
<stop offset="0.364552" stop-color="#3FD177"/>
<stop offset="0.679603" stop-color="#53B118"/>
<stop offset="0.962038" stop-color="#37881E"/>
</linearGradient>
<linearGradient id="paint6_linear_134_1819" x1="3.57124" y1="4.96311" x2="7.75139" y2="13.3234" gradientUnits="userSpaceOnUse">
<stop stop-color="#83F7AA"/>
<stop offset="0.364552" stop-color="#3FD177"/>
<stop offset="0.679603" stop-color="#53B118"/>
<stop offset="0.962038" stop-color="#37881E"/>
</linearGradient>
<linearGradient id="paint7_linear_134_1819" x1="5" y1="4" x2="5" y2="8" gradientUnits="userSpaceOnUse">
<stop stop-color="white"/>
<stop offset="1" stop-color="white" stop-opacity="0"/>
</linearGradient>
<clipPath id="clip0_134_1819">
<rect width="16" height="16" fill="white"/>
</clipPath>
</defs>
</svg>
