<svg width="16" height="16" viewBox="0 0 16 16" fill="none" xmlns="http://www.w3.org/2000/svg">
<path d="M2 2C2 1.44772 2.44772 1 3 1H10.5858C10.851 1 11.1054 1.10536 11.2929 1.29289L13.7071 3.70711C13.8946 3.89464 14 4.149 14 4.41421V14C14 14.5523 13.5523 15 13 15H3C2.44772 15 2 14.5523 2 14V2Z" fill="url(#paint0_linear_394_6417)"/>
<path d="M3 0.5C2.17157 0.5 1.5 1.17157 1.5 2V14C1.5 14.8284 2.17157 15.5 3 15.5H13C13.8284 15.5 14.5 14.8284 14.5 14V4.41421C14.5 4.01639 14.342 3.63486 14.0607 3.35355L11.6464 0.93934C11.3651 0.658035 10.9836 0.5 10.5858 0.5H3Z" stroke="#A8A8A8" stroke-opacity="0.66" stroke-linejoin="round"/>
<path d="M2.5 2C2.5 1.72386 2.72386 1.5 3 1.5H10C10.2761 1.5 10.5 1.72386 10.5 2V3C10.5 3.82843 11.1716 4.5 12 4.5H13C13.2761 4.5 13.5 4.72386 13.5 5V14C13.5 14.2761 13.2761 14.5 13 14.5H3C2.72386 14.5 2.5 14.2761 2.5 14V2Z" stroke="white" stroke-linejoin="round"/>
<circle cx="5.5" cy="2.5" r="1" fill="#E4E4E4" stroke="#ACACAC"/>
<circle cx="5.5" cy="4.5" r="1" fill="#E4E4E4" stroke="#ACACAC"/>
<circle cx="5.5" cy="6.5" r="1" fill="#E4E4E4" stroke="#ACACAC"/>
<circle cx="5.5" cy="8.5" r="1" fill="#E4E4E4" stroke="#ACACAC"/>
<circle cx="5.5" cy="10.5" r="1" fill="#E4E4E4" stroke="#ACACAC"/>
<circle cx="5.5" cy="2.5" r="1" fill="#E4E4E4" stroke="#ACACAC"/>
<rect x="4" y="12" width="3" height="3" fill="url(#paint1_linear_394_6417)"/>
<rect x="3.5" y="11.5" width="4" height="4" stroke="url(#paint2_linear_394_6417)" stroke-opacity="0.66" stroke-linejoin="round"/>
<rect x="3.5" y="11.5" width="4" height="4" stroke="url(#paint3_linear_394_6417)" stroke-opacity="0.2" stroke-linejoin="round"/>
<rect x="4.5" y="10.5" width="2" height="3" rx="1" fill="#E4E4E4" stroke="url(#paint4_linear_394_6417)"/>
<defs>
<linearGradient id="paint0_linear_394_6417" x1="2" y1="15" x2="14" y2="0.999999" gradientUnits="userSpaceOnUse">
<stop offset="0.500484" stop-color="white"/>
<stop offset="0.806982" stop-color="#E6E6E6"/>
<stop offset="0.901248" stop-color="white"/>
</linearGradient>
<linearGradient id="paint1_linear_394_6417" x1="5.5" y1="15" x2="5.5" y2="12" gradientUnits="userSpaceOnUse">
<stop stop-color="#D9D9D9"/>
<stop offset="1" stop-color="#9C9C9C"/>
</linearGradient>
<linearGradient id="paint2_linear_394_6417" x1="5.5" y1="12" x2="5.5" y2="15" gradientUnits="userSpaceOnUse">
<stop stop-color="#808080"/>
<stop offset="1" stop-color="#676767" stop-opacity="0.8"/>
</linearGradient>
<linearGradient id="paint3_linear_394_6417" x1="4" y1="13.5" x2="7" y2="13.5" gradientUnits="userSpaceOnUse">
<stop stop-opacity="0"/>
<stop offset="1"/>
</linearGradient>
<linearGradient id="paint4_linear_394_6417" x1="5.5" y1="11" x2="5.5" y2="13" gradientUnits="userSpaceOnUse">
<stop stop-color="#7C7C7C"/>
<stop offset="1" stop-color="#A3A3A3"/>
</linearGradient>
</defs>
</svg>
