<svg width="16" height="16" viewBox="0 0 16 16" fill="none" xmlns="http://www.w3.org/2000/svg">
<g clip-path="url(#clip0_385_6277)">
<path d="M3 2C3 1.44772 3.44772 1 4 1H11.5858C11.851 1 12.1054 1.10536 12.2929 1.29289L14.7071 3.70711C14.8946 3.89464 15 4.149 15 4.41421V14C15 14.5523 14.5523 15 14 15H4C3.44772 15 3 14.5523 3 14V2Z" fill="url(#paint0_linear_385_6277)"/>
<path d="M4 0.5C3.17157 0.5 2.5 1.17157 2.5 2V14C2.5 14.8284 3.17157 15.5 4 15.5H14C14.8284 15.5 15.5 14.8284 15.5 14V4.41421C15.5 4.01639 15.342 3.63486 15.0607 3.35355L12.6464 0.93934C12.3651 0.658035 11.9836 0.5 11.5858 0.5H4Z" stroke="#A8A8A8" stroke-opacity="0.66" stroke-linejoin="round"/>
<path d="M3.5 2C3.5 1.72386 3.72386 1.5 4 1.5H11C11.2761 1.5 11.5 1.72386 11.5 2V3C11.5 3.82843 12.1716 4.5 13 4.5H14C14.2761 4.5 14.5 4.72386 14.5 5V14C14.5 14.2761 14.2761 14.5 14 14.5H4C3.72386 14.5 3.5 14.2761 3.5 14V2Z" stroke="white" stroke-linejoin="round"/>
<mask id="path-4-inside-1_385_6277" fill="white">
<path fill-rule="evenodd" clip-rule="evenodd" d="M7.5 3C5.68808 3 4.6293 4.25284 4.06762 5.28073C3.75986 5.84396 3.53278 6.45873 3.3634 7H1V10H2.44002C2.39589 10.0963 2.34926 10.1902 2.29977 10.2807C1.95072 10.9195 1.68808 11 1.5 11H0V14H1.5C3.31192 14 4.3707 12.7472 4.93238 11.7193C5.44993 10.7721 5.73931 9.67921 5.90983 9.03521L5.94892 8.8881L5.97459 8.79214C6.16036 8.09723 6.36445 7.33377 6.70023 6.71927C7.04928 6.08049 7.31192 6 7.5 6H9V3H7.5ZM9.15156 7H7L6 10H6.44002C6.39589 10.0963 6.34926 10.1902 6.29977 10.2807C5.95072 10.9195 5.68808 11 5.5 11V14C7.31192 14 8.3707 12.7472 8.93237 11.7193C9.44993 10.7721 9.73931 9.67921 9.90983 9.03521L9.94892 8.8881L10.1175 8.25874C10.2876 7.62363 9.80905 7 9.15156 7Z"/>
</mask>
<path fill-rule="evenodd" clip-rule="evenodd" d="M7.5 3C5.68808 3 4.6293 4.25284 4.06762 5.28073C3.75986 5.84396 3.53278 6.45873 3.3634 7H1V10H2.44002C2.39589 10.0963 2.34926 10.1902 2.29977 10.2807C1.95072 10.9195 1.68808 11 1.5 11H0V14H1.5C3.31192 14 4.3707 12.7472 4.93238 11.7193C5.44993 10.7721 5.73931 9.67921 5.90983 9.03521L5.94892 8.8881L5.97459 8.79214C6.16036 8.09723 6.36445 7.33377 6.70023 6.71927C7.04928 6.08049 7.31192 6 7.5 6H9V3H7.5ZM9.15156 7H7L6 10H6.44002C6.39589 10.0963 6.34926 10.1902 6.29977 10.2807C5.95072 10.9195 5.68808 11 5.5 11V14C7.31192 14 8.3707 12.7472 8.93237 11.7193C9.44993 10.7721 9.73931 9.67921 9.90983 9.03521L9.94892 8.8881L10.1175 8.25874C10.2876 7.62363 9.80905 7 9.15156 7Z" fill="url(#paint1_linear_385_6277)"/>
<path d="M4.06762 5.28073L4.94516 5.76024L4.94516 5.76024L4.06762 5.28073ZM3.3634 7V8H4.09828L4.31776 7.29865L3.3634 7ZM1 7V6H0V7H1ZM1 10H0V11H1V10ZM2.44002 10L3.34919 10.4164L3.99799 9H2.44002V10ZM2.29977 10.2807L3.1773 10.7602L2.29977 10.2807ZM0 11V10H-1V11H0ZM0 14H-1V15H0V14ZM4.93238 11.7193L4.05484 11.2398L4.05484 11.2398L4.93238 11.7193ZM5.90983 9.03521L4.94337 8.77838L4.94314 8.77925L5.90983 9.03521ZM5.94892 8.8881L4.98289 8.62969L4.98247 8.63127L5.94892 8.8881ZM5.97459 8.79214L6.94063 9.05055L6.94067 9.05039L5.97459 8.79214ZM6.70023 6.71927L5.8227 6.23976V6.23976L6.70023 6.71927ZM9 6V7H10V6H9ZM9 3H10V2H9V3ZM7 7V6H6.27924L6.05132 6.68377L7 7ZM6 10L5.05132 9.68377L4.61257 11H6V10ZM6.44002 10L7.34919 10.4164L7.99799 9H6.44002V10ZM6.29977 10.2807L7.1773 10.7602L6.29977 10.2807ZM5.5 11V10H4.5V11H5.5ZM5.5 14H4.5V15H5.5V14ZM8.93237 11.7193L8.05484 11.2398L8.05484 11.2398L8.93237 11.7193ZM9.90983 9.03521L8.94337 8.77838L8.94314 8.77925L9.90983 9.03521ZM9.94892 8.8881L8.98297 8.62937L8.98246 8.63128L9.94892 8.8881ZM10.1175 8.25874L11.0835 8.51747V8.51747L10.1175 8.25874ZM4.94516 5.76024C5.43958 4.85543 6.2342 4 7.5 4V2C5.14197 2 3.81901 3.65025 3.19009 4.80122L4.94516 5.76024ZM4.31776 7.29865C4.47733 6.78873 4.68146 6.24284 4.94516 5.76024L3.19009 4.80122C2.83826 5.44508 2.58823 6.12874 2.40904 6.70135L4.31776 7.29865ZM1 8H3.3634V6H1V8ZM2 10V7H0V10H2ZM2.44002 9H1V11H2.44002V9ZM3.1773 10.7602C3.23931 10.6468 3.29639 10.5317 3.34919 10.4164L1.53086 9.58356C1.49539 9.661 1.45921 9.73355 1.42223 9.80122L3.1773 10.7602ZM1.5 12C1.77913 12 2.11093 11.9273 2.44095 11.6788C2.73221 11.4596 2.96778 11.1437 3.1773 10.7602L1.42223 9.80122C1.35522 9.92386 1.30308 9.99981 1.26822 10.0441C1.23351 10.0882 1.22213 10.093 1.2381 10.081C1.25717 10.0666 1.29805 10.0412 1.35906 10.0223C1.42 10.0034 1.47199 10 1.5 10V12ZM0 12H1.5V10H0V12ZM1 14V11H-1V14H1ZM1.5 13H0V15H1.5V13ZM4.05484 11.2398C3.56042 12.1446 2.7658 13 1.5 13V15C3.85803 15 5.18099 13.3498 5.80991 12.1988L4.05484 11.2398ZM4.94314 8.77925C4.76962 9.43459 4.50612 10.4139 4.05484 11.2398L5.80991 12.1988C6.39374 11.1303 6.709 9.92383 6.87652 9.29117L4.94314 8.77925ZM4.98247 8.63127L4.94337 8.77838L6.87629 9.29204L6.91538 9.14493L4.98247 8.63127ZM5.00856 8.53372L4.98289 8.62969L6.91496 9.14652L6.94063 9.05055L5.00856 8.53372ZM5.8227 6.23976C5.41852 6.97943 5.18683 7.86687 5.00852 8.53388L6.94067 9.05039C7.13389 8.3276 7.31038 7.68811 7.57777 7.19878L5.8227 6.23976ZM7.5 5C7.22087 5 6.88907 5.07274 6.55905 5.32116C6.26779 5.54042 6.03222 5.85631 5.8227 6.23976L7.57777 7.19878C7.64478 7.07614 7.69692 7.00019 7.73178 6.95591C7.76649 6.91181 7.77787 6.907 7.7619 6.91903C7.74283 6.93338 7.70195 6.95878 7.64094 6.9777C7.58 6.99659 7.52801 7 7.5 7V5ZM9 5H7.5V7H9V5ZM8 3V6H10V3H8ZM7.5 4H9V2H7.5V4ZM7 8H9.15156V6H7V8ZM6.94868 10.3162L7.94868 7.31623L6.05132 6.68377L5.05132 9.68377L6.94868 10.3162ZM6.44002 9H6V11H6.44002V9ZM7.1773 10.7602C7.23931 10.6468 7.29639 10.5317 7.34919 10.4164L5.53086 9.58356C5.49539 9.661 5.45921 9.73355 5.42223 9.80122L7.1773 10.7602ZM5.5 12C5.77913 12 6.11093 11.9273 6.44095 11.6788C6.73221 11.4596 6.96778 11.1437 7.1773 10.7602L5.42223 9.80122C5.35522 9.92386 5.30308 9.99981 5.26822 10.0441C5.23351 10.0882 5.22213 10.093 5.2381 10.081C5.25717 10.0666 5.29805 10.0412 5.35906 10.0223C5.42 10.0034 5.47199 10 5.5 10V12ZM6.5 14V11H4.5V14H6.5ZM8.05484 11.2398C7.56042 12.1446 6.7658 13 5.5 13V15C7.85803 15 9.18099 13.3498 9.80991 12.1988L8.05484 11.2398ZM8.94314 8.77925C8.76962 9.43459 8.50611 10.4139 8.05484 11.2398L9.80991 12.1988C10.3937 11.1303 10.709 9.92383 10.8765 9.29117L8.94314 8.77925ZM8.98246 8.63128L8.94337 8.77838L10.8763 9.29204L10.9154 9.14493L8.98246 8.63128ZM9.15156 8L8.98297 8.62937L10.9149 9.14684L11.0835 8.51747L9.15156 8ZM9.15156 8V8L11.0835 8.51747C11.4237 7.24727 10.4665 6 9.15156 6V8Z" fill="black" fill-opacity="0.2" mask="url(#path-4-inside-1_385_6277)"/>
</g>
<defs>
<linearGradient id="paint0_linear_385_6277" x1="3" y1="15" x2="15" y2="0.999999" gradientUnits="userSpaceOnUse">
<stop offset="0.500484" stop-color="white"/>
<stop offset="0.806982" stop-color="#E6E6E6"/>
<stop offset="0.901248" stop-color="white"/>
</linearGradient>
<linearGradient id="paint1_linear_385_6277" x1="10.1521" y1="13.814" x2="8.66444e-08" y2="3.18602" gradientUnits="userSpaceOnUse">
<stop offset="0.164239" stop-color="#13C1C1"/>
<stop offset="0.742687" stop-color="#45D9D8"/>
</linearGradient>
<clipPath id="clip0_385_6277">
<rect width="16" height="16" fill="white"/>
</clipPath>
</defs>
</svg>
