<svg width="16" height="16" viewBox="0 0 16 16" fill="none" xmlns="http://www.w3.org/2000/svg">
<g clip-path="url(#clip0_387_6371)">
<path d="M3 2C3 1.44772 3.44772 1 4 1H11.5858C11.851 1 12.1054 1.10536 12.2929 1.29289L14.7071 3.70711C14.8946 3.89464 15 4.149 15 4.41421V14C15 14.5523 14.5523 15 14 15H4C3.44772 15 3 14.5523 3 14V2Z" fill="url(#paint0_linear_387_6371)"/>
<path d="M4 0.5C3.17157 0.5 2.5 1.17157 2.5 2V14C2.5 14.8284 3.17157 15.5 4 15.5H14C14.8284 15.5 15.5 14.8284 15.5 14V4.41421C15.5 4.01639 15.342 3.63486 15.0607 3.35355L12.6464 0.93934C12.3651 0.658035 11.9836 0.5 11.5858 0.5H4Z" stroke="#A8A8A8" stroke-opacity="0.66" stroke-linejoin="round"/>
<path d="M3.5 2C3.5 1.72386 3.72386 1.5 4 1.5H11C11.2761 1.5 11.5 1.72386 11.5 2V3C11.5 3.82843 12.1716 4.5 13 4.5H14C14.2761 4.5 14.5 4.72386 14.5 5V14C14.5 14.2761 14.2761 14.5 14 14.5H4C3.72386 14.5 3.5 14.2761 3.5 14V2Z" stroke="white" stroke-linejoin="round"/>
<path d="M7.71429 4.4C7.71429 2.55934 6.81087 2.00003 5.80952 2C4.80818 1.99997 4 2.97782 4 4V6C4 6.8 3.38095 7.4 2.7619 8.4C2.14286 9.4 2 10.4 2 10.8C2 12 2 12.4 2.7619 13.2C3.52381 14 5.04762 14 5.80952 14C6.57143 14 8.09524 14 8.85714 13.2C9.61905 12.4 10 11.2 10 10.4C10 9.6 9.63037 8.38793 8.85714 7.6C7.93912 6.66451 7.71429 6.24066 7.71429 4.4Z" fill="url(#paint1_linear_387_6371)"/>
<path d="M6.34294 5.00579C6.34294 4.49965 6.12532 4 5.6801 4C5.23489 4 5 4.42466 5 5.00579C5 5.58691 4.5 7 4.5 7C4.5 7 3.61272 8.49923 3.36022 9.07138C3.10772 9.64354 2.5 10.5367 2.5 11C2.5 11.8582 2.85522 12.0102 3.36023 12.5823C3.86524 13.1545 5.17509 12.9725 5.6801 12.9725C6.18511 12.9725 6.99944 12.8523 7.42001 12.1922C7.84059 11.5322 8 10.8756 8 10.2417C8 9.60778 7.66859 8.68128 7.00577 7.90106C6.34294 7.12085 6.34294 6.56621 6.34294 5.00579V5.00579Z" fill="url(#paint2_linear_387_6371)"/>
<path d="M5.80951 2.5C6.21974 2.50001 6.54604 2.61295 6.77472 2.85393C7.00697 3.09868 7.21429 3.55501 7.21429 4.4C7.21429 5.32617 7.26821 5.9716 7.47366 6.51599C7.68403 7.07339 8.03509 7.47617 8.50027 7.9502C9.16837 8.63101 9.5 9.71052 9.5 10.4C9.5 11.0837 9.16042 12.1566 8.49507 12.8552C8.22399 13.1398 7.78015 13.3142 7.24714 13.4075C6.72408 13.499 6.19347 13.5 5.80952 13.5C5.42558 13.5 4.89497 13.499 4.3719 13.4075C3.8389 13.3142 3.39506 13.1398 3.12397 12.8552C2.77286 12.4865 2.64268 12.2575 2.5777 12.0187C2.50388 11.7474 2.5 11.4239 2.5 10.8C2.5 10.4808 2.62297 9.57436 3.18704 8.66318C3.33438 8.42515 3.48265 8.20942 3.62749 8.00041C3.63838 7.9847 3.64927 7.96898 3.66018 7.95326C3.7916 7.76375 3.9233 7.57383 4.03823 7.38818C4.28847 6.98394 4.5 6.53796 4.5 6V4C4.5 3.19145 5.14294 2.49998 5.80951 2.5Z" stroke="url(#paint3_linear_387_6371)"/>
<g filter="url(#filter0_d_387_6371)">
<path d="M6.5 5H4.5C4.22386 5 3.99572 5.22616 4.05241 5.49642C4.1683 6.04883 4.45915 6.5 4.75 6.5C5.48952 6.5 6.5719 6.23604 6.9013 5.48668C7.01242 5.23388 6.77614 5 6.5 5Z" fill="#FCDD2F"/>
</g>
<path d="M0.506585 12.6512C0.530746 12.8828 0.662959 13.0445 0.782605 13.1426C0.899493 13.2384 1.03498 13.3006 1.15439 13.343C1.39538 13.4285 1.68351 13.4721 1.94629 13.49C2.21262 13.508 2.48862 13.5019 2.71633 13.4704C2.82785 13.455 2.94833 13.4307 3.05655 13.3903C3.11056 13.3702 3.17826 13.3399 3.2443 13.2931C3.30725 13.2485 3.40302 13.1647 3.45802 13.0266C3.54276 12.8138 3.47727 12.6138 3.45071 12.5395C3.41365 12.436 3.35865 12.3349 3.30284 12.2459C3.18935 12.0648 3.03107 11.8681 2.86198 11.6911C2.69376 11.515 2.49589 11.3384 2.29656 11.2102C2.19722 11.1463 2.08225 11.0845 1.95879 11.0448C1.84019 11.0067 1.66821 10.9745 1.48348 11.029C1.09358 11.1441 0.841446 11.46 0.701336 11.7324C0.558879 12.0094 0.475079 12.3492 0.506585 12.6512Z" fill="url(#paint4_linear_387_6371)" stroke="url(#paint5_linear_387_6371)"/>
<path d="M9.49341 12.6512C9.46925 12.8828 9.33704 13.0445 9.2174 13.1426C9.10051 13.2384 8.96502 13.3006 8.84561 13.343C8.60462 13.4285 8.31649 13.4721 8.05371 13.49C7.78738 13.508 7.51138 13.5019 7.28367 13.4704C7.17215 13.455 7.05167 13.4307 6.94345 13.3903C6.88944 13.3702 6.82174 13.3399 6.7557 13.2931C6.69275 13.2485 6.59698 13.1647 6.54198 13.0266C6.45724 12.8138 6.52273 12.6138 6.54929 12.5395C6.58635 12.436 6.64135 12.3349 6.69716 12.2459C6.81065 12.0648 6.96893 11.8681 7.13802 11.6911C7.30624 11.515 7.50411 11.3384 7.70344 11.2102C7.80278 11.1463 7.91775 11.0845 8.04121 11.0448C8.15981 11.0067 8.33179 10.9745 8.51652 11.029C8.90642 11.1441 9.15855 11.46 9.29866 11.7324C9.44112 12.0094 9.52492 12.3492 9.49341 12.6512Z" fill="url(#paint6_linear_387_6371)" stroke="url(#paint7_linear_387_6371)"/>
</g>
<defs>
<filter id="filter0_d_387_6371" x="4.0437" y="5" width="2.88567" height="2.5" filterUnits="userSpaceOnUse" color-interpolation-filters="sRGB">
<feFlood flood-opacity="0" result="BackgroundImageFix"/>
<feColorMatrix in="SourceAlpha" type="matrix" values="0 0 0 0 0 0 0 0 0 0 0 0 0 0 0 0 0 0 127 0" result="hardAlpha"/>
<feOffset dy="1"/>
<feComposite in2="hardAlpha" operator="out"/>
<feColorMatrix type="matrix" values="0 0 0 0 0 0 0 0 0 0 0 0 0 0 0 0 0 0 0.1 0"/>
<feBlend mode="normal" in2="BackgroundImageFix" result="effect1_dropShadow_387_6371"/>
<feBlend mode="normal" in="SourceGraphic" in2="effect1_dropShadow_387_6371" result="shape"/>
</filter>
<linearGradient id="paint0_linear_387_6371" x1="3" y1="15" x2="15" y2="0.999999" gradientUnits="userSpaceOnUse">
<stop offset="0.500484" stop-color="white"/>
<stop offset="0.806982" stop-color="#E6E6E6"/>
<stop offset="0.901248" stop-color="white"/>
</linearGradient>
<linearGradient id="paint1_linear_387_6371" x1="10" y1="8" x2="2" y2="8" gradientUnits="userSpaceOnUse">
<stop stop-color="#242424"/>
<stop offset="1" stop-color="#565657" stop-opacity="0.988235"/>
</linearGradient>
<linearGradient id="paint2_linear_387_6371" x1="8.33141" y1="8.68128" x2="3.02882" y2="8.68128" gradientUnits="userSpaceOnUse">
<stop offset="0.505" stop-color="white"/>
<stop offset="1" stop-color="#F2F2F2"/>
</linearGradient>
<linearGradient id="paint3_linear_387_6371" x1="10" y1="8" x2="2" y2="8" gradientUnits="userSpaceOnUse">
<stop stop-color="#242424"/>
<stop offset="1" stop-color="#565657"/>
</linearGradient>
<linearGradient id="paint4_linear_387_6371" x1="2.80064" y1="12.2016" x2="0.999236" y2="12.2016" gradientUnits="userSpaceOnUse">
<stop stop-color="#FEC72D"/>
<stop offset="1" stop-color="#F8C72D"/>
</linearGradient>
<linearGradient id="paint5_linear_387_6371" x1="2.80064" y1="12.2016" x2="0.999236" y2="12.2016" gradientUnits="userSpaceOnUse">
<stop stop-color="#D19425"/>
<stop offset="1" stop-color="#DDAB2D" stop-opacity="0.86"/>
</linearGradient>
<linearGradient id="paint6_linear_387_6371" x1="7.09304" y1="12.5505" x2="8.96302" y2="12.5505" gradientUnits="userSpaceOnUse">
<stop stop-color="#FFBE2A"/>
<stop offset="1" stop-color="#FEBC29"/>
</linearGradient>
<linearGradient id="paint7_linear_387_6371" x1="7.09304" y1="12.5505" x2="8.96302" y2="12.5505" gradientUnits="userSpaceOnUse">
<stop stop-color="#B97D28" stop-opacity="0.968627"/>
<stop offset="1" stop-color="#F5B429" stop-opacity="0.92549"/>
</linearGradient>
<clipPath id="clip0_387_6371">
<rect width="16" height="16" fill="white"/>
</clipPath>
</defs>
</svg>
