<svg width="16" height="16" viewBox="0 0 16 16" fill="none" xmlns="http://www.w3.org/2000/svg">
<g clip-path="url(#clip0_381_7221)">
<path d="M3 2C3 1.44772 3.44772 1 4 1H11.5858C11.851 1 12.1054 1.10536 12.2929 1.29289L14.7071 3.70711C14.8946 3.89464 15 4.149 15 4.41421V14C15 14.5523 14.5523 15 14 15H4C3.44772 15 3 14.5523 3 14V2Z" fill="url(#paint0_linear_381_7221)"/>
<path d="M4 0.5C3.17157 0.5 2.5 1.17157 2.5 2V14C2.5 14.8284 3.17157 15.5 4 15.5H14C14.8284 15.5 15.5 14.8284 15.5 14V4.41421C15.5 4.01639 15.342 3.63486 15.0607 3.35355L12.6464 0.93934C12.3651 0.658035 11.9836 0.5 11.5858 0.5H4Z" stroke="#A8A8A8" stroke-opacity="0.66" stroke-linejoin="round"/>
<path d="M3.5 2C3.5 1.72386 3.72386 1.5 4 1.5H11C11.2761 1.5 11.5 1.72386 11.5 2V3C11.5 3.82843 12.1716 4.5 13 4.5H14C14.2761 4.5 14.5 4.72386 14.5 5V14C14.5 14.2761 14.2761 14.5 14 14.5H4C3.72386 14.5 3.5 14.2761 3.5 14V2Z" stroke="white" stroke-linejoin="round"/>
<circle cx="10" cy="5" r="1" fill="url(#paint1_linear_381_7221)"/>
<path d="M7.5 5V5.5H8H11C11.2761 5.5 11.5 5.72386 11.5 6V12C11.5 12.2761 11.2761 12.5 11 12.5H1C0.723857 12.5 0.5 12.2761 0.5 12V5C0.5 4.72386 0.723858 4.5 1 4.5H7C7.27614 4.5 7.5 4.72386 7.5 5Z" fill="url(#paint2_linear_381_7221)" stroke="url(#paint3_linear_381_7221)"/>
<circle cx="7" cy="6" r="1" fill="url(#paint4_linear_381_7221)"/>
<circle cx="4" cy="9" r="3.5" fill="url(#paint5_linear_381_7221)" stroke="url(#paint6_linear_381_7221)"/>
<circle cx="4" cy="9" r="2" fill="#2588E4"/>
<circle cx="4" cy="9" r="2" fill="#2588E4"/>
<circle cx="4" cy="9" r="2" fill="#2588E4"/>
<path d="M9 6H11V12H9V6Z" fill="url(#paint7_linear_381_7221)"/>
<rect x="9" y="7" width="1" height="4" rx="0.5" fill="url(#paint8_linear_381_7221)"/>
</g>
<defs>
<linearGradient id="paint0_linear_381_7221" x1="3" y1="15" x2="15" y2="0.999999" gradientUnits="userSpaceOnUse">
<stop offset="0.500484" stop-color="white"/>
<stop offset="0.806982" stop-color="#E6E6E6"/>
<stop offset="0.901248" stop-color="white"/>
</linearGradient>
<linearGradient id="paint1_linear_381_7221" x1="11" y1="5" x2="9" y2="5" gradientUnits="userSpaceOnUse">
<stop stop-color="#646464"/>
<stop offset="1" stop-color="#6C6C6C"/>
</linearGradient>
<linearGradient id="paint2_linear_381_7221" x1="-2.35283e-09" y1="4" x2="12" y2="13" gradientUnits="userSpaceOnUse">
<stop stop-color="#C8C8C8"/>
<stop offset="1" stop-color="#5E5E5E"/>
</linearGradient>
<linearGradient id="paint3_linear_381_7221" x1="0.5" y1="4" x2="11.5" y2="13" gradientUnits="userSpaceOnUse">
<stop stop-color="#7B7B7B"/>
<stop offset="1" stop-color="#2A2A2A"/>
</linearGradient>
<linearGradient id="paint4_linear_381_7221" x1="6" y1="6" x2="8" y2="6" gradientUnits="userSpaceOnUse">
<stop stop-color="#F9E0A4"/>
<stop offset="1" stop-color="#F3BE41"/>
</linearGradient>
<linearGradient id="paint5_linear_381_7221" x1="0" y1="5" x2="8" y2="13" gradientUnits="userSpaceOnUse">
<stop stop-color="#D7D7D7"/>
<stop offset="1" stop-color="#656565"/>
</linearGradient>
<linearGradient id="paint6_linear_381_7221" x1="0" y1="5" x2="8" y2="13" gradientUnits="userSpaceOnUse">
<stop stop-color="#999999"/>
<stop offset="1" stop-color="#323232"/>
</linearGradient>
<linearGradient id="paint7_linear_381_7221" x1="9" y1="6" x2="12.0189" y2="6.56604" gradientUnits="userSpaceOnUse">
<stop stop-color="#797979"/>
<stop offset="1" stop-color="#5E5E5E"/>
</linearGradient>
<linearGradient id="paint8_linear_381_7221" x1="9.5" y1="7" x2="9.5" y2="11" gradientUnits="userSpaceOnUse">
<stop stop-color="#5F5F5F"/>
<stop offset="1" stop-color="#464646"/>
</linearGradient>
<clipPath id="clip0_381_7221">
<rect width="16" height="16" fill="white"/>
</clipPath>
</defs>
</svg>
