<svg width="16" height="16" viewBox="0 0 16 16" fill="none" xmlns="http://www.w3.org/2000/svg">
<g clip-path="url(#clip0_329_14147)">
<mask id="path-1-outside-1_329_14147" maskUnits="userSpaceOnUse" x="0.339111" y="-0.000183105" width="16" height="15" fill="black">
<rect fill="white" x="0.339111" y="-0.000183105" width="16" height="15"/>
<path fill-rule="evenodd" clip-rule="evenodd" d="M15 6.5C15.118 8.59973 13.6907 10.2514 12.5 11.5C11.3093 12.7486 7.76504 14.7265 6.76504 13.7265C6.27422 13.2357 6.21417 12.6852 6.15411 12.1345C6.09234 11.5681 6.03055 11.0017 5.5 10.5C4.9813 10.0095 4.26001 9.82507 3.53885 9.64063C2.83193 9.45983 2.12515 9.27906 1.60945 8.81016C0.563123 7.85876 2.80934 4.74843 4 3.49983C5.19066 2.25122 6.89696 0.999817 9 0.999817C10 0.999817 11.2947 1.04474 12.6598 2.33323C14.0433 3.63911 14.908 4.862 15 6.5ZM7.5 10C8.32843 10 9 9.32843 9 8.5C9 7.67157 8.32843 7 7.5 7C6.67157 7 6 7.67157 6 8.5C6 9.32843 6.67157 10 7.5 10Z"/>
</mask>
<path fill-rule="evenodd" clip-rule="evenodd" d="M15 6.5C15.118 8.59973 13.6907 10.2514 12.5 11.5C11.3093 12.7486 7.76504 14.7265 6.76504 13.7265C6.27422 13.2357 6.21417 12.6852 6.15411 12.1345C6.09234 11.5681 6.03055 11.0017 5.5 10.5C4.9813 10.0095 4.26001 9.82507 3.53885 9.64063C2.83193 9.45983 2.12515 9.27906 1.60945 8.81016C0.563123 7.85876 2.80934 4.74843 4 3.49983C5.19066 2.25122 6.89696 0.999817 9 0.999817C10 0.999817 11.2947 1.04474 12.6598 2.33323C14.0433 3.63911 14.908 4.862 15 6.5ZM7.5 10C8.32843 10 9 9.32843 9 8.5C9 7.67157 8.32843 7 7.5 7C6.67157 7 6 7.67157 6 8.5C6 9.32843 6.67157 10 7.5 10Z" fill="url(#paint0_linear_329_14147)"/>
<path d="M15 6.5L15.9984 6.44391L15 6.5ZM6.76504 13.7265L7.47214 13.0194H7.47214L6.76504 13.7265ZM6.15411 12.1345L5.16001 12.2429L5.16001 12.2429L6.15411 12.1345ZM5.5 10.5L4.81295 11.2266L4.81295 11.2266L5.5 10.5ZM3.53885 9.64063L3.78663 8.67181H3.78663L3.53885 9.64063ZM1.60945 8.81016L0.936708 9.55003L0.936709 9.55003L1.60945 8.81016ZM4 3.49983L3.2763 2.80971L4 3.49983ZM12.6598 2.33323L13.3462 1.60601V1.60601L12.6598 2.33323ZM13.2237 12.1901C14.3874 10.9698 16.1435 9.02578 15.9984 6.44391L14.0016 6.55609C14.0924 8.17367 12.9939 9.53301 11.7763 10.8099L13.2237 12.1901ZM6.05794 14.4336C6.64528 15.021 7.46083 15.0441 8.04531 14.9676C8.6735 14.8854 9.34851 14.6506 9.97373 14.3673C11.215 13.8049 12.5164 12.9318 13.2237 12.1901L11.7763 10.8099C11.2929 11.3168 10.2268 12.0569 9.14831 12.5456C8.61362 12.7879 8.14064 12.9381 7.78581 12.9845C7.38729 13.0367 7.38479 12.9321 7.47214 13.0194L6.05794 14.4336ZM5.16001 12.2429C5.21837 12.778 5.2923 13.668 6.05794 14.4336L7.47214 13.0194C7.25614 12.8034 7.20998 12.5924 7.14822 12.0261L5.16001 12.2429ZM4.81295 11.2266C5.05039 11.4511 5.09699 11.6652 5.16001 12.2429L7.14822 12.0261C7.08769 11.4711 7.01072 10.5522 6.18705 9.77339L4.81295 11.2266ZM3.29107 10.6094C4.06963 10.8086 4.51622 10.946 4.81295 11.2266L6.18705 9.77339C5.44638 9.07305 4.45038 8.84157 3.78663 8.67181L3.29107 10.6094ZM0.936709 9.55003C1.6695 10.2163 2.63936 10.4428 3.29107 10.6094L3.78663 8.67181C3.02451 8.47689 2.5808 8.34179 2.2822 8.07028L0.936709 9.55003ZM3.2763 2.80971C2.6323 3.48505 1.71801 4.64337 1.08988 5.78409C0.779065 6.34855 0.501101 6.97465 0.390703 7.57327C0.284031 8.15169 0.295026 8.96657 0.936708 9.55003L2.2822 8.07028C2.40072 8.17805 2.30011 8.24736 2.35754 7.93599C2.41123 7.64483 2.57305 7.23692 2.84183 6.74879C3.37289 5.78436 4.17704 4.7632 4.7237 4.18994L3.2763 2.80971ZM9 -0.000183105C6.48966 -0.000183105 4.53734 1.4873 3.2763 2.80971L4.7237 4.18994C5.84398 3.01514 7.30426 1.99982 9 1.99982V-0.000183105ZM13.3462 1.60601C11.6991 0.0513785 10.0815 -0.000183105 9 -0.000183105V1.99982C9.91851 1.99982 10.8902 2.0381 11.9734 3.06045L13.3462 1.60601ZM15.9984 6.44391C15.885 4.42409 14.7968 2.9752 13.3462 1.60601L11.9734 3.06045C13.2899 4.30303 13.931 5.29991 14.0016 6.55609L15.9984 6.44391ZM8 8.5C8 8.77614 7.77614 9 7.5 9V11C8.88071 11 10 9.88071 10 8.5H8ZM7.5 8C7.77614 8 8 8.22386 8 8.5H10C10 7.11929 8.88071 6 7.5 6V8ZM7 8.5C7 8.22386 7.22386 8 7.5 8V6C6.11929 6 5 7.11929 5 8.5H7ZM7.5 9C7.22386 9 7 8.77614 7 8.5H5C5 9.88071 6.11929 11 7.5 11V9Z" fill="url(#paint1_linear_329_14147)" mask="url(#path-1-outside-1_329_14147)"/>
<mask id="path-3-inside-2_329_14147" fill="white">
<path fill-rule="evenodd" clip-rule="evenodd" d="M15 6.5C15.118 8.59973 13.6907 10.2514 12.5 11.5C11.3093 12.7486 7.76504 14.7265 6.76504 13.7265C6.27422 13.2357 6.21417 12.6852 6.15411 12.1345C6.09234 11.5681 6.03055 11.0017 5.5 10.5C4.9813 10.0095 4.26001 9.82507 3.53885 9.64063C2.83193 9.45983 2.12515 9.27906 1.60945 8.81016C0.563123 7.85876 2.80934 4.74843 4 3.49983C5.19066 2.25122 6.89696 0.999817 9 0.999817C10 0.999817 11.2947 1.04474 12.6598 2.33323C14.0433 3.63911 14.908 4.862 15 6.5ZM7.5 10C8.32843 10 9 9.32843 9 8.5C9 7.67157 8.32843 7 7.5 7C6.67157 7 6 7.67157 6 8.5C6 9.32843 6.67157 10 7.5 10Z"/>
</mask>
<path d="M15 6.5L15.9984 6.44391L15 6.5ZM6.76504 13.7265L7.47214 13.0194H7.47214L6.76504 13.7265ZM6.15411 12.1345L5.16001 12.2429L5.16001 12.2429L6.15411 12.1345ZM5.5 10.5L4.81295 11.2266L4.81295 11.2266L5.5 10.5ZM3.53885 9.64063L3.78663 8.67181H3.78663L3.53885 9.64063ZM1.60945 8.81016L0.936708 9.55003L0.936709 9.55003L1.60945 8.81016ZM4 3.49983L3.2763 2.80971L4 3.49983ZM12.6598 2.33323L13.3462 1.60601V1.60601L12.6598 2.33323ZM13.2237 12.1901C14.3874 10.9698 16.1435 9.02578 15.9984 6.44391L14.0016 6.55609C14.0924 8.17367 12.9939 9.53301 11.7763 10.8099L13.2237 12.1901ZM6.05794 14.4336C6.64528 15.021 7.46083 15.0441 8.04531 14.9676C8.6735 14.8854 9.34851 14.6506 9.97373 14.3673C11.215 13.8049 12.5164 12.9318 13.2237 12.1901L11.7763 10.8099C11.2929 11.3168 10.2268 12.0569 9.14831 12.5456C8.61362 12.7879 8.14064 12.9381 7.78581 12.9845C7.38729 13.0367 7.38479 12.9321 7.47214 13.0194L6.05794 14.4336ZM5.16001 12.2429C5.21837 12.778 5.2923 13.668 6.05794 14.4336L7.47214 13.0194C7.25614 12.8034 7.20998 12.5924 7.14822 12.0261L5.16001 12.2429ZM4.81295 11.2266C5.05039 11.4511 5.09699 11.6652 5.16001 12.2429L7.14822 12.0261C7.08769 11.4711 7.01072 10.5522 6.18705 9.77339L4.81295 11.2266ZM3.29107 10.6094C4.06963 10.8086 4.51622 10.946 4.81295 11.2266L6.18705 9.77339C5.44638 9.07305 4.45038 8.84157 3.78663 8.67181L3.29107 10.6094ZM0.936709 9.55003C1.6695 10.2163 2.63936 10.4428 3.29107 10.6094L3.78663 8.67181C3.02451 8.47689 2.5808 8.34179 2.2822 8.07028L0.936709 9.55003ZM3.2763 2.80971C2.6323 3.48505 1.71801 4.64337 1.08988 5.78409C0.779065 6.34855 0.501101 6.97465 0.390703 7.57327C0.284031 8.15169 0.295026 8.96657 0.936708 9.55003L2.2822 8.07028C2.40072 8.17805 2.30011 8.24736 2.35754 7.93599C2.41123 7.64483 2.57305 7.23692 2.84183 6.74879C3.37289 5.78436 4.17704 4.7632 4.7237 4.18994L3.2763 2.80971ZM9 -0.000183105C6.48966 -0.000183105 4.53734 1.4873 3.2763 2.80971L4.7237 4.18994C5.84398 3.01514 7.30426 1.99982 9 1.99982V-0.000183105ZM13.3462 1.60601C11.6991 0.0513785 10.0815 -0.000183105 9 -0.000183105V1.99982C9.91851 1.99982 10.8902 2.0381 11.9734 3.06045L13.3462 1.60601ZM15.9984 6.44391C15.885 4.42409 14.7968 2.9752 13.3462 1.60601L11.9734 3.06045C13.2899 4.30303 13.931 5.29991 14.0016 6.55609L15.9984 6.44391ZM8 8.5C8 8.77614 7.77614 9 7.5 9V11C8.88071 11 10 9.88071 10 8.5H8ZM7.5 8C7.77614 8 8 8.22386 8 8.5H10C10 7.11929 8.88071 6 7.5 6V8ZM7 8.5C7 8.22386 7.22386 8 7.5 8V6C6.11929 6 5 7.11929 5 8.5H7ZM7.5 9C7.22386 9 7 8.77614 7 8.5H5C5 9.88071 6.11929 11 7.5 11V9Z" fill="white" fill-opacity="0.5" mask="url(#path-3-inside-2_329_14147)"/>
<circle cx="3.5" cy="6.5" r="1" fill="#F58582" stroke="url(#paint2_linear_329_14147)"/>
<circle cx="5.5" cy="4.5" r="1" fill="#FFC06D" stroke="url(#paint3_linear_329_14147)"/>
<circle cx="8.5" cy="3.5" r="1" fill="#FFE26D" stroke="url(#paint4_linear_329_14147)"/>
<circle cx="11.5" cy="5.5" r="1" fill="#98C861" stroke="#7BB83C"/>
<circle cx="11.5" cy="8.5" r="1" fill="#5BB6C5" stroke="#2798AD"/>
</g>
<defs>
<linearGradient id="paint0_linear_329_14147" x1="8.17298" y1="0.999817" x2="8.17298" y2="13.9994" gradientUnits="userSpaceOnUse">
<stop stop-color="#E8B180"/>
<stop offset="1" stop-color="#DF9259"/>
</linearGradient>
<linearGradient id="paint1_linear_329_14147" x1="8.17298" y1="0.999817" x2="8.17298" y2="13.9994" gradientUnits="userSpaceOnUse">
<stop stop-color="#D0905C" stop-opacity="0.823529"/>
<stop offset="1" stop-color="#9F641D"/>
</linearGradient>
<linearGradient id="paint2_linear_329_14147" x1="5" y1="6.5" x2="2" y2="6.5" gradientUnits="userSpaceOnUse">
<stop stop-color="#F04141"/>
<stop offset="1" stop-color="#F6756F"/>
</linearGradient>
<linearGradient id="paint3_linear_329_14147" x1="7" y1="4.5" x2="4" y2="4.5" gradientUnits="userSpaceOnUse">
<stop stop-color="#FEA733"/>
<stop offset="1" stop-color="#FFA42C"/>
</linearGradient>
<linearGradient id="paint4_linear_329_14147" x1="8.5" y1="2" x2="8.5" y2="5" gradientUnits="userSpaceOnUse">
<stop stop-color="#FFD52B"/>
<stop offset="1" stop-color="#FBCE3B"/>
</linearGradient>
<clipPath id="clip0_329_14147">
<rect width="16" height="16" fill="white"/>
</clipPath>
</defs>
</svg>
