<svg width="16" height="16" viewBox="0 0 16 16" fill="none" xmlns="http://www.w3.org/2000/svg">
<rect x="9" width="2" height="4" rx="1" fill="url(#paint0_linear_462_7854)"/>
<rect x="3.5" y="2.5" width="8" height="13" rx="1.5" stroke="url(#paint1_linear_462_7854)"/>
<rect x="4" y="3" width="7" height="12" rx="1" fill="url(#paint2_linear_462_7854)"/>
<rect x="4.5" y="3.5" width="6" height="11" rx="0.5" stroke="white" stroke-opacity="0.33"/>
<rect x="5.5" y="4.5" width="4" height="3" fill="#9DD8F8" stroke="url(#paint3_linear_462_7854)" stroke-linejoin="round"/>
<rect x="5" y="9" width="2" height="1" rx="0.5" fill="#80B979"/>
<rect x="9" y="9" width="1" height="1" rx="0.5" fill="#D4525E"/>
<path d="M7 9.5C7 9.22386 7.22386 9 7.5 9C7.77614 9 8 9.22386 8 9.5C8 9.77614 7.77614 10 7.5 10C7.22386 10 7 9.77614 7 9.5Z" fill="#A0A0A0"/>
<path d="M5 11.5C5 11.2239 5.22386 11 5.5 11C5.77614 11 6 11.2239 6 11.5C6 11.7761 5.77614 12 5.5 12C5.22386 12 5 11.7761 5 11.5Z" fill="#A0A0A0"/>
<path d="M7 11.5C7 11.2239 7.22386 11 7.5 11C7.77614 11 8 11.2239 8 11.5C8 11.7761 7.77614 12 7.5 12C7.22386 12 7 11.7761 7 11.5Z" fill="#A0A0A0"/>
<path d="M9 11.5C9 11.2239 9.22386 11 9.5 11C9.77614 11 10 11.2239 10 11.5C10 11.7761 9.77614 12 9.5 12C9.22386 12 9 11.7761 9 11.5Z" fill="#A0A0A0"/>
<path d="M9 13.5C9 13.2239 9.22386 13 9.5 13C9.77614 13 10 13.2239 10 13.5C10 13.7761 9.77614 14 9.5 14C9.22386 14 9 13.7761 9 13.5Z" fill="#A0A0A0"/>
<path d="M7 13.5C7 13.2239 7.22386 13 7.5 13C7.77614 13 8 13.2239 8 13.5C8 13.7761 7.77614 14 7.5 14C7.22386 14 7 13.7761 7 13.5Z" fill="#A0A0A0"/>
<path d="M5 13.5C5 13.2239 5.22386 13 5.5 13C5.77614 13 6 13.2239 6 13.5C6 13.7761 5.77614 14 5.5 14C5.22386 14 5 13.7761 5 13.5Z" fill="#A0A0A0"/>
<circle cx="12.5" cy="12.5" r="3" fill="url(#paint4_radial_462_7854)" stroke="#BC4305"/>
<path fill-rule="evenodd" clip-rule="evenodd" d="M14 13H11V12H14V13Z" fill="white"/>
<defs>
<linearGradient id="paint0_linear_462_7854" x1="9" y1="2" x2="11" y2="2" gradientUnits="userSpaceOnUse">
<stop offset="0.427365" stop-color="#959595"/>
<stop offset="0.620308" stop-color="#737373"/>
</linearGradient>
<linearGradient id="paint1_linear_462_7854" x1="4" y1="5.5" x2="11" y2="12.5" gradientUnits="userSpaceOnUse">
<stop stop-color="#969696" stop-opacity="0.803922"/>
<stop offset="1" stop-color="#707070" stop-opacity="0.996078"/>
</linearGradient>
<linearGradient id="paint2_linear_462_7854" x1="4" y1="5.5" x2="11" y2="12.5" gradientUnits="userSpaceOnUse">
<stop stop-color="#D9D9D9"/>
<stop offset="1" stop-color="#C5C5C5"/>
</linearGradient>
<linearGradient id="paint3_linear_462_7854" x1="6.3" y1="5" x2="8.26721" y2="7.36066" gradientUnits="userSpaceOnUse">
<stop stop-color="#1E95F9"/>
<stop offset="1" stop-color="#21A1F5"/>
</linearGradient>
<radialGradient id="paint4_radial_462_7854" cx="0" cy="0" r="1" gradientUnits="userSpaceOnUse" gradientTransform="translate(11 11) rotate(45) scale(4.24264)">
<stop stop-color="#FFAF7D"/>
<stop offset="1" stop-color="#FF6D00"/>
</radialGradient>
</defs>
</svg>
