<svg width="16" height="16" viewBox="0 0 16 16" fill="none" xmlns="http://www.w3.org/2000/svg">
<rect x="0.5" y="1.5" width="9" height="7" fill="url(#paint0_linear_452_7927)" stroke="url(#paint1_linear_452_7927)" stroke-linejoin="round"/>
<rect x="2" y="3" width="6" height="4" fill="url(#paint2_linear_452_7927)"/>
<rect x="5.5" y="4.5" width="9" height="7" fill="url(#paint3_linear_452_7927)" stroke="url(#paint4_linear_452_7927)" stroke-linejoin="round"/>
<rect x="7" y="6" width="6" height="4" fill="url(#paint5_linear_452_7927)"/>
<rect x="2.5" y="7.5" width="9" height="7" fill="url(#paint6_linear_452_7927)" stroke="url(#paint7_linear_452_7927)" stroke-linejoin="round"/>
<rect x="6" y="13" width="2" height="1" rx="0.5" fill="#E8D462"/>
<g clip-path="url(#clip0_452_7927)">
<mask id="mask0_452_7927" style="mask-type:alpha" maskUnits="userSpaceOnUse" x="4" y="9" width="6" height="4">
<rect x="4" y="9" width="6" height="4" fill="url(#paint8_linear_452_7927)"/>
</mask>
<g mask="url(#mask0_452_7927)">
<rect x="4" y="9" width="6" height="4" fill="url(#paint9_linear_452_7927)"/>
<rect x="6.40002" y="11.2857" width="3.6" height="1.71429" fill="#2E9CFF"/>
<path d="M7.00002 11.2857C7.00002 9.86866 4.48002 9.57141 3.40002 9.57141V13C4.90002 13.5714 4.60002 11.2857 7.00002 11.2857Z" fill="#60CB70"/>
<path d="M3.40002 13.5714V13C3.40002 13 4.00002 11.2857 6.47621 11.2857C9.10002 11.2857 10 12.4286 10.6 13V13.5714H3.40002Z" fill="url(#paint10_linear_452_7927)"/>
<circle cx="10" cy="9" r="2" fill="#FFFF6D"/>
</g>
</g>
<defs>
<linearGradient id="paint0_linear_452_7927" x1="1.85714" y1="2" x2="7.85066" y2="8.27892" gradientUnits="userSpaceOnUse">
<stop stop-color="#DA924D"/>
<stop offset="1" stop-color="#C7883D"/>
</linearGradient>
<linearGradient id="paint1_linear_452_7927" x1="1.85714" y1="2" x2="7.85066" y2="8.27892" gradientUnits="userSpaceOnUse">
<stop stop-color="#BB8436"/>
<stop offset="1" stop-color="#87581D"/>
</linearGradient>
<linearGradient id="paint2_linear_452_7927" x1="3" y1="3" x2="7" y2="7" gradientUnits="userSpaceOnUse">
<stop stop-color="#60BCF3"/>
<stop offset="1" stop-color="#358DDD"/>
</linearGradient>
<linearGradient id="paint3_linear_452_7927" x1="6.85714" y1="5" x2="12.8507" y2="11.2789" gradientUnits="userSpaceOnUse">
<stop stop-color="#CE9156"/>
<stop offset="1" stop-color="#C6873C"/>
</linearGradient>
<linearGradient id="paint4_linear_452_7927" x1="6.85714" y1="5" x2="12.8507" y2="11.2789" gradientUnits="userSpaceOnUse">
<stop stop-color="#BB8436"/>
<stop offset="1" stop-color="#87581D"/>
</linearGradient>
<linearGradient id="paint5_linear_452_7927" x1="12" y1="10" x2="8" y2="6" gradientUnits="userSpaceOnUse">
<stop stop-color="#78EE69" stop-opacity="0.921569"/>
<stop offset="1" stop-color="#34C62C" stop-opacity="0.988235"/>
</linearGradient>
<linearGradient id="paint6_linear_452_7927" x1="3.85714" y1="8" x2="9.85066" y2="14.2789" gradientUnits="userSpaceOnUse">
<stop stop-color="#DA934D"/>
<stop offset="1" stop-color="#C7883D"/>
</linearGradient>
<linearGradient id="paint7_linear_452_7927" x1="3.85714" y1="8" x2="9.85066" y2="14.2789" gradientUnits="userSpaceOnUse">
<stop stop-color="#BB8436"/>
<stop offset="1" stop-color="#87581D"/>
</linearGradient>
<linearGradient id="paint8_linear_452_7927" x1="10" y1="11" x2="4" y2="11" gradientUnits="userSpaceOnUse">
<stop stop-color="#3CA5E9"/>
<stop offset="1" stop-color="#75C4FA"/>
</linearGradient>
<linearGradient id="paint9_linear_452_7927" x1="10" y1="13" x2="3.3947" y2="11.0429" gradientUnits="userSpaceOnUse">
<stop stop-color="#5DB7FF"/>
<stop offset="1" stop-color="#76C8FF"/>
</linearGradient>
<linearGradient id="paint10_linear_452_7927" x1="7.00002" y1="11.2857" x2="7.00002" y2="13" gradientUnits="userSpaceOnUse">
<stop stop-color="#74D550"/>
<stop offset="0.834534" stop-color="#9DE272"/>
</linearGradient>
<clipPath id="clip0_452_7927">
<rect width="6" height="4" fill="white" transform="translate(4 9)"/>
</clipPath>
</defs>
</svg>
