<svg width="16" height="16" viewBox="0 0 16 16" fill="none" xmlns="http://www.w3.org/2000/svg">
<g clip-path="url(#clip0_134_2138)">
<g filter="url(#filter0_i_134_2138)">
<rect width="14" height="14" rx="2" fill="#799ED7"/>
</g>
<rect x="0.5" y="0.5" width="13" height="13" rx="1.5" stroke="#93AACE"/>
<rect x="1.5" y="9.5" width="11" height="3" rx="0.5" fill="#C2DCBF" stroke="url(#paint0_linear_134_2138)"/>
<rect x="5" y="6" width="4" height="5" rx="1.5" fill="url(#paint1_linear_134_2138)"/>
<rect x="5.5" y="6.5" width="3" height="4" rx="1" stroke="black" stroke-opacity="0.66" style="mix-blend-mode:soft-light"/>
<circle cx="7" cy="5" r="3" fill="url(#paint2_linear_134_2138)"/>
<circle cx="7" cy="5" r="3.5" stroke="url(#paint3_linear_134_2138)" stroke-opacity="0.66"/>
<circle cx="7" cy="5" r="2.5" stroke="white" stroke-opacity="0.33" style="mix-blend-mode:soft-light"/>
<rect x="1.5" y="1.5" width="11" height="11" rx="0.5" stroke="white" stroke-opacity="0.66" style="mix-blend-mode:hard-light"/>
<rect x="1.5" y="1.5" width="11" height="11" rx="0.5" stroke="white" stroke-opacity="0.66" style="mix-blend-mode:soft-light"/>
<path d="M6.5 7C6.5 6.72386 6.72386 6.5 7 6.5H13C14.3807 6.5 15.5 7.61929 15.5 9V15C15.5 15.2761 15.2761 15.5 15 15.5H7C6.72386 15.5 6.5 15.2761 6.5 15V7Z" fill="url(#paint4_linear_134_2138)" stroke="url(#paint5_linear_134_2138)"/>
<path d="M7.5 7.5H13C13.8284 7.5 14.5 8.17157 14.5 9V14.5H7.5V7.5Z" stroke="white" stroke-opacity="0.33" style="mix-blend-mode:lighten"/>
<rect x="8" y="12" width="6" height="3" fill="white"/>
<path fill-rule="evenodd" clip-rule="evenodd" d="M9 7H8V8C8 8.55228 8.44772 9 9 9H11C11.5523 9 12 8.55228 12 8V7H10V8H9V7Z" fill="url(#paint6_linear_134_2138)"/>
<path fill-rule="evenodd" clip-rule="evenodd" d="M9 7H8V8C8 8.55228 8.44772 9 9 9H11C11.5523 9 12 8.55228 12 8V7H10V8H9V7Z" fill="white"/>
<rect x="9" y="13" width="4" height="1" rx="0.5" fill="url(#paint7_linear_134_2138)"/>
</g>
<defs>
<filter id="filter0_i_134_2138" x="0" y="-4" width="18" height="18" filterUnits="userSpaceOnUse" color-interpolation-filters="sRGB">
<feFlood flood-opacity="0" result="BackgroundImageFix"/>
<feBlend mode="normal" in="SourceGraphic" in2="BackgroundImageFix" result="shape"/>
<feColorMatrix in="SourceAlpha" type="matrix" values="0 0 0 0 0 0 0 0 0 0 0 0 0 0 0 0 0 0 127 0" result="hardAlpha"/>
<feMorphology radius="1" operator="erode" in="SourceAlpha" result="effect1_innerShadow_134_2138"/>
<feOffset dx="4" dy="-4"/>
<feGaussianBlur stdDeviation="2"/>
<feComposite in2="hardAlpha" operator="arithmetic" k2="-1" k3="1"/>
<feColorMatrix type="matrix" values="0 0 0 0 1 0 0 0 0 1 0 0 0 0 1 0 0 0 0.25 0"/>
<feBlend mode="normal" in2="shape" result="effect1_innerShadow_134_2138"/>
</filter>
<linearGradient id="paint0_linear_134_2138" x1="13" y1="11" x2="1" y2="11" gradientUnits="userSpaceOnUse">
<stop stop-color="#67993F"/>
<stop offset="1" stop-color="#78A84D"/>
</linearGradient>
<linearGradient id="paint1_linear_134_2138" x1="9" y1="8" x2="5" y2="8" gradientUnits="userSpaceOnUse">
<stop offset="0.244709" stop-color="#AF863F"/>
<stop offset="0.732411" stop-color="#D39F54"/>
</linearGradient>
<linearGradient id="paint2_linear_134_2138" x1="4" y1="2" x2="10" y2="8" gradientUnits="userSpaceOnUse">
<stop offset="0.130713" stop-color="#9BCB67"/>
<stop offset="0.871133" stop-color="#7ABA4F"/>
</linearGradient>
<linearGradient id="paint3_linear_134_2138" x1="10" y1="8" x2="4" y2="2" gradientUnits="userSpaceOnUse">
<stop stop-color="#4D872B"/>
<stop offset="1" stop-color="#81AB61"/>
</linearGradient>
<linearGradient id="paint4_linear_134_2138" x1="6" y1="6" x2="16" y2="16" gradientUnits="userSpaceOnUse">
<stop stop-color="#9EC0EF"/>
<stop offset="1" stop-color="#85A2DD"/>
</linearGradient>
<linearGradient id="paint5_linear_134_2138" x1="16" y1="16" x2="6" y2="6" gradientUnits="userSpaceOnUse">
<stop stop-color="#2E5FA6"/>
<stop offset="1" stop-color="#5B86C7"/>
</linearGradient>
<linearGradient id="paint6_linear_134_2138" x1="8" y1="7" x2="12" y2="9" gradientUnits="userSpaceOnUse">
<stop stop-color="#B8B8B8"/>
<stop offset="1" stop-color="#E3E3E3"/>
</linearGradient>
<linearGradient id="paint7_linear_134_2138" x1="9" y1="13.5" x2="13" y2="13.5" gradientUnits="userSpaceOnUse">
<stop stop-color="#94D32D"/>
<stop offset="1" stop-color="#84BF54"/>
</linearGradient>
<clipPath id="clip0_134_2138">
<rect width="16" height="16" fill="white"/>
</clipPath>
</defs>
</svg>
