<svg width="16" height="16" viewBox="0 0 16 16" fill="none" xmlns="http://www.w3.org/2000/svg">
<g clip-path="url(#clip0_134_2114)">
<g filter="url(#filter0_i_134_2114)">
<rect width="14" height="14" rx="2" fill="#799ED7"/>
</g>
<rect x="0.5" y="0.5" width="13" height="13" rx="1.5" stroke="#93AACE"/>
<rect x="1.5" y="9.5" width="11" height="3" rx="0.5" fill="#C2DCBF" stroke="url(#paint0_linear_134_2114)"/>
<rect x="5" y="6" width="4" height="5" rx="1.5" fill="url(#paint1_linear_134_2114)"/>
<rect x="5.5" y="6.5" width="3" height="4" rx="1" stroke="black" stroke-opacity="0.66" style="mix-blend-mode:soft-light"/>
<circle cx="7" cy="5" r="3" fill="url(#paint2_linear_134_2114)"/>
<circle cx="7" cy="5" r="3.5" stroke="url(#paint3_linear_134_2114)" stroke-opacity="0.66"/>
<circle cx="7" cy="5" r="2.5" stroke="white" stroke-opacity="0.33" style="mix-blend-mode:soft-light"/>
<rect x="1.5" y="1.5" width="11" height="11" rx="0.5" stroke="white" stroke-opacity="0.66" style="mix-blend-mode:hard-light"/>
<rect x="1.5" y="1.5" width="11" height="11" rx="0.5" stroke="white" stroke-opacity="0.66" style="mix-blend-mode:soft-light"/>
<g filter="url(#filter1_i_134_2114)">
<path d="M10 9H6V14H10V16H11L16 11.5L11 7H10V9Z" fill="#80B361"/>
</g>
<path d="M10 9.5C10.2761 9.5 10.5 9.27614 10.5 9V7.5H10.8081L15.2526 11.5L10.8081 15.5H10.5V14C10.5 13.7239 10.2761 13.5 10 13.5H6.5V9.5H10Z" stroke="url(#paint4_linear_134_2114)" stroke-linejoin="round"/>
<path d="M7.5 12.5V10.5H10C10.7149 10.5 11.2659 10.0257 11.4412 9.41686L13.7531 11.5L11.4413 13.5831C11.263 12.9643 10.6975 12.5 10.0049 12.5H7.5Z" stroke="white" stroke-opacity="0.2" stroke-linejoin="round"/>
</g>
<defs>
<filter id="filter0_i_134_2114" x="0" y="-4" width="18" height="18" filterUnits="userSpaceOnUse" color-interpolation-filters="sRGB">
<feFlood flood-opacity="0" result="BackgroundImageFix"/>
<feBlend mode="normal" in="SourceGraphic" in2="BackgroundImageFix" result="shape"/>
<feColorMatrix in="SourceAlpha" type="matrix" values="0 0 0 0 0 0 0 0 0 0 0 0 0 0 0 0 0 0 127 0" result="hardAlpha"/>
<feMorphology radius="1" operator="erode" in="SourceAlpha" result="effect1_innerShadow_134_2114"/>
<feOffset dx="4" dy="-4"/>
<feGaussianBlur stdDeviation="2"/>
<feComposite in2="hardAlpha" operator="arithmetic" k2="-1" k3="1"/>
<feColorMatrix type="matrix" values="0 0 0 0 1 0 0 0 0 1 0 0 0 0 1 0 0 0 0.25 0"/>
<feBlend mode="normal" in2="shape" result="effect1_innerShadow_134_2114"/>
</filter>
<filter id="filter1_i_134_2114" x="6" y="7" width="12" height="11" filterUnits="userSpaceOnUse" color-interpolation-filters="sRGB">
<feFlood flood-opacity="0" result="BackgroundImageFix"/>
<feBlend mode="normal" in="SourceGraphic" in2="BackgroundImageFix" result="shape"/>
<feColorMatrix in="SourceAlpha" type="matrix" values="0 0 0 0 0 0 0 0 0 0 0 0 0 0 0 0 0 0 127 0" result="hardAlpha"/>
<feOffset dx="2" dy="2"/>
<feGaussianBlur stdDeviation="1"/>
<feComposite in2="hardAlpha" operator="arithmetic" k2="-1" k3="1"/>
<feColorMatrix type="matrix" values="0 0 0 0 1 0 0 0 0 1 0 0 0 0 1 0 0 0 0.25 0"/>
<feBlend mode="normal" in2="shape" result="effect1_innerShadow_134_2114"/>
</filter>
<linearGradient id="paint0_linear_134_2114" x1="13" y1="11" x2="1" y2="11" gradientUnits="userSpaceOnUse">
<stop stop-color="#67993F"/>
<stop offset="1" stop-color="#78A84D"/>
</linearGradient>
<linearGradient id="paint1_linear_134_2114" x1="9" y1="8" x2="5" y2="8" gradientUnits="userSpaceOnUse">
<stop offset="0.244709" stop-color="#AF863F"/>
<stop offset="0.732411" stop-color="#D39F54"/>
</linearGradient>
<linearGradient id="paint2_linear_134_2114" x1="4" y1="2" x2="10" y2="8" gradientUnits="userSpaceOnUse">
<stop offset="0.130713" stop-color="#9BCB67"/>
<stop offset="0.871133" stop-color="#7ABA4F"/>
</linearGradient>
<linearGradient id="paint3_linear_134_2114" x1="10" y1="8" x2="4" y2="2" gradientUnits="userSpaceOnUse">
<stop stop-color="#4D872B"/>
<stop offset="1" stop-color="#81AB61"/>
</linearGradient>
<linearGradient id="paint4_linear_134_2114" x1="14.5714" y1="14.7143" x2="8.17837" y2="7.61089" gradientUnits="userSpaceOnUse">
<stop stop-color="#247C10"/>
<stop offset="1" stop-color="#6FA53D"/>
</linearGradient>
<clipPath id="clip0_134_2114">
<rect width="16" height="16" fill="white"/>
</clipPath>
</defs>
</svg>
