<svg width="16" height="16" viewBox="0 0 16 16" fill="none" xmlns="http://www.w3.org/2000/svg">
<g clip-path="url(#clip0_134_1920)">
<path d="M1.5 2C1.5 1.72386 1.72386 1.5 2 1.5H10C10.2761 1.5 10.5 1.72386 10.5 2V10C10.5 10.2761 10.2761 10.5 10 10.5H2C1.72386 10.5 1.5 10.2761 1.5 10V2Z" fill="url(#paint0_linear_134_1920)" stroke="#7F96C4"/>
<rect x="2" y="2" width="8" height="6" fill="url(#paint1_linear_134_1920)"/>
<rect x="2" y="8" width="8" height="2" fill="url(#paint2_linear_134_1920)"/>
<rect x="5" y="6" width="2" height="2" fill="url(#paint3_linear_134_1920)"/>
<circle cx="6" cy="5" r="1.5" fill="url(#paint4_linear_134_1920)" stroke="url(#paint5_linear_134_1920)"/>
<rect x="2.5" y="2.5" width="7" height="7" stroke="white" stroke-opacity="0.66" style="mix-blend-mode:soft-light"/>
<rect x="2.5" y="2.5" width="7" height="7" stroke="white" stroke-opacity="0.66" style="mix-blend-mode:hard-light"/>
</g>
<g clip-path="url(#clip1_134_1920)">
<path d="M3.5 4C3.5 3.72386 3.72386 3.5 4 3.5H12C12.2761 3.5 12.5 3.72386 12.5 4V12C12.5 12.2761 12.2761 12.5 12 12.5H4C3.72386 12.5 3.5 12.2761 3.5 12V4Z" fill="url(#paint6_linear_134_1920)" stroke="#7F96C4"/>
<rect x="4" y="4" width="8" height="6" fill="url(#paint7_linear_134_1920)"/>
<rect x="4" y="10" width="8" height="2" fill="url(#paint8_linear_134_1920)"/>
<rect x="7" y="8" width="2" height="2" fill="url(#paint9_linear_134_1920)"/>
<circle cx="8" cy="7" r="1.5" fill="url(#paint10_linear_134_1920)" stroke="url(#paint11_linear_134_1920)"/>
<rect x="4.5" y="4.5" width="7" height="7" stroke="white" stroke-opacity="0.66" style="mix-blend-mode:soft-light"/>
<rect x="4.5" y="4.5" width="7" height="7" stroke="white" stroke-opacity="0.66" style="mix-blend-mode:hard-light"/>
</g>
<g clip-path="url(#clip2_134_1920)">
<path d="M5.5 6C5.5 5.72386 5.72386 5.5 6 5.5H14C14.2761 5.5 14.5 5.72386 14.5 6V14C14.5 14.2761 14.2761 14.5 14 14.5H6C5.72386 14.5 5.5 14.2761 5.5 14V6Z" fill="url(#paint12_linear_134_1920)" stroke="#7F96C4"/>
<rect x="6" y="6" width="8" height="6" fill="url(#paint13_linear_134_1920)"/>
<rect x="6" y="12" width="8" height="2" fill="url(#paint14_linear_134_1920)"/>
<rect x="9" y="10" width="2" height="2" fill="url(#paint15_linear_134_1920)"/>
<circle cx="10" cy="9" r="1.5" fill="url(#paint16_linear_134_1920)" stroke="url(#paint17_linear_134_1920)"/>
<rect x="6.5" y="6.5" width="7" height="7" stroke="white" stroke-opacity="0.66" style="mix-blend-mode:soft-light"/>
<rect x="6.5" y="6.5" width="7" height="7" stroke="white" stroke-opacity="0.66" style="mix-blend-mode:hard-light"/>
</g>
<defs>
<linearGradient id="paint0_linear_134_1920" x1="1" y1="1" x2="12.1952" y2="9.40881" gradientUnits="userSpaceOnUse">
<stop stop-color="white"/>
<stop offset="1" stop-color="#EFF3F7"/>
</linearGradient>
<linearGradient id="paint1_linear_134_1920" x1="2" y1="2" x2="9.29838" y2="8.75775" gradientUnits="userSpaceOnUse">
<stop stop-color="#BBDEFF"/>
<stop offset="1" stop-color="#90C8FF"/>
</linearGradient>
<linearGradient id="paint2_linear_134_1920" x1="10" y1="9" x2="2" y2="9" gradientUnits="userSpaceOnUse">
<stop stop-color="#66BA20"/>
<stop offset="1" stop-color="#8AD74C"/>
</linearGradient>
<linearGradient id="paint3_linear_134_1920" x1="7" y1="7" x2="5" y2="7" gradientUnits="userSpaceOnUse">
<stop stop-color="#A17831"/>
<stop offset="1" stop-color="#CC9E4F"/>
</linearGradient>
<linearGradient id="paint4_linear_134_1920" x1="4" y1="3" x2="8" y2="7" gradientUnits="userSpaceOnUse">
<stop offset="0.253475" stop-color="#C2E57A"/>
<stop offset="0.749661" stop-color="#9CDD48"/>
</linearGradient>
<linearGradient id="paint5_linear_134_1920" x1="8" y1="7" x2="4" y2="3" gradientUnits="userSpaceOnUse">
<stop stop-color="#64AA2C"/>
<stop offset="1" stop-color="#93C956"/>
</linearGradient>
<linearGradient id="paint6_linear_134_1920" x1="3" y1="3" x2="14.1952" y2="11.4088" gradientUnits="userSpaceOnUse">
<stop stop-color="white"/>
<stop offset="1" stop-color="#EFF3F7"/>
</linearGradient>
<linearGradient id="paint7_linear_134_1920" x1="4" y1="4" x2="11.2984" y2="10.7578" gradientUnits="userSpaceOnUse">
<stop stop-color="#BBDEFF"/>
<stop offset="1" stop-color="#90C8FF"/>
</linearGradient>
<linearGradient id="paint8_linear_134_1920" x1="12" y1="11" x2="4" y2="11" gradientUnits="userSpaceOnUse">
<stop stop-color="#66BA20"/>
<stop offset="1" stop-color="#8AD74C"/>
</linearGradient>
<linearGradient id="paint9_linear_134_1920" x1="9" y1="9" x2="7" y2="9" gradientUnits="userSpaceOnUse">
<stop stop-color="#A17831"/>
<stop offset="1" stop-color="#CC9E4F"/>
</linearGradient>
<linearGradient id="paint10_linear_134_1920" x1="6" y1="5" x2="10" y2="9" gradientUnits="userSpaceOnUse">
<stop offset="0.253475" stop-color="#C2E57A"/>
<stop offset="0.749661" stop-color="#9CDD48"/>
</linearGradient>
<linearGradient id="paint11_linear_134_1920" x1="10" y1="9" x2="6" y2="5" gradientUnits="userSpaceOnUse">
<stop stop-color="#64AA2C"/>
<stop offset="1" stop-color="#93C956"/>
</linearGradient>
<linearGradient id="paint12_linear_134_1920" x1="5" y1="5" x2="16.1952" y2="13.4088" gradientUnits="userSpaceOnUse">
<stop stop-color="white"/>
<stop offset="1" stop-color="#EFF3F7"/>
</linearGradient>
<linearGradient id="paint13_linear_134_1920" x1="6" y1="6" x2="13.2984" y2="12.7578" gradientUnits="userSpaceOnUse">
<stop stop-color="#BBDEFF"/>
<stop offset="1" stop-color="#90C8FF"/>
</linearGradient>
<linearGradient id="paint14_linear_134_1920" x1="14" y1="13" x2="6" y2="13" gradientUnits="userSpaceOnUse">
<stop stop-color="#66BA20"/>
<stop offset="1" stop-color="#8AD74C"/>
</linearGradient>
<linearGradient id="paint15_linear_134_1920" x1="11" y1="11" x2="9" y2="11" gradientUnits="userSpaceOnUse">
<stop stop-color="#A17831"/>
<stop offset="1" stop-color="#CC9E4F"/>
</linearGradient>
<linearGradient id="paint16_linear_134_1920" x1="8" y1="7" x2="12" y2="11" gradientUnits="userSpaceOnUse">
<stop offset="0.253475" stop-color="#C2E57A"/>
<stop offset="0.749661" stop-color="#9CDD48"/>
</linearGradient>
<linearGradient id="paint17_linear_134_1920" x1="12" y1="11" x2="8" y2="7" gradientUnits="userSpaceOnUse">
<stop stop-color="#64AA2C"/>
<stop offset="1" stop-color="#93C956"/>
</linearGradient>
<clipPath id="clip0_134_1920">
<rect width="10" height="10" fill="white" transform="translate(1 1)"/>
</clipPath>
<clipPath id="clip1_134_1920">
<rect width="10" height="10" fill="white" transform="translate(3 3)"/>
</clipPath>
<clipPath id="clip2_134_1920">
<rect width="10" height="10" fill="white" transform="translate(5 5)"/>
</clipPath>
</defs>
</svg>
