<svg width="16" height="16" viewBox="0 0 16 16" fill="none" xmlns="http://www.w3.org/2000/svg">
<g clip-path="url(#clip0_134_2209)">
<mask id="path-1-inside-1_134_2209" fill="white">
<path d="M7.31527 2.05368L12.0213 2.04068V13.7537L10.0063 14.0137V3.62668H8.90127V13.7537L6.88627 14.0137V7.72168C4.79327 7.69568 3.72727 6.53868 3.72727 4.90068C3.72727 3.13268 4.98827 1.97568 7.31527 2.05368Z"/>
</mask>
<path d="M7.31527 2.05368L12.0213 2.04068V13.7537L10.0063 14.0137V3.62668H8.90127V13.7537L6.88627 14.0137V7.72168C4.79327 7.69568 3.72727 6.53868 3.72727 4.90068C3.72727 3.13268 4.98827 1.97568 7.31527 2.05368Z" fill="#92C8F3"/>
<path d="M7.31527 2.05368L7.28177 3.05312L7.29989 3.05373L7.31803 3.05368L7.31527 2.05368ZM12.0213 2.04068H13.0213V1.03792L12.0185 1.04069L12.0213 2.04068ZM12.0213 13.7537L12.1492 14.7455L13.0213 14.6329V13.7537H12.0213ZM10.0063 14.0137H9.00627V15.151L10.1342 15.0055L10.0063 14.0137ZM10.0063 3.62668H11.0063V2.62668H10.0063V3.62668ZM8.90127 3.62668V2.62668H7.90127V3.62668H8.90127ZM8.90127 13.7537L9.02924 14.7455L9.90127 14.6329V13.7537H8.90127ZM6.88627 14.0137H5.88627V15.151L7.01424 15.0055L6.88627 14.0137ZM6.88627 7.72168H7.88627V6.73403L6.89869 6.72176L6.88627 7.72168ZM7.31803 3.05368L12.024 3.04068L12.0185 1.04069L7.3125 1.05369L7.31803 3.05368ZM11.0213 2.04068V13.7537H13.0213V2.04068H11.0213ZM11.8933 12.7619L9.8783 13.0219L10.1342 15.0055L12.1492 14.7455L11.8933 12.7619ZM11.0063 14.0137V3.62668H9.00627V14.0137H11.0063ZM10.0063 2.62668H8.90127V4.62668H10.0063V2.62668ZM7.90127 3.62668V13.7537H9.90127V3.62668H7.90127ZM8.7733 12.7619L6.7583 13.0219L7.01424 15.0055L9.02924 14.7455L8.7733 12.7619ZM7.88627 14.0137V7.72168H5.88627V14.0137H7.88627ZM6.89869 6.72176C6.03011 6.71097 5.5064 6.46914 5.2074 6.18761C4.91549 5.91277 4.72727 5.49692 4.72727 4.90068H2.72727C2.72727 5.94245 3.07205 6.9241 3.83639 7.64375C4.59363 8.35672 5.64942 8.7064 6.87385 8.72161L6.89869 6.72176ZM4.72727 4.90068C4.72727 4.26863 4.94284 3.83886 5.28536 3.55603C5.64781 3.25674 6.27879 3.0195 7.28177 3.05312L7.34877 1.05424C6.02474 1.00986 4.86173 1.31212 4.01192 2.01384C3.14219 2.73201 2.72727 3.76474 2.72727 4.90068H4.72727Z" fill="url(#paint0_linear_134_2209)" mask="url(#path-1-inside-1_134_2209)"/>
</g>
<defs>
<linearGradient id="paint0_linear_134_2209" x1="4.19739" y1="1.89921" x2="12.9269" y2="15.5678" gradientUnits="userSpaceOnUse">
<stop stop-color="#6FB4EF"/>
<stop offset="1" stop-color="#6EA0EA"/>
</linearGradient>
<clipPath id="clip0_134_2209">
<rect width="16" height="16" fill="white"/>
</clipPath>
</defs>
</svg>
