<svg width="16" height="16" viewBox="0 0 16 16" fill="none" xmlns="http://www.w3.org/2000/svg">
<g clip-path="url(#clip0_419_6615)">
<path d="M2 4.5C1.72386 4.5 1.5 4.72386 1.5 5V7C1.5 7.27614 1.72386 7.5 2 7.5H3C3.27614 7.5 3.5 7.72386 3.5 8V10C3.5 10.2761 3.27614 10.5 3 10.5H2C1.72386 10.5 1.5 10.7239 1.5 11V14C1.5 14.2761 1.72386 14.5 2 14.5H5C5.27614 14.5 5.5 14.2761 5.5 14V13C5.5 12.7239 5.72386 12.5 6 12.5H8C8.27614 12.5 8.5 12.7239 8.5 13V14C8.5 14.2761 8.72386 14.5 9 14.5H11C11.2761 14.5 11.5 14.2761 11.5 14V11C11.5 10.7239 11.7239 10.5 12 10.5H14C14.2761 10.5 14.5 10.2761 14.5 10V8C14.5 7.72386 14.2761 7.5 14 7.5H12C11.7239 7.5 11.5 7.27614 11.5 7V5C11.5 4.72386 11.2761 4.5 11 4.5H8.5V2C8.5 1.72386 8.27614 1.5 8 1.5H6C5.72386 1.5 5.5 1.72386 5.5 2V4.5H2Z" fill="url(#paint0_linear_419_6615)" stroke="url(#paint1_linear_419_6615)" stroke-linejoin="round"/>
<path d="M8 5.5H10.5V7C10.5 7.82843 11.1716 8.5 12 8.5H13.5V9.5H12C11.1716 9.5 10.5 10.1716 10.5 11V13.5H9.5V13C9.5 12.1716 8.82843 11.5 8 11.5H6C5.17157 11.5 4.5 12.1716 4.5 13V13.5H2.5V11.5H3C3.82843 11.5 4.5 10.8284 4.5 10V8C4.5 7.17157 3.82843 6.5 3 6.5H2.5V5.5H6C6.27614 5.5 6.5 5.27614 6.5 5V2.5H7.5V5C7.5 5.27614 7.72386 5.5 8 5.5Z" stroke="white" stroke-opacity="0.33" stroke-linejoin="round"/>
<path d="M4.54043 14.803C4.45989 14.991 4.50188 15.209 4.64645 15.3536C4.79102 15.4981 5.00904 15.5401 5.19696 15.4596L8.69696 13.9596C8.84946 13.8942 8.9596 13.7575 8.99098 13.5946C9.02235 13.4316 8.97087 13.2638 8.85355 13.1464L6.85355 11.1464C6.73624 11.0291 6.56836 10.9776 6.40545 11.009C6.24253 11.0404 6.10578 11.1505 6.04043 11.303L4.54043 14.803Z" fill="url(#paint2_linear_419_6615)"/>
<path d="M4.54043 14.803C4.45989 14.991 4.50188 15.209 4.64645 15.3536C4.79102 15.4981 5.00904 15.5401 5.19696 15.4596L8.69696 13.9596C8.84946 13.8942 8.9596 13.7575 8.99098 13.5946C9.02235 13.4316 8.97087 13.2638 8.85355 13.1464L6.85355 11.1464C6.73624 11.0291 6.56836 10.9776 6.40545 11.009C6.24253 11.0404 6.10578 11.1505 6.04043 11.303L4.54043 14.803Z" fill="url(#paint3_linear_419_6615)"/>
<path d="M4.54043 14.803C4.45989 14.991 4.50188 15.209 4.64645 15.3536C4.79102 15.4981 5.00904 15.5401 5.19696 15.4596L8.69696 13.9596C8.84946 13.8942 8.9596 13.7575 8.99098 13.5946C9.02235 13.4316 8.97087 13.2638 8.85355 13.1464L6.85355 11.1464C6.73624 11.0291 6.56836 10.9776 6.40545 11.009C6.24253 11.0404 6.10578 11.1505 6.04043 11.303L4.54043 14.803Z" stroke="url(#paint4_linear_419_6615)" stroke-linejoin="round"/>
<path d="M4.54043 14.803C4.45989 14.991 4.50188 15.209 4.64645 15.3536C4.79102 15.4981 5.00904 15.5401 5.19696 15.4596L8.69696 13.9596C8.84946 13.8942 8.9596 13.7575 8.99098 13.5946C9.02235 13.4316 8.97087 13.2638 8.85355 13.1464L6.85355 11.1464C6.73624 11.0291 6.56836 10.9776 6.40545 11.009C6.24253 11.0404 6.10578 11.1505 6.04043 11.303L4.54043 14.803Z" stroke="url(#paint5_linear_419_6615)" stroke-linejoin="round"/>
<path d="M6.14645 11.1464C5.95118 11.3417 5.95118 11.6583 6.14645 11.8536L8.14645 13.8536C8.34171 14.0488 8.65829 14.0488 8.85355 13.8536L14.8536 7.85355C15.0488 7.65829 15.0488 7.34171 14.8536 7.14645L12.8536 5.14645C12.6583 4.95118 12.3417 4.95118 12.1464 5.14645L6.14645 11.1464Z" fill="url(#paint6_linear_419_6615)" stroke="url(#paint7_linear_419_6615)" stroke-linejoin="round"/>
<path fill-rule="evenodd" clip-rule="evenodd" d="M6.5 11.5L7.20711 12.2071L13.2071 6.20711L12.5 5.5L6.5 11.5Z" fill="#FCF4B3"/>
<path d="M14.1464 7.85356L14.5 8.20712L14.8536 7.85356C15.0768 7.63032 15.3397 7.23926 15.4185 6.75535C15.5023 6.24043 15.3688 5.66169 14.8536 5.14646C14.3383 4.63123 13.7596 4.49768 13.2447 4.58151C12.7607 4.66028 12.3697 4.92321 12.1464 5.14646L11.7929 5.50001L12.1464 5.85356L14.1464 7.85356Z" fill="url(#paint8_linear_419_6615)" stroke="url(#paint9_linear_419_6615)"/>
</g>
<defs>
<linearGradient id="paint0_linear_419_6615" x1="2.02466" y1="2" x2="13.9753" y2="14" gradientUnits="userSpaceOnUse">
<stop offset="0.17614" stop-color="#79C76B"/>
<stop offset="0.818222" stop-color="#51B147"/>
</linearGradient>
<linearGradient id="paint1_linear_419_6615" x1="2" y1="2.00709" x2="14" y2="13.9929" gradientUnits="userSpaceOnUse">
<stop offset="0.103963" stop-color="#80CD75"/>
<stop offset="0.838825" stop-color="#41903D"/>
</linearGradient>
<linearGradient id="paint2_linear_419_6615" x1="6.16667" y1="11.8889" x2="8.11111" y2="13.8333" gradientUnits="userSpaceOnUse">
<stop stop-color="#FAE7D1"/>
<stop offset="1" stop-color="#E89840"/>
</linearGradient>
<linearGradient id="paint3_linear_419_6615" x1="6.94444" y1="12.6667" x2="3.83333" y2="15.7778" gradientUnits="userSpaceOnUse">
<stop stop-color="#584013" stop-opacity="0"/>
<stop offset="0.499937" stop-color="#584013" stop-opacity="0"/>
<stop offset="0.661921" stop-color="#584013"/>
</linearGradient>
<linearGradient id="paint4_linear_419_6615" x1="6.16667" y1="12.6667" x2="7.33333" y2="13.8333" gradientUnits="userSpaceOnUse">
<stop stop-color="#B98926"/>
<stop offset="1" stop-color="#AA6016"/>
</linearGradient>
<linearGradient id="paint5_linear_419_6615" x1="7.72222" y1="11.8889" x2="3.83333" y2="15.7778" gradientUnits="userSpaceOnUse">
<stop offset="0.5" stop-color="#B98926" stop-opacity="0"/>
<stop offset="0.656842" stop-color="#584013"/>
</linearGradient>
<linearGradient id="paint6_linear_419_6615" x1="6.5" y1="11.6579" x2="8.34211" y2="13.5" gradientUnits="userSpaceOnUse">
<stop stop-color="#F5DC60"/>
<stop offset="1" stop-color="#EFCB1A"/>
</linearGradient>
<linearGradient id="paint7_linear_419_6615" x1="6.5" y1="11.6579" x2="8.3421" y2="13.5" gradientUnits="userSpaceOnUse">
<stop stop-color="#E9C755"/>
<stop offset="1" stop-color="#D98F3B"/>
</linearGradient>
<linearGradient id="paint8_linear_419_6615" x1="12.4766" y1="6.30195" x2="14.8903" y2="6.69267" gradientUnits="userSpaceOnUse">
<stop stop-color="#FDD7D1"/>
<stop offset="1" stop-color="#FBACA1"/>
</linearGradient>
<linearGradient id="paint9_linear_419_6615" x1="12.5" y1="6.31509" x2="14.8693" y2="6.72938" gradientUnits="userSpaceOnUse">
<stop stop-color="#E1B3AD"/>
<stop offset="1" stop-color="#B17971"/>
</linearGradient>
<clipPath id="clip0_419_6615">
<rect width="16" height="16" fill="white"/>
</clipPath>
</defs>
</svg>
