<svg width="16" height="16" viewBox="0 0 16 16" fill="none" xmlns="http://www.w3.org/2000/svg">
<g clip-path="url(#clip0_451_8052)">
<rect x="4.5" y="3.5" width="7" height="4" fill="#C3C3C3" stroke="#9C9C9C" stroke-linejoin="round"/>
<path d="M3 5.5C2.92238 5.5 2.84582 5.51807 2.77639 5.55279L3 6C2.77639 5.55279 2.77621 5.55288 2.77602 5.55297L2.7756 5.55318L2.77462 5.55367L2.77212 5.55494L2.76494 5.55862L2.74224 5.57054C2.72353 5.58052 2.69778 5.59459 2.66599 5.61275C2.60248 5.64904 2.51449 5.70192 2.41015 5.77147C2.20232 5.91003 1.92505 6.11784 1.64645 6.39645C1.09195 6.95095 0.5 7.82062 0.5 9V9.01173V9.02348V9.03526V9.04706V9.05888V9.07072V9.08258V9.09447V9.10637V9.1183V9.13025V9.14222V9.15421V9.16622V9.17826V9.19031V9.20238V9.21447V9.22658V9.23871V9.25086V9.26303V9.27522V9.28743V9.29966V9.3119V9.32416V9.33644V9.34874V9.36106V9.37339V9.38574V9.39811V9.4105V9.4229V9.43532V9.44775V9.4602V9.47267V9.48515V9.49765V9.51017V9.5227V9.53524V9.5478V9.56038V9.57297V9.58557V9.59819V9.61082V9.62347V9.63613V9.6488V9.66149V9.67419V9.6869V9.69963V9.71237V9.72512V9.73789V9.75066V9.76345V9.77625V9.78906V9.80189V9.81472V9.82757V9.84042V9.85329V9.86617V9.87905V9.89195V9.90486V9.91778V9.93071V9.94364V9.95659V9.96955V9.98251V9.99548V10.0085V10.0215V10.0345V10.0475V10.0605V10.0735V10.0865V10.0996V10.1126V10.1257V10.1387V10.1518V10.1649V10.1779V10.191V10.2041V10.2172V10.2303V10.2434V10.2565V10.2696V10.2828V10.2959V10.309V10.3221V10.3353V10.3484V10.3616V10.3747V10.3879V10.401V10.4142V10.4273V10.4405V10.4537V10.4668V10.48V10.4932V10.5064V10.5195V10.5327V10.5459V10.5591V10.5723V10.5854V10.5986V10.6118V10.625V10.6382V10.6514V10.6645V10.6777V10.6909V10.7041V10.7173V10.7305V10.7436V10.7568V10.77V10.7832V10.7963V10.8095V10.8227V10.8358V10.849V10.8621V10.8753V10.8884V10.9016V10.9147V10.9279V10.941V10.9541V10.9672V10.9804V10.9935V11.0066V11.0197V11.0328V11.0459V11.059V11.0721V11.0851V11.0982V11.1113V11.1243V11.1374V11.1504V11.1635V11.1765V11.1895V11.2025V11.2155V11.2285V11.2415V11.2545V11.2675V11.2805V11.2934V11.3064V11.3193V11.3322V11.3451V11.358V11.3709V11.3838V11.3967V11.4096V11.4224V11.4353V11.4481V11.4609V11.4737V11.4865V11.4993V11.5121V11.5249V11.5376V11.5504V11.5631V11.5758V11.5885V11.6012V11.6139V11.6265V11.6392V11.6518V11.6644V11.677V11.6896V11.7022V11.7148V11.7273V11.7398V11.7523V11.7648V11.7773V11.7898V11.8022V11.8147V11.8271V11.8395V11.8519V11.8643V11.8766V11.8889V11.9013V11.9136V11.9258V11.9381V11.9503V11.9626V11.9748V11.987V11.9991V12.0113V12.0234V12.0355V12.0476V12.0597V12.0717V12.0838V12.0958V12.1078V12.1197V12.1317V12.1436V12.1555V12.1674V12.1793V12.1911V12.2029V12.2147V12.2265V12.2383V12.25V12.2617V12.2734V12.2851V12.2967V12.3083V12.3199V12.3315V12.343V12.3545V12.366V12.3775V12.3889V12.4003V12.4117V12.4231V12.4344V12.4458V12.4571V12.4683V12.4796V12.4908V12.502V12.5131V12.5242V12.5354V12.5464V12.5575V12.5685V12.5795V12.5905V12.6014V12.6123V12.6232V12.634V12.6449V12.6557V12.6664V12.6772V12.6879V12.6985V12.7092V12.7198V12.7304V12.7409V12.7515V12.7619V12.7724V12.7828V12.7932V12.8036V12.8139V12.8242V12.8345V12.8447V12.855V12.8651V12.8753V12.8854V12.8954V12.9055V12.9155V12.9255V12.9354V12.9453V12.9552V12.965V12.9748V12.9846V12.9943V13.004V13.0137V13.0233V13.0329V13.0424V13.052V13.0614V13.0709V13.0803V13.0897V13.099V13.1083V13.1176V13.1268V13.136V13.1451V13.1542V13.1633V13.1723V13.1813V13.1903V13.1992V13.2081V13.2169V13.2257V13.2344V13.2432V13.2518V13.2605V13.2691V13.2776V13.2861V13.2946V13.3031V13.3114V13.3198V13.3281V13.3364V13.3446V13.3528V13.3609V13.369V13.3771V13.3851V13.3931V13.401V13.4089V13.4167V13.4245V13.4322V13.44V13.4476V13.4552V13.4628V13.4703V13.4778V13.4853V13.4927V13.5V13.5073V13.5146V13.5218V13.5289V13.536V13.5431V13.5501V13.5571V13.564V13.5709V13.5778V13.5845V13.5913V13.598V13.6046V13.6112V13.6178V13.6242V13.6307V13.6371V13.6434V13.6497V13.656V13.6622V13.6683V13.6744V13.6805V13.6865V13.6924V13.6983V13.7042V13.71V13.7157V13.7214V13.727V13.7326V13.7382V13.7436V13.7491V13.7544V13.7598V13.765V13.7703V13.7754V13.7805V13.7856V13.7906V13.7955V13.8004V13.8053V13.81V13.8148V13.8195V13.8241V13.8286V13.8331V13.8376V13.842V13.8463V13.8506V13.8548V13.859V13.8631V13.8672V13.8712V13.8751V13.879V13.8828V13.8866V13.8903V13.894V13.8976V13.9011V13.9046V13.908V13.9114V13.9147V13.9179V13.9211V13.9242V13.9273V13.9303V13.9332V13.9361V13.9389V13.9416V13.9443V13.947V13.9495V13.9521V13.9545V13.9569V13.9592V13.9615V13.9637V13.9658V13.9679V13.9699V13.9719V13.9737V13.9756V13.9773V13.979V13.9806V13.9822V13.9837V13.9851V13.9865V13.9878V13.989V13.9902V13.9913V13.9924V13.9934V13.9943V13.9951V13.9959V13.9966V13.9972V13.9978V13.9983V13.9988V13.9991V13.9995V13.9997V13.9999V14L1 14H0.5C0.5 14.2761 0.723858 14.5 1 14.5H15C15.2761 14.5 15.5 14.2761 15.5 14H15L15.5 14V13.9999V13.9997V13.9995V13.9991V13.9988V13.9983V13.9978V13.9972V13.9966V13.9959V13.9951V13.9943V13.9934V13.9924V13.9913V13.9902V13.989V13.9878V13.9865V13.9851V13.9837V13.9822V13.9806V13.979V13.9773V13.9756V13.9737V13.9719V13.9699V13.9679V13.9658V13.9637V13.9615V13.9592V13.9569V13.9545V13.9521V13.9495V13.947V13.9443V13.9416V13.9389V13.9361V13.9332V13.9303V13.9273V13.9242V13.9211V13.9179V13.9147V13.9114V13.908V13.9046V13.9011V13.8976V13.894V13.8903V13.8866V13.8828V13.879V13.8751V13.8712V13.8672V13.8631V13.859V13.8548V13.8506V13.8463V13.842V13.8376V13.8331V13.8286V13.8241V13.8195V13.8148V13.81V13.8053V13.8004V13.7955V13.7906V13.7856V13.7805V13.7754V13.7703V13.765V13.7598V13.7544V13.7491V13.7436V13.7382V13.7326V13.727V13.7214V13.7157V13.71V13.7042V13.6983V13.6924V13.6865V13.6805V13.6744V13.6683V13.6622V13.656V13.6497V13.6434V13.6371V13.6307V13.6242V13.6178V13.6112V13.6046V13.598V13.5913V13.5845V13.5778V13.5709V13.564V13.5571V13.5501V13.5431V13.536V13.5289V13.5218V13.5146V13.5073V13.5V13.4927V13.4853V13.4778V13.4703V13.4628V13.4552V13.4476V13.44V13.4322V13.4245V13.4167V13.4089V13.401V13.3931V13.3851V13.3771V13.369V13.3609V13.3528V13.3446V13.3364V13.3281V13.3198V13.3114V13.3031V13.2946V13.2861V13.2776V13.2691V13.2605V13.2518V13.2432V13.2344V13.2257V13.2169V13.2081V13.1992V13.1903V13.1813V13.1723V13.1633V13.1542V13.1451V13.136V13.1268V13.1176V13.1083V13.099V13.0897V13.0803V13.0709V13.0614V13.052V13.0424V13.0329V13.0233V13.0137V13.004V12.9943V12.9846V12.9748V12.965V12.9552V12.9453V12.9354V12.9255V12.9155V12.9055V12.8954V12.8854V12.8753V12.8651V12.855V12.8447V12.8345V12.8242V12.8139V12.8036V12.7932V12.7828V12.7724V12.7619V12.7515V12.7409V12.7304V12.7198V12.7092V12.6985V12.6879V12.6772V12.6664V12.6557V12.6449V12.634V12.6232V12.6123V12.6014V12.5905V12.5795V12.5685V12.5575V12.5464V12.5354V12.5242V12.5131V12.502V12.4908V12.4796V12.4683V12.4571V12.4458V12.4344V12.4231V12.4117V12.4003V12.3889V12.3775V12.366V12.3545V12.343V12.3315V12.3199V12.3083V12.2967V12.2851V12.2734V12.2617V12.25V12.2383V12.2265V12.2147V12.2029V12.1911V12.1793V12.1674V12.1555V12.1436V12.1317V12.1197V12.1078V12.0958V12.0838V12.0717V12.0597V12.0476V12.0355V12.0234V12.0113V11.9991V11.987V11.9748V11.9626V11.9503V11.9381V11.9258V11.9136V11.9013V11.8889V11.8766V11.8643V11.8519V11.8395V11.8271V11.8147V11.8022V11.7898V11.7773V11.7648V11.7523V11.7398V11.7273V11.7148V11.7022V11.6896V11.677V11.6644V11.6518V11.6392V11.6265V11.6139V11.6012V11.5885V11.5758V11.5631V11.5504V11.5376V11.5249V11.5121V11.4993V11.4865V11.4737V11.4609V11.4481V11.4353V11.4224V11.4096V11.3967V11.3838V11.3709V11.358V11.3451V11.3322V11.3193V11.3064V11.2934V11.2805V11.2675V11.2545V11.2415V11.2285V11.2155V11.2025V11.1895V11.1765V11.1635V11.1504V11.1374V11.1243V11.1113V11.0982V11.0851V11.0721V11.059V11.0459V11.0328V11.0197V11.0066V10.9935V10.9804V10.9672V10.9541V10.941V10.9279V10.9147V10.9016V10.8884V10.8753V10.8621V10.849V10.8358V10.8227V10.8095V10.7963V10.7832V10.77V10.7568V10.7436V10.7305V10.7173V10.7041V10.6909V10.6777V10.6645V10.6514V10.6382V10.625V10.6118V10.5986V10.5854V10.5723V10.5591V10.5459V10.5327V10.5195V10.5064V10.4932V10.48V10.4668V10.4537V10.4405V10.4273V10.4142V10.401V10.3879V10.3747V10.3616V10.3484V10.3353V10.3221V10.309V10.2959V10.2828V10.2696V10.2565V10.2434V10.2303V10.2172V10.2041V10.191V10.1779V10.1649V10.1518V10.1387V10.1257V10.1126V10.0996V10.0865V10.0735V10.0605V10.0475V10.0345V10.0215V10.0085V9.99548V9.98251V9.96955V9.95659V9.94364V9.93071V9.91778V9.90486V9.89195V9.87905V9.86617V9.85329V9.84042V9.82757V9.81472V9.80189V9.78906V9.77625V9.76345V9.75066V9.73789V9.72512V9.71237V9.69963V9.6869V9.67419V9.66149V9.6488V9.63613V9.62347V9.61082V9.59819V9.58557V9.57297V9.56038V9.5478V9.53524V9.5227V9.51017V9.49765V9.48515V9.47267V9.4602V9.44775V9.43532V9.4229V9.4105V9.39811V9.38574V9.37339V9.36106V9.34874V9.33644V9.32416V9.3119V9.29966V9.28743V9.27522V9.26303V9.25086V9.23871V9.22658V9.21447V9.20238V9.19031V9.17826V9.16622V9.15421V9.14222V9.13025V9.1183V9.10637V9.09447V9.08258V9.07072V9.05888V9.04706V9.03526V9.02348V9.01173V9C15.5 7.82062 14.9081 6.95095 14.3536 6.39645C14.0749 6.11784 13.7977 5.91003 13.5899 5.77147C13.4855 5.70192 13.3975 5.64904 13.334 5.61275C13.3022 5.59459 13.2765 5.58052 13.2578 5.57054L13.2351 5.55862L13.2279 5.55494L13.2254 5.55367L13.2244 5.55318L13.224 5.55297C13.2238 5.55288 13.2236 5.55279 13 6L13.2236 5.55279C13.1542 5.51807 13.0776 5.5 13 5.5H3Z" fill="url(#paint0_linear_451_8052)" stroke="url(#paint1_linear_451_8052)" stroke-linejoin="round"/>
<mask id="mask0_451_8052" style="mask-type:alpha" maskUnits="userSpaceOnUse" x="3" y="0" width="10" height="8">
<rect x="3" width="10" height="8" fill="#D9D9D9"/>
</mask>
<g mask="url(#mask0_451_8052)">
<path d="M4 2C4 1.44772 4.44772 1 5 1H9.56545C9.84263 1 10.1074 1.11505 10.2965 1.31768L11.7311 2.8547C11.9039 3.03987 12 3.28373 12 3.53702V10C12 10.5523 11.5523 11 11 11H5C4.44772 11 4 10.5523 4 10V2Z" fill="url(#paint2_linear_451_8052)"/>
<path d="M5 0.5C4.17157 0.5 3.5 1.17157 3.5 2V10C3.5 10.8284 4.17157 11.5 5 11.5H11C11.8284 11.5 12.5 10.8284 12.5 10V3.53702C12.5 3.15708 12.3558 2.7913 12.0966 2.51354L10.662 0.976523C10.3783 0.67257 9.98122 0.5 9.56545 0.5H5Z" stroke="url(#paint3_linear_451_8052)" stroke-opacity="0.8" stroke-linejoin="round"/>
<path d="M4.5 2C4.5 1.72386 4.72386 1.5 5 1.5H9C9.27614 1.5 9.5 1.72386 9.5 2V2.14286C9.5 2.97128 10.1716 3.64286 11 3.64286C11.2761 3.64286 11.5 3.86671 11.5 4.14286V10C11.5 10.2761 11.2761 10.5 11 10.5H5C4.72386 10.5 4.5 10.2761 4.5 10V2Z" stroke="white" stroke-linejoin="round" style="mix-blend-mode:soft-light"/>
</g>
<rect x="3.5" y="7.5" width="9" height="6" fill="url(#paint4_linear_451_8052)" stroke="url(#paint5_linear_451_8052)" stroke-linejoin="round"/>
<rect x="4.5" y="8.5" width="7" height="4" stroke="white" stroke-opacity="0.66" stroke-linejoin="round"/>
<rect x="3.5" y="12.5" width="9" height="2" fill="#898989" stroke="url(#paint6_linear_451_8052)" stroke-linejoin="round"/>
<mask id="mask1_451_8052" style="mask-type:alpha" maskUnits="userSpaceOnUse" x="3" y="14" width="10" height="2">
<rect x="3" y="14" width="10" height="2" fill="#D9D9D9"/>
</mask>
<g mask="url(#mask1_451_8052)">
<path d="M4 6C4 5.44772 4.44772 5 5 5H9.56545C9.84263 5 10.1074 5.11505 10.2965 5.31768L11.7311 6.8547C11.9039 7.03987 12 7.28373 12 7.53702V14C12 14.5523 11.5523 15 11 15H5C4.44772 15 4 14.5523 4 14V6Z" fill="url(#paint7_linear_451_8052)"/>
<path d="M5 4.5C4.17157 4.5 3.5 5.17157 3.5 6V14C3.5 14.8284 4.17157 15.5 5 15.5H11C11.8284 15.5 12.5 14.8284 12.5 14V7.53702C12.5 7.15708 12.3558 6.7913 12.0966 6.51354L10.662 4.97652C10.3783 4.67257 9.98122 4.5 9.56545 4.5H5Z" stroke="url(#paint8_linear_451_8052)" stroke-opacity="0.8" stroke-linejoin="round"/>
<path d="M4.5 6C4.5 5.72386 4.72386 5.5 5 5.5H9C9.27614 5.5 9.5 5.72386 9.5 6V6.14286C9.5 6.97128 10.1716 7.64286 11 7.64286C11.2761 7.64286 11.5 7.86671 11.5 8.14286V14C11.5 14.2761 11.2761 14.5 11 14.5H5C4.72386 14.5 4.5 14.2761 4.5 14V6Z" stroke="white" stroke-linejoin="round" style="mix-blend-mode:soft-light"/>
</g>
</g>
<path d="M15 15.5C15.1776 15.5 15.3419 15.4058 15.4316 15.2524C15.5213 15.0991 15.5229 14.9097 15.4358 14.7549L10.9358 6.75487C10.8472 6.59743 10.6806 6.5 10.5 6.5C10.3194 6.5 10.1528 6.59743 10.0642 6.75487L5.56421 14.7549C5.47713 14.9097 5.47872 15.0991 5.5684 15.2524C5.65807 15.4058 5.82237 15.5 6 15.5H15Z" fill="#F5DA58" stroke="url(#paint9_linear_451_8052)" stroke-linejoin="round"/>
<path d="M10.5 8.01986L14.1451 14.5H6.85492L10.5 8.01986Z" stroke="white" stroke-opacity="0.66" stroke-linejoin="round"/>
<path d="M10.5 10V12M10.5 13V14" stroke="#C28731" stroke-linejoin="round"/>
<defs>
<linearGradient id="paint0_linear_451_8052" x1="8" y1="6" x2="8" y2="14" gradientUnits="userSpaceOnUse">
<stop stop-color="#DFDFDF"/>
<stop offset="0.249175" stop-color="#FCFCFC"/>
<stop offset="0.393624" stop-color="#FCFCFC"/>
<stop offset="1" stop-color="#B5B5B5"/>
</linearGradient>
<linearGradient id="paint1_linear_451_8052" x1="12" y1="14" x2="4" y2="6" gradientUnits="userSpaceOnUse">
<stop stop-color="#232323"/>
<stop offset="1" stop-color="#818181" stop-opacity="0.952941"/>
</linearGradient>
<linearGradient id="paint2_linear_451_8052" x1="4" y1="11" x2="12.6421" y2="1.5897" gradientUnits="userSpaceOnUse">
<stop offset="0.500484" stop-color="#D2E5FD"/>
<stop offset="0.844906" stop-color="#A6CBF0"/>
</linearGradient>
<linearGradient id="paint3_linear_451_8052" x1="4" y1="1.1503" x2="12.6421" y2="10.5606" gradientUnits="userSpaceOnUse">
<stop stop-color="#2F88DF"/>
<stop offset="1" stop-color="#053C92"/>
</linearGradient>
<linearGradient id="paint4_linear_451_8052" x1="8" y1="8" x2="8" y2="13" gradientUnits="userSpaceOnUse">
<stop stop-color="#DADADA"/>
<stop offset="1" stop-color="#B9B9B9"/>
</linearGradient>
<linearGradient id="paint5_linear_451_8052" x1="8" y1="7" x2="8" y2="14" gradientUnits="userSpaceOnUse">
<stop offset="0.1358" stop-color="#7D7D7D"/>
<stop offset="0.148028" stop-color="#CBCBCB"/>
<stop offset="1" stop-color="#959595"/>
</linearGradient>
<linearGradient id="paint6_linear_451_8052" x1="12" y1="13.5" x2="4" y2="13.5" gradientUnits="userSpaceOnUse">
<stop stop-color="#232323"/>
<stop offset="1" stop-color="#818181"/>
</linearGradient>
<linearGradient id="paint7_linear_451_8052" x1="4" y1="15" x2="12.6421" y2="5.5897" gradientUnits="userSpaceOnUse">
<stop offset="0.500484" stop-color="#D2E5FD"/>
<stop offset="0.844906" stop-color="#A6CBF0"/>
</linearGradient>
<linearGradient id="paint8_linear_451_8052" x1="4" y1="5.1503" x2="12.6421" y2="14.5606" gradientUnits="userSpaceOnUse">
<stop stop-color="#2F88DF"/>
<stop offset="1" stop-color="#053C92"/>
</linearGradient>
<linearGradient id="paint9_linear_451_8052" x1="10.5" y1="7" x2="10.5" y2="15" gradientUnits="userSpaceOnUse">
<stop stop-color="#E1B129"/>
<stop offset="1" stop-color="#BF7C2B"/>
</linearGradient>
<clipPath id="clip0_451_8052">
<rect width="16" height="16" fill="white"/>
</clipPath>
</defs>
</svg>
