<svg width="16" height="16" viewBox="0 0 16 16" fill="none" xmlns="http://www.w3.org/2000/svg">
<g clip-path="url(#clip0_451_7582)">
<rect x="4.5" y="2.5" width="7" height="4" fill="#C3C3C3" stroke="#9C9C9C" stroke-linejoin="round"/>
<path d="M3 4.5C2.92238 4.5 2.84582 4.51807 2.77639 4.55279L3 5C2.77639 4.55279 2.77621 4.55288 2.77602 4.55297L2.7756 4.55318L2.77462 4.55367L2.77212 4.55494L2.76494 4.55862L2.74224 4.57054C2.72353 4.58052 2.69778 4.59459 2.66599 4.61275C2.60248 4.64904 2.51449 4.70192 2.41015 4.77147C2.20232 4.91003 1.92505 5.11784 1.64645 5.39645C1.09195 5.95095 0.5 6.82062 0.5 8V8.01173V8.02348V8.03526V8.04706V8.05888V8.07072V8.08258V8.09447V8.10637V8.1183V8.13025V8.14222V8.15421V8.16622V8.17826V8.19031V8.20238V8.21447V8.22658V8.23871V8.25086V8.26303V8.27522V8.28743V8.29966V8.3119V8.32416V8.33644V8.34874V8.36106V8.37339V8.38574V8.39811V8.4105V8.4229V8.43532V8.44775V8.4602V8.47267V8.48515V8.49765V8.51017V8.5227V8.53524V8.5478V8.56038V8.57297V8.58557V8.59819V8.61082V8.62347V8.63613V8.6488V8.66149V8.67419V8.6869V8.69963V8.71237V8.72512V8.73789V8.75066V8.76345V8.77625V8.78906V8.80189V8.81472V8.82757V8.84042V8.85329V8.86617V8.87905V8.89195V8.90486V8.91778V8.93071V8.94364V8.95659V8.96955V8.98251V8.99548V9.00847V9.02146V9.03445V9.04746V9.06047V9.0735V9.08653V9.09956V9.11261V9.12566V9.13872V9.15178V9.16485V9.17793V9.19101V9.2041V9.2172V9.2303V9.2434V9.25651V9.26963V9.28275V9.29588V9.30901V9.32214V9.33528V9.34842V9.36157V9.37472V9.38787V9.40103V9.41418V9.42735V9.44051V9.45368V9.46685V9.48002V9.49319V9.50637V9.51955V9.53272V9.5459V9.55909V9.57227V9.58545V9.59863V9.61182V9.625V9.63818V9.65137V9.66455V9.67773V9.69091V9.70409V9.71727V9.73045V9.74363V9.75681V9.76998V9.78315V9.79632V9.80949V9.82265V9.83582V9.84897V9.86213V9.87528V9.88843V9.90158V9.91472V9.92786V9.94099V9.95412V9.96725V9.98037V9.99349V10.0066V10.0197V10.0328V10.0459V10.059V10.0721V10.0851V10.0982V10.1113V10.1243V10.1374V10.1504V10.1635V10.1765V10.1895V10.2025V10.2155V10.2285V10.2415V10.2545V10.2675V10.2805V10.2934V10.3064V10.3193V10.3322V10.3451V10.358V10.3709V10.3838V10.3967V10.4096V10.4224V10.4353V10.4481V10.4609V10.4737V10.4865V10.4993V10.5121V10.5249V10.5376V10.5504V10.5631V10.5758V10.5885V10.6012V10.6139V10.6265V10.6392V10.6518V10.6644V10.677V10.6896V10.7022V10.7148V10.7273V10.7398V10.7523V10.7648V10.7773V10.7898V10.8022V10.8147V10.8271V10.8395V10.8519V10.8643V10.8766V10.8889V10.9013V10.9136V10.9258V10.9381V10.9503V10.9626V10.9748V10.987V10.9991V11.0113V11.0234V11.0355V11.0476V11.0597V11.0717V11.0838V11.0958V11.1078V11.1197V11.1317V11.1436V11.1555V11.1674V11.1793V11.1911V11.2029V11.2147V11.2265V11.2383V11.25V11.2617V11.2734V11.2851V11.2967V11.3083V11.3199V11.3315V11.343V11.3545V11.366V11.3775V11.3889V11.4003V11.4117V11.4231V11.4344V11.4458V11.4571V11.4683V11.4796V11.4908V11.502V11.5131V11.5242V11.5354V11.5464V11.5575V11.5685V11.5795V11.5905V11.6014V11.6123V11.6232V11.634V11.6449V11.6557V11.6664V11.6772V11.6879V11.6985V11.7092V11.7198V11.7304V11.7409V11.7515V11.7619V11.7724V11.7828V11.7932V11.8036V11.8139V11.8242V11.8345V11.8447V11.855V11.8651V11.8753V11.8854V11.8954V11.9055V11.9155V11.9255V11.9354V11.9453V11.9552V11.965V11.9748V11.9846V11.9943V12.004V12.0137V12.0233V12.0329V12.0424V12.052V12.0614V12.0709V12.0803V12.0897V12.099V12.1083V12.1176V12.1268V12.136V12.1451V12.1542V12.1633V12.1723V12.1813V12.1903V12.1992V12.2081V12.2169V12.2257V12.2344V12.2432V12.2518V12.2605V12.2691V12.2776V12.2861V12.2946V12.3031V12.3114V12.3198V12.3281V12.3364V12.3446V12.3528V12.3609V12.369V12.3771V12.3851V12.3931V12.401V12.4089V12.4167V12.4245V12.4322V12.44V12.4476V12.4552V12.4628V12.4703V12.4778V12.4853V12.4927V12.5V12.5073V12.5146V12.5218V12.5289V12.536V12.5431V12.5501V12.5571V12.564V12.5709V12.5778V12.5845V12.5913V12.598V12.6046V12.6112V12.6178V12.6242V12.6307V12.6371V12.6434V12.6497V12.656V12.6622V12.6683V12.6744V12.6805V12.6865V12.6924V12.6983V12.7042V12.71V12.7157V12.7214V12.727V12.7326V12.7382V12.7436V12.7491V12.7544V12.7598V12.765V12.7703V12.7754V12.7805V12.7856V12.7906V12.7955V12.8004V12.8053V12.81V12.8148V12.8195V12.8241V12.8286V12.8331V12.8376V12.842V12.8463V12.8506V12.8548V12.859V12.8631V12.8672V12.8712V12.8751V12.879V12.8828V12.8866V12.8903V12.894V12.8976V12.9011V12.9046V12.908V12.9114V12.9147V12.9179V12.9211V12.9242V12.9273V12.9303V12.9332V12.9361V12.9389V12.9416V12.9443V12.947V12.9495V12.9521V12.9545V12.9569V12.9592V12.9615V12.9637V12.9658V12.9679V12.9699V12.9719V12.9737V12.9756V12.9773V12.979V12.9806V12.9822V12.9837V12.9851V12.9865V12.9878V12.989V12.9902V12.9913V12.9924V12.9934V12.9943V12.9951V12.9959V12.9966V12.9972V12.9978V12.9983V12.9988V12.9991V12.9995V12.9997V12.9999V13L1 13H0.5C0.5 13.2761 0.723858 13.5 1 13.5H15C15.2761 13.5 15.5 13.2761 15.5 13H15L15.5 13V12.9999V12.9997V12.9995V12.9991V12.9988V12.9983V12.9978V12.9972V12.9966V12.9959V12.9951V12.9943V12.9934V12.9924V12.9913V12.9902V12.989V12.9878V12.9865V12.9851V12.9837V12.9822V12.9806V12.979V12.9773V12.9756V12.9737V12.9719V12.9699V12.9679V12.9658V12.9637V12.9615V12.9592V12.9569V12.9545V12.9521V12.9495V12.947V12.9443V12.9416V12.9389V12.9361V12.9332V12.9303V12.9273V12.9242V12.9211V12.9179V12.9147V12.9114V12.908V12.9046V12.9011V12.8976V12.894V12.8903V12.8866V12.8828V12.879V12.8751V12.8712V12.8672V12.8631V12.859V12.8548V12.8506V12.8463V12.842V12.8376V12.8331V12.8286V12.8241V12.8195V12.8148V12.81V12.8053V12.8004V12.7955V12.7906V12.7856V12.7805V12.7754V12.7703V12.765V12.7598V12.7544V12.7491V12.7436V12.7382V12.7326V12.727V12.7214V12.7157V12.71V12.7042V12.6983V12.6924V12.6865V12.6805V12.6744V12.6683V12.6622V12.656V12.6497V12.6434V12.6371V12.6307V12.6242V12.6178V12.6112V12.6046V12.598V12.5913V12.5845V12.5778V12.5709V12.564V12.5571V12.5501V12.5431V12.536V12.5289V12.5218V12.5146V12.5073V12.5V12.4927V12.4853V12.4778V12.4703V12.4628V12.4552V12.4476V12.44V12.4322V12.4245V12.4167V12.4089V12.401V12.3931V12.3851V12.3771V12.369V12.3609V12.3528V12.3446V12.3364V12.3281V12.3198V12.3114V12.3031V12.2946V12.2861V12.2776V12.2691V12.2605V12.2518V12.2432V12.2344V12.2257V12.2169V12.2081V12.1992V12.1903V12.1813V12.1723V12.1633V12.1542V12.1451V12.136V12.1268V12.1176V12.1083V12.099V12.0897V12.0803V12.0709V12.0614V12.052V12.0424V12.0329V12.0233V12.0137V12.004V11.9943V11.9846V11.9748V11.965V11.9552V11.9453V11.9354V11.9255V11.9155V11.9055V11.8954V11.8854V11.8753V11.8651V11.855V11.8447V11.8345V11.8242V11.8139V11.8036V11.7932V11.7828V11.7724V11.7619V11.7515V11.7409V11.7304V11.7198V11.7092V11.6985V11.6879V11.6772V11.6664V11.6557V11.6449V11.634V11.6232V11.6123V11.6014V11.5905V11.5795V11.5685V11.5575V11.5464V11.5354V11.5242V11.5131V11.502V11.4908V11.4796V11.4683V11.4571V11.4458V11.4344V11.4231V11.4117V11.4003V11.3889V11.3775V11.366V11.3545V11.343V11.3315V11.3199V11.3083V11.2967V11.2851V11.2734V11.2617V11.25V11.2383V11.2265V11.2147V11.2029V11.1911V11.1793V11.1674V11.1555V11.1436V11.1317V11.1197V11.1078V11.0958V11.0838V11.0717V11.0597V11.0476V11.0355V11.0234V11.0113V10.9991V10.987V10.9748V10.9626V10.9503V10.9381V10.9258V10.9136V10.9013V10.8889V10.8766V10.8643V10.8519V10.8395V10.8271V10.8147V10.8022V10.7898V10.7773V10.7648V10.7523V10.7398V10.7273V10.7148V10.7022V10.6896V10.677V10.6644V10.6518V10.6392V10.6265V10.6139V10.6012V10.5885V10.5758V10.5631V10.5504V10.5376V10.5249V10.5121V10.4993V10.4865V10.4737V10.4609V10.4481V10.4353V10.4224V10.4096V10.3967V10.3838V10.3709V10.358V10.3451V10.3322V10.3193V10.3064V10.2934V10.2805V10.2675V10.2545V10.2415V10.2285V10.2155V10.2025V10.1895V10.1765V10.1635V10.1504V10.1374V10.1243V10.1113V10.0982V10.0851V10.0721V10.059V10.0459V10.0328V10.0197V10.0066V9.99349V9.98037V9.96725V9.95412V9.94099V9.92786V9.91472V9.90158V9.88843V9.87528V9.86213V9.84897V9.83582V9.82265V9.80949V9.79632V9.78315V9.76998V9.75681V9.74363V9.73045V9.71727V9.70409V9.69091V9.67773V9.66455V9.65137V9.63818V9.625V9.61182V9.59863V9.58545V9.57227V9.55909V9.5459V9.53272V9.51955V9.50637V9.49319V9.48002V9.46685V9.45368V9.44051V9.42735V9.41418V9.40103V9.38787V9.37472V9.36157V9.34842V9.33528V9.32214V9.30901V9.29588V9.28275V9.26963V9.25651V9.2434V9.2303V9.2172V9.2041V9.19101V9.17793V9.16485V9.15178V9.13872V9.12566V9.11261V9.09956V9.08653V9.0735V9.06047V9.04746V9.03445V9.02146V9.00847V8.99548V8.98251V8.96955V8.95659V8.94364V8.93071V8.91778V8.90486V8.89195V8.87905V8.86617V8.85329V8.84042V8.82757V8.81472V8.80189V8.78906V8.77625V8.76345V8.75066V8.73789V8.72512V8.71237V8.69963V8.6869V8.67419V8.66149V8.6488V8.63613V8.62347V8.61082V8.59819V8.58557V8.57297V8.56038V8.5478V8.53524V8.5227V8.51017V8.49765V8.48515V8.47267V8.4602V8.44775V8.43532V8.4229V8.4105V8.39811V8.38574V8.37339V8.36106V8.34874V8.33644V8.32416V8.3119V8.29966V8.28743V8.27522V8.26303V8.25086V8.23871V8.22658V8.21447V8.20238V8.19031V8.17826V8.16622V8.15421V8.14222V8.13025V8.1183V8.10637V8.09447V8.08258V8.07072V8.05888V8.04706V8.03526V8.02348V8.01173V8C15.5 6.82062 14.9081 5.95095 14.3536 5.39645C14.0749 5.11784 13.7977 4.91003 13.5899 4.77147C13.4855 4.70192 13.3975 4.64904 13.334 4.61275C13.3022 4.59459 13.2765 4.58052 13.2578 4.57054L13.2351 4.55862L13.2279 4.55494L13.2254 4.55367L13.2244 4.55318L13.224 4.55297C13.2238 4.55288 13.2236 4.55279 13 5L13.2236 4.55279C13.1542 4.51807 13.0776 4.5 13 4.5H3Z" fill="url(#paint0_linear_451_7582)" stroke="url(#paint1_linear_451_7582)" stroke-linejoin="round"/>
<rect x="3.5" y="6.5" width="9" height="6" fill="url(#paint2_linear_451_7582)" stroke="url(#paint3_linear_451_7582)" stroke-linejoin="round"/>
<rect x="4.5" y="7.5" width="7" height="4" stroke="white" stroke-opacity="0.66" stroke-linejoin="round"/>
<rect x="3.5" y="11.5" width="9" height="2" fill="#898989" stroke="url(#paint4_linear_451_7582)" stroke-linejoin="round"/>
</g>
<defs>
<linearGradient id="paint0_linear_451_7582" x1="8" y1="5" x2="8" y2="13" gradientUnits="userSpaceOnUse">
<stop stop-color="#DFDFDF"/>
<stop offset="0.249175" stop-color="#FCFCFC"/>
<stop offset="0.393624" stop-color="#FCFCFC"/>
<stop offset="1" stop-color="#B5B5B5"/>
</linearGradient>
<linearGradient id="paint1_linear_451_7582" x1="12" y1="13" x2="4" y2="5" gradientUnits="userSpaceOnUse">
<stop stop-color="#232323"/>
<stop offset="1" stop-color="#818181" stop-opacity="0.952941"/>
</linearGradient>
<linearGradient id="paint2_linear_451_7582" x1="8" y1="7" x2="8" y2="12" gradientUnits="userSpaceOnUse">
<stop stop-color="#DADADA"/>
<stop offset="1" stop-color="#B9B9B9"/>
</linearGradient>
<linearGradient id="paint3_linear_451_7582" x1="8" y1="6" x2="8" y2="13" gradientUnits="userSpaceOnUse">
<stop offset="0.1358" stop-color="#7D7D7D"/>
<stop offset="0.148028" stop-color="#CBCBCB"/>
<stop offset="1" stop-color="#959595"/>
</linearGradient>
<linearGradient id="paint4_linear_451_7582" x1="12" y1="12.5" x2="4" y2="12.5" gradientUnits="userSpaceOnUse">
<stop stop-color="#232323"/>
<stop offset="1" stop-color="#818181"/>
</linearGradient>
<clipPath id="clip0_451_7582">
<rect width="16" height="16" fill="white"/>
</clipPath>
</defs>
</svg>
