<svg width="16" height="16" viewBox="0 0 16 16" fill="none" xmlns="http://www.w3.org/2000/svg">
<g clip-path="url(#clip0_431_6835)">
<path d="M3 1.5C2.72386 1.5 2.5 1.72386 2.5 2V15C2.5 15.2761 2.72386 15.5 3 15.5H4C4.27614 15.5 4.5 15.2761 4.5 15V2C4.5 1.72386 4.27614 1.5 4 1.5H3Z" fill="#C29464" stroke="url(#paint0_linear_431_6835)" stroke-linejoin="round"/>
<rect x="4" y="1.5" width="11" height="14" fill="url(#paint1_linear_431_6835)" stroke="#BABABA" stroke-linejoin="round"/>
<rect x="4.5" y="0.5" width="11" height="14" fill="url(#paint2_linear_431_6835)" stroke="#C9C9C9" stroke-linejoin="round"/>
<g filter="url(#filter0_d_431_6835)">
<rect x="11" y="10" width="4" height="4" fill="url(#paint3_linear_431_6835)"/>
</g>
<rect x="4.5" y="1.5" width="10" height="12" stroke="#FCFCFC" stroke-opacity="0.66" stroke-linejoin="round"/>
<path d="M5 0.5C4.72386 0.5 4.5 0.723858 4.5 1V14C4.5 14.2761 4.72386 14.5 5 14.5H11C11.1326 14.5 11.2598 14.4473 11.3536 14.3536L13.3536 12.3536L15.3536 10.3536C15.4473 10.2598 15.5 10.1326 15.5 10V1C15.5 0.723858 15.2761 0.5 15 0.5H5Z" stroke="#D1D1D1" stroke-linejoin="round"/>
<rect x="7.5" y="4.5" width="5" height="2" fill="#A2C0EA" stroke="url(#paint4_linear_431_6835)" stroke-linejoin="round"/>
<rect x="7" y="8" width="6" height="1" rx="0.5" fill="url(#paint5_linear_431_6835)"/>
<path d="M3 0.5C2.72386 0.5 2.5 0.723858 2.5 1V14C2.5 14.2761 2.72386 14.5 3 14.5H4C4.27614 14.5 4.5 14.2761 4.5 14V1C4.5 0.723858 4.27614 0.5 4 0.5H3Z" fill="#C29464" stroke="url(#paint6_linear_431_6835)" stroke-linejoin="round"/>
<path d="M1 1.5C1 1.22386 1.22386 1 1.5 1H3.5C3.77614 1 4 1.22386 4 1.5C4 1.77614 3.77614 2 3.5 2H1.5C1.22386 2 1 1.77614 1 1.5Z" fill="url(#paint7_linear_431_6835)"/>
<path d="M1 3.5C1 3.22386 1.22386 3 1.5 3H3.5C3.77614 3 4 3.22386 4 3.5C4 3.77614 3.77614 4 3.5 4H1.5C1.22386 4 1 3.77614 1 3.5Z" fill="url(#paint8_linear_431_6835)"/>
<path d="M1 5.5C1 5.22386 1.22386 5 1.5 5H3.5C3.77614 5 4 5.22386 4 5.5C4 5.77614 3.77614 6 3.5 6H1.5C1.22386 6 1 5.77614 1 5.5Z" fill="url(#paint9_linear_431_6835)"/>
<path d="M1 7.5C1 7.22386 1.22386 7 1.5 7H3.5C3.77614 7 4 7.22386 4 7.5C4 7.77614 3.77614 8 3.5 8H1.5C1.22386 8 1 7.77614 1 7.5Z" fill="url(#paint10_linear_431_6835)"/>
<path d="M1 9.5C1 9.22386 1.22386 9 1.5 9H3.5C3.77614 9 4 9.22386 4 9.5C4 9.77614 3.77614 10 3.5 10H1.5C1.22386 10 1 9.77614 1 9.5Z" fill="url(#paint11_linear_431_6835)"/>
<path d="M1 11.5C1 11.2239 1.22386 11 1.5 11H3.5C3.77614 11 4 11.2239 4 11.5C4 11.7761 3.77614 12 3.5 12H1.5C1.22386 12 1 11.7761 1 11.5Z" fill="url(#paint12_linear_431_6835)"/>
<path d="M1 13.5C1 13.2239 1.22386 13 1.5 13H3.5C3.77614 13 4 13.2239 4 13.5C4 13.7761 3.77614 14 3.5 14H1.5C1.22386 14 1 13.7761 1 13.5Z" fill="url(#paint13_linear_431_6835)"/>
<path d="M15.5 14C15.5 13.8674 15.4473 13.7402 15.3536 13.6464L13.3536 11.6464C13.2598 11.5527 13.1326 11.5 13 11.5H12C11.7239 11.5 11.5 11.7239 11.5 12V13C11.5 13.1326 11.5527 13.2598 11.6464 13.3536L13.6464 15.3536C13.7402 15.4473 13.8674 15.5 14 15.5H15C15.2761 15.5 15.5 15.2761 15.5 15V14Z" fill="#DEB992" stroke="url(#paint14_linear_431_6835)" stroke-linejoin="round"/>
<circle cx="10.5" cy="10.5" r="3.5" fill="url(#paint15_radial_431_6835)"/>
<circle cx="10.5" cy="10.5" r="3" stroke="#9BBDE2" stroke-opacity="0.66"/>
<circle cx="10.5" cy="10.5" r="2" stroke="white" stroke-opacity="0.33"/>
</g>
<defs>
<filter id="filter0_d_431_6835" x="8" y="7" width="8" height="8" filterUnits="userSpaceOnUse" color-interpolation-filters="sRGB">
<feFlood flood-opacity="0" result="BackgroundImageFix"/>
<feColorMatrix in="SourceAlpha" type="matrix" values="0 0 0 0 0 0 0 0 0 0 0 0 0 0 0 0 0 0 127 0" result="hardAlpha"/>
<feMorphology radius="1" operator="erode" in="SourceAlpha" result="effect1_dropShadow_431_6835"/>
<feOffset dx="-1" dy="-1"/>
<feGaussianBlur stdDeviation="1.5"/>
<feComposite in2="hardAlpha" operator="out"/>
<feColorMatrix type="matrix" values="0 0 0 0 0 0 0 0 0 0 0 0 0 0 0 0 0 0 0.5 0"/>
<feBlend mode="normal" in2="BackgroundImageFix" result="effect1_dropShadow_431_6835"/>
<feBlend mode="normal" in="SourceGraphic" in2="effect1_dropShadow_431_6835" result="shape"/>
</filter>
<linearGradient id="paint0_linear_431_6835" x1="5" y1="9" x2="2" y2="9" gradientUnits="userSpaceOnUse">
<stop stop-color="#B25225"/>
<stop offset="1" stop-color="#B58266"/>
</linearGradient>
<linearGradient id="paint1_linear_431_6835" x1="4.5" y1="2.06963" x2="12.5" y2="12" gradientUnits="userSpaceOnUse">
<stop stop-color="#F7F7F7"/>
<stop offset="1" stop-color="#E6E6E6"/>
</linearGradient>
<linearGradient id="paint2_linear_431_6835" x1="5" y1="1.06963" x2="15" y2="14" gradientUnits="userSpaceOnUse">
<stop stop-color="#F7F7F7"/>
<stop offset="1" stop-color="#F6F6F6"/>
</linearGradient>
<linearGradient id="paint3_linear_431_6835" x1="15" y1="13.9894" x2="11" y2="10.0106" gradientUnits="userSpaceOnUse">
<stop stop-color="white"/>
<stop offset="1" stop-color="#FAFAFA"/>
</linearGradient>
<linearGradient id="paint4_linear_431_6835" x1="8" y1="5.5" x2="12" y2="5.5" gradientUnits="userSpaceOnUse">
<stop stop-color="#7AA5E1"/>
<stop offset="1" stop-color="#6A93D4"/>
</linearGradient>
<linearGradient id="paint5_linear_431_6835" x1="7" y1="8.5" x2="13" y2="8.5" gradientUnits="userSpaceOnUse">
<stop stop-color="#739FE0"/>
<stop offset="1" stop-color="#6A93D4"/>
</linearGradient>
<linearGradient id="paint6_linear_431_6835" x1="5" y1="8" x2="2" y2="8" gradientUnits="userSpaceOnUse">
<stop stop-color="#B25225"/>
<stop offset="1" stop-color="#B58266"/>
</linearGradient>
<linearGradient id="paint7_linear_431_6835" x1="4" y1="7.5" x2="1" y2="7.5" gradientUnits="userSpaceOnUse">
<stop offset="0.35" stop-color="#D9D9D9"/>
<stop offset="0.52" stop-color="#F2F2F2"/>
<stop offset="1" stop-color="#CECECE"/>
</linearGradient>
<linearGradient id="paint8_linear_431_6835" x1="4" y1="7.5" x2="1" y2="7.5" gradientUnits="userSpaceOnUse">
<stop offset="0.35" stop-color="#D9D9D9"/>
<stop offset="0.52" stop-color="#F2F2F2"/>
<stop offset="1" stop-color="#CECECE"/>
</linearGradient>
<linearGradient id="paint9_linear_431_6835" x1="4" y1="7.5" x2="1" y2="7.5" gradientUnits="userSpaceOnUse">
<stop offset="0.35" stop-color="#D9D9D9"/>
<stop offset="0.52" stop-color="#F2F2F2"/>
<stop offset="1" stop-color="#CECECE"/>
</linearGradient>
<linearGradient id="paint10_linear_431_6835" x1="4" y1="7.5" x2="1" y2="7.5" gradientUnits="userSpaceOnUse">
<stop offset="0.35" stop-color="#D9D9D9"/>
<stop offset="0.52" stop-color="#F2F2F2"/>
<stop offset="1" stop-color="#CECECE"/>
</linearGradient>
<linearGradient id="paint11_linear_431_6835" x1="4" y1="7.5" x2="1" y2="7.5" gradientUnits="userSpaceOnUse">
<stop offset="0.35" stop-color="#D9D9D9"/>
<stop offset="0.52" stop-color="#F2F2F2"/>
<stop offset="1" stop-color="#CECECE"/>
</linearGradient>
<linearGradient id="paint12_linear_431_6835" x1="4" y1="7.5" x2="1" y2="7.5" gradientUnits="userSpaceOnUse">
<stop offset="0.35" stop-color="#D9D9D9"/>
<stop offset="0.52" stop-color="#F2F2F2"/>
<stop offset="1" stop-color="#CECECE"/>
</linearGradient>
<linearGradient id="paint13_linear_431_6835" x1="4" y1="7.5" x2="1" y2="7.5" gradientUnits="userSpaceOnUse">
<stop offset="0.35" stop-color="#D9D9D9"/>
<stop offset="0.52" stop-color="#F2F2F2"/>
<stop offset="1" stop-color="#CECECE"/>
</linearGradient>
<linearGradient id="paint14_linear_431_6835" x1="12" y1="12" x2="15" y2="15" gradientUnits="userSpaceOnUse">
<stop stop-color="#DCAC78"/>
<stop offset="1" stop-color="#BA8A50"/>
</linearGradient>
<radialGradient id="paint15_radial_431_6835" cx="0" cy="0" r="1" gradientUnits="userSpaceOnUse" gradientTransform="translate(13 13) rotate(-135) scale(7.07107)">
<stop offset="0.33" stop-color="#B0D2F3"/>
<stop offset="1" stop-color="#E0EEFC"/>
</radialGradient>
<clipPath id="clip0_431_6835">
<rect width="16" height="16" fill="white"/>
</clipPath>
</defs>
</svg>
