<svg width="16" height="16" viewBox="0 0 16 16" fill="none" xmlns="http://www.w3.org/2000/svg">
<g clip-path="url(#clip0_431_6834)">
<path d="M3 1.5C2.72386 1.5 2.5 1.72386 2.5 2V15C2.5 15.2761 2.72386 15.5 3 15.5H4C4.27614 15.5 4.5 15.2761 4.5 15V2C4.5 1.72386 4.27614 1.5 4 1.5H3Z" fill="#C29464" stroke="url(#paint0_linear_431_6834)" stroke-linejoin="round"/>
<rect x="4" y="1.5" width="11" height="14" fill="url(#paint1_linear_431_6834)" stroke="#BABABA" stroke-linejoin="round"/>
<rect x="4.5" y="0.5" width="11" height="14" fill="url(#paint2_linear_431_6834)" stroke="#C9C9C9" stroke-linejoin="round"/>
<g filter="url(#filter0_d_431_6834)">
<rect x="11" y="10" width="4" height="4" fill="url(#paint3_linear_431_6834)"/>
</g>
<rect x="4.5" y="1.5" width="10" height="12" stroke="#FCFCFC" stroke-opacity="0.66" stroke-linejoin="round"/>
<path d="M5 0.5C4.72386 0.5 4.5 0.723858 4.5 1V14C4.5 14.2761 4.72386 14.5 5 14.5H11C11.1326 14.5 11.2598 14.4473 11.3536 14.3536L13.3536 12.3536L15.3536 10.3536C15.4473 10.2598 15.5 10.1326 15.5 10V1C15.5 0.723858 15.2761 0.5 15 0.5H5Z" stroke="#D1D1D1" stroke-linejoin="round"/>
<rect x="7.5" y="4.5" width="5" height="2" fill="#A2C0EA" stroke="url(#paint4_linear_431_6834)" stroke-linejoin="round"/>
<rect x="7" y="8" width="6" height="1" rx="0.5" fill="url(#paint5_linear_431_6834)"/>
<path d="M3 0.5C2.72386 0.5 2.5 0.723858 2.5 1V14C2.5 14.2761 2.72386 14.5 3 14.5H4C4.27614 14.5 4.5 14.2761 4.5 14V1C4.5 0.723858 4.27614 0.5 4 0.5H3Z" fill="#C29464" stroke="url(#paint6_linear_431_6834)" stroke-linejoin="round"/>
<path d="M1 1.5C1 1.22386 1.22386 1 1.5 1H3.5C3.77614 1 4 1.22386 4 1.5C4 1.77614 3.77614 2 3.5 2H1.5C1.22386 2 1 1.77614 1 1.5Z" fill="url(#paint7_linear_431_6834)"/>
<path d="M1 3.5C1 3.22386 1.22386 3 1.5 3H3.5C3.77614 3 4 3.22386 4 3.5C4 3.77614 3.77614 4 3.5 4H1.5C1.22386 4 1 3.77614 1 3.5Z" fill="url(#paint8_linear_431_6834)"/>
<path d="M1 5.5C1 5.22386 1.22386 5 1.5 5H3.5C3.77614 5 4 5.22386 4 5.5C4 5.77614 3.77614 6 3.5 6H1.5C1.22386 6 1 5.77614 1 5.5Z" fill="url(#paint9_linear_431_6834)"/>
<path d="M1 7.5C1 7.22386 1.22386 7 1.5 7H3.5C3.77614 7 4 7.22386 4 7.5C4 7.77614 3.77614 8 3.5 8H1.5C1.22386 8 1 7.77614 1 7.5Z" fill="url(#paint10_linear_431_6834)"/>
<path d="M1 9.5C1 9.22386 1.22386 9 1.5 9H3.5C3.77614 9 4 9.22386 4 9.5C4 9.77614 3.77614 10 3.5 10H1.5C1.22386 10 1 9.77614 1 9.5Z" fill="url(#paint11_linear_431_6834)"/>
<path d="M1 11.5C1 11.2239 1.22386 11 1.5 11H3.5C3.77614 11 4 11.2239 4 11.5C4 11.7761 3.77614 12 3.5 12H1.5C1.22386 12 1 11.7761 1 11.5Z" fill="url(#paint12_linear_431_6834)"/>
<path d="M1 13.5C1 13.2239 1.22386 13 1.5 13H3.5C3.77614 13 4 13.2239 4 13.5C4 13.7761 3.77614 14 3.5 14H1.5C1.22386 14 1 13.7761 1 13.5Z" fill="url(#paint13_linear_431_6834)"/>
<mask id="path-11-outside-1_431_6834" maskUnits="userSpaceOnUse" x="6" y="6" width="10" height="10" fill="black">
<rect fill="white" x="6" y="6" width="10" height="10"/>
<path fill-rule="evenodd" clip-rule="evenodd" d="M7 15V13.5L10 11V8.5L11.5 7H13L15 9V10.5L13.5 12H11V13H10V14H9V15H7ZM13 8L14 9L13 10L12 9L13 8Z"/>
</mask>
<g filter="url(#filter1_i_431_6834)">
<path fill-rule="evenodd" clip-rule="evenodd" d="M7 15V13.5L10 11V8.5L11.5 7H13L15 9V10.5L13.5 12H11V13H10V14H9V15H7ZM13 8L14 9L13 10L12 9L13 8Z" fill="#F4D847"/>
</g>
<path d="M7 13.5L6.35982 12.7318L6 13.0316V13.5H7ZM7 15H6V16H7V15ZM10 11L10.6402 11.7682L11 11.4684V11H10ZM10 8.5L9.29289 7.79289L9 8.08579V8.5H10ZM11.5 7V6H11.0858L10.7929 6.29289L11.5 7ZM13 7L13.7071 6.29289L13.4142 6H13V7ZM15 9H16V8.58579L15.7071 8.29289L15 9ZM15 10.5L15.7071 11.2071L16 10.9142V10.5H15ZM13.5 12V13H13.9142L14.2071 12.7071L13.5 12ZM11 12V11H10V12H11ZM11 13V14H12V13H11ZM10 13V12H9V13H10ZM10 14V15H11V14H10ZM9 14V13H8V14H9ZM9 15V16H10V15H9ZM14 9L14.7071 9.70711L15.4142 9L14.7071 8.29289L14 9ZM13 8L13.7071 7.29289L13 6.58579L12.2929 7.29289L13 8ZM13 10L12.2929 10.7071L13 11.4142L13.7071 10.7071L13 10ZM12 9L11.2929 8.29289L10.5858 9L11.2929 9.70711L12 9ZM6 13.5V15H8V13.5H6ZM9.35982 10.2318L6.35982 12.7318L7.64018 14.2682L10.6402 11.7682L9.35982 10.2318ZM9 8.5V11H11V8.5H9ZM10.7929 6.29289L9.29289 7.79289L10.7071 9.20711L12.2071 7.70711L10.7929 6.29289ZM13 6H11.5V8H13V6ZM15.7071 8.29289L13.7071 6.29289L12.2929 7.70711L14.2929 9.70711L15.7071 8.29289ZM16 10.5V9H14V10.5H16ZM14.2071 12.7071L15.7071 11.2071L14.2929 9.79289L12.7929 11.2929L14.2071 12.7071ZM11 13H13.5V11H11V13ZM12 13V12H10V13H12ZM10 14H11V12H10V14ZM11 14V13H9V14H11ZM9 15H10V13H9V15ZM10 15V14H8V15H10ZM7 16H9V14H7V16ZM14.7071 8.29289L13.7071 7.29289L12.2929 8.70711L13.2929 9.70711L14.7071 8.29289ZM13.7071 10.7071L14.7071 9.70711L13.2929 8.29289L12.2929 9.29289L13.7071 10.7071ZM11.2929 9.70711L12.2929 10.7071L13.7071 9.29289L12.7071 8.29289L11.2929 9.70711ZM12.2929 7.29289L11.2929 8.29289L12.7071 9.70711L13.7071 8.70711L12.2929 7.29289Z" fill="url(#paint14_linear_431_6834)" mask="url(#path-11-outside-1_431_6834)"/>
</g>
<defs>
<filter id="filter0_d_431_6834" x="8" y="7" width="8" height="8" filterUnits="userSpaceOnUse" color-interpolation-filters="sRGB">
<feFlood flood-opacity="0" result="BackgroundImageFix"/>
<feColorMatrix in="SourceAlpha" type="matrix" values="0 0 0 0 0 0 0 0 0 0 0 0 0 0 0 0 0 0 127 0" result="hardAlpha"/>
<feMorphology radius="1" operator="erode" in="SourceAlpha" result="effect1_dropShadow_431_6834"/>
<feOffset dx="-1" dy="-1"/>
<feGaussianBlur stdDeviation="1.5"/>
<feComposite in2="hardAlpha" operator="out"/>
<feColorMatrix type="matrix" values="0 0 0 0 0 0 0 0 0 0 0 0 0 0 0 0 0 0 0.5 0"/>
<feBlend mode="normal" in2="BackgroundImageFix" result="effect1_dropShadow_431_6834"/>
<feBlend mode="normal" in="SourceGraphic" in2="effect1_dropShadow_431_6834" result="shape"/>
</filter>
<filter id="filter1_i_431_6834" x="6" y="6" width="10" height="10" filterUnits="userSpaceOnUse" color-interpolation-filters="sRGB">
<feFlood flood-opacity="0" result="BackgroundImageFix"/>
<feBlend mode="normal" in="SourceGraphic" in2="BackgroundImageFix" result="shape"/>
<feColorMatrix in="SourceAlpha" type="matrix" values="0 0 0 0 0 0 0 0 0 0 0 0 0 0 0 0 0 0 127 0" result="hardAlpha"/>
<feOffset dx="2" dy="1"/>
<feComposite in2="hardAlpha" operator="arithmetic" k2="-1" k3="1"/>
<feColorMatrix type="matrix" values="0 0 0 0 1 0 0 0 0 1 0 0 0 0 1 0 0 0 0.5 0"/>
<feBlend mode="normal" in2="shape" result="effect1_innerShadow_431_6834"/>
</filter>
<linearGradient id="paint0_linear_431_6834" x1="5" y1="9" x2="2" y2="9" gradientUnits="userSpaceOnUse">
<stop stop-color="#B25225"/>
<stop offset="1" stop-color="#B58266"/>
</linearGradient>
<linearGradient id="paint1_linear_431_6834" x1="4.5" y1="2.06963" x2="12.5" y2="12" gradientUnits="userSpaceOnUse">
<stop stop-color="#F7F7F7"/>
<stop offset="1" stop-color="#E6E6E6"/>
</linearGradient>
<linearGradient id="paint2_linear_431_6834" x1="5" y1="1.06963" x2="15" y2="14" gradientUnits="userSpaceOnUse">
<stop stop-color="#F7F7F7"/>
<stop offset="1" stop-color="#F6F6F6"/>
</linearGradient>
<linearGradient id="paint3_linear_431_6834" x1="15" y1="13.9894" x2="11" y2="10.0106" gradientUnits="userSpaceOnUse">
<stop stop-color="white"/>
<stop offset="1" stop-color="#FAFAFA"/>
</linearGradient>
<linearGradient id="paint4_linear_431_6834" x1="8" y1="5.5" x2="12" y2="5.5" gradientUnits="userSpaceOnUse">
<stop stop-color="#7AA5E1"/>
<stop offset="1" stop-color="#6A93D4"/>
</linearGradient>
<linearGradient id="paint5_linear_431_6834" x1="7" y1="8.5" x2="13" y2="8.5" gradientUnits="userSpaceOnUse">
<stop stop-color="#739FE0"/>
<stop offset="1" stop-color="#6A93D4"/>
</linearGradient>
<linearGradient id="paint6_linear_431_6834" x1="5" y1="8" x2="2" y2="8" gradientUnits="userSpaceOnUse">
<stop stop-color="#B25225"/>
<stop offset="1" stop-color="#B58266"/>
</linearGradient>
<linearGradient id="paint7_linear_431_6834" x1="4" y1="7.5" x2="1" y2="7.5" gradientUnits="userSpaceOnUse">
<stop offset="0.35" stop-color="#D9D9D9"/>
<stop offset="0.52" stop-color="#F2F2F2"/>
<stop offset="1" stop-color="#CECECE"/>
</linearGradient>
<linearGradient id="paint8_linear_431_6834" x1="4" y1="7.5" x2="1" y2="7.5" gradientUnits="userSpaceOnUse">
<stop offset="0.35" stop-color="#D9D9D9"/>
<stop offset="0.52" stop-color="#F2F2F2"/>
<stop offset="1" stop-color="#CECECE"/>
</linearGradient>
<linearGradient id="paint9_linear_431_6834" x1="4" y1="7.5" x2="1" y2="7.5" gradientUnits="userSpaceOnUse">
<stop offset="0.35" stop-color="#D9D9D9"/>
<stop offset="0.52" stop-color="#F2F2F2"/>
<stop offset="1" stop-color="#CECECE"/>
</linearGradient>
<linearGradient id="paint10_linear_431_6834" x1="4" y1="7.5" x2="1" y2="7.5" gradientUnits="userSpaceOnUse">
<stop offset="0.35" stop-color="#D9D9D9"/>
<stop offset="0.52" stop-color="#F2F2F2"/>
<stop offset="1" stop-color="#CECECE"/>
</linearGradient>
<linearGradient id="paint11_linear_431_6834" x1="4" y1="7.5" x2="1" y2="7.5" gradientUnits="userSpaceOnUse">
<stop offset="0.35" stop-color="#D9D9D9"/>
<stop offset="0.52" stop-color="#F2F2F2"/>
<stop offset="1" stop-color="#CECECE"/>
</linearGradient>
<linearGradient id="paint12_linear_431_6834" x1="4" y1="7.5" x2="1" y2="7.5" gradientUnits="userSpaceOnUse">
<stop offset="0.35" stop-color="#D9D9D9"/>
<stop offset="0.52" stop-color="#F2F2F2"/>
<stop offset="1" stop-color="#CECECE"/>
</linearGradient>
<linearGradient id="paint13_linear_431_6834" x1="4" y1="7.5" x2="1" y2="7.5" gradientUnits="userSpaceOnUse">
<stop offset="0.35" stop-color="#D9D9D9"/>
<stop offset="0.52" stop-color="#F2F2F2"/>
<stop offset="1" stop-color="#CECECE"/>
</linearGradient>
<linearGradient id="paint14_linear_431_6834" x1="8.5" y1="8.5" x2="12.7612" y2="14.0656" gradientUnits="userSpaceOnUse">
<stop stop-color="#EAC15E"/>
<stop offset="1" stop-color="#C98032"/>
</linearGradient>
<clipPath id="clip0_431_6834">
<rect width="16" height="16" fill="white"/>
</clipPath>
</defs>
</svg>
