<svg width="16" height="16" viewBox="0 0 16 16" fill="none" xmlns="http://www.w3.org/2000/svg">
<g clip-path="url(#clip0_431_6839)">
<path d="M3 1.5C2.72386 1.5 2.5 1.72386 2.5 2V15C2.5 15.2761 2.72386 15.5 3 15.5H4C4.27614 15.5 4.5 15.2761 4.5 15V2C4.5 1.72386 4.27614 1.5 4 1.5H3Z" fill="#C29464" stroke="url(#paint0_linear_431_6839)" stroke-linejoin="round"/>
<rect x="4" y="1.5" width="11" height="14" fill="url(#paint1_linear_431_6839)" stroke="#BABABA" stroke-linejoin="round"/>
<rect x="4.5" y="0.5" width="11" height="14" fill="url(#paint2_linear_431_6839)" stroke="#C9C9C9" stroke-linejoin="round"/>
<g filter="url(#filter0_d_431_6839)">
<rect x="11" y="10" width="4" height="4" fill="url(#paint3_linear_431_6839)"/>
</g>
<rect x="4.5" y="1.5" width="10" height="12" stroke="#FCFCFC" stroke-opacity="0.66" stroke-linejoin="round"/>
<path d="M5 0.5C4.72386 0.5 4.5 0.723858 4.5 1V14C4.5 14.2761 4.72386 14.5 5 14.5H11C11.1326 14.5 11.2598 14.4473 11.3536 14.3536L13.3536 12.3536L15.3536 10.3536C15.4473 10.2598 15.5 10.1326 15.5 10V1C15.5 0.723858 15.2761 0.5 15 0.5H5Z" stroke="#D1D1D1" stroke-linejoin="round"/>
<rect x="7.5" y="4.5" width="5" height="2" fill="#A2C0EA" stroke="url(#paint4_linear_431_6839)" stroke-linejoin="round"/>
<rect x="7" y="8" width="6" height="1" rx="0.5" fill="url(#paint5_linear_431_6839)"/>
<path d="M3 0.5C2.72386 0.5 2.5 0.723858 2.5 1V14C2.5 14.2761 2.72386 14.5 3 14.5H4C4.27614 14.5 4.5 14.2761 4.5 14V1C4.5 0.723858 4.27614 0.5 4 0.5H3Z" fill="#C29464" stroke="url(#paint6_linear_431_6839)" stroke-linejoin="round"/>
<path d="M1 1.5C1 1.22386 1.22386 1 1.5 1H3.5C3.77614 1 4 1.22386 4 1.5C4 1.77614 3.77614 2 3.5 2H1.5C1.22386 2 1 1.77614 1 1.5Z" fill="url(#paint7_linear_431_6839)"/>
<path d="M1 3.5C1 3.22386 1.22386 3 1.5 3H3.5C3.77614 3 4 3.22386 4 3.5C4 3.77614 3.77614 4 3.5 4H1.5C1.22386 4 1 3.77614 1 3.5Z" fill="url(#paint8_linear_431_6839)"/>
<path d="M1 5.5C1 5.22386 1.22386 5 1.5 5H3.5C3.77614 5 4 5.22386 4 5.5C4 5.77614 3.77614 6 3.5 6H1.5C1.22386 6 1 5.77614 1 5.5Z" fill="url(#paint9_linear_431_6839)"/>
<path d="M1 7.5C1 7.22386 1.22386 7 1.5 7H3.5C3.77614 7 4 7.22386 4 7.5C4 7.77614 3.77614 8 3.5 8H1.5C1.22386 8 1 7.77614 1 7.5Z" fill="url(#paint10_linear_431_6839)"/>
<path d="M1 9.5C1 9.22386 1.22386 9 1.5 9H3.5C3.77614 9 4 9.22386 4 9.5C4 9.77614 3.77614 10 3.5 10H1.5C1.22386 10 1 9.77614 1 9.5Z" fill="url(#paint11_linear_431_6839)"/>
<path d="M1 11.5C1 11.2239 1.22386 11 1.5 11H3.5C3.77614 11 4 11.2239 4 11.5C4 11.7761 3.77614 12 3.5 12H1.5C1.22386 12 1 11.7761 1 11.5Z" fill="url(#paint12_linear_431_6839)"/>
<path d="M1 13.5C1 13.2239 1.22386 13 1.5 13H3.5C3.77614 13 4 13.2239 4 13.5C4 13.7761 3.77614 14 3.5 14H1.5C1.22386 14 1 13.7761 1 13.5Z" fill="url(#paint13_linear_431_6839)"/>
<path d="M4.54043 14.803C4.45989 14.991 4.50188 15.209 4.64645 15.3536C4.79102 15.4981 5.00904 15.5401 5.19696 15.4596L8.69696 13.9596C8.84946 13.8942 8.9596 13.7575 8.99098 13.5946C9.02235 13.4316 8.97087 13.2638 8.85355 13.1464L6.85355 11.1464C6.73624 11.0291 6.56836 10.9776 6.40545 11.009C6.24253 11.0404 6.10578 11.1505 6.04043 11.303L4.54043 14.803Z" fill="url(#paint14_linear_431_6839)"/>
<path d="M4.54043 14.803C4.45989 14.991 4.50188 15.209 4.64645 15.3536C4.79102 15.4981 5.00904 15.5401 5.19696 15.4596L8.69696 13.9596C8.84946 13.8942 8.9596 13.7575 8.99098 13.5946C9.02235 13.4316 8.97087 13.2638 8.85355 13.1464L6.85355 11.1464C6.73624 11.0291 6.56836 10.9776 6.40545 11.009C6.24253 11.0404 6.10578 11.1505 6.04043 11.303L4.54043 14.803Z" fill="url(#paint15_linear_431_6839)"/>
<path d="M4.54043 14.803C4.45989 14.991 4.50188 15.209 4.64645 15.3536C4.79102 15.4981 5.00904 15.5401 5.19696 15.4596L8.69696 13.9596C8.84946 13.8942 8.9596 13.7575 8.99098 13.5946C9.02235 13.4316 8.97087 13.2638 8.85355 13.1464L6.85355 11.1464C6.73624 11.0291 6.56836 10.9776 6.40545 11.009C6.24253 11.0404 6.10578 11.1505 6.04043 11.303L4.54043 14.803Z" stroke="url(#paint16_linear_431_6839)" stroke-linejoin="round"/>
<path d="M4.54043 14.803C4.45989 14.991 4.50188 15.209 4.64645 15.3536C4.79102 15.4981 5.00904 15.5401 5.19696 15.4596L8.69696 13.9596C8.84946 13.8942 8.9596 13.7575 8.99098 13.5946C9.02235 13.4316 8.97087 13.2638 8.85355 13.1464L6.85355 11.1464C6.73624 11.0291 6.56836 10.9776 6.40545 11.009C6.24253 11.0404 6.10578 11.1505 6.04043 11.303L4.54043 14.803Z" stroke="url(#paint17_linear_431_6839)" stroke-linejoin="round"/>
<path d="M6.14645 11.1464C5.95118 11.3417 5.95118 11.6583 6.14645 11.8536L8.14645 13.8536C8.34171 14.0488 8.65829 14.0488 8.85355 13.8536L14.8536 7.85355C15.0488 7.65829 15.0488 7.34171 14.8536 7.14645L12.8536 5.14645C12.6583 4.95118 12.3417 4.95118 12.1464 5.14645L6.14645 11.1464Z" fill="url(#paint18_linear_431_6839)" stroke="url(#paint19_linear_431_6839)" stroke-linejoin="round"/>
<path fill-rule="evenodd" clip-rule="evenodd" d="M6.5 11.5L7.20711 12.2071L13.2071 6.20711L12.5 5.5L6.5 11.5Z" fill="#FCF4B3"/>
<path d="M14.1464 7.85356L14.5 8.20712L14.8536 7.85356C15.0768 7.63032 15.3397 7.23926 15.4185 6.75535C15.5023 6.24043 15.3688 5.66169 14.8536 5.14646C14.3383 4.63123 13.7596 4.49768 13.2447 4.58151C12.7607 4.66028 12.3697 4.92321 12.1464 5.14646L11.7929 5.50001L12.1464 5.85356L14.1464 7.85356Z" fill="url(#paint20_linear_431_6839)" stroke="url(#paint21_linear_431_6839)"/>
</g>
<defs>
<filter id="filter0_d_431_6839" x="8" y="7" width="8" height="8" filterUnits="userSpaceOnUse" color-interpolation-filters="sRGB">
<feFlood flood-opacity="0" result="BackgroundImageFix"/>
<feColorMatrix in="SourceAlpha" type="matrix" values="0 0 0 0 0 0 0 0 0 0 0 0 0 0 0 0 0 0 127 0" result="hardAlpha"/>
<feMorphology radius="1" operator="erode" in="SourceAlpha" result="effect1_dropShadow_431_6839"/>
<feOffset dx="-1" dy="-1"/>
<feGaussianBlur stdDeviation="1.5"/>
<feComposite in2="hardAlpha" operator="out"/>
<feColorMatrix type="matrix" values="0 0 0 0 0 0 0 0 0 0 0 0 0 0 0 0 0 0 0.5 0"/>
<feBlend mode="normal" in2="BackgroundImageFix" result="effect1_dropShadow_431_6839"/>
<feBlend mode="normal" in="SourceGraphic" in2="effect1_dropShadow_431_6839" result="shape"/>
</filter>
<linearGradient id="paint0_linear_431_6839" x1="5" y1="9" x2="2" y2="9" gradientUnits="userSpaceOnUse">
<stop stop-color="#B25225"/>
<stop offset="1" stop-color="#B58266"/>
</linearGradient>
<linearGradient id="paint1_linear_431_6839" x1="4.5" y1="2.06963" x2="12.5" y2="12" gradientUnits="userSpaceOnUse">
<stop stop-color="#F7F7F7"/>
<stop offset="1" stop-color="#E6E6E6"/>
</linearGradient>
<linearGradient id="paint2_linear_431_6839" x1="5" y1="1.06963" x2="15" y2="14" gradientUnits="userSpaceOnUse">
<stop stop-color="#F7F7F7"/>
<stop offset="1" stop-color="#F6F6F6"/>
</linearGradient>
<linearGradient id="paint3_linear_431_6839" x1="15" y1="13.9894" x2="11" y2="10.0106" gradientUnits="userSpaceOnUse">
<stop stop-color="white"/>
<stop offset="1" stop-color="#FAFAFA"/>
</linearGradient>
<linearGradient id="paint4_linear_431_6839" x1="8" y1="5.5" x2="12" y2="5.5" gradientUnits="userSpaceOnUse">
<stop stop-color="#7AA5E1"/>
<stop offset="1" stop-color="#6A93D4"/>
</linearGradient>
<linearGradient id="paint5_linear_431_6839" x1="7" y1="8.5" x2="13" y2="8.5" gradientUnits="userSpaceOnUse">
<stop stop-color="#739FE0"/>
<stop offset="1" stop-color="#6A93D4"/>
</linearGradient>
<linearGradient id="paint6_linear_431_6839" x1="5" y1="8" x2="2" y2="8" gradientUnits="userSpaceOnUse">
<stop stop-color="#B25225"/>
<stop offset="1" stop-color="#B58266"/>
</linearGradient>
<linearGradient id="paint7_linear_431_6839" x1="4" y1="7.5" x2="1" y2="7.5" gradientUnits="userSpaceOnUse">
<stop offset="0.35" stop-color="#D9D9D9"/>
<stop offset="0.52" stop-color="#F2F2F2"/>
<stop offset="1" stop-color="#CECECE"/>
</linearGradient>
<linearGradient id="paint8_linear_431_6839" x1="4" y1="7.5" x2="1" y2="7.5" gradientUnits="userSpaceOnUse">
<stop offset="0.35" stop-color="#D9D9D9"/>
<stop offset="0.52" stop-color="#F2F2F2"/>
<stop offset="1" stop-color="#CECECE"/>
</linearGradient>
<linearGradient id="paint9_linear_431_6839" x1="4" y1="7.5" x2="1" y2="7.5" gradientUnits="userSpaceOnUse">
<stop offset="0.35" stop-color="#D9D9D9"/>
<stop offset="0.52" stop-color="#F2F2F2"/>
<stop offset="1" stop-color="#CECECE"/>
</linearGradient>
<linearGradient id="paint10_linear_431_6839" x1="4" y1="7.5" x2="1" y2="7.5" gradientUnits="userSpaceOnUse">
<stop offset="0.35" stop-color="#D9D9D9"/>
<stop offset="0.52" stop-color="#F2F2F2"/>
<stop offset="1" stop-color="#CECECE"/>
</linearGradient>
<linearGradient id="paint11_linear_431_6839" x1="4" y1="7.5" x2="1" y2="7.5" gradientUnits="userSpaceOnUse">
<stop offset="0.35" stop-color="#D9D9D9"/>
<stop offset="0.52" stop-color="#F2F2F2"/>
<stop offset="1" stop-color="#CECECE"/>
</linearGradient>
<linearGradient id="paint12_linear_431_6839" x1="4" y1="7.5" x2="1" y2="7.5" gradientUnits="userSpaceOnUse">
<stop offset="0.35" stop-color="#D9D9D9"/>
<stop offset="0.52" stop-color="#F2F2F2"/>
<stop offset="1" stop-color="#CECECE"/>
</linearGradient>
<linearGradient id="paint13_linear_431_6839" x1="4" y1="7.5" x2="1" y2="7.5" gradientUnits="userSpaceOnUse">
<stop offset="0.35" stop-color="#D9D9D9"/>
<stop offset="0.52" stop-color="#F2F2F2"/>
<stop offset="1" stop-color="#CECECE"/>
</linearGradient>
<linearGradient id="paint14_linear_431_6839" x1="6.16667" y1="11.8889" x2="8.11111" y2="13.8333" gradientUnits="userSpaceOnUse">
<stop stop-color="#FAE7D1"/>
<stop offset="1" stop-color="#E89840"/>
</linearGradient>
<linearGradient id="paint15_linear_431_6839" x1="6.94444" y1="12.6667" x2="3.83333" y2="15.7778" gradientUnits="userSpaceOnUse">
<stop stop-color="#584013" stop-opacity="0"/>
<stop offset="0.499937" stop-color="#584013" stop-opacity="0"/>
<stop offset="0.661921" stop-color="#584013"/>
</linearGradient>
<linearGradient id="paint16_linear_431_6839" x1="6.16667" y1="12.6667" x2="7.33333" y2="13.8333" gradientUnits="userSpaceOnUse">
<stop stop-color="#B98926"/>
<stop offset="1" stop-color="#AA6016"/>
</linearGradient>
<linearGradient id="paint17_linear_431_6839" x1="7.72222" y1="11.8889" x2="3.83333" y2="15.7778" gradientUnits="userSpaceOnUse">
<stop offset="0.5" stop-color="#B98926" stop-opacity="0"/>
<stop offset="0.656842" stop-color="#584013"/>
</linearGradient>
<linearGradient id="paint18_linear_431_6839" x1="6.5" y1="11.6579" x2="8.34211" y2="13.5" gradientUnits="userSpaceOnUse">
<stop stop-color="#F5DC60"/>
<stop offset="1" stop-color="#EFCB1A"/>
</linearGradient>
<linearGradient id="paint19_linear_431_6839" x1="6.5" y1="11.6579" x2="8.3421" y2="13.5" gradientUnits="userSpaceOnUse">
<stop stop-color="#E9C755"/>
<stop offset="1" stop-color="#D98F3B"/>
</linearGradient>
<linearGradient id="paint20_linear_431_6839" x1="12.4766" y1="6.30195" x2="14.8903" y2="6.69267" gradientUnits="userSpaceOnUse">
<stop stop-color="#FDD7D1"/>
<stop offset="1" stop-color="#FBACA1"/>
</linearGradient>
<linearGradient id="paint21_linear_431_6839" x1="12.5" y1="6.31509" x2="14.8693" y2="6.72938" gradientUnits="userSpaceOnUse">
<stop stop-color="#E1B3AD"/>
<stop offset="1" stop-color="#B17971"/>
</linearGradient>
<clipPath id="clip0_431_6839">
<rect width="16" height="16" fill="white"/>
</clipPath>
</defs>
</svg>
