<svg width="16" height="16" viewBox="0 0 16 16" fill="none" xmlns="http://www.w3.org/2000/svg">
<g clip-path="url(#clip0_431_6833)">
<path d="M3 1.5C2.72386 1.5 2.5 1.72386 2.5 2V15C2.5 15.2761 2.72386 15.5 3 15.5H4C4.27614 15.5 4.5 15.2761 4.5 15V2C4.5 1.72386 4.27614 1.5 4 1.5H3Z" fill="#C29464" stroke="url(#paint0_linear_431_6833)" stroke-linejoin="round"/>
<rect x="4" y="1.5" width="11" height="14" fill="url(#paint1_linear_431_6833)" stroke="#BABABA" stroke-linejoin="round"/>
<rect x="4.5" y="0.5" width="11" height="14" fill="url(#paint2_linear_431_6833)" stroke="#C9C9C9" stroke-linejoin="round"/>
<g filter="url(#filter0_d_431_6833)">
<rect x="11" y="10" width="4" height="4" fill="url(#paint3_linear_431_6833)"/>
</g>
<rect x="4.5" y="1.5" width="10" height="12" stroke="#FCFCFC" stroke-opacity="0.66" stroke-linejoin="round"/>
<path d="M5 0.5C4.72386 0.5 4.5 0.723858 4.5 1V14C4.5 14.2761 4.72386 14.5 5 14.5H11C11.1326 14.5 11.2598 14.4473 11.3536 14.3536L13.3536 12.3536L15.3536 10.3536C15.4473 10.2598 15.5 10.1326 15.5 10V1C15.5 0.723858 15.2761 0.5 15 0.5H5Z" stroke="#D1D1D1" stroke-linejoin="round"/>
<rect x="7.5" y="4.5" width="5" height="2" fill="#A2C0EA" stroke="url(#paint4_linear_431_6833)" stroke-linejoin="round"/>
<rect x="7" y="8" width="6" height="1" rx="0.5" fill="url(#paint5_linear_431_6833)"/>
<path d="M3 0.5C2.72386 0.5 2.5 0.723858 2.5 1V14C2.5 14.2761 2.72386 14.5 3 14.5H4C4.27614 14.5 4.5 14.2761 4.5 14V1C4.5 0.723858 4.27614 0.5 4 0.5H3Z" fill="#C29464" stroke="url(#paint6_linear_431_6833)" stroke-linejoin="round"/>
<path d="M1 1.5C1 1.22386 1.22386 1 1.5 1H3.5C3.77614 1 4 1.22386 4 1.5C4 1.77614 3.77614 2 3.5 2H1.5C1.22386 2 1 1.77614 1 1.5Z" fill="url(#paint7_linear_431_6833)"/>
<path d="M1 3.5C1 3.22386 1.22386 3 1.5 3H3.5C3.77614 3 4 3.22386 4 3.5C4 3.77614 3.77614 4 3.5 4H1.5C1.22386 4 1 3.77614 1 3.5Z" fill="url(#paint8_linear_431_6833)"/>
<path d="M1 5.5C1 5.22386 1.22386 5 1.5 5H3.5C3.77614 5 4 5.22386 4 5.5C4 5.77614 3.77614 6 3.5 6H1.5C1.22386 6 1 5.77614 1 5.5Z" fill="url(#paint9_linear_431_6833)"/>
<path d="M1 7.5C1 7.22386 1.22386 7 1.5 7H3.5C3.77614 7 4 7.22386 4 7.5C4 7.77614 3.77614 8 3.5 8H1.5C1.22386 8 1 7.77614 1 7.5Z" fill="url(#paint10_linear_431_6833)"/>
<path d="M1 9.5C1 9.22386 1.22386 9 1.5 9H3.5C3.77614 9 4 9.22386 4 9.5C4 9.77614 3.77614 10 3.5 10H1.5C1.22386 10 1 9.77614 1 9.5Z" fill="url(#paint11_linear_431_6833)"/>
<path d="M1 11.5C1 11.2239 1.22386 11 1.5 11H3.5C3.77614 11 4 11.2239 4 11.5C4 11.7761 3.77614 12 3.5 12H1.5C1.22386 12 1 11.7761 1 11.5Z" fill="url(#paint12_linear_431_6833)"/>
<path d="M1 13.5C1 13.2239 1.22386 13 1.5 13H3.5C3.77614 13 4 13.2239 4 13.5C4 13.7761 3.77614 14 3.5 14H1.5C1.22386 14 1 13.7761 1 13.5Z" fill="url(#paint13_linear_431_6833)"/>
<mask id="path-11-inside-1_431_6833" fill="white">
<path fill-rule="evenodd" clip-rule="evenodd" d="M6.5 16C8.433 16 10 14.433 10 12.5C10 10.567 8.433 9 6.5 9C4.567 9 3 10.567 3 12.5C3 14.433 4.567 16 6.5 16ZM6.5 13C6.77614 13 7 12.7761 7 12.5C7 12.2239 6.77614 12 6.5 12C6.22386 12 6 12.2239 6 12.5C6 12.7761 6.22386 13 6.5 13Z"/>
</mask>
<path fill-rule="evenodd" clip-rule="evenodd" d="M6.5 16C8.433 16 10 14.433 10 12.5C10 10.567 8.433 9 6.5 9C4.567 9 3 10.567 3 12.5C3 14.433 4.567 16 6.5 16ZM6.5 13C6.77614 13 7 12.7761 7 12.5C7 12.2239 6.77614 12 6.5 12C6.22386 12 6 12.2239 6 12.5C6 12.7761 6.22386 13 6.5 13Z" fill="url(#paint14_linear_431_6833)"/>
<path d="M9 12.5C9 13.8807 7.88071 15 6.5 15V17C8.98528 17 11 14.9853 11 12.5H9ZM6.5 10C7.88071 10 9 11.1193 9 12.5H11C11 10.0147 8.98528 8 6.5 8V10ZM4 12.5C4 11.1193 5.11929 10 6.5 10V8C4.01472 8 2 10.0147 2 12.5H4ZM6.5 15C5.11929 15 4 13.8807 4 12.5H2C2 14.9853 4.01472 17 6.5 17V15ZM6 12.5C6 12.2239 6.22386 12 6.5 12V14C7.32843 14 8 13.3284 8 12.5H6ZM6.5 13C6.22386 13 6 12.7761 6 12.5H8C8 11.6716 7.32843 11 6.5 11V13ZM7 12.5C7 12.7761 6.77614 13 6.5 13V11C5.67157 11 5 11.6716 5 12.5H7ZM6.5 12C6.77614 12 7 12.2239 7 12.5H5C5 13.3284 5.67157 14 6.5 14V12Z" fill="url(#paint15_linear_431_6833)" mask="url(#path-11-inside-1_431_6833)"/>
<mask id="path-13-inside-2_431_6833" fill="white">
<path fill-rule="evenodd" clip-rule="evenodd" d="M12.5 16C14.433 16 16 14.433 16 12.5C16 10.567 14.433 9 12.5 9C10.567 9 9 10.567 9 12.5C9 14.433 10.567 16 12.5 16ZM12.5 13C12.7761 13 13 12.7761 13 12.5C13 12.2239 12.7761 12 12.5 12C12.2239 12 12 12.2239 12 12.5C12 12.7761 12.2239 13 12.5 13Z"/>
</mask>
<path fill-rule="evenodd" clip-rule="evenodd" d="M12.5 16C14.433 16 16 14.433 16 12.5C16 10.567 14.433 9 12.5 9C10.567 9 9 10.567 9 12.5C9 14.433 10.567 16 12.5 16ZM12.5 13C12.7761 13 13 12.7761 13 12.5C13 12.2239 12.7761 12 12.5 12C12.2239 12 12 12.2239 12 12.5C12 12.7761 12.2239 13 12.5 13Z" fill="url(#paint16_linear_431_6833)"/>
<path d="M15 12.5C15 13.8807 13.8807 15 12.5 15V17C14.9853 17 17 14.9853 17 12.5H15ZM12.5 10C13.8807 10 15 11.1193 15 12.5H17C17 10.0147 14.9853 8 12.5 8V10ZM10 12.5C10 11.1193 11.1193 10 12.5 10V8C10.0147 8 8 10.0147 8 12.5H10ZM12.5 15C11.1193 15 10 13.8807 10 12.5H8C8 14.9853 10.0147 17 12.5 17V15ZM12 12.5C12 12.2239 12.2239 12 12.5 12V14C13.3284 14 14 13.3284 14 12.5H12ZM12.5 13C12.2239 13 12 12.7761 12 12.5H14C14 11.6716 13.3284 11 12.5 11V13ZM13 12.5C13 12.7761 12.7761 13 12.5 13V11C11.6716 11 11 11.6716 11 12.5H13ZM12.5 12C12.7761 12 13 12.2239 13 12.5H11C11 13.3284 11.6716 14 12.5 14V12Z" fill="url(#paint17_linear_431_6833)" mask="url(#path-13-inside-2_431_6833)"/>
<rect x="6.5" y="11.5" width="6" height="2" fill="url(#paint18_linear_431_6833)"/>
<rect x="6.5" y="11.5" width="6" height="2" stroke="url(#paint19_linear_431_6833)" stroke-linejoin="round"/>
<rect x="6.5" y="11.5" width="6" height="2" stroke="url(#paint20_linear_431_6833)" stroke-linejoin="round"/>
</g>
<defs>
<filter id="filter0_d_431_6833" x="8" y="7" width="8" height="8" filterUnits="userSpaceOnUse" color-interpolation-filters="sRGB">
<feFlood flood-opacity="0" result="BackgroundImageFix"/>
<feColorMatrix in="SourceAlpha" type="matrix" values="0 0 0 0 0 0 0 0 0 0 0 0 0 0 0 0 0 0 127 0" result="hardAlpha"/>
<feMorphology radius="1" operator="erode" in="SourceAlpha" result="effect1_dropShadow_431_6833"/>
<feOffset dx="-1" dy="-1"/>
<feGaussianBlur stdDeviation="1.5"/>
<feComposite in2="hardAlpha" operator="out"/>
<feColorMatrix type="matrix" values="0 0 0 0 0 0 0 0 0 0 0 0 0 0 0 0 0 0 0.5 0"/>
<feBlend mode="normal" in2="BackgroundImageFix" result="effect1_dropShadow_431_6833"/>
<feBlend mode="normal" in="SourceGraphic" in2="effect1_dropShadow_431_6833" result="shape"/>
</filter>
<linearGradient id="paint0_linear_431_6833" x1="5" y1="9" x2="2" y2="9" gradientUnits="userSpaceOnUse">
<stop stop-color="#B25225"/>
<stop offset="1" stop-color="#B58266"/>
</linearGradient>
<linearGradient id="paint1_linear_431_6833" x1="4.5" y1="2.06963" x2="12.5" y2="12" gradientUnits="userSpaceOnUse">
<stop stop-color="#F7F7F7"/>
<stop offset="1" stop-color="#E6E6E6"/>
</linearGradient>
<linearGradient id="paint2_linear_431_6833" x1="5" y1="1.06963" x2="15" y2="14" gradientUnits="userSpaceOnUse">
<stop stop-color="#F7F7F7"/>
<stop offset="1" stop-color="#F6F6F6"/>
</linearGradient>
<linearGradient id="paint3_linear_431_6833" x1="15" y1="13.9894" x2="11" y2="10.0106" gradientUnits="userSpaceOnUse">
<stop stop-color="white"/>
<stop offset="1" stop-color="#FAFAFA"/>
</linearGradient>
<linearGradient id="paint4_linear_431_6833" x1="8" y1="5.5" x2="12" y2="5.5" gradientUnits="userSpaceOnUse">
<stop stop-color="#7AA5E1"/>
<stop offset="1" stop-color="#6A93D4"/>
</linearGradient>
<linearGradient id="paint5_linear_431_6833" x1="7" y1="8.5" x2="13" y2="8.5" gradientUnits="userSpaceOnUse">
<stop stop-color="#739FE0"/>
<stop offset="1" stop-color="#6A93D4"/>
</linearGradient>
<linearGradient id="paint6_linear_431_6833" x1="5" y1="8" x2="2" y2="8" gradientUnits="userSpaceOnUse">
<stop stop-color="#B25225"/>
<stop offset="1" stop-color="#B58266"/>
</linearGradient>
<linearGradient id="paint7_linear_431_6833" x1="4" y1="7.5" x2="1" y2="7.5" gradientUnits="userSpaceOnUse">
<stop offset="0.35" stop-color="#D9D9D9"/>
<stop offset="0.52" stop-color="#F2F2F2"/>
<stop offset="1" stop-color="#CECECE"/>
</linearGradient>
<linearGradient id="paint8_linear_431_6833" x1="4" y1="7.5" x2="1" y2="7.5" gradientUnits="userSpaceOnUse">
<stop offset="0.35" stop-color="#D9D9D9"/>
<stop offset="0.52" stop-color="#F2F2F2"/>
<stop offset="1" stop-color="#CECECE"/>
</linearGradient>
<linearGradient id="paint9_linear_431_6833" x1="4" y1="7.5" x2="1" y2="7.5" gradientUnits="userSpaceOnUse">
<stop offset="0.35" stop-color="#D9D9D9"/>
<stop offset="0.52" stop-color="#F2F2F2"/>
<stop offset="1" stop-color="#CECECE"/>
</linearGradient>
<linearGradient id="paint10_linear_431_6833" x1="4" y1="7.5" x2="1" y2="7.5" gradientUnits="userSpaceOnUse">
<stop offset="0.35" stop-color="#D9D9D9"/>
<stop offset="0.52" stop-color="#F2F2F2"/>
<stop offset="1" stop-color="#CECECE"/>
</linearGradient>
<linearGradient id="paint11_linear_431_6833" x1="4" y1="7.5" x2="1" y2="7.5" gradientUnits="userSpaceOnUse">
<stop offset="0.35" stop-color="#D9D9D9"/>
<stop offset="0.52" stop-color="#F2F2F2"/>
<stop offset="1" stop-color="#CECECE"/>
</linearGradient>
<linearGradient id="paint12_linear_431_6833" x1="4" y1="7.5" x2="1" y2="7.5" gradientUnits="userSpaceOnUse">
<stop offset="0.35" stop-color="#D9D9D9"/>
<stop offset="0.52" stop-color="#F2F2F2"/>
<stop offset="1" stop-color="#CECECE"/>
</linearGradient>
<linearGradient id="paint13_linear_431_6833" x1="4" y1="7.5" x2="1" y2="7.5" gradientUnits="userSpaceOnUse">
<stop offset="0.35" stop-color="#D9D9D9"/>
<stop offset="0.52" stop-color="#F2F2F2"/>
<stop offset="1" stop-color="#CECECE"/>
</linearGradient>
<linearGradient id="paint14_linear_431_6833" x1="5" y1="11" x2="8.5" y2="14.5" gradientUnits="userSpaceOnUse">
<stop stop-color="#D9D9D9"/>
<stop offset="1" stop-color="#737373"/>
</linearGradient>
<linearGradient id="paint15_linear_431_6833" x1="10" y1="16" x2="3" y2="9" gradientUnits="userSpaceOnUse">
<stop stop-color="#404040"/>
<stop offset="1" stop-color="#8D8D8D"/>
</linearGradient>
<linearGradient id="paint16_linear_431_6833" x1="11" y1="11" x2="14" y2="14" gradientUnits="userSpaceOnUse">
<stop stop-color="#D9D9D9"/>
<stop offset="1" stop-color="#737373"/>
</linearGradient>
<linearGradient id="paint17_linear_431_6833" x1="16" y1="16" x2="9" y2="9" gradientUnits="userSpaceOnUse">
<stop stop-color="#404040"/>
<stop offset="1" stop-color="#8D8D8D"/>
</linearGradient>
<linearGradient id="paint18_linear_431_6833" x1="7.71429" y1="12.1429" x2="7.98901" y2="13.5165" gradientUnits="userSpaceOnUse">
<stop stop-color="#D9D9D9"/>
<stop offset="1" stop-color="#737373"/>
</linearGradient>
<linearGradient id="paint19_linear_431_6833" x1="9.5" y1="14" x2="9.5" y2="11" gradientUnits="userSpaceOnUse">
<stop offset="0.33" stop-color="#515151"/>
<stop offset="0.66" stop-color="#8D8D8D"/>
</linearGradient>
<linearGradient id="paint20_linear_431_6833" x1="7" y1="12.5" x2="12" y2="12.5" gradientUnits="userSpaceOnUse">
<stop stop-color="#484848"/>
<stop offset="0.515" stop-color="#484848" stop-opacity="0"/>
<stop offset="1" stop-color="#484848"/>
</linearGradient>
<clipPath id="clip0_431_6833">
<rect width="16" height="16" fill="white"/>
</clipPath>
</defs>
</svg>
