<svg width="16" height="16" viewBox="0 0 16 16" fill="none" xmlns="http://www.w3.org/2000/svg">
<mask id="mask0_402_6887" style="mask-type:alpha" maskUnits="userSpaceOnUse" x="3" y="2" width="10" height="12">
<rect x="3" y="2" width="10" height="12" fill="#D9D9D9"/>
</mask>
<g mask="url(#mask0_402_6887)">
<mask id="path-2-outside-1_402_6887" maskUnits="userSpaceOnUse" x="3" y="-2.81002e-07" width="10" height="16" fill="black">
<rect fill="white" x="3" y="-2.81002e-07" width="10" height="16"/>
<path fill-rule="evenodd" clip-rule="evenodd" d="M4 13L9 8L4 3L4 13ZM10 13L12 13L12 3L10 3L10 13Z"/>
</mask>
<path fill-rule="evenodd" clip-rule="evenodd" d="M4 13L9 8L4 3L4 13ZM10 13L12 13L12 3L10 3L10 13Z" fill="url(#paint0_linear_402_6887)"/>
<path d="M9 8L9.70711 7.29289L10.4142 8L9.70711 8.70711L9 8ZM4 13L4.70711 13.7071L3 15.4142L3 13L4 13ZM4 3L3 3L3 0.585786L4.70711 2.29289L4 3ZM12 13L13 13L13 14L12 14L12 13ZM10 13L10 14L9 14L9 13L10 13ZM12 3L12 2L13 2L13 3L12 3ZM10 3L9 3L9 2L10 2L10 3ZM9.70711 8.70711L4.70711 13.7071L3.29289 12.2929L8.29289 7.29289L9.70711 8.70711ZM4.70711 2.29289L9.70711 7.29289L8.29289 8.70711L3.29289 3.70711L4.70711 2.29289ZM3 13L3 3L5 3L5 13L3 13ZM12 14L10 14L10 12L12 12L12 14ZM13 3L13 13L11 13L11 3L13 3ZM10 2L12 2L12 4L10 4L10 2ZM9 13L9 3L11 3L11 13L9 13Z" fill="url(#paint1_linear_402_6887)" mask="url(#path-2-outside-1_402_6887)"/>
<mask id="path-4-inside-2_402_6887" fill="white">
<path fill-rule="evenodd" clip-rule="evenodd" d="M4 13L9 8L4 3L4 13ZM10 13L12 13L12 3L10 3L10 13Z"/>
</mask>
<path d="M9 8L9.70711 7.29289L10.4142 8L9.70711 8.70711L9 8ZM4 13L4.70711 13.7071L3 15.4142L3 13L4 13ZM4 3L3 3L3 0.585786L4.70711 2.29289L4 3ZM12 13L13 13L13 14L12 14L12 13ZM10 13L10 14L9 14L9 13L10 13ZM12 3L12 2L13 2L13 3L12 3ZM10 3L9 3L9 2L10 2L10 3ZM9.70711 8.70711L4.70711 13.7071L3.29289 12.2929L8.29289 7.29289L9.70711 8.70711ZM4.70711 2.29289L9.70711 7.29289L8.29289 8.70711L3.29289 3.70711L4.70711 2.29289ZM3 13L3 3L5 3L5 13L3 13ZM12 14L10 14L10 12L12 12L12 14ZM13 3L13 13L11 13L11 3L13 3ZM10 2L12 2L12 4L10 4L10 2ZM9 13L9 3L11 3L11 13L9 13Z" fill="white" fill-opacity="0.3" mask="url(#path-4-inside-2_402_6887)"/>
</g>
<defs>
<linearGradient id="paint0_linear_402_6887" x1="4" y1="3" x2="12" y2="13" gradientUnits="userSpaceOnUse">
<stop stop-color="#97BAEA"/>
<stop offset="1" stop-color="#4E80D2"/>
</linearGradient>
<linearGradient id="paint1_linear_402_6887" x1="4" y1="3" x2="11.3236" y2="13.473" gradientUnits="userSpaceOnUse">
<stop stop-color="#80ABEA"/>
<stop offset="0.515" stop-color="#4481D3"/>
<stop offset="1" stop-color="#1239B6"/>
</linearGradient>
</defs>
</svg>
