<svg width="16" height="16" viewBox="0 0 16 16" fill="none" xmlns="http://www.w3.org/2000/svg">
<mask id="mask0_402_6843" style="mask-type:alpha" maskUnits="userSpaceOnUse" x="3" y="2" width="10" height="12">
<rect x="3" y="2" width="10" height="12" fill="#D9D9D9"/>
</mask>
<g mask="url(#mask0_402_6843)">
<mask id="path-2-outside-1_402_6843" maskUnits="userSpaceOnUse" x="3" y="-2.81002e-07" width="10" height="16" fill="black">
<rect fill="white" x="3" y="-2.81002e-07" width="10" height="16"/>
<path fill-rule="evenodd" clip-rule="evenodd" d="M12 13L7 8L12 3L12 13ZM6 13L4 13L4 3L6 3L6 13Z"/>
</mask>
<path fill-rule="evenodd" clip-rule="evenodd" d="M12 13L7 8L12 3L12 13ZM6 13L4 13L4 3L6 3L6 13Z" fill="url(#paint0_linear_402_6843)"/>
<path d="M7 8L6.29289 7.29289L5.58579 8L6.29289 8.70711L7 8ZM12 13L11.2929 13.7071L13 15.4142L13 13L12 13ZM12 3L13 3L13 0.585786L11.2929 2.29289L12 3ZM4 13L3 13L3 14L4 14L4 13ZM6 13L6 14L7 14L7 13L6 13ZM4 3L4 2L3 2L3 3L4 3ZM6 3L7 3L7 2L6 2L6 3ZM6.29289 8.70711L11.2929 13.7071L12.7071 12.2929L7.70711 7.29289L6.29289 8.70711ZM11.2929 2.29289L6.29289 7.29289L7.70711 8.70711L12.7071 3.70711L11.2929 2.29289ZM13 13L13 3L11 3L11 13L13 13ZM4 14L6 14L6 12L4 12L4 14ZM3 3L3 13L5 13L5 3L3 3ZM6 2L4 2L4 4L6 4L6 2ZM7 13L7 3L5 3L5 13L7 13Z" fill="url(#paint1_linear_402_6843)" mask="url(#path-2-outside-1_402_6843)"/>
<mask id="path-4-inside-2_402_6843" fill="white">
<path fill-rule="evenodd" clip-rule="evenodd" d="M12 13L7 8L12 3L12 13ZM6 13L4 13L4 3L6 3L6 13Z"/>
</mask>
<path d="M7 8L6.29289 7.29289L5.58579 8L6.29289 8.70711L7 8ZM12 13L11.2929 13.7071L13 15.4142L13 13L12 13ZM12 3L13 3L13 0.585786L11.2929 2.29289L12 3ZM4 13L3 13L3 14L4 14L4 13ZM6 13L6 14L7 14L7 13L6 13ZM4 3L4 2L3 2L3 3L4 3ZM6 3L7 3L7 2L6 2L6 3ZM6.29289 8.70711L11.2929 13.7071L12.7071 12.2929L7.70711 7.29289L6.29289 8.70711ZM11.2929 2.29289L6.29289 7.29289L7.70711 8.70711L12.7071 3.70711L11.2929 2.29289ZM13 13L13 3L11 3L11 13L13 13ZM4 14L6 14L6 12L4 12L4 14ZM3 3L3 13L5 13L5 3L3 3ZM6 2L4 2L4 4L6 4L6 2ZM7 13L7 3L5 3L5 13L7 13Z" fill="white" fill-opacity="0.3" mask="url(#path-4-inside-2_402_6843)"/>
</g>
<defs>
<linearGradient id="paint0_linear_402_6843" x1="4" y1="3" x2="12" y2="13" gradientUnits="userSpaceOnUse">
<stop stop-color="#97BAEA"/>
<stop offset="1" stop-color="#4E80D2"/>
</linearGradient>
<linearGradient id="paint1_linear_402_6843" x1="3.44444" y1="2.66667" x2="14.0889" y2="12.6459" gradientUnits="userSpaceOnUse">
<stop stop-color="#80ABEA"/>
<stop offset="0.515" stop-color="#4481D3"/>
<stop offset="1" stop-color="#1239B6"/>
</linearGradient>
</defs>
</svg>
