<svg width="16" height="16" viewBox="0 0 16 16" fill="none" xmlns="http://www.w3.org/2000/svg">
<mask id="path-1-outside-1_501_8514" maskUnits="userSpaceOnUse" x="2" y="8.5" width="12" height="8" fill="black">
<rect fill="white" x="2" y="8.5" width="12" height="8"/>
<path d="M5.5 10.5L3 15L5 14L6 15L6.5 11L5.5 10.5Z"/>
<path d="M10.5 10.5L13 15L11 14L10 15L9.5 11L10.5 10.5Z"/>
</mask>
<path d="M5.5 10.5L3 15L5 14L6 15L6.5 11L5.5 10.5Z" fill="url(#paint0_linear_501_8514)"/>
<path d="M10.5 10.5L13 15L11 14L10 15L9.5 11L10.5 10.5Z" fill="url(#paint1_linear_501_8514)"/>
<path d="M3 15L2.12584 14.5144C1.91292 14.8976 1.97448 15.3749 2.2777 15.6916C2.58092 16.0083 3.05506 16.0905 3.44721 15.8944L3 15ZM5.5 10.5L5.94721 9.60557C5.46834 9.36614 4.88585 9.54634 4.62584 10.0144L5.5 10.5ZM6.5 11L7.49228 11.124C7.54487 10.7033 7.32644 10.2952 6.94721 10.1056L6.5 11ZM6 15L5.29289 15.7071C5.56296 15.9772 5.96328 16.0698 6.32454 15.9459C6.6858 15.8219 6.9449 15.503 6.99228 15.124L6 15ZM5 14L5.70711 13.2929L5.19745 12.7832L4.55279 13.1056L5 14ZM13 15L12.5528 15.8944C12.9449 16.0905 13.4191 16.0083 13.7223 15.6916C14.0255 15.3749 14.0871 14.8976 13.8742 14.5144L13 15ZM10.5 10.5L11.3742 10.0144C11.1141 9.54634 10.5317 9.36614 10.0528 9.60557L10.5 10.5ZM9.5 11L9.05279 10.1056C8.67356 10.2952 8.45513 10.7033 8.50772 11.124L9.5 11ZM10 15L9.00772 15.124C9.0551 15.503 9.3142 15.8219 9.67546 15.9459C10.0367 16.0698 10.437 15.9772 10.7071 15.7071L10 15ZM11 14L11.4472 13.1056L10.8025 12.7832L10.2929 13.2929L11 14ZM3.87416 15.4856L6.37416 10.9856L4.62584 10.0144L2.12584 14.5144L3.87416 15.4856ZM5.05279 11.3944L6.05279 11.8944L6.94721 10.1056L5.94721 9.60557L5.05279 11.3944ZM5.50772 10.876L5.00772 14.876L6.99228 15.124L7.49228 11.124L5.50772 10.876ZM6.70711 14.2929L5.70711 13.2929L4.29289 14.7071L5.29289 15.7071L6.70711 14.2929ZM4.55279 13.1056L2.55279 14.1056L3.44721 15.8944L5.44721 14.8944L4.55279 13.1056ZM13.8742 14.5144L11.3742 10.0144L9.62584 10.9856L12.1258 15.4856L13.8742 14.5144ZM10.0528 9.60557L9.05279 10.1056L9.94721 11.8944L10.9472 11.3944L10.0528 9.60557ZM8.50772 11.124L9.00772 15.124L10.9923 14.876L10.4923 10.876L8.50772 11.124ZM10.7071 15.7071L11.7071 14.7071L10.2929 13.2929L9.29289 14.2929L10.7071 15.7071ZM10.5528 14.8944L12.5528 15.8944L13.4472 14.1056L11.4472 13.1056L10.5528 14.8944Z" fill="url(#paint2_linear_501_8514)" mask="url(#path-1-outside-1_501_8514)"/>
<path d="M8 1L11.2139 2.16978L12.924 5.13176L12.3301 8.5L9.7101 10.6985H6.2899L3.66987 8.5L3.07596 5.13176L4.78606 2.16978L8 1Z" fill="url(#paint3_radial_501_8514)"/>
<path d="M8.17101 0.530154C8.06055 0.489949 7.93945 0.489949 7.82899 0.530154L4.61505 1.69993C4.50459 1.74014 4.41182 1.81798 4.35305 1.91978L2.64295 4.88176C2.58417 4.98356 2.56314 5.10282 2.58356 5.21858L3.17747 8.58682C3.19788 8.70259 3.25843 8.80746 3.34848 8.88302L5.96851 11.0815C6.05856 11.157 6.17235 11.1985 6.2899 11.1985H9.7101C9.82765 11.1985 9.94144 11.157 10.0315 11.0815L12.6515 8.88302C12.7416 8.80746 12.8021 8.70259 12.8225 8.58682L13.4164 5.21858C13.4369 5.10282 13.4158 4.98356 13.3571 4.88176L11.647 1.91978C11.5882 1.81798 11.4954 1.74014 11.3849 1.69993L8.17101 0.530154Z" stroke="url(#paint4_linear_501_8514)" stroke-opacity="0.992157" stroke-linejoin="round"/>
<path d="M5.12808 2.57738L8 1.53209L10.8719 2.57738L12.4 5.22416L11.8693 8.23396L9.52812 10.1985H6.47188L4.13068 8.23396L3.59997 5.22416L5.12808 2.57738Z" stroke="white" stroke-opacity="0.5" stroke-linejoin="round"/>
<defs>
<linearGradient id="paint0_linear_501_8514" x1="8" y1="11" x2="8" y2="14.5" gradientUnits="userSpaceOnUse">
<stop stop-color="#D30101"/>
<stop offset="1" stop-color="#F90000"/>
</linearGradient>
<linearGradient id="paint1_linear_501_8514" x1="8" y1="11" x2="8" y2="14.5" gradientUnits="userSpaceOnUse">
<stop stop-color="#D30101"/>
<stop offset="1" stop-color="#F90000"/>
</linearGradient>
<linearGradient id="paint2_linear_501_8514" x1="12.125" y1="14.5" x2="5.5" y2="10.5" gradientUnits="userSpaceOnUse">
<stop stop-color="#F41212"/>
<stop offset="1" stop-color="#C50000"/>
</linearGradient>
<radialGradient id="paint3_radial_501_8514" cx="0" cy="0" r="1" gradientUnits="userSpaceOnUse" gradientTransform="translate(8 6) rotate(90) scale(5)">
<stop stop-color="#FC2E33"/>
<stop offset="1" stop-color="#DD080E"/>
</radialGradient>
<linearGradient id="paint4_linear_501_8514" x1="3" y1="1" x2="13" y2="11" gradientUnits="userSpaceOnUse">
<stop stop-color="#F91616"/>
<stop offset="1" stop-color="#B80B0B"/>
</linearGradient>
</defs>
</svg>
