<svg width="16" height="16" viewBox="0 0 16 16" fill="none" xmlns="http://www.w3.org/2000/svg">
<g clip-path="url(#clip0_135_3114)">
<g filter="url(#filter0_ii_135_3114)">
<rect y="3" width="16" height="11" rx="2" fill="#F9A63A"/>
</g>
<rect x="0.5" y="3.5" width="15" height="10" rx="1.5" stroke="black" style="mix-blend-mode:overlay"/>
<rect x="0.5" y="3.5" width="15" height="10" rx="1.5" stroke="black" stroke-opacity="0.2" style="mix-blend-mode:overlay"/>
<mask id="path-3-outside-1_135_3114" maskUnits="userSpaceOnUse" x="0.5" y="4.84998" width="15" height="8" fill="black">
<rect fill="white" x="0.5" y="4.84998" width="15" height="8"/>
<path d="M5.56278 7.57238C5.56278 8.24558 5.14798 8.65358 4.62438 8.86438L5.85518 10.85H4.59038L3.57038 9.04798H3.25758V10.85H2.14238V6.13758H3.62478C4.90998 6.13758 5.56278 6.59318 5.56278 7.57238ZM4.41358 7.57238C4.41358 7.11678 4.14838 6.91958 3.62478 6.91958H3.25758V8.27958H3.67238C4.15518 8.27958 4.41358 8.06878 4.41358 7.57238ZM9.82373 9.46958C9.82373 10.3536 9.10973 10.9656 7.90613 10.9656C7.01533 10.9656 6.43733 10.6732 6.04293 10.2856L6.60733 9.65998C6.95413 9.96598 7.37573 10.136 7.87893 10.136C8.34813 10.136 8.66093 9.92518 8.66093 9.55798C8.66093 9.21798 8.46373 9.05478 7.81093 8.85758C6.70253 8.51758 6.28773 8.10278 6.28773 7.38878C6.28773 6.51838 7.08333 6.01518 8.06253 6.01518C8.78333 6.01518 9.34093 6.23958 9.74893 6.62718L9.22533 7.23238C8.90573 6.96718 8.52493 6.83798 8.14413 6.83798C7.72253 6.83798 7.44373 6.99438 7.44373 7.30038C7.44373 7.59958 7.65453 7.72198 8.40253 7.95318C9.30013 8.22518 9.82373 8.60598 9.82373 9.46958ZM14.0371 9.46958C14.0371 10.3536 13.3231 10.9656 12.1195 10.9656C11.2287 10.9656 10.6507 10.6732 10.2563 10.2856L10.8207 9.65998C11.1675 9.96598 11.5891 10.136 12.0923 10.136C12.5615 10.136 12.8743 9.92518 12.8743 9.55798C12.8743 9.21798 12.6771 9.05478 12.0243 8.85758C10.9159 8.51758 10.5011 8.10278 10.5011 7.38878C10.5011 6.51838 11.2967 6.01518 12.2759 6.01518C12.9967 6.01518 13.5543 6.23958 13.9623 6.62718L13.4387 7.23238C13.1191 6.96718 12.7383 6.83798 12.3575 6.83798C11.9359 6.83798 11.6571 6.99438 11.6571 7.30038C11.6571 7.59958 11.8679 7.72198 12.6159 7.95318C13.5135 8.22518 14.0371 8.60598 14.0371 9.46958Z"/>
</mask>
<path d="M5.56278 7.57238C5.56278 8.24558 5.14798 8.65358 4.62438 8.86438L5.85518 10.85H4.59038L3.57038 9.04798H3.25758V10.85H2.14238V6.13758H3.62478C4.90998 6.13758 5.56278 6.59318 5.56278 7.57238ZM4.41358 7.57238C4.41358 7.11678 4.14838 6.91958 3.62478 6.91958H3.25758V8.27958H3.67238C4.15518 8.27958 4.41358 8.06878 4.41358 7.57238ZM9.82373 9.46958C9.82373 10.3536 9.10973 10.9656 7.90613 10.9656C7.01533 10.9656 6.43733 10.6732 6.04293 10.2856L6.60733 9.65998C6.95413 9.96598 7.37573 10.136 7.87893 10.136C8.34813 10.136 8.66093 9.92518 8.66093 9.55798C8.66093 9.21798 8.46373 9.05478 7.81093 8.85758C6.70253 8.51758 6.28773 8.10278 6.28773 7.38878C6.28773 6.51838 7.08333 6.01518 8.06253 6.01518C8.78333 6.01518 9.34093 6.23958 9.74893 6.62718L9.22533 7.23238C8.90573 6.96718 8.52493 6.83798 8.14413 6.83798C7.72253 6.83798 7.44373 6.99438 7.44373 7.30038C7.44373 7.59958 7.65453 7.72198 8.40253 7.95318C9.30013 8.22518 9.82373 8.60598 9.82373 9.46958ZM14.0371 9.46958C14.0371 10.3536 13.3231 10.9656 12.1195 10.9656C11.2287 10.9656 10.6507 10.6732 10.2563 10.2856L10.8207 9.65998C11.1675 9.96598 11.5891 10.136 12.0923 10.136C12.5615 10.136 12.8743 9.92518 12.8743 9.55798C12.8743 9.21798 12.6771 9.05478 12.0243 8.85758C10.9159 8.51758 10.5011 8.10278 10.5011 7.38878C10.5011 6.51838 11.2967 6.01518 12.2759 6.01518C12.9967 6.01518 13.5543 6.23958 13.9623 6.62718L13.4387 7.23238C13.1191 6.96718 12.7383 6.83798 12.3575 6.83798C11.9359 6.83798 11.6571 6.99438 11.6571 7.30038C11.6571 7.59958 11.8679 7.72198 12.6159 7.95318C13.5135 8.22518 14.0371 8.60598 14.0371 9.46958Z" fill="white"/>
<path d="M4.62438 8.86438L4.25092 7.93673L3.14806 8.38074L3.77443 9.39123L4.62438 8.86438ZM5.85518 10.85V11.85H7.65158L6.70514 10.3231L5.85518 10.85ZM4.59038 10.85L3.72013 11.3426L4.00734 11.85H4.59038V10.85ZM3.57038 9.04798L4.44064 8.55538L4.15343 8.04798H3.57038V9.04798ZM3.25758 9.04798V8.04798H2.25758V9.04798H3.25758ZM3.25758 10.85V11.85H4.25758V10.85H3.25758ZM2.14238 10.85H1.14238V11.85H2.14238V10.85ZM2.14238 6.13758V5.13758H1.14238V6.13758H2.14238ZM3.25758 6.91958V5.91958H2.25758V6.91958H3.25758ZM3.25758 8.27958H2.25758V9.27958H3.25758V8.27958ZM4.56278 7.57238C4.56278 7.68762 4.53279 7.73728 4.50754 7.76899C4.47186 7.81382 4.39574 7.87843 4.25092 7.93673L4.99785 9.79202C5.77654 9.47852 6.56278 8.77218 6.56278 7.57238H4.56278ZM3.77443 9.39123L5.00523 11.3768L6.70514 10.3231L5.47434 8.33752L3.77443 9.39123ZM5.85518 9.84998H4.59038V11.85H5.85518V9.84998ZM5.46064 10.3574L4.44064 8.55538L2.70013 9.54057L3.72013 11.3426L5.46064 10.3574ZM3.57038 8.04798H3.25758V10.048H3.57038V8.04798ZM2.25758 9.04798V10.85H4.25758V9.04798H2.25758ZM3.25758 9.84998H2.14238V11.85H3.25758V9.84998ZM3.14238 10.85V6.13758H1.14238V10.85H3.14238ZM2.14238 7.13758H3.62478V5.13758H2.14238V7.13758ZM3.62478 7.13758C4.18105 7.13758 4.41289 7.24203 4.4863 7.29559C4.51144 7.31394 4.52052 7.32712 4.52896 7.34585C4.54029 7.37099 4.56278 7.4374 4.56278 7.57238H6.56278C6.56278 6.83679 6.30108 6.14396 5.66517 5.67996C5.09088 5.26092 4.35372 5.13758 3.62478 5.13758V7.13758ZM5.41358 7.57238C5.41358 7.14526 5.28042 6.64924 4.84329 6.29671C4.45156 5.98081 3.98053 5.91958 3.62478 5.91958V7.91958C3.69683 7.91958 3.72286 7.92678 3.71731 7.92533C3.70936 7.92327 3.65487 7.90764 3.58778 7.85354C3.51541 7.79518 3.46388 7.72049 3.43557 7.64977C3.41037 7.58681 3.41358 7.55258 3.41358 7.57238H5.41358ZM3.62478 5.91958H3.25758V7.91958H3.62478V5.91958ZM2.25758 6.91958V8.27958H4.25758V6.91958H2.25758ZM3.25758 9.27958H3.67238V7.27958H3.25758V9.27958ZM3.67238 9.27958C4.03623 9.27958 4.51446 9.20313 4.90044 8.84866C5.30344 8.47855 5.41358 7.98531 5.41358 7.57238H3.41358C3.41358 7.61304 3.40789 7.60115 3.42319 7.55801C3.4408 7.50838 3.47903 7.4386 3.54763 7.3756C3.68371 7.25062 3.79134 7.27958 3.67238 7.27958V9.27958ZM6.04293 10.2856L5.30044 9.61572L4.65858 10.3272L5.342 10.9988L6.04293 10.2856ZM6.60733 9.65998L7.26895 8.91014L6.52734 8.25578L5.86484 8.99012L6.60733 9.65998ZM7.81093 8.85758L7.51766 9.81362L7.52175 9.81485L7.81093 8.85758ZM9.74893 6.62718L10.5052 7.28146L11.1297 6.5596L10.4377 5.90218L9.74893 6.62718ZM9.22533 7.23238L8.58676 8.00194L9.34063 8.62749L9.98158 7.88666L9.22533 7.23238ZM8.40253 7.95318L8.10722 8.90859L8.11252 8.9102L8.40253 7.95318ZM8.82373 9.46958C8.82373 9.6181 8.77536 9.7011 8.69109 9.7686C8.58592 9.85285 8.3482 9.96558 7.90613 9.96558V11.9656C8.66765 11.9656 9.38874 11.7723 9.94147 11.3296C10.5151 10.87 10.8237 10.2051 10.8237 9.46958H8.82373ZM7.90613 9.96558C7.264 9.96558 6.94181 9.76689 6.74386 9.57235L5.342 10.9988C5.93284 11.5795 6.76665 11.9656 7.90613 11.9656V9.96558ZM6.78542 10.9554L7.34982 10.3298L5.86484 8.99012L5.30044 9.61572L6.78542 10.9554ZM5.94571 10.4098C6.472 10.8742 7.12783 11.136 7.87893 11.136V9.13598C7.62363 9.13598 7.43626 9.05776 7.26895 8.91014L5.94571 10.4098ZM7.87893 11.136C8.24671 11.136 8.67024 11.0555 9.03045 10.796C9.42683 10.5104 9.66093 10.0647 9.66093 9.55798H7.66093C7.66093 9.50445 7.67329 9.42795 7.71511 9.34648C7.75677 9.26534 7.81274 9.20833 7.86131 9.17333C7.94782 9.111 7.98035 9.13598 7.87893 9.13598V11.136ZM9.66093 9.55798C9.66093 9.37688 9.63467 9.15951 9.53745 8.93518C9.43763 8.70485 9.28735 8.52324 9.11696 8.38273C8.81773 8.13596 8.43153 8.00042 8.10011 7.9003L7.52175 9.81485C7.66569 9.85833 7.75847 9.89231 7.81767 9.91827C7.87868 9.94501 7.87486 9.95076 7.84449 9.92572C7.80501 9.89316 7.74482 9.82842 7.70238 9.73048C7.66253 9.63854 7.66093 9.56907 7.66093 9.55798H9.66093ZM8.10419 7.90154C7.59861 7.74646 7.40121 7.61491 7.33065 7.54633C7.30586 7.52223 7.30291 7.51193 7.30193 7.5094C7.29939 7.50287 7.28773 7.47011 7.28773 7.38878H5.28773C5.28773 7.97236 5.47157 8.52844 5.93671 8.98053C6.35064 9.38284 6.91484 9.62869 7.51767 9.81361L8.10419 7.90154ZM7.28773 7.38878C7.28773 7.32817 7.30036 7.29515 7.31089 7.2753C7.32251 7.25336 7.34615 7.22078 7.39762 7.1832C7.50868 7.10211 7.73085 7.01518 8.06253 7.01518V5.01518C7.415 5.01518 6.74977 5.17984 6.21823 5.56795C5.66041 5.97525 5.28773 6.60879 5.28773 7.38878H7.28773ZM8.06253 7.01518C8.56111 7.01518 8.86138 7.16332 9.06018 7.35217L10.4377 5.90218C9.82048 5.31584 9.00554 5.01518 8.06253 5.01518V7.01518ZM8.99268 5.97289L8.46908 6.57809L9.98158 7.88666L10.5052 7.28146L8.99268 5.97289ZM9.8639 6.46281C9.3622 6.04651 8.75471 5.83798 8.14413 5.83798V7.83798C8.29514 7.83798 8.44925 7.88784 8.58676 8.00194L9.8639 6.46281ZM8.14413 5.83798C7.83273 5.83798 7.44507 5.89203 7.10161 6.10908C6.70532 6.35951 6.44373 6.78575 6.44373 7.30038H8.44373C8.44373 7.38073 8.4239 7.48626 8.36369 7.59241C8.30452 7.69673 8.2284 7.7629 8.17004 7.79977C8.07138 7.86212 8.03393 7.83798 8.14413 7.83798V5.83798ZM6.44373 7.30038C6.44373 7.49647 6.47942 7.73679 6.61221 7.97813C6.74276 8.21542 6.92452 8.37602 7.09017 8.48581C7.3759 8.6752 7.7563 8.80011 8.10722 8.90858L8.69783 6.99777C8.51807 6.94221 8.3915 6.8995 8.30006 6.86389C8.20441 6.82664 8.18272 6.81054 8.19509 6.81874C8.21454 6.83163 8.29685 6.89108 8.3645 7.01404C8.43438 7.14106 8.44373 7.25388 8.44373 7.30038H6.44373ZM8.11252 8.9102C8.5145 9.03201 8.68264 9.13822 8.75144 9.20534C8.77668 9.22997 8.78797 9.24876 8.79657 9.27075C8.80657 9.29634 8.82373 9.35517 8.82373 9.46958H10.8237C10.8237 8.80724 10.6103 8.22464 10.148 7.77371C9.73062 7.36653 9.18816 7.14634 8.69254 6.99615L8.11252 8.9102ZM10.2563 10.2856L9.51378 9.61572L8.87193 10.3272L9.55534 10.9988L10.2563 10.2856ZM10.8207 9.65998L11.4823 8.91014L10.7407 8.25578L10.0782 8.99012L10.8207 9.65998ZM12.0243 8.85758L11.731 9.81362L11.7351 9.81485L12.0243 8.85758ZM13.9623 6.62718L14.7185 7.28146L15.3431 6.5596L14.651 5.90218L13.9623 6.62718ZM13.4387 7.23238L12.8001 8.00194L13.554 8.62749L14.1949 7.88666L13.4387 7.23238ZM12.6159 7.95318L12.3206 8.90859L12.3259 8.9102L12.6159 7.95318ZM13.0371 9.46958C13.0371 9.6181 12.9887 9.7011 12.9044 9.7686C12.7993 9.85285 12.5615 9.96558 12.1195 9.96558V11.9656C12.881 11.9656 13.6021 11.7723 14.1548 11.3296C14.7284 10.87 15.0371 10.2051 15.0371 9.46958H13.0371ZM12.1195 9.96558C11.4773 9.96558 11.1552 9.76689 10.9572 9.57235L9.55534 10.9988C10.1462 11.5795 10.98 11.9656 12.1195 11.9656V9.96558ZM10.9988 10.9554L11.5632 10.3298L10.0782 8.99012L9.51378 9.61572L10.9988 10.9554ZM10.1591 10.4098C10.6853 10.8742 11.3412 11.136 12.0923 11.136V9.13598C11.837 9.13598 11.6496 9.05776 11.4823 8.91014L10.1591 10.4098ZM12.0923 11.136C12.46 11.136 12.8836 11.0555 13.2438 10.796C13.6402 10.5104 13.8743 10.0647 13.8743 9.55798H11.8743C11.8743 9.50445 11.8866 9.42795 11.9285 9.34648C11.9701 9.26534 12.0261 9.20833 12.0747 9.17333C12.1612 9.111 12.1937 9.13598 12.0923 9.13598V11.136ZM13.8743 9.55798C13.8743 9.37688 13.848 9.15951 13.7508 8.93518C13.651 8.70485 13.5007 8.52324 13.3303 8.38273C13.0311 8.13596 12.6449 8.00042 12.3134 7.9003L11.7351 9.81485C11.879 9.85833 11.9718 9.89231 12.031 9.91827C12.092 9.94501 12.0882 9.95076 12.0578 9.92572C12.0184 9.89316 11.9582 9.82842 11.9157 9.73048C11.8759 9.63854 11.8743 9.56907 11.8743 9.55798H13.8743ZM12.3175 7.90154C11.812 7.74646 11.6146 7.61491 11.544 7.54633C11.5192 7.52223 11.5163 7.51193 11.5153 7.5094C11.5127 7.50287 11.5011 7.47011 11.5011 7.38878H9.50107C9.50107 7.97236 9.68491 8.52844 10.1501 8.98053C10.564 9.38284 11.1282 9.62869 11.731 9.81361L12.3175 7.90154ZM11.5011 7.38878C11.5011 7.32817 11.5137 7.29515 11.5242 7.2753C11.5359 7.25336 11.5595 7.22078 11.611 7.1832C11.722 7.10211 11.9442 7.01518 12.2759 7.01518V5.01518C11.6283 5.01518 10.9631 5.17984 10.4316 5.56795C9.87375 5.97525 9.50107 6.60879 9.50107 7.38878H11.5011ZM12.2759 7.01518C12.7745 7.01518 13.0747 7.16332 13.2735 7.35217L14.651 5.90218C14.0338 5.31584 13.2189 5.01518 12.2759 5.01518V7.01518ZM13.206 5.97289L12.6824 6.57809L14.1949 7.88666L14.7185 7.28146L13.206 5.97289ZM14.0772 6.46281C13.5755 6.04651 12.9681 5.83798 12.3575 5.83798V7.83798C12.5085 7.83798 12.6626 7.88784 12.8001 8.00194L14.0772 6.46281ZM12.3575 5.83798C12.0461 5.83798 11.6584 5.89203 11.315 6.10908C10.9187 6.35951 10.6571 6.78575 10.6571 7.30038H12.6571C12.6571 7.38073 12.6372 7.48626 12.577 7.59241C12.5179 7.69673 12.4417 7.7629 12.3834 7.79977C12.2847 7.86212 12.2473 7.83798 12.3575 7.83798V5.83798ZM10.6571 7.30038C10.6571 7.49647 10.6928 7.73679 10.8256 7.97813C10.9561 8.21542 11.1379 8.37602 11.3035 8.48581C11.5892 8.6752 11.9696 8.80011 12.3206 8.90858L12.9112 6.99777C12.7314 6.94221 12.6048 6.8995 12.5134 6.86389C12.4178 6.82664 12.3961 6.81054 12.4084 6.81874C12.4279 6.83163 12.5102 6.89108 12.5778 7.01404C12.6477 7.14106 12.6571 7.25388 12.6571 7.30038H10.6571ZM12.3259 8.9102C12.7278 9.03201 12.896 9.13822 12.9648 9.20534C12.99 9.22997 13.0013 9.24876 13.0099 9.27075C13.0199 9.29634 13.0371 9.35517 13.0371 9.46958H15.0371C15.0371 8.80724 14.8236 8.22464 14.3614 7.77371C13.944 7.36653 13.4015 7.14634 12.9059 6.99615L12.3259 8.9102Z" fill="black" style="mix-blend-mode:soft-light" mask="url(#path-3-outside-1_135_3114)"/>
<circle cx="12.5" cy="12.5" r="3" fill="url(#paint0_radial_135_3114)" stroke="#BC4305"/>
<path fill-rule="evenodd" clip-rule="evenodd" d="M14 13H11V12H14V13Z" fill="white"/>
</g>
<defs>
<filter id="filter0_ii_135_3114" x="0" y="3" width="19" height="14" filterUnits="userSpaceOnUse" color-interpolation-filters="sRGB">
<feFlood flood-opacity="0" result="BackgroundImageFix"/>
<feBlend mode="normal" in="SourceGraphic" in2="BackgroundImageFix" result="shape"/>
<feColorMatrix in="SourceAlpha" type="matrix" values="0 0 0 0 0 0 0 0 0 0 0 0 0 0 0 0 0 0 127 0" result="hardAlpha"/>
<feMorphology radius="2" operator="erode" in="SourceAlpha" result="effect1_innerShadow_135_3114"/>
<feOffset/>
<feComposite in2="hardAlpha" operator="arithmetic" k2="-1" k3="1"/>
<feColorMatrix type="matrix" values="0 0 0 0 1 0 0 0 0 1 0 0 0 0 1 0 0 0 0.25 0"/>
<feBlend mode="normal" in2="shape" result="effect1_innerShadow_135_3114"/>
<feColorMatrix in="SourceAlpha" type="matrix" values="0 0 0 0 0 0 0 0 0 0 0 0 0 0 0 0 0 0 127 0" result="hardAlpha"/>
<feMorphology radius="1" operator="dilate" in="SourceAlpha" result="effect2_innerShadow_135_3114"/>
<feOffset dx="3" dy="3"/>
<feGaussianBlur stdDeviation="3"/>
<feComposite in2="hardAlpha" operator="arithmetic" k2="-1" k3="1"/>
<feColorMatrix type="matrix" values="0 0 0 0 1 0 0 0 0 1 0 0 0 0 1 0 0 0 0.66 0"/>
<feBlend mode="hard-light" in2="effect1_innerShadow_135_3114" result="effect2_innerShadow_135_3114"/>
</filter>
<radialGradient id="paint0_radial_135_3114" cx="0" cy="0" r="1" gradientUnits="userSpaceOnUse" gradientTransform="translate(11 11) rotate(45) scale(4.24264)">
<stop stop-color="#FFAF7D"/>
<stop offset="1" stop-color="#FF6D00"/>
</radialGradient>
<clipPath id="clip0_135_3114">
<rect width="16" height="16" fill="white"/>
</clipPath>
</defs>
</svg>
