<svg width="16" height="16" viewBox="0 0 16 16" fill="none" xmlns="http://www.w3.org/2000/svg">
<g clip-path="url(#clip0_201_5588)">
<mask id="path-1-outside-1_201_5588" maskUnits="userSpaceOnUse" x="-1" y="3" width="18" height="11" fill="black">
<rect fill="white" x="-1" y="3" width="18" height="11"/>
<path d="M1 6L3 4H13.5L15 6L8 12.5L1 6Z"/>
</mask>
<path d="M1 6L3 4H13.5L15 6L8 12.5L1 6Z" fill="url(#paint0_linear_201_5588)"/>
<path d="M3 4V3H2.58579L2.29289 3.29289L3 4ZM1 6L0.292893 5.29289L-0.440888 6.02667L0.319549 6.73279L1 6ZM15 6L15.6805 6.73279L16.3402 6.12021L15.8 5.4L15 6ZM13.5 4L14.3 3.4L14 3H13.5V4ZM8 12.5L7.31955 13.2328H8.68045L8 12.5ZM2.29289 3.29289L0.292893 5.29289L1.70711 6.70711L3.70711 4.70711L2.29289 3.29289ZM15.8 5.4L14.3 3.4L12.7 4.6L14.2 6.6L15.8 5.4ZM13.5 3H3V5H13.5V3ZM0.319549 6.73279L7.31955 13.2328L8.68045 11.7672L1.68045 5.26721L0.319549 6.73279ZM8.68045 13.2328L15.6805 6.73279L14.3195 5.26721L7.31955 11.7672L8.68045 13.2328Z" fill="url(#paint1_linear_201_5588)" mask="url(#path-1-outside-1_201_5588)"/>
<mask id="path-3-inside-2_201_5588" fill="white">
<path d="M1 6L3 4H13.5L15 6L8 12.5L1 6Z"/>
</mask>
<path d="M3 4V3H2.58579L2.29289 3.29289L3 4ZM1 6L0.292893 5.29289L-0.440888 6.02667L0.319549 6.73279L1 6ZM15 6L15.6805 6.73279L16.3402 6.12021L15.8 5.4L15 6ZM13.5 4L14.3 3.4L14 3H13.5V4ZM8 12.5L7.31955 13.2328H8.68045L8 12.5ZM2.29289 3.29289L0.292893 5.29289L1.70711 6.70711L3.70711 4.70711L2.29289 3.29289ZM15.8 5.4L14.3 3.4L12.7 4.6L14.2 6.6L15.8 5.4ZM13.5 3H3V5H13.5V3ZM0.319549 6.73279L7.31955 13.2328L8.68045 11.7672L1.68045 5.26721L0.319549 6.73279ZM8.68045 13.2328L15.6805 6.73279L14.3195 5.26721L7.31955 11.7672L8.68045 13.2328Z" fill="white" fill-opacity="0.66" style="mix-blend-mode:hard-light" mask="url(#path-3-inside-2_201_5588)"/>
<path d="M8 12.5L6 6V4L4 6L8 12.5Z" fill="url(#paint2_linear_201_5588)" fill-opacity="0.66"/>
<g filter="url(#filter0_i_201_5588)">
<path d="M10 9H6V14H10V16H11L16 11.5L11 7H10V9Z" fill="#80B361"/>
</g>
<path d="M10 9.5C10.2761 9.5 10.5 9.27614 10.5 9V7.5H10.8081L15.2526 11.5L10.8081 15.5H10.5V14C10.5 13.7239 10.2761 13.5 10 13.5H6.5V9.5H10Z" stroke="url(#paint3_linear_201_5588)" stroke-linejoin="round"/>
<path d="M7.5 12.5V10.5H10C10.7149 10.5 11.2659 10.0257 11.4412 9.41686L13.7531 11.5L11.4413 13.5831C11.263 12.9643 10.6975 12.5 10.0049 12.5H7.5Z" stroke="white" stroke-opacity="0.2" stroke-linejoin="round"/>
</g>
<defs>
<filter id="filter0_i_201_5588" x="6" y="7" width="12" height="11" filterUnits="userSpaceOnUse" color-interpolation-filters="sRGB">
<feFlood flood-opacity="0" result="BackgroundImageFix"/>
<feBlend mode="normal" in="SourceGraphic" in2="BackgroundImageFix" result="shape"/>
<feColorMatrix in="SourceAlpha" type="matrix" values="0 0 0 0 0 0 0 0 0 0 0 0 0 0 0 0 0 0 127 0" result="hardAlpha"/>
<feOffset dx="2" dy="2"/>
<feGaussianBlur stdDeviation="1"/>
<feComposite in2="hardAlpha" operator="arithmetic" k2="-1" k3="1"/>
<feColorMatrix type="matrix" values="0 0 0 0 1 0 0 0 0 1 0 0 0 0 1 0 0 0 0.25 0"/>
<feBlend mode="normal" in2="shape" result="effect1_innerShadow_201_5588"/>
</filter>
<linearGradient id="paint0_linear_201_5588" x1="1" y1="8" x2="15" y2="8" gradientUnits="userSpaceOnUse">
<stop stop-color="#F44141"/>
<stop offset="0.498047" stop-color="#DE0707"/>
<stop offset="0.502232" stop-color="#FF3333"/>
<stop offset="1" stop-color="#CD1515"/>
</linearGradient>
<linearGradient id="paint1_linear_201_5588" x1="1" y1="4" x2="9.5" y2="12" gradientUnits="userSpaceOnUse">
<stop stop-color="#FE807C"/>
<stop offset="1" stop-color="#C62C32"/>
</linearGradient>
<linearGradient id="paint2_linear_201_5588" x1="5.5" y1="4" x2="5.5" y2="12.5" gradientUnits="userSpaceOnUse">
<stop stop-color="white" stop-opacity="0"/>
<stop offset="0.24" stop-color="white"/>
<stop offset="1" stop-color="white" stop-opacity="0"/>
</linearGradient>
<linearGradient id="paint3_linear_201_5588" x1="14.5714" y1="14.7143" x2="8.17837" y2="7.61089" gradientUnits="userSpaceOnUse">
<stop stop-color="#247C10"/>
<stop offset="1" stop-color="#6FA53D"/>
</linearGradient>
<clipPath id="clip0_201_5588">
<rect width="16" height="16" fill="white"/>
</clipPath>
</defs>
</svg>
