<svg width="16" height="16" viewBox="0 0 16 16" fill="none" xmlns="http://www.w3.org/2000/svg">
<g clip-path="url(#clip0_408_8138)">
<g clip-path="url(#clip1_408_8138)">
<g clip-path="url(#clip2_408_8138)">
<path d="M13.0493 1.91703L5.07978 1.21979C4.5296 1.17165 4.04457 1.57864 3.99643 2.12882L2.95056 14.0832L10.9201 14.7804C11.4703 14.8285 11.9553 14.4216 12.0035 13.8714L13.0493 1.91703Z" fill="url(#paint0_linear_408_8138)"/>
<path d="M5.0362 1.71788L12.5077 2.37155L11.5054 13.8278C11.4813 14.1029 11.2388 14.3064 10.9637 14.2823L3.49224 13.6286L4.49453 2.1724C4.5186 1.89731 4.76111 1.69382 5.0362 1.71788Z" stroke="white" stroke-opacity="0.8"/>
<path d="M13.5474 1.96061C13.5715 1.68552 13.368 1.443 13.0929 1.41893L5.12336 0.721688C4.29809 0.649486 3.57054 1.25997 3.49833 2.08525L2.45247 14.0396C2.4284 14.3147 2.63189 14.5572 2.90699 14.5813L10.8765 15.2785C11.7018 15.3507 12.4294 14.7402 12.5016 13.9149L13.5474 1.96061Z" stroke="url(#paint1_linear_408_8138)" stroke-linejoin="round"/>
<path d="M10.9434 14.5139C10.378 14.1173 10.0337 13.4384 10.0982 12.7009L10.9434 14.5139Z" fill="url(#paint2_linear_408_8138)"/>
<path fill-rule="evenodd" clip-rule="evenodd" d="M1.13245 11.9165C1.03618 13.0169 1.85016 13.9869 2.95052 14.0832L10.9201 14.7805L10.9434 14.5139C10.378 14.1173 10.0337 13.4384 10.0982 12.7009L5.11722 12.2651L1.13245 11.9165Z" fill="url(#paint3_linear_408_8138)"/>
<path fill-rule="evenodd" clip-rule="evenodd" d="M0.136294 11.8293C0.184429 11.2791 0.669461 10.8722 1.21964 10.9203L10.1854 11.7047C10.7356 11.7528 11.1426 12.2379 11.0944 12.788C11.0841 12.9065 11.0948 13.0219 11.1235 13.1305C11.1362 13.1824 11.1402 13.2374 11.1353 13.2935C11.1112 13.5686 10.8687 13.7721 10.5936 13.748C10.3859 13.7299 10.2189 13.5871 10.16 13.3998C10.0999 13.1784 10.0771 12.9428 10.0982 12.7009L1.13249 11.9165C1.10074 12.2794 1.168 12.6281 1.31188 12.936C1.60427 13.5617 2.2131 14.0187 2.95057 14.0832L10.9201 14.7804L10.833 15.7766L2.86341 15.0794C1.21286 14.935 -0.00811037 13.4799 0.136294 11.8293Z" fill="url(#paint4_linear_408_8138)"/>
<path d="M12.053 2.83003C12.1042 2.71835 12.1691 2.6128 12.2469 2.51598C12.4325 2.28461 12.6827 2.1135 12.9656 2.02429C13.154 1.96488 13.3513 1.94357 13.5463 1.96047L12.0531 1.82984L11.9663 2.82244L12.053 2.83003Z" fill="#F5FAFE"/>
<path fill-rule="evenodd" clip-rule="evenodd" d="M12.053 2.83003C12.1042 2.71835 12.1691 2.6128 12.2469 2.51598C12.4325 2.28461 12.6827 2.1135 12.9656 2.02429C13.154 1.96488 13.3513 1.94357 13.5463 1.96047C13.547 1.96054 13.5478 1.9606 13.5486 1.96067C13.6456 1.96924 13.742 1.98727 13.8364 2.01479C14.1212 2.0978 14.3751 2.26342 14.5657 2.49068C14.7564 2.71794 14.8755 2.99665 14.9078 3.29156C14.9401 3.58647 14.8842 3.88433 14.7472 4.14748C14.6102 4.41064 14.3983 4.62726 14.1382 4.76995C14.0283 4.83025 13.9118 4.8762 13.7917 4.90722L13.9182 3.50116L13.9184 3.49875C13.9212 3.46605 13.9209 3.43299 13.9173 3.40004C13.9064 3.30102 13.8665 3.20745 13.8025 3.13115C13.7384 3.05485 13.6532 2.99925 13.5576 2.97138C13.5258 2.9621 13.4933 2.95604 13.4606 2.95317L12.053 2.83003Z" fill="#F5FAFE"/>
<path fill-rule="evenodd" clip-rule="evenodd" d="M13.7825 4.90962L13.6924 5.93966C14.0159 5.90376 14.331 5.80483 14.6192 5.64672C15.0527 5.4089 15.4059 5.04787 15.6342 4.60928C15.8625 4.17069 15.9557 3.67426 15.9018 3.18274C15.848 2.69123 15.6496 2.22671 15.3318 1.84794C15.014 1.46917 14.591 1.19315 14.1163 1.05478C13.9583 1.00874 13.7969 0.978623 13.6346 0.96442L13.5474 1.96062C13.6448 1.96914 13.7416 1.9872 13.8364 2.01483C14.1213 2.09785 14.3751 2.26346 14.5658 2.49073C14.7565 2.71799 14.8755 2.9967 14.9078 3.29161C14.9401 3.58652 14.8842 3.88438 14.7472 4.14753C14.6428 4.34801 14.495 4.52149 14.3154 4.65584C14.2593 4.69784 14.2001 4.73602 14.1382 4.77C14.0255 4.83184 13.9059 4.87859 13.7825 4.90962Z" fill="url(#paint5_linear_408_8138)"/>
<path d="M13.6346 0.96442C13.4673 0.949786 13.2989 0.952042 13.1321 0.971161L13.0493 1.91704L13.5474 1.96062L13.6346 0.96442Z" fill="url(#paint6_linear_408_8138)"/>
<path d="M13.6346 0.96442L13.1365 0.920842L13.1321 0.971161C13.2989 0.952042 13.4673 0.949786 13.6346 0.96442Z" fill="url(#paint7_linear_408_8138)"/>
</g>
</g>
<g filter="url(#filter0_i_408_8138)">
<path d="M10 9H6V14H10V16H11L16 11.5L11 7H10V9Z" fill="#80B361"/>
</g>
<path d="M10 9.5C10.2761 9.5 10.5 9.27614 10.5 9V7.5H10.8081L15.2526 11.5L10.8081 15.5H10.5V14C10.5 13.7239 10.2761 13.5 10 13.5H6.5V9.5H10Z" stroke="url(#paint8_linear_408_8138)" stroke-linejoin="round"/>
<path d="M7.5 12.5V10.5H10C10.7149 10.5 11.2659 10.0257 11.4412 9.41686L13.7531 11.5L11.4413 13.5831C11.263 12.9643 10.6975 12.5 10.0049 12.5H7.5Z" stroke="white" stroke-opacity="0.2" stroke-linejoin="round"/>
</g>
<defs>
<filter id="filter0_i_408_8138" x="6" y="7" width="12" height="11" filterUnits="userSpaceOnUse" color-interpolation-filters="sRGB">
<feFlood flood-opacity="0" result="BackgroundImageFix"/>
<feBlend mode="normal" in="SourceGraphic" in2="BackgroundImageFix" result="shape"/>
<feColorMatrix in="SourceAlpha" type="matrix" values="0 0 0 0 0 0 0 0 0 0 0 0 0 0 0 0 0 0 127 0" result="hardAlpha"/>
<feOffset dx="2" dy="2"/>
<feGaussianBlur stdDeviation="1"/>
<feComposite in2="hardAlpha" operator="arithmetic" k2="-1" k3="1"/>
<feColorMatrix type="matrix" values="0 0 0 0 1 0 0 0 0 1 0 0 0 0 1 0 0 0 0.25 0"/>
<feBlend mode="normal" in2="shape" result="effect1_innerShadow_408_8138"/>
</filter>
<linearGradient id="paint0_linear_408_8138" x1="8.06837" y1="1.48125" x2="6.84819" y2="15.428" gradientUnits="userSpaceOnUse">
<stop stop-color="#E2EFFC"/>
<stop offset="1" stop-color="#BFDCFA"/>
</linearGradient>
<linearGradient id="paint1_linear_408_8138" x1="8.06837" y1="1.48125" x2="6.84819" y2="15.428" gradientUnits="userSpaceOnUse">
<stop stop-color="#77B7E8"/>
<stop offset="1" stop-color="#315A90"/>
</linearGradient>
<linearGradient id="paint2_linear_408_8138" x1="1.04529" y1="12.9127" x2="12.0034" y2="13.8714" gradientUnits="userSpaceOnUse">
<stop stop-color="white"/>
<stop offset="1" stop-color="#EAF3FE"/>
</linearGradient>
<linearGradient id="paint3_linear_408_8138" x1="1.04529" y1="12.9127" x2="12.0034" y2="13.8714" gradientUnits="userSpaceOnUse">
<stop stop-color="white"/>
<stop offset="1" stop-color="#EAF3FE"/>
</linearGradient>
<linearGradient id="paint4_linear_408_8138" x1="6.56941" y1="11.3883" x2="6.4794" y2="15.3957" gradientUnits="userSpaceOnUse">
<stop offset="0.208648" stop-color="#578ED3"/>
<stop offset="1" stop-color="#345E93"/>
</linearGradient>
<linearGradient id="paint5_linear_408_8138" x1="13.5474" y1="1.96059" x2="13.286" y2="4.94918" gradientUnits="userSpaceOnUse">
<stop stop-color="#78B8E9"/>
<stop offset="1" stop-color="#5A8FCB"/>
</linearGradient>
<linearGradient id="paint6_linear_408_8138" x1="13.5474" y1="1.96059" x2="13.286" y2="4.94918" gradientUnits="userSpaceOnUse">
<stop stop-color="#78B8E9"/>
<stop offset="1" stop-color="#5A8FCB"/>
</linearGradient>
<linearGradient id="paint7_linear_408_8138" x1="13.5474" y1="1.96059" x2="13.286" y2="4.94918" gradientUnits="userSpaceOnUse">
<stop stop-color="#78B8E9"/>
<stop offset="1" stop-color="#5A8FCB"/>
</linearGradient>
<linearGradient id="paint8_linear_408_8138" x1="14.5714" y1="14.7143" x2="8.17837" y2="7.61089" gradientUnits="userSpaceOnUse">
<stop stop-color="#247C10"/>
<stop offset="1" stop-color="#6FA53D"/>
</linearGradient>
<clipPath id="clip0_408_8138">
<rect width="16" height="16" fill="white"/>
</clipPath>
<clipPath id="clip1_408_8138">
<rect width="16" height="16" fill="white"/>
</clipPath>
<clipPath id="clip2_408_8138">
<rect width="16" height="16" fill="white"/>
</clipPath>
</defs>
</svg>
