<svg width="16" height="16" viewBox="0 0 16 16" fill="none" xmlns="http://www.w3.org/2000/svg">
<g clip-path="url(#clip0_408_8139)">
<g clip-path="url(#clip1_408_8139)">
<g clip-path="url(#clip2_408_8139)">
<path d="M13.0493 1.91703L5.07978 1.21979C4.5296 1.17165 4.04457 1.57864 3.99643 2.12882L2.95056 14.0832L10.9201 14.7804C11.4703 14.8285 11.9553 14.4216 12.0035 13.8714L13.0493 1.91703Z" fill="url(#paint0_linear_408_8139)"/>
<path d="M5.0362 1.71788L12.5077 2.37155L11.5054 13.8278C11.4813 14.1029 11.2388 14.3064 10.9637 14.2823L3.49224 13.6286L4.49453 2.1724C4.5186 1.89731 4.76111 1.69382 5.0362 1.71788Z" stroke="white" stroke-opacity="0.8"/>
<path d="M13.5474 1.96061C13.5715 1.68552 13.368 1.443 13.0929 1.41893L5.12336 0.721688C4.29809 0.649486 3.57054 1.25997 3.49833 2.08525L2.45247 14.0396C2.4284 14.3147 2.63189 14.5572 2.90699 14.5813L10.8765 15.2785C11.7018 15.3507 12.4294 14.7402 12.5016 13.9149L13.5474 1.96061Z" stroke="url(#paint1_linear_408_8139)" stroke-linejoin="round"/>
<path d="M10.9434 14.5139C10.378 14.1173 10.0337 13.4384 10.0982 12.7009L10.9434 14.5139Z" fill="url(#paint2_linear_408_8139)"/>
<path fill-rule="evenodd" clip-rule="evenodd" d="M1.13245 11.9165C1.03618 13.0169 1.85016 13.9869 2.95052 14.0832L10.9201 14.7805L10.9434 14.5139C10.378 14.1173 10.0337 13.4384 10.0982 12.7009L5.11722 12.2651L1.13245 11.9165Z" fill="url(#paint3_linear_408_8139)"/>
<path fill-rule="evenodd" clip-rule="evenodd" d="M0.136294 11.8293C0.184429 11.2791 0.669461 10.8722 1.21964 10.9203L10.1854 11.7047C10.7356 11.7528 11.1426 12.2379 11.0944 12.788C11.0841 12.9065 11.0948 13.0219 11.1235 13.1305C11.1362 13.1824 11.1402 13.2374 11.1353 13.2935C11.1112 13.5686 10.8687 13.7721 10.5936 13.748C10.3859 13.7299 10.2189 13.5871 10.16 13.3998C10.0999 13.1784 10.0771 12.9428 10.0982 12.7009L1.13249 11.9165C1.10074 12.2794 1.168 12.6281 1.31188 12.936C1.60427 13.5617 2.2131 14.0187 2.95057 14.0832L10.9201 14.7804L10.833 15.7766L2.86341 15.0794C1.21286 14.935 -0.00811037 13.4799 0.136294 11.8293Z" fill="url(#paint4_linear_408_8139)"/>
<path d="M12.053 2.83003C12.1042 2.71835 12.1691 2.6128 12.2469 2.51598C12.4325 2.28461 12.6827 2.1135 12.9656 2.02429C13.154 1.96488 13.3513 1.94357 13.5463 1.96047L12.0531 1.82984L11.9663 2.82244L12.053 2.83003Z" fill="#F5FAFE"/>
<path fill-rule="evenodd" clip-rule="evenodd" d="M12.053 2.83003C12.1042 2.71835 12.1691 2.6128 12.2469 2.51598C12.4325 2.28461 12.6827 2.1135 12.9656 2.02429C13.154 1.96488 13.3513 1.94357 13.5463 1.96047C13.547 1.96054 13.5478 1.9606 13.5486 1.96067C13.6456 1.96924 13.742 1.98727 13.8364 2.01479C14.1212 2.0978 14.3751 2.26342 14.5657 2.49068C14.7564 2.71794 14.8755 2.99665 14.9078 3.29156C14.9401 3.58647 14.8842 3.88433 14.7472 4.14748C14.6102 4.41064 14.3983 4.62726 14.1382 4.76995C14.0283 4.83025 13.9118 4.8762 13.7917 4.90722L13.9182 3.50116L13.9184 3.49875C13.9212 3.46605 13.9209 3.43299 13.9173 3.40004C13.9064 3.30102 13.8665 3.20745 13.8025 3.13115C13.7384 3.05485 13.6532 2.99925 13.5576 2.97138C13.5258 2.9621 13.4933 2.95604 13.4606 2.95317L12.053 2.83003Z" fill="#F5FAFE"/>
<path fill-rule="evenodd" clip-rule="evenodd" d="M13.7825 4.90962L13.6924 5.93966C14.0159 5.90376 14.331 5.80483 14.6192 5.64672C15.0527 5.4089 15.4059 5.04787 15.6342 4.60928C15.8625 4.17069 15.9557 3.67426 15.9018 3.18274C15.848 2.69123 15.6496 2.22671 15.3318 1.84794C15.014 1.46917 14.591 1.19315 14.1163 1.05478C13.9583 1.00874 13.7969 0.978623 13.6346 0.96442L13.5474 1.96062C13.6448 1.96914 13.7416 1.9872 13.8364 2.01483C14.1213 2.09785 14.3751 2.26346 14.5658 2.49073C14.7565 2.71799 14.8755 2.9967 14.9078 3.29161C14.9401 3.58652 14.8842 3.88438 14.7472 4.14753C14.6428 4.34801 14.495 4.52149 14.3154 4.65584C14.2593 4.69784 14.2001 4.73602 14.1382 4.77C14.0255 4.83184 13.9059 4.87859 13.7825 4.90962Z" fill="url(#paint5_linear_408_8139)"/>
<path d="M13.6346 0.96442C13.4673 0.949786 13.2989 0.952042 13.1321 0.971161L13.0493 1.91704L13.5474 1.96062L13.6346 0.96442Z" fill="url(#paint6_linear_408_8139)"/>
<path d="M13.6346 0.96442L13.1365 0.920842L13.1321 0.971161C13.2989 0.952042 13.4673 0.949786 13.6346 0.96442Z" fill="url(#paint7_linear_408_8139)"/>
</g>
</g>
<mask id="path-8-inside-1_408_8139" fill="white">
<path fill-rule="evenodd" clip-rule="evenodd" d="M10.75 6C10.1977 6 9.75 6.44772 9.75 7V7.26484C9.75 7.38383 9.67414 7.48909 9.56423 7.53468C9.45426 7.5803 9.32693 7.55916 9.24274 7.47497L9.05546 7.28769C8.66493 6.89716 8.03177 6.89716 7.64124 7.28769L7.28769 7.64124C6.89717 8.03176 6.89717 8.66493 7.28769 9.05545L7.47497 9.24273C7.55916 9.32692 7.5803 9.45426 7.53468 9.56423C7.48909 9.67414 7.38383 9.75 7.26484 9.75H7C6.44772 9.75 6 10.1977 6 10.75V11.25C6 11.8023 6.44772 12.25 7 12.25H7.26483C7.38383 12.25 7.48909 12.3259 7.53468 12.4358C7.5803 12.5457 7.55916 12.6731 7.47497 12.7573L7.28769 12.9445C6.89716 13.3351 6.89716 13.9682 7.28769 14.3588L7.64124 14.7123C8.03177 15.1028 8.66493 15.1028 9.05545 14.7123L9.24274 14.525C9.32693 14.4408 9.45426 14.4197 9.56423 14.4653C9.67414 14.5109 9.75 14.6162 9.75 14.7352V15C9.75 15.5523 10.1977 16 10.75 16H11.25C11.8023 16 12.25 15.5523 12.25 15V14.7352C12.25 14.6162 12.3259 14.5109 12.4358 14.4653C12.5457 14.4197 12.6731 14.4408 12.7573 14.525L12.9445 14.7123C13.3351 15.1028 13.9682 15.1028 14.3588 14.7123L14.7123 14.3588C15.1028 13.9682 15.1028 13.3351 14.7123 12.9445L14.525 12.7573C14.4408 12.6731 14.4197 12.5457 14.4653 12.4358C14.5109 12.3259 14.6162 12.25 14.7352 12.25H15C15.5523 12.25 16 11.8023 16 11.25V10.75C16 10.1977 15.5523 9.75 15 9.75H14.7352C14.6162 9.75 14.5109 9.67414 14.4653 9.56423C14.4197 9.45426 14.4408 9.32693 14.525 9.24274L14.7123 9.05546C15.1028 8.66494 15.1028 8.03177 14.7123 7.64125L14.3588 7.28769C13.9682 6.89717 13.3351 6.89717 12.9445 7.28769L12.7573 7.47497C12.6731 7.55916 12.5457 7.5803 12.4358 7.53468C12.3259 7.48909 12.25 7.38383 12.25 7.26484V7C12.25 6.44772 11.8023 6 11.25 6H10.75ZM11 12.25C11.6904 12.25 12.25 11.6904 12.25 11C12.25 10.3096 11.6904 9.75 11 9.75C10.3096 9.75 9.75 10.3096 9.75 11C9.75 11.6904 10.3096 12.25 11 12.25Z"/>
</mask>
<g filter="url(#filter0_ii_408_8139)">
<path fill-rule="evenodd" clip-rule="evenodd" d="M10.75 6C10.1977 6 9.75 6.44772 9.75 7V7.26484C9.75 7.38383 9.67414 7.48909 9.56423 7.53468C9.45426 7.5803 9.32693 7.55916 9.24274 7.47497L9.05546 7.28769C8.66493 6.89716 8.03177 6.89716 7.64124 7.28769L7.28769 7.64124C6.89717 8.03176 6.89717 8.66493 7.28769 9.05545L7.47497 9.24273C7.55916 9.32692 7.5803 9.45426 7.53468 9.56423C7.48909 9.67414 7.38383 9.75 7.26484 9.75H7C6.44772 9.75 6 10.1977 6 10.75V11.25C6 11.8023 6.44772 12.25 7 12.25H7.26483C7.38383 12.25 7.48909 12.3259 7.53468 12.4358C7.5803 12.5457 7.55916 12.6731 7.47497 12.7573L7.28769 12.9445C6.89716 13.3351 6.89716 13.9682 7.28769 14.3588L7.64124 14.7123C8.03177 15.1028 8.66493 15.1028 9.05545 14.7123L9.24274 14.525C9.32693 14.4408 9.45426 14.4197 9.56423 14.4653C9.67414 14.5109 9.75 14.6162 9.75 14.7352V15C9.75 15.5523 10.1977 16 10.75 16H11.25C11.8023 16 12.25 15.5523 12.25 15V14.7352C12.25 14.6162 12.3259 14.5109 12.4358 14.4653C12.5457 14.4197 12.6731 14.4408 12.7573 14.525L12.9445 14.7123C13.3351 15.1028 13.9682 15.1028 14.3588 14.7123L14.7123 14.3588C15.1028 13.9682 15.1028 13.3351 14.7123 12.9445L14.525 12.7573C14.4408 12.6731 14.4197 12.5457 14.4653 12.4358C14.5109 12.3259 14.6162 12.25 14.7352 12.25H15C15.5523 12.25 16 11.8023 16 11.25V10.75C16 10.1977 15.5523 9.75 15 9.75H14.7352C14.6162 9.75 14.5109 9.67414 14.4653 9.56423C14.4197 9.45426 14.4408 9.32693 14.525 9.24274L14.7123 9.05546C15.1028 8.66494 15.1028 8.03177 14.7123 7.64125L14.3588 7.28769C13.9682 6.89717 13.3351 6.89717 12.9445 7.28769L12.7573 7.47497C12.6731 7.55916 12.5457 7.5803 12.4358 7.53468C12.3259 7.48909 12.25 7.38383 12.25 7.26484V7C12.25 6.44772 11.8023 6 11.25 6H10.75ZM11 12.25C11.6904 12.25 12.25 11.6904 12.25 11C12.25 10.3096 11.6904 9.75 11 9.75C10.3096 9.75 9.75 10.3096 9.75 11C9.75 11.6904 10.3096 12.25 11 12.25Z" fill="#BEBEBE"/>
</g>
<path d="M9.56423 7.53468L9.1811 6.61099L9.1811 6.61099L9.56423 7.53468ZM9.24274 7.47497L9.94984 6.76786L9.94984 6.76786L9.24274 7.47497ZM9.05546 7.28769L8.34835 7.99479L9.05546 7.28769ZM7.64124 7.28769L6.93414 6.58058L6.93414 6.58058L7.64124 7.28769ZM7.28769 7.64124L6.58058 6.93413L6.58058 6.93413L7.28769 7.64124ZM7.28769 9.05545L7.9948 8.34835L7.9948 8.34835L7.28769 9.05545ZM7.47497 9.24273L8.18208 8.53563L8.18208 8.53563L7.47497 9.24273ZM7.53468 9.56423L8.45837 9.94737L8.45837 9.94737L7.53468 9.56423ZM7.53468 12.4358L8.45837 12.0526L8.45837 12.0526L7.53468 12.4358ZM7.47497 12.7573L6.76786 12.0502L6.76786 12.0502L7.47497 12.7573ZM7.28769 12.9445L7.99479 13.6517H7.99479L7.28769 12.9445ZM7.28769 14.3588L7.99479 13.6517H7.99479L7.28769 14.3588ZM7.64124 14.7123L6.93413 15.4194L6.93413 15.4194L7.64124 14.7123ZM9.05545 14.7123L8.34835 14.0052H8.34835L9.05545 14.7123ZM9.24274 14.525L8.53563 13.8179L8.53563 13.8179L9.24274 14.525ZM9.56423 14.4653L9.1811 15.389L9.1811 15.389L9.56423 14.4653ZM12.4358 14.4653L12.8189 15.389L12.8189 15.389L12.4358 14.4653ZM12.7573 14.525L13.4644 13.8179L13.4644 13.8179L12.7573 14.525ZM12.9445 14.7123L12.2374 15.4194L12.2374 15.4194L12.9445 14.7123ZM14.3588 14.7123L15.0659 15.4194V15.4194L14.3588 14.7123ZM14.7123 14.3588L15.4194 15.0659H15.4194L14.7123 14.3588ZM14.7123 12.9445L14.0052 13.6516V13.6516L14.7123 12.9445ZM14.525 12.7573L15.2321 12.0502L15.2321 12.0502L14.525 12.7573ZM14.4653 12.4358L15.389 12.8189L15.389 12.8189L14.4653 12.4358ZM14.4653 9.56423L15.389 9.1811V9.1811L14.4653 9.56423ZM14.525 9.24274L13.8179 8.53563L13.8179 8.53563L14.525 9.24274ZM14.7123 9.05546L15.4194 9.76257L15.4194 9.76257L14.7123 9.05546ZM14.7123 7.64125L15.4194 6.93414L15.4194 6.93414L14.7123 7.64125ZM14.3588 7.28769L13.6516 7.9948L13.6516 7.9948L14.3588 7.28769ZM12.9445 7.28769L13.6516 7.9948L12.9445 7.28769ZM12.7573 7.47497L12.0502 6.76786L12.0502 6.76786L12.7573 7.47497ZM12.4358 7.53468L12.0526 8.45837L12.0526 8.45837L12.4358 7.53468ZM10.75 7V7V5C9.64543 5 8.75 5.89543 8.75 7H10.75ZM10.75 7.26484V7H8.75V7.26484H10.75ZM9.94737 8.45837C10.4003 8.27049 10.75 7.82002 10.75 7.26484H8.75C8.75 6.94763 8.94796 6.70769 9.1811 6.61099L9.94737 8.45837ZM8.53563 8.18207C8.92594 8.57238 9.49046 8.6479 9.94737 8.45837L9.1811 6.61099C9.41806 6.5127 9.72792 6.54593 9.94984 6.76786L8.53563 8.18207ZM8.34835 7.99479L8.53563 8.18207L9.94984 6.76786L9.76256 6.58058L8.34835 7.99479ZM8.34835 7.99479L8.34835 7.99479L9.76256 6.58058C8.98151 5.79953 7.71518 5.79953 6.93414 6.58058L8.34835 7.99479ZM7.9948 8.34835L8.34835 7.99479L6.93414 6.58058L6.58058 6.93413L7.9948 8.34835ZM7.9948 8.34835L6.58058 6.93413C5.79953 7.71518 5.79953 8.98151 6.58058 9.76256L7.9948 8.34835ZM8.18208 8.53563L7.9948 8.34835L6.58058 9.76256L6.76786 9.94984L8.18208 8.53563ZM8.45837 9.94737C8.6479 9.49045 8.57238 8.92593 8.18208 8.53563L6.76786 9.94984C6.54593 9.72791 6.5127 9.41806 6.61099 9.18109L8.45837 9.94737ZM7.26484 10.75C7.82003 10.75 8.27049 10.4003 8.45837 9.94737L6.61099 9.18109C6.70769 8.94796 6.94763 8.75 7.26484 8.75V10.75ZM7 10.75H7.26484V8.75H7V10.75ZM7 10.75V8.75C5.89543 8.75 5 9.64543 5 10.75H7ZM7 11.25V10.75H5V11.25H7ZM7 11.25H7H5C5 12.3546 5.89543 13.25 7 13.25V11.25ZM7.26483 11.25H7V13.25H7.26483V11.25ZM8.45837 12.0526C8.27049 11.5997 7.82002 11.25 7.26483 11.25V13.25C6.94763 13.25 6.70769 13.052 6.61099 12.8189L8.45837 12.0526ZM8.18207 13.4644C8.57238 13.0741 8.6479 12.5095 8.45837 12.0526L6.61099 12.8189C6.5127 12.5819 6.54593 12.2721 6.76786 12.0502L8.18207 13.4644ZM7.99479 13.6517L8.18207 13.4644L6.76786 12.0502L6.58058 12.2374L7.99479 13.6517ZM7.99479 13.6517V13.6517L6.58058 12.2374C5.79953 13.0185 5.79953 14.2848 6.58058 15.0659L7.99479 13.6517ZM8.34835 14.0052L7.99479 13.6517L6.58058 15.0659L6.93413 15.4194L8.34835 14.0052ZM8.34835 14.0052L6.93413 15.4194C7.71518 16.2005 8.98151 16.2005 9.76256 15.4194L8.34835 14.0052ZM8.53563 13.8179L8.34835 14.0052L9.76256 15.4194L9.94984 15.2321L8.53563 13.8179ZM9.94737 13.5416C9.49046 13.3521 8.92594 13.4276 8.53563 13.8179L9.94984 15.2321C9.72791 15.4541 9.41806 15.4873 9.1811 15.389L9.94737 13.5416ZM10.75 14.7352C10.75 14.18 10.4003 13.7295 9.94737 13.5416L9.1811 15.389C8.94796 15.2923 8.75 15.0524 8.75 14.7352H10.75ZM10.75 15V14.7352H8.75V15H10.75ZM10.75 15H8.75C8.75 16.1046 9.64543 17 10.75 17V15ZM11.25 15H10.75V17H11.25V15ZM11.25 15V17C12.3546 17 13.25 16.1046 13.25 15H11.25ZM11.25 14.7352V15H13.25V14.7352H11.25ZM12.0526 13.5416C11.5997 13.7295 11.25 14.18 11.25 14.7352H13.25C13.25 15.0524 13.052 15.2923 12.8189 15.389L12.0526 13.5416ZM13.4644 13.8179C13.0741 13.4276 12.5095 13.3521 12.0526 13.5416L12.8189 15.389C12.5819 15.4873 12.2721 15.4541 12.0502 15.2321L13.4644 13.8179ZM13.6517 14.0052L13.4644 13.8179L12.0502 15.2321L12.2374 15.4194L13.6517 14.0052ZM13.6517 14.0052H13.6516L12.2374 15.4194C13.0185 16.2005 14.2848 16.2005 15.0659 15.4194L13.6517 14.0052ZM14.0052 13.6516L13.6517 14.0052L15.0659 15.4194L15.4194 15.0659L14.0052 13.6516ZM14.0052 13.6516V13.6516L15.4194 15.0659C16.2005 14.2848 16.2005 13.0185 15.4194 12.2374L14.0052 13.6516ZM13.8179 13.4644L14.0052 13.6516L15.4194 12.2374L15.2321 12.0502L13.8179 13.4644ZM13.5416 12.0526C13.3521 12.5095 13.4276 13.0741 13.8179 13.4644L15.2321 12.0502C15.4541 12.2721 15.4873 12.5819 15.389 12.8189L13.5416 12.0526ZM14.7352 11.25C14.18 11.25 13.7295 11.5997 13.5416 12.0526L15.389 12.8189C15.2923 13.052 15.0524 13.25 14.7352 13.25V11.25ZM15 11.25H14.7352V13.25H15V11.25ZM15 11.25V13.25C16.1046 13.25 17 12.3546 17 11.25H15ZM15 10.75V11.25H17V10.75H15ZM15 10.75H17C17 9.64543 16.1046 8.75 15 8.75V10.75ZM14.7352 10.75H15V8.75H14.7352V10.75ZM13.5416 9.94737C13.7295 10.4003 14.18 10.75 14.7352 10.75V8.75C15.0524 8.75 15.2923 8.94796 15.389 9.1811L13.5416 9.94737ZM13.8179 8.53563C13.4276 8.92594 13.3521 9.49046 13.5416 9.94737L15.389 9.1811C15.4873 9.41806 15.4541 9.72792 15.2321 9.94984L13.8179 8.53563ZM14.0052 8.34835L13.8179 8.53563L15.2321 9.94984L15.4194 9.76257L14.0052 8.34835ZM14.0052 8.34835V8.34835L15.4194 9.76257C16.2005 8.98152 16.2005 7.71519 15.4194 6.93414L14.0052 8.34835ZM13.6516 7.9948L14.0052 8.34835L15.4194 6.93414L15.0659 6.58059L13.6516 7.9948ZM13.6516 7.9948V7.9948L15.0659 6.58059C14.2848 5.79954 13.0185 5.79954 12.2374 6.58059L13.6516 7.9948ZM13.4644 8.18207L13.6516 7.9948L12.2374 6.58059L12.0502 6.76786L13.4644 8.18207ZM12.0526 8.45837C12.5095 8.6479 13.0741 8.57238 13.4644 8.18207L12.0502 6.76786C12.2721 6.54593 12.5819 6.5127 12.8189 6.61099L12.0526 8.45837ZM11.25 7.26484C11.25 7.82003 11.5997 8.27049 12.0526 8.45837L12.8189 6.61099C13.052 6.70769 13.25 6.94763 13.25 7.26484H11.25ZM11.25 7V7.26484H13.25V7H11.25ZM11.25 7H13.25C13.25 5.89543 12.3546 5 11.25 5V7ZM10.75 7H11.25V5H10.75V7ZM11.25 11C11.25 11.1381 11.1381 11.25 11 11.25V13.25C12.2426 13.25 13.25 12.2426 13.25 11H11.25ZM11 10.75C11.1381 10.75 11.25 10.8619 11.25 11H13.25C13.25 9.75736 12.2426 8.75 11 8.75V10.75ZM10.75 11C10.75 10.8619 10.8619 10.75 11 10.75V8.75C9.75736 8.75 8.75 9.75736 8.75 11H10.75ZM11 11.25C10.8619 11.25 10.75 11.1381 10.75 11H8.75C8.75 12.2426 9.75736 13.25 11 13.25V11.25Z" fill="url(#paint8_linear_408_8139)" mask="url(#path-8-inside-1_408_8139)"/>
</g>
<defs>
<filter id="filter0_ii_408_8139" x="6" y="6" width="12" height="12" filterUnits="userSpaceOnUse" color-interpolation-filters="sRGB">
<feFlood flood-opacity="0" result="BackgroundImageFix"/>
<feBlend mode="normal" in="SourceGraphic" in2="BackgroundImageFix" result="shape"/>
<feColorMatrix in="SourceAlpha" type="matrix" values="0 0 0 0 0 0 0 0 0 0 0 0 0 0 0 0 0 0 127 0" result="hardAlpha"/>
<feOffset dx="4" dy="4"/>
<feGaussianBlur stdDeviation="1"/>
<feComposite in2="hardAlpha" operator="arithmetic" k2="-1" k3="1"/>
<feColorMatrix type="matrix" values="0 0 0 0 1 0 0 0 0 1 0 0 0 0 1 0 0 0 0.33 0"/>
<feBlend mode="normal" in2="shape" result="effect1_innerShadow_408_8139"/>
<feColorMatrix in="SourceAlpha" type="matrix" values="0 0 0 0 0 0 0 0 0 0 0 0 0 0 0 0 0 0 127 0" result="hardAlpha"/>
<feOffset dx="1.5" dy="1.5"/>
<feGaussianBlur stdDeviation="0.5"/>
<feComposite in2="hardAlpha" operator="arithmetic" k2="-1" k3="1"/>
<feColorMatrix type="matrix" values="0 0 0 0 1 0 0 0 0 1 0 0 0 0 1 0 0 0 0.66 0"/>
<feBlend mode="normal" in2="effect1_innerShadow_408_8139" result="effect2_innerShadow_408_8139"/>
</filter>
<linearGradient id="paint0_linear_408_8139" x1="8.06837" y1="1.48125" x2="6.84819" y2="15.428" gradientUnits="userSpaceOnUse">
<stop stop-color="#E2EFFC"/>
<stop offset="1" stop-color="#BFDCFA"/>
</linearGradient>
<linearGradient id="paint1_linear_408_8139" x1="8.06837" y1="1.48125" x2="6.84819" y2="15.428" gradientUnits="userSpaceOnUse">
<stop stop-color="#77B7E8"/>
<stop offset="1" stop-color="#315A90"/>
</linearGradient>
<linearGradient id="paint2_linear_408_8139" x1="1.04529" y1="12.9127" x2="12.0034" y2="13.8714" gradientUnits="userSpaceOnUse">
<stop stop-color="white"/>
<stop offset="1" stop-color="#EAF3FE"/>
</linearGradient>
<linearGradient id="paint3_linear_408_8139" x1="1.04529" y1="12.9127" x2="12.0034" y2="13.8714" gradientUnits="userSpaceOnUse">
<stop stop-color="white"/>
<stop offset="1" stop-color="#EAF3FE"/>
</linearGradient>
<linearGradient id="paint4_linear_408_8139" x1="6.56941" y1="11.3883" x2="6.4794" y2="15.3957" gradientUnits="userSpaceOnUse">
<stop offset="0.208648" stop-color="#578ED3"/>
<stop offset="1" stop-color="#345E93"/>
</linearGradient>
<linearGradient id="paint5_linear_408_8139" x1="13.5474" y1="1.96059" x2="13.286" y2="4.94918" gradientUnits="userSpaceOnUse">
<stop stop-color="#78B8E9"/>
<stop offset="1" stop-color="#5A8FCB"/>
</linearGradient>
<linearGradient id="paint6_linear_408_8139" x1="13.5474" y1="1.96059" x2="13.286" y2="4.94918" gradientUnits="userSpaceOnUse">
<stop stop-color="#78B8E9"/>
<stop offset="1" stop-color="#5A8FCB"/>
</linearGradient>
<linearGradient id="paint7_linear_408_8139" x1="13.5474" y1="1.96059" x2="13.286" y2="4.94918" gradientUnits="userSpaceOnUse">
<stop stop-color="#78B8E9"/>
<stop offset="1" stop-color="#5A8FCB"/>
</linearGradient>
<linearGradient id="paint8_linear_408_8139" x1="16.001" y1="16.001" x2="5.99904" y2="5.99904" gradientUnits="userSpaceOnUse">
<stop offset="0.14049" stop-color="#4F4F4F"/>
<stop offset="0.857348" stop-color="#CECECE"/>
</linearGradient>
<clipPath id="clip0_408_8139">
<rect width="16" height="16" fill="white"/>
</clipPath>
<clipPath id="clip1_408_8139">
<rect width="16" height="16" fill="white"/>
</clipPath>
<clipPath id="clip2_408_8139">
<rect width="16" height="16" fill="white"/>
</clipPath>
</defs>
</svg>
