<svg width="16" height="16" viewBox="0 0 16 16" fill="none" xmlns="http://www.w3.org/2000/svg">
<g clip-path="url(#clip0_408_8135)">
<g clip-path="url(#clip1_408_8135)">
<g clip-path="url(#clip2_408_8135)">
<path d="M13.0493 1.91703L5.07975 1.21979C4.52957 1.17165 4.04454 1.57864 3.9964 2.12882L2.95053 14.0832L10.9201 14.7804C11.4703 14.8285 11.9553 14.4216 12.0034 13.8714L13.0493 1.91703Z" fill="url(#paint0_linear_408_8135)"/>
<path d="M5.03617 1.71788L12.5076 2.37155L11.5053 13.8278C11.4813 14.1029 11.2388 14.3064 10.9637 14.2823L3.49221 13.6286L4.4945 2.1724C4.51857 1.89731 4.76108 1.69382 5.03617 1.71788Z" stroke="white" stroke-opacity="0.8"/>
<path d="M13.5474 1.96061C13.5715 1.68552 13.368 1.443 13.0929 1.41893L5.12333 0.721688C4.29806 0.649486 3.57051 1.25997 3.4983 2.08525L2.45244 14.0396C2.42837 14.3147 2.63186 14.5572 2.90695 14.5813L10.8765 15.2785C11.7018 15.3507 12.4293 14.7402 12.5015 13.9149L13.5474 1.96061Z" stroke="url(#paint1_linear_408_8135)" stroke-linejoin="round"/>
<path d="M10.9434 14.5139C10.378 14.1173 10.0337 13.4384 10.0982 12.7009L10.9434 14.5139Z" fill="url(#paint2_linear_408_8135)"/>
<path fill-rule="evenodd" clip-rule="evenodd" d="M1.13245 11.9165C1.03618 13.0169 1.85016 13.9869 2.95052 14.0832L10.9201 14.7805L10.9434 14.5139C10.378 14.1173 10.0337 13.4384 10.0982 12.7009L5.11722 12.2651L1.13245 11.9165Z" fill="url(#paint3_linear_408_8135)"/>
<path fill-rule="evenodd" clip-rule="evenodd" d="M0.136294 11.8293C0.184429 11.2791 0.669461 10.8722 1.21964 10.9203L10.1854 11.7047C10.7356 11.7528 11.1426 12.2379 11.0944 12.788C11.0841 12.9065 11.0948 13.0219 11.1235 13.1305C11.1362 13.1824 11.1402 13.2374 11.1353 13.2935C11.1112 13.5686 10.8687 13.7721 10.5936 13.748C10.3859 13.7299 10.2189 13.5871 10.16 13.3998C10.0999 13.1784 10.0771 12.9428 10.0982 12.7009L1.13249 11.9165C1.10074 12.2794 1.168 12.6281 1.31188 12.936C1.60427 13.5617 2.2131 14.0187 2.95057 14.0832L10.9201 14.7804L10.833 15.7766L2.86341 15.0794C1.21286 14.935 -0.00811037 13.4799 0.136294 11.8293Z" fill="url(#paint4_linear_408_8135)"/>
<path d="M12.053 2.83003C12.1042 2.71835 12.1691 2.6128 12.2468 2.51598C12.4325 2.28461 12.6827 2.1135 12.9656 2.02429C13.154 1.96488 13.3513 1.94357 13.5462 1.96047L12.0531 1.82984L11.9663 2.82244L12.053 2.83003Z" fill="#F5FAFE"/>
<path fill-rule="evenodd" clip-rule="evenodd" d="M12.053 2.83003C12.1042 2.71835 12.1691 2.6128 12.2468 2.51598C12.4325 2.28461 12.6827 2.1135 12.9656 2.02429C13.154 1.96488 13.3513 1.94357 13.5462 1.96047C13.547 1.96054 13.5478 1.9606 13.5486 1.96067C13.6456 1.96924 13.742 1.98727 13.8364 2.01479C14.1212 2.0978 14.375 2.26342 14.5657 2.49068C14.7564 2.71794 14.8754 2.99665 14.9077 3.29156C14.94 3.58647 14.8842 3.88433 14.7472 4.14748C14.6102 4.41064 14.3982 4.62726 14.1381 4.76995C14.0282 4.83025 13.9118 4.8762 13.7917 4.90722L13.9181 3.50116L13.9183 3.49875C13.9212 3.46605 13.9209 3.43299 13.9173 3.40004C13.9064 3.30102 13.8665 3.20745 13.8024 3.13115C13.7384 3.05485 13.6532 2.99925 13.5576 2.97138C13.5258 2.9621 13.4932 2.95604 13.4605 2.95317L12.053 2.83003Z" fill="#F5FAFE"/>
<path fill-rule="evenodd" clip-rule="evenodd" d="M13.7824 4.90962L13.6923 5.93966C14.0159 5.90376 14.3309 5.80483 14.6191 5.64672C15.0526 5.4089 15.4058 5.04787 15.6342 4.60928C15.8625 4.17069 15.9556 3.67426 15.9018 3.18274C15.8479 2.69123 15.6496 2.22671 15.3317 1.84794C15.0139 1.46917 14.5909 1.19315 14.1162 1.05478C13.9582 1.00874 13.7969 0.978623 13.6345 0.96442L13.5474 1.96062C13.6448 1.96914 13.7416 1.9872 13.8364 2.01483C14.1212 2.09785 14.375 2.26346 14.5657 2.49073C14.7564 2.71799 14.8754 2.9967 14.9077 3.29161C14.94 3.58652 14.8841 3.88438 14.7472 4.14753C14.6428 4.34801 14.4949 4.52149 14.3154 4.65584C14.2593 4.69784 14.2001 4.73602 14.1381 4.77C14.0254 4.83184 13.9058 4.87859 13.7824 4.90962Z" fill="url(#paint5_linear_408_8135)"/>
<path d="M13.6345 0.96442C13.4672 0.949786 13.2989 0.952042 13.132 0.971161L13.0493 1.91704L13.5474 1.96062L13.6345 0.96442Z" fill="url(#paint6_linear_408_8135)"/>
<path d="M13.6345 0.96442L13.1364 0.920842L13.132 0.971161C13.2989 0.952042 13.4672 0.949786 13.6345 0.96442Z" fill="url(#paint7_linear_408_8135)"/>
</g>
</g>
<mask id="path-8-outside-1_408_8135" maskUnits="userSpaceOnUse" x="0" y="3" width="12" height="11" fill="black">
<rect fill="white" y="3" width="12" height="11"/>
<path fill-rule="evenodd" clip-rule="evenodd" d="M10.0023 7.80801C10.0801 9.26173 9.1395 10.4053 8.35487 11.2697C7.57024 12.1342 5.2346 13.5036 4.57561 12.8112C4.25217 12.4714 4.2126 12.0903 4.17302 11.709C4.13231 11.3169 4.0916 10.9247 3.74197 10.5774C3.40015 10.2378 2.92483 10.1101 2.4496 9.98239C1.98375 9.85722 1.51799 9.73207 1.17815 9.40742C0.488634 8.74873 1.96886 6.59532 2.75349 5.73086C3.53812 4.8664 4.66255 4 6.04842 4C6.70741 4 7.56058 4.0311 8.46017 4.92318C9.37191 5.8273 9.9417 6.67395 10.0023 7.80801ZM5 10C5.55228 10 6 9.55228 6 9C6 8.44772 5.55228 8 5 8C4.44772 8 4 8.44772 4 9C4 9.55228 4.44772 10 5 10Z"/>
</mask>
<path fill-rule="evenodd" clip-rule="evenodd" d="M10.0023 7.80801C10.0801 9.26173 9.1395 10.4053 8.35487 11.2697C7.57024 12.1342 5.2346 13.5036 4.57561 12.8112C4.25217 12.4714 4.2126 12.0903 4.17302 11.709C4.13231 11.3169 4.0916 10.9247 3.74197 10.5774C3.40015 10.2378 2.92483 10.1101 2.4496 9.98239C1.98375 9.85722 1.51799 9.73207 1.17815 9.40742C0.488634 8.74873 1.96886 6.59532 2.75349 5.73086C3.53812 4.8664 4.66255 4 6.04842 4C6.70741 4 7.56058 4.0311 8.46017 4.92318C9.37191 5.8273 9.9417 6.67395 10.0023 7.80801ZM5 10C5.55228 10 6 9.55228 6 9C6 8.44772 5.55228 8 5 8C4.44772 8 4 8.44772 4 9C4 9.55228 4.44772 10 5 10Z" fill="url(#paint8_linear_408_8135)"/>
<path d="M8.35487 11.2697L7.6144 10.5976V10.5976L8.35487 11.2697ZM10.0023 7.80801L11.0009 7.75461V7.75461L10.0023 7.80801ZM4.57561 12.8112L5.29995 12.1218L5.29995 12.1218L4.57561 12.8112ZM4.17302 11.709L5.16768 11.6058L4.17302 11.709ZM3.74197 10.5774L3.0372 11.2868L3.74197 10.5774ZM2.4496 9.98239L2.7091 9.01665L2.70909 9.01665L2.4496 9.98239ZM1.17815 9.40742L1.86891 8.68434L1.86891 8.68434L1.17815 9.40742ZM2.75349 5.73086L3.49396 6.40295V6.40295L2.75349 5.73086ZM8.46017 4.92318L9.1643 4.21311V4.21311L8.46017 4.92318ZM9.09534 11.9418C9.86132 11.0979 11.1033 9.6693 11.0009 7.75461L9.00377 7.8614C9.05685 8.85417 8.41769 9.71262 7.6144 10.5976L9.09534 11.9418ZM3.85128 13.5007C4.35357 14.0284 5.04181 14.0336 5.46999 13.9747C5.93684 13.9105 6.41993 13.7309 6.84794 13.5272C7.69655 13.1232 8.59369 12.4945 9.09534 11.9418L7.6144 10.5976C7.33143 10.9094 6.66843 11.3976 5.98831 11.7214C5.65195 11.8815 5.37853 11.9685 5.19759 11.9933C4.97798 12.0235 5.12715 11.9402 5.29995 12.1218L3.85128 13.5007ZM3.17837 11.8123C3.21581 12.173 3.2664 12.8862 3.85128 13.5007L5.29995 12.1218C5.26269 12.0826 5.2434 12.0477 5.2262 11.99C5.202 11.9088 5.18904 11.8116 5.16768 11.6058L3.17837 11.8123ZM3.0372 11.2868C3.08126 11.3306 3.10099 11.367 3.11807 11.4221C3.14306 11.5028 3.15636 11.6003 3.17837 11.8123L5.16768 11.6058C5.12874 11.2307 5.07607 10.4931 4.44673 9.86793L3.0372 11.2868ZM2.1901 10.9481C2.72045 11.0906 2.9168 11.1672 3.0372 11.2868L4.44673 9.86793C3.8835 9.30841 3.12921 9.12953 2.7091 9.01665L2.1901 10.9481ZM0.487393 10.1305C1.04422 10.6624 1.77748 10.8373 2.1901 10.9481L2.70909 9.01665C2.19003 8.87717 1.99176 8.8017 1.86891 8.68434L0.487393 10.1305ZM2.01302 5.05877C1.57331 5.54322 0.954787 6.36644 0.527295 7.18209C0.316274 7.58471 0.11808 8.04828 0.0381287 8.50375C-0.0370954 8.93229 -0.0474178 9.61961 0.487393 10.1305L1.86891 8.68434C2.05896 8.86589 1.9751 9.03702 2.00801 8.84953C2.03619 8.68897 2.12781 8.43664 2.29874 8.11052C2.63514 7.46868 3.14904 6.78296 3.49396 6.40295L2.01302 5.05877ZM6.04842 3C4.23555 3 2.8608 4.12473 2.01302 5.05877L3.49396 6.40295C4.21544 5.60807 5.08954 5 6.04842 5V3ZM9.1643 4.21311C8.59809 3.65163 8.01491 3.33391 7.44461 3.16722C6.89025 3.00519 6.38985 3 6.04842 3V5C6.36598 5 6.62166 5.01036 6.88352 5.0869C7.12946 5.15878 7.42266 5.30265 7.75604 5.63324L9.1643 4.21311ZM11.0009 7.75461C10.9208 6.25561 10.146 5.18662 9.1643 4.21311L7.75604 5.63324C8.5978 6.46797 8.96264 7.09229 9.00377 7.8614L11.0009 7.75461ZM5 9V11C6.10457 11 7 10.1046 7 9H5ZM5 9H7C7 7.89543 6.10457 7 5 7V9ZM5 9V7C3.89543 7 3 7.89543 3 9H5ZM5 9H3C3 10.1046 3.89543 11 5 11V9Z" fill="url(#paint9_linear_408_8135)" mask="url(#path-8-outside-1_408_8135)"/>
<mask id="path-10-inside-2_408_8135" fill="white">
<path fill-rule="evenodd" clip-rule="evenodd" d="M10.0023 7.80801C10.0801 9.26173 9.1395 10.4053 8.35487 11.2697C7.57024 12.1342 5.2346 13.5036 4.57561 12.8112C4.25217 12.4714 4.2126 12.0903 4.17302 11.709C4.13231 11.3169 4.0916 10.9247 3.74197 10.5774C3.40015 10.2378 2.92483 10.1101 2.4496 9.98239C1.98375 9.85722 1.51799 9.73207 1.17815 9.40742C0.488634 8.74873 1.96886 6.59532 2.75349 5.73086C3.53812 4.8664 4.66255 4 6.04842 4C6.70741 4 7.56058 4.0311 8.46017 4.92318C9.37191 5.8273 9.9417 6.67395 10.0023 7.80801ZM5 10C5.55228 10 6 9.55228 6 9C6 8.44772 5.55228 8 5 8C4.44772 8 4 8.44772 4 9C4 9.55228 4.44772 10 5 10Z"/>
</mask>
<path d="M8.35487 11.2697L7.6144 10.5976V10.5976L8.35487 11.2697ZM10.0023 7.80801L11.0009 7.75461V7.75461L10.0023 7.80801ZM4.57561 12.8112L5.29995 12.1218L5.29995 12.1218L4.57561 12.8112ZM4.17302 11.709L5.16768 11.6058L4.17302 11.709ZM3.74197 10.5774L3.0372 11.2868L3.74197 10.5774ZM2.4496 9.98239L2.7091 9.01665L2.70909 9.01665L2.4496 9.98239ZM1.17815 9.40742L1.86891 8.68434L1.86891 8.68434L1.17815 9.40742ZM2.75349 5.73086L3.49396 6.40295V6.40295L2.75349 5.73086ZM8.46017 4.92318L9.1643 4.21311V4.21311L8.46017 4.92318ZM9.09534 11.9418C9.86132 11.0979 11.1033 9.6693 11.0009 7.75461L9.00377 7.8614C9.05685 8.85417 8.41769 9.71262 7.6144 10.5976L9.09534 11.9418ZM3.85128 13.5007C4.35357 14.0284 5.04181 14.0336 5.46999 13.9747C5.93684 13.9105 6.41993 13.7309 6.84794 13.5272C7.69655 13.1232 8.59369 12.4945 9.09534 11.9418L7.6144 10.5976C7.33143 10.9094 6.66843 11.3976 5.98831 11.7214C5.65195 11.8815 5.37853 11.9685 5.19759 11.9933C4.97798 12.0235 5.12715 11.9402 5.29995 12.1218L3.85128 13.5007ZM3.17837 11.8123C3.21581 12.173 3.2664 12.8862 3.85128 13.5007L5.29995 12.1218C5.26269 12.0826 5.2434 12.0477 5.2262 11.99C5.202 11.9088 5.18904 11.8116 5.16768 11.6058L3.17837 11.8123ZM3.0372 11.2868C3.08126 11.3306 3.10099 11.367 3.11807 11.4221C3.14306 11.5028 3.15636 11.6003 3.17837 11.8123L5.16768 11.6058C5.12874 11.2307 5.07607 10.4931 4.44673 9.86793L3.0372 11.2868ZM2.1901 10.9481C2.72045 11.0906 2.9168 11.1672 3.0372 11.2868L4.44673 9.86793C3.8835 9.30841 3.12921 9.12953 2.7091 9.01665L2.1901 10.9481ZM0.487393 10.1305C1.04422 10.6624 1.77748 10.8373 2.1901 10.9481L2.70909 9.01665C2.19003 8.87717 1.99176 8.8017 1.86891 8.68434L0.487393 10.1305ZM2.01302 5.05877C1.57331 5.54322 0.954787 6.36644 0.527295 7.18209C0.316274 7.58471 0.11808 8.04828 0.0381287 8.50375C-0.0370954 8.93229 -0.0474178 9.61961 0.487393 10.1305L1.86891 8.68434C2.05896 8.86589 1.9751 9.03702 2.00801 8.84953C2.03619 8.68897 2.12781 8.43664 2.29874 8.11052C2.63514 7.46868 3.14904 6.78296 3.49396 6.40295L2.01302 5.05877ZM6.04842 3C4.23555 3 2.8608 4.12473 2.01302 5.05877L3.49396 6.40295C4.21544 5.60807 5.08954 5 6.04842 5V3ZM9.1643 4.21311C8.59809 3.65163 8.01491 3.33391 7.44461 3.16722C6.89025 3.00519 6.38985 3 6.04842 3V5C6.36598 5 6.62166 5.01036 6.88352 5.0869C7.12946 5.15878 7.42266 5.30265 7.75604 5.63324L9.1643 4.21311ZM11.0009 7.75461C10.9208 6.25561 10.146 5.18662 9.1643 4.21311L7.75604 5.63324C8.5978 6.46797 8.96264 7.09229 9.00377 7.8614L11.0009 7.75461ZM5 9V11C6.10457 11 7 10.1046 7 9H5ZM5 9H7C7 7.89543 6.10457 7 5 7V9ZM5 9V7C3.89543 7 3 7.89543 3 9H5ZM5 9H3C3 10.1046 3.89543 11 5 11V9Z" fill="white" fill-opacity="0.33" mask="url(#path-10-inside-2_408_8135)"/>
<circle cx="2" cy="8" r="0.5" fill="#F58582" stroke="url(#paint10_linear_408_8135)"/>
<circle cx="4" cy="7" r="0.5" fill="#FFC06D" stroke="url(#paint11_linear_408_8135)"/>
<circle cx="6" cy="6" r="0.5" fill="#FFE26D" stroke="url(#paint12_linear_408_8135)"/>
<circle cx="8" cy="7" r="0.5" fill="#98C861" stroke="#7BB83C"/>
<circle cx="8" cy="9" r="0.5" fill="#5BB6C5" stroke="#2798AD"/>
</g>
<defs>
<linearGradient id="paint0_linear_408_8135" x1="8.06834" y1="1.48125" x2="6.84816" y2="15.428" gradientUnits="userSpaceOnUse">
<stop stop-color="#E2EFFC"/>
<stop offset="1" stop-color="#BFDCFA"/>
</linearGradient>
<linearGradient id="paint1_linear_408_8135" x1="8.06834" y1="1.48125" x2="6.84816" y2="15.428" gradientUnits="userSpaceOnUse">
<stop stop-color="#77B7E8"/>
<stop offset="1" stop-color="#315A90"/>
</linearGradient>
<linearGradient id="paint2_linear_408_8135" x1="1.04529" y1="12.9127" x2="12.0034" y2="13.8714" gradientUnits="userSpaceOnUse">
<stop stop-color="white"/>
<stop offset="1" stop-color="#EAF3FE"/>
</linearGradient>
<linearGradient id="paint3_linear_408_8135" x1="1.04529" y1="12.9127" x2="12.0034" y2="13.8714" gradientUnits="userSpaceOnUse">
<stop stop-color="white"/>
<stop offset="1" stop-color="#EAF3FE"/>
</linearGradient>
<linearGradient id="paint4_linear_408_8135" x1="6.56941" y1="11.3883" x2="6.4794" y2="15.3957" gradientUnits="userSpaceOnUse">
<stop offset="0.208648" stop-color="#578ED3"/>
<stop offset="1" stop-color="#345E93"/>
</linearGradient>
<linearGradient id="paint5_linear_408_8135" x1="13.5474" y1="1.96059" x2="13.2859" y2="4.94918" gradientUnits="userSpaceOnUse">
<stop stop-color="#78B8E9"/>
<stop offset="1" stop-color="#5A8FCB"/>
</linearGradient>
<linearGradient id="paint6_linear_408_8135" x1="13.5474" y1="1.96059" x2="13.2859" y2="4.94918" gradientUnits="userSpaceOnUse">
<stop stop-color="#78B8E9"/>
<stop offset="1" stop-color="#5A8FCB"/>
</linearGradient>
<linearGradient id="paint7_linear_408_8135" x1="13.5474" y1="1.96059" x2="13.2859" y2="4.94918" gradientUnits="userSpaceOnUse">
<stop stop-color="#78B8E9"/>
<stop offset="1" stop-color="#5A8FCB"/>
</linearGradient>
<linearGradient id="paint8_linear_408_8135" x1="5.50343" y1="4" x2="5.50343" y2="13.0002" gradientUnits="userSpaceOnUse">
<stop stop-color="#E8B180"/>
<stop offset="1" stop-color="#DF9259"/>
</linearGradient>
<linearGradient id="paint9_linear_408_8135" x1="5.50343" y1="4" x2="5.50343" y2="13.0002" gradientUnits="userSpaceOnUse">
<stop stop-color="#D0905C" stop-opacity="0.823529"/>
<stop offset="1" stop-color="#9F641D"/>
</linearGradient>
<linearGradient id="paint10_linear_408_8135" x1="3" y1="8" x2="1" y2="8" gradientUnits="userSpaceOnUse">
<stop stop-color="#F04141"/>
<stop offset="1" stop-color="#F6756F"/>
</linearGradient>
<linearGradient id="paint11_linear_408_8135" x1="5" y1="7" x2="3" y2="7" gradientUnits="userSpaceOnUse">
<stop stop-color="#FEA733"/>
<stop offset="1" stop-color="#FFA42C"/>
</linearGradient>
<linearGradient id="paint12_linear_408_8135" x1="6" y1="5" x2="6" y2="7" gradientUnits="userSpaceOnUse">
<stop stop-color="#FFD52B"/>
<stop offset="1" stop-color="#FBCE3B"/>
</linearGradient>
<clipPath id="clip0_408_8135">
<rect width="16" height="16" fill="white"/>
</clipPath>
<clipPath id="clip1_408_8135">
<rect width="16" height="16" fill="white"/>
</clipPath>
<clipPath id="clip2_408_8135">
<rect width="16" height="16" fill="white"/>
</clipPath>
</defs>
</svg>
