<svg width="16" height="16" viewBox="0 0 16 16" fill="none" xmlns="http://www.w3.org/2000/svg">
<mask id="path-1-outside-1_188_3413" maskUnits="userSpaceOnUse" x="2" y="1" width="11" height="14" fill="black">
<rect fill="white" x="2" y="1" width="11" height="14"/>
<path fill-rule="evenodd" clip-rule="evenodd" d="M6 2L3 5V12L6 14H12V2H6Z"/>
</mask>
<path d="M3 5L2.29289 4.29289C2.10536 4.48043 2 4.73478 2 5H3ZM6 2V1C5.73478 1 5.48043 1.10536 5.29289 1.29289L6 2ZM3 12H2C2 12.3344 2.1671 12.6466 2.4453 12.8321L3 12ZM6 14L5.4453 14.8321C5.60957 14.9416 5.80258 15 6 15V14ZM12 14V15C12.5523 15 13 14.5523 13 14H12ZM12 2H13C13 1.44772 12.5523 1 12 1V2ZM3.70711 5.70711L6.70711 2.70711L5.29289 1.29289L2.29289 4.29289L3.70711 5.70711ZM4 12V5H2V12H4ZM6.5547 13.1679L3.5547 11.1679L2.4453 12.8321L5.4453 14.8321L6.5547 13.1679ZM12 13H6V15H12V13ZM11 2V14H13V2H11ZM6 3H12V1H6V3Z" fill="url(#paint0_linear_188_3413)" mask="url(#path-1-outside-1_188_3413)"/>
<path d="M3 5L6 2V14L3 12V5Z" fill="url(#paint1_linear_188_3413)"/>
<rect x="6" y="2" width="6" height="12" fill="url(#paint2_linear_188_3413)"/>
<mask id="path-5-inside-2_188_3413" fill="white">
<path fill-rule="evenodd" clip-rule="evenodd" d="M6 2L3 5V12L6 14H12V2H6Z"/>
</mask>
<path d="M3 5L2.29289 4.29289C2.10536 4.48043 2 4.73478 2 5H3ZM6 2V1C5.73478 1 5.48043 1.10536 5.29289 1.29289L6 2ZM3 12H2C2 12.3344 2.1671 12.6466 2.4453 12.8321L3 12ZM6 14L5.4453 14.8321C5.60957 14.9416 5.80258 15 6 15V14ZM12 14V15C12.5523 15 13 14.5523 13 14H12ZM12 2H13C13 1.44772 12.5523 1 12 1V2ZM3.70711 5.70711L6.70711 2.70711L5.29289 1.29289L2.29289 4.29289L3.70711 5.70711ZM4 12V5H2V12H4ZM6.5547 13.1679L3.5547 11.1679L2.4453 12.8321L5.4453 14.8321L6.5547 13.1679ZM12 13H6V15H12V13ZM11 2V14H13V2H11ZM6 3H12V1H6V3Z" fill="white" style="mix-blend-mode:soft-light" mask="url(#path-5-inside-2_188_3413)"/>
<rect x="7" y="4" width="4" height="1" rx="0.5" fill="black" fill-opacity="0.33"/>
<rect x="7" y="6" width="4" height="1" rx="0.5" fill="black" fill-opacity="0.33"/>
<circle cx="10" cy="9" r="1" fill="url(#paint3_linear_188_3413)"/>
<defs>
<linearGradient id="paint0_linear_188_3413" x1="6" y1="2" x2="12" y2="14" gradientUnits="userSpaceOnUse">
<stop stop-color="#CACACA"/>
<stop offset="1" stop-color="#636363"/>
</linearGradient>
<linearGradient id="paint1_linear_188_3413" x1="3" y1="3" x2="6" y2="12.5" gradientUnits="userSpaceOnUse">
<stop stop-color="#E1E1E1"/>
<stop offset="1" stop-color="#D2D2D4"/>
</linearGradient>
<linearGradient id="paint2_linear_188_3413" x1="9" y1="2" x2="9" y2="14" gradientUnits="userSpaceOnUse">
<stop stop-color="#C9CACF"/>
<stop offset="1" stop-color="#AEAFB7"/>
</linearGradient>
<linearGradient id="paint3_linear_188_3413" x1="9" y1="8" x2="11" y2="10" gradientUnits="userSpaceOnUse">
<stop stop-color="#A4C8A0"/>
<stop offset="1" stop-color="#42A13B"/>
</linearGradient>
</defs>
</svg>
