<svg width="16" height="16" viewBox="0 0 16 16" fill="none" xmlns="http://www.w3.org/2000/svg">
<mask id="path-1-outside-1_188_3595" maskUnits="userSpaceOnUse" x="1" y="1" width="11" height="14" fill="black">
<rect fill="white" x="1" y="1" width="11" height="14"/>
<path fill-rule="evenodd" clip-rule="evenodd" d="M5 2L2 5V12L5 14H11V2H5Z"/>
</mask>
<path d="M2 5L1.29289 4.29289C1.10536 4.48043 1 4.73478 1 5H2ZM5 2V1C4.73478 1 4.48043 1.10536 4.29289 1.29289L5 2ZM2 12H1C1 12.3344 1.1671 12.6466 1.4453 12.8321L2 12ZM5 14L4.4453 14.8321C4.60957 14.9416 4.80258 15 5 15V14ZM11 14V15C11.5523 15 12 14.5523 12 14H11ZM11 2H12C12 1.44772 11.5523 1 11 1V2ZM2.70711 5.70711L5.70711 2.70711L4.29289 1.29289L1.29289 4.29289L2.70711 5.70711ZM3 12V5H1V12H3ZM5.5547 13.1679L2.5547 11.1679L1.4453 12.8321L4.4453 14.8321L5.5547 13.1679ZM11 13H5V15H11V13ZM10 2V14H12V2H10ZM5 3H11V1H5V3Z" fill="url(#paint0_linear_188_3595)" mask="url(#path-1-outside-1_188_3595)"/>
<path d="M2 5L5 2V14L2 12V5Z" fill="url(#paint1_linear_188_3595)"/>
<rect x="5" y="2" width="6" height="12" fill="url(#paint2_linear_188_3595)"/>
<mask id="path-5-inside-2_188_3595" fill="white">
<path fill-rule="evenodd" clip-rule="evenodd" d="M5 2L2 5V12L5 14H11V2H5Z"/>
</mask>
<path d="M2 5L1.29289 4.29289C1.10536 4.48043 1 4.73478 1 5H2ZM5 2V1C4.73478 1 4.48043 1.10536 4.29289 1.29289L5 2ZM2 12H1C1 12.3344 1.1671 12.6466 1.4453 12.8321L2 12ZM5 14L4.4453 14.8321C4.60957 14.9416 4.80258 15 5 15V14ZM11 14V15C11.5523 15 12 14.5523 12 14H11ZM11 2H12C12 1.44772 11.5523 1 11 1V2ZM2.70711 5.70711L5.70711 2.70711L4.29289 1.29289L1.29289 4.29289L2.70711 5.70711ZM3 12V5H1V12H3ZM5.5547 13.1679L2.5547 11.1679L1.4453 12.8321L4.4453 14.8321L5.5547 13.1679ZM11 13H5V15H11V13ZM10 2V14H12V2H10ZM5 3H11V1H5V3Z" fill="white" style="mix-blend-mode:soft-light" mask="url(#path-5-inside-2_188_3595)"/>
<rect x="6" y="4" width="4" height="1" rx="0.5" fill="black" fill-opacity="0.33"/>
<rect x="6" y="6" width="4" height="1" rx="0.5" fill="black" fill-opacity="0.33"/>
<circle cx="9" cy="9" r="1" fill="url(#paint3_linear_188_3595)"/>
<g filter="url(#filter0_i_188_3595)">
<path d="M10 9H6V14H10V16H11L16 11.5L11 7H10V9Z" fill="#80B361"/>
</g>
<path d="M10 9.5C10.2761 9.5 10.5 9.27614 10.5 9V7.5H10.8081L15.2526 11.5L10.8081 15.5H10.5V14C10.5 13.7239 10.2761 13.5 10 13.5H6.5V9.5H10Z" stroke="url(#paint4_linear_188_3595)" stroke-linejoin="round"/>
<path d="M7.5 12.5V10.5H10C10.7149 10.5 11.2659 10.0257 11.4412 9.41686L13.7531 11.5L11.4413 13.5831C11.263 12.9643 10.6975 12.5 10.0049 12.5H7.5Z" stroke="white" stroke-opacity="0.2" stroke-linejoin="round"/>
<defs>
<filter id="filter0_i_188_3595" x="6" y="7" width="12" height="11" filterUnits="userSpaceOnUse" color-interpolation-filters="sRGB">
<feFlood flood-opacity="0" result="BackgroundImageFix"/>
<feBlend mode="normal" in="SourceGraphic" in2="BackgroundImageFix" result="shape"/>
<feColorMatrix in="SourceAlpha" type="matrix" values="0 0 0 0 0 0 0 0 0 0 0 0 0 0 0 0 0 0 127 0" result="hardAlpha"/>
<feOffset dx="2" dy="2"/>
<feGaussianBlur stdDeviation="1"/>
<feComposite in2="hardAlpha" operator="arithmetic" k2="-1" k3="1"/>
<feColorMatrix type="matrix" values="0 0 0 0 1 0 0 0 0 1 0 0 0 0 1 0 0 0 0.25 0"/>
<feBlend mode="normal" in2="shape" result="effect1_innerShadow_188_3595"/>
</filter>
<linearGradient id="paint0_linear_188_3595" x1="5" y1="2" x2="11" y2="14" gradientUnits="userSpaceOnUse">
<stop stop-color="#CACACA"/>
<stop offset="1" stop-color="#636363"/>
</linearGradient>
<linearGradient id="paint1_linear_188_3595" x1="2" y1="3" x2="5" y2="12.5" gradientUnits="userSpaceOnUse">
<stop stop-color="#E1E1E1"/>
<stop offset="1" stop-color="#D2D2D4"/>
</linearGradient>
<linearGradient id="paint2_linear_188_3595" x1="8" y1="2" x2="8" y2="14" gradientUnits="userSpaceOnUse">
<stop stop-color="#C9CACF"/>
<stop offset="1" stop-color="#AEAFB7"/>
</linearGradient>
<linearGradient id="paint3_linear_188_3595" x1="8" y1="8" x2="10" y2="10" gradientUnits="userSpaceOnUse">
<stop stop-color="#A4C8A0"/>
<stop offset="1" stop-color="#42A13B"/>
</linearGradient>
<linearGradient id="paint4_linear_188_3595" x1="14.5714" y1="14.7143" x2="8.17837" y2="7.61089" gradientUnits="userSpaceOnUse">
<stop stop-color="#247C10"/>
<stop offset="1" stop-color="#6FA53D"/>
</linearGradient>
</defs>
</svg>
