<svg width="16" height="16" viewBox="0 0 16 16" fill="none" xmlns="http://www.w3.org/2000/svg">
<mask id="path-1-outside-1_188_3632" maskUnits="userSpaceOnUse" x="5" y="1" width="11" height="14" fill="black">
<rect fill="white" x="5" y="1" width="11" height="14"/>
<path fill-rule="evenodd" clip-rule="evenodd" d="M9 2L6 5V12L9 14H15V2H9Z"/>
</mask>
<path d="M6 5L5.29289 4.29289C5.10536 4.48043 5 4.73478 5 5H6ZM9 2V1C8.73478 1 8.48043 1.10536 8.29289 1.29289L9 2ZM6 12H5C5 12.3344 5.1671 12.6466 5.4453 12.8321L6 12ZM9 14L8.4453 14.8321C8.60957 14.9416 8.80258 15 9 15V14ZM15 14V15C15.5523 15 16 14.5523 16 14H15ZM15 2H16C16 1.44772 15.5523 1 15 1V2ZM6.70711 5.70711L9.70711 2.70711L8.29289 1.29289L5.29289 4.29289L6.70711 5.70711ZM7 12V5H5V12H7ZM9.5547 13.1679L6.5547 11.1679L5.4453 12.8321L8.4453 14.8321L9.5547 13.1679ZM15 13H9V15H15V13ZM14 2V14H16V2H14ZM9 3H15V1H9V3Z" fill="url(#paint0_linear_188_3632)" mask="url(#path-1-outside-1_188_3632)"/>
<path d="M6 5L9 2V14L6 12V5Z" fill="url(#paint1_linear_188_3632)"/>
<rect x="9" y="2" width="6" height="12" fill="url(#paint2_linear_188_3632)"/>
<mask id="path-5-inside-2_188_3632" fill="white">
<path fill-rule="evenodd" clip-rule="evenodd" d="M9 2L6 5V12L9 14H15V2H9Z"/>
</mask>
<path d="M6 5L5.29289 4.29289C5.10536 4.48043 5 4.73478 5 5H6ZM9 2V1C8.73478 1 8.48043 1.10536 8.29289 1.29289L9 2ZM6 12H5C5 12.3344 5.1671 12.6466 5.4453 12.8321L6 12ZM9 14L8.4453 14.8321C8.60957 14.9416 8.80258 15 9 15V14ZM15 14V15C15.5523 15 16 14.5523 16 14H15ZM15 2H16C16 1.44772 15.5523 1 15 1V2ZM6.70711 5.70711L9.70711 2.70711L8.29289 1.29289L5.29289 4.29289L6.70711 5.70711ZM7 12V5H5V12H7ZM9.5547 13.1679L6.5547 11.1679L5.4453 12.8321L8.4453 14.8321L9.5547 13.1679ZM15 13H9V15H15V13ZM14 2V14H16V2H14ZM9 3H15V1H9V3Z" fill="white" style="mix-blend-mode:soft-light" mask="url(#path-5-inside-2_188_3632)"/>
<rect x="10" y="4" width="4" height="1" rx="0.5" fill="black" fill-opacity="0.33"/>
<rect x="10" y="6" width="4" height="1" rx="0.5" fill="black" fill-opacity="0.33"/>
<circle cx="13" cy="9" r="1" fill="url(#paint3_linear_188_3632)"/>
<path d="M9 7.5H7V7.15139L8.91603 4.27735L9.43426 3.5H8.5H4.5H4.19098L4.05279 3.77639L1.55279 8.77639L1.19098 9.5H2H4.85961L4.51493 10.8787L4.17337 12.245L5.3 11.4L9.3 8.4L10.5 7.5H9Z" fill="url(#paint4_linear_188_3632)" stroke="url(#paint5_linear_188_3632)"/>
<path d="M5.98507 9.12127L6.14039 8.5H6.5H7.5L5.82663 9.75503L5.98507 9.12127ZM5.5 8.5H2.80902L4.80902 4.5H7.56574L6.08397 6.72265L6 6.84861V7V8V8.5H5.5Z" stroke="url(#paint6_linear_188_3632)"/>
<defs>
<linearGradient id="paint0_linear_188_3632" x1="9" y1="2" x2="15" y2="14" gradientUnits="userSpaceOnUse">
<stop stop-color="#CACACA"/>
<stop offset="1" stop-color="#636363"/>
</linearGradient>
<linearGradient id="paint1_linear_188_3632" x1="6" y1="3" x2="9" y2="12.5" gradientUnits="userSpaceOnUse">
<stop stop-color="#E1E1E1"/>
<stop offset="1" stop-color="#D2D2D4"/>
</linearGradient>
<linearGradient id="paint2_linear_188_3632" x1="12" y1="2" x2="12" y2="14" gradientUnits="userSpaceOnUse">
<stop stop-color="#C9CACF"/>
<stop offset="1" stop-color="#AEAFB7"/>
</linearGradient>
<linearGradient id="paint3_linear_188_3632" x1="12" y1="8" x2="14" y2="10" gradientUnits="userSpaceOnUse">
<stop stop-color="#A4C8A0"/>
<stop offset="1" stop-color="#42A13B"/>
</linearGradient>
<linearGradient id="paint4_linear_188_3632" x1="0.103446" y1="3" x2="9.85338" y2="13.9305" gradientUnits="userSpaceOnUse">
<stop stop-color="#F4D848"/>
<stop offset="1" stop-color="#EBB62F"/>
</linearGradient>
<linearGradient id="paint5_linear_188_3632" x1="2" y1="4.18626" x2="8.68267" y2="11" gradientUnits="userSpaceOnUse">
<stop stop-color="#ECD45D"/>
<stop offset="1" stop-color="#D79D22"/>
</linearGradient>
<linearGradient id="paint6_linear_188_3632" x1="2.00351" y1="4" x2="8.99649" y2="11" gradientUnits="userSpaceOnUse">
<stop offset="0.366222" stop-color="#F8E690"/>
<stop offset="0.68369" stop-color="#F0D07D"/>
</linearGradient>
</defs>
</svg>
