<svg width="16" height="16" viewBox="0 0 16 16" fill="none" xmlns="http://www.w3.org/2000/svg">
<mask id="path-1-outside-1_188_3576" maskUnits="userSpaceOnUse" x="1" y="1" width="11" height="14" fill="black">
<rect fill="white" x="1" y="1" width="11" height="14"/>
<path fill-rule="evenodd" clip-rule="evenodd" d="M5 2L2 5V12L5 14H11V2H5Z"/>
</mask>
<path d="M2 5L1.29289 4.29289C1.10536 4.48043 1 4.73478 1 5H2ZM5 2V1C4.73478 1 4.48043 1.10536 4.29289 1.29289L5 2ZM2 12H1C1 12.3344 1.1671 12.6466 1.4453 12.8321L2 12ZM5 14L4.4453 14.8321C4.60957 14.9416 4.80258 15 5 15V14ZM11 14V15C11.5523 15 12 14.5523 12 14H11ZM11 2H12C12 1.44772 11.5523 1 11 1V2ZM2.70711 5.70711L5.70711 2.70711L4.29289 1.29289L1.29289 4.29289L2.70711 5.70711ZM3 12V5H1V12H3ZM5.5547 13.1679L2.5547 11.1679L1.4453 12.8321L4.4453 14.8321L5.5547 13.1679ZM11 13H5V15H11V13ZM10 2V14H12V2H10ZM5 3H11V1H5V3Z" fill="url(#paint0_linear_188_3576)" mask="url(#path-1-outside-1_188_3576)"/>
<path d="M2 5L5 2V14L2 12V5Z" fill="url(#paint1_linear_188_3576)"/>
<rect x="5" y="2" width="6" height="12" fill="url(#paint2_linear_188_3576)"/>
<mask id="path-5-inside-2_188_3576" fill="white">
<path fill-rule="evenodd" clip-rule="evenodd" d="M5 2L2 5V12L5 14H11V2H5Z"/>
</mask>
<path d="M2 5L1.29289 4.29289C1.10536 4.48043 1 4.73478 1 5H2ZM5 2V1C4.73478 1 4.48043 1.10536 4.29289 1.29289L5 2ZM2 12H1C1 12.3344 1.1671 12.6466 1.4453 12.8321L2 12ZM5 14L4.4453 14.8321C4.60957 14.9416 4.80258 15 5 15V14ZM11 14V15C11.5523 15 12 14.5523 12 14H11ZM11 2H12C12 1.44772 11.5523 1 11 1V2ZM2.70711 5.70711L5.70711 2.70711L4.29289 1.29289L1.29289 4.29289L2.70711 5.70711ZM3 12V5H1V12H3ZM5.5547 13.1679L2.5547 11.1679L1.4453 12.8321L4.4453 14.8321L5.5547 13.1679ZM11 13H5V15H11V13ZM10 2V14H12V2H10ZM5 3H11V1H5V3Z" fill="white" style="mix-blend-mode:soft-light" mask="url(#path-5-inside-2_188_3576)"/>
<rect x="6" y="4" width="4" height="1" rx="0.5" fill="black" fill-opacity="0.33"/>
<rect x="6" y="6" width="4" height="1" rx="0.5" fill="black" fill-opacity="0.33"/>
<circle cx="9" cy="9" r="1" fill="url(#paint3_linear_188_3576)"/>
<path d="M15 15.5C15.1776 15.5 15.3419 15.4058 15.4316 15.2524C15.5213 15.0991 15.5229 14.9097 15.4358 14.7549L10.9358 6.75487C10.8472 6.59743 10.6806 6.5 10.5 6.5C10.3194 6.5 10.1528 6.59743 10.0642 6.75487L5.56421 14.7549C5.47713 14.9097 5.47872 15.0991 5.5684 15.2524C5.65807 15.4058 5.82237 15.5 6 15.5H15Z" fill="#F5DA58" stroke="url(#paint4_linear_188_3576)" stroke-linejoin="round"/>
<path d="M10.5 8.01986L14.1451 14.5H6.85492L10.5 8.01986Z" stroke="white" stroke-opacity="0.66" stroke-linejoin="round"/>
<path d="M10.5 10V12M10.5 13V14" stroke="#C28731" stroke-linejoin="round"/>
<defs>
<linearGradient id="paint0_linear_188_3576" x1="5" y1="2" x2="11" y2="14" gradientUnits="userSpaceOnUse">
<stop stop-color="#CACACA"/>
<stop offset="1" stop-color="#636363"/>
</linearGradient>
<linearGradient id="paint1_linear_188_3576" x1="2" y1="3" x2="5" y2="12.5" gradientUnits="userSpaceOnUse">
<stop stop-color="#E1E1E1"/>
<stop offset="1" stop-color="#D2D2D4"/>
</linearGradient>
<linearGradient id="paint2_linear_188_3576" x1="8" y1="2" x2="8" y2="14" gradientUnits="userSpaceOnUse">
<stop stop-color="#C9CACF"/>
<stop offset="1" stop-color="#AEAFB7"/>
</linearGradient>
<linearGradient id="paint3_linear_188_3576" x1="8" y1="8" x2="10" y2="10" gradientUnits="userSpaceOnUse">
<stop stop-color="#A4C8A0"/>
<stop offset="1" stop-color="#42A13B"/>
</linearGradient>
<linearGradient id="paint4_linear_188_3576" x1="10.5" y1="7" x2="10.5" y2="15" gradientUnits="userSpaceOnUse">
<stop stop-color="#E1B129"/>
<stop offset="1" stop-color="#BF7C2B"/>
</linearGradient>
</defs>
</svg>
