<svg width="16" height="16" viewBox="0 0 16 16" fill="none" xmlns="http://www.w3.org/2000/svg">
<mask id="path-1-outside-1_290_6475" maskUnits="userSpaceOnUse" x="0" y="1" width="11" height="14" fill="black">
<rect fill="white" y="1" width="11" height="14"/>
<path fill-rule="evenodd" clip-rule="evenodd" d="M4 2L1 5V12L4 14H10V2H4Z"/>
</mask>
<path d="M1 5L0.292893 4.29289C0.105357 4.48043 0 4.73478 0 5H1ZM4 2V1C3.73478 1 3.48043 1.10536 3.29289 1.29289L4 2ZM1 12H0C0 12.3344 0.167101 12.6466 0.4453 12.8321L1 12ZM4 14L3.4453 14.8321C3.60957 14.9416 3.80258 15 4 15V14ZM10 14V15C10.5523 15 11 14.5523 11 14H10ZM10 2H11C11 1.44772 10.5523 1 10 1V2ZM1.70711 5.70711L4.70711 2.70711L3.29289 1.29289L0.292893 4.29289L1.70711 5.70711ZM2 12V5H0V12H2ZM4.5547 13.1679L1.5547 11.1679L0.4453 12.8321L3.4453 14.8321L4.5547 13.1679ZM10 13H4V15H10V13ZM9 2V14H11V2H9ZM4 3H10V1H4V3Z" fill="url(#paint0_linear_290_6475)" mask="url(#path-1-outside-1_290_6475)"/>
<path d="M1 5L4 2V14L1 12V5Z" fill="url(#paint1_linear_290_6475)"/>
<rect x="4" y="2" width="6" height="12" fill="url(#paint2_linear_290_6475)"/>
<mask id="path-5-inside-2_290_6475" fill="white">
<path fill-rule="evenodd" clip-rule="evenodd" d="M4 2L1 5V12L4 14H10V2H4Z"/>
</mask>
<path d="M1 5L0.292893 4.29289C0.105357 4.48043 0 4.73478 0 5H1ZM4 2V1C3.73478 1 3.48043 1.10536 3.29289 1.29289L4 2ZM1 12H0C0 12.3344 0.167101 12.6466 0.4453 12.8321L1 12ZM4 14L3.4453 14.8321C3.60957 14.9416 3.80258 15 4 15V14ZM10 14V15C10.5523 15 11 14.5523 11 14H10ZM10 2H11C11 1.44772 10.5523 1 10 1V2ZM1.70711 5.70711L4.70711 2.70711L3.29289 1.29289L0.292893 4.29289L1.70711 5.70711ZM2 12V5H0V12H2ZM4.5547 13.1679L1.5547 11.1679L0.4453 12.8321L3.4453 14.8321L4.5547 13.1679ZM10 13H4V15H10V13ZM9 2V14H11V2H9ZM4 3H10V1H4V3Z" fill="white" style="mix-blend-mode:soft-light" mask="url(#path-5-inside-2_290_6475)"/>
<rect x="5" y="4" width="4" height="1" rx="0.5" fill="black" fill-opacity="0.33"/>
<rect x="5" y="6" width="4" height="1" rx="0.5" fill="black" fill-opacity="0.33"/>
<circle cx="8" cy="9" r="1" fill="url(#paint3_linear_290_6475)"/>
<rect x="13.5" y="10.5" width="2" height="5" rx="0.5" fill="url(#paint4_linear_290_6475)" stroke="url(#paint5_linear_290_6475)"/>
<rect x="10.5" y="8.5" width="2" height="7" rx="0.5" fill="url(#paint6_linear_290_6475)" stroke="url(#paint7_linear_290_6475)"/>
<rect x="7.5" y="9.5" width="2" height="6" rx="0.5" fill="url(#paint8_linear_290_6475)" stroke="url(#paint9_linear_290_6475)"/>
<defs>
<linearGradient id="paint0_linear_290_6475" x1="4" y1="2" x2="10" y2="14" gradientUnits="userSpaceOnUse">
<stop stop-color="#CACACA"/>
<stop offset="1" stop-color="#636363"/>
</linearGradient>
<linearGradient id="paint1_linear_290_6475" x1="1" y1="3" x2="4" y2="12.5" gradientUnits="userSpaceOnUse">
<stop stop-color="#E1E1E1"/>
<stop offset="1" stop-color="#D2D2D4"/>
</linearGradient>
<linearGradient id="paint2_linear_290_6475" x1="7" y1="2" x2="7" y2="14" gradientUnits="userSpaceOnUse">
<stop stop-color="#C9CACF"/>
<stop offset="1" stop-color="#AEAFB7"/>
</linearGradient>
<linearGradient id="paint3_linear_290_6475" x1="7" y1="8" x2="9" y2="10" gradientUnits="userSpaceOnUse">
<stop stop-color="#A4C8A0"/>
<stop offset="1" stop-color="#42A13B"/>
</linearGradient>
<linearGradient id="paint4_linear_290_6475" x1="14.5" y1="10" x2="14.5" y2="16" gradientUnits="userSpaceOnUse">
<stop offset="2.48353e-09" stop-color="#64D65B"/>
<stop offset="1" stop-color="#52C34C"/>
</linearGradient>
<linearGradient id="paint5_linear_290_6475" x1="13" y1="10" x2="14.7837" y2="16.3421" gradientUnits="userSpaceOnUse">
<stop stop-color="#61D557" stop-opacity="0.984314"/>
<stop offset="1" stop-color="#38B234"/>
</linearGradient>
<linearGradient id="paint6_linear_290_6475" x1="11.5" y1="8" x2="11.5" y2="16" gradientUnits="userSpaceOnUse">
<stop offset="2.48353e-09" stop-color="#FEA483"/>
<stop offset="1" stop-color="#FC806F"/>
</linearGradient>
<linearGradient id="paint7_linear_290_6475" x1="10" y1="8" x2="13" y2="16" gradientUnits="userSpaceOnUse">
<stop stop-color="#FE9064"/>
<stop offset="1" stop-color="#FA4A3C" stop-opacity="0.968627"/>
</linearGradient>
<linearGradient id="paint8_linear_290_6475" x1="8.5" y1="9" x2="8.5" y2="16" gradientUnits="userSpaceOnUse">
<stop offset="2.48353e-09" stop-color="#85BEF6"/>
<stop offset="1" stop-color="#75A0F4"/>
</linearGradient>
<linearGradient id="paint9_linear_290_6475" x1="7" y1="9" x2="9.36522" y2="16.2083" gradientUnits="userSpaceOnUse">
<stop stop-color="#4A98EC"/>
<stop offset="1" stop-color="#3070E0"/>
</linearGradient>
</defs>
</svg>
