<svg width="16" height="16" viewBox="0 0 16 16" fill="none" xmlns="http://www.w3.org/2000/svg">
<g clip-path="url(#clip0_295_7568)">
<mask id="mask0_295_7568" style="mask-type:alpha" maskUnits="userSpaceOnUse" x="0" y="0" width="16" height="16">
<rect width="16" height="16" rx="2" fill="#F23737"/>
</mask>
<g mask="url(#mask0_295_7568)">
<path opacity="0.33" fill-rule="evenodd" clip-rule="evenodd" d="M-4.14647 6.85359L10.8535 -8.14641L10.1464 -8.85352L-4.85358 6.14648L-4.14647 6.85359ZM11.8535 -6.14641L-3.14647 8.85359L-3.85358 8.14648L11.1464 -6.85352L11.8535 -6.14641ZM-2.14647 10.8536L12.8535 -4.14641L12.1464 -4.85352L-2.85358 10.1465L-2.14647 10.8536ZM13.8535 -2.14641L-1.14647 12.8536L-1.85358 12.1465L13.1464 -2.85352L13.8535 -2.14641ZM-0.14647 14.8536L14.8535 -0.146409L14.1464 -0.853516L-0.853577 14.1465L-0.14647 14.8536ZM16.8535 0.853591L0.85353 16.8536L0.146423 16.1465L16.1464 0.146484L16.8535 0.853591ZM1.85353 18.8536L16.8535 3.85359L16.1464 3.14648L1.14642 18.1465L1.85353 18.8536ZM17.8535 5.85359L2.85353 20.8536L2.14642 20.1465L17.1464 5.14648L17.8535 5.85359ZM3.85353 22.8536L18.8535 7.85359L18.1464 7.14648L3.14642 22.1465L3.85353 22.8536ZM4.85353 24.8536L19.8535 9.85359L19.1464 9.14648L4.14642 24.1465L4.85353 24.8536Z" fill="url(#paint0_linear_295_7568)"/>
<path fill-rule="evenodd" clip-rule="evenodd" d="M-3.64647 7.35359L11.3535 -7.64641L10.6464 -8.35352L-4.35358 6.64648L-3.64647 7.35359ZM12.3535 -5.64641L-2.64647 9.35359L-3.35358 8.64648L11.6464 -6.35352L12.3535 -5.64641ZM-1.64647 11.3536L13.3535 -3.64641L12.6464 -4.35352L-2.35358 10.6465L-1.64647 11.3536ZM14.3535 -1.64641L-0.64647 13.3536L-1.35358 12.6465L13.6464 -2.35352L14.3535 -1.64641ZM0.35353 15.3536L15.3535 0.353591L14.6464 -0.353516L-0.353577 14.6465L0.35353 15.3536ZM16.8535 1.85359L1.35353 17.3536L0.646423 16.6465L16.1464 1.14648L16.8535 1.85359ZM2.35353 19.3536L17.3535 4.35359L16.6464 3.64648L1.64642 18.6465L2.35353 19.3536ZM18.3535 6.35359L3.35353 21.3536L2.64642 20.6465L17.6464 5.64648L18.3535 6.35359ZM4.35353 23.3536L19.3535 8.35359L18.6464 7.64648L3.64642 22.6465L4.35353 23.3536ZM5.35353 25.3536L20.3535 10.3536L19.6464 9.64648L4.64642 24.6465L5.35353 25.3536Z" fill="url(#paint1_linear_295_7568)"/>
</g>
</g>
<defs>
<linearGradient id="paint0_linear_295_7568" x1="1.34383e-07" y1="3.03832e-05" x2="16" y2="16" gradientUnits="userSpaceOnUse">
<stop stop-color="#82A9CF"/>
<stop offset="1" stop-color="#7BA4CD"/>
</linearGradient>
<linearGradient id="paint1_linear_295_7568" x1="3.06768e-07" y1="3.05469e-05" x2="16" y2="16" gradientUnits="userSpaceOnUse">
<stop stop-color="#82A9CF"/>
<stop offset="1" stop-color="#7BA4CD"/>
</linearGradient>
<clipPath id="clip0_295_7568">
<rect width="16" height="16" fill="white"/>
</clipPath>
</defs>
</svg>
