<svg width="16" height="16" viewBox="0 0 16 16" fill="none" xmlns="http://www.w3.org/2000/svg">
<path d="M3.33714 3.49034C3.28036 3.36003 3.20558 3.20413 3.11625 3.05525C3.01452 2.8857 2.8528 2.65358 2.62444 2.51657C2.49918 2.44141 2.32945 2.38046 2.13131 2.40247C1.93117 2.42471 1.76874 2.52415 1.64645 2.64645C1.52416 2.76874 1.42471 2.93117 1.40248 3.13131C1.38046 3.32945 1.44141 3.49917 1.51657 3.62444C1.65359 3.85279 1.88571 4.01452 2.05526 4.11625C2.20783 4.20779 2.36779 4.28406 2.50001 4.34132V9C2.50001 9.62631 2.73448 10.2193 3.0779 10.7602C3.42158 11.3015 3.89192 11.8184 4.40802 12.3023C5.23746 13.0799 6.23639 13.8173 7.10628 14.4595C7.31279 14.6119 7.51202 14.759 7.69999 14.9C7.87776 15.0333 8.12221 15.0333 8.29999 14.9C8.48799 14.759 8.68727 14.6119 8.89383 14.4594C9.76369 13.8172 10.7626 13.0798 11.592 12.3023C12.1081 11.8184 12.5784 11.3015 12.9221 10.7602C13.2655 10.2193 13.5 9.62632 13.5 9V4.34132C13.6322 4.28406 13.7922 4.20779 13.9448 4.11625C14.1143 4.01452 14.3464 3.85279 14.4834 3.62444C14.5586 3.49917 14.6196 3.32945 14.5975 3.13131C14.5753 2.93117 14.4759 2.76874 14.3536 2.64645C14.2313 2.52415 14.0688 2.42471 13.8687 2.40247C13.6706 2.38046 13.5008 2.44141 13.3756 2.51657C13.1472 2.65358 12.9855 2.8857 12.8838 3.05525C12.7944 3.20413 12.7197 3.36003 12.6629 3.49034C12.1422 3.45958 11.7459 3.35804 11.4256 3.22549C11.0371 3.06476 10.7366 2.84899 10.4373 2.60956C10.3776 2.56175 10.3173 2.5122 10.2559 2.46175C9.71312 2.01584 9.08527 1.5 7.99998 1.5C6.91469 1.5 6.28686 2.01584 5.74412 2.46176C5.68272 2.51221 5.62241 2.56176 5.56265 2.60957C5.26336 2.849 4.96289 3.06476 4.57445 3.22549C4.25414 3.35804 3.85778 3.45958 3.33714 3.49034Z" stroke="url(#paint0_linear_375_7050)" stroke-miterlimit="1.41421" stroke-linejoin="round"/>
<path d="M7.99999 14.5C5.99998 13 2.99998 11 2.99999 9L3 4C3 4 1.49999 3.5 1.99999 3C2.49999 2.5 3 4 3 4C6 4 6 2 7.99999 2C9.99999 2 9.99998 4 13 4C13 4 13.5 2.5 14 3C14.5 3.5 13 4 13 4V9C13 11 9.99998 13 7.99999 14.5Z" fill="url(#paint1_linear_375_7050)"/>
<path d="M7.99999 14.5C5.99998 13 2.99998 11 2.99999 9L3 4C3 4 1.49999 3.5 1.99999 3C2.49999 2.5 3 4 3 4C6 4 6 2 7.99999 2C9.99999 2 9.99998 4 13 4C13 4 13.5 2.5 14 3C14.5 3.5 13 4 13 4V9C13 11 9.99998 13 7.99999 14.5Z" fill="url(#paint2_linear_375_7050)"/>
<path d="M11.0432 4.14951C11.4508 4.31817 11.9249 4.43774 12.5 4.48157L12.5 9C12.5 9.37369 12.3595 9.78069 12.0779 10.2242C11.7966 10.6672 11.3919 11.1191 10.908 11.5727C10.1261 12.3058 9.18896 12.998 8.32179 13.6385C8.21329 13.7186 8.10588 13.7979 8.00002 13.8764C7.89416 13.7979 7.78678 13.7186 7.6783 13.6385C6.8111 12.998 5.87397 12.3059 5.09198 11.5727C4.60808 11.1191 4.20343 10.6673 3.92211 10.2242C3.64053 9.78069 3.50001 9.37369 3.50001 9L3.50001 4.48157C4.07511 4.43774 4.5492 4.31817 4.95681 4.14951C5.47462 3.93524 5.86164 3.65101 6.18735 3.39043C6.25217 3.33858 6.31409 3.28834 6.37378 3.2399C6.92374 2.79364 7.28562 2.5 8 2.5C8.71438 2.5 9.07626 2.79364 9.62622 3.2399C9.68592 3.28834 9.74784 3.33858 9.81266 3.39044C10.1384 3.65101 10.5254 3.93524 11.0432 4.14951Z" stroke="white" stroke-opacity="0.8" stroke-miterlimit="1.41421" stroke-linejoin="bevel"/>
<defs>
<linearGradient id="paint0_linear_375_7050" x1="1.89793" y1="2.13469" x2="14.102" y2="14.3653" gradientUnits="userSpaceOnUse">
<stop offset="0.0474476" stop-color="#EEC340"/>
<stop offset="0.799952" stop-color="#D5901E"/>
</linearGradient>
<linearGradient id="paint1_linear_375_7050" x1="7.99999" y1="2" x2="7.99999" y2="14.5" gradientUnits="userSpaceOnUse">
<stop stop-color="#FEFCF3"/>
<stop offset="0.32" stop-color="#FDF7E6"/>
<stop offset="0.4" stop-color="#FCF1A7"/>
<stop offset="1" stop-color="#FFFE6F"/>
</linearGradient>
<linearGradient id="paint2_linear_375_7050" x1="1.89795" y1="8.25" x2="14.102" y2="8.25" gradientUnits="userSpaceOnUse">
<stop stop-color="#F6DC7D"/>
<stop offset="0.341241" stop-color="#F6DD7B"/>
<stop offset="0.453908" stop-color="#F3D15E" stop-opacity="0"/>
<stop offset="0.54609" stop-color="#F3CF55" stop-opacity="0"/>
<stop offset="0.67" stop-color="#F2CC4A"/>
<stop offset="1" stop-color="#EFC338"/>
</linearGradient>
</defs>
</svg>
