<svg width="16" height="16" viewBox="0 0 16 16" fill="none" xmlns="http://www.w3.org/2000/svg">
<circle cx="8" cy="8" r="7.5" fill="url(#paint0_linear_465_8148)" stroke="url(#paint1_linear_465_8148)"/>
<mask id="mask0_465_8148" style="mask-type:alpha" maskUnits="userSpaceOnUse" x="1" y="1" width="14" height="14">
<circle cx="8" cy="8" r="7" fill="url(#paint2_linear_465_8148)"/>
</mask>
<g mask="url(#mask0_465_8148)">
<path fill-rule="evenodd" clip-rule="evenodd" d="M10.9472 0.276381C11.0707 0.52337 10.9706 0.823706 10.7236 0.947201C10.5521 1.03295 10 1.49768 10 2.49999C10 3.19962 10.1175 3.58742 10.291 3.84764C10.4669 4.1114 10.7449 4.31343 11.2236 4.55277C12.4165 5.1492 13 6.33833 13 7.49999C13 8.64564 12.4334 10.3119 10.7773 11.416C10.08 11.8809 8.9739 12.1408 7.88418 12.169C6.79117 12.1973 5.59261 11.996 4.72265 11.416C3.75927 10.7738 3.62706 9.79596 3.56397 8.97584C3.55637 8.87701 3.54958 8.78028 3.54294 8.68557C3.4908 7.94205 3.44735 7.32243 3.08397 6.77735C2.77424 6.31276 2.3204 6.07773 1.84572 5.97651C1.36251 5.87347 0.890129 5.91786 0.621264 5.98507C0.353367 6.05205 0.0818993 5.88917 0.014925 5.62127C-0.0520494 5.35337 0.110831 5.08191 0.378728 5.01493C0.77653 4.91548 1.40415 4.85987 2.05427 4.9985C2.71292 5.13894 3.42575 5.48725 3.91602 6.22265C4.43762 7.00504 4.49597 7.90863 4.5423 8.62597C4.54841 8.7205 4.5543 8.81179 4.56102 8.89915C4.62294 9.70402 4.74073 10.2262 5.27735 10.584C5.90738 11.004 6.87047 11.1949 7.85829 11.1693C8.8494 11.1437 9.74327 10.9035 10.2226 10.584C11.5665 9.68803 12 8.35433 12 7.49999C12 6.66165 11.5835 5.85078 10.7764 5.4472C10.2551 5.18654 9.78313 4.88858 9.45897 4.40234C9.13245 3.91255 9 3.30036 9 2.49999C9 1.10229 9.78123 0.300356 10.2764 0.0527739C10.5234 -0.0707208 10.8237 0.0293914 10.9472 0.276381Z" fill="white"/>
<path d="M10.9472 1.39441C11.4412 1.14743 11.6414 0.546753 11.3944 0.0527746C11.1474 -0.441205 10.5468 -0.641429 10.0528 -0.39444C9.39598 -0.0660357 8.5 0.904396 8.5 2.49999C8.5 3.35065 8.63987 4.07508 9.04295 4.67969C9.44119 5.27705 10.0099 5.62298 10.5528 5.89441C11.1677 6.20189 11.5 6.82411 11.5 7.49999C11.5 8.2084 11.1333 9.37593 9.9453 10.1679C9.57486 10.4149 8.78711 10.6451 7.84535 10.6695C6.9102 10.6937 6.06481 10.508 5.5547 10.1679C5.2314 9.95241 5.12087 9.65791 5.05955 8.8608C5.05311 8.77705 5.04741 8.68891 5.04126 8.59375C5.04052 8.58224 5.03977 8.57063 5.03902 8.55894C4.99389 7.85787 4.92836 6.83978 4.33205 5.9453C3.75136 5.07428 2.90886 4.66948 2.15854 4.50949C1.42494 4.35306 0.719708 4.4143 0.257461 4.52986C-0.278334 4.66381 -0.604095 5.20674 -0.470146 5.74254C-0.336198 6.27833 0.206737 6.60409 0.742531 6.47015C0.946897 6.41905 1.34167 6.38027 1.74145 6.46552C2.12365 6.54701 2.44827 6.72518 2.66795 7.0547C2.94523 7.47063 2.99011 7.94967 3.04417 8.72054L3.04422 8.72128C3.05083 8.81553 3.05771 8.91366 3.06544 9.01419C3.12911 9.84185 3.2685 11.0475 4.4453 11.832C5.43525 12.492 6.75158 12.6985 7.89712 12.6688C9.03612 12.6393 10.2484 12.3696 11.0547 11.832C12.8671 10.6238 13.5 8.79107 13.5 7.49999C13.5 6.17723 12.8334 4.79863 11.4472 4.10556C10.9895 3.87671 10.8086 3.72264 10.707 3.57029C10.6101 3.4248 10.5 3.14914 10.5 2.49999C10.5 2.09552 10.6101 1.82112 10.7201 1.64711C10.8256 1.48017 10.9297 1.40688 10.9455 1.39579C10.9473 1.39448 10.948 1.39404 10.9472 1.39441Z" stroke="#D49D17" stroke-opacity="0.33" stroke-linecap="round"/>
</g>
<circle cx="8" cy="8" r="6.5" stroke="white" stroke-opacity="0.33"/>
<defs>
<linearGradient id="paint0_linear_465_8148" x1="1" y1="1" x2="15" y2="15" gradientUnits="userSpaceOnUse">
<stop offset="0.284691" stop-color="#F7DC33"/>
<stop offset="0.800077" stop-color="#D7A31A"/>
</linearGradient>
<linearGradient id="paint1_linear_465_8148" x1="15" y1="15" x2="0.999999" y2="1" gradientUnits="userSpaceOnUse">
<stop offset="0.144116" stop-color="#B94F00" stop-opacity="0.952941"/>
<stop offset="0.851004" stop-color="#F9CE54" stop-opacity="0.960784"/>
</linearGradient>
<linearGradient id="paint2_linear_465_8148" x1="1" y1="1" x2="15" y2="15" gradientUnits="userSpaceOnUse">
<stop offset="0.284691" stop-color="#F7DC33"/>
<stop offset="0.800077" stop-color="#D7A31A"/>
</linearGradient>
</defs>
</svg>
