<svg width="16" height="16" viewBox="0 0 16 16" fill="none" xmlns="http://www.w3.org/2000/svg">
<mask id="mask0_465_8151" style="mask-type:alpha" maskUnits="userSpaceOnUse" x="6" y="1" width="10" height="9">
<path d="M12.8281 7.32812C11.0774 9.07889 8.2849 7.7537 8.2849 7.7537C8.2849 7.7537 6.9825 4.99599 8.71048 3.21047C10.4385 1.42495 12.435 1.96618 13.2537 2.78489C14.0724 3.60361 14.5789 5.57736 12.8281 7.32812Z" fill="#D9D9D9"/>
<path d="M8.2849 7.7537L7.83279 7.96722L7.9091 8.1288L8.07053 8.20541L8.2849 7.7537ZM8.2849 7.7537C8.07053 8.20541 8.07071 8.2055 8.0709 8.20559L8.07133 8.20579L8.07239 8.20629L8.07527 8.20764L8.08409 8.21172L8.11365 8.22507C8.13853 8.23613 8.17366 8.25135 8.2181 8.26962C8.30688 8.30615 8.43331 8.35509 8.58973 8.4075C8.90125 8.51187 9.33868 8.63236 9.83912 8.69373C10.8313 8.8154 12.1521 8.71121 13.1817 7.68168C15.1359 5.72743 14.6129 3.43699 13.6073 2.43134C12.6086 1.4327 10.2903 0.859052 8.35118 2.86275C7.33994 3.90767 7.23456 5.22286 7.35326 6.21127C7.41308 6.70935 7.53128 7.14347 7.63387 7.45246C7.68538 7.60759 7.73351 7.73286 7.76946 7.82084C7.78746 7.86488 7.80245 7.89969 7.81335 7.92437L7.82652 7.95371L7.83057 7.96248L7.83191 7.96536L7.83241 7.96642L7.83261 7.96685C7.8327 7.96704 7.83279 7.96722 8.2849 7.7537Z" stroke="black" stroke-opacity="0.33"/>
</mask>
<g mask="url(#mask0_465_8151)">
<path d="M7.00006 4L12.0001 9M7.50006 2.5L13.5001 8.5M8.50006 1.5L14.5001 7.5M10.0001 1L15.0001 6M13.0001 1L6.50006 7.5M15.0001 3L8.50006 9.5M14.0001 2L7.50006 8.5M11.0001 1L6.50006 5.5L10.5001 9.5L15.0001 5M12.0001 1L15.0001 4" stroke="#E2E2E2" stroke-opacity="0.733333" stroke-linecap="round" stroke-linejoin="round"/>
</g>
<path d="M4.77639 9.55279C4.72833 9.57682 4.68445 9.60845 4.64645 9.64645L2.14645 12.1464C1.67504 12.6179 1.67504 13.3821 2.14645 13.8536C2.61785 14.325 3.38215 14.325 3.85355 13.8536L6.35355 11.3536C6.39155 11.3156 6.42318 11.2717 6.44721 11.2236L7.44721 9.22361C7.54346 9.03111 7.50573 8.79863 7.35355 8.64645C7.20137 8.49427 6.96889 8.45654 6.77639 8.55279L4.77639 9.55279Z" fill="#F0F0F0" stroke="url(#paint0_linear_465_8151)" stroke-linejoin="round"/>
<path d="M13.887 8.38699C12.6824 9.5915 11.042 9.71098 9.61119 9.4835C8.90316 9.37093 8.27241 9.17657 7.81747 9.00935C7.59071 8.926 7.40944 8.85007 7.28621 8.79564C7.2761 8.79117 7.26639 8.78685 7.25707 8.78269C7.25329 8.77416 7.24936 8.76528 7.24533 8.75609C7.1919 8.6344 7.11735 8.45524 7.03552 8.23081C6.87136 7.78057 6.68053 7.15521 6.57028 6.45063C6.34769 5.02811 6.46541 3.38119 7.6581 2.14567C10.1248 -0.409631 13.0784 0.507324 14.305 1.73394C15.5238 2.95274 16.4002 5.87373 13.887 8.38699Z" stroke="url(#paint1_linear_465_8151)"/>
<mask id="mask1_465_8151" style="mask-type:alpha" maskUnits="userSpaceOnUse" x="3" y="5" width="8" height="8">
<rect x="6.42145" y="4.17877" width="7.63918" height="5.09508" rx="2" transform="rotate(45 6.42145 4.17877)" fill="#D9D9D9"/>
</mask>
<g mask="url(#mask1_465_8151)">
<path d="M4.77639 9.55279C4.72833 9.57682 4.68445 9.60845 4.64645 9.64645L1.64645 12.6464C1.45118 12.8417 1.45118 13.1583 1.64645 13.3536L2.64645 14.3536C2.84171 14.5488 3.15829 14.5488 3.35355 14.3536L6.35355 11.3536C6.39155 11.3156 6.42318 11.2717 6.44721 11.2236L7.44721 9.22361C7.54346 9.03111 7.50573 8.79863 7.35355 8.64645C7.20137 8.49427 6.96889 8.45654 6.77639 8.55279L4.77639 9.55279Z" fill="#6E9AD1" stroke="url(#paint2_linear_465_8151)" stroke-linejoin="round"/>
<path d="M13.887 8.38699C12.6824 9.5915 11.042 9.71098 9.61119 9.4835C8.90316 9.37093 8.27241 9.17657 7.81747 9.00935C7.59071 8.926 7.40944 8.85007 7.28621 8.79564C7.2761 8.79117 7.26639 8.78685 7.25707 8.78269C7.25329 8.77416 7.24936 8.76528 7.24533 8.75609C7.1919 8.6344 7.11735 8.45524 7.03552 8.23081C6.87136 7.78057 6.68053 7.15521 6.57028 6.45063C6.34769 5.02811 6.46541 3.38119 7.6581 2.14567C10.1248 -0.409631 13.0784 0.507324 14.305 1.73394C15.5238 2.95274 16.4002 5.87373 13.887 8.38699Z" stroke="url(#paint3_linear_465_8151)"/>
</g>
<defs>
<linearGradient id="paint0_linear_465_8151" x1="3" y1="10" x2="6" y2="13" gradientUnits="userSpaceOnUse">
<stop stop-color="#B4B4B4"/>
<stop offset="1" stop-color="#70767E" stop-opacity="0.996078"/>
</linearGradient>
<linearGradient id="paint1_linear_465_8151" x1="14.7446" y1="8.23671" x2="7.385" y2="1.82151" gradientUnits="userSpaceOnUse">
<stop stop-color="#777777"/>
<stop offset="1" stop-color="#C6C6C6"/>
</linearGradient>
<linearGradient id="paint2_linear_465_8151" x1="5.5" y1="12.5" x2="3.28082" y2="10.7833" gradientUnits="userSpaceOnUse">
<stop stop-color="#3161A2"/>
<stop offset="1" stop-color="#4C81BD"/>
</linearGradient>
<linearGradient id="paint3_linear_465_8151" x1="9.99969" y1="9.99972" x2="5.60043" y2="6.50064" gradientUnits="userSpaceOnUse">
<stop stop-color="#3161A2"/>
<stop offset="1" stop-color="#4C81BD"/>
</linearGradient>
</defs>
</svg>
