<svg width="16" height="16" viewBox="0 0 16 16" fill="none" xmlns="http://www.w3.org/2000/svg">
<circle cx="8" cy="8" r="7" fill="url(#paint0_linear_465_8154)"/>
<mask id="mask0_465_8154" style="mask-type:alpha" maskUnits="userSpaceOnUse" x="1" y="1" width="14" height="14">
<circle cx="8" cy="8" r="7" fill="url(#paint1_linear_465_8154)"/>
</mask>
<g mask="url(#mask0_465_8154)">
<path d="M1.5 4.5C5 9 8 11 13.5 12.5M4 2C4 7 9 8 15.5 8M1 8C3 8.5 5 11 5 14.5M3 13.5C3 8 7 3.5 13 3" stroke="#C76E2C" stroke-linecap="round"/>
</g>
<circle cx="8" cy="8" r="6.5" stroke="white" stroke-opacity="0.33"/>
<circle cx="8" cy="8" r="7.5" stroke="url(#paint2_linear_465_8154)"/>
<defs>
<linearGradient id="paint0_linear_465_8154" x1="1" y1="1" x2="15" y2="15" gradientUnits="userSpaceOnUse">
<stop offset="0.208524" stop-color="#F3DD8F"/>
<stop offset="0.800077" stop-color="#F8A635"/>
</linearGradient>
<linearGradient id="paint1_linear_465_8154" x1="1" y1="1" x2="15" y2="15" gradientUnits="userSpaceOnUse">
<stop offset="0.208524" stop-color="#F3DD8F"/>
<stop offset="0.800077" stop-color="#A79376"/>
</linearGradient>
<linearGradient id="paint2_linear_465_8154" x1="15" y1="15" x2="0.999999" y2="1" gradientUnits="userSpaceOnUse">
<stop offset="0.144116" stop-color="#C05F06" stop-opacity="0.870588"/>
<stop offset="0.851004" stop-color="#E3D282"/>
</linearGradient>
</defs>
</svg>
