<svg width="16" height="16" viewBox="0 0 16 16" fill="none" xmlns="http://www.w3.org/2000/svg">
<path d="M14.2929 1.70715C14.437 1.85123 14.6512 2.2598 14.7572 3.03774C14.8579 3.77606 14.8416 4.71103 14.6705 5.73553C14.3269 7.79314 13.3854 10.0644 11.737 11.7129C10.0881 13.3617 7.81018 14.3093 5.74539 14.6588C4.7174 14.8328 3.77918 14.8519 3.03856 14.7531C2.25766 14.649 1.84968 14.4355 1.70714 14.2929C1.56473 14.1505 1.35153 13.7431 1.2479 12.9629C1.14962 12.2229 1.16929 11.2855 1.34393 10.2582C1.6947 8.19487 2.64364 5.91791 4.29282 4.26873C5.94166 2.61989 8.21191 1.67714 10.2681 1.33225C11.2919 1.16052 12.2261 1.14357 12.9637 1.24376C13.7409 1.34931 14.149 1.56321 14.2929 1.70715Z" fill="url(#paint0_linear_465_8155)" stroke="url(#paint1_linear_465_8155)" stroke-width="2"/>
<mask id="mask0_465_8155" style="mask-type:alpha" maskUnits="userSpaceOnUse" x="0" y="0" width="16" height="16">
<path d="M15 1.00005C16.5 2.5001 16.1035 8.76053 12.4441 12.42C8.78463 16.0794 2.50006 16.5001 1.00003 15C-0.5 13.5 -0.0737161 7.22105 3.58572 3.56162C7.24515 -0.0978133 13.5 -0.5 15 1.00005Z" fill="url(#paint2_linear_465_8155)"/>
</mask>
<g mask="url(#mask0_465_8155)">
<path d="M0.414214 9L7.48528 16.0711L6.07107 17.4853L-1 10.4142L0.414214 9Z" fill="url(#paint3_linear_465_8155)"/>
<path d="M10.4142 -1L17.4853 6.07107L16.0711 7.48528L9 0.414214L10.4142 -1Z" fill="url(#paint4_linear_465_8155)"/>
</g>
<path d="M14.6465 1.3536C14.906 1.61315 15.1413 2.1537 15.2527 2.97019C15.3613 3.76687 15.3415 4.75312 15.1637 5.81788C14.8073 7.95171 13.8296 10.3273 12.0905 12.0664C10.3512 13.8057 7.96926 14.7895 5.82883 15.1518C4.76082 15.3326 3.77143 15.3553 2.97247 15.2487C2.15337 15.1395 1.61236 14.9053 1.35358 14.6465C1.09488 14.3878 0.86097 13.8472 0.752258 13.0287C0.646217 12.2304 0.669558 11.2417 0.851003 10.1744C1.21464 8.0354 2.19982 5.65463 3.93927 3.91517C5.67855 2.1759 8.05296 1.19682 10.1854 0.839139C11.2494 0.660657 12.2349 0.640179 13.031 0.748304C13.8469 0.859114 14.387 1.09412 14.6465 1.3536Z" stroke="url(#paint5_linear_465_8155)"/>
<path d="M3.00452 9.36847C3.2987 8.91595 3.6206 8.45702 3.96873 8C4.5317 7.26093 5.16327 6.52686 5.85711 5.83301C6.54411 5.14601 7.2697 4.52092 8 3.96354C8.45575 3.6157 8.91333 3.29424 9.36452 3.00055" stroke="white" stroke-linecap="round"/>
<path d="M3 7L5 9M5 5L7 7M7 3L9 5" stroke="white" stroke-linecap="round"/>
<defs>
<linearGradient id="paint0_linear_465_8155" x1="3.58571" y1="3.56163" x2="12.4441" y2="12.42" gradientUnits="userSpaceOnUse">
<stop offset="0.0864333" stop-color="#CB8965"/>
<stop offset="0.921979" stop-color="#9E441F"/>
</linearGradient>
<linearGradient id="paint1_linear_465_8155" x1="3.58571" y1="3.56163" x2="12.4441" y2="12.42" gradientUnits="userSpaceOnUse">
<stop stop-color="#DAA98C"/>
<stop offset="1" stop-color="#A95D3E"/>
</linearGradient>
<linearGradient id="paint2_linear_465_8155" x1="3.58571" y1="3.56163" x2="12.4441" y2="12.42" gradientUnits="userSpaceOnUse">
<stop offset="0.0864333" stop-color="#CB8965"/>
<stop offset="0.921979" stop-color="#9E441F"/>
</linearGradient>
<linearGradient id="paint3_linear_465_8155" x1="4" y1="4" x2="12" y2="12" gradientUnits="userSpaceOnUse">
<stop stop-color="#F7EBE5"/>
<stop offset="1" stop-color="#E5C9BB"/>
</linearGradient>
<linearGradient id="paint4_linear_465_8155" x1="4" y1="4" x2="12" y2="12" gradientUnits="userSpaceOnUse">
<stop stop-color="#F7EBE5"/>
<stop offset="1" stop-color="#E5C9BB"/>
</linearGradient>
<linearGradient id="paint5_linear_465_8155" x1="3.57366" y1="3.57368" x2="12.432" y2="12.432" gradientUnits="userSpaceOnUse">
<stop stop-color="#D5948E" stop-opacity="0.839216"/>
<stop offset="0.527769" stop-color="#8C1B12" stop-opacity="0.756863"/>
<stop offset="1" stop-color="#61160E" stop-opacity="0.9"/>
</linearGradient>
</defs>
</svg>
