<svg width="16" height="16" viewBox="0 0 16 16" fill="none" xmlns="http://www.w3.org/2000/svg">
<g clip-path="url(#clip0_420_6806)">
<path d="M13.5 10V10.2071L13.6464 10.3536L13.7929 10.5H2.20711L2.35355 10.3536L2.5 10.2071V10V6C2.5 5.72386 2.72386 5.5 3 5.5H13C13.2761 5.5 13.5 5.72386 13.5 6V10Z" fill="url(#paint0_linear_420_6806)" stroke="url(#paint1_linear_420_6806)"/>
<path d="M15 11.5C15.2022 11.5 15.3845 11.3782 15.4619 11.1913C15.5393 11.0045 15.4966 10.7894 15.3536 10.6464L14.5 9.79289V6C14.5 5.17157 13.8284 4.5 13 4.5H3C2.17157 4.5 1.5 5.17157 1.5 6V9.79289L0.646447 10.6464C0.503448 10.7894 0.46067 11.0045 0.53806 11.1913C0.615451 11.3782 0.797769 11.5 1 11.5H15Z" stroke="url(#paint2_linear_420_6806)" stroke-linejoin="round"/>
<g filter="url(#filter0_i_420_6806)">
<path d="M10 9H6V14H10V16H11L16 11.5L11 7H10V9Z" fill="#80B361"/>
</g>
<path d="M10 9.5C10.2761 9.5 10.5 9.27614 10.5 9V7.5H10.8081L15.2526 11.5L10.8081 15.5H10.5V14C10.5 13.7239 10.2761 13.5 10 13.5H6.5V9.5H10Z" stroke="url(#paint3_linear_420_6806)" stroke-linejoin="round"/>
<path d="M7.5 12.5V10.5H10C10.7149 10.5 11.2659 10.0257 11.4412 9.41686L13.7531 11.5L11.4413 13.5831C11.263 12.9643 10.6975 12.5 10.0049 12.5H7.5Z" stroke="white" stroke-opacity="0.2" stroke-linejoin="round"/>
</g>
<defs>
<filter id="filter0_i_420_6806" x="6" y="7" width="12" height="11" filterUnits="userSpaceOnUse" color-interpolation-filters="sRGB">
<feFlood flood-opacity="0" result="BackgroundImageFix"/>
<feBlend mode="normal" in="SourceGraphic" in2="BackgroundImageFix" result="shape"/>
<feColorMatrix in="SourceAlpha" type="matrix" values="0 0 0 0 0 0 0 0 0 0 0 0 0 0 0 0 0 0 127 0" result="hardAlpha"/>
<feOffset dx="2" dy="2"/>
<feGaussianBlur stdDeviation="1"/>
<feComposite in2="hardAlpha" operator="arithmetic" k2="-1" k3="1"/>
<feColorMatrix type="matrix" values="0 0 0 0 1 0 0 0 0 1 0 0 0 0 1 0 0 0 0.25 0"/>
<feBlend mode="normal" in2="shape" result="effect1_innerShadow_420_6806"/>
</filter>
<linearGradient id="paint0_linear_420_6806" x1="15" y1="11" x2="2" y2="5" gradientUnits="userSpaceOnUse">
<stop stop-color="#D8D8D7"/>
<stop offset="1" stop-color="#C1C1C1"/>
</linearGradient>
<linearGradient id="paint1_linear_420_6806" x1="14.9858" y1="11" x2="1.01415" y2="5" gradientUnits="userSpaceOnUse">
<stop stop-color="#F1F1EC"/>
<stop offset="1" stop-color="#E4E4DB"/>
</linearGradient>
<linearGradient id="paint2_linear_420_6806" x1="14.9858" y1="11" x2="1.01415" y2="5" gradientUnits="userSpaceOnUse">
<stop stop-color="#9E9E9E"/>
<stop offset="1" stop-color="#9E9E9E"/>
</linearGradient>
<linearGradient id="paint3_linear_420_6806" x1="14.5714" y1="14.7143" x2="8.17837" y2="7.61089" gradientUnits="userSpaceOnUse">
<stop stop-color="#247C10"/>
<stop offset="1" stop-color="#6FA53D"/>
</linearGradient>
<clipPath id="clip0_420_6806">
<rect width="16" height="16" fill="white"/>
</clipPath>
</defs>
</svg>
