<svg width="16" height="16" viewBox="0 0 16 16" fill="none" xmlns="http://www.w3.org/2000/svg">
<rect x="1.5" y="1.5" width="13" height="13" fill="white" stroke="url(#paint0_linear_201_4334)" stroke-linejoin="round"/>
<mask id="path-2-outside-1_201_4334" maskUnits="userSpaceOnUse" x="2" y="5" width="12" height="9" fill="black">
<rect fill="white" x="2" y="5" width="12" height="9"/>
<path fill-rule="evenodd" clip-rule="evenodd" d="M3 6.5C3 6.22386 3.22386 6 3.5 6C3.77614 6 4 6.22386 4 6.5C4 6.77614 3.77614 7 3.5 7C3.22386 7 3 6.77614 3 6.5ZM5 6.5C5 6.22386 5.22386 6 5.5 6H8.5C8.77614 6 9 6.22386 9 6.5C9 6.77614 8.77614 7 8.5 7H5.5C5.22386 7 5 6.77614 5 6.5ZM10.5 6C10.2239 6 10 6.22386 10 6.5C10 6.77614 10.2239 7 10.5 7H12.5C12.7761 7 13 6.77614 13 6.5C13 6.22386 12.7761 6 12.5 6H10.5ZM10.5 8C10.2239 8 10 8.22386 10 8.5C10 8.77614 10.2239 9 10.5 9H12.5C12.7761 9 13 8.77614 13 8.5C13 8.22386 12.7761 8 12.5 8H10.5ZM10 10.5C10 10.2239 10.2239 10 10.5 10H12.5C12.7761 10 13 10.2239 13 10.5C13 10.7761 12.7761 11 12.5 11H10.5C10.2239 11 10 10.7761 10 10.5ZM10.5 12C10.2239 12 10 12.2239 10 12.5C10 12.7761 10.2239 13 10.5 13H12.5C12.7761 13 13 12.7761 13 12.5C13 12.2239 12.7761 12 12.5 12H10.5ZM5.5 12C5.22386 12 5 12.2239 5 12.5C5 12.7761 5.22386 13 5.5 13H8.5C8.77614 13 9 12.7761 9 12.5C9 12.2239 8.77614 12 8.5 12H5.5ZM5 10.5C5 10.2239 5.22386 10 5.5 10H8.5C8.77614 10 9 10.2239 9 10.5C9 10.7761 8.77614 11 8.5 11H5.5C5.22386 11 5 10.7761 5 10.5ZM5.5 8C5.22386 8 5 8.22386 5 8.5C5 8.77614 5.22386 9 5.5 9H8.5C8.77614 9 9 8.77614 9 8.5C9 8.22386 8.77614 8 8.5 8H5.5ZM3.5 8C3.22386 8 3 8.22386 3 8.5C3 8.77614 3.22386 9 3.5 9C3.77614 9 4 8.77614 4 8.5C4 8.22386 3.77614 8 3.5 8ZM3 10.5C3 10.2239 3.22386 10 3.5 10C3.77614 10 4 10.2239 4 10.5C4 10.7761 3.77614 11 3.5 11C3.22386 11 3 10.7761 3 10.5ZM3.5 12C3.22386 12 3 12.2239 3 12.5C3 12.7761 3.22386 13 3.5 13C3.77614 13 4 12.7761 4 12.5C4 12.2239 3.77614 12 3.5 12Z"/>
</mask>
<path fill-rule="evenodd" clip-rule="evenodd" d="M3 6.5C3 6.22386 3.22386 6 3.5 6C3.77614 6 4 6.22386 4 6.5C4 6.77614 3.77614 7 3.5 7C3.22386 7 3 6.77614 3 6.5ZM5 6.5C5 6.22386 5.22386 6 5.5 6H8.5C8.77614 6 9 6.22386 9 6.5C9 6.77614 8.77614 7 8.5 7H5.5C5.22386 7 5 6.77614 5 6.5ZM10.5 6C10.2239 6 10 6.22386 10 6.5C10 6.77614 10.2239 7 10.5 7H12.5C12.7761 7 13 6.77614 13 6.5C13 6.22386 12.7761 6 12.5 6H10.5ZM10.5 8C10.2239 8 10 8.22386 10 8.5C10 8.77614 10.2239 9 10.5 9H12.5C12.7761 9 13 8.77614 13 8.5C13 8.22386 12.7761 8 12.5 8H10.5ZM10 10.5C10 10.2239 10.2239 10 10.5 10H12.5C12.7761 10 13 10.2239 13 10.5C13 10.7761 12.7761 11 12.5 11H10.5C10.2239 11 10 10.7761 10 10.5ZM10.5 12C10.2239 12 10 12.2239 10 12.5C10 12.7761 10.2239 13 10.5 13H12.5C12.7761 13 13 12.7761 13 12.5C13 12.2239 12.7761 12 12.5 12H10.5ZM5.5 12C5.22386 12 5 12.2239 5 12.5C5 12.7761 5.22386 13 5.5 13H8.5C8.77614 13 9 12.7761 9 12.5C9 12.2239 8.77614 12 8.5 12H5.5ZM5 10.5C5 10.2239 5.22386 10 5.5 10H8.5C8.77614 10 9 10.2239 9 10.5C9 10.7761 8.77614 11 8.5 11H5.5C5.22386 11 5 10.7761 5 10.5ZM5.5 8C5.22386 8 5 8.22386 5 8.5C5 8.77614 5.22386 9 5.5 9H8.5C8.77614 9 9 8.77614 9 8.5C9 8.22386 8.77614 8 8.5 8H5.5ZM3.5 8C3.22386 8 3 8.22386 3 8.5C3 8.77614 3.22386 9 3.5 9C3.77614 9 4 8.77614 4 8.5C4 8.22386 3.77614 8 3.5 8ZM3 10.5C3 10.2239 3.22386 10 3.5 10C3.77614 10 4 10.2239 4 10.5C4 10.7761 3.77614 11 3.5 11C3.22386 11 3 10.7761 3 10.5ZM3.5 12C3.22386 12 3 12.2239 3 12.5C3 12.7761 3.22386 13 3.5 13C3.77614 13 4 12.7761 4 12.5C4 12.2239 3.77614 12 3.5 12Z" fill="white"/>
<path d="M3.5 5C2.67157 5 2 5.67157 2 6.5H4C4 6.77614 3.77614 7 3.5 7V5ZM5 6.5C5 5.67157 4.32843 5 3.5 5V7C3.22386 7 3 6.77614 3 6.5H5ZM3.5 8C4.32843 8 5 7.32843 5 6.5H3C3 6.22386 3.22386 6 3.5 6V8ZM2 6.5C2 7.32843 2.67157 8 3.5 8V6C3.77614 6 4 6.22386 4 6.5H2ZM5.5 5C4.67157 5 4 5.67157 4 6.5H6C6 6.77614 5.77614 7 5.5 7V5ZM8.5 5H5.5V7H8.5V5ZM10 6.5C10 5.67157 9.32843 5 8.5 5V7C8.22386 7 8 6.77614 8 6.5H10ZM8.5 8C9.32843 8 10 7.32843 10 6.5H8C8 6.22386 8.22386 6 8.5 6V8ZM5.5 8H8.5V6H5.5V8ZM4 6.5C4 7.32843 4.67157 8 5.5 8V6C5.77614 6 6 6.22386 6 6.5H4ZM11 6.5C11 6.77614 10.7761 7 10.5 7V5C9.67157 5 9 5.67157 9 6.5H11ZM10.5 6C10.7761 6 11 6.22386 11 6.5H9C9 7.32843 9.67157 8 10.5 8V6ZM12.5 6H10.5V8H12.5V6ZM12 6.5C12 6.22386 12.2239 6 12.5 6V8C13.3284 8 14 7.32843 14 6.5H12ZM12.5 7C12.2239 7 12 6.77614 12 6.5H14C14 5.67157 13.3284 5 12.5 5V7ZM10.5 7H12.5V5H10.5V7ZM11 8.5C11 8.77614 10.7761 9 10.5 9V7C9.67157 7 9 7.67157 9 8.5H11ZM10.5 8C10.7761 8 11 8.22386 11 8.5H9C9 9.32843 9.67157 10 10.5 10V8ZM12.5 8H10.5V10H12.5V8ZM12 8.5C12 8.22386 12.2239 8 12.5 8V10C13.3284 10 14 9.32843 14 8.5H12ZM12.5 9C12.2239 9 12 8.77614 12 8.5H14C14 7.67157 13.3284 7 12.5 7V9ZM10.5 9H12.5V7H10.5V9ZM10.5 9C9.67157 9 9 9.67157 9 10.5H11C11 10.7761 10.7761 11 10.5 11V9ZM12.5 9H10.5V11H12.5V9ZM14 10.5C14 9.67157 13.3284 9 12.5 9V11C12.2239 11 12 10.7761 12 10.5H14ZM12.5 12C13.3284 12 14 11.3284 14 10.5H12C12 10.2239 12.2239 10 12.5 10V12ZM10.5 12H12.5V10H10.5V12ZM9 10.5C9 11.3284 9.67157 12 10.5 12V10C10.7761 10 11 10.2239 11 10.5H9ZM11 12.5C11 12.7761 10.7761 13 10.5 13V11C9.67157 11 9 11.6716 9 12.5H11ZM10.5 12C10.7761 12 11 12.2239 11 12.5H9C9 13.3284 9.67157 14 10.5 14V12ZM12.5 12H10.5V14H12.5V12ZM12 12.5C12 12.2239 12.2239 12 12.5 12V14C13.3284 14 14 13.3284 14 12.5H12ZM12.5 13C12.2239 13 12 12.7761 12 12.5H14C14 11.6716 13.3284 11 12.5 11V13ZM10.5 13H12.5V11H10.5V13ZM6 12.5C6 12.7761 5.77614 13 5.5 13V11C4.67157 11 4 11.6716 4 12.5H6ZM5.5 12C5.77614 12 6 12.2239 6 12.5H4C4 13.3284 4.67157 14 5.5 14V12ZM8.5 12H5.5V14H8.5V12ZM8 12.5C8 12.2239 8.22386 12 8.5 12V14C9.32843 14 10 13.3284 10 12.5H8ZM8.5 13C8.22386 13 8 12.7761 8 12.5H10C10 11.6716 9.32843 11 8.5 11V13ZM5.5 13H8.5V11H5.5V13ZM5.5 9C4.67157 9 4 9.67157 4 10.5H6C6 10.7761 5.77614 11 5.5 11V9ZM8.5 9H5.5V11H8.5V9ZM10 10.5C10 9.67157 9.32843 9 8.5 9V11C8.22386 11 8 10.7761 8 10.5H10ZM8.5 12C9.32843 12 10 11.3284 10 10.5H8C8 10.2239 8.22386 10 8.5 10V12ZM5.5 12H8.5V10H5.5V12ZM4 10.5C4 11.3284 4.67157 12 5.5 12V10C5.77614 10 6 10.2239 6 10.5H4ZM6 8.5C6 8.77614 5.77614 9 5.5 9V7C4.67157 7 4 7.67157 4 8.5H6ZM5.5 8C5.77614 8 6 8.22386 6 8.5H4C4 9.32843 4.67157 10 5.5 10V8ZM8.5 8H5.5V10H8.5V8ZM8 8.5C8 8.22386 8.22386 8 8.5 8V10C9.32843 10 10 9.32843 10 8.5H8ZM8.5 9C8.22386 9 8 8.77614 8 8.5H10C10 7.67157 9.32843 7 8.5 7V9ZM5.5 9H8.5V7H5.5V9ZM4 8.5C4 8.77614 3.77614 9 3.5 9V7C2.67157 7 2 7.67157 2 8.5H4ZM3.5 8C3.77614 8 4 8.22386 4 8.5H2C2 9.32843 2.67157 10 3.5 10V8ZM3 8.5C3 8.22386 3.22386 8 3.5 8V10C4.32843 10 5 9.32843 5 8.5H3ZM3.5 9C3.22386 9 3 8.77614 3 8.5H5C5 7.67157 4.32843 7 3.5 7V9ZM3.5 9C2.67157 9 2 9.67157 2 10.5H4C4 10.7761 3.77614 11 3.5 11V9ZM5 10.5C5 9.67157 4.32843 9 3.5 9V11C3.22386 11 3 10.7761 3 10.5H5ZM3.5 12C4.32843 12 5 11.3284 5 10.5H3C3 10.2239 3.22386 10 3.5 10V12ZM2 10.5C2 11.3284 2.67157 12 3.5 12V10C3.77614 10 4 10.2239 4 10.5H2ZM4 12.5C4 12.7761 3.77614 13 3.5 13V11C2.67157 11 2 11.6716 2 12.5H4ZM3.5 12C3.77614 12 4 12.2239 4 12.5H2C2 13.3284 2.67157 14 3.5 14V12ZM3 12.5C3 12.2239 3.22386 12 3.5 12V14C4.32843 14 5 13.3284 5 12.5H3ZM3.5 13C3.22386 13 3 12.7761 3 12.5H5C5 11.6716 4.32843 11 3.5 11V13Z" fill="url(#paint1_linear_201_4334)" mask="url(#path-2-outside-1_201_4334)"/>
<rect x="2.5" y="2.5" width="11" height="2" rx="1" fill="url(#paint2_linear_201_4334)" stroke="white"/>
<rect x="2.5" y="2.5" width="11" height="11" stroke="url(#paint3_linear_201_4334)" stroke-opacity="0.66" style="mix-blend-mode:screen"/>
<circle cx="12.5" cy="12.5" r="3" fill="url(#paint4_radial_201_4334)" stroke="url(#paint5_linear_201_4334)"/>
<path fill-rule="evenodd" clip-rule="evenodd" d="M12 12V11H13V12H14V13H13V14H12V13H11V12H12Z" fill="white"/>
<defs>
<linearGradient id="paint0_linear_201_4334" x1="2" y1="2" x2="14" y2="14" gradientUnits="userSpaceOnUse">
<stop stop-color="#9FC0ED"/>
<stop offset="1" stop-color="#5284C3"/>
</linearGradient>
<linearGradient id="paint1_linear_201_4334" x1="8.5" y1="6" x2="8.5" y2="13" gradientUnits="userSpaceOnUse">
<stop stop-color="#A6C3E9"/>
<stop offset="1" stop-color="#BFD3EB"/>
</linearGradient>
<linearGradient id="paint2_linear_201_4334" x1="3" y1="3.5" x2="13" y2="3.5" gradientUnits="userSpaceOnUse">
<stop stop-color="#A5D59C"/>
<stop offset="1" stop-color="#7CBE76"/>
</linearGradient>
<linearGradient id="paint3_linear_201_4334" x1="2.5" y1="2" x2="14" y2="14" gradientUnits="userSpaceOnUse">
<stop stop-color="#F4F7FB"/>
<stop offset="1" stop-color="#D8E2F0"/>
</linearGradient>
<radialGradient id="paint4_radial_201_4334" cx="0" cy="0" r="1" gradientUnits="userSpaceOnUse" gradientTransform="translate(10 10) rotate(45) scale(5.65685)">
<stop stop-color="#B4D495"/>
<stop offset="1" stop-color="#87B960"/>
</radialGradient>
<linearGradient id="paint5_linear_201_4334" x1="15" y1="15" x2="10" y2="10" gradientUnits="userSpaceOnUse">
<stop stop-color="#376B19"/>
<stop offset="1" stop-color="#5A9438"/>
</linearGradient>
</defs>
</svg>
