<svg width="16" height="16" viewBox="0 0 16 16" fill="none" xmlns="http://www.w3.org/2000/svg">
<g clip-path="url(#clip0_201_4383)">
<rect x="-7.5" y="1.5" width="13" height="13" fill="white" stroke="url(#paint0_linear_201_4383)" stroke-linejoin="round"/>
<mask id="path-2-outside-1_201_4383" maskUnits="userSpaceOnUse" x="-7" y="5" width="12" height="9" fill="black">
<rect fill="white" x="-7" y="5" width="12" height="9"/>
<path fill-rule="evenodd" clip-rule="evenodd" d="M-6 6.5C-6 6.22386 -5.77614 6 -5.5 6C-5.22386 6 -5 6.22386 -5 6.5C-5 6.77614 -5.22386 7 -5.5 7C-5.77614 7 -6 6.77614 -6 6.5ZM-4 6.5C-4 6.22386 -3.77614 6 -3.5 6H-0.5C-0.223857 6 0 6.22386 0 6.5C0 6.77614 -0.223857 7 -0.5 7H-3.5C-3.77614 7 -4 6.77614 -4 6.5ZM1.5 6C1.22386 6 1 6.22386 1 6.5C1 6.77614 1.22386 7 1.5 7H3.5C3.77614 7 4 6.77614 4 6.5C4 6.22386 3.77614 6 3.5 6H1.5ZM1.5 8C1.22386 8 1 8.22386 1 8.5C1 8.77614 1.22386 9 1.5 9H3.5C3.77614 9 4 8.77614 4 8.5C4 8.22386 3.77614 8 3.5 8H1.5ZM1 10.5C1 10.2239 1.22386 10 1.5 10H3.5C3.77614 10 4 10.2239 4 10.5C4 10.7761 3.77614 11 3.5 11H1.5C1.22386 11 1 10.7761 1 10.5ZM1.5 12C1.22386 12 1 12.2239 1 12.5C1 12.7761 1.22386 13 1.5 13H3.5C3.77614 13 4 12.7761 4 12.5C4 12.2239 3.77614 12 3.5 12H1.5ZM-3.5 12C-3.77614 12 -4 12.2239 -4 12.5C-4 12.7761 -3.77614 13 -3.5 13H-0.5C-0.223857 13 0 12.7761 0 12.5C0 12.2239 -0.223857 12 -0.5 12H-3.5ZM-4 10.5C-4 10.2239 -3.77614 10 -3.5 10H-0.5C-0.223857 10 0 10.2239 0 10.5C0 10.7761 -0.223857 11 -0.5 11H-3.5C-3.77614 11 -4 10.7761 -4 10.5ZM-3.5 8C-3.77614 8 -4 8.22386 -4 8.5C-4 8.77614 -3.77614 9 -3.5 9H-0.5C-0.223857 9 0 8.77614 0 8.5C0 8.22386 -0.223857 8 -0.5 8H-3.5ZM-5.5 8C-5.77614 8 -6 8.22386 -6 8.5C-6 8.77614 -5.77614 9 -5.5 9C-5.22386 9 -5 8.77614 -5 8.5C-5 8.22386 -5.22386 8 -5.5 8ZM-6 10.5C-6 10.2239 -5.77614 10 -5.5 10C-5.22386 10 -5 10.2239 -5 10.5C-5 10.7761 -5.22386 11 -5.5 11C-5.77614 11 -6 10.7761 -6 10.5ZM-5.5 12C-5.77614 12 -6 12.2239 -6 12.5C-6 12.7761 -5.77614 13 -5.5 13C-5.22386 13 -5 12.7761 -5 12.5C-5 12.2239 -5.22386 12 -5.5 12Z"/>
</mask>
<path fill-rule="evenodd" clip-rule="evenodd" d="M-6 6.5C-6 6.22386 -5.77614 6 -5.5 6C-5.22386 6 -5 6.22386 -5 6.5C-5 6.77614 -5.22386 7 -5.5 7C-5.77614 7 -6 6.77614 -6 6.5ZM-4 6.5C-4 6.22386 -3.77614 6 -3.5 6H-0.5C-0.223857 6 0 6.22386 0 6.5C0 6.77614 -0.223857 7 -0.5 7H-3.5C-3.77614 7 -4 6.77614 -4 6.5ZM1.5 6C1.22386 6 1 6.22386 1 6.5C1 6.77614 1.22386 7 1.5 7H3.5C3.77614 7 4 6.77614 4 6.5C4 6.22386 3.77614 6 3.5 6H1.5ZM1.5 8C1.22386 8 1 8.22386 1 8.5C1 8.77614 1.22386 9 1.5 9H3.5C3.77614 9 4 8.77614 4 8.5C4 8.22386 3.77614 8 3.5 8H1.5ZM1 10.5C1 10.2239 1.22386 10 1.5 10H3.5C3.77614 10 4 10.2239 4 10.5C4 10.7761 3.77614 11 3.5 11H1.5C1.22386 11 1 10.7761 1 10.5ZM1.5 12C1.22386 12 1 12.2239 1 12.5C1 12.7761 1.22386 13 1.5 13H3.5C3.77614 13 4 12.7761 4 12.5C4 12.2239 3.77614 12 3.5 12H1.5ZM-3.5 12C-3.77614 12 -4 12.2239 -4 12.5C-4 12.7761 -3.77614 13 -3.5 13H-0.5C-0.223857 13 0 12.7761 0 12.5C0 12.2239 -0.223857 12 -0.5 12H-3.5ZM-4 10.5C-4 10.2239 -3.77614 10 -3.5 10H-0.5C-0.223857 10 0 10.2239 0 10.5C0 10.7761 -0.223857 11 -0.5 11H-3.5C-3.77614 11 -4 10.7761 -4 10.5ZM-3.5 8C-3.77614 8 -4 8.22386 -4 8.5C-4 8.77614 -3.77614 9 -3.5 9H-0.5C-0.223857 9 0 8.77614 0 8.5C0 8.22386 -0.223857 8 -0.5 8H-3.5ZM-5.5 8C-5.77614 8 -6 8.22386 -6 8.5C-6 8.77614 -5.77614 9 -5.5 9C-5.22386 9 -5 8.77614 -5 8.5C-5 8.22386 -5.22386 8 -5.5 8ZM-6 10.5C-6 10.2239 -5.77614 10 -5.5 10C-5.22386 10 -5 10.2239 -5 10.5C-5 10.7761 -5.22386 11 -5.5 11C-5.77614 11 -6 10.7761 -6 10.5ZM-5.5 12C-5.77614 12 -6 12.2239 -6 12.5C-6 12.7761 -5.77614 13 -5.5 13C-5.22386 13 -5 12.7761 -5 12.5C-5 12.2239 -5.22386 12 -5.5 12Z" fill="white"/>
<path d="M-5.5 5C-6.32843 5 -7 5.67157 -7 6.5H-5C-5 6.77614 -5.22386 7 -5.5 7V5ZM-4 6.5C-4 5.67157 -4.67157 5 -5.5 5V7C-5.77614 7 -6 6.77614 -6 6.5H-4ZM-5.5 8C-4.67157 8 -4 7.32843 -4 6.5H-6C-6 6.22386 -5.77614 6 -5.5 6V8ZM-7 6.5C-7 7.32843 -6.32843 8 -5.5 8V6C-5.22386 6 -5 6.22386 -5 6.5H-7ZM-3.5 5C-4.32843 5 -5 5.67157 -5 6.5H-3C-3 6.77614 -3.22386 7 -3.5 7V5ZM-0.5 5H-3.5V7H-0.5V5ZM1 6.5C1 5.67157 0.328428 5 -0.5 5V7C-0.776143 7 -1 6.77614 -1 6.5H1ZM-0.5 8C0.328428 8 1 7.32843 1 6.5H-1C-1 6.22386 -0.776143 6 -0.5 6V8ZM-3.5 8H-0.5V6H-3.5V8ZM-5 6.5C-5 7.32843 -4.32843 8 -3.5 8V6C-3.22386 6 -3 6.22386 -3 6.5H-5ZM2 6.5C2 6.77614 1.77614 7 1.5 7V5C0.671574 5 0 5.67157 0 6.5H2ZM1.5 6C1.77614 6 2 6.22386 2 6.5H0C0 7.32843 0.671574 8 1.5 8V6ZM3.5 6H1.5V8H3.5V6ZM3 6.5C3 6.22386 3.22386 6 3.5 6V8C4.32843 8 5 7.32843 5 6.5H3ZM3.5 7C3.22386 7 3 6.77614 3 6.5H5C5 5.67157 4.32843 5 3.5 5V7ZM1.5 7H3.5V5H1.5V7ZM2 8.5C2 8.77614 1.77614 9 1.5 9V7C0.671574 7 0 7.67157 0 8.5H2ZM1.5 8C1.77614 8 2 8.22386 2 8.5H0C0 9.32843 0.671574 10 1.5 10V8ZM3.5 8H1.5V10H3.5V8ZM3 8.5C3 8.22386 3.22386 8 3.5 8V10C4.32843 10 5 9.32843 5 8.5H3ZM3.5 9C3.22386 9 3 8.77614 3 8.5H5C5 7.67157 4.32843 7 3.5 7V9ZM1.5 9H3.5V7H1.5V9ZM1.5 9C0.671574 9 0 9.67157 0 10.5H2C2 10.7761 1.77614 11 1.5 11V9ZM3.5 9H1.5V11H3.5V9ZM5 10.5C5 9.67157 4.32843 9 3.5 9V11C3.22386 11 3 10.7761 3 10.5H5ZM3.5 12C4.32843 12 5 11.3284 5 10.5H3C3 10.2239 3.22386 10 3.5 10V12ZM1.5 12H3.5V10H1.5V12ZM0 10.5C0 11.3284 0.671574 12 1.5 12V10C1.77614 10 2 10.2239 2 10.5H0ZM2 12.5C2 12.7761 1.77614 13 1.5 13V11C0.671574 11 0 11.6716 0 12.5H2ZM1.5 12C1.77614 12 2 12.2239 2 12.5H0C0 13.3284 0.671574 14 1.5 14V12ZM3.5 12H1.5V14H3.5V12ZM3 12.5C3 12.2239 3.22386 12 3.5 12V14C4.32843 14 5 13.3284 5 12.5H3ZM3.5 13C3.22386 13 3 12.7761 3 12.5H5C5 11.6716 4.32843 11 3.5 11V13ZM1.5 13H3.5V11H1.5V13ZM-3 12.5C-3 12.7761 -3.22386 13 -3.5 13V11C-4.32843 11 -5 11.6716 -5 12.5H-3ZM-3.5 12C-3.22386 12 -3 12.2239 -3 12.5H-5C-5 13.3284 -4.32843 14 -3.5 14V12ZM-0.5 12H-3.5V14H-0.5V12ZM-1 12.5C-1 12.2239 -0.776142 12 -0.5 12V14C0.328427 14 1 13.3284 1 12.5H-1ZM-0.5 13C-0.776142 13 -1 12.7761 -1 12.5H1C1 11.6716 0.328427 11 -0.5 11V13ZM-3.5 13H-0.5V11H-3.5V13ZM-3.5 9C-4.32843 9 -5 9.67157 -5 10.5H-3C-3 10.7761 -3.22386 11 -3.5 11V9ZM-0.5 9H-3.5V11H-0.5V9ZM1 10.5C1 9.67157 0.328427 9 -0.5 9V11C-0.776142 11 -1 10.7761 -1 10.5H1ZM-0.5 12C0.328427 12 1 11.3284 1 10.5H-1C-1 10.2239 -0.776142 10 -0.5 10V12ZM-3.5 12H-0.5V10H-3.5V12ZM-5 10.5C-5 11.3284 -4.32843 12 -3.5 12V10C-3.22386 10 -3 10.2239 -3 10.5H-5ZM-3 8.5C-3 8.77614 -3.22386 9 -3.5 9V7C-4.32843 7 -5 7.67157 -5 8.5H-3ZM-3.5 8C-3.22386 8 -3 8.22386 -3 8.5H-5C-5 9.32843 -4.32843 10 -3.5 10V8ZM-0.5 8H-3.5V10H-0.5V8ZM-1 8.5C-1 8.22386 -0.776143 8 -0.5 8V10C0.328428 10 1 9.32843 1 8.5H-1ZM-0.5 9C-0.776143 9 -1 8.77614 -1 8.5H1C1 7.67157 0.328428 7 -0.5 7V9ZM-3.5 9H-0.5V7H-3.5V9ZM-5 8.5C-5 8.77614 -5.22386 9 -5.5 9V7C-6.32843 7 -7 7.67157 -7 8.5H-5ZM-5.5 8C-5.22386 8 -5 8.22386 -5 8.5H-7C-7 9.32843 -6.32843 10 -5.5 10V8ZM-6 8.5C-6 8.22386 -5.77614 8 -5.5 8V10C-4.67157 10 -4 9.32843 -4 8.5H-6ZM-5.5 9C-5.77614 9 -6 8.77614 -6 8.5H-4C-4 7.67157 -4.67157 7 -5.5 7V9ZM-5.5 9C-6.32843 9 -7 9.67157 -7 10.5H-5C-5 10.7761 -5.22386 11 -5.5 11V9ZM-4 10.5C-4 9.67157 -4.67157 9 -5.5 9V11C-5.77614 11 -6 10.7761 -6 10.5H-4ZM-5.5 12C-4.67157 12 -4 11.3284 -4 10.5H-6C-6 10.2239 -5.77614 10 -5.5 10V12ZM-7 10.5C-7 11.3284 -6.32843 12 -5.5 12V10C-5.22386 10 -5 10.2239 -5 10.5H-7ZM-5 12.5C-5 12.7761 -5.22386 13 -5.5 13V11C-6.32843 11 -7 11.6716 -7 12.5H-5ZM-5.5 12C-5.22386 12 -5 12.2239 -5 12.5H-7C-7 13.3284 -6.32843 14 -5.5 14V12ZM-6 12.5C-6 12.2239 -5.77614 12 -5.5 12V14C-4.67157 14 -4 13.3284 -4 12.5H-6ZM-5.5 13C-5.77614 13 -6 12.7761 -6 12.5H-4C-4 11.6716 -4.67157 11 -5.5 11V13Z" fill="url(#paint1_linear_201_4383)" mask="url(#path-2-outside-1_201_4383)"/>
<rect x="-6.5" y="2.5" width="11" height="2" rx="1" fill="url(#paint2_linear_201_4383)" stroke="white"/>
<rect x="-6.5" y="2.5" width="11" height="11" stroke="url(#paint3_linear_201_4383)" stroke-opacity="0.66" style="mix-blend-mode:screen"/>
<rect x="11.5" y="1.5" width="13" height="13" fill="white" stroke="url(#paint4_linear_201_4383)" stroke-linejoin="round"/>
<mask id="path-7-outside-2_201_4383" maskUnits="userSpaceOnUse" x="12" y="5" width="12" height="9" fill="black">
<rect fill="white" x="12" y="5" width="12" height="9"/>
<path fill-rule="evenodd" clip-rule="evenodd" d="M13 6.5C13 6.22386 13.2239 6 13.5 6C13.7761 6 14 6.22386 14 6.5C14 6.77614 13.7761 7 13.5 7C13.2239 7 13 6.77614 13 6.5ZM15 6.5C15 6.22386 15.2239 6 15.5 6H18.5C18.7761 6 19 6.22386 19 6.5C19 6.77614 18.7761 7 18.5 7H15.5C15.2239 7 15 6.77614 15 6.5ZM20.5 6C20.2239 6 20 6.22386 20 6.5C20 6.77614 20.2239 7 20.5 7H22.5C22.7761 7 23 6.77614 23 6.5C23 6.22386 22.7761 6 22.5 6H20.5ZM20.5 8C20.2239 8 20 8.22386 20 8.5C20 8.77614 20.2239 9 20.5 9H22.5C22.7761 9 23 8.77614 23 8.5C23 8.22386 22.7761 8 22.5 8H20.5ZM20 10.5C20 10.2239 20.2239 10 20.5 10H22.5C22.7761 10 23 10.2239 23 10.5C23 10.7761 22.7761 11 22.5 11H20.5C20.2239 11 20 10.7761 20 10.5ZM20.5 12C20.2239 12 20 12.2239 20 12.5C20 12.7761 20.2239 13 20.5 13H22.5C22.7761 13 23 12.7761 23 12.5C23 12.2239 22.7761 12 22.5 12H20.5ZM15.5 12C15.2239 12 15 12.2239 15 12.5C15 12.7761 15.2239 13 15.5 13H18.5C18.7761 13 19 12.7761 19 12.5C19 12.2239 18.7761 12 18.5 12H15.5ZM15 10.5C15 10.2239 15.2239 10 15.5 10H18.5C18.7761 10 19 10.2239 19 10.5C19 10.7761 18.7761 11 18.5 11H15.5C15.2239 11 15 10.7761 15 10.5ZM15.5 8C15.2239 8 15 8.22386 15 8.5C15 8.77614 15.2239 9 15.5 9H18.5C18.7761 9 19 8.77614 19 8.5C19 8.22386 18.7761 8 18.5 8H15.5ZM13.5 8C13.2239 8 13 8.22386 13 8.5C13 8.77614 13.2239 9 13.5 9C13.7761 9 14 8.77614 14 8.5C14 8.22386 13.7761 8 13.5 8ZM13 10.5C13 10.2239 13.2239 10 13.5 10C13.7761 10 14 10.2239 14 10.5C14 10.7761 13.7761 11 13.5 11C13.2239 11 13 10.7761 13 10.5ZM13.5 12C13.2239 12 13 12.2239 13 12.5C13 12.7761 13.2239 13 13.5 13C13.7761 13 14 12.7761 14 12.5C14 12.2239 13.7761 12 13.5 12Z"/>
</mask>
<path fill-rule="evenodd" clip-rule="evenodd" d="M13 6.5C13 6.22386 13.2239 6 13.5 6C13.7761 6 14 6.22386 14 6.5C14 6.77614 13.7761 7 13.5 7C13.2239 7 13 6.77614 13 6.5ZM15 6.5C15 6.22386 15.2239 6 15.5 6H18.5C18.7761 6 19 6.22386 19 6.5C19 6.77614 18.7761 7 18.5 7H15.5C15.2239 7 15 6.77614 15 6.5ZM20.5 6C20.2239 6 20 6.22386 20 6.5C20 6.77614 20.2239 7 20.5 7H22.5C22.7761 7 23 6.77614 23 6.5C23 6.22386 22.7761 6 22.5 6H20.5ZM20.5 8C20.2239 8 20 8.22386 20 8.5C20 8.77614 20.2239 9 20.5 9H22.5C22.7761 9 23 8.77614 23 8.5C23 8.22386 22.7761 8 22.5 8H20.5ZM20 10.5C20 10.2239 20.2239 10 20.5 10H22.5C22.7761 10 23 10.2239 23 10.5C23 10.7761 22.7761 11 22.5 11H20.5C20.2239 11 20 10.7761 20 10.5ZM20.5 12C20.2239 12 20 12.2239 20 12.5C20 12.7761 20.2239 13 20.5 13H22.5C22.7761 13 23 12.7761 23 12.5C23 12.2239 22.7761 12 22.5 12H20.5ZM15.5 12C15.2239 12 15 12.2239 15 12.5C15 12.7761 15.2239 13 15.5 13H18.5C18.7761 13 19 12.7761 19 12.5C19 12.2239 18.7761 12 18.5 12H15.5ZM15 10.5C15 10.2239 15.2239 10 15.5 10H18.5C18.7761 10 19 10.2239 19 10.5C19 10.7761 18.7761 11 18.5 11H15.5C15.2239 11 15 10.7761 15 10.5ZM15.5 8C15.2239 8 15 8.22386 15 8.5C15 8.77614 15.2239 9 15.5 9H18.5C18.7761 9 19 8.77614 19 8.5C19 8.22386 18.7761 8 18.5 8H15.5ZM13.5 8C13.2239 8 13 8.22386 13 8.5C13 8.77614 13.2239 9 13.5 9C13.7761 9 14 8.77614 14 8.5C14 8.22386 13.7761 8 13.5 8ZM13 10.5C13 10.2239 13.2239 10 13.5 10C13.7761 10 14 10.2239 14 10.5C14 10.7761 13.7761 11 13.5 11C13.2239 11 13 10.7761 13 10.5ZM13.5 12C13.2239 12 13 12.2239 13 12.5C13 12.7761 13.2239 13 13.5 13C13.7761 13 14 12.7761 14 12.5C14 12.2239 13.7761 12 13.5 12Z" fill="white"/>
<path d="M13.5 5C12.6716 5 12 5.67157 12 6.5H14C14 6.77614 13.7761 7 13.5 7V5ZM15 6.5C15 5.67157 14.3284 5 13.5 5V7C13.2239 7 13 6.77614 13 6.5H15ZM13.5 8C14.3284 8 15 7.32843 15 6.5H13C13 6.22386 13.2239 6 13.5 6V8ZM12 6.5C12 7.32843 12.6716 8 13.5 8V6C13.7761 6 14 6.22386 14 6.5H12ZM15.5 5C14.6716 5 14 5.67157 14 6.5H16C16 6.77614 15.7761 7 15.5 7V5ZM18.5 5H15.5V7H18.5V5ZM20 6.5C20 5.67157 19.3284 5 18.5 5V7C18.2239 7 18 6.77614 18 6.5H20ZM18.5 8C19.3284 8 20 7.32843 20 6.5H18C18 6.22386 18.2239 6 18.5 6V8ZM15.5 8H18.5V6H15.5V8ZM14 6.5C14 7.32843 14.6716 8 15.5 8V6C15.7761 6 16 6.22386 16 6.5H14ZM21 6.5C21 6.77614 20.7761 7 20.5 7V5C19.6716 5 19 5.67157 19 6.5H21ZM20.5 6C20.7761 6 21 6.22386 21 6.5H19C19 7.32843 19.6716 8 20.5 8V6ZM22.5 6H20.5V8H22.5V6ZM22 6.5C22 6.22386 22.2239 6 22.5 6V8C23.3284 8 24 7.32843 24 6.5H22ZM22.5 7C22.2239 7 22 6.77614 22 6.5H24C24 5.67157 23.3284 5 22.5 5V7ZM20.5 7H22.5V5H20.5V7ZM21 8.5C21 8.77614 20.7761 9 20.5 9V7C19.6716 7 19 7.67157 19 8.5H21ZM20.5 8C20.7761 8 21 8.22386 21 8.5H19C19 9.32843 19.6716 10 20.5 10V8ZM22.5 8H20.5V10H22.5V8ZM22 8.5C22 8.22386 22.2239 8 22.5 8V10C23.3284 10 24 9.32843 24 8.5H22ZM22.5 9C22.2239 9 22 8.77614 22 8.5H24C24 7.67157 23.3284 7 22.5 7V9ZM20.5 9H22.5V7H20.5V9ZM20.5 9C19.6716 9 19 9.67157 19 10.5H21C21 10.7761 20.7761 11 20.5 11V9ZM22.5 9H20.5V11H22.5V9ZM24 10.5C24 9.67157 23.3284 9 22.5 9V11C22.2239 11 22 10.7761 22 10.5H24ZM22.5 12C23.3284 12 24 11.3284 24 10.5H22C22 10.2239 22.2239 10 22.5 10V12ZM20.5 12H22.5V10H20.5V12ZM19 10.5C19 11.3284 19.6716 12 20.5 12V10C20.7761 10 21 10.2239 21 10.5H19ZM21 12.5C21 12.7761 20.7761 13 20.5 13V11C19.6716 11 19 11.6716 19 12.5H21ZM20.5 12C20.7761 12 21 12.2239 21 12.5H19C19 13.3284 19.6716 14 20.5 14V12ZM22.5 12H20.5V14H22.5V12ZM22 12.5C22 12.2239 22.2239 12 22.5 12V14C23.3284 14 24 13.3284 24 12.5H22ZM22.5 13C22.2239 13 22 12.7761 22 12.5H24C24 11.6716 23.3284 11 22.5 11V13ZM20.5 13H22.5V11H20.5V13ZM16 12.5C16 12.7761 15.7761 13 15.5 13V11C14.6716 11 14 11.6716 14 12.5H16ZM15.5 12C15.7761 12 16 12.2239 16 12.5H14C14 13.3284 14.6716 14 15.5 14V12ZM18.5 12H15.5V14H18.5V12ZM18 12.5C18 12.2239 18.2239 12 18.5 12V14C19.3284 14 20 13.3284 20 12.5H18ZM18.5 13C18.2239 13 18 12.7761 18 12.5H20C20 11.6716 19.3284 11 18.5 11V13ZM15.5 13H18.5V11H15.5V13ZM15.5 9C14.6716 9 14 9.67157 14 10.5H16C16 10.7761 15.7761 11 15.5 11V9ZM18.5 9H15.5V11H18.5V9ZM20 10.5C20 9.67157 19.3284 9 18.5 9V11C18.2239 11 18 10.7761 18 10.5H20ZM18.5 12C19.3284 12 20 11.3284 20 10.5H18C18 10.2239 18.2239 10 18.5 10V12ZM15.5 12H18.5V10H15.5V12ZM14 10.5C14 11.3284 14.6716 12 15.5 12V10C15.7761 10 16 10.2239 16 10.5H14ZM16 8.5C16 8.77614 15.7761 9 15.5 9V7C14.6716 7 14 7.67157 14 8.5H16ZM15.5 8C15.7761 8 16 8.22386 16 8.5H14C14 9.32843 14.6716 10 15.5 10V8ZM18.5 8H15.5V10H18.5V8ZM18 8.5C18 8.22386 18.2239 8 18.5 8V10C19.3284 10 20 9.32843 20 8.5H18ZM18.5 9C18.2239 9 18 8.77614 18 8.5H20C20 7.67157 19.3284 7 18.5 7V9ZM15.5 9H18.5V7H15.5V9ZM14 8.5C14 8.77614 13.7761 9 13.5 9V7C12.6716 7 12 7.67157 12 8.5H14ZM13.5 8C13.7761 8 14 8.22386 14 8.5H12C12 9.32843 12.6716 10 13.5 10V8ZM13 8.5C13 8.22386 13.2239 8 13.5 8V10C14.3284 10 15 9.32843 15 8.5H13ZM13.5 9C13.2239 9 13 8.77614 13 8.5H15C15 7.67157 14.3284 7 13.5 7V9ZM13.5 9C12.6716 9 12 9.67157 12 10.5H14C14 10.7761 13.7761 11 13.5 11V9ZM15 10.5C15 9.67157 14.3284 9 13.5 9V11C13.2239 11 13 10.7761 13 10.5H15ZM13.5 12C14.3284 12 15 11.3284 15 10.5H13C13 10.2239 13.2239 10 13.5 10V12ZM12 10.5C12 11.3284 12.6716 12 13.5 12V10C13.7761 10 14 10.2239 14 10.5H12ZM14 12.5C14 12.7761 13.7761 13 13.5 13V11C12.6716 11 12 11.6716 12 12.5H14ZM13.5 12C13.7761 12 14 12.2239 14 12.5H12C12 13.3284 12.6716 14 13.5 14V12ZM13 12.5C13 12.2239 13.2239 12 13.5 12V14C14.3284 14 15 13.3284 15 12.5H13ZM13.5 13C13.2239 13 13 12.7761 13 12.5H15C15 11.6716 14.3284 11 13.5 11V13Z" fill="url(#paint5_linear_201_4383)" mask="url(#path-7-outside-2_201_4383)"/>
<rect x="12.5" y="2.5" width="11" height="2" rx="1" fill="url(#paint6_linear_201_4383)" stroke="white"/>
<rect x="12.5" y="2.5" width="11" height="11" stroke="url(#paint7_linear_201_4383)" stroke-opacity="0.66" style="mix-blend-mode:screen"/>
<path d="M5 9.5C4.72386 9.5 4.5 9.72386 4.5 10V11C4.5 11.2761 4.72386 11.5 5 11.5H5.67157C6.33461 11.5 6.9705 11.2366 7.43934 10.7678L10.5607 7.64645C10.6544 7.55268 10.7816 7.5 10.9142 7.5H12C12.2761 7.5 12.5 7.27614 12.5 7V6C12.5 5.72386 12.2761 5.5 12 5.5H10.8284C10.1654 5.5 9.5295 5.76339 9.06066 6.23223L5.93934 9.35355C5.84557 9.44732 5.71839 9.5 5.58579 9.5H5Z" fill="#76B56F" stroke="url(#paint8_linear_201_4383)" stroke-linecap="round" stroke-linejoin="round"/>
</g>
<defs>
<linearGradient id="paint0_linear_201_4383" x1="-7" y1="2" x2="5" y2="14" gradientUnits="userSpaceOnUse">
<stop stop-color="#9FC0ED"/>
<stop offset="1" stop-color="#5284C3"/>
</linearGradient>
<linearGradient id="paint1_linear_201_4383" x1="-0.5" y1="6" x2="-0.5" y2="13" gradientUnits="userSpaceOnUse">
<stop stop-color="#A6C3E9"/>
<stop offset="1" stop-color="#BFD3EB"/>
</linearGradient>
<linearGradient id="paint2_linear_201_4383" x1="-6" y1="3.5" x2="4" y2="3.5" gradientUnits="userSpaceOnUse">
<stop stop-color="#A5D59C"/>
<stop offset="1" stop-color="#7CBE76"/>
</linearGradient>
<linearGradient id="paint3_linear_201_4383" x1="-6.5" y1="2" x2="5" y2="14" gradientUnits="userSpaceOnUse">
<stop stop-color="#F4F7FB"/>
<stop offset="1" stop-color="#D8E2F0"/>
</linearGradient>
<linearGradient id="paint4_linear_201_4383" x1="12" y1="2" x2="24" y2="14" gradientUnits="userSpaceOnUse">
<stop stop-color="#9FC0ED"/>
<stop offset="1" stop-color="#5284C3"/>
</linearGradient>
<linearGradient id="paint5_linear_201_4383" x1="18.5" y1="6" x2="18.5" y2="13" gradientUnits="userSpaceOnUse">
<stop stop-color="#A6C3E9"/>
<stop offset="1" stop-color="#BFD3EB"/>
</linearGradient>
<linearGradient id="paint6_linear_201_4383" x1="13" y1="3.5" x2="23" y2="3.5" gradientUnits="userSpaceOnUse">
<stop stop-color="#A5D59C"/>
<stop offset="1" stop-color="#7CBE76"/>
</linearGradient>
<linearGradient id="paint7_linear_201_4383" x1="12.5" y1="2" x2="24" y2="14" gradientUnits="userSpaceOnUse">
<stop stop-color="#F4F7FB"/>
<stop offset="1" stop-color="#D8E2F0"/>
</linearGradient>
<linearGradient id="paint8_linear_201_4383" x1="10" y1="10" x2="7" y2="7" gradientUnits="userSpaceOnUse">
<stop offset="0.184409" stop-color="#3E8337"/>
<stop offset="0.903898" stop-color="#5FA25A"/>
</linearGradient>
<clipPath id="clip0_201_4383">
<rect width="16" height="16" fill="white"/>
</clipPath>
</defs>
</svg>
