<svg width="16" height="16" viewBox="0 0 16 16" fill="none" xmlns="http://www.w3.org/2000/svg">
<rect x="1.5" y="1.5" width="10" height="10" fill="white" stroke="url(#paint0_linear_201_5007)" stroke-linejoin="round"/>
<mask id="path-2-outside-1_201_5007" maskUnits="userSpaceOnUse" x="2" y="4" width="9" height="7" fill="black">
<rect fill="white" x="2" y="4" width="9" height="7"/>
<path fill-rule="evenodd" clip-rule="evenodd" d="M3.5 5C3.22386 5 3 5.22386 3 5.5C3 5.77614 3.22386 6 3.5 6C3.77614 6 4 5.77614 4 5.5C4 5.22386 3.77614 5 3.5 5ZM5.5 5C5.22386 5 5 5.22386 5 5.5C5 5.77614 5.22386 6 5.5 6H6.5C6.77614 6 7 5.77614 7 5.5C7 5.22386 6.77614 5 6.5 5H5.5ZM8 5.5C8 5.22386 8.22386 5 8.5 5H9.5C9.77614 5 10 5.22386 10 5.5C10 5.77614 9.77614 6 9.5 6H8.5C8.22386 6 8 5.77614 8 5.5ZM8 7.5C8 7.22386 8.22386 7 8.5 7H9.5C9.77614 7 10 7.22386 10 7.5C10 7.77614 9.77614 8 9.5 8H8.5C8.22386 8 8 7.77614 8 7.5ZM5 7.5C5 7.22386 5.22386 7 5.5 7H6.5C6.77614 7 7 7.22386 7 7.5C7 7.77614 6.77614 8 6.5 8H5.5C5.22386 8 5 7.77614 5 7.5ZM3 7.5C3 7.22386 3.22386 7 3.5 7C3.77614 7 4 7.22386 4 7.5C4 7.77614 3.77614 8 3.5 8C3.22386 8 3 7.77614 3 7.5ZM8.5 9C8.22386 9 8 9.22386 8 9.5C8 9.77614 8.22386 10 8.5 10H9.5C9.77614 10 10 9.77614 10 9.5C10 9.22386 9.77614 9 9.5 9H8.5ZM5 9.5C5 9.22386 5.22386 9 5.5 9H6.5C6.77614 9 7 9.22386 7 9.5C7 9.77614 6.77614 10 6.5 10H5.5C5.22386 10 5 9.77614 5 9.5ZM3.5 9C3.22386 9 3 9.22386 3 9.5C3 9.77614 3.22386 10 3.5 10C3.77614 10 4 9.77614 4 9.5C4 9.22386 3.77614 9 3.5 9Z"/>
</mask>
<path fill-rule="evenodd" clip-rule="evenodd" d="M3.5 5C3.22386 5 3 5.22386 3 5.5C3 5.77614 3.22386 6 3.5 6C3.77614 6 4 5.77614 4 5.5C4 5.22386 3.77614 5 3.5 5ZM5.5 5C5.22386 5 5 5.22386 5 5.5C5 5.77614 5.22386 6 5.5 6H6.5C6.77614 6 7 5.77614 7 5.5C7 5.22386 6.77614 5 6.5 5H5.5ZM8 5.5C8 5.22386 8.22386 5 8.5 5H9.5C9.77614 5 10 5.22386 10 5.5C10 5.77614 9.77614 6 9.5 6H8.5C8.22386 6 8 5.77614 8 5.5ZM8 7.5C8 7.22386 8.22386 7 8.5 7H9.5C9.77614 7 10 7.22386 10 7.5C10 7.77614 9.77614 8 9.5 8H8.5C8.22386 8 8 7.77614 8 7.5ZM5 7.5C5 7.22386 5.22386 7 5.5 7H6.5C6.77614 7 7 7.22386 7 7.5C7 7.77614 6.77614 8 6.5 8H5.5C5.22386 8 5 7.77614 5 7.5ZM3 7.5C3 7.22386 3.22386 7 3.5 7C3.77614 7 4 7.22386 4 7.5C4 7.77614 3.77614 8 3.5 8C3.22386 8 3 7.77614 3 7.5ZM8.5 9C8.22386 9 8 9.22386 8 9.5C8 9.77614 8.22386 10 8.5 10H9.5C9.77614 10 10 9.77614 10 9.5C10 9.22386 9.77614 9 9.5 9H8.5ZM5 9.5C5 9.22386 5.22386 9 5.5 9H6.5C6.77614 9 7 9.22386 7 9.5C7 9.77614 6.77614 10 6.5 10H5.5C5.22386 10 5 9.77614 5 9.5ZM3.5 9C3.22386 9 3 9.22386 3 9.5C3 9.77614 3.22386 10 3.5 10C3.77614 10 4 9.77614 4 9.5C4 9.22386 3.77614 9 3.5 9Z" fill="white"/>
<path d="M4 5.5C4 5.77614 3.77614 6 3.5 6V4C2.67157 4 2 4.67157 2 5.5H4ZM3.5 5C3.77614 5 4 5.22386 4 5.5H2C2 6.32843 2.67157 7 3.5 7V5ZM3 5.5C3 5.22386 3.22386 5 3.5 5V7C4.32843 7 5 6.32843 5 5.5H3ZM3.5 6C3.22386 6 3 5.77614 3 5.5H5C5 4.67157 4.32843 4 3.5 4V6ZM6 5.5C6 5.77614 5.77614 6 5.5 6V4C4.67157 4 4 4.67157 4 5.5H6ZM5.5 5C5.77614 5 6 5.22386 6 5.5H4C4 6.32843 4.67157 7 5.5 7V5ZM6.5 5H5.5V7H6.5V5ZM6 5.5C6 5.22386 6.22386 5 6.5 5V7C7.32843 7 8 6.32843 8 5.5H6ZM6.5 6C6.22386 6 6 5.77614 6 5.5H8C8 4.67157 7.32843 4 6.5 4V6ZM5.5 6H6.5V4H5.5V6ZM8.5 4C7.67157 4 7 4.67157 7 5.5H9C9 5.77614 8.77614 6 8.5 6V4ZM9.5 4H8.5V6H9.5V4ZM11 5.5C11 4.67157 10.3284 4 9.5 4V6C9.22386 6 9 5.77614 9 5.5H11ZM9.5 7C10.3284 7 11 6.32843 11 5.5H9C9 5.22386 9.22386 5 9.5 5V7ZM8.5 7H9.5V5H8.5V7ZM7 5.5C7 6.32843 7.67157 7 8.5 7V5C8.77614 5 9 5.22386 9 5.5H7ZM8.5 6C7.67157 6 7 6.67157 7 7.5H9C9 7.77614 8.77614 8 8.5 8V6ZM9.5 6H8.5V8H9.5V6ZM11 7.5C11 6.67157 10.3284 6 9.5 6V8C9.22386 8 9 7.77614 9 7.5H11ZM9.5 9C10.3284 9 11 8.32843 11 7.5H9C9 7.22386 9.22386 7 9.5 7V9ZM8.5 9H9.5V7H8.5V9ZM7 7.5C7 8.32843 7.67157 9 8.5 9V7C8.77614 7 9 7.22386 9 7.5H7ZM5.5 6C4.67157 6 4 6.67157 4 7.5H6C6 7.77614 5.77614 8 5.5 8V6ZM6.5 6H5.5V8H6.5V6ZM8 7.5C8 6.67157 7.32843 6 6.5 6V8C6.22386 8 6 7.77614 6 7.5H8ZM6.5 9C7.32843 9 8 8.32843 8 7.5H6C6 7.22386 6.22386 7 6.5 7V9ZM5.5 9H6.5V7H5.5V9ZM4 7.5C4 8.32843 4.67157 9 5.5 9V7C5.77614 7 6 7.22386 6 7.5H4ZM3.5 6C2.67157 6 2 6.67157 2 7.5H4C4 7.77614 3.77614 8 3.5 8V6ZM5 7.5C5 6.67157 4.32843 6 3.5 6V8C3.22386 8 3 7.77614 3 7.5H5ZM3.5 9C4.32843 9 5 8.32843 5 7.5H3C3 7.22386 3.22386 7 3.5 7V9ZM2 7.5C2 8.32843 2.67157 9 3.5 9V7C3.77614 7 4 7.22386 4 7.5H2ZM9 9.5C9 9.77614 8.77614 10 8.5 10V8C7.67157 8 7 8.67157 7 9.5H9ZM8.5 9C8.77614 9 9 9.22386 9 9.5H7C7 10.3284 7.67157 11 8.5 11V9ZM9.5 9H8.5V11H9.5V9ZM9 9.5C9 9.22386 9.22386 9 9.5 9V11C10.3284 11 11 10.3284 11 9.5H9ZM9.5 10C9.22386 10 9 9.77614 9 9.5H11C11 8.67157 10.3284 8 9.5 8V10ZM8.5 10H9.5V8H8.5V10ZM5.5 8C4.67157 8 4 8.67157 4 9.5H6C6 9.77614 5.77614 10 5.5 10V8ZM6.5 8H5.5V10H6.5V8ZM8 9.5C8 8.67157 7.32843 8 6.5 8V10C6.22386 10 6 9.77614 6 9.5H8ZM6.5 11C7.32843 11 8 10.3284 8 9.5H6C6 9.22386 6.22386 9 6.5 9V11ZM5.5 11H6.5V9H5.5V11ZM4 9.5C4 10.3284 4.67157 11 5.5 11V9C5.77614 9 6 9.22386 6 9.5H4ZM4 9.5C4 9.77614 3.77614 10 3.5 10V8C2.67157 8 2 8.67157 2 9.5H4ZM3.5 9C3.77614 9 4 9.22386 4 9.5H2C2 10.3284 2.67157 11 3.5 11V9ZM3 9.5C3 9.22386 3.22386 9 3.5 9V11C4.32843 11 5 10.3284 5 9.5H3ZM3.5 10C3.22386 10 3 9.77614 3 9.5H5C5 8.67157 4.32843 8 3.5 8V10Z" fill="url(#paint1_linear_201_5007)" mask="url(#path-2-outside-1_201_5007)"/>
<rect x="2.5" y="2.5" width="8" height="2" rx="1" fill="url(#paint2_linear_201_5007)" stroke="white"/>
<rect x="2.5" y="2.5" width="8" height="8" stroke="url(#paint3_linear_201_5007)" stroke-opacity="0.66" style="mix-blend-mode:screen"/>
<rect x="3.5" y="3.5" width="10" height="10" fill="white" stroke="url(#paint4_linear_201_5007)" stroke-linejoin="round"/>
<mask id="path-7-outside-2_201_5007" maskUnits="userSpaceOnUse" x="4" y="6" width="9" height="7" fill="black">
<rect fill="white" x="4" y="6" width="9" height="7"/>
<path fill-rule="evenodd" clip-rule="evenodd" d="M5.5 7C5.22386 7 5 7.22386 5 7.5C5 7.77614 5.22386 8 5.5 8C5.77614 8 6 7.77614 6 7.5C6 7.22386 5.77614 7 5.5 7ZM7.5 7C7.22386 7 7 7.22386 7 7.5C7 7.77614 7.22386 8 7.5 8H8.5C8.77614 8 9 7.77614 9 7.5C9 7.22386 8.77614 7 8.5 7H7.5ZM10 7.5C10 7.22386 10.2239 7 10.5 7H11.5C11.7761 7 12 7.22386 12 7.5C12 7.77614 11.7761 8 11.5 8H10.5C10.2239 8 10 7.77614 10 7.5ZM10 9.5C10 9.22386 10.2239 9 10.5 9H11.5C11.7761 9 12 9.22386 12 9.5C12 9.77614 11.7761 10 11.5 10H10.5C10.2239 10 10 9.77614 10 9.5ZM7 9.5C7 9.22386 7.22386 9 7.5 9H8.5C8.77614 9 9 9.22386 9 9.5C9 9.77614 8.77614 10 8.5 10H7.5C7.22386 10 7 9.77614 7 9.5ZM5 9.5C5 9.22386 5.22386 9 5.5 9C5.77614 9 6 9.22386 6 9.5C6 9.77614 5.77614 10 5.5 10C5.22386 10 5 9.77614 5 9.5ZM10.5 11C10.2239 11 10 11.2239 10 11.5C10 11.7761 10.2239 12 10.5 12H11.5C11.7761 12 12 11.7761 12 11.5C12 11.2239 11.7761 11 11.5 11H10.5ZM7 11.5C7 11.2239 7.22386 11 7.5 11H8.5C8.77614 11 9 11.2239 9 11.5C9 11.7761 8.77614 12 8.5 12H7.5C7.22386 12 7 11.7761 7 11.5ZM5.5 11C5.22386 11 5 11.2239 5 11.5C5 11.7761 5.22386 12 5.5 12C5.77614 12 6 11.7761 6 11.5C6 11.2239 5.77614 11 5.5 11Z"/>
</mask>
<path fill-rule="evenodd" clip-rule="evenodd" d="M5.5 7C5.22386 7 5 7.22386 5 7.5C5 7.77614 5.22386 8 5.5 8C5.77614 8 6 7.77614 6 7.5C6 7.22386 5.77614 7 5.5 7ZM7.5 7C7.22386 7 7 7.22386 7 7.5C7 7.77614 7.22386 8 7.5 8H8.5C8.77614 8 9 7.77614 9 7.5C9 7.22386 8.77614 7 8.5 7H7.5ZM10 7.5C10 7.22386 10.2239 7 10.5 7H11.5C11.7761 7 12 7.22386 12 7.5C12 7.77614 11.7761 8 11.5 8H10.5C10.2239 8 10 7.77614 10 7.5ZM10 9.5C10 9.22386 10.2239 9 10.5 9H11.5C11.7761 9 12 9.22386 12 9.5C12 9.77614 11.7761 10 11.5 10H10.5C10.2239 10 10 9.77614 10 9.5ZM7 9.5C7 9.22386 7.22386 9 7.5 9H8.5C8.77614 9 9 9.22386 9 9.5C9 9.77614 8.77614 10 8.5 10H7.5C7.22386 10 7 9.77614 7 9.5ZM5 9.5C5 9.22386 5.22386 9 5.5 9C5.77614 9 6 9.22386 6 9.5C6 9.77614 5.77614 10 5.5 10C5.22386 10 5 9.77614 5 9.5ZM10.5 11C10.2239 11 10 11.2239 10 11.5C10 11.7761 10.2239 12 10.5 12H11.5C11.7761 12 12 11.7761 12 11.5C12 11.2239 11.7761 11 11.5 11H10.5ZM7 11.5C7 11.2239 7.22386 11 7.5 11H8.5C8.77614 11 9 11.2239 9 11.5C9 11.7761 8.77614 12 8.5 12H7.5C7.22386 12 7 11.7761 7 11.5ZM5.5 11C5.22386 11 5 11.2239 5 11.5C5 11.7761 5.22386 12 5.5 12C5.77614 12 6 11.7761 6 11.5C6 11.2239 5.77614 11 5.5 11Z" fill="white"/>
<path d="M6 7.5C6 7.77614 5.77614 8 5.5 8V6C4.67157 6 4 6.67157 4 7.5H6ZM5.5 7C5.77614 7 6 7.22386 6 7.5H4C4 8.32843 4.67157 9 5.5 9V7ZM5 7.5C5 7.22386 5.22386 7 5.5 7V9C6.32843 9 7 8.32843 7 7.5H5ZM5.5 8C5.22386 8 5 7.77614 5 7.5H7C7 6.67157 6.32843 6 5.5 6V8ZM8 7.5C8 7.77614 7.77614 8 7.5 8V6C6.67157 6 6 6.67157 6 7.5H8ZM7.5 7C7.77614 7 8 7.22386 8 7.5H6C6 8.32843 6.67157 9 7.5 9V7ZM8.5 7H7.5V9H8.5V7ZM8 7.5C8 7.22386 8.22386 7 8.5 7V9C9.32843 9 10 8.32843 10 7.5H8ZM8.5 8C8.22386 8 8 7.77614 8 7.5H10C10 6.67157 9.32843 6 8.5 6V8ZM7.5 8H8.5V6H7.5V8ZM10.5 6C9.67157 6 9 6.67157 9 7.5H11C11 7.77614 10.7761 8 10.5 8V6ZM11.5 6H10.5V8H11.5V6ZM13 7.5C13 6.67157 12.3284 6 11.5 6V8C11.2239 8 11 7.77614 11 7.5H13ZM11.5 9C12.3284 9 13 8.32843 13 7.5H11C11 7.22386 11.2239 7 11.5 7V9ZM10.5 9H11.5V7H10.5V9ZM9 7.5C9 8.32843 9.67157 9 10.5 9V7C10.7761 7 11 7.22386 11 7.5H9ZM10.5 8C9.67157 8 9 8.67157 9 9.5H11C11 9.77614 10.7761 10 10.5 10V8ZM11.5 8H10.5V10H11.5V8ZM13 9.5C13 8.67157 12.3284 8 11.5 8V10C11.2239 10 11 9.77614 11 9.5H13ZM11.5 11C12.3284 11 13 10.3284 13 9.5H11C11 9.22386 11.2239 9 11.5 9V11ZM10.5 11H11.5V9H10.5V11ZM9 9.5C9 10.3284 9.67157 11 10.5 11V9C10.7761 9 11 9.22386 11 9.5H9ZM7.5 8C6.67157 8 6 8.67157 6 9.5H8C8 9.77614 7.77614 10 7.5 10V8ZM8.5 8H7.5V10H8.5V8ZM10 9.5C10 8.67157 9.32843 8 8.5 8V10C8.22386 10 8 9.77614 8 9.5H10ZM8.5 11C9.32843 11 10 10.3284 10 9.5H8C8 9.22386 8.22386 9 8.5 9V11ZM7.5 11H8.5V9H7.5V11ZM6 9.5C6 10.3284 6.67157 11 7.5 11V9C7.77614 9 8 9.22386 8 9.5H6ZM5.5 8C4.67157 8 4 8.67157 4 9.5H6C6 9.77614 5.77614 10 5.5 10V8ZM7 9.5C7 8.67157 6.32843 8 5.5 8V10C5.22386 10 5 9.77614 5 9.5H7ZM5.5 11C6.32843 11 7 10.3284 7 9.5H5C5 9.22386 5.22386 9 5.5 9V11ZM4 9.5C4 10.3284 4.67157 11 5.5 11V9C5.77614 9 6 9.22386 6 9.5H4ZM11 11.5C11 11.7761 10.7761 12 10.5 12V10C9.67157 10 9 10.6716 9 11.5H11ZM10.5 11C10.7761 11 11 11.2239 11 11.5H9C9 12.3284 9.67157 13 10.5 13V11ZM11.5 11H10.5V13H11.5V11ZM11 11.5C11 11.2239 11.2239 11 11.5 11V13C12.3284 13 13 12.3284 13 11.5H11ZM11.5 12C11.2239 12 11 11.7761 11 11.5H13C13 10.6716 12.3284 10 11.5 10V12ZM10.5 12H11.5V10H10.5V12ZM7.5 10C6.67157 10 6 10.6716 6 11.5H8C8 11.7761 7.77614 12 7.5 12V10ZM8.5 10H7.5V12H8.5V10ZM10 11.5C10 10.6716 9.32843 10 8.5 10V12C8.22386 12 8 11.7761 8 11.5H10ZM8.5 13C9.32843 13 10 12.3284 10 11.5H8C8 11.2239 8.22386 11 8.5 11V13ZM7.5 13H8.5V11H7.5V13ZM6 11.5C6 12.3284 6.67157 13 7.5 13V11C7.77614 11 8 11.2239 8 11.5H6ZM6 11.5C6 11.7761 5.77614 12 5.5 12V10C4.67157 10 4 10.6716 4 11.5H6ZM5.5 11C5.77614 11 6 11.2239 6 11.5H4C4 12.3284 4.67157 13 5.5 13V11ZM5 11.5C5 11.2239 5.22386 11 5.5 11V13C6.32843 13 7 12.3284 7 11.5H5ZM5.5 12C5.22386 12 5 11.7761 5 11.5H7C7 10.6716 6.32843 10 5.5 10V12Z" fill="url(#paint5_linear_201_5007)" mask="url(#path-7-outside-2_201_5007)"/>
<rect x="4.5" y="4.5" width="8" height="2" rx="1" fill="url(#paint6_linear_201_5007)" stroke="white"/>
<rect x="4.5" y="4.5" width="8" height="8" stroke="url(#paint7_linear_201_5007)" stroke-opacity="0.66" style="mix-blend-mode:screen"/>
<rect x="5.5" y="5.5" width="10" height="10" fill="white" stroke="url(#paint8_linear_201_5007)" stroke-linejoin="round"/>
<mask id="path-12-outside-3_201_5007" maskUnits="userSpaceOnUse" x="6" y="8" width="9" height="7" fill="black">
<rect fill="white" x="6" y="8" width="9" height="7"/>
<path fill-rule="evenodd" clip-rule="evenodd" d="M7.5 9C7.22386 9 7 9.22386 7 9.5C7 9.77614 7.22386 10 7.5 10C7.77614 10 8 9.77614 8 9.5C8 9.22386 7.77614 9 7.5 9ZM9.5 9C9.22386 9 9 9.22386 9 9.5C9 9.77614 9.22386 10 9.5 10H10.5C10.7761 10 11 9.77614 11 9.5C11 9.22386 10.7761 9 10.5 9H9.5ZM12 9.5C12 9.22386 12.2239 9 12.5 9H13.5C13.7761 9 14 9.22386 14 9.5C14 9.77614 13.7761 10 13.5 10H12.5C12.2239 10 12 9.77614 12 9.5ZM12 11.5C12 11.2239 12.2239 11 12.5 11H13.5C13.7761 11 14 11.2239 14 11.5C14 11.7761 13.7761 12 13.5 12H12.5C12.2239 12 12 11.7761 12 11.5ZM9 11.5C9 11.2239 9.22386 11 9.5 11H10.5C10.7761 11 11 11.2239 11 11.5C11 11.7761 10.7761 12 10.5 12H9.5C9.22386 12 9 11.7761 9 11.5ZM7 11.5C7 11.2239 7.22386 11 7.5 11C7.77614 11 8 11.2239 8 11.5C8 11.7761 7.77614 12 7.5 12C7.22386 12 7 11.7761 7 11.5ZM12.5 13C12.2239 13 12 13.2239 12 13.5C12 13.7761 12.2239 14 12.5 14H13.5C13.7761 14 14 13.7761 14 13.5C14 13.2239 13.7761 13 13.5 13H12.5ZM9 13.5C9 13.2239 9.22386 13 9.5 13H10.5C10.7761 13 11 13.2239 11 13.5C11 13.7761 10.7761 14 10.5 14H9.5C9.22386 14 9 13.7761 9 13.5ZM7.5 13C7.22386 13 7 13.2239 7 13.5C7 13.7761 7.22386 14 7.5 14C7.77614 14 8 13.7761 8 13.5C8 13.2239 7.77614 13 7.5 13Z"/>
</mask>
<path fill-rule="evenodd" clip-rule="evenodd" d="M7.5 9C7.22386 9 7 9.22386 7 9.5C7 9.77614 7.22386 10 7.5 10C7.77614 10 8 9.77614 8 9.5C8 9.22386 7.77614 9 7.5 9ZM9.5 9C9.22386 9 9 9.22386 9 9.5C9 9.77614 9.22386 10 9.5 10H10.5C10.7761 10 11 9.77614 11 9.5C11 9.22386 10.7761 9 10.5 9H9.5ZM12 9.5C12 9.22386 12.2239 9 12.5 9H13.5C13.7761 9 14 9.22386 14 9.5C14 9.77614 13.7761 10 13.5 10H12.5C12.2239 10 12 9.77614 12 9.5ZM12 11.5C12 11.2239 12.2239 11 12.5 11H13.5C13.7761 11 14 11.2239 14 11.5C14 11.7761 13.7761 12 13.5 12H12.5C12.2239 12 12 11.7761 12 11.5ZM9 11.5C9 11.2239 9.22386 11 9.5 11H10.5C10.7761 11 11 11.2239 11 11.5C11 11.7761 10.7761 12 10.5 12H9.5C9.22386 12 9 11.7761 9 11.5ZM7 11.5C7 11.2239 7.22386 11 7.5 11C7.77614 11 8 11.2239 8 11.5C8 11.7761 7.77614 12 7.5 12C7.22386 12 7 11.7761 7 11.5ZM12.5 13C12.2239 13 12 13.2239 12 13.5C12 13.7761 12.2239 14 12.5 14H13.5C13.7761 14 14 13.7761 14 13.5C14 13.2239 13.7761 13 13.5 13H12.5ZM9 13.5C9 13.2239 9.22386 13 9.5 13H10.5C10.7761 13 11 13.2239 11 13.5C11 13.7761 10.7761 14 10.5 14H9.5C9.22386 14 9 13.7761 9 13.5ZM7.5 13C7.22386 13 7 13.2239 7 13.5C7 13.7761 7.22386 14 7.5 14C7.77614 14 8 13.7761 8 13.5C8 13.2239 7.77614 13 7.5 13Z" fill="white"/>
<path d="M8 9.5C8 9.77614 7.77614 10 7.5 10V8C6.67157 8 6 8.67157 6 9.5H8ZM7.5 9C7.77614 9 8 9.22386 8 9.5H6C6 10.3284 6.67157 11 7.5 11V9ZM7 9.5C7 9.22386 7.22386 9 7.5 9V11C8.32843 11 9 10.3284 9 9.5H7ZM7.5 10C7.22386 10 7 9.77614 7 9.5H9C9 8.67157 8.32843 8 7.5 8V10ZM10 9.5C10 9.77614 9.77614 10 9.5 10V8C8.67157 8 8 8.67157 8 9.5H10ZM9.5 9C9.77614 9 10 9.22386 10 9.5H8C8 10.3284 8.67157 11 9.5 11V9ZM10.5 9H9.5V11H10.5V9ZM10 9.5C10 9.22386 10.2239 9 10.5 9V11C11.3284 11 12 10.3284 12 9.5H10ZM10.5 10C10.2239 10 10 9.77614 10 9.5H12C12 8.67157 11.3284 8 10.5 8V10ZM9.5 10H10.5V8H9.5V10ZM12.5 8C11.6716 8 11 8.67157 11 9.5H13C13 9.77614 12.7761 10 12.5 10V8ZM13.5 8H12.5V10H13.5V8ZM15 9.5C15 8.67157 14.3284 8 13.5 8V10C13.2239 10 13 9.77614 13 9.5H15ZM13.5 11C14.3284 11 15 10.3284 15 9.5H13C13 9.22386 13.2239 9 13.5 9V11ZM12.5 11H13.5V9H12.5V11ZM11 9.5C11 10.3284 11.6716 11 12.5 11V9C12.7761 9 13 9.22386 13 9.5H11ZM12.5 10C11.6716 10 11 10.6716 11 11.5H13C13 11.7761 12.7761 12 12.5 12V10ZM13.5 10H12.5V12H13.5V10ZM15 11.5C15 10.6716 14.3284 10 13.5 10V12C13.2239 12 13 11.7761 13 11.5H15ZM13.5 13C14.3284 13 15 12.3284 15 11.5H13C13 11.2239 13.2239 11 13.5 11V13ZM12.5 13H13.5V11H12.5V13ZM11 11.5C11 12.3284 11.6716 13 12.5 13V11C12.7761 11 13 11.2239 13 11.5H11ZM9.5 10C8.67157 10 8 10.6716 8 11.5H10C10 11.7761 9.77614 12 9.5 12V10ZM10.5 10H9.5V12H10.5V10ZM12 11.5C12 10.6716 11.3284 10 10.5 10V12C10.2239 12 10 11.7761 10 11.5H12ZM10.5 13C11.3284 13 12 12.3284 12 11.5H10C10 11.2239 10.2239 11 10.5 11V13ZM9.5 13H10.5V11H9.5V13ZM8 11.5C8 12.3284 8.67157 13 9.5 13V11C9.77614 11 10 11.2239 10 11.5H8ZM7.5 10C6.67157 10 6 10.6716 6 11.5H8C8 11.7761 7.77614 12 7.5 12V10ZM9 11.5C9 10.6716 8.32843 10 7.5 10V12C7.22386 12 7 11.7761 7 11.5H9ZM7.5 13C8.32843 13 9 12.3284 9 11.5H7C7 11.2239 7.22386 11 7.5 11V13ZM6 11.5C6 12.3284 6.67157 13 7.5 13V11C7.77614 11 8 11.2239 8 11.5H6ZM13 13.5C13 13.7761 12.7761 14 12.5 14V12C11.6716 12 11 12.6716 11 13.5H13ZM12.5 13C12.7761 13 13 13.2239 13 13.5H11C11 14.3284 11.6716 15 12.5 15V13ZM13.5 13H12.5V15H13.5V13ZM13 13.5C13 13.2239 13.2239 13 13.5 13V15C14.3284 15 15 14.3284 15 13.5H13ZM13.5 14C13.2239 14 13 13.7761 13 13.5H15C15 12.6716 14.3284 12 13.5 12V14ZM12.5 14H13.5V12H12.5V14ZM9.5 12C8.67157 12 8 12.6716 8 13.5H10C10 13.7761 9.77614 14 9.5 14V12ZM10.5 12H9.5V14H10.5V12ZM12 13.5C12 12.6716 11.3284 12 10.5 12V14C10.2239 14 10 13.7761 10 13.5H12ZM10.5 15C11.3284 15 12 14.3284 12 13.5H10C10 13.2239 10.2239 13 10.5 13V15ZM9.5 15H10.5V13H9.5V15ZM8 13.5C8 14.3284 8.67157 15 9.5 15V13C9.77614 13 10 13.2239 10 13.5H8ZM8 13.5C8 13.7761 7.77614 14 7.5 14V12C6.67157 12 6 12.6716 6 13.5H8ZM7.5 13C7.77614 13 8 13.2239 8 13.5H6C6 14.3284 6.67157 15 7.5 15V13ZM7 13.5C7 13.2239 7.22386 13 7.5 13V15C8.32843 15 9 14.3284 9 13.5H7ZM7.5 14C7.22386 14 7 13.7761 7 13.5H9C9 12.6716 8.32843 12 7.5 12V14Z" fill="url(#paint9_linear_201_5007)" mask="url(#path-12-outside-3_201_5007)"/>
<rect x="6.5" y="6.5" width="8" height="2" rx="1" fill="url(#paint10_linear_201_5007)" stroke="white"/>
<rect x="6.5" y="6.5" width="8" height="8" stroke="url(#paint11_linear_201_5007)" stroke-opacity="0.66" style="mix-blend-mode:screen"/>
<defs>
<linearGradient id="paint0_linear_201_5007" x1="2" y1="2" x2="11" y2="11" gradientUnits="userSpaceOnUse">
<stop stop-color="#9FC0ED"/>
<stop offset="1" stop-color="#5284C3"/>
</linearGradient>
<linearGradient id="paint1_linear_201_5007" x1="8.50001" y1="6.66667" x2="8.50001" y2="11.6667" gradientUnits="userSpaceOnUse">
<stop stop-color="#A6C3E9"/>
<stop offset="1" stop-color="#BFD3EB"/>
</linearGradient>
<linearGradient id="paint2_linear_201_5007" x1="3" y1="3.5" x2="10" y2="3.5" gradientUnits="userSpaceOnUse">
<stop stop-color="#A5D59C"/>
<stop offset="1" stop-color="#7CBE76"/>
</linearGradient>
<linearGradient id="paint3_linear_201_5007" x1="2.375" y1="2" x2="11" y2="11" gradientUnits="userSpaceOnUse">
<stop stop-color="#F4F7FB"/>
<stop offset="1" stop-color="#D8E2F0"/>
</linearGradient>
<linearGradient id="paint4_linear_201_5007" x1="4" y1="4" x2="13" y2="13" gradientUnits="userSpaceOnUse">
<stop stop-color="#9FC0ED"/>
<stop offset="1" stop-color="#5284C3"/>
</linearGradient>
<linearGradient id="paint5_linear_201_5007" x1="10.5" y1="8.66667" x2="10.5" y2="13.6667" gradientUnits="userSpaceOnUse">
<stop stop-color="#A6C3E9"/>
<stop offset="1" stop-color="#BFD3EB"/>
</linearGradient>
<linearGradient id="paint6_linear_201_5007" x1="5" y1="5.5" x2="12" y2="5.5" gradientUnits="userSpaceOnUse">
<stop stop-color="#A5D59C"/>
<stop offset="1" stop-color="#7CBE76"/>
</linearGradient>
<linearGradient id="paint7_linear_201_5007" x1="4.375" y1="4" x2="13" y2="13" gradientUnits="userSpaceOnUse">
<stop stop-color="#F4F7FB"/>
<stop offset="1" stop-color="#D8E2F0"/>
</linearGradient>
<linearGradient id="paint8_linear_201_5007" x1="6" y1="6" x2="15" y2="15" gradientUnits="userSpaceOnUse">
<stop stop-color="#9FC0ED"/>
<stop offset="1" stop-color="#5284C3"/>
</linearGradient>
<linearGradient id="paint9_linear_201_5007" x1="12.5" y1="10.6667" x2="12.5" y2="15.6667" gradientUnits="userSpaceOnUse">
<stop stop-color="#A6C3E9"/>
<stop offset="1" stop-color="#BFD3EB"/>
</linearGradient>
<linearGradient id="paint10_linear_201_5007" x1="7" y1="7.5" x2="14" y2="7.5" gradientUnits="userSpaceOnUse">
<stop stop-color="#A5D59C"/>
<stop offset="1" stop-color="#7CBE76"/>
</linearGradient>
<linearGradient id="paint11_linear_201_5007" x1="6.375" y1="6" x2="15" y2="15" gradientUnits="userSpaceOnUse">
<stop stop-color="#F4F7FB"/>
<stop offset="1" stop-color="#D8E2F0"/>
</linearGradient>
</defs>
</svg>
