<svg width="16" height="16" viewBox="0 0 16 16" fill="none" xmlns="http://www.w3.org/2000/svg">
<g clip-path="url(#clip0_201_4379)">
<rect x="0.5" y="0.5" width="13" height="13" fill="white" stroke="url(#paint0_linear_201_4379)" stroke-linejoin="round"/>
<mask id="path-2-outside-1_201_4379" maskUnits="userSpaceOnUse" x="1" y="4" width="12" height="9" fill="black">
<rect fill="white" x="1" y="4" width="12" height="9"/>
<path fill-rule="evenodd" clip-rule="evenodd" d="M2 5.5C2 5.22386 2.22386 5 2.5 5C2.77614 5 3 5.22386 3 5.5C3 5.77614 2.77614 6 2.5 6C2.22386 6 2 5.77614 2 5.5ZM4 5.5C4 5.22386 4.22386 5 4.5 5H7.5C7.77614 5 8 5.22386 8 5.5C8 5.77614 7.77614 6 7.5 6H4.5C4.22386 6 4 5.77614 4 5.5ZM9.5 5C9.22386 5 9 5.22386 9 5.5C9 5.77614 9.22386 6 9.5 6H11.5C11.7761 6 12 5.77614 12 5.5C12 5.22386 11.7761 5 11.5 5H9.5ZM9.5 7C9.22386 7 9 7.22386 9 7.5C9 7.77614 9.22386 8 9.5 8H11.5C11.7761 8 12 7.77614 12 7.5C12 7.22386 11.7761 7 11.5 7H9.5ZM9 9.5C9 9.22386 9.22386 9 9.5 9H11.5C11.7761 9 12 9.22386 12 9.5C12 9.77614 11.7761 10 11.5 10H9.5C9.22386 10 9 9.77614 9 9.5ZM9.5 11C9.22386 11 9 11.2239 9 11.5C9 11.7761 9.22386 12 9.5 12H11.5C11.7761 12 12 11.7761 12 11.5C12 11.2239 11.7761 11 11.5 11H9.5ZM4.5 11C4.22386 11 4 11.2239 4 11.5C4 11.7761 4.22386 12 4.5 12H7.5C7.77614 12 8 11.7761 8 11.5C8 11.2239 7.77614 11 7.5 11H4.5ZM4 9.5C4 9.22386 4.22386 9 4.5 9H7.5C7.77614 9 8 9.22386 8 9.5C8 9.77614 7.77614 10 7.5 10H4.5C4.22386 10 4 9.77614 4 9.5ZM4.5 7C4.22386 7 4 7.22386 4 7.5C4 7.77614 4.22386 8 4.5 8H7.5C7.77614 8 8 7.77614 8 7.5C8 7.22386 7.77614 7 7.5 7H4.5ZM2.5 7C2.22386 7 2 7.22386 2 7.5C2 7.77614 2.22386 8 2.5 8C2.77614 8 3 7.77614 3 7.5C3 7.22386 2.77614 7 2.5 7ZM2 9.5C2 9.22386 2.22386 9 2.5 9C2.77614 9 3 9.22386 3 9.5C3 9.77614 2.77614 10 2.5 10C2.22386 10 2 9.77614 2 9.5ZM2.5 11C2.22386 11 2 11.2239 2 11.5C2 11.7761 2.22386 12 2.5 12C2.77614 12 3 11.7761 3 11.5C3 11.2239 2.77614 11 2.5 11Z"/>
</mask>
<path fill-rule="evenodd" clip-rule="evenodd" d="M2 5.5C2 5.22386 2.22386 5 2.5 5C2.77614 5 3 5.22386 3 5.5C3 5.77614 2.77614 6 2.5 6C2.22386 6 2 5.77614 2 5.5ZM4 5.5C4 5.22386 4.22386 5 4.5 5H7.5C7.77614 5 8 5.22386 8 5.5C8 5.77614 7.77614 6 7.5 6H4.5C4.22386 6 4 5.77614 4 5.5ZM9.5 5C9.22386 5 9 5.22386 9 5.5C9 5.77614 9.22386 6 9.5 6H11.5C11.7761 6 12 5.77614 12 5.5C12 5.22386 11.7761 5 11.5 5H9.5ZM9.5 7C9.22386 7 9 7.22386 9 7.5C9 7.77614 9.22386 8 9.5 8H11.5C11.7761 8 12 7.77614 12 7.5C12 7.22386 11.7761 7 11.5 7H9.5ZM9 9.5C9 9.22386 9.22386 9 9.5 9H11.5C11.7761 9 12 9.22386 12 9.5C12 9.77614 11.7761 10 11.5 10H9.5C9.22386 10 9 9.77614 9 9.5ZM9.5 11C9.22386 11 9 11.2239 9 11.5C9 11.7761 9.22386 12 9.5 12H11.5C11.7761 12 12 11.7761 12 11.5C12 11.2239 11.7761 11 11.5 11H9.5ZM4.5 11C4.22386 11 4 11.2239 4 11.5C4 11.7761 4.22386 12 4.5 12H7.5C7.77614 12 8 11.7761 8 11.5C8 11.2239 7.77614 11 7.5 11H4.5ZM4 9.5C4 9.22386 4.22386 9 4.5 9H7.5C7.77614 9 8 9.22386 8 9.5C8 9.77614 7.77614 10 7.5 10H4.5C4.22386 10 4 9.77614 4 9.5ZM4.5 7C4.22386 7 4 7.22386 4 7.5C4 7.77614 4.22386 8 4.5 8H7.5C7.77614 8 8 7.77614 8 7.5C8 7.22386 7.77614 7 7.5 7H4.5ZM2.5 7C2.22386 7 2 7.22386 2 7.5C2 7.77614 2.22386 8 2.5 8C2.77614 8 3 7.77614 3 7.5C3 7.22386 2.77614 7 2.5 7ZM2 9.5C2 9.22386 2.22386 9 2.5 9C2.77614 9 3 9.22386 3 9.5C3 9.77614 2.77614 10 2.5 10C2.22386 10 2 9.77614 2 9.5ZM2.5 11C2.22386 11 2 11.2239 2 11.5C2 11.7761 2.22386 12 2.5 12C2.77614 12 3 11.7761 3 11.5C3 11.2239 2.77614 11 2.5 11Z" fill="white"/>
<path d="M2.5 4C1.67157 4 1 4.67157 1 5.5H3C3 5.77614 2.77614 6 2.5 6V4ZM4 5.5C4 4.67157 3.32843 4 2.5 4V6C2.22386 6 2 5.77614 2 5.5H4ZM2.5 7C3.32843 7 4 6.32843 4 5.5H2C2 5.22386 2.22386 5 2.5 5V7ZM1 5.5C1 6.32843 1.67157 7 2.5 7V5C2.77614 5 3 5.22386 3 5.5H1ZM4.5 4C3.67157 4 3 4.67157 3 5.5H5C5 5.77614 4.77614 6 4.5 6V4ZM7.5 4H4.5V6H7.5V4ZM9 5.5C9 4.67157 8.32843 4 7.5 4V6C7.22386 6 7 5.77614 7 5.5H9ZM7.5 7C8.32843 7 9 6.32843 9 5.5H7C7 5.22386 7.22386 5 7.5 5V7ZM4.5 7H7.5V5H4.5V7ZM3 5.5C3 6.32843 3.67157 7 4.5 7V5C4.77614 5 5 5.22386 5 5.5H3ZM10 5.5C10 5.77614 9.77614 6 9.5 6V4C8.67157 4 8 4.67157 8 5.5H10ZM9.5 5C9.77614 5 10 5.22386 10 5.5H8C8 6.32843 8.67157 7 9.5 7V5ZM11.5 5H9.5V7H11.5V5ZM11 5.5C11 5.22386 11.2239 5 11.5 5V7C12.3284 7 13 6.32843 13 5.5H11ZM11.5 6C11.2239 6 11 5.77614 11 5.5H13C13 4.67157 12.3284 4 11.5 4V6ZM9.5 6H11.5V4H9.5V6ZM10 7.5C10 7.77614 9.77614 8 9.5 8V6C8.67157 6 8 6.67157 8 7.5H10ZM9.5 7C9.77614 7 10 7.22386 10 7.5H8C8 8.32843 8.67157 9 9.5 9V7ZM11.5 7H9.5V9H11.5V7ZM11 7.5C11 7.22386 11.2239 7 11.5 7V9C12.3284 9 13 8.32843 13 7.5H11ZM11.5 8C11.2239 8 11 7.77614 11 7.5H13C13 6.67157 12.3284 6 11.5 6V8ZM9.5 8H11.5V6H9.5V8ZM9.5 8C8.67157 8 8 8.67157 8 9.5H10C10 9.77614 9.77614 10 9.5 10V8ZM11.5 8H9.5V10H11.5V8ZM13 9.5C13 8.67157 12.3284 8 11.5 8V10C11.2239 10 11 9.77614 11 9.5H13ZM11.5 11C12.3284 11 13 10.3284 13 9.5H11C11 9.22386 11.2239 9 11.5 9V11ZM9.5 11H11.5V9H9.5V11ZM8 9.5C8 10.3284 8.67157 11 9.5 11V9C9.77614 9 10 9.22386 10 9.5H8ZM10 11.5C10 11.7761 9.77614 12 9.5 12V10C8.67157 10 8 10.6716 8 11.5H10ZM9.5 11C9.77614 11 10 11.2239 10 11.5H8C8 12.3284 8.67157 13 9.5 13V11ZM11.5 11H9.5V13H11.5V11ZM11 11.5C11 11.2239 11.2239 11 11.5 11V13C12.3284 13 13 12.3284 13 11.5H11ZM11.5 12C11.2239 12 11 11.7761 11 11.5H13C13 10.6716 12.3284 10 11.5 10V12ZM9.5 12H11.5V10H9.5V12ZM5 11.5C5 11.7761 4.77614 12 4.5 12V10C3.67157 10 3 10.6716 3 11.5H5ZM4.5 11C4.77614 11 5 11.2239 5 11.5H3C3 12.3284 3.67157 13 4.5 13V11ZM7.5 11H4.5V13H7.5V11ZM7 11.5C7 11.2239 7.22386 11 7.5 11V13C8.32843 13 9 12.3284 9 11.5H7ZM7.5 12C7.22386 12 7 11.7761 7 11.5H9C9 10.6716 8.32843 10 7.5 10V12ZM4.5 12H7.5V10H4.5V12ZM4.5 8C3.67157 8 3 8.67157 3 9.5H5C5 9.77614 4.77614 10 4.5 10V8ZM7.5 8H4.5V10H7.5V8ZM9 9.5C9 8.67157 8.32843 8 7.5 8V10C7.22386 10 7 9.77614 7 9.5H9ZM7.5 11C8.32843 11 9 10.3284 9 9.5H7C7 9.22386 7.22386 9 7.5 9V11ZM4.5 11H7.5V9H4.5V11ZM3 9.5C3 10.3284 3.67157 11 4.5 11V9C4.77614 9 5 9.22386 5 9.5H3ZM5 7.5C5 7.77614 4.77614 8 4.5 8V6C3.67157 6 3 6.67157 3 7.5H5ZM4.5 7C4.77614 7 5 7.22386 5 7.5H3C3 8.32843 3.67157 9 4.5 9V7ZM7.5 7H4.5V9H7.5V7ZM7 7.5C7 7.22386 7.22386 7 7.5 7V9C8.32843 9 9 8.32843 9 7.5H7ZM7.5 8C7.22386 8 7 7.77614 7 7.5H9C9 6.67157 8.32843 6 7.5 6V8ZM4.5 8H7.5V6H4.5V8ZM3 7.5C3 7.77614 2.77614 8 2.5 8V6C1.67157 6 1 6.67157 1 7.5H3ZM2.5 7C2.77614 7 3 7.22386 3 7.5H1C1 8.32843 1.67157 9 2.5 9V7ZM2 7.5C2 7.22386 2.22386 7 2.5 7V9C3.32843 9 4 8.32843 4 7.5H2ZM2.5 8C2.22386 8 2 7.77614 2 7.5H4C4 6.67157 3.32843 6 2.5 6V8ZM2.5 8C1.67157 8 1 8.67157 1 9.5H3C3 9.77614 2.77614 10 2.5 10V8ZM4 9.5C4 8.67157 3.32843 8 2.5 8V10C2.22386 10 2 9.77614 2 9.5H4ZM2.5 11C3.32843 11 4 10.3284 4 9.5H2C2 9.22386 2.22386 9 2.5 9V11ZM1 9.5C1 10.3284 1.67157 11 2.5 11V9C2.77614 9 3 9.22386 3 9.5H1ZM3 11.5C3 11.7761 2.77614 12 2.5 12V10C1.67157 10 1 10.6716 1 11.5H3ZM2.5 11C2.77614 11 3 11.2239 3 11.5H1C1 12.3284 1.67157 13 2.5 13V11ZM2 11.5C2 11.2239 2.22386 11 2.5 11V13C3.32843 13 4 12.3284 4 11.5H2ZM2.5 12C2.22386 12 2 11.7761 2 11.5H4C4 10.6716 3.32843 10 2.5 10V12Z" fill="url(#paint1_linear_201_4379)" mask="url(#path-2-outside-1_201_4379)"/>
<rect x="1.5" y="1.5" width="11" height="2" rx="1" fill="url(#paint2_linear_201_4379)" stroke="white"/>
<rect x="1.5" y="1.5" width="11" height="11" stroke="url(#paint3_linear_201_4379)" stroke-opacity="0.66" style="mix-blend-mode:screen"/>
<mask id="path-6-outside-2_201_4379" maskUnits="userSpaceOnUse" x="6" y="6" width="10" height="10" fill="black">
<rect fill="white" x="6" y="6" width="10" height="10"/>
<path fill-rule="evenodd" clip-rule="evenodd" d="M7 15V13.5L10 11V8.5L11.5 7H13L15 9V10.5L13.5 12H11V13H10V14H9V15H7ZM13 8L14 9L13 10L12 9L13 8Z"/>
</mask>
<g filter="url(#filter0_i_201_4379)">
<path fill-rule="evenodd" clip-rule="evenodd" d="M7 15V13.5L10 11V8.5L11.5 7H13L15 9V10.5L13.5 12H11V13H10V14H9V15H7ZM13 8L14 9L13 10L12 9L13 8Z" fill="#F4D847"/>
</g>
<path d="M7 13.5L6.35982 12.7318L6 13.0316V13.5H7ZM7 15H6V16H7V15ZM10 11L10.6402 11.7682L11 11.4684V11H10ZM10 8.5L9.29289 7.79289L9 8.08579V8.5H10ZM11.5 7V6H11.0858L10.7929 6.29289L11.5 7ZM13 7L13.7071 6.29289L13.4142 6H13V7ZM15 9H16V8.58579L15.7071 8.29289L15 9ZM15 10.5L15.7071 11.2071L16 10.9142V10.5H15ZM13.5 12V13H13.9142L14.2071 12.7071L13.5 12ZM11 12V11H10V12H11ZM11 13V14H12V13H11ZM10 13V12H9V13H10ZM10 14V15H11V14H10ZM9 14V13H8V14H9ZM9 15V16H10V15H9ZM14 9L14.7071 9.70711L15.4142 9L14.7071 8.29289L14 9ZM13 8L13.7071 7.29289L13 6.58579L12.2929 7.29289L13 8ZM13 10L12.2929 10.7071L13 11.4142L13.7071 10.7071L13 10ZM12 9L11.2929 8.29289L10.5858 9L11.2929 9.70711L12 9ZM6 13.5V15H8V13.5H6ZM9.35982 10.2318L6.35982 12.7318L7.64018 14.2682L10.6402 11.7682L9.35982 10.2318ZM9 8.5V11H11V8.5H9ZM10.7929 6.29289L9.29289 7.79289L10.7071 9.20711L12.2071 7.70711L10.7929 6.29289ZM13 6H11.5V8H13V6ZM15.7071 8.29289L13.7071 6.29289L12.2929 7.70711L14.2929 9.70711L15.7071 8.29289ZM16 10.5V9H14V10.5H16ZM14.2071 12.7071L15.7071 11.2071L14.2929 9.79289L12.7929 11.2929L14.2071 12.7071ZM11 13H13.5V11H11V13ZM12 13V12H10V13H12ZM10 14H11V12H10V14ZM11 14V13H9V14H11ZM9 15H10V13H9V15ZM10 15V14H8V15H10ZM7 16H9V14H7V16ZM14.7071 8.29289L13.7071 7.29289L12.2929 8.70711L13.2929 9.70711L14.7071 8.29289ZM13.7071 10.7071L14.7071 9.70711L13.2929 8.29289L12.2929 9.29289L13.7071 10.7071ZM11.2929 9.70711L12.2929 10.7071L13.7071 9.29289L12.7071 8.29289L11.2929 9.70711ZM12.2929 7.29289L11.2929 8.29289L12.7071 9.70711L13.7071 8.70711L12.2929 7.29289Z" fill="url(#paint4_linear_201_4379)" mask="url(#path-6-outside-2_201_4379)"/>
</g>
<defs>
<filter id="filter0_i_201_4379" x="6" y="6" width="10" height="10" filterUnits="userSpaceOnUse" color-interpolation-filters="sRGB">
<feFlood flood-opacity="0" result="BackgroundImageFix"/>
<feBlend mode="normal" in="SourceGraphic" in2="BackgroundImageFix" result="shape"/>
<feColorMatrix in="SourceAlpha" type="matrix" values="0 0 0 0 0 0 0 0 0 0 0 0 0 0 0 0 0 0 127 0" result="hardAlpha"/>
<feOffset dx="2" dy="1"/>
<feComposite in2="hardAlpha" operator="arithmetic" k2="-1" k3="1"/>
<feColorMatrix type="matrix" values="0 0 0 0 1 0 0 0 0 1 0 0 0 0 1 0 0 0 0.5 0"/>
<feBlend mode="normal" in2="shape" result="effect1_innerShadow_201_4379"/>
</filter>
<linearGradient id="paint0_linear_201_4379" x1="1" y1="1" x2="13" y2="13" gradientUnits="userSpaceOnUse">
<stop stop-color="#9FC0ED"/>
<stop offset="1" stop-color="#5284C3"/>
</linearGradient>
<linearGradient id="paint1_linear_201_4379" x1="7.5" y1="5" x2="7.5" y2="12" gradientUnits="userSpaceOnUse">
<stop stop-color="#A6C3E9"/>
<stop offset="1" stop-color="#BFD3EB"/>
</linearGradient>
<linearGradient id="paint2_linear_201_4379" x1="2" y1="2.5" x2="12" y2="2.5" gradientUnits="userSpaceOnUse">
<stop stop-color="#A5D59C"/>
<stop offset="1" stop-color="#7CBE76"/>
</linearGradient>
<linearGradient id="paint3_linear_201_4379" x1="1.5" y1="1" x2="13" y2="13" gradientUnits="userSpaceOnUse">
<stop stop-color="#F4F7FB"/>
<stop offset="1" stop-color="#D8E2F0"/>
</linearGradient>
<linearGradient id="paint4_linear_201_4379" x1="8.5" y1="8.5" x2="12.7612" y2="14.0656" gradientUnits="userSpaceOnUse">
<stop stop-color="#EAC15E"/>
<stop offset="1" stop-color="#C98032"/>
</linearGradient>
<clipPath id="clip0_201_4379">
<rect width="16" height="16" fill="white"/>
</clipPath>
</defs>
</svg>
