<svg width="16" height="16" viewBox="0 0 16 16" fill="none" xmlns="http://www.w3.org/2000/svg">
<rect x="0.5" y="1.5" width="13" height="13" fill="white" stroke="url(#paint0_linear_201_4384)" stroke-linejoin="round"/>
<mask id="path-2-outside-1_201_4384" maskUnits="userSpaceOnUse" x="1" y="5" width="12" height="9" fill="black">
<rect fill="white" x="1" y="5" width="12" height="9"/>
<path fill-rule="evenodd" clip-rule="evenodd" d="M2 6.5C2 6.22386 2.22386 6 2.5 6C2.77614 6 3 6.22386 3 6.5C3 6.77614 2.77614 7 2.5 7C2.22386 7 2 6.77614 2 6.5ZM4 6.5C4 6.22386 4.22386 6 4.5 6H7.5C7.77614 6 8 6.22386 8 6.5C8 6.77614 7.77614 7 7.5 7H4.5C4.22386 7 4 6.77614 4 6.5ZM9.5 6C9.22386 6 9 6.22386 9 6.5C9 6.77614 9.22386 7 9.5 7H11.5C11.7761 7 12 6.77614 12 6.5C12 6.22386 11.7761 6 11.5 6H9.5ZM9.5 8C9.22386 8 9 8.22386 9 8.5C9 8.77614 9.22386 9 9.5 9H11.5C11.7761 9 12 8.77614 12 8.5C12 8.22386 11.7761 8 11.5 8H9.5ZM9 10.5C9 10.2239 9.22386 10 9.5 10H11.5C11.7761 10 12 10.2239 12 10.5C12 10.7761 11.7761 11 11.5 11H9.5C9.22386 11 9 10.7761 9 10.5ZM9.5 12C9.22386 12 9 12.2239 9 12.5C9 12.7761 9.22386 13 9.5 13H11.5C11.7761 13 12 12.7761 12 12.5C12 12.2239 11.7761 12 11.5 12H9.5ZM4.5 12C4.22386 12 4 12.2239 4 12.5C4 12.7761 4.22386 13 4.5 13H7.5C7.77614 13 8 12.7761 8 12.5C8 12.2239 7.77614 12 7.5 12H4.5ZM4 10.5C4 10.2239 4.22386 10 4.5 10H7.5C7.77614 10 8 10.2239 8 10.5C8 10.7761 7.77614 11 7.5 11H4.5C4.22386 11 4 10.7761 4 10.5ZM4.5 8C4.22386 8 4 8.22386 4 8.5C4 8.77614 4.22386 9 4.5 9H7.5C7.77614 9 8 8.77614 8 8.5C8 8.22386 7.77614 8 7.5 8H4.5ZM2.5 8C2.22386 8 2 8.22386 2 8.5C2 8.77614 2.22386 9 2.5 9C2.77614 9 3 8.77614 3 8.5C3 8.22386 2.77614 8 2.5 8ZM2 10.5C2 10.2239 2.22386 10 2.5 10C2.77614 10 3 10.2239 3 10.5C3 10.7761 2.77614 11 2.5 11C2.22386 11 2 10.7761 2 10.5ZM2.5 12C2.22386 12 2 12.2239 2 12.5C2 12.7761 2.22386 13 2.5 13C2.77614 13 3 12.7761 3 12.5C3 12.2239 2.77614 12 2.5 12Z"/>
</mask>
<path fill-rule="evenodd" clip-rule="evenodd" d="M2 6.5C2 6.22386 2.22386 6 2.5 6C2.77614 6 3 6.22386 3 6.5C3 6.77614 2.77614 7 2.5 7C2.22386 7 2 6.77614 2 6.5ZM4 6.5C4 6.22386 4.22386 6 4.5 6H7.5C7.77614 6 8 6.22386 8 6.5C8 6.77614 7.77614 7 7.5 7H4.5C4.22386 7 4 6.77614 4 6.5ZM9.5 6C9.22386 6 9 6.22386 9 6.5C9 6.77614 9.22386 7 9.5 7H11.5C11.7761 7 12 6.77614 12 6.5C12 6.22386 11.7761 6 11.5 6H9.5ZM9.5 8C9.22386 8 9 8.22386 9 8.5C9 8.77614 9.22386 9 9.5 9H11.5C11.7761 9 12 8.77614 12 8.5C12 8.22386 11.7761 8 11.5 8H9.5ZM9 10.5C9 10.2239 9.22386 10 9.5 10H11.5C11.7761 10 12 10.2239 12 10.5C12 10.7761 11.7761 11 11.5 11H9.5C9.22386 11 9 10.7761 9 10.5ZM9.5 12C9.22386 12 9 12.2239 9 12.5C9 12.7761 9.22386 13 9.5 13H11.5C11.7761 13 12 12.7761 12 12.5C12 12.2239 11.7761 12 11.5 12H9.5ZM4.5 12C4.22386 12 4 12.2239 4 12.5C4 12.7761 4.22386 13 4.5 13H7.5C7.77614 13 8 12.7761 8 12.5C8 12.2239 7.77614 12 7.5 12H4.5ZM4 10.5C4 10.2239 4.22386 10 4.5 10H7.5C7.77614 10 8 10.2239 8 10.5C8 10.7761 7.77614 11 7.5 11H4.5C4.22386 11 4 10.7761 4 10.5ZM4.5 8C4.22386 8 4 8.22386 4 8.5C4 8.77614 4.22386 9 4.5 9H7.5C7.77614 9 8 8.77614 8 8.5C8 8.22386 7.77614 8 7.5 8H4.5ZM2.5 8C2.22386 8 2 8.22386 2 8.5C2 8.77614 2.22386 9 2.5 9C2.77614 9 3 8.77614 3 8.5C3 8.22386 2.77614 8 2.5 8ZM2 10.5C2 10.2239 2.22386 10 2.5 10C2.77614 10 3 10.2239 3 10.5C3 10.7761 2.77614 11 2.5 11C2.22386 11 2 10.7761 2 10.5ZM2.5 12C2.22386 12 2 12.2239 2 12.5C2 12.7761 2.22386 13 2.5 13C2.77614 13 3 12.7761 3 12.5C3 12.2239 2.77614 12 2.5 12Z" fill="white"/>
<path d="M2.5 5C1.67157 5 1 5.67157 1 6.5H3C3 6.77614 2.77614 7 2.5 7V5ZM4 6.5C4 5.67157 3.32843 5 2.5 5V7C2.22386 7 2 6.77614 2 6.5H4ZM2.5 8C3.32843 8 4 7.32843 4 6.5H2C2 6.22386 2.22386 6 2.5 6V8ZM1 6.5C1 7.32843 1.67157 8 2.5 8V6C2.77614 6 3 6.22386 3 6.5H1ZM4.5 5C3.67157 5 3 5.67157 3 6.5H5C5 6.77614 4.77614 7 4.5 7V5ZM7.5 5H4.5V7H7.5V5ZM9 6.5C9 5.67157 8.32843 5 7.5 5V7C7.22386 7 7 6.77614 7 6.5H9ZM7.5 8C8.32843 8 9 7.32843 9 6.5H7C7 6.22386 7.22386 6 7.5 6V8ZM4.5 8H7.5V6H4.5V8ZM3 6.5C3 7.32843 3.67157 8 4.5 8V6C4.77614 6 5 6.22386 5 6.5H3ZM10 6.5C10 6.77614 9.77614 7 9.5 7V5C8.67157 5 8 5.67157 8 6.5H10ZM9.5 6C9.77614 6 10 6.22386 10 6.5H8C8 7.32843 8.67157 8 9.5 8V6ZM11.5 6H9.5V8H11.5V6ZM11 6.5C11 6.22386 11.2239 6 11.5 6V8C12.3284 8 13 7.32843 13 6.5H11ZM11.5 7C11.2239 7 11 6.77614 11 6.5H13C13 5.67157 12.3284 5 11.5 5V7ZM9.5 7H11.5V5H9.5V7ZM10 8.5C10 8.77614 9.77614 9 9.5 9V7C8.67157 7 8 7.67157 8 8.5H10ZM9.5 8C9.77614 8 10 8.22386 10 8.5H8C8 9.32843 8.67157 10 9.5 10V8ZM11.5 8H9.5V10H11.5V8ZM11 8.5C11 8.22386 11.2239 8 11.5 8V10C12.3284 10 13 9.32843 13 8.5H11ZM11.5 9C11.2239 9 11 8.77614 11 8.5H13C13 7.67157 12.3284 7 11.5 7V9ZM9.5 9H11.5V7H9.5V9ZM9.5 9C8.67157 9 8 9.67157 8 10.5H10C10 10.7761 9.77614 11 9.5 11V9ZM11.5 9H9.5V11H11.5V9ZM13 10.5C13 9.67157 12.3284 9 11.5 9V11C11.2239 11 11 10.7761 11 10.5H13ZM11.5 12C12.3284 12 13 11.3284 13 10.5H11C11 10.2239 11.2239 10 11.5 10V12ZM9.5 12H11.5V10H9.5V12ZM8 10.5C8 11.3284 8.67157 12 9.5 12V10C9.77614 10 10 10.2239 10 10.5H8ZM10 12.5C10 12.7761 9.77614 13 9.5 13V11C8.67157 11 8 11.6716 8 12.5H10ZM9.5 12C9.77614 12 10 12.2239 10 12.5H8C8 13.3284 8.67157 14 9.5 14V12ZM11.5 12H9.5V14H11.5V12ZM11 12.5C11 12.2239 11.2239 12 11.5 12V14C12.3284 14 13 13.3284 13 12.5H11ZM11.5 13C11.2239 13 11 12.7761 11 12.5H13C13 11.6716 12.3284 11 11.5 11V13ZM9.5 13H11.5V11H9.5V13ZM5 12.5C5 12.7761 4.77614 13 4.5 13V11C3.67157 11 3 11.6716 3 12.5H5ZM4.5 12C4.77614 12 5 12.2239 5 12.5H3C3 13.3284 3.67157 14 4.5 14V12ZM7.5 12H4.5V14H7.5V12ZM7 12.5C7 12.2239 7.22386 12 7.5 12V14C8.32843 14 9 13.3284 9 12.5H7ZM7.5 13C7.22386 13 7 12.7761 7 12.5H9C9 11.6716 8.32843 11 7.5 11V13ZM4.5 13H7.5V11H4.5V13ZM4.5 9C3.67157 9 3 9.67157 3 10.5H5C5 10.7761 4.77614 11 4.5 11V9ZM7.5 9H4.5V11H7.5V9ZM9 10.5C9 9.67157 8.32843 9 7.5 9V11C7.22386 11 7 10.7761 7 10.5H9ZM7.5 12C8.32843 12 9 11.3284 9 10.5H7C7 10.2239 7.22386 10 7.5 10V12ZM4.5 12H7.5V10H4.5V12ZM3 10.5C3 11.3284 3.67157 12 4.5 12V10C4.77614 10 5 10.2239 5 10.5H3ZM5 8.5C5 8.77614 4.77614 9 4.5 9V7C3.67157 7 3 7.67157 3 8.5H5ZM4.5 8C4.77614 8 5 8.22386 5 8.5H3C3 9.32843 3.67157 10 4.5 10V8ZM7.5 8H4.5V10H7.5V8ZM7 8.5C7 8.22386 7.22386 8 7.5 8V10C8.32843 10 9 9.32843 9 8.5H7ZM7.5 9C7.22386 9 7 8.77614 7 8.5H9C9 7.67157 8.32843 7 7.5 7V9ZM4.5 9H7.5V7H4.5V9ZM3 8.5C3 8.77614 2.77614 9 2.5 9V7C1.67157 7 1 7.67157 1 8.5H3ZM2.5 8C2.77614 8 3 8.22386 3 8.5H1C1 9.32843 1.67157 10 2.5 10V8ZM2 8.5C2 8.22386 2.22386 8 2.5 8V10C3.32843 10 4 9.32843 4 8.5H2ZM2.5 9C2.22386 9 2 8.77614 2 8.5H4C4 7.67157 3.32843 7 2.5 7V9ZM2.5 9C1.67157 9 1 9.67157 1 10.5H3C3 10.7761 2.77614 11 2.5 11V9ZM4 10.5C4 9.67157 3.32843 9 2.5 9V11C2.22386 11 2 10.7761 2 10.5H4ZM2.5 12C3.32843 12 4 11.3284 4 10.5H2C2 10.2239 2.22386 10 2.5 10V12ZM1 10.5C1 11.3284 1.67157 12 2.5 12V10C2.77614 10 3 10.2239 3 10.5H1ZM3 12.5C3 12.7761 2.77614 13 2.5 13V11C1.67157 11 1 11.6716 1 12.5H3ZM2.5 12C2.77614 12 3 12.2239 3 12.5H1C1 13.3284 1.67157 14 2.5 14V12ZM2 12.5C2 12.2239 2.22386 12 2.5 12V14C3.32843 14 4 13.3284 4 12.5H2ZM2.5 13C2.22386 13 2 12.7761 2 12.5H4C4 11.6716 3.32843 11 2.5 11V13Z" fill="url(#paint1_linear_201_4384)" mask="url(#path-2-outside-1_201_4384)"/>
<rect x="1.5" y="2.5" width="11" height="2" rx="1" fill="url(#paint2_linear_201_4384)" stroke="white"/>
<rect x="1.5" y="2.5" width="11" height="11" stroke="url(#paint3_linear_201_4384)" stroke-opacity="0.66" style="mix-blend-mode:screen"/>
<mask id="path-6-inside-2_201_4384" fill="white">
<path fill-rule="evenodd" clip-rule="evenodd" d="M12 12V12.5C12 12.7761 12.2239 13 12.5 13L15 10.5L12.5 8C12.2239 8 12 8.22386 12 8.5L12 9L10.5 9C9.67157 9 9 9.67157 9 10.5C9 11.3284 9.67157 12 10.5 12L12 12ZM9 10.5C9 9.67157 8.32843 9 7.5 9L2.5 9C1.67157 9 1 9.67157 1 10.5C1 11.3284 1.67157 12 2.5 12L7.5 12C8.32843 12 9 11.3284 9 10.5Z"/>
</mask>
<g filter="url(#filter0_i_201_4384)">
<path fill-rule="evenodd" clip-rule="evenodd" d="M12 12V12.5C12 12.7761 12.2239 13 12.5 13L15 10.5L12.5 8C12.2239 8 12 8.22386 12 8.5L12 9L10.5 9C9.67157 9 9 9.67157 9 10.5C9 11.3284 9.67157 12 10.5 12L12 12ZM9 10.5C9 9.67157 8.32843 9 7.5 9L2.5 9C1.67157 9 1 9.67157 1 10.5C1 11.3284 1.67157 12 2.5 12L7.5 12C8.32843 12 9 11.3284 9 10.5Z" fill="#FDCEC4"/>
</g>
<path d="M12 12L12 11C12.2652 11 12.5196 11.1054 12.7071 11.2929C12.8946 11.4804 13 11.7348 13 12H12ZM12.5 13L13.2071 13.7071C13.0196 13.8946 12.7652 14 12.5 14V13ZM15 10.5L15.7071 9.79289C15.8946 9.98043 16 10.2348 16 10.5C16 10.7652 15.8946 11.0196 15.7071 11.2071L15 10.5ZM12.5 8V7C12.7652 7 13.0196 7.10536 13.2071 7.29289L12.5 8ZM12 8.5L11 8.5V8.5H12ZM12 9L13 9C13 9.26522 12.8946 9.51957 12.7071 9.70711C12.5196 9.89464 12.2652 10 12 10V9ZM10.5 9V8V9ZM10.5 12L10.5 13H10.5V12ZM7.5 9V8V9ZM2.5 9V8V8V9ZM2.5 12V13V12ZM7.5 12V11H7.5L7.5 12ZM11 12.5V12H13V12.5H11ZM12.5 14C11.6716 14 11 13.3284 11 12.5H13C13 12.2239 12.7761 12 12.5 12V14ZM15.7071 11.2071L13.2071 13.7071L11.7929 12.2929L14.2929 9.79289L15.7071 11.2071ZM13.2071 7.29289L15.7071 9.79289L14.2929 11.2071L11.7929 8.70711L13.2071 7.29289ZM11 8.5C11 7.67157 11.6716 7 12.5 7V9C12.7761 9 13 8.77614 13 8.5H11ZM11 9L11 8.5L13 8.5L13 9L11 9ZM10.5 8L12 8V10H10.5V8ZM8 10.5C8 9.11929 9.11929 8 10.5 8V10C10.2239 10 10 10.2239 10 10.5L8 10.5ZM10.5 13C9.11929 13 8 11.8807 8 10.5H10C10 10.7761 10.2239 11 10.5 11V13ZM12 13L10.5 13L10.5 11L12 11L12 13ZM7.5 8C8.88071 8 10 9.11929 10 10.5H8C8 10.2239 7.77614 10 7.5 10V8ZM2.5 8L7.5 8V10L2.5 10V8ZM0 10.5C0 9.11929 1.11929 8 2.5 8V10C2.22386 10 2 10.2239 2 10.5H0ZM2.5 13C1.11929 13 0 11.8807 0 10.5H2C2 10.7761 2.22386 11 2.5 11V13ZM7.5 13H2.5V11L7.5 11V13ZM10 10.5C10 11.8807 8.88071 13 7.5 13L7.5 11C7.77614 11 8 10.7761 8 10.5H10Z" fill="url(#paint4_linear_201_4384)" mask="url(#path-6-inside-2_201_4384)"/>
<defs>
<filter id="filter0_i_201_4384" x="1" y="8" width="16" height="7" filterUnits="userSpaceOnUse" color-interpolation-filters="sRGB">
<feFlood flood-opacity="0" result="BackgroundImageFix"/>
<feBlend mode="normal" in="SourceGraphic" in2="BackgroundImageFix" result="shape"/>
<feColorMatrix in="SourceAlpha" type="matrix" values="0 0 0 0 0 0 0 0 0 0 0 0 0 0 0 0 0 0 127 0" result="hardAlpha"/>
<feOffset dx="2" dy="2"/>
<feGaussianBlur stdDeviation="1"/>
<feComposite in2="hardAlpha" operator="arithmetic" k2="-1" k3="1"/>
<feColorMatrix type="matrix" values="0 0 0 0 1 0 0 0 0 1 0 0 0 0 1 0 0 0 0.25 0"/>
<feBlend mode="normal" in2="shape" result="effect1_innerShadow_201_4384"/>
</filter>
<linearGradient id="paint0_linear_201_4384" x1="1" y1="2" x2="13" y2="14" gradientUnits="userSpaceOnUse">
<stop stop-color="#9FC0ED"/>
<stop offset="1" stop-color="#5284C3"/>
</linearGradient>
<linearGradient id="paint1_linear_201_4384" x1="7.5" y1="6" x2="7.5" y2="13" gradientUnits="userSpaceOnUse">
<stop stop-color="#A6C3E9"/>
<stop offset="1" stop-color="#BFD3EB"/>
</linearGradient>
<linearGradient id="paint2_linear_201_4384" x1="2" y1="3.5" x2="12" y2="3.5" gradientUnits="userSpaceOnUse">
<stop stop-color="#A5D59C"/>
<stop offset="1" stop-color="#7CBE76"/>
</linearGradient>
<linearGradient id="paint3_linear_201_4384" x1="1.5" y1="2" x2="13" y2="14" gradientUnits="userSpaceOnUse">
<stop stop-color="#F4F7FB"/>
<stop offset="1" stop-color="#D8E2F0"/>
</linearGradient>
<linearGradient id="paint4_linear_201_4384" x1="1" y1="8" x2="10.8383" y2="3.6302" gradientUnits="userSpaceOnUse">
<stop stop-color="#FF7A76"/>
<stop offset="1" stop-color="#EB121D"/>
</linearGradient>
</defs>
</svg>
