<svg width="16" height="16" viewBox="0 0 16 16" fill="none" xmlns="http://www.w3.org/2000/svg">
<rect x="1.5" y="1.5" width="13" height="13" fill="white" stroke="url(#paint0_linear_201_4381)" stroke-linejoin="round"/>
<mask id="path-2-outside-1_201_4381" maskUnits="userSpaceOnUse" x="2" y="5" width="12" height="9" fill="black">
<rect fill="white" x="2" y="5" width="12" height="9"/>
<path fill-rule="evenodd" clip-rule="evenodd" d="M3 6.5C3 6.22386 3.22386 6 3.5 6C3.77614 6 4 6.22386 4 6.5C4 6.77614 3.77614 7 3.5 7C3.22386 7 3 6.77614 3 6.5ZM5 6.5C5 6.22386 5.22386 6 5.5 6H8.5C8.77614 6 9 6.22386 9 6.5C9 6.77614 8.77614 7 8.5 7H5.5C5.22386 7 5 6.77614 5 6.5ZM10.5 6C10.2239 6 10 6.22386 10 6.5C10 6.77614 10.2239 7 10.5 7H12.5C12.7761 7 13 6.77614 13 6.5C13 6.22386 12.7761 6 12.5 6H10.5ZM10.5 8C10.2239 8 10 8.22386 10 8.5C10 8.77614 10.2239 9 10.5 9H12.5C12.7761 9 13 8.77614 13 8.5C13 8.22386 12.7761 8 12.5 8H10.5ZM10 10.5C10 10.2239 10.2239 10 10.5 10H12.5C12.7761 10 13 10.2239 13 10.5C13 10.7761 12.7761 11 12.5 11H10.5C10.2239 11 10 10.7761 10 10.5ZM10.5 12C10.2239 12 10 12.2239 10 12.5C10 12.7761 10.2239 13 10.5 13H12.5C12.7761 13 13 12.7761 13 12.5C13 12.2239 12.7761 12 12.5 12H10.5ZM5.5 12C5.22386 12 5 12.2239 5 12.5C5 12.7761 5.22386 13 5.5 13H8.5C8.77614 13 9 12.7761 9 12.5C9 12.2239 8.77614 12 8.5 12H5.5ZM5 10.5C5 10.2239 5.22386 10 5.5 10H8.5C8.77614 10 9 10.2239 9 10.5C9 10.7761 8.77614 11 8.5 11H5.5C5.22386 11 5 10.7761 5 10.5ZM5.5 8C5.22386 8 5 8.22386 5 8.5C5 8.77614 5.22386 9 5.5 9H8.5C8.77614 9 9 8.77614 9 8.5C9 8.22386 8.77614 8 8.5 8H5.5ZM3.5 8C3.22386 8 3 8.22386 3 8.5C3 8.77614 3.22386 9 3.5 9C3.77614 9 4 8.77614 4 8.5C4 8.22386 3.77614 8 3.5 8ZM3 10.5C3 10.2239 3.22386 10 3.5 10C3.77614 10 4 10.2239 4 10.5C4 10.7761 3.77614 11 3.5 11C3.22386 11 3 10.7761 3 10.5ZM3.5 12C3.22386 12 3 12.2239 3 12.5C3 12.7761 3.22386 13 3.5 13C3.77614 13 4 12.7761 4 12.5C4 12.2239 3.77614 12 3.5 12Z"/>
</mask>
<path fill-rule="evenodd" clip-rule="evenodd" d="M3 6.5C3 6.22386 3.22386 6 3.5 6C3.77614 6 4 6.22386 4 6.5C4 6.77614 3.77614 7 3.5 7C3.22386 7 3 6.77614 3 6.5ZM5 6.5C5 6.22386 5.22386 6 5.5 6H8.5C8.77614 6 9 6.22386 9 6.5C9 6.77614 8.77614 7 8.5 7H5.5C5.22386 7 5 6.77614 5 6.5ZM10.5 6C10.2239 6 10 6.22386 10 6.5C10 6.77614 10.2239 7 10.5 7H12.5C12.7761 7 13 6.77614 13 6.5C13 6.22386 12.7761 6 12.5 6H10.5ZM10.5 8C10.2239 8 10 8.22386 10 8.5C10 8.77614 10.2239 9 10.5 9H12.5C12.7761 9 13 8.77614 13 8.5C13 8.22386 12.7761 8 12.5 8H10.5ZM10 10.5C10 10.2239 10.2239 10 10.5 10H12.5C12.7761 10 13 10.2239 13 10.5C13 10.7761 12.7761 11 12.5 11H10.5C10.2239 11 10 10.7761 10 10.5ZM10.5 12C10.2239 12 10 12.2239 10 12.5C10 12.7761 10.2239 13 10.5 13H12.5C12.7761 13 13 12.7761 13 12.5C13 12.2239 12.7761 12 12.5 12H10.5ZM5.5 12C5.22386 12 5 12.2239 5 12.5C5 12.7761 5.22386 13 5.5 13H8.5C8.77614 13 9 12.7761 9 12.5C9 12.2239 8.77614 12 8.5 12H5.5ZM5 10.5C5 10.2239 5.22386 10 5.5 10H8.5C8.77614 10 9 10.2239 9 10.5C9 10.7761 8.77614 11 8.5 11H5.5C5.22386 11 5 10.7761 5 10.5ZM5.5 8C5.22386 8 5 8.22386 5 8.5C5 8.77614 5.22386 9 5.5 9H8.5C8.77614 9 9 8.77614 9 8.5C9 8.22386 8.77614 8 8.5 8H5.5ZM3.5 8C3.22386 8 3 8.22386 3 8.5C3 8.77614 3.22386 9 3.5 9C3.77614 9 4 8.77614 4 8.5C4 8.22386 3.77614 8 3.5 8ZM3 10.5C3 10.2239 3.22386 10 3.5 10C3.77614 10 4 10.2239 4 10.5C4 10.7761 3.77614 11 3.5 11C3.22386 11 3 10.7761 3 10.5ZM3.5 12C3.22386 12 3 12.2239 3 12.5C3 12.7761 3.22386 13 3.5 13C3.77614 13 4 12.7761 4 12.5C4 12.2239 3.77614 12 3.5 12Z" fill="white"/>
<path d="M3.5 5C2.67157 5 2 5.67157 2 6.5H4C4 6.77614 3.77614 7 3.5 7V5ZM5 6.5C5 5.67157 4.32843 5 3.5 5V7C3.22386 7 3 6.77614 3 6.5H5ZM3.5 8C4.32843 8 5 7.32843 5 6.5H3C3 6.22386 3.22386 6 3.5 6V8ZM2 6.5C2 7.32843 2.67157 8 3.5 8V6C3.77614 6 4 6.22386 4 6.5H2ZM5.5 5C4.67157 5 4 5.67157 4 6.5H6C6 6.77614 5.77614 7 5.5 7V5ZM8.5 5H5.5V7H8.5V5ZM10 6.5C10 5.67157 9.32843 5 8.5 5V7C8.22386 7 8 6.77614 8 6.5H10ZM8.5 8C9.32843 8 10 7.32843 10 6.5H8C8 6.22386 8.22386 6 8.5 6V8ZM5.5 8H8.5V6H5.5V8ZM4 6.5C4 7.32843 4.67157 8 5.5 8V6C5.77614 6 6 6.22386 6 6.5H4ZM11 6.5C11 6.77614 10.7761 7 10.5 7V5C9.67157 5 9 5.67157 9 6.5H11ZM10.5 6C10.7761 6 11 6.22386 11 6.5H9C9 7.32843 9.67157 8 10.5 8V6ZM12.5 6H10.5V8H12.5V6ZM12 6.5C12 6.22386 12.2239 6 12.5 6V8C13.3284 8 14 7.32843 14 6.5H12ZM12.5 7C12.2239 7 12 6.77614 12 6.5H14C14 5.67157 13.3284 5 12.5 5V7ZM10.5 7H12.5V5H10.5V7ZM11 8.5C11 8.77614 10.7761 9 10.5 9V7C9.67157 7 9 7.67157 9 8.5H11ZM10.5 8C10.7761 8 11 8.22386 11 8.5H9C9 9.32843 9.67157 10 10.5 10V8ZM12.5 8H10.5V10H12.5V8ZM12 8.5C12 8.22386 12.2239 8 12.5 8V10C13.3284 10 14 9.32843 14 8.5H12ZM12.5 9C12.2239 9 12 8.77614 12 8.5H14C14 7.67157 13.3284 7 12.5 7V9ZM10.5 9H12.5V7H10.5V9ZM10.5 9C9.67157 9 9 9.67157 9 10.5H11C11 10.7761 10.7761 11 10.5 11V9ZM12.5 9H10.5V11H12.5V9ZM14 10.5C14 9.67157 13.3284 9 12.5 9V11C12.2239 11 12 10.7761 12 10.5H14ZM12.5 12C13.3284 12 14 11.3284 14 10.5H12C12 10.2239 12.2239 10 12.5 10V12ZM10.5 12H12.5V10H10.5V12ZM9 10.5C9 11.3284 9.67157 12 10.5 12V10C10.7761 10 11 10.2239 11 10.5H9ZM11 12.5C11 12.7761 10.7761 13 10.5 13V11C9.67157 11 9 11.6716 9 12.5H11ZM10.5 12C10.7761 12 11 12.2239 11 12.5H9C9 13.3284 9.67157 14 10.5 14V12ZM12.5 12H10.5V14H12.5V12ZM12 12.5C12 12.2239 12.2239 12 12.5 12V14C13.3284 14 14 13.3284 14 12.5H12ZM12.5 13C12.2239 13 12 12.7761 12 12.5H14C14 11.6716 13.3284 11 12.5 11V13ZM10.5 13H12.5V11H10.5V13ZM6 12.5C6 12.7761 5.77614 13 5.5 13V11C4.67157 11 4 11.6716 4 12.5H6ZM5.5 12C5.77614 12 6 12.2239 6 12.5H4C4 13.3284 4.67157 14 5.5 14V12ZM8.5 12H5.5V14H8.5V12ZM8 12.5C8 12.2239 8.22386 12 8.5 12V14C9.32843 14 10 13.3284 10 12.5H8ZM8.5 13C8.22386 13 8 12.7761 8 12.5H10C10 11.6716 9.32843 11 8.5 11V13ZM5.5 13H8.5V11H5.5V13ZM5.5 9C4.67157 9 4 9.67157 4 10.5H6C6 10.7761 5.77614 11 5.5 11V9ZM8.5 9H5.5V11H8.5V9ZM10 10.5C10 9.67157 9.32843 9 8.5 9V11C8.22386 11 8 10.7761 8 10.5H10ZM8.5 12C9.32843 12 10 11.3284 10 10.5H8C8 10.2239 8.22386 10 8.5 10V12ZM5.5 12H8.5V10H5.5V12ZM4 10.5C4 11.3284 4.67157 12 5.5 12V10C5.77614 10 6 10.2239 6 10.5H4ZM6 8.5C6 8.77614 5.77614 9 5.5 9V7C4.67157 7 4 7.67157 4 8.5H6ZM5.5 8C5.77614 8 6 8.22386 6 8.5H4C4 9.32843 4.67157 10 5.5 10V8ZM8.5 8H5.5V10H8.5V8ZM8 8.5C8 8.22386 8.22386 8 8.5 8V10C9.32843 10 10 9.32843 10 8.5H8ZM8.5 9C8.22386 9 8 8.77614 8 8.5H10C10 7.67157 9.32843 7 8.5 7V9ZM5.5 9H8.5V7H5.5V9ZM4 8.5C4 8.77614 3.77614 9 3.5 9V7C2.67157 7 2 7.67157 2 8.5H4ZM3.5 8C3.77614 8 4 8.22386 4 8.5H2C2 9.32843 2.67157 10 3.5 10V8ZM3 8.5C3 8.22386 3.22386 8 3.5 8V10C4.32843 10 5 9.32843 5 8.5H3ZM3.5 9C3.22386 9 3 8.77614 3 8.5H5C5 7.67157 4.32843 7 3.5 7V9ZM3.5 9C2.67157 9 2 9.67157 2 10.5H4C4 10.7761 3.77614 11 3.5 11V9ZM5 10.5C5 9.67157 4.32843 9 3.5 9V11C3.22386 11 3 10.7761 3 10.5H5ZM3.5 12C4.32843 12 5 11.3284 5 10.5H3C3 10.2239 3.22386 10 3.5 10V12ZM2 10.5C2 11.3284 2.67157 12 3.5 12V10C3.77614 10 4 10.2239 4 10.5H2ZM4 12.5C4 12.7761 3.77614 13 3.5 13V11C2.67157 11 2 11.6716 2 12.5H4ZM3.5 12C3.77614 12 4 12.2239 4 12.5H2C2 13.3284 2.67157 14 3.5 14V12ZM3 12.5C3 12.2239 3.22386 12 3.5 12V14C4.32843 14 5 13.3284 5 12.5H3ZM3.5 13C3.22386 13 3 12.7761 3 12.5H5C5 11.6716 4.32843 11 3.5 11V13Z" fill="url(#paint1_linear_201_4381)" mask="url(#path-2-outside-1_201_4381)"/>
<rect x="2.5" y="2.5" width="11" height="2" rx="1" fill="url(#paint2_linear_201_4381)" stroke="white"/>
<rect x="2.5" y="2.5" width="11" height="11" stroke="url(#paint3_linear_201_4381)" stroke-opacity="0.66" style="mix-blend-mode:screen"/>
<mask id="path-6-inside-2_201_4381" fill="white">
<path fill-rule="evenodd" clip-rule="evenodd" d="M6.5 16C8.433 16 10 14.433 10 12.5C10 10.567 8.433 9 6.5 9C4.567 9 3 10.567 3 12.5C3 14.433 4.567 16 6.5 16ZM6.5 13C6.77614 13 7 12.7761 7 12.5C7 12.2239 6.77614 12 6.5 12C6.22386 12 6 12.2239 6 12.5C6 12.7761 6.22386 13 6.5 13Z"/>
</mask>
<path fill-rule="evenodd" clip-rule="evenodd" d="M6.5 16C8.433 16 10 14.433 10 12.5C10 10.567 8.433 9 6.5 9C4.567 9 3 10.567 3 12.5C3 14.433 4.567 16 6.5 16ZM6.5 13C6.77614 13 7 12.7761 7 12.5C7 12.2239 6.77614 12 6.5 12C6.22386 12 6 12.2239 6 12.5C6 12.7761 6.22386 13 6.5 13Z" fill="url(#paint4_linear_201_4381)"/>
<path d="M9 12.5C9 13.8807 7.88071 15 6.5 15V17C8.98528 17 11 14.9853 11 12.5H9ZM6.5 10C7.88071 10 9 11.1193 9 12.5H11C11 10.0147 8.98528 8 6.5 8V10ZM4 12.5C4 11.1193 5.11929 10 6.5 10V8C4.01472 8 2 10.0147 2 12.5H4ZM6.5 15C5.11929 15 4 13.8807 4 12.5H2C2 14.9853 4.01472 17 6.5 17V15ZM6 12.5C6 12.2239 6.22386 12 6.5 12V14C7.32843 14 8 13.3284 8 12.5H6ZM6.5 13C6.22386 13 6 12.7761 6 12.5H8C8 11.6716 7.32843 11 6.5 11V13ZM7 12.5C7 12.7761 6.77614 13 6.5 13V11C5.67157 11 5 11.6716 5 12.5H7ZM6.5 12C6.77614 12 7 12.2239 7 12.5H5C5 13.3284 5.67157 14 6.5 14V12Z" fill="url(#paint5_linear_201_4381)" mask="url(#path-6-inside-2_201_4381)"/>
<mask id="path-8-inside-3_201_4381" fill="white">
<path fill-rule="evenodd" clip-rule="evenodd" d="M12.5 16C14.433 16 16 14.433 16 12.5C16 10.567 14.433 9 12.5 9C10.567 9 9 10.567 9 12.5C9 14.433 10.567 16 12.5 16ZM12.5 13C12.7761 13 13 12.7761 13 12.5C13 12.2239 12.7761 12 12.5 12C12.2239 12 12 12.2239 12 12.5C12 12.7761 12.2239 13 12.5 13Z"/>
</mask>
<path fill-rule="evenodd" clip-rule="evenodd" d="M12.5 16C14.433 16 16 14.433 16 12.5C16 10.567 14.433 9 12.5 9C10.567 9 9 10.567 9 12.5C9 14.433 10.567 16 12.5 16ZM12.5 13C12.7761 13 13 12.7761 13 12.5C13 12.2239 12.7761 12 12.5 12C12.2239 12 12 12.2239 12 12.5C12 12.7761 12.2239 13 12.5 13Z" fill="url(#paint6_linear_201_4381)"/>
<path d="M15 12.5C15 13.8807 13.8807 15 12.5 15V17C14.9853 17 17 14.9853 17 12.5H15ZM12.5 10C13.8807 10 15 11.1193 15 12.5H17C17 10.0147 14.9853 8 12.5 8V10ZM10 12.5C10 11.1193 11.1193 10 12.5 10V8C10.0147 8 8 10.0147 8 12.5H10ZM12.5 15C11.1193 15 10 13.8807 10 12.5H8C8 14.9853 10.0147 17 12.5 17V15ZM12 12.5C12 12.2239 12.2239 12 12.5 12V14C13.3284 14 14 13.3284 14 12.5H12ZM12.5 13C12.2239 13 12 12.7761 12 12.5H14C14 11.6716 13.3284 11 12.5 11V13ZM13 12.5C13 12.7761 12.7761 13 12.5 13V11C11.6716 11 11 11.6716 11 12.5H13ZM12.5 12C12.7761 12 13 12.2239 13 12.5H11C11 13.3284 11.6716 14 12.5 14V12Z" fill="url(#paint7_linear_201_4381)" mask="url(#path-8-inside-3_201_4381)"/>
<rect x="6.5" y="11.5" width="6" height="2" fill="url(#paint8_linear_201_4381)"/>
<rect x="6.5" y="11.5" width="6" height="2" stroke="url(#paint9_linear_201_4381)" stroke-linejoin="round"/>
<rect x="6.5" y="11.5" width="6" height="2" stroke="url(#paint10_linear_201_4381)" stroke-linejoin="round"/>
<defs>
<linearGradient id="paint0_linear_201_4381" x1="2" y1="2" x2="14" y2="14" gradientUnits="userSpaceOnUse">
<stop stop-color="#9FC0ED"/>
<stop offset="1" stop-color="#5284C3"/>
</linearGradient>
<linearGradient id="paint1_linear_201_4381" x1="8.5" y1="6" x2="8.5" y2="13" gradientUnits="userSpaceOnUse">
<stop stop-color="#A6C3E9"/>
<stop offset="1" stop-color="#BFD3EB"/>
</linearGradient>
<linearGradient id="paint2_linear_201_4381" x1="3" y1="3.5" x2="13" y2="3.5" gradientUnits="userSpaceOnUse">
<stop stop-color="#A5D59C"/>
<stop offset="1" stop-color="#7CBE76"/>
</linearGradient>
<linearGradient id="paint3_linear_201_4381" x1="2.5" y1="2" x2="14" y2="14" gradientUnits="userSpaceOnUse">
<stop stop-color="#F4F7FB"/>
<stop offset="1" stop-color="#D8E2F0"/>
</linearGradient>
<linearGradient id="paint4_linear_201_4381" x1="5" y1="11" x2="8.5" y2="14.5" gradientUnits="userSpaceOnUse">
<stop stop-color="#D9D9D9"/>
<stop offset="1" stop-color="#737373"/>
</linearGradient>
<linearGradient id="paint5_linear_201_4381" x1="10" y1="16" x2="3" y2="9" gradientUnits="userSpaceOnUse">
<stop stop-color="#404040"/>
<stop offset="1" stop-color="#8D8D8D"/>
</linearGradient>
<linearGradient id="paint6_linear_201_4381" x1="11" y1="11" x2="14" y2="14" gradientUnits="userSpaceOnUse">
<stop stop-color="#D9D9D9"/>
<stop offset="1" stop-color="#737373"/>
</linearGradient>
<linearGradient id="paint7_linear_201_4381" x1="16" y1="16" x2="9" y2="9" gradientUnits="userSpaceOnUse">
<stop stop-color="#404040"/>
<stop offset="1" stop-color="#8D8D8D"/>
</linearGradient>
<linearGradient id="paint8_linear_201_4381" x1="7.71429" y1="12.1429" x2="7.98901" y2="13.5165" gradientUnits="userSpaceOnUse">
<stop stop-color="#D9D9D9"/>
<stop offset="1" stop-color="#737373"/>
</linearGradient>
<linearGradient id="paint9_linear_201_4381" x1="9.5" y1="14" x2="9.5" y2="11" gradientUnits="userSpaceOnUse">
<stop offset="0.33" stop-color="#515151"/>
<stop offset="0.66" stop-color="#8D8D8D"/>
</linearGradient>
<linearGradient id="paint10_linear_201_4381" x1="7" y1="12.5" x2="12" y2="12.5" gradientUnits="userSpaceOnUse">
<stop stop-color="#484848"/>
<stop offset="0.515" stop-color="#484848" stop-opacity="0"/>
<stop offset="1" stop-color="#484848"/>
</linearGradient>
</defs>
</svg>
