<svg width="16" height="16" viewBox="0 0 16 16" fill="none" xmlns="http://www.w3.org/2000/svg">
<rect x="2.5" y="1.5" width="13" height="13" fill="white" stroke="url(#paint0_linear_201_4380)" stroke-linejoin="round"/>
<mask id="path-2-outside-1_201_4380" maskUnits="userSpaceOnUse" x="3" y="5" width="12" height="9" fill="black">
<rect fill="white" x="3" y="5" width="12" height="9"/>
<path fill-rule="evenodd" clip-rule="evenodd" d="M4 6.5C4 6.22386 4.22386 6 4.5 6C4.77614 6 5 6.22386 5 6.5C5 6.77614 4.77614 7 4.5 7C4.22386 7 4 6.77614 4 6.5ZM6 6.5C6 6.22386 6.22386 6 6.5 6H9.5C9.77614 6 10 6.22386 10 6.5C10 6.77614 9.77614 7 9.5 7H6.5C6.22386 7 6 6.77614 6 6.5ZM11.5 6C11.2239 6 11 6.22386 11 6.5C11 6.77614 11.2239 7 11.5 7H13.5C13.7761 7 14 6.77614 14 6.5C14 6.22386 13.7761 6 13.5 6H11.5ZM11.5 8C11.2239 8 11 8.22386 11 8.5C11 8.77614 11.2239 9 11.5 9H13.5C13.7761 9 14 8.77614 14 8.5C14 8.22386 13.7761 8 13.5 8H11.5ZM11 10.5C11 10.2239 11.2239 10 11.5 10H13.5C13.7761 10 14 10.2239 14 10.5C14 10.7761 13.7761 11 13.5 11H11.5C11.2239 11 11 10.7761 11 10.5ZM11.5 12C11.2239 12 11 12.2239 11 12.5C11 12.7761 11.2239 13 11.5 13H13.5C13.7761 13 14 12.7761 14 12.5C14 12.2239 13.7761 12 13.5 12H11.5ZM6.5 12C6.22386 12 6 12.2239 6 12.5C6 12.7761 6.22386 13 6.5 13H9.5C9.77614 13 10 12.7761 10 12.5C10 12.2239 9.77614 12 9.5 12H6.5ZM6 10.5C6 10.2239 6.22386 10 6.5 10H9.5C9.77614 10 10 10.2239 10 10.5C10 10.7761 9.77614 11 9.5 11H6.5C6.22386 11 6 10.7761 6 10.5ZM6.5 8C6.22386 8 6 8.22386 6 8.5C6 8.77614 6.22386 9 6.5 9H9.5C9.77614 9 10 8.77614 10 8.5C10 8.22386 9.77614 8 9.5 8H6.5ZM4.5 8C4.22386 8 4 8.22386 4 8.5C4 8.77614 4.22386 9 4.5 9C4.77614 9 5 8.77614 5 8.5C5 8.22386 4.77614 8 4.5 8ZM4 10.5C4 10.2239 4.22386 10 4.5 10C4.77614 10 5 10.2239 5 10.5C5 10.7761 4.77614 11 4.5 11C4.22386 11 4 10.7761 4 10.5ZM4.5 12C4.22386 12 4 12.2239 4 12.5C4 12.7761 4.22386 13 4.5 13C4.77614 13 5 12.7761 5 12.5C5 12.2239 4.77614 12 4.5 12Z"/>
</mask>
<path fill-rule="evenodd" clip-rule="evenodd" d="M4 6.5C4 6.22386 4.22386 6 4.5 6C4.77614 6 5 6.22386 5 6.5C5 6.77614 4.77614 7 4.5 7C4.22386 7 4 6.77614 4 6.5ZM6 6.5C6 6.22386 6.22386 6 6.5 6H9.5C9.77614 6 10 6.22386 10 6.5C10 6.77614 9.77614 7 9.5 7H6.5C6.22386 7 6 6.77614 6 6.5ZM11.5 6C11.2239 6 11 6.22386 11 6.5C11 6.77614 11.2239 7 11.5 7H13.5C13.7761 7 14 6.77614 14 6.5C14 6.22386 13.7761 6 13.5 6H11.5ZM11.5 8C11.2239 8 11 8.22386 11 8.5C11 8.77614 11.2239 9 11.5 9H13.5C13.7761 9 14 8.77614 14 8.5C14 8.22386 13.7761 8 13.5 8H11.5ZM11 10.5C11 10.2239 11.2239 10 11.5 10H13.5C13.7761 10 14 10.2239 14 10.5C14 10.7761 13.7761 11 13.5 11H11.5C11.2239 11 11 10.7761 11 10.5ZM11.5 12C11.2239 12 11 12.2239 11 12.5C11 12.7761 11.2239 13 11.5 13H13.5C13.7761 13 14 12.7761 14 12.5C14 12.2239 13.7761 12 13.5 12H11.5ZM6.5 12C6.22386 12 6 12.2239 6 12.5C6 12.7761 6.22386 13 6.5 13H9.5C9.77614 13 10 12.7761 10 12.5C10 12.2239 9.77614 12 9.5 12H6.5ZM6 10.5C6 10.2239 6.22386 10 6.5 10H9.5C9.77614 10 10 10.2239 10 10.5C10 10.7761 9.77614 11 9.5 11H6.5C6.22386 11 6 10.7761 6 10.5ZM6.5 8C6.22386 8 6 8.22386 6 8.5C6 8.77614 6.22386 9 6.5 9H9.5C9.77614 9 10 8.77614 10 8.5C10 8.22386 9.77614 8 9.5 8H6.5ZM4.5 8C4.22386 8 4 8.22386 4 8.5C4 8.77614 4.22386 9 4.5 9C4.77614 9 5 8.77614 5 8.5C5 8.22386 4.77614 8 4.5 8ZM4 10.5C4 10.2239 4.22386 10 4.5 10C4.77614 10 5 10.2239 5 10.5C5 10.7761 4.77614 11 4.5 11C4.22386 11 4 10.7761 4 10.5ZM4.5 12C4.22386 12 4 12.2239 4 12.5C4 12.7761 4.22386 13 4.5 13C4.77614 13 5 12.7761 5 12.5C5 12.2239 4.77614 12 4.5 12Z" fill="white"/>
<path d="M4.5 5C3.67157 5 3 5.67157 3 6.5H5C5 6.77614 4.77614 7 4.5 7V5ZM6 6.5C6 5.67157 5.32843 5 4.5 5V7C4.22386 7 4 6.77614 4 6.5H6ZM4.5 8C5.32843 8 6 7.32843 6 6.5H4C4 6.22386 4.22386 6 4.5 6V8ZM3 6.5C3 7.32843 3.67157 8 4.5 8V6C4.77614 6 5 6.22386 5 6.5H3ZM6.5 5C5.67157 5 5 5.67157 5 6.5H7C7 6.77614 6.77614 7 6.5 7V5ZM9.5 5H6.5V7H9.5V5ZM11 6.5C11 5.67157 10.3284 5 9.5 5V7C9.22386 7 9 6.77614 9 6.5H11ZM9.5 8C10.3284 8 11 7.32843 11 6.5H9C9 6.22386 9.22386 6 9.5 6V8ZM6.5 8H9.5V6H6.5V8ZM5 6.5C5 7.32843 5.67157 8 6.5 8V6C6.77614 6 7 6.22386 7 6.5H5ZM12 6.5C12 6.77614 11.7761 7 11.5 7V5C10.6716 5 10 5.67157 10 6.5H12ZM11.5 6C11.7761 6 12 6.22386 12 6.5H10C10 7.32843 10.6716 8 11.5 8V6ZM13.5 6H11.5V8H13.5V6ZM13 6.5C13 6.22386 13.2239 6 13.5 6V8C14.3284 8 15 7.32843 15 6.5H13ZM13.5 7C13.2239 7 13 6.77614 13 6.5H15C15 5.67157 14.3284 5 13.5 5V7ZM11.5 7H13.5V5H11.5V7ZM12 8.5C12 8.77614 11.7761 9 11.5 9V7C10.6716 7 10 7.67157 10 8.5H12ZM11.5 8C11.7761 8 12 8.22386 12 8.5H10C10 9.32843 10.6716 10 11.5 10V8ZM13.5 8H11.5V10H13.5V8ZM13 8.5C13 8.22386 13.2239 8 13.5 8V10C14.3284 10 15 9.32843 15 8.5H13ZM13.5 9C13.2239 9 13 8.77614 13 8.5H15C15 7.67157 14.3284 7 13.5 7V9ZM11.5 9H13.5V7H11.5V9ZM11.5 9C10.6716 9 10 9.67157 10 10.5H12C12 10.7761 11.7761 11 11.5 11V9ZM13.5 9H11.5V11H13.5V9ZM15 10.5C15 9.67157 14.3284 9 13.5 9V11C13.2239 11 13 10.7761 13 10.5H15ZM13.5 12C14.3284 12 15 11.3284 15 10.5H13C13 10.2239 13.2239 10 13.5 10V12ZM11.5 12H13.5V10H11.5V12ZM10 10.5C10 11.3284 10.6716 12 11.5 12V10C11.7761 10 12 10.2239 12 10.5H10ZM12 12.5C12 12.7761 11.7761 13 11.5 13V11C10.6716 11 10 11.6716 10 12.5H12ZM11.5 12C11.7761 12 12 12.2239 12 12.5H10C10 13.3284 10.6716 14 11.5 14V12ZM13.5 12H11.5V14H13.5V12ZM13 12.5C13 12.2239 13.2239 12 13.5 12V14C14.3284 14 15 13.3284 15 12.5H13ZM13.5 13C13.2239 13 13 12.7761 13 12.5H15C15 11.6716 14.3284 11 13.5 11V13ZM11.5 13H13.5V11H11.5V13ZM7 12.5C7 12.7761 6.77614 13 6.5 13V11C5.67157 11 5 11.6716 5 12.5H7ZM6.5 12C6.77614 12 7 12.2239 7 12.5H5C5 13.3284 5.67157 14 6.5 14V12ZM9.5 12H6.5V14H9.5V12ZM9 12.5C9 12.2239 9.22386 12 9.5 12V14C10.3284 14 11 13.3284 11 12.5H9ZM9.5 13C9.22386 13 9 12.7761 9 12.5H11C11 11.6716 10.3284 11 9.5 11V13ZM6.5 13H9.5V11H6.5V13ZM6.5 9C5.67157 9 5 9.67157 5 10.5H7C7 10.7761 6.77614 11 6.5 11V9ZM9.5 9H6.5V11H9.5V9ZM11 10.5C11 9.67157 10.3284 9 9.5 9V11C9.22386 11 9 10.7761 9 10.5H11ZM9.5 12C10.3284 12 11 11.3284 11 10.5H9C9 10.2239 9.22386 10 9.5 10V12ZM6.5 12H9.5V10H6.5V12ZM5 10.5C5 11.3284 5.67157 12 6.5 12V10C6.77614 10 7 10.2239 7 10.5H5ZM7 8.5C7 8.77614 6.77614 9 6.5 9V7C5.67157 7 5 7.67157 5 8.5H7ZM6.5 8C6.77614 8 7 8.22386 7 8.5H5C5 9.32843 5.67157 10 6.5 10V8ZM9.5 8H6.5V10H9.5V8ZM9 8.5C9 8.22386 9.22386 8 9.5 8V10C10.3284 10 11 9.32843 11 8.5H9ZM9.5 9C9.22386 9 9 8.77614 9 8.5H11C11 7.67157 10.3284 7 9.5 7V9ZM6.5 9H9.5V7H6.5V9ZM5 8.5C5 8.77614 4.77614 9 4.5 9V7C3.67157 7 3 7.67157 3 8.5H5ZM4.5 8C4.77614 8 5 8.22386 5 8.5H3C3 9.32843 3.67157 10 4.5 10V8ZM4 8.5C4 8.22386 4.22386 8 4.5 8V10C5.32843 10 6 9.32843 6 8.5H4ZM4.5 9C4.22386 9 4 8.77614 4 8.5H6C6 7.67157 5.32843 7 4.5 7V9ZM4.5 9C3.67157 9 3 9.67157 3 10.5H5C5 10.7761 4.77614 11 4.5 11V9ZM6 10.5C6 9.67157 5.32843 9 4.5 9V11C4.22386 11 4 10.7761 4 10.5H6ZM4.5 12C5.32843 12 6 11.3284 6 10.5H4C4 10.2239 4.22386 10 4.5 10V12ZM3 10.5C3 11.3284 3.67157 12 4.5 12V10C4.77614 10 5 10.2239 5 10.5H3ZM5 12.5C5 12.7761 4.77614 13 4.5 13V11C3.67157 11 3 11.6716 3 12.5H5ZM4.5 12C4.77614 12 5 12.2239 5 12.5H3C3 13.3284 3.67157 14 4.5 14V12ZM4 12.5C4 12.2239 4.22386 12 4.5 12V14C5.32843 14 6 13.3284 6 12.5H4ZM4.5 13C4.22386 13 4 12.7761 4 12.5H6C6 11.6716 5.32843 11 4.5 11V13Z" fill="url(#paint1_linear_201_4380)" mask="url(#path-2-outside-1_201_4380)"/>
<rect x="3.5" y="2.5" width="11" height="2" rx="1" fill="url(#paint2_linear_201_4380)" stroke="white"/>
<rect x="3.5" y="2.5" width="11" height="11" stroke="url(#paint3_linear_201_4380)" stroke-opacity="0.66" style="mix-blend-mode:screen"/>
<path d="M9 8.5H7V8.15139L8.91603 5.27735L9.43426 4.5H8.5H4.5H4.19098L4.05279 4.77639L1.55279 9.77639L1.19098 10.5H2H4.85961L4.51493 11.8787L4.17337 13.245L5.3 12.4L9.3 9.4L10.5 8.5H9Z" fill="url(#paint4_linear_201_4380)" stroke="url(#paint5_linear_201_4380)"/>
<path d="M5.98507 10.1213L6.14039 9.5H6.5H7.5L5.82663 10.755L5.98507 10.1213ZM5.5 9.5H2.80902L4.80902 5.5H7.56574L6.08397 7.72265L6 7.84861V8V9V9.5H5.5Z" stroke="url(#paint6_linear_201_4380)"/>
<defs>
<linearGradient id="paint0_linear_201_4380" x1="3" y1="2" x2="15" y2="14" gradientUnits="userSpaceOnUse">
<stop stop-color="#9FC0ED"/>
<stop offset="1" stop-color="#5284C3"/>
</linearGradient>
<linearGradient id="paint1_linear_201_4380" x1="9.5" y1="6" x2="9.5" y2="13" gradientUnits="userSpaceOnUse">
<stop stop-color="#A6C3E9"/>
<stop offset="1" stop-color="#BFD3EB"/>
</linearGradient>
<linearGradient id="paint2_linear_201_4380" x1="4" y1="3.5" x2="14" y2="3.5" gradientUnits="userSpaceOnUse">
<stop stop-color="#A5D59C"/>
<stop offset="1" stop-color="#7CBE76"/>
</linearGradient>
<linearGradient id="paint3_linear_201_4380" x1="3.5" y1="2" x2="15" y2="14" gradientUnits="userSpaceOnUse">
<stop stop-color="#F4F7FB"/>
<stop offset="1" stop-color="#D8E2F0"/>
</linearGradient>
<linearGradient id="paint4_linear_201_4380" x1="0.103446" y1="4" x2="9.85338" y2="14.9305" gradientUnits="userSpaceOnUse">
<stop stop-color="#F4D848"/>
<stop offset="1" stop-color="#EBB62F"/>
</linearGradient>
<linearGradient id="paint5_linear_201_4380" x1="2" y1="5.18626" x2="8.68267" y2="12" gradientUnits="userSpaceOnUse">
<stop stop-color="#ECD45D"/>
<stop offset="1" stop-color="#D79D22"/>
</linearGradient>
<linearGradient id="paint6_linear_201_4380" x1="2.00351" y1="5" x2="8.99649" y2="12" gradientUnits="userSpaceOnUse">
<stop offset="0.366222" stop-color="#F8E690"/>
<stop offset="0.68369" stop-color="#F0D07D"/>
</linearGradient>
</defs>
</svg>
