<svg width="16" height="16" viewBox="0 0 16 16" fill="none" xmlns="http://www.w3.org/2000/svg">
<path d="M11.5 4.5V5C11.5 5.82843 12.1716 6.5 13 6.5H14C14.8284 6.5 15.5 5.82843 15.5 5V4C15.5 2.61929 14.3807 1.5 13 1.5H12H4H3C1.61929 1.5 0.5 2.61929 0.5 4V5C0.5 5.82843 1.17157 6.5 2 6.5H3C3.82843 6.5 4.5 5.82843 4.5 5V4.5H11.5Z" fill="url(#paint0_linear_450_7638)" stroke="url(#paint1_linear_450_7638)" stroke-linejoin="round"/>
<path d="M1.53576 9.8143C1.51214 9.87336 1.5 9.93639 1.5 10V14C1.5 14.2761 1.72386 14.5 2 14.5H14C14.2761 14.5 14.5 14.2761 14.5 14V10C14.5 9.93639 14.4879 9.87336 14.4642 9.8143L12.4642 4.8143C12.3883 4.62448 12.2045 4.5 12 4.5H11.5V3C11.5 2.72386 11.2761 2.5 11 2.5H10C9.72386 2.5 9.5 2.72386 9.5 3V4.5H6.5V3C6.5 2.72386 6.27614 2.5 6 2.5H5C4.72386 2.5 4.5 2.72386 4.5 3V4.5H4C3.79555 4.5 3.61169 4.62448 3.53576 4.8143L1.53576 9.8143Z" fill="url(#paint2_linear_450_7638)" stroke="url(#paint3_linear_450_7638)" stroke-linejoin="round"/>
<rect x="2" y="11" width="12" height="3" fill="url(#paint4_linear_450_7638)"/>
<path d="M11 6.5C11.2761 6.5 11.5 6.27614 11.5 6V5.5H11.6615L13.5 10.0963V13.5H2.5V10.0963L4.33852 5.5H4.5V6C4.5 6.27614 4.72386 6.5 5 6.5H11Z" stroke="white" stroke-opacity="0.33" stroke-linejoin="round"/>
<path d="M4.51493 10.8787C4.47759 11.0281 4.51114 11.1863 4.6059 11.3077C4.70065 11.4291 4.84603 11.5 5 11.5H11C11.154 11.5 11.2993 11.4291 11.3941 11.3077C11.4889 11.1863 11.5224 11.0281 11.4851 10.8787L10.4851 6.87873C10.4294 6.65615 10.2294 6.5 10 6.5H6C5.77057 6.5 5.57057 6.65615 5.51493 6.87873L4.51493 10.8787Z" fill="#FEFEFE"/>
<path d="M4.51493 10.8787C4.47759 11.0281 4.51114 11.1863 4.6059 11.3077C4.70065 11.4291 4.84603 11.5 5 11.5H11C11.154 11.5 11.2993 11.4291 11.3941 11.3077C11.4889 11.1863 11.5224 11.0281 11.4851 10.8787L10.4851 6.87873C10.4294 6.65615 10.2294 6.5 10 6.5H6C5.77057 6.5 5.57057 6.65615 5.51493 6.87873L4.51493 10.8787Z" stroke="url(#paint5_linear_450_7638)" stroke-linejoin="round"/>
<path d="M4.51493 10.8787C4.47759 11.0281 4.51114 11.1863 4.6059 11.3077C4.70065 11.4291 4.84603 11.5 5 11.5H11C11.154 11.5 11.2993 11.4291 11.3941 11.3077C11.4889 11.1863 11.5224 11.0281 11.4851 10.8787L10.4851 6.87873C10.4294 6.65615 10.2294 6.5 10 6.5H6C5.77057 6.5 5.57057 6.65615 5.51493 6.87873L4.51493 10.8787Z" stroke="url(#paint6_linear_450_7638)" stroke-linejoin="round"/>
<path fill-rule="evenodd" clip-rule="evenodd" d="M12 3H13C13.5523 3 14 3.44772 14 4V5V6C14.5523 6 15 5.55228 15 5V4C15 2.89543 14.1046 2 13 2H3C1.89543 2 1 2.89543 1 4V5C1 5.55228 1.44772 6 2 6V5L2 4C2 3.44772 2.44772 3 3 3H4H12Z" fill="url(#paint7_linear_450_7638)"/>
<mask id="path-7-inside-1_450_7638" fill="white">
<path fill-rule="evenodd" clip-rule="evenodd" d="M6.5 16C8.433 16 10 14.433 10 12.5C10 10.567 8.433 9 6.5 9C4.567 9 3 10.567 3 12.5C3 14.433 4.567 16 6.5 16ZM6.5 13C6.77614 13 7 12.7761 7 12.5C7 12.2239 6.77614 12 6.5 12C6.22386 12 6 12.2239 6 12.5C6 12.7761 6.22386 13 6.5 13Z"/>
</mask>
<path fill-rule="evenodd" clip-rule="evenodd" d="M6.5 16C8.433 16 10 14.433 10 12.5C10 10.567 8.433 9 6.5 9C4.567 9 3 10.567 3 12.5C3 14.433 4.567 16 6.5 16ZM6.5 13C6.77614 13 7 12.7761 7 12.5C7 12.2239 6.77614 12 6.5 12C6.22386 12 6 12.2239 6 12.5C6 12.7761 6.22386 13 6.5 13Z" fill="url(#paint8_linear_450_7638)"/>
<path d="M9 12.5C9 13.8807 7.88071 15 6.5 15V17C8.98528 17 11 14.9853 11 12.5H9ZM6.5 10C7.88071 10 9 11.1193 9 12.5H11C11 10.0147 8.98528 8 6.5 8V10ZM4 12.5C4 11.1193 5.11929 10 6.5 10V8C4.01472 8 2 10.0147 2 12.5H4ZM6.5 15C5.11929 15 4 13.8807 4 12.5H2C2 14.9853 4.01472 17 6.5 17V15ZM6 12.5C6 12.2239 6.22386 12 6.5 12V14C7.32843 14 8 13.3284 8 12.5H6ZM6.5 13C6.22386 13 6 12.7761 6 12.5H8C8 11.6716 7.32843 11 6.5 11V13ZM7 12.5C7 12.7761 6.77614 13 6.5 13V11C5.67157 11 5 11.6716 5 12.5H7ZM6.5 12C6.77614 12 7 12.2239 7 12.5H5C5 13.3284 5.67157 14 6.5 14V12Z" fill="url(#paint9_linear_450_7638)" mask="url(#path-7-inside-1_450_7638)"/>
<mask id="path-9-inside-2_450_7638" fill="white">
<path fill-rule="evenodd" clip-rule="evenodd" d="M12.5 16C14.433 16 16 14.433 16 12.5C16 10.567 14.433 9 12.5 9C10.567 9 9 10.567 9 12.5C9 14.433 10.567 16 12.5 16ZM12.5 13C12.7761 13 13 12.7761 13 12.5C13 12.2239 12.7761 12 12.5 12C12.2239 12 12 12.2239 12 12.5C12 12.7761 12.2239 13 12.5 13Z"/>
</mask>
<path fill-rule="evenodd" clip-rule="evenodd" d="M12.5 16C14.433 16 16 14.433 16 12.5C16 10.567 14.433 9 12.5 9C10.567 9 9 10.567 9 12.5C9 14.433 10.567 16 12.5 16ZM12.5 13C12.7761 13 13 12.7761 13 12.5C13 12.2239 12.7761 12 12.5 12C12.2239 12 12 12.2239 12 12.5C12 12.7761 12.2239 13 12.5 13Z" fill="url(#paint10_linear_450_7638)"/>
<path d="M15 12.5C15 13.8807 13.8807 15 12.5 15V17C14.9853 17 17 14.9853 17 12.5H15ZM12.5 10C13.8807 10 15 11.1193 15 12.5H17C17 10.0147 14.9853 8 12.5 8V10ZM10 12.5C10 11.1193 11.1193 10 12.5 10V8C10.0147 8 8 10.0147 8 12.5H10ZM12.5 15C11.1193 15 10 13.8807 10 12.5H8C8 14.9853 10.0147 17 12.5 17V15ZM12 12.5C12 12.2239 12.2239 12 12.5 12V14C13.3284 14 14 13.3284 14 12.5H12ZM12.5 13C12.2239 13 12 12.7761 12 12.5H14C14 11.6716 13.3284 11 12.5 11V13ZM13 12.5C13 12.7761 12.7761 13 12.5 13V11C11.6716 11 11 11.6716 11 12.5H13ZM12.5 12C12.7761 12 13 12.2239 13 12.5H11C11 13.3284 11.6716 14 12.5 14V12Z" fill="url(#paint11_linear_450_7638)" mask="url(#path-9-inside-2_450_7638)"/>
<rect x="6.5" y="11.5" width="6" height="2" fill="url(#paint12_linear_450_7638)"/>
<rect x="6.5" y="11.5" width="6" height="2" stroke="url(#paint13_linear_450_7638)" stroke-linejoin="round"/>
<rect x="6.5" y="11.5" width="6" height="2" stroke="url(#paint14_linear_450_7638)" stroke-linejoin="round"/>
<defs>
<linearGradient id="paint0_linear_450_7638" x1="1" y1="3.5" x2="15" y2="3.5" gradientUnits="userSpaceOnUse">
<stop stop-color="#A4BDD8"/>
<stop offset="1" stop-color="#7294BA"/>
</linearGradient>
<linearGradient id="paint1_linear_450_7638" x1="1" y1="3.5" x2="15" y2="3.5" gradientUnits="userSpaceOnUse">
<stop stop-color="#7099C1" stop-opacity="0.890196"/>
<stop offset="1" stop-color="#3D4870" stop-opacity="0.933333"/>
</linearGradient>
<linearGradient id="paint2_linear_450_7638" x1="2.5" y1="3" x2="13.5" y2="14" gradientUnits="userSpaceOnUse">
<stop stop-color="#ADCBEC"/>
<stop offset="1" stop-color="#5981B2"/>
</linearGradient>
<linearGradient id="paint3_linear_450_7638" x1="2.5" y1="3" x2="13.5" y2="14" gradientUnits="userSpaceOnUse">
<stop stop-color="#5E85B2"/>
<stop offset="1" stop-color="#404E79" stop-opacity="0.972549"/>
</linearGradient>
<linearGradient id="paint4_linear_450_7638" x1="6" y1="11" x2="8.88" y2="14.84" gradientUnits="userSpaceOnUse">
<stop stop-color="#7AA1CC"/>
<stop offset="1" stop-color="#5981B2"/>
</linearGradient>
<linearGradient id="paint5_linear_450_7638" x1="5.25" y1="7" x2="9.05541" y2="12.2324" gradientUnits="userSpaceOnUse">
<stop stop-color="#D8E9FD"/>
<stop offset="1" stop-color="#577CAA"/>
</linearGradient>
<linearGradient id="paint6_linear_450_7638" x1="8" y1="6" x2="8" y2="11" gradientUnits="userSpaceOnUse">
<stop offset="0.19697" stop-color="#6786AB"/>
<stop offset="0.201382" stop-color="#6786AB" stop-opacity="0"/>
</linearGradient>
<linearGradient id="paint7_linear_450_7638" x1="1" y1="3.5" x2="15" y2="3.5" gradientUnits="userSpaceOnUse">
<stop stop-color="#CADCF0"/>
<stop offset="1" stop-color="#AFC9E2"/>
</linearGradient>
<linearGradient id="paint8_linear_450_7638" x1="5" y1="11" x2="8.5" y2="14.5" gradientUnits="userSpaceOnUse">
<stop stop-color="#D9D9D9"/>
<stop offset="1" stop-color="#737373"/>
</linearGradient>
<linearGradient id="paint9_linear_450_7638" x1="10" y1="16" x2="3" y2="9" gradientUnits="userSpaceOnUse">
<stop stop-color="#404040"/>
<stop offset="1" stop-color="#8D8D8D"/>
</linearGradient>
<linearGradient id="paint10_linear_450_7638" x1="11" y1="11" x2="14" y2="14" gradientUnits="userSpaceOnUse">
<stop stop-color="#D9D9D9"/>
<stop offset="1" stop-color="#737373"/>
</linearGradient>
<linearGradient id="paint11_linear_450_7638" x1="16" y1="16" x2="9" y2="9" gradientUnits="userSpaceOnUse">
<stop stop-color="#404040"/>
<stop offset="1" stop-color="#8D8D8D"/>
</linearGradient>
<linearGradient id="paint12_linear_450_7638" x1="7.71429" y1="12.1429" x2="7.98901" y2="13.5165" gradientUnits="userSpaceOnUse">
<stop stop-color="#D9D9D9"/>
<stop offset="1" stop-color="#737373"/>
</linearGradient>
<linearGradient id="paint13_linear_450_7638" x1="9.5" y1="14" x2="9.5" y2="11" gradientUnits="userSpaceOnUse">
<stop offset="0.33" stop-color="#515151"/>
<stop offset="0.66" stop-color="#8D8D8D"/>
</linearGradient>
<linearGradient id="paint14_linear_450_7638" x1="7" y1="12.5" x2="12" y2="12.5" gradientUnits="userSpaceOnUse">
<stop stop-color="#484848"/>
<stop offset="0.515" stop-color="#484848" stop-opacity="0"/>
<stop offset="1" stop-color="#484848"/>
</linearGradient>
</defs>
</svg>
