<svg width="16" height="16" viewBox="0 0 16 16" fill="none" xmlns="http://www.w3.org/2000/svg">
<path d="M11.5 4.5V5C11.5 5.82843 12.1716 6.5 13 6.5H14C14.8284 6.5 15.5 5.82843 15.5 5V4C15.5 2.61929 14.3807 1.5 13 1.5H12H4H3C1.61929 1.5 0.5 2.61929 0.5 4V5C0.5 5.82843 1.17157 6.5 2 6.5H3C3.82843 6.5 4.5 5.82843 4.5 5V4.5H11.5Z" fill="url(#paint0_linear_450_7639)" stroke="url(#paint1_linear_450_7639)" stroke-linejoin="round"/>
<path d="M1.53576 9.8143C1.51214 9.87336 1.5 9.93639 1.5 10V14C1.5 14.2761 1.72386 14.5 2 14.5H14C14.2761 14.5 14.5 14.2761 14.5 14V10C14.5 9.93639 14.4879 9.87336 14.4642 9.8143L12.4642 4.8143C12.3883 4.62448 12.2045 4.5 12 4.5H11.5V3C11.5 2.72386 11.2761 2.5 11 2.5H10C9.72386 2.5 9.5 2.72386 9.5 3V4.5H6.5V3C6.5 2.72386 6.27614 2.5 6 2.5H5C4.72386 2.5 4.5 2.72386 4.5 3V4.5H4C3.79555 4.5 3.61169 4.62448 3.53576 4.8143L1.53576 9.8143Z" fill="url(#paint2_linear_450_7639)" stroke="url(#paint3_linear_450_7639)" stroke-linejoin="round"/>
<rect x="2" y="11" width="12" height="3" fill="url(#paint4_linear_450_7639)"/>
<path d="M11 6.5C11.2761 6.5 11.5 6.27614 11.5 6V5.5H11.6615L13.5 10.0963V13.5H2.5V10.0963L4.33852 5.5H4.5V6C4.5 6.27614 4.72386 6.5 5 6.5H11Z" stroke="white" stroke-opacity="0.33" stroke-linejoin="round"/>
<path d="M4.51493 10.8787C4.47759 11.0281 4.51114 11.1863 4.6059 11.3077C4.70065 11.4291 4.84603 11.5 5 11.5H11C11.154 11.5 11.2993 11.4291 11.3941 11.3077C11.4889 11.1863 11.5224 11.0281 11.4851 10.8787L10.4851 6.87873C10.4294 6.65615 10.2294 6.5 10 6.5H6C5.77057 6.5 5.57057 6.65615 5.51493 6.87873L4.51493 10.8787Z" fill="#FEFEFE"/>
<path d="M4.51493 10.8787C4.47759 11.0281 4.51114 11.1863 4.6059 11.3077C4.70065 11.4291 4.84603 11.5 5 11.5H11C11.154 11.5 11.2993 11.4291 11.3941 11.3077C11.4889 11.1863 11.5224 11.0281 11.4851 10.8787L10.4851 6.87873C10.4294 6.65615 10.2294 6.5 10 6.5H6C5.77057 6.5 5.57057 6.65615 5.51493 6.87873L4.51493 10.8787Z" stroke="url(#paint5_linear_450_7639)" stroke-linejoin="round"/>
<path d="M4.51493 10.8787C4.47759 11.0281 4.51114 11.1863 4.6059 11.3077C4.70065 11.4291 4.84603 11.5 5 11.5H11C11.154 11.5 11.2993 11.4291 11.3941 11.3077C11.4889 11.1863 11.5224 11.0281 11.4851 10.8787L10.4851 6.87873C10.4294 6.65615 10.2294 6.5 10 6.5H6C5.77057 6.5 5.57057 6.65615 5.51493 6.87873L4.51493 10.8787Z" stroke="url(#paint6_linear_450_7639)" stroke-linejoin="round"/>
<path fill-rule="evenodd" clip-rule="evenodd" d="M12 3H13C13.5523 3 14 3.44772 14 4V5V6C14.5523 6 15 5.55228 15 5V4C15 2.89543 14.1046 2 13 2H3C1.89543 2 1 2.89543 1 4V5C1 5.55228 1.44772 6 2 6V5L2 4C2 3.44772 2.44772 3 3 3H4H12Z" fill="url(#paint7_linear_450_7639)"/>
<mask id="path-7-outside-1_450_7639" maskUnits="userSpaceOnUse" x="6" y="6" width="10" height="10" fill="black">
<rect fill="white" x="6" y="6" width="10" height="10"/>
<path fill-rule="evenodd" clip-rule="evenodd" d="M7 15V13.5L10 11V8.5L11.5 7H13L15 9V10.5L13.5 12H11V13H10V14H9V15H7ZM13 8L14 9L13 10L12 9L13 8Z"/>
</mask>
<g filter="url(#filter0_i_450_7639)">
<path fill-rule="evenodd" clip-rule="evenodd" d="M7 15V13.5L10 11V8.5L11.5 7H13L15 9V10.5L13.5 12H11V13H10V14H9V15H7ZM13 8L14 9L13 10L12 9L13 8Z" fill="#F4D847"/>
</g>
<path d="M7 13.5L6.35982 12.7318L6 13.0316V13.5H7ZM7 15H6V16H7V15ZM10 11L10.6402 11.7682L11 11.4684V11H10ZM10 8.5L9.29289 7.79289L9 8.08579V8.5H10ZM11.5 7V6H11.0858L10.7929 6.29289L11.5 7ZM13 7L13.7071 6.29289L13.4142 6H13V7ZM15 9H16V8.58579L15.7071 8.29289L15 9ZM15 10.5L15.7071 11.2071L16 10.9142V10.5H15ZM13.5 12V13H13.9142L14.2071 12.7071L13.5 12ZM11 12V11H10V12H11ZM11 13V14H12V13H11ZM10 13V12H9V13H10ZM10 14V15H11V14H10ZM9 14V13H8V14H9ZM9 15V16H10V15H9ZM14 9L14.7071 9.70711L15.4142 9L14.7071 8.29289L14 9ZM13 8L13.7071 7.29289L13 6.58579L12.2929 7.29289L13 8ZM13 10L12.2929 10.7071L13 11.4142L13.7071 10.7071L13 10ZM12 9L11.2929 8.29289L10.5858 9L11.2929 9.70711L12 9ZM6 13.5V15H8V13.5H6ZM9.35982 10.2318L6.35982 12.7318L7.64018 14.2682L10.6402 11.7682L9.35982 10.2318ZM9 8.5V11H11V8.5H9ZM10.7929 6.29289L9.29289 7.79289L10.7071 9.20711L12.2071 7.70711L10.7929 6.29289ZM13 6H11.5V8H13V6ZM15.7071 8.29289L13.7071 6.29289L12.2929 7.70711L14.2929 9.70711L15.7071 8.29289ZM16 10.5V9H14V10.5H16ZM14.2071 12.7071L15.7071 11.2071L14.2929 9.79289L12.7929 11.2929L14.2071 12.7071ZM11 13H13.5V11H11V13ZM12 13V12H10V13H12ZM10 14H11V12H10V14ZM11 14V13H9V14H11ZM9 15H10V13H9V15ZM10 15V14H8V15H10ZM7 16H9V14H7V16ZM14.7071 8.29289L13.7071 7.29289L12.2929 8.70711L13.2929 9.70711L14.7071 8.29289ZM13.7071 10.7071L14.7071 9.70711L13.2929 8.29289L12.2929 9.29289L13.7071 10.7071ZM11.2929 9.70711L12.2929 10.7071L13.7071 9.29289L12.7071 8.29289L11.2929 9.70711ZM12.2929 7.29289L11.2929 8.29289L12.7071 9.70711L13.7071 8.70711L12.2929 7.29289Z" fill="url(#paint8_linear_450_7639)" mask="url(#path-7-outside-1_450_7639)"/>
<defs>
<filter id="filter0_i_450_7639" x="6" y="6" width="10" height="10" filterUnits="userSpaceOnUse" color-interpolation-filters="sRGB">
<feFlood flood-opacity="0" result="BackgroundImageFix"/>
<feBlend mode="normal" in="SourceGraphic" in2="BackgroundImageFix" result="shape"/>
<feColorMatrix in="SourceAlpha" type="matrix" values="0 0 0 0 0 0 0 0 0 0 0 0 0 0 0 0 0 0 127 0" result="hardAlpha"/>
<feOffset dx="2" dy="1"/>
<feComposite in2="hardAlpha" operator="arithmetic" k2="-1" k3="1"/>
<feColorMatrix type="matrix" values="0 0 0 0 1 0 0 0 0 1 0 0 0 0 1 0 0 0 0.5 0"/>
<feBlend mode="normal" in2="shape" result="effect1_innerShadow_450_7639"/>
</filter>
<linearGradient id="paint0_linear_450_7639" x1="1" y1="3.5" x2="15" y2="3.5" gradientUnits="userSpaceOnUse">
<stop stop-color="#A4BDD8"/>
<stop offset="1" stop-color="#7294BA"/>
</linearGradient>
<linearGradient id="paint1_linear_450_7639" x1="1" y1="3.5" x2="15" y2="3.5" gradientUnits="userSpaceOnUse">
<stop stop-color="#7099C1" stop-opacity="0.890196"/>
<stop offset="1" stop-color="#3D4870" stop-opacity="0.933333"/>
</linearGradient>
<linearGradient id="paint2_linear_450_7639" x1="2.5" y1="3" x2="13.5" y2="14" gradientUnits="userSpaceOnUse">
<stop stop-color="#ADCBEC"/>
<stop offset="1" stop-color="#5981B2"/>
</linearGradient>
<linearGradient id="paint3_linear_450_7639" x1="2.5" y1="3" x2="13.5" y2="14" gradientUnits="userSpaceOnUse">
<stop stop-color="#5E85B2"/>
<stop offset="1" stop-color="#404E79" stop-opacity="0.972549"/>
</linearGradient>
<linearGradient id="paint4_linear_450_7639" x1="6" y1="11" x2="8.88" y2="14.84" gradientUnits="userSpaceOnUse">
<stop stop-color="#7AA1CC"/>
<stop offset="1" stop-color="#5981B2"/>
</linearGradient>
<linearGradient id="paint5_linear_450_7639" x1="5.25" y1="7" x2="9.05541" y2="12.2324" gradientUnits="userSpaceOnUse">
<stop stop-color="#D8E9FD"/>
<stop offset="1" stop-color="#577CAA"/>
</linearGradient>
<linearGradient id="paint6_linear_450_7639" x1="8" y1="6" x2="8" y2="11" gradientUnits="userSpaceOnUse">
<stop offset="0.19697" stop-color="#6786AB"/>
<stop offset="0.201382" stop-color="#6786AB" stop-opacity="0"/>
</linearGradient>
<linearGradient id="paint7_linear_450_7639" x1="1" y1="3.5" x2="15" y2="3.5" gradientUnits="userSpaceOnUse">
<stop stop-color="#CADCF0"/>
<stop offset="1" stop-color="#AFC9E2"/>
</linearGradient>
<linearGradient id="paint8_linear_450_7639" x1="8.5" y1="8.5" x2="12.7612" y2="14.0656" gradientUnits="userSpaceOnUse">
<stop stop-color="#EAC15E"/>
<stop offset="1" stop-color="#C98032"/>
</linearGradient>
</defs>
</svg>
