<svg width="16" height="16" viewBox="0 0 16 16" fill="none" xmlns="http://www.w3.org/2000/svg">
<path d="M1.36621 12.0488C1.33366 12.0163 1.31738 11.9471 1.31738 11.8413C1.31738 11.6785 1.32552 11.5972 1.3418 11.5972C1.4069 11.5972 1.50049 11.585 1.62256 11.5605C1.75277 11.528 1.87077 11.4873 1.97656 11.4385C2.08236 11.3896 2.14339 11.3449 2.15967 11.3042C2.21663 11.1007 2.24512 10.7712 2.24512 10.3154V5.65234C2.24512 5.13965 2.21663 4.82227 2.15967 4.7002C2.13525 4.63509 2.07015 4.57812 1.96436 4.5293C1.8667 4.48047 1.7609 4.44385 1.64697 4.41943C1.54118 4.38688 1.45573 4.37061 1.39062 4.37061C1.35807 4.37061 1.3418 4.28923 1.3418 4.12646C1.3418 4.00439 1.34993 3.93522 1.36621 3.91895L3.06299 3.99219C3.16878 4.00033 3.36816 3.99626 3.66113 3.97998C3.96224 3.9637 4.35693 3.94336 4.84521 3.91895C4.86963 3.9515 4.88184 4.03695 4.88184 4.17529C4.88184 4.3055 4.86556 4.37061 4.83301 4.37061C4.78418 4.37061 4.69873 4.38688 4.57666 4.41943C4.46273 4.45199 4.3488 4.49268 4.23486 4.5415C4.12907 4.58219 4.06803 4.62288 4.05176 4.66357C3.98665 4.84261 3.9541 5.18848 3.9541 5.70117V7.43457L3.97852 7.47119L5.44336 7.49561C5.55729 7.49561 5.73226 7.49561 5.96826 7.49561C6.20426 7.48747 6.50537 7.47933 6.87158 7.47119C6.88786 7.45492 6.896 7.43864 6.896 7.42236V5.65234C6.896 5.21289 6.86751 4.89144 6.81055 4.68799C6.79427 4.63916 6.73324 4.59033 6.62744 4.5415C6.52979 4.49268 6.42399 4.45199 6.31006 4.41943C6.19613 4.38688 6.10661 4.37061 6.0415 4.37061C6.02523 4.37061 6.00895 4.33805 5.99268 4.27295C5.98454 4.20785 5.98454 4.13867 5.99268 4.06543C6.00081 3.98405 6.01302 3.93522 6.0293 3.91895L7.84814 3.99219C7.97021 3.99219 8.51953 3.96777 9.49609 3.91895C9.52051 3.99219 9.53271 4.06543 9.53271 4.13867C9.53271 4.29329 9.51237 4.37061 9.47168 4.37061C9.42285 4.37061 9.3374 4.38688 9.21533 4.41943C9.1014 4.45199 8.99154 4.49268 8.88574 4.5415C8.77995 4.58219 8.71891 4.62288 8.70264 4.66357C8.67008 4.78564 8.64567 4.93213 8.62939 5.10303C8.61312 5.27393 8.60498 5.47331 8.60498 5.70117V10.2666C8.60498 10.4863 8.61312 10.6816 8.62939 10.8525C8.64567 11.0234 8.67008 11.174 8.70264 11.3042C8.71891 11.3368 8.77588 11.3774 8.87354 11.4263C8.97933 11.467 9.08919 11.5036 9.20312 11.5361C9.3252 11.5687 9.41064 11.585 9.45947 11.585C9.49202 11.585 9.5083 11.6704 9.5083 11.8413C9.5083 11.9064 9.49609 11.9756 9.47168 12.0488C9.43913 12.0488 9.36182 12.0448 9.23975 12.0366C9.11768 12.0285 8.95492 12.0163 8.75146 12C8.54801 11.9837 8.36898 11.9715 8.21436 11.9634C8.05973 11.9552 7.92952 11.9512 7.82373 11.9512C7.71794 11.9512 7.57145 11.9552 7.38428 11.9634C7.20524 11.9715 7.01807 11.9837 6.82275 12C6.63558 12.0081 6.46468 12.0163 6.31006 12.0244C6.15544 12.0407 6.05371 12.0488 6.00488 12.0488C5.98861 12.0244 5.9764 11.9756 5.96826 11.9023C5.96012 11.8291 5.96012 11.7599 5.96826 11.6948C5.98454 11.6297 6.00081 11.5972 6.01709 11.5972C6.08219 11.5972 6.17578 11.5809 6.29785 11.5483C6.41992 11.5158 6.53385 11.4751 6.63965 11.4263C6.74544 11.3693 6.80648 11.3205 6.82275 11.2798C6.87158 11.0926 6.896 10.7712 6.896 10.3154V8.27686L6.87158 8.22803L5.44336 8.20361C4.43424 8.21175 3.92969 8.22396 3.92969 8.24023L3.9541 8.26465V10.2666C3.9541 10.4782 3.96224 10.6694 3.97852 10.8403C3.99479 11.0112 4.01921 11.1618 4.05176 11.292C4.06803 11.3245 4.125 11.3652 4.22266 11.4141C4.32845 11.4629 4.43831 11.5076 4.55225 11.5483C4.67432 11.5809 4.75977 11.5972 4.80859 11.5972C4.84115 11.5972 4.85742 11.6582 4.85742 11.7803C4.86556 11.9023 4.85742 11.9919 4.83301 12.0488C4.43424 12.0244 4.09652 12.0041 3.81982 11.9878C3.55127 11.9634 3.30713 11.9512 3.0874 11.9512C2.81885 11.9512 2.54622 11.9634 2.26953 11.9878C2.00098 12.0041 1.69987 12.0244 1.36621 12.0488ZM13.4341 4.13867C13.5806 4.13867 13.6538 4.17936 13.6538 4.26074V9.02148H14.1543C14.2764 9.02148 14.3374 9.26562 14.3374 9.75391C14.3374 9.81087 14.313 9.84749 14.2642 9.86377L14.2275 9.87598H13.6538V11.9512C13.4585 12.0244 13.1899 12.061 12.8481 12.061C12.3761 12.061 12.1401 12.0081 12.1401 11.9023V9.87598H9.10059C8.97852 9.75391 8.91748 9.55859 8.91748 9.29004L13.1045 4.30957C13.2021 4.19564 13.312 4.13867 13.4341 4.13867ZM12.1401 9.02148V6.56787C12.1401 6.49463 12.1279 6.45801 12.1035 6.45801C12.0954 6.45801 12.075 6.47428 12.0425 6.50684L10.0649 8.875C10.0568 8.88314 10.0527 8.89535 10.0527 8.91162C10.0527 8.98486 10.0812 9.02148 10.1382 9.02148H12.1401Z" fill="url(#paint0_linear_410_6738)"/>
<defs>
<linearGradient id="paint0_linear_410_6738" x1="1" y1="3.6" x2="6.29836" y2="15.0538" gradientUnits="userSpaceOnUse">
<stop stop-color="#666666"/>
<stop offset="1"/>
</linearGradient>
</defs>
</svg>
