<svg width="16" height="16" viewBox="0 0 16 16" fill="none" xmlns="http://www.w3.org/2000/svg">
<g clip-path="url(#clip0_410_6767)">
<path d="M1.36328 11.0469C1.33203 10.9609 1.31641 10.9062 1.31641 10.8828C1.31641 10.7031 1.33203 10.6133 1.36328 10.6133C1.43359 10.6133 1.53906 10.5977 1.67969 10.5664C1.82031 10.5273 1.96094 10.4805 2.10156 10.4258C2.24219 10.3633 2.33984 10.293 2.39453 10.2148L4.65625 7.10938L3.08594 4.70703C2.75 4.19141 2.53906 3.90625 2.45312 3.85156C2.28906 3.73438 2.08203 3.67578 1.83203 3.67578C1.80078 3.67578 1.78516 3.60938 1.78516 3.47656C1.78516 3.35156 1.80078 3.27344 1.83203 3.24219L2.52344 3.27734C2.9375 3.30078 3.25781 3.3125 3.48438 3.3125C3.67188 3.3125 4.23438 3.28906 5.17188 3.24219C5.1875 3.25781 5.19531 3.30469 5.19531 3.38281C5.19531 3.45312 5.19141 3.51953 5.18359 3.58203C5.17578 3.64453 5.16406 3.67578 5.14844 3.67578C5.03125 3.67578 4.89844 3.69922 4.75 3.74609C4.60938 3.78516 4.53516 3.84375 4.52734 3.92188C4.52734 3.99219 4.55859 4.07812 4.62109 4.17969L5.92188 6.14844L6.30859 5.66797C6.39453 5.56641 6.47266 5.47656 6.54297 5.39844C6.61328 5.3125 6.67578 5.23047 6.73047 5.15234C7.23047 4.52734 7.48047 4.15625 7.48047 4.03906C7.48047 3.94531 7.38672 3.86328 7.19922 3.79297C7.01953 3.71484 6.82422 3.67578 6.61328 3.67578C6.59766 3.67578 6.58203 3.64453 6.56641 3.58203C6.55859 3.51953 6.55859 3.45312 6.56641 3.38281C6.57422 3.30469 6.58594 3.25781 6.60156 3.24219C7.46875 3.28906 7.95312 3.3125 8.05469 3.3125C8.15625 3.3125 8.67578 3.28906 9.61328 3.24219C9.63672 3.27344 9.64844 3.35547 9.64844 3.48828C9.64844 3.61328 9.63281 3.67578 9.60156 3.67578C9.49219 3.67578 9.32422 3.71094 9.09766 3.78125C8.87109 3.85156 8.69141 3.96875 8.55859 4.13281L6.36719 6.82812C7.71875 8.85938 8.46094 9.95312 8.59375 10.1094C8.74219 10.2812 8.91797 10.4102 9.12109 10.4961C9.33203 10.5742 9.48828 10.6133 9.58984 10.6133C9.61328 10.6133 9.625 10.6992 9.625 10.8711C9.625 10.9414 9.61328 11 9.58984 11.0469C8.65234 11 8.08203 10.9766 7.87891 10.9766C7.62891 10.9766 7.27344 10.9883 6.8125 11.0117L6.02734 11.0469C6.01172 11.0234 6 10.9766 5.99219 10.9062C5.99219 10.8359 5.99609 10.7695 6.00391 10.707C6.01953 10.6445 6.03516 10.6133 6.05078 10.6133C6.12109 10.6133 6.20703 10.6016 6.30859 10.5781C6.41016 10.5469 6.5 10.5078 6.57812 10.4609C6.66406 10.4062 6.70703 10.3477 6.70703 10.2852C6.70703 10.2305 6.69531 10.1875 6.67188 10.1562L5.14844 7.84766C4.05469 9.30859 3.50781 10.1016 3.50781 10.2266C3.50781 10.3438 3.60156 10.4375 3.78906 10.5078C3.97656 10.5781 4.17188 10.6133 4.375 10.6133C4.41406 10.6133 4.43359 10.6953 4.43359 10.8594C4.43359 10.9375 4.42578 11 4.41016 11.0469C3.63672 11 3.12109 10.9766 2.86328 10.9766L1.36328 11.0469Z" fill="url(#paint0_linear_410_6767)"/>
<path d="M12.208 8.312C13.472 8.312 14.12 9.056 14.12 9.904C14.12 10.8 13.568 11.528 11.88 13.032H14.248L14.112 14H10.432V13.104C12.248 11.336 12.832 10.68 12.832 10.016C12.832 9.568 12.568 9.288 12.088 9.288C11.672 9.288 11.384 9.456 11.088 9.848L10.32 9.264C10.736 8.688 11.312 8.312 12.208 8.312Z" fill="url(#paint1_linear_410_6767)"/>
</g>
<defs>
<linearGradient id="paint0_linear_410_6767" x1="1" y1="2.6" x2="7.59218" y2="11.7612" gradientUnits="userSpaceOnUse">
<stop stop-color="#666666"/>
<stop offset="1"/>
</linearGradient>
<linearGradient id="paint1_linear_410_6767" x1="10.5" y1="8.5" x2="14" y2="14" gradientUnits="userSpaceOnUse">
<stop stop-color="#A2C3EE"/>
<stop offset="1" stop-color="#6097DF"/>
</linearGradient>
<clipPath id="clip0_410_6767">
<rect width="16" height="16" fill="white"/>
</clipPath>
</defs>
</svg>
