<svg width="16" height="16" viewBox="0 0 16 16" fill="none" xmlns="http://www.w3.org/2000/svg">
<g clip-path="url(#clip0_410_6746)">
<path d="M4.81836 13.0605C4.80827 13.0505 4.80322 13.0202 4.80322 12.9697C4.80322 12.8991 4.81331 12.8133 4.8335 12.7124C4.85368 12.6014 4.87386 12.5459 4.89404 12.5459C5.00505 12.5459 5.1665 12.5156 5.37842 12.4551C5.60042 12.3844 5.73665 12.3037 5.78711 12.2129C5.86784 12.0817 5.93848 11.9102 5.99902 11.6982C6.05957 11.4863 6.11507 11.2391 6.16553 10.9565L7.30078 5.0835C7.3916 4.59912 7.43701 4.23079 7.43701 3.97852C7.43701 3.82715 7.34115 3.7111 7.14941 3.63037C6.96777 3.53955 6.82145 3.49414 6.71045 3.49414C6.70036 3.49414 6.69531 3.47396 6.69531 3.43359C6.69531 3.19141 6.72559 3.04004 6.78613 2.97949C6.9375 2.98958 7.13428 3.00472 7.37646 3.0249C7.61865 3.03499 7.85579 3.04508 8.08789 3.05518C8.33008 3.06527 8.51172 3.07031 8.63281 3.07031C8.81445 3.07031 9.48047 3.04004 10.6309 2.97949V3.05518C10.6309 3.1359 10.6157 3.23177 10.5854 3.34277C10.5653 3.44368 10.54 3.49414 10.5098 3.49414C10.4593 3.49414 10.3634 3.51432 10.2222 3.55469C10.091 3.59505 9.96484 3.64551 9.84375 3.70605C9.72266 3.75651 9.64697 3.80697 9.6167 3.85742C9.57633 3.91797 9.53092 4.03906 9.48047 4.2207C9.43001 4.40234 9.3846 4.58398 9.34424 4.76562C9.30387 4.93717 9.2736 5.06331 9.25342 5.14404L8.14844 10.896C8.09798 11.1584 8.05762 11.3905 8.02734 11.5923C8.00716 11.7941 7.99707 11.9657 7.99707 12.1069C7.99707 12.1675 8.04248 12.2331 8.1333 12.3037C8.23421 12.3743 8.34017 12.4349 8.45117 12.4854C8.57227 12.5257 8.66309 12.5459 8.72363 12.5459C8.74382 12.5459 8.75391 12.5711 8.75391 12.6216C8.75391 12.8133 8.71859 12.9596 8.64795 13.0605C8.59749 13.0605 8.49154 13.0555 8.33008 13.0454C8.16862 13.0353 7.98193 13.0202 7.77002 13C7.5682 12.9899 7.37646 12.9798 7.19482 12.9697C7.02327 12.9596 6.90218 12.9546 6.83154 12.9546C6.71045 12.9546 6.50863 12.9647 6.22607 12.9849C5.95361 12.995 5.68115 13.0101 5.40869 13.0303C5.13623 13.0505 4.93945 13.0605 4.81836 13.0605Z" fill="url(#paint0_linear_410_6746)"/>
</g>
<defs>
<linearGradient id="paint0_linear_410_6746" x1="5" y1="2.5" x2="13.3147" y2="8.66268" gradientUnits="userSpaceOnUse">
<stop stop-color="#666666"/>
<stop offset="1"/>
</linearGradient>
<clipPath id="clip0_410_6746">
<rect width="16" height="16" fill="white"/>
</clipPath>
</defs>
</svg>
