<svg width="16" height="16" viewBox="0 0 16 16" fill="none" xmlns="http://www.w3.org/2000/svg">
<path d="M2 11.5C2 11.2239 2.22386 11 2.5 11H13.5C13.7761 11 14 11.2239 14 11.5C14 11.7761 13.7761 12 13.5 12H2.5C2.22386 12 2 11.7761 2 11.5Z" fill="url(#paint0_linear_410_6671)"/>
<path d="M2 3.5C2 3.22386 2.22386 3 2.5 3H13.5C13.7761 3 14 3.22386 14 3.5C14 3.77614 13.7761 4 13.5 4H2.5C2.22386 4 2 3.77614 2 3.5Z" fill="url(#paint1_linear_410_6671)"/>
<path d="M2 13.5C2 13.2239 2.22386 13 2.5 13H10.5C10.7761 13 11 13.2239 11 13.5C11 13.7761 10.7761 14 10.5 14H2.5C2.22386 14 2 13.7761 2 13.5Z" fill="url(#paint2_linear_410_6671)"/>
<path d="M6 6C6 5.44772 6.44772 5 7 5H13C13.5523 5 14 5.44772 14 6C14 6.55228 13.5523 7 13 7H7C6.44772 7 6 6.55228 6 6Z" fill="url(#paint3_linear_410_6671)"/>
<path d="M6 9C6 8.44772 6.44772 8 7 8H13C13.5523 8 14 8.44772 14 9C14 9.55228 13.5523 10 13 10H7C6.44772 10 6 9.55228 6 9Z" fill="url(#paint4_linear_410_6671)"/>
<path d="M2.5 7L2.5 7.5L2.5 8L2.5 9.02841L4.63977 7.5L2.5 5.97159L2.5 7Z" fill="#91B9EC" stroke="url(#paint5_linear_410_6671)"/>
<defs>
<linearGradient id="paint0_linear_410_6671" x1="2" y1="3" x2="14" y2="14" gradientUnits="userSpaceOnUse">
<stop stop-color="#767676"/>
<stop offset="1" stop-color="#0F0F0F"/>
</linearGradient>
<linearGradient id="paint1_linear_410_6671" x1="2" y1="3" x2="14" y2="14" gradientUnits="userSpaceOnUse">
<stop stop-color="#767676"/>
<stop offset="1" stop-color="#0F0F0F"/>
</linearGradient>
<linearGradient id="paint2_linear_410_6671" x1="2" y1="3" x2="14" y2="14" gradientUnits="userSpaceOnUse">
<stop stop-color="#767676"/>
<stop offset="1" stop-color="#0F0F0F"/>
</linearGradient>
<linearGradient id="paint3_linear_410_6671" x1="2" y1="3" x2="14" y2="14" gradientUnits="userSpaceOnUse">
<stop stop-color="#767676"/>
<stop offset="1" stop-color="#0F0F0F"/>
</linearGradient>
<linearGradient id="paint4_linear_410_6671" x1="2" y1="3" x2="14" y2="14" gradientUnits="userSpaceOnUse">
<stop stop-color="#767676"/>
<stop offset="1" stop-color="#0F0F0F"/>
</linearGradient>
<linearGradient id="paint5_linear_410_6671" x1="1.5" y1="1" x2="1.5" y2="4" gradientUnits="userSpaceOnUse">
<stop stop-color="#99BDF0"/>
<stop offset="1" stop-color="#72A5E3"/>
</linearGradient>
</defs>
</svg>
