<svg width="16" height="16" viewBox="0 0 16 16" fill="none" xmlns="http://www.w3.org/2000/svg">
<path d="M2 13.5C2 13.2239 2.22386 13 2.5 13H10.5C10.7761 13 11 13.2239 11 13.5C11 13.7761 10.7761 14 10.5 14H2.5C2.22386 14 2 13.7761 2 13.5Z" fill="url(#paint0_linear_410_6661)"/>
<path d="M2 9.5C2 9.22386 2.22386 9 2.5 9H10.5C10.7761 9 11 9.22386 11 9.5C11 9.77614 10.7761 10 10.5 10H2.5C2.22386 10 2 9.77614 2 9.5Z" fill="url(#paint1_linear_410_6661)"/>
<path d="M2 5.5C2 5.22386 2.22386 5 2.5 5H10.5C10.7761 5 11 5.22386 11 5.5C11 5.77614 10.7761 6 10.5 6H2.5C2.22386 6 2 5.77614 2 5.5Z" fill="url(#paint2_linear_410_6661)"/>
<path d="M2 3.5C2 3.22386 2.22386 3 2.5 3H13.5C13.7761 3 14 3.22386 14 3.5C14 3.77614 13.7761 4 13.5 4H2.5C2.22386 4 2 3.77614 2 3.5Z" fill="url(#paint3_linear_410_6661)"/>
<path d="M2 7.5C2 7.22386 2.22386 7 2.5 7H13.5C13.7761 7 14 7.22386 14 7.5C14 7.77614 13.7761 8 13.5 8H2.5C2.22386 8 2 7.77614 2 7.5Z" fill="url(#paint4_linear_410_6661)"/>
<path d="M2 11.5C2 11.2239 2.22386 11 2.5 11H13.5C13.7761 11 14 11.2239 14 11.5C14 11.7761 13.7761 12 13.5 12H2.5C2.22386 12 2 11.7761 2 11.5Z" fill="url(#paint5_linear_410_6661)"/>
<defs>
<linearGradient id="paint0_linear_410_6661" x1="2.06282" y1="3" x2="13.9372" y2="14" gradientUnits="userSpaceOnUse">
<stop stop-color="#767676"/>
<stop offset="1" stop-color="#0F0F0F"/>
</linearGradient>
<linearGradient id="paint1_linear_410_6661" x1="2.06282" y1="3" x2="13.9372" y2="14" gradientUnits="userSpaceOnUse">
<stop stop-color="#767676"/>
<stop offset="1" stop-color="#0F0F0F"/>
</linearGradient>
<linearGradient id="paint2_linear_410_6661" x1="2.06282" y1="3" x2="13.9372" y2="14" gradientUnits="userSpaceOnUse">
<stop stop-color="#767676"/>
<stop offset="1" stop-color="#0F0F0F"/>
</linearGradient>
<linearGradient id="paint3_linear_410_6661" x1="2.06282" y1="3" x2="13.9372" y2="14" gradientUnits="userSpaceOnUse">
<stop stop-color="#767676"/>
<stop offset="1" stop-color="#0F0F0F"/>
</linearGradient>
<linearGradient id="paint4_linear_410_6661" x1="2.06282" y1="3" x2="13.9372" y2="14" gradientUnits="userSpaceOnUse">
<stop stop-color="#767676"/>
<stop offset="1" stop-color="#0F0F0F"/>
</linearGradient>
<linearGradient id="paint5_linear_410_6661" x1="2.06282" y1="3" x2="13.9372" y2="14" gradientUnits="userSpaceOnUse">
<stop stop-color="#767676"/>
<stop offset="1" stop-color="#0F0F0F"/>
</linearGradient>
</defs>
</svg>
