<svg width="16" height="16" viewBox="0 0 16 16" fill="none" xmlns="http://www.w3.org/2000/svg">
<g clip-path="url(#clip0_410_6664)">
<path d="M14 13.5C14 13.2239 13.7761 13 13.5 13H2.5C2.22386 13 2 13.2239 2 13.5C2 13.7761 2.22386 14 2.5 14H13.5C13.7761 14 14 13.7761 14 13.5Z" fill="url(#paint0_linear_410_6664)"/>
<path d="M14 9.5C14 9.22386 13.7761 9 13.5 9H2.5C2.22386 9 2 9.22386 2 9.5C2 9.77614 2.22386 10 2.5 10H13.5C13.7761 10 14 9.77614 14 9.5Z" fill="url(#paint1_linear_410_6664)"/>
<path d="M14 5.5C14 5.22386 13.7761 5 13.5 5H9.5C9.22386 5 9 5.22386 9 5.5C9 5.77614 9.22386 6 9.5 6H13.5C13.7761 6 14 5.77614 14 5.5Z" fill="url(#paint2_linear_410_6664)"/>
<path d="M14 3.5C14 3.22386 13.7761 3 13.5 3H9.5C9.22386 3 9 3.22386 9 3.5C9 3.77614 9.22386 4 9.5 4H13.5C13.7761 4 14 3.77614 14 3.5Z" fill="url(#paint3_linear_410_6664)"/>
<path d="M14 7.5C14 7.22386 13.7761 7 13.5 7H9.5C9.22386 7 9 7.22386 9 7.5C9 7.77614 9.22386 8 9.5 8H13.5C13.7761 8 14 7.77614 14 7.5Z" fill="url(#paint4_linear_410_6664)"/>
<path d="M14 11.5C14 11.2239 13.7761 11 13.5 11H2.5C2.22386 11 2 11.2239 2 11.5C2 11.7761 2.22386 12 2.5 12H13.5C13.7761 12 14 11.7761 14 11.5Z" fill="url(#paint5_linear_410_6664)"/>
<path d="M2.13184 8.03516C2.1084 8.01172 2.09668 7.96777 2.09668 7.90332C2.09668 7.78027 2.10254 7.71875 2.11426 7.71875C2.16113 7.71875 2.23145 7.7041 2.3252 7.6748C2.41895 7.64551 2.50977 7.61035 2.59766 7.56934C2.69141 7.52246 2.75 7.47852 2.77344 7.4375C2.82031 7.36719 2.87012 7.28223 2.92285 7.18262C2.97559 7.07715 3.01367 6.99219 3.03711 6.92773L3.08105 6.82227L5.02344 2.35742C5.08789 2.20508 5.19629 2.12891 5.34863 2.12891C5.43652 2.12891 5.50684 2.16699 5.55957 2.24316L7.36133 6.69922C7.41406 6.83398 7.46387 6.96289 7.51074 7.08594C7.56348 7.20312 7.61035 7.31445 7.65137 7.41992C7.6748 7.47852 7.72754 7.53125 7.80957 7.57812C7.8916 7.61914 7.97949 7.65137 8.07324 7.6748C8.17285 7.69824 8.24902 7.70996 8.30176 7.70996C8.3252 7.70996 8.33691 7.75977 8.33691 7.85938C8.33691 7.95312 8.33105 8.01172 8.31934 8.03516L7.7832 8C7.61328 7.98828 7.4668 7.97949 7.34375 7.97363C7.2207 7.96191 7.12109 7.95898 7.04492 7.96484L5.71777 8.03516C5.69434 8.01172 5.68262 7.9502 5.68262 7.85059C5.68262 7.75684 5.69434 7.70996 5.71777 7.70996C5.84668 7.70996 5.97852 7.68359 6.11328 7.63086C6.24805 7.57227 6.31543 7.49609 6.31543 7.40234C6.31543 7.39648 6.29785 7.34375 6.2627 7.24414C6.2334 7.14453 6.17773 7.00098 6.0957 6.81348L5.83203 6.17188C5.80859 6.14844 5.78809 6.13672 5.77051 6.13672C5.71191 6.13086 5.6123 6.12793 5.47168 6.12793C5.33105 6.12793 5.14941 6.12793 4.92676 6.12793C4.7334 6.12793 4.56055 6.12793 4.4082 6.12793C4.26172 6.12793 4.13867 6.13086 4.03906 6.13672C4.01562 6.13672 3.99512 6.15137 3.97754 6.18066L3.6875 6.84863C3.58789 7.08301 3.5293 7.25293 3.51172 7.3584C3.5 7.46387 3.55273 7.5459 3.66992 7.60449C3.77539 7.65723 3.86621 7.68945 3.94238 7.70117C4.02441 7.70703 4.09473 7.70996 4.15332 7.70996C4.1709 7.71582 4.17969 7.7627 4.17969 7.85059C4.17969 7.92676 4.17383 7.98828 4.16211 8.03516C3.89844 8.01758 3.70508 8.00293 3.58203 7.99121C3.46484 7.97949 3.37695 7.97363 3.31836 7.97363C3.25977 7.96777 3.19531 7.96777 3.125 7.97363C3.06055 7.97949 2.95508 7.98828 2.80859 8C2.66211 8.00586 2.43652 8.01758 2.13184 8.03516ZM4.92676 5.60059C5.04395 5.60059 5.15234 5.60059 5.25195 5.60059C5.35742 5.59473 5.45703 5.58887 5.55078 5.58301L5.57715 5.53906L4.94434 3.96582L4.25879 5.53906C4.25879 5.5625 4.26465 5.57422 4.27637 5.57422C4.45215 5.5918 4.66895 5.60059 4.92676 5.60059Z" fill="url(#paint6_linear_410_6664)"/>
</g>
<defs>
<linearGradient id="paint0_linear_410_6664" x1="14" y1="13.9638" x2="2" y2="3.03622" gradientUnits="userSpaceOnUse">
<stop stop-color="#0F0F0F"/>
<stop offset="1" stop-color="#767676"/>
</linearGradient>
<linearGradient id="paint1_linear_410_6664" x1="14" y1="13.9638" x2="2" y2="3.03622" gradientUnits="userSpaceOnUse">
<stop stop-color="#0F0F0F"/>
<stop offset="1" stop-color="#767676"/>
</linearGradient>
<linearGradient id="paint2_linear_410_6664" x1="14" y1="13.9638" x2="2" y2="3.03622" gradientUnits="userSpaceOnUse">
<stop stop-color="#0F0F0F"/>
<stop offset="1" stop-color="#767676"/>
</linearGradient>
<linearGradient id="paint3_linear_410_6664" x1="14" y1="13.9638" x2="2" y2="3.03622" gradientUnits="userSpaceOnUse">
<stop stop-color="#0F0F0F"/>
<stop offset="1" stop-color="#767676"/>
</linearGradient>
<linearGradient id="paint4_linear_410_6664" x1="14" y1="13.9638" x2="2" y2="3.03622" gradientUnits="userSpaceOnUse">
<stop stop-color="#0F0F0F"/>
<stop offset="1" stop-color="#767676"/>
</linearGradient>
<linearGradient id="paint5_linear_410_6664" x1="14" y1="13.9638" x2="2" y2="3.03622" gradientUnits="userSpaceOnUse">
<stop stop-color="#0F0F0F"/>
<stop offset="1" stop-color="#767676"/>
</linearGradient>
<linearGradient id="paint6_linear_410_6664" x1="2.7" y1="2" x2="6.59809" y2="9.1465" gradientUnits="userSpaceOnUse">
<stop stop-color="#9EC4EE"/>
<stop offset="1" stop-color="#6997DF"/>
</linearGradient>
<clipPath id="clip0_410_6664">
<rect width="16" height="16" fill="white"/>
</clipPath>
</defs>
</svg>
