<svg width="16" height="16" viewBox="0 0 16 16" fill="none" xmlns="http://www.w3.org/2000/svg">
<g clip-path="url(#clip0_410_6718)">
<line x1="3" y1="11.5" x2="13" y2="11.5" stroke="url(#paint0_linear_410_6718)"/>
<path d="M1 11.5L4 10.201L4 12.799L1 11.5Z" fill="url(#paint1_linear_410_6718)"/>
<path d="M15 11.5L12 10.201L12 12.799L15 11.5Z" fill="url(#paint2_linear_410_6718)"/>
<path d="M0.378418 10.0366C0.345866 10.0041 0.32959 9.94303 0.32959 9.85352C0.32959 9.70703 0.337728 9.63379 0.354004 9.63379C0.419108 9.63379 0.512695 9.61751 0.634766 9.58496C0.764974 9.55241 0.887044 9.51172 1.00098 9.46289C1.12305 9.40592 1.20036 9.34896 1.23291 9.29199C1.31429 9.16992 1.3916 9.03158 1.46484 8.87695C1.53809 8.71419 1.6154 8.53516 1.69678 8.33984L3.96729 2.84668C4.1626 2.35026 4.31315 2.05729 4.41895 1.96777C4.47591 1.91081 4.54508 1.88232 4.62646 1.88232C4.68343 1.88232 4.73226 1.90267 4.77295 1.94336L7.33643 8.33984C7.40153 8.49447 7.46257 8.64909 7.51953 8.80371C7.58464 8.9502 7.64567 9.09261 7.70264 9.23096C7.73519 9.31234 7.80843 9.38558 7.92236 9.45068C8.0363 9.50765 8.1543 9.55241 8.27637 9.58496C8.39844 9.61751 8.49202 9.63379 8.55713 9.63379C8.58968 9.63379 8.60596 9.70703 8.60596 9.85352C8.60596 9.94303 8.59782 10.0041 8.58154 10.0366L7.04346 9.96338L5.45654 10.0366C5.42399 10.0041 5.40771 9.92676 5.40771 9.80469C5.40771 9.69076 5.42399 9.63379 5.45654 9.63379C5.5542 9.63379 5.68848 9.60938 5.85938 9.56055C6.03027 9.51172 6.132 9.45475 6.16455 9.38965C6.18896 9.34082 6.20117 9.28792 6.20117 9.23096C6.20117 9.14958 6.18083 9.03971 6.14014 8.90137C6.09945 8.76302 6.04248 8.59212 5.96924 8.38867L5.54199 7.25342C5.50944 7.22087 5.48096 7.20459 5.45654 7.20459C5.32633 7.19645 5.17171 7.19238 4.99268 7.19238C4.82178 7.18424 4.62646 7.18018 4.40674 7.18018C3.96729 7.18018 3.50342 7.19238 3.01514 7.2168C2.96631 7.2168 2.94189 7.23307 2.94189 7.26562L2.47803 8.40088C2.39665 8.60433 2.33561 8.77523 2.29492 8.91357C2.26237 9.04378 2.24609 9.13737 2.24609 9.19434C2.24609 9.29199 2.29085 9.37337 2.38037 9.43848C2.4292 9.47103 2.50244 9.50358 2.6001 9.53613C2.70589 9.56055 2.81169 9.58496 2.91748 9.60938C3.02327 9.62565 3.09652 9.63379 3.13721 9.63379C3.16162 9.64193 3.17383 9.69889 3.17383 9.80469C3.17383 9.86165 3.16976 9.91048 3.16162 9.95117C3.16162 9.98372 3.15755 10.0122 3.14941 10.0366C2.84831 10.0203 2.6001 10.0041 2.40479 9.98779C2.21761 9.97152 2.04264 9.96338 1.87988 9.96338C1.71712 9.96338 1.52181 9.96745 1.29395 9.97559C1.06608 9.98372 0.760905 10.0041 0.378418 10.0366ZM4.18701 6.521C4.47998 6.521 4.81364 6.50879 5.18799 6.48438L5.2124 6.43555L4.28467 3.99414L3.28369 6.43555C3.28369 6.4681 3.29183 6.48438 3.30811 6.48438C3.59294 6.50879 3.8859 6.521 4.18701 6.521ZM11.3955 10.1221C11.3141 10.1221 11.249 10.0814 11.2002 10L8.68555 3.75C8.50651 3.27799 8.35189 2.91585 8.22168 2.66357C8.16471 2.55778 8.03857 2.4764 7.84326 2.41943C7.64795 2.35433 7.49333 2.32178 7.37939 2.32178C7.34684 2.32178 7.33057 2.26074 7.33057 2.13867C7.33057 2.02474 7.34277 1.9515 7.36719 1.91895L8.03857 1.95557C8.4292 1.97998 8.73438 1.99219 8.9541 1.99219C9.06803 1.99219 9.62549 1.96777 10.6265 1.91895C10.6509 1.9515 10.6631 2.02474 10.6631 2.13867C10.6631 2.26074 10.6468 2.32178 10.6143 2.32178C10.4515 2.32178 10.2847 2.3584 10.1138 2.43164C9.94287 2.50488 9.85742 2.61068 9.85742 2.74902C9.85742 2.91178 10.1667 3.74593 10.7852 5.25146C10.8828 5.50374 10.9642 5.70312 11.0293 5.84961C11.1758 6.2321 11.3182 6.58203 11.4565 6.89941C11.5949 7.20866 11.7088 7.44873 11.7983 7.61963C11.8879 7.79053 11.9326 7.8597 11.9326 7.82715L13.7148 3.61572C13.8776 3.2251 13.959 2.94434 13.959 2.77344C13.959 2.62695 13.8613 2.51709 13.666 2.44385C13.4788 2.36247 13.2876 2.32178 13.0923 2.32178C13.0597 2.32178 13.0435 2.26481 13.0435 2.15088C13.0516 2.02881 13.0638 1.9515 13.0801 1.91895C13.1533 1.91895 13.3486 1.93115 13.666 1.95557C13.9834 1.97998 14.2397 1.99219 14.4351 1.99219C14.6466 1.99219 14.8908 1.97998 15.1675 1.95557L15.7656 1.91895C15.7819 1.96777 15.79 2.02881 15.79 2.10205C15.79 2.2404 15.7819 2.30957 15.7656 2.30957C15.6598 2.30957 15.5174 2.34212 15.3384 2.40723C15.1675 2.46419 15.0332 2.54964 14.9355 2.66357C14.8216 2.84261 14.6466 3.20068 14.4106 3.73779L11.8716 9.68262C11.7495 9.97559 11.5908 10.1221 11.3955 10.1221Z" fill="url(#paint3_linear_410_6718)"/>
</g>
<defs>
<linearGradient id="paint0_linear_410_6718" x1="3" y1="12.5" x2="13" y2="12.5" gradientUnits="userSpaceOnUse">
<stop stop-color="#9AC1ED"/>
<stop offset="1" stop-color="#72A4E3"/>
</linearGradient>
<linearGradient id="paint1_linear_410_6718" x1="3" y1="10" x2="3" y2="13" gradientUnits="userSpaceOnUse">
<stop stop-color="#91BCEB"/>
<stop offset="1" stop-color="#88B6EA"/>
</linearGradient>
<linearGradient id="paint2_linear_410_6718" x1="13" y1="10" x2="13" y2="13" gradientUnits="userSpaceOnUse">
<stop stop-color="#76A7E5"/>
<stop offset="1" stop-color="#6694DE"/>
</linearGradient>
<linearGradient id="paint3_linear_410_6718" x1="16" y1="10" x2="7.36744" y2="-2.92188" gradientUnits="userSpaceOnUse">
<stop stop-color="#2B2B2B"/>
<stop offset="1" stop-color="#777777"/>
</linearGradient>
<clipPath id="clip0_410_6718">
<rect width="16" height="16" fill="white"/>
</clipPath>
</defs>
</svg>
