<svg width="16" height="16" viewBox="0 0 16 16" fill="none" xmlns="http://www.w3.org/2000/svg">
<path d="M2 7.5C2 7.22386 2.22386 7 2.5 7H13.5C13.7761 7 14 7.22386 14 7.5C14 7.77614 13.7761 8 13.5 8H2.5C2.22386 8 2 7.77614 2 7.5Z" fill="url(#paint0_linear_410_6682)"/>
<path d="M2 5.5C2 5.22386 2.22386 5 2.5 5H10.5C10.7761 5 11 5.22386 11 5.5C11 5.77614 10.7761 6 10.5 6H2.5C2.22386 6 2 5.77614 2 5.5Z" fill="url(#paint1_linear_410_6682)"/>
<path d="M2 9.5C2 9.22386 2.22386 9 2.5 9H10.5C10.7761 9 11 9.22386 11 9.5C11 9.77614 10.7761 10 10.5 10H2.5C2.22386 10 2 9.77614 2 9.5Z" fill="url(#paint2_linear_410_6682)"/>
<path d="M2 3.5C2 3.22386 2.22386 3 2.5 3H13.5C13.7761 3 14 3.22386 14 3.5C14 3.77614 13.7761 4 13.5 4H2.5C2.22386 4 2 3.77614 2 3.5Z" fill="url(#paint3_linear_410_6682)"/>
<path d="M3 11.5C2.72386 11.5 2.5 11.7239 2.5 12V13C2.5 13.2761 2.72386 13.5 3 13.5H13C13.2761 13.5 13.5 13.2761 13.5 13V12C13.5 11.7239 13.2761 11.5 13 11.5H3Z" fill="url(#paint4_linear_410_6682)" stroke="url(#paint5_linear_410_6682)" stroke-linejoin="round"/>
<defs>
<linearGradient id="paint0_linear_410_6682" x1="2" y1="3" x2="14" y2="10" gradientUnits="userSpaceOnUse">
<stop stop-color="#767676"/>
<stop offset="1" stop-color="#0F0F0F"/>
</linearGradient>
<linearGradient id="paint1_linear_410_6682" x1="2" y1="3" x2="14" y2="10" gradientUnits="userSpaceOnUse">
<stop stop-color="#767676"/>
<stop offset="1" stop-color="#0F0F0F"/>
</linearGradient>
<linearGradient id="paint2_linear_410_6682" x1="2" y1="3" x2="14" y2="10" gradientUnits="userSpaceOnUse">
<stop stop-color="#767676"/>
<stop offset="1" stop-color="#0F0F0F"/>
</linearGradient>
<linearGradient id="paint3_linear_410_6682" x1="2" y1="3" x2="14" y2="10" gradientUnits="userSpaceOnUse">
<stop stop-color="#767676"/>
<stop offset="1" stop-color="#0F0F0F"/>
</linearGradient>
<linearGradient id="paint4_linear_410_6682" x1="2" y1="12.5" x2="14" y2="12.5" gradientUnits="userSpaceOnUse">
<stop stop-color="#F0F0F0"/>
<stop offset="1" stop-color="#E6E6E6"/>
</linearGradient>
<linearGradient id="paint5_linear_410_6682" x1="2" y1="12.5" x2="14" y2="12.5" gradientUnits="userSpaceOnUse">
<stop stop-color="#BCBCBC"/>
<stop offset="1" stop-color="#B7B7B7"/>
</linearGradient>
</defs>
</svg>
