<svg width="16" height="16" viewBox="0 0 16 16" fill="none" xmlns="http://www.w3.org/2000/svg">
<path d="M1.36621 12.0488C1.33366 12.0163 1.31738 11.9471 1.31738 11.8413C1.31738 11.6785 1.32552 11.5972 1.3418 11.5972C1.4069 11.5972 1.50049 11.585 1.62256 11.5605C1.75277 11.528 1.87077 11.4873 1.97656 11.4385C2.08236 11.3896 2.14339 11.3449 2.15967 11.3042C2.21663 11.1007 2.24512 10.7712 2.24512 10.3154V5.65234C2.24512 5.13965 2.21663 4.82227 2.15967 4.7002C2.13525 4.63509 2.07015 4.57812 1.96436 4.5293C1.8667 4.48047 1.7609 4.44385 1.64697 4.41943C1.54118 4.38688 1.45573 4.37061 1.39062 4.37061C1.35807 4.37061 1.3418 4.28923 1.3418 4.12646C1.3418 4.00439 1.34993 3.93522 1.36621 3.91895L3.06299 3.99219C3.16878 4.00033 3.36816 3.99626 3.66113 3.97998C3.96224 3.9637 4.35693 3.94336 4.84521 3.91895C4.86963 3.9515 4.88184 4.03695 4.88184 4.17529C4.88184 4.3055 4.86556 4.37061 4.83301 4.37061C4.78418 4.37061 4.69873 4.38688 4.57666 4.41943C4.46273 4.45199 4.3488 4.49268 4.23486 4.5415C4.12907 4.58219 4.06803 4.62288 4.05176 4.66357C3.98665 4.84261 3.9541 5.18848 3.9541 5.70117V7.43457L3.97852 7.47119L5.44336 7.49561C5.55729 7.49561 5.73226 7.49561 5.96826 7.49561C6.20426 7.48747 6.50537 7.47933 6.87158 7.47119C6.88786 7.45492 6.896 7.43864 6.896 7.42236V5.65234C6.896 5.21289 6.86751 4.89144 6.81055 4.68799C6.79427 4.63916 6.73324 4.59033 6.62744 4.5415C6.52979 4.49268 6.42399 4.45199 6.31006 4.41943C6.19613 4.38688 6.10661 4.37061 6.0415 4.37061C6.02523 4.37061 6.00895 4.33805 5.99268 4.27295C5.98454 4.20785 5.98454 4.13867 5.99268 4.06543C6.00081 3.98405 6.01302 3.93522 6.0293 3.91895L7.84814 3.99219C7.97021 3.99219 8.51953 3.96777 9.49609 3.91895C9.52051 3.99219 9.53271 4.06543 9.53271 4.13867C9.53271 4.29329 9.51237 4.37061 9.47168 4.37061C9.42285 4.37061 9.3374 4.38688 9.21533 4.41943C9.1014 4.45199 8.99154 4.49268 8.88574 4.5415C8.77995 4.58219 8.71891 4.62288 8.70264 4.66357C8.67008 4.78564 8.64567 4.93213 8.62939 5.10303C8.61312 5.27393 8.60498 5.47331 8.60498 5.70117V10.2666C8.60498 10.4863 8.61312 10.6816 8.62939 10.8525C8.64567 11.0234 8.67008 11.174 8.70264 11.3042C8.71891 11.3368 8.77588 11.3774 8.87354 11.4263C8.97933 11.467 9.08919 11.5036 9.20312 11.5361C9.3252 11.5687 9.41064 11.585 9.45947 11.585C9.49202 11.585 9.5083 11.6704 9.5083 11.8413C9.5083 11.9064 9.49609 11.9756 9.47168 12.0488C9.43913 12.0488 9.36182 12.0448 9.23975 12.0366C9.11768 12.0285 8.95492 12.0163 8.75146 12C8.54801 11.9837 8.36898 11.9715 8.21436 11.9634C8.05973 11.9552 7.92952 11.9512 7.82373 11.9512C7.71794 11.9512 7.57145 11.9552 7.38428 11.9634C7.20524 11.9715 7.01807 11.9837 6.82275 12C6.63558 12.0081 6.46468 12.0163 6.31006 12.0244C6.15544 12.0407 6.05371 12.0488 6.00488 12.0488C5.98861 12.0244 5.9764 11.9756 5.96826 11.9023C5.96012 11.8291 5.96012 11.7599 5.96826 11.6948C5.98454 11.6297 6.00081 11.5972 6.01709 11.5972C6.08219 11.5972 6.17578 11.5809 6.29785 11.5483C6.41992 11.5158 6.53385 11.4751 6.63965 11.4263C6.74544 11.3693 6.80648 11.3205 6.82275 11.2798C6.87158 11.0926 6.896 10.7712 6.896 10.3154V8.27686L6.87158 8.22803L5.44336 8.20361C4.43424 8.21175 3.92969 8.22396 3.92969 8.24023L3.9541 8.26465V10.2666C3.9541 10.4782 3.96224 10.6694 3.97852 10.8403C3.99479 11.0112 4.01921 11.1618 4.05176 11.292C4.06803 11.3245 4.125 11.3652 4.22266 11.4141C4.32845 11.4629 4.43831 11.5076 4.55225 11.5483C4.67432 11.5809 4.75977 11.5972 4.80859 11.5972C4.84115 11.5972 4.85742 11.6582 4.85742 11.7803C4.86556 11.9023 4.85742 11.9919 4.83301 12.0488C4.43424 12.0244 4.09652 12.0041 3.81982 11.9878C3.55127 11.9634 3.30713 11.9512 3.0874 11.9512C2.81885 11.9512 2.54622 11.9634 2.26953 11.9878C2.00098 12.0041 1.69987 12.0244 1.36621 12.0488ZM11.3672 12.0488C10.8382 12.0488 10.3621 11.9105 9.93896 11.6338C9.89014 11.4954 9.86572 11.3774 9.86572 11.2798C9.86572 11.0926 9.90234 10.9258 9.97559 10.7793C10.057 10.6247 10.1912 10.5474 10.3784 10.5474C10.6144 10.5474 10.8423 10.6938 11.062 10.9868C11.2736 11.2716 11.5584 11.4141 11.9165 11.4141C12.299 11.4141 12.592 11.2676 12.7954 10.9746C12.9989 10.6735 13.1006 10.2503 13.1006 9.70508C13.1006 9.23307 12.9867 8.85059 12.7588 8.55762C12.5309 8.25651 12.2176 8.10596 11.8188 8.10596C11.7293 8.10596 11.6276 8.1141 11.5137 8.13037C11.3997 8.13851 11.2777 8.15072 11.1475 8.16699C11.0905 8.10189 11.062 7.97982 11.062 7.80078C11.062 7.73568 11.0742 7.67464 11.0986 7.61768C11.5625 7.54443 11.9246 7.3654 12.1851 7.08057C12.4536 6.7876 12.5879 6.42139 12.5879 5.98193C12.5879 5.64827 12.5106 5.40413 12.356 5.24951C12.2095 5.09489 12.0386 5.01758 11.8433 5.01758C11.3875 5.01758 11.005 5.18848 10.6958 5.53027C10.6388 5.53027 10.5778 5.48958 10.5127 5.4082C10.4476 5.32682 10.415 5.25765 10.415 5.20068C10.651 4.89144 10.9603 4.64323 11.3428 4.45605C11.7253 4.26074 12.1444 4.16309 12.6001 4.16309C12.828 4.16309 13.0477 4.21598 13.2593 4.32178C13.479 4.42757 13.658 4.58626 13.7964 4.79785C13.9429 5.0013 14.0161 5.25765 14.0161 5.56689C14.0161 5.82731 13.9632 6.07959 13.8574 6.32373C13.7516 6.55973 13.6174 6.77132 13.4546 6.9585C13.3 7.14567 13.1413 7.28809 12.9785 7.38574C13.1413 7.38574 13.3203 7.43864 13.5156 7.54443C13.7191 7.64209 13.9144 7.78044 14.1016 7.95947C14.2887 8.13851 14.4434 8.3501 14.5654 8.59424C14.6875 8.83838 14.7485 9.10286 14.7485 9.3877C14.7485 9.78646 14.6549 10.1527 14.4678 10.4863C14.2806 10.8118 14.0243 11.0926 13.6987 11.3286C13.3732 11.5565 13.0111 11.7355 12.6123 11.8657C12.2135 11.9878 11.7985 12.0488 11.3672 12.0488Z" fill="url(#paint0_linear_410_6736)"/>
<defs>
<linearGradient id="paint0_linear_410_6736" x1="1" y1="3.6" x2="6.0601" y2="15.3201" gradientUnits="userSpaceOnUse">
<stop stop-color="#666666"/>
<stop offset="1"/>
</linearGradient>
</defs>
</svg>
