<svg width="16" height="16" viewBox="0 0 16 16" fill="none" xmlns="http://www.w3.org/2000/svg">
<g clip-path="url(#clip0_410_6762)">
<path d="M8.26923 13.1514C7.86558 13.1514 7.42662 13.116 6.95233 13.0454C6.47805 12.9849 5.95835 12.889 5.39325 12.7578C5.34279 12.5358 5.28729 12.2583 5.22675 11.9253C5.17629 11.5923 5.13088 11.2694 5.09052 10.9565C5.06024 10.6336 5.0451 10.3965 5.0451 10.2451C5.07538 10.1442 5.1662 10.0938 5.31757 10.0938C5.63039 10.0938 5.79185 10.124 5.80194 10.1846C5.86249 10.4873 5.99872 10.8052 6.21063 11.1382C6.42255 11.4611 6.67987 11.7336 6.9826 11.9556C7.29543 12.1776 7.62339 12.2886 7.96649 12.2886C8.96552 12.2886 9.46503 11.7386 9.46503 10.6387C9.46503 10.346 9.34898 10.0786 9.11688 9.83643C8.89488 9.59424 8.63251 9.37728 8.32977 9.18555C8.03713 8.99382 7.78485 8.82731 7.57294 8.68604L7.11884 8.3833C6.77574 8.1512 6.45282 7.91406 6.15009 7.67188C5.84735 7.4196 5.60012 7.132 5.40839 6.80908C5.22675 6.47607 5.13593 6.07243 5.13593 5.59814C5.13593 5.0835 5.29234 4.6193 5.60516 4.20557C5.91799 3.79183 6.32163 3.46387 6.8161 3.22168C7.31057 2.97949 7.82522 2.8584 8.36005 2.8584C8.57196 2.8584 8.78892 2.87354 9.01093 2.90381C9.24302 2.93408 9.4398 2.96436 9.60126 2.99463C9.90399 3.05518 10.1613 3.11572 10.3732 3.17627C10.5952 3.22673 10.7718 3.26204 10.903 3.28223C10.9535 3.77669 10.9938 4.23079 11.0241 4.64453C11.0544 5.05827 11.0695 5.44173 11.0695 5.79492C11.0292 5.89583 10.9535 5.94629 10.8425 5.94629C10.5397 5.94629 10.3833 5.91097 10.3732 5.84033C10.3329 5.49723 10.2219 5.16423 10.0402 4.84131C9.85858 4.51839 9.62649 4.25098 9.34393 4.03906C9.06138 3.81706 8.73846 3.70605 8.37518 3.70605C8.03208 3.70605 7.73944 3.81201 7.49725 4.02393C7.26516 4.23584 7.14911 4.57389 7.14911 5.03809C7.14911 5.45182 7.33075 5.8151 7.69403 6.12793C8.0674 6.44076 8.54673 6.78385 9.13202 7.15723L9.90399 7.6416C10.1865 7.81315 10.454 8.00488 10.7062 8.2168C10.9585 8.41862 11.1654 8.68604 11.3268 9.01904C11.4883 9.34196 11.569 9.78597 11.569 10.3511C11.569 10.8859 11.4126 11.3652 11.0998 11.7891C10.7971 12.2129 10.3934 12.5459 9.88885 12.7881C9.39439 13.0303 8.85451 13.1514 8.26923 13.1514Z" fill="url(#paint0_linear_410_6762)"/>
<path d="M15 8.5C15 8.22386 14.7761 8 14.5 8H1.5C1.22386 8 1 8.22386 1 8.5C1 8.77614 1.22386 9 1.5 9H14.5C14.7761 9 15 8.77614 15 8.5Z" fill="url(#paint1_linear_410_6762)"/>
</g>
<defs>
<linearGradient id="paint0_linear_410_6762" x1="4.66669" y1="1.6" x2="10.8351" y2="11.7597" gradientUnits="userSpaceOnUse">
<stop stop-color="#666666"/>
<stop offset="1"/>
</linearGradient>
<linearGradient id="paint1_linear_410_6762" x1="15" y1="8.96378" x2="2.96942" y2="-3.81753" gradientUnits="userSpaceOnUse">
<stop stop-color="#0F0F0F"/>
<stop offset="1" stop-color="#767676"/>
</linearGradient>
<clipPath id="clip0_410_6762">
<rect width="16" height="16" fill="white"/>
</clipPath>
</defs>
</svg>
