<svg width="16" height="16" viewBox="0 0 16 16" fill="none" xmlns="http://www.w3.org/2000/svg">
<path d="M2 7.5C2 7.22386 2.22386 7 2.5 7H10.5C10.7761 7 11 7.22386 11 7.5C11 7.77614 10.7761 8 10.5 8H2.5C2.22386 8 2 7.77614 2 7.5Z" fill="url(#paint0_linear_410_6692)"/>
<path d="M2 5.5C2 5.22386 2.22386 5 2.5 5H9.5C9.77614 5 10 5.22386 10 5.5C10 5.77614 9.77614 6 9.5 6H2.5C2.22386 6 2 5.77614 2 5.5Z" fill="url(#paint1_linear_410_6692)"/>
<path d="M2 9.5C2 9.22386 2.22386 9 2.5 9H9.5C9.77614 9 10 9.22386 10 9.5C10 9.77614 9.77614 10 9.5 10H2.5C2.22386 10 2 9.77614 2 9.5Z" fill="url(#paint2_linear_410_6692)"/>
<path d="M2 3.5C2 3.22386 2.22386 3 2.5 3H10.5C10.7761 3 11 3.22386 11 3.5C11 3.77614 10.7761 4 10.5 4H2.5C2.22386 4 2 3.77614 2 3.5Z" fill="url(#paint3_linear_410_6692)"/>
<path d="M2 11.5C2 11.2239 2.22386 11 2.5 11H10.5C10.7761 11 11 11.2239 11 11.5C11 11.7761 10.7761 12 10.5 12H2.5C2.22386 12 2 11.7761 2 11.5Z" fill="url(#paint4_linear_410_6692)"/>
<path d="M2 13.5C2 13.2239 2.22386 13 2.5 13H9.5C9.77614 13 10 13.2239 10 13.5C10 13.7761 9.77614 14 9.5 14H2.5C2.22386 14 2 13.7761 2 13.5Z" fill="url(#paint5_linear_410_6692)"/>
<path d="M13 3.5C12.7239 3.5 12.5 3.72386 12.5 4V13C12.5 13.2761 12.7239 13.5 13 13.5H14C14.2761 13.5 14.5 13.2761 14.5 13V4C14.5 3.72386 14.2761 3.5 14 3.5H13Z" fill="url(#paint6_linear_410_6692)" stroke="url(#paint7_linear_410_6692)" stroke-linejoin="round"/>
<defs>
<linearGradient id="paint0_linear_410_6692" x1="2" y1="3" x2="13.2477" y2="10.729" gradientUnits="userSpaceOnUse">
<stop stop-color="#767676"/>
<stop offset="1" stop-color="#0F0F0F"/>
</linearGradient>
<linearGradient id="paint1_linear_410_6692" x1="2" y1="3" x2="13.2477" y2="10.729" gradientUnits="userSpaceOnUse">
<stop stop-color="#767676"/>
<stop offset="1" stop-color="#0F0F0F"/>
</linearGradient>
<linearGradient id="paint2_linear_410_6692" x1="2" y1="3" x2="13.2477" y2="10.729" gradientUnits="userSpaceOnUse">
<stop stop-color="#767676"/>
<stop offset="1" stop-color="#0F0F0F"/>
</linearGradient>
<linearGradient id="paint3_linear_410_6692" x1="2" y1="3" x2="13.2477" y2="10.729" gradientUnits="userSpaceOnUse">
<stop stop-color="#767676"/>
<stop offset="1" stop-color="#0F0F0F"/>
</linearGradient>
<linearGradient id="paint4_linear_410_6692" x1="2" y1="3" x2="13.2477" y2="10.729" gradientUnits="userSpaceOnUse">
<stop stop-color="#767676"/>
<stop offset="1" stop-color="#0F0F0F"/>
</linearGradient>
<linearGradient id="paint5_linear_410_6692" x1="2" y1="3" x2="13.2477" y2="10.729" gradientUnits="userSpaceOnUse">
<stop stop-color="#767676"/>
<stop offset="1" stop-color="#0F0F0F"/>
</linearGradient>
<linearGradient id="paint6_linear_410_6692" x1="12.9" y1="8.5" x2="14.1" y2="8.5" gradientUnits="userSpaceOnUse">
<stop stop-color="#F0F0F0"/>
<stop offset="1" stop-color="#E6E6E6"/>
</linearGradient>
<linearGradient id="paint7_linear_410_6692" x1="12.9" y1="8.5" x2="14.1" y2="8.5" gradientUnits="userSpaceOnUse">
<stop stop-color="#BCBCBC"/>
<stop offset="1" stop-color="#B7B7B7"/>
</linearGradient>
</defs>
</svg>
