<svg width="16" height="16" viewBox="0 0 16 16" fill="none" xmlns="http://www.w3.org/2000/svg">
<g clip-path="url(#clip0_410_6770)">
<path d="M1.36328 14.0469C1.33203 13.9609 1.31641 13.9062 1.31641 13.8828C1.31641 13.7031 1.33203 13.6133 1.36328 13.6133C1.43359 13.6133 1.53906 13.5977 1.67969 13.5664C1.82031 13.5273 1.96094 13.4805 2.10156 13.4258C2.24219 13.3633 2.33984 13.293 2.39453 13.2148L4.65625 10.1094L3.08594 7.70703C2.75 7.19141 2.53906 6.90625 2.45312 6.85156C2.28906 6.73438 2.08203 6.67578 1.83203 6.67578C1.80078 6.67578 1.78516 6.60938 1.78516 6.47656C1.78516 6.35156 1.80078 6.27344 1.83203 6.24219L2.52344 6.27734C2.9375 6.30078 3.25781 6.3125 3.48438 6.3125C3.67188 6.3125 4.23438 6.28906 5.17188 6.24219C5.1875 6.25781 5.19531 6.30469 5.19531 6.38281C5.19531 6.45312 5.19141 6.51953 5.18359 6.58203C5.17578 6.64453 5.16406 6.67578 5.14844 6.67578C5.03125 6.67578 4.89844 6.69922 4.75 6.74609C4.60938 6.78516 4.53516 6.84375 4.52734 6.92188C4.52734 6.99219 4.55859 7.07812 4.62109 7.17969L5.92188 9.14844L6.30859 8.66797C6.39453 8.56641 6.47266 8.47656 6.54297 8.39844C6.61328 8.3125 6.67578 8.23047 6.73047 8.15234C7.23047 7.52734 7.48047 7.15625 7.48047 7.03906C7.48047 6.94531 7.38672 6.86328 7.19922 6.79297C7.01953 6.71484 6.82422 6.67578 6.61328 6.67578C6.59766 6.67578 6.58203 6.64453 6.56641 6.58203C6.55859 6.51953 6.55859 6.45312 6.56641 6.38281C6.57422 6.30469 6.58594 6.25781 6.60156 6.24219C7.46875 6.28906 7.95312 6.3125 8.05469 6.3125C8.15625 6.3125 8.67578 6.28906 9.61328 6.24219C9.63672 6.27344 9.64844 6.35547 9.64844 6.48828C9.64844 6.61328 9.63281 6.67578 9.60156 6.67578C9.49219 6.67578 9.32422 6.71094 9.09766 6.78125C8.87109 6.85156 8.69141 6.96875 8.55859 7.13281L6.36719 9.82812C7.71875 11.8594 8.46094 12.9531 8.59375 13.1094C8.74219 13.2812 8.91797 13.4102 9.12109 13.4961C9.33203 13.5742 9.48828 13.6133 9.58984 13.6133C9.61328 13.6133 9.625 13.6992 9.625 13.8711C9.625 13.9414 9.61328 14 9.58984 14.0469C8.65234 14 8.08203 13.9766 7.87891 13.9766C7.62891 13.9766 7.27344 13.9883 6.8125 14.0117L6.02734 14.0469C6.01172 14.0234 6 13.9766 5.99219 13.9062C5.99219 13.8359 5.99609 13.7695 6.00391 13.707C6.01953 13.6445 6.03516 13.6133 6.05078 13.6133C6.12109 13.6133 6.20703 13.6016 6.30859 13.5781C6.41016 13.5469 6.5 13.5078 6.57812 13.4609C6.66406 13.4062 6.70703 13.3477 6.70703 13.2852C6.70703 13.2305 6.69531 13.1875 6.67188 13.1562L5.14844 10.8477C4.05469 12.3086 3.50781 13.1016 3.50781 13.2266C3.50781 13.3438 3.60156 13.4375 3.78906 13.5078C3.97656 13.5781 4.17188 13.6133 4.375 13.6133C4.41406 13.6133 4.43359 13.6953 4.43359 13.8594C4.43359 13.9375 4.42578 14 4.41016 14.0469C3.63672 14 3.12109 13.9766 2.86328 13.9766L1.36328 14.0469Z" fill="url(#paint0_linear_410_6770)"/>
<path d="M12.208 3.312C13.472 3.312 14.12 4.056 14.12 4.904C14.12 5.8 13.568 6.528 11.88 8.032H14.248L14.112 9H10.432V8.104C12.248 6.336 12.832 5.68 12.832 5.016C12.832 4.568 12.568 4.288 12.088 4.288C11.672 4.288 11.384 4.456 11.088 4.848L10.32 4.264C10.736 3.688 11.312 3.312 12.208 3.312Z" fill="url(#paint1_linear_410_6770)"/>
</g>
<defs>
<linearGradient id="paint0_linear_410_6770" x1="1" y1="5.6" x2="7.59218" y2="14.7612" gradientUnits="userSpaceOnUse">
<stop stop-color="#666666"/>
<stop offset="1"/>
</linearGradient>
<linearGradient id="paint1_linear_410_6770" x1="10.5" y1="3.5" x2="14" y2="9" gradientUnits="userSpaceOnUse">
<stop stop-color="#A2C3EE"/>
<stop offset="1" stop-color="#6097DF"/>
</linearGradient>
<clipPath id="clip0_410_6770">
<rect width="16" height="16" fill="white"/>
</clipPath>
</defs>
</svg>
