<svg width="16" height="16" viewBox="0 0 16 16" fill="none" xmlns="http://www.w3.org/2000/svg">
<g clip-path="url(#clip0_410_6792)">
<mask id="path-1-inside-1_410_6792" fill="white">
<path d="M0.892578 7.03223C0.878255 6.98926 0.871094 6.96419 0.871094 6.95703C0.871094 6.79232 0.892578 6.70996 0.935547 6.70996C0.992839 6.70996 1.0752 6.69564 1.18262 6.66699C1.29004 6.63118 1.39388 6.58822 1.49414 6.53809C1.60156 6.48079 1.67318 6.42708 1.70898 6.37695C1.75911 6.31966 1.82715 6.22298 1.91309 6.08691C2.00618 5.94368 2.11719 5.76107 2.24609 5.53906L5.22168 0.447266C5.45085 0.0605469 5.63704 -0.132812 5.78027 -0.132812C5.82324 -0.132812 5.85905 -0.11849 5.8877 -0.0898438L6.89746 5.53906L7.04785 6.32324C7.06217 6.39486 7.10514 6.45931 7.17676 6.5166C7.25553 6.57389 7.33789 6.62044 7.42383 6.65625C7.51693 6.69206 7.58496 6.70996 7.62793 6.70996C7.64225 6.70996 7.64941 6.73145 7.64941 6.77441C7.64941 6.89616 7.63509 6.9821 7.60645 7.03223L6.38184 6.96777C6.30306 6.96777 5.85547 6.98926 5.03906 7.03223C5.0319 7.02507 5.02832 7.00358 5.02832 6.96777C5.02832 6.7959 5.0498 6.70996 5.09277 6.70996C5.16439 6.70996 5.27181 6.6849 5.41504 6.63477C5.55827 6.57747 5.64779 6.52018 5.68359 6.46289C5.72656 6.37695 5.74805 6.26953 5.74805 6.14062C5.74805 6.10482 5.73014 5.96159 5.69434 5.71094C5.65853 5.45312 5.60482 5.08431 5.5332 4.60449C5.5332 4.56868 5.5153 4.55078 5.47949 4.55078C5.35059 4.5293 5.014 4.51855 4.46973 4.51855C4.20475 4.51855 3.86816 4.5293 3.45996 4.55078C3.42415 4.55078 3.40267 4.5651 3.39551 4.59375C3.38835 4.60807 3.33464 4.69043 3.23438 4.84082C3.14128 4.99121 3.03385 5.17025 2.91211 5.37793C2.79036 5.57845 2.68294 5.77181 2.58984 5.95801C2.49674 6.13704 2.4502 6.26953 2.4502 6.35547C2.4502 6.42708 2.48958 6.49154 2.56836 6.54883C2.6543 6.59896 2.7474 6.63835 2.84766 6.66699C2.95508 6.69564 3.03743 6.70996 3.09473 6.70996C3.10905 6.70996 3.11621 6.72786 3.11621 6.76367C3.11621 6.85677 3.09473 6.94629 3.05176 7.03223C2.97298 7.02507 2.82975 7.01432 2.62207 7C2.42155 6.97852 2.23535 6.96777 2.06348 6.96777C1.94889 6.96777 1.80924 6.97493 1.64453 6.98926C1.48698 6.99642 1.33659 7.00358 1.19336 7.01074C1.05729 7.0179 0.957031 7.02507 0.892578 7.03223ZM4.59863 3.93848C4.80632 3.93848 5.06413 3.92773 5.37207 3.90625C5.40072 3.90625 5.41504 3.89193 5.41504 3.86328L5.23242 2.75684C5.18229 2.46322 5.1429 2.23047 5.11426 2.05859C5.08561 1.87956 5.06771 1.76497 5.06055 1.71484L3.81445 3.90625C4.0293 3.92773 4.29069 3.93848 4.59863 3.93848Z"/>
</mask>
<path d="M0.892578 7.03223C0.878255 6.98926 0.871094 6.96419 0.871094 6.95703C0.871094 6.79232 0.892578 6.70996 0.935547 6.70996C0.992839 6.70996 1.0752 6.69564 1.18262 6.66699C1.29004 6.63118 1.39388 6.58822 1.49414 6.53809C1.60156 6.48079 1.67318 6.42708 1.70898 6.37695C1.75911 6.31966 1.82715 6.22298 1.91309 6.08691C2.00618 5.94368 2.11719 5.76107 2.24609 5.53906L5.22168 0.447266C5.45085 0.0605469 5.63704 -0.132812 5.78027 -0.132812C5.82324 -0.132812 5.85905 -0.11849 5.8877 -0.0898438L6.89746 5.53906L7.04785 6.32324C7.06217 6.39486 7.10514 6.45931 7.17676 6.5166C7.25553 6.57389 7.33789 6.62044 7.42383 6.65625C7.51693 6.69206 7.58496 6.70996 7.62793 6.70996C7.64225 6.70996 7.64941 6.73145 7.64941 6.77441C7.64941 6.89616 7.63509 6.9821 7.60645 7.03223L6.38184 6.96777C6.30306 6.96777 5.85547 6.98926 5.03906 7.03223C5.0319 7.02507 5.02832 7.00358 5.02832 6.96777C5.02832 6.7959 5.0498 6.70996 5.09277 6.70996C5.16439 6.70996 5.27181 6.6849 5.41504 6.63477C5.55827 6.57747 5.64779 6.52018 5.68359 6.46289C5.72656 6.37695 5.74805 6.26953 5.74805 6.14062C5.74805 6.10482 5.73014 5.96159 5.69434 5.71094C5.65853 5.45312 5.60482 5.08431 5.5332 4.60449C5.5332 4.56868 5.5153 4.55078 5.47949 4.55078C5.35059 4.5293 5.014 4.51855 4.46973 4.51855C4.20475 4.51855 3.86816 4.5293 3.45996 4.55078C3.42415 4.55078 3.40267 4.5651 3.39551 4.59375C3.38835 4.60807 3.33464 4.69043 3.23438 4.84082C3.14128 4.99121 3.03385 5.17025 2.91211 5.37793C2.79036 5.57845 2.68294 5.77181 2.58984 5.95801C2.49674 6.13704 2.4502 6.26953 2.4502 6.35547C2.4502 6.42708 2.48958 6.49154 2.56836 6.54883C2.6543 6.59896 2.7474 6.63835 2.84766 6.66699C2.95508 6.69564 3.03743 6.70996 3.09473 6.70996C3.10905 6.70996 3.11621 6.72786 3.11621 6.76367C3.11621 6.85677 3.09473 6.94629 3.05176 7.03223C2.97298 7.02507 2.82975 7.01432 2.62207 7C2.42155 6.97852 2.23535 6.96777 2.06348 6.96777C1.94889 6.96777 1.80924 6.97493 1.64453 6.98926C1.48698 6.99642 1.33659 7.00358 1.19336 7.01074C1.05729 7.0179 0.957031 7.02507 0.892578 7.03223ZM4.59863 3.93848C4.80632 3.93848 5.06413 3.92773 5.37207 3.90625C5.40072 3.90625 5.41504 3.89193 5.41504 3.86328L5.23242 2.75684C5.18229 2.46322 5.1429 2.23047 5.11426 2.05859C5.08561 1.87956 5.06771 1.76497 5.06055 1.71484L3.81445 3.90625C4.0293 3.92773 4.29069 3.93848 4.59863 3.93848Z" fill="black"/>
<path d="M0.892578 7.03223C0.878255 6.98926 0.871094 6.96419 0.871094 6.95703C0.871094 6.79232 0.892578 6.70996 0.935547 6.70996C0.992839 6.70996 1.0752 6.69564 1.18262 6.66699C1.29004 6.63118 1.39388 6.58822 1.49414 6.53809C1.60156 6.48079 1.67318 6.42708 1.70898 6.37695C1.75911 6.31966 1.82715 6.22298 1.91309 6.08691C2.00618 5.94368 2.11719 5.76107 2.24609 5.53906L5.22168 0.447266C5.45085 0.0605469 5.63704 -0.132812 5.78027 -0.132812C5.82324 -0.132812 5.85905 -0.11849 5.8877 -0.0898438L6.89746 5.53906L7.04785 6.32324C7.06217 6.39486 7.10514 6.45931 7.17676 6.5166C7.25553 6.57389 7.33789 6.62044 7.42383 6.65625C7.51693 6.69206 7.58496 6.70996 7.62793 6.70996C7.64225 6.70996 7.64941 6.73145 7.64941 6.77441C7.64941 6.89616 7.63509 6.9821 7.60645 7.03223L6.38184 6.96777C6.30306 6.96777 5.85547 6.98926 5.03906 7.03223C5.0319 7.02507 5.02832 7.00358 5.02832 6.96777C5.02832 6.7959 5.0498 6.70996 5.09277 6.70996C5.16439 6.70996 5.27181 6.6849 5.41504 6.63477C5.55827 6.57747 5.64779 6.52018 5.68359 6.46289C5.72656 6.37695 5.74805 6.26953 5.74805 6.14062C5.74805 6.10482 5.73014 5.96159 5.69434 5.71094C5.65853 5.45312 5.60482 5.08431 5.5332 4.60449C5.5332 4.56868 5.5153 4.55078 5.47949 4.55078C5.35059 4.5293 5.014 4.51855 4.46973 4.51855C4.20475 4.51855 3.86816 4.5293 3.45996 4.55078C3.42415 4.55078 3.40267 4.5651 3.39551 4.59375C3.38835 4.60807 3.33464 4.69043 3.23438 4.84082C3.14128 4.99121 3.03385 5.17025 2.91211 5.37793C2.79036 5.57845 2.68294 5.77181 2.58984 5.95801C2.49674 6.13704 2.4502 6.26953 2.4502 6.35547C2.4502 6.42708 2.48958 6.49154 2.56836 6.54883C2.6543 6.59896 2.7474 6.63835 2.84766 6.66699C2.95508 6.69564 3.03743 6.70996 3.09473 6.70996C3.10905 6.70996 3.11621 6.72786 3.11621 6.76367C3.11621 6.85677 3.09473 6.94629 3.05176 7.03223C2.97298 7.02507 2.82975 7.01432 2.62207 7C2.42155 6.97852 2.23535 6.96777 2.06348 6.96777C1.94889 6.96777 1.80924 6.97493 1.64453 6.98926C1.48698 6.99642 1.33659 7.00358 1.19336 7.01074C1.05729 7.0179 0.957031 7.02507 0.892578 7.03223ZM4.59863 3.93848C4.80632 3.93848 5.06413 3.92773 5.37207 3.90625C5.40072 3.90625 5.41504 3.89193 5.41504 3.86328L5.23242 2.75684C5.18229 2.46322 5.1429 2.23047 5.11426 2.05859C5.08561 1.87956 5.06771 1.76497 5.06055 1.71484L3.81445 3.90625C4.0293 3.92773 4.29069 3.93848 4.59863 3.93848Z" fill="url(#paint0_linear_410_6792)"/>
<path d="M0.892578 7.03223L-0.0561051 7.34845L0.199538 8.11539L1.00301 8.02611L0.892578 7.03223ZM1.18262 6.66699L1.44028 7.63323L1.46983 7.62535L1.49884 7.61568L1.18262 6.66699ZM1.49414 6.53809L1.94135 7.43251L1.95312 7.42663L1.96473 7.42044L1.49414 6.53809ZM1.70898 6.37695L0.956408 5.71845L0.923924 5.75557L0.895251 5.79572L1.70898 6.37695ZM1.91309 6.08691L1.07457 5.54188L1.0676 5.55292L1.91309 6.08691ZM2.24609 5.53906L1.38271 5.03451L1.3813 5.03693L2.24609 5.53906ZM5.22168 0.447266L4.36137 -0.0625463L4.3583 -0.0572848L5.22168 0.447266ZM5.8877 -0.0898438L6.87198 -0.266414L6.8166 -0.575154L6.5948 -0.796951L5.8877 -0.0898438ZM6.89746 5.53906L5.9131 5.71565L5.91536 5.72741L6.89746 5.53906ZM7.04785 6.32324L6.06572 6.5116L6.06727 6.51936L7.04785 6.32324ZM7.17676 6.5166L6.55206 7.29747L6.57 7.31182L6.58859 7.32534L7.17676 6.5166ZM7.42383 6.65625L7.03921 7.57933L7.05196 7.58464L7.06485 7.5896L7.42383 6.65625ZM7.60645 7.03223L7.55389 8.03084L8.16906 8.06322L8.47469 7.52837L7.60645 7.03223ZM6.38184 6.96777L6.43439 5.96916L6.40813 5.96777H6.38184V6.96777ZM5.03906 7.03223L4.33196 7.73933L4.64687 8.05425L5.09162 8.03084L5.03906 7.03223ZM5.41504 6.63477L5.74539 7.57862L5.76608 7.57138L5.78643 7.56324L5.41504 6.63477ZM5.68359 6.46289L6.53159 6.99289L6.55677 6.9526L6.57802 6.9101L5.68359 6.46289ZM5.69434 5.71094L4.70384 5.84851L4.70439 5.85236L5.69434 5.71094ZM5.5332 4.60449H4.5332V4.67871L4.54416 4.75211L5.5332 4.60449ZM5.47949 4.55078L5.31509 5.53718L5.39673 5.55078H5.47949V4.55078ZM3.45996 4.55078V5.55078H3.48626L3.51252 5.5494L3.45996 4.55078ZM3.39551 4.59375L4.28994 5.04096L4.33903 4.94278L4.36565 4.83629L3.39551 4.59375ZM3.23438 4.84082L2.40232 4.28612L2.39298 4.30014L2.38411 4.31447L3.23438 4.84082ZM2.91211 5.37793L3.7669 5.89691L3.7709 5.89031L3.77481 5.88365L2.91211 5.37793ZM2.58984 5.95801L3.47706 6.41936L3.48072 6.41232L3.48427 6.40522L2.58984 5.95801ZM2.56836 6.54883L1.98019 7.35756L2.02095 7.38721L2.06449 7.41261L2.56836 6.54883ZM2.84766 6.66699L2.57294 7.62852L2.58144 7.63095L2.58999 7.63323L2.84766 6.66699ZM3.05176 7.03223L2.96122 8.02812L3.64095 8.08991L3.94619 7.47944L3.05176 7.03223ZM2.62207 7L2.51554 7.99431L2.53437 7.99633L2.55327 7.99763L2.62207 7ZM1.64453 6.98926L1.68994 7.98823L1.71058 7.98729L1.73116 7.9855L1.64453 6.98926ZM1.19336 7.01074L1.14342 6.01199L1.1408 6.01212L1.19336 7.01074ZM5.37207 3.90625V2.90625H5.33723L5.30247 2.90867L5.37207 3.90625ZM5.41504 3.86328H6.41504V3.78131L6.40169 3.70044L5.41504 3.86328ZM5.23242 2.75684L6.21909 2.59399L6.21816 2.58854L5.23242 2.75684ZM5.11426 2.05859L4.1268 2.21659L4.12786 2.22299L5.11426 2.05859ZM5.06055 1.71484L6.0505 1.57342L5.63689 -1.32179L4.19126 1.22054L5.06055 1.71484ZM3.81445 3.90625L2.94516 3.41195L2.18527 4.74832L3.71495 4.90129L3.81445 3.90625ZM1.84126 6.716C1.83588 6.69985 1.83573 6.69859 1.83799 6.70648C1.83893 6.70977 1.84349 6.72571 1.84862 6.74883C1.85122 6.7605 1.85565 6.78152 1.8598 6.8085C1.86307 6.82974 1.87109 6.88515 1.87109 6.95703H-0.128906C-0.128906 7.0784 -0.105387 7.17532 -0.103751 7.18269C-0.0968226 7.21387 -0.0895803 7.2401 -0.085059 7.25592C-0.0756434 7.28888 -0.0650457 7.32163 -0.0561051 7.34845L1.84126 6.716ZM1.87109 6.95703C1.87109 6.89621 1.87723 6.93825 1.85482 7.02415C1.84471 7.06294 1.80764 7.19759 1.69485 7.34171C1.55903 7.51526 1.29952 7.70996 0.935547 7.70996V5.70996C0.550093 5.70996 0.27178 5.91495 0.119844 6.10909C-0.00906014 6.2738 -0.0595491 6.43934 -0.0804102 6.51931C-0.124304 6.68757 -0.128906 6.85314 -0.128906 6.95703H1.87109ZM0.935547 7.70996C1.12714 7.70996 1.31192 7.66746 1.44028 7.63323L0.924955 5.70076C0.908637 5.70511 0.895723 5.70826 0.885925 5.71048C0.876031 5.71272 0.870539 5.71373 0.868942 5.71401C0.867153 5.71432 0.871561 5.71348 0.881186 5.71249C0.886165 5.71198 0.89316 5.71137 0.901957 5.71087C0.910718 5.71038 0.922023 5.70996 0.935547 5.70996V7.70996ZM1.49884 7.61568C1.6507 7.56506 1.79834 7.50402 1.94135 7.43251L1.04693 5.64366C0.989418 5.67241 0.929377 5.69731 0.866389 5.71831L1.49884 7.61568ZM1.96473 7.42044C2.10039 7.34808 2.34624 7.20526 2.52272 6.95819L0.895251 5.79572C0.928103 5.74972 0.959 5.71691 0.980393 5.69623C1.0021 5.67525 1.01929 5.66168 1.02842 5.65483C1.04517 5.64227 1.04698 5.64324 1.02355 5.65573L1.96473 7.42044ZM2.46156 7.03546C2.56599 6.91611 2.6684 6.76369 2.75857 6.62091L1.0676 5.55292C1.03058 5.61153 1.00154 5.65509 0.979801 5.68598C0.956302 5.71937 0.949308 5.72656 0.956408 5.71845L2.46156 7.03546ZM2.75153 6.6319C2.85707 6.46953 2.97728 6.27129 3.11088 6.0412L1.3813 5.03693C1.25709 5.25084 1.1553 5.41784 1.07464 5.54193L2.75153 6.6319ZM3.10948 6.04361L6.08506 0.951816L4.3583 -0.0572848L1.38271 5.03451L3.10948 6.04361ZM6.08197 0.957068C6.12815 0.879141 6.16706 0.819651 6.19855 0.775669C6.23085 0.73056 6.24939 0.710143 6.25352 0.705849C6.26021 0.698902 6.23321 0.729342 6.171 0.765858C6.10824 0.802692 5.97223 0.867188 5.78027 0.867188V-1.13281C5.27917 -1.13281 4.94603 -0.819701 4.81288 -0.681435C4.64232 -0.504312 4.49277 -0.284247 4.36139 -0.0625367L6.08197 0.957068ZM5.78027 0.867188C5.68904 0.867188 5.58094 0.851596 5.46796 0.806406C5.35382 0.76075 5.25711 0.693781 5.18059 0.617263L6.5948 -0.796951C6.36636 -1.02539 6.0706 -1.13281 5.78027 -1.13281V0.867188ZM4.90341 0.0867269L5.91317 5.71563L7.88175 5.36249L6.87198 -0.266414L4.90341 0.0867269ZM5.91536 5.72741L6.06575 6.51159L8.02995 6.13489L7.87956 5.35071L5.91536 5.72741ZM6.06727 6.51936C6.13857 6.87585 6.34504 7.13185 6.55206 7.29747L7.80145 5.73573C7.86525 5.78677 7.98578 5.91386 8.02843 6.12713L6.06727 6.51936ZM6.58859 7.32534C6.7276 7.42644 6.87794 7.51213 7.03921 7.57933L7.80844 5.73317C7.79785 5.72876 7.78347 5.72135 7.76493 5.70787L6.58859 7.32534ZM7.06485 7.5896C7.16073 7.62647 7.38217 7.70996 7.62793 7.70996V5.70996C7.68388 5.70996 7.72654 5.71554 7.75024 5.71936C7.77519 5.72339 7.79219 5.72762 7.79917 5.72946C7.81178 5.73278 7.80804 5.73261 7.78281 5.7229L7.06485 7.5896ZM7.62793 7.70996C7.34896 7.70996 7.10245 7.59332 6.93022 7.4211C6.78256 7.27343 6.72055 7.11788 6.69536 7.0423C6.64683 6.89671 6.64941 6.78211 6.64941 6.77441H8.64941C8.64941 6.72375 8.64842 6.57693 8.59273 6.40985C8.5456 6.26846 8.29935 5.70996 7.62793 5.70996V7.70996ZM6.64941 6.77441C6.64941 6.80008 6.64762 6.79374 6.65228 6.76578C6.65479 6.75068 6.66022 6.72303 6.67166 6.68678C6.68292 6.65113 6.70295 6.59778 6.7382 6.53609L8.47469 7.52837C8.64273 7.2343 8.64941 6.91698 8.64941 6.77441H6.64941ZM7.659 6.03361L6.43439 5.96916L6.32928 7.96639L7.55389 8.03084L7.659 6.03361ZM6.38184 5.96777C6.26854 5.96777 5.77966 5.99186 4.9865 6.03361L5.09162 8.03084C5.49932 8.00939 5.81351 7.99337 6.03501 7.98274C6.14592 7.97741 6.23205 7.97351 6.29438 7.97097C6.36521 7.96808 6.38646 7.96777 6.38184 7.96777V5.96777ZM5.74617 6.32512C5.88345 6.4624 5.94513 6.60488 5.97069 6.67305C5.99932 6.74938 6.01174 6.8124 6.0174 6.84634C6.02856 6.91329 6.02832 6.96084 6.02832 6.96777H4.02832C4.02832 7.01051 4.02987 7.08671 4.04461 7.17514C4.04904 7.20172 4.08686 7.49424 4.33196 7.73933L5.74617 6.32512ZM6.02832 6.96777C6.02832 6.9023 6.03443 6.93752 6.01458 7.01695C6.00593 7.05155 5.97189 7.18299 5.86458 7.32607C5.73615 7.49731 5.47489 7.70996 5.09277 7.70996V5.70996C4.68917 5.70996 4.40912 5.93335 4.26458 6.12607C4.14115 6.29064 4.09368 6.45431 4.07429 6.53188C4.03295 6.69724 4.02832 6.86137 4.02832 6.96777H6.02832ZM5.09277 7.70996C5.34443 7.70996 5.58759 7.63385 5.74539 7.57862L5.08469 5.69091C5.06093 5.69922 5.04182 5.70539 5.02698 5.70984C5.01199 5.71434 5.00318 5.71654 4.99982 5.71732C4.99828 5.71768 4.9987 5.71755 5.00092 5.71713C5.00312 5.71671 5.00774 5.71587 5.01455 5.71492C5.02132 5.71397 5.03118 5.71278 5.04376 5.7118C5.05628 5.71082 5.07282 5.70996 5.09277 5.70996V7.70996ZM5.78643 7.56324C5.89285 7.52068 6.01299 7.46512 6.12865 7.3911C6.2342 7.32355 6.40288 7.19882 6.53159 6.99289L4.8356 5.93289C4.88514 5.85362 4.93697 5.79977 4.9719 5.76783C5.00736 5.73541 5.03622 5.71573 5.05055 5.70656C5.07669 5.68982 5.08046 5.69156 5.04365 5.70629L5.78643 7.56324ZM6.57802 6.9101C6.70997 6.64621 6.74805 6.37418 6.74805 6.14062H4.74805C4.74805 6.16488 4.74316 6.1077 4.78917 6.01568L6.57802 6.9101ZM6.74805 6.14062C6.74805 6.04626 6.73291 5.93042 6.7269 5.88231C6.71688 5.80215 6.7025 5.69703 6.68429 5.56952L4.70439 5.85236C4.72198 5.9755 4.73446 6.06731 4.74234 6.13038C4.74633 6.16225 4.74857 6.1823 4.74965 6.19313C4.7502 6.19855 4.75008 6.19806 4.74975 6.19341C4.74967 6.19231 4.74805 6.17117 4.74805 6.14062H6.74805ZM6.68483 5.57337C6.64832 5.31049 6.59401 4.93771 6.52225 4.45687L4.54416 4.75211C4.61562 5.2309 4.66874 5.59576 4.70384 5.84851L6.68483 5.57337ZM6.5332 4.60449C6.5332 4.43244 6.48951 4.11973 6.22688 3.8571C5.96425 3.59447 5.65154 3.55078 5.47949 3.55078V5.55078C5.34325 5.55078 5.0574 5.51604 4.81267 5.27132C4.56794 5.02659 4.5332 4.74073 4.5332 4.60449H6.5332ZM5.64389 3.56439C5.41428 3.52612 4.98057 3.51855 4.46973 3.51855V5.51855C4.73683 5.51855 4.94523 5.52121 5.09847 5.5261C5.27028 5.53159 5.32468 5.53877 5.31509 5.53718L5.64389 3.56439ZM4.46973 3.51855C4.18054 3.51855 3.82484 3.53019 3.4074 3.55216L3.51252 5.5494C3.91149 5.5284 4.22897 5.51855 4.46973 5.51855V3.51855ZM3.45996 3.55078C3.31843 3.55078 3.0895 3.578 2.86229 3.72947C2.61481 3.89446 2.48001 4.13265 2.42537 4.35121L4.36565 4.83629C4.31817 5.02621 4.19769 5.24291 3.97169 5.39357C3.76597 5.53073 3.56569 5.55078 3.45996 5.55078V3.55078ZM2.50108 4.14654C2.51198 4.12473 2.52113 4.10856 2.52433 4.10293C2.52853 4.09554 2.53173 4.09017 2.53315 4.08781C2.53593 4.08318 2.53702 4.0815 2.53518 4.08444C2.53171 4.08994 2.52451 4.10119 2.51224 4.11999C2.48815 4.15693 2.45185 4.21183 2.40232 4.28612L4.06643 5.39552C4.11716 5.31942 4.15784 5.25795 4.18746 5.21253C4.19432 5.20201 4.25359 5.11366 4.28994 5.04096L2.50108 4.14654ZM2.38411 4.31447C2.28559 4.47361 2.17388 4.65988 2.04941 4.87221L3.77481 5.88365C3.89383 5.68061 3.99696 5.50881 4.08464 5.36718L2.38411 4.31447ZM2.05732 4.85895C1.92313 5.07997 1.80216 5.29731 1.69542 5.51079L3.48427 6.40522C3.56373 6.24631 3.6576 6.07693 3.7669 5.89691L2.05732 4.85895ZM1.70263 5.49666C1.60992 5.67493 1.4502 6.00147 1.4502 6.35547H3.4502C3.4502 6.38944 3.44792 6.41783 3.44534 6.43949C3.44275 6.46124 3.43956 6.47854 3.43696 6.49072C3.43197 6.51413 3.42765 6.52575 3.42857 6.52314C3.42926 6.52116 3.43287 6.51133 3.44126 6.49261C3.44952 6.47418 3.46117 6.44993 3.47706 6.41936L1.70263 5.49666ZM1.4502 6.35547C1.4502 6.85411 1.74356 7.18547 1.98019 7.35756L3.15653 5.74009C3.1941 5.76741 3.26737 5.82864 3.33302 5.93607C3.40379 6.05187 3.4502 6.19703 3.4502 6.35547H1.4502ZM2.06449 7.41261C2.22582 7.50671 2.39637 7.57807 2.57294 7.62852L3.12238 5.70547C3.09842 5.69862 3.08278 5.6912 3.07223 5.68505L2.06449 7.41261ZM2.58999 7.63323C2.71836 7.66746 2.90313 7.70996 3.09473 7.70996V5.70996C3.10825 5.70996 3.11955 5.71038 3.12832 5.71087C3.13711 5.71137 3.14411 5.71198 3.14909 5.71249C3.15871 5.71348 3.16312 5.71432 3.16133 5.71401C3.15973 5.71373 3.15424 5.71272 3.14435 5.71048C3.13455 5.70826 3.12164 5.70511 3.10532 5.70076L2.58999 7.63323ZM3.09473 7.70996C2.87057 7.70996 2.64568 7.63298 2.46394 7.48154C2.29992 7.34485 2.22003 7.18895 2.18236 7.09478C2.11397 6.9238 2.11621 6.78295 2.11621 6.76367H4.11621C4.11621 6.70859 4.11487 6.54088 4.03932 6.352C3.99807 6.24888 3.91371 6.08626 3.74431 5.9451C3.5572 5.78918 3.32605 5.70996 3.09473 5.70996V7.70996ZM2.11621 6.76367C2.11621 6.69647 2.13317 6.63334 2.15733 6.58501L3.94619 7.47944C4.05628 7.25924 4.11621 7.01707 4.11621 6.76367H2.11621ZM3.14229 6.03633C3.05124 6.02806 2.89783 6.01664 2.69087 6.00237L2.55327 7.99763C2.76168 8.012 2.89473 8.02207 2.96122 8.02812L3.14229 6.03633ZM2.7286 6.00569C2.49858 5.98105 2.2764 5.96777 2.06348 5.96777V7.96777C2.1943 7.96777 2.34452 7.97599 2.51554 7.99431L2.7286 6.00569ZM2.06348 5.96777C1.91043 5.96777 1.74001 5.97718 1.5579 5.99302L1.73116 7.9855C1.87848 7.97269 1.98736 7.96777 2.06348 7.96777V5.96777ZM1.59912 5.99029C1.44021 5.99751 1.2883 6.00475 1.14342 6.01199L1.2433 8.00949C1.38488 8.00242 1.53375 7.99533 1.68994 7.98823L1.59912 5.99029ZM1.1408 6.01212C1.00158 6.01945 0.877085 6.02779 0.782147 6.03834L1.00301 8.02611C1.03698 8.02234 1.11301 8.01636 1.24592 8.00936L1.1408 6.01212ZM4.59863 4.93848C4.83774 4.93848 5.12052 4.92623 5.44167 4.90383L5.30247 2.90867C5.00774 2.92924 4.77489 2.93848 4.59863 2.93848V4.93848ZM5.37207 4.90625C5.54054 4.90625 5.85056 4.86346 6.1114 4.60261C6.37224 4.34177 6.41504 4.03175 6.41504 3.86328H4.41504C4.41504 3.72346 4.45067 3.43492 4.69719 3.1884C4.94371 2.94188 5.23225 2.90625 5.37207 2.90625V4.90625ZM6.40169 3.70044L6.21907 2.59399L4.24577 2.91968L4.42839 4.02613L6.40169 3.70044ZM6.21816 2.58854C6.16812 2.29545 6.12898 2.06418 6.10065 1.89419L4.12786 2.22299C4.15682 2.39676 4.19646 2.63098 4.24669 2.92513L6.21816 2.58854ZM6.1017 1.9006C6.07266 1.71912 6.05623 1.61355 6.0505 1.57342L4.0706 1.85627C4.07919 1.9164 4.09856 2.04 4.12682 2.21658L6.1017 1.9006ZM4.19126 1.22054L2.94516 3.41195L4.68374 4.40055L5.92984 2.20915L4.19126 1.22054ZM3.71495 4.90129C3.97347 4.92714 4.27018 4.93848 4.59863 4.93848V2.93848C4.3112 2.93848 4.08512 2.92833 3.91396 2.91121L3.71495 4.90129Z" fill="url(#paint1_linear_410_6792)" mask="url(#path-1-inside-1_410_6792)"/>
<mask id="path-3-inside-2_410_6792" fill="white">
<path d="M9.10468 15.9641C8.32343 15.9641 7.6828 15.7531 7.1828 15.3312C6.69843 14.8937 6.45624 14.3 6.45624 13.55C6.45624 13.0344 6.6203 12.5656 6.94843 12.1437C7.29218 11.7219 7.76874 11.3625 8.37811 11.0656C8.59686 10.9562 8.79218 10.8703 8.96405 10.8078C9.15155 10.7297 9.32343 10.6594 9.47968 10.5969C10.0266 10.425 10.4797 10.2844 10.8391 10.175C11.2141 10.0656 11.4797 9.98749 11.6359 9.94061C11.7766 9.86249 11.8469 9.73749 11.8469 9.56561V8.27655C11.8469 7.72968 11.7219 7.29999 11.4719 6.98749C11.2219 6.67499 10.8859 6.51874 10.4641 6.51874C9.9953 6.51874 9.62811 6.66718 9.36249 6.96405C9.09686 7.2453 8.96405 7.65155 8.96405 8.1828C8.96405 8.4953 8.84686 8.72968 8.61249 8.88593C8.37811 9.02655 8.11249 9.09686 7.81561 9.09686C7.23749 9.09686 6.83124 8.90936 6.59686 8.53436C6.59686 8.15936 6.73749 7.79218 7.01874 7.4328C7.29999 7.0578 7.66718 6.72186 8.1203 6.42499C8.58905 6.12811 9.10468 5.89374 9.66718 5.72186C10.2297 5.53436 10.7922 5.44061 11.3547 5.44061C12.3234 5.44061 13.05 5.69843 13.5344 6.21405C14.0187 6.71405 14.2609 7.58124 14.2609 8.81561V13.4328C14.2609 14.0734 14.5187 14.3937 15.0344 14.3937C15.2687 14.3937 15.5344 14.2922 15.8312 14.0891C15.925 14.1047 15.9719 14.1906 15.9719 14.3469C15.9719 14.6437 15.925 14.8781 15.8312 15.05C15.5969 15.2375 15.2844 15.4328 14.8937 15.6359C14.5031 15.8391 14.1281 15.9406 13.7687 15.9406C13.4094 15.9406 13.0578 15.8078 12.7141 15.5422C12.3703 15.2766 12.1437 14.9875 12.0344 14.675C11.9094 14.7844 11.8156 14.8625 11.7531 14.9094C11.6906 14.9562 11.5891 15.0344 11.4484 15.1437C11.1203 15.3625 10.7609 15.5578 10.3703 15.7297C9.97968 15.8859 9.5578 15.9641 9.10468 15.9641ZM10.3 14.4406C10.7219 14.4406 11.0812 14.3312 11.3781 14.1125C11.6906 13.8937 11.8469 13.6437 11.8469 13.3625V10.9719L10.3469 11.4875C9.98749 11.6437 9.66718 11.8312 9.38593 12.05C9.10468 12.2687 8.96405 12.5812 8.96405 12.9875C8.96405 13.4875 9.08905 13.8547 9.33905 14.0891C9.58905 14.3234 9.90936 14.4406 10.3 14.4406Z"/>
</mask>
<path d="M9.10468 15.9641C8.32343 15.9641 7.6828 15.7531 7.1828 15.3312C6.69843 14.8937 6.45624 14.3 6.45624 13.55C6.45624 13.0344 6.6203 12.5656 6.94843 12.1437C7.29218 11.7219 7.76874 11.3625 8.37811 11.0656C8.59686 10.9562 8.79218 10.8703 8.96405 10.8078C9.15155 10.7297 9.32343 10.6594 9.47968 10.5969C10.0266 10.425 10.4797 10.2844 10.8391 10.175C11.2141 10.0656 11.4797 9.98749 11.6359 9.94061C11.7766 9.86249 11.8469 9.73749 11.8469 9.56561V8.27655C11.8469 7.72968 11.7219 7.29999 11.4719 6.98749C11.2219 6.67499 10.8859 6.51874 10.4641 6.51874C9.9953 6.51874 9.62811 6.66718 9.36249 6.96405C9.09686 7.2453 8.96405 7.65155 8.96405 8.1828C8.96405 8.4953 8.84686 8.72968 8.61249 8.88593C8.37811 9.02655 8.11249 9.09686 7.81561 9.09686C7.23749 9.09686 6.83124 8.90936 6.59686 8.53436C6.59686 8.15936 6.73749 7.79218 7.01874 7.4328C7.29999 7.0578 7.66718 6.72186 8.1203 6.42499C8.58905 6.12811 9.10468 5.89374 9.66718 5.72186C10.2297 5.53436 10.7922 5.44061 11.3547 5.44061C12.3234 5.44061 13.05 5.69843 13.5344 6.21405C14.0187 6.71405 14.2609 7.58124 14.2609 8.81561V13.4328C14.2609 14.0734 14.5187 14.3937 15.0344 14.3937C15.2687 14.3937 15.5344 14.2922 15.8312 14.0891C15.925 14.1047 15.9719 14.1906 15.9719 14.3469C15.9719 14.6437 15.925 14.8781 15.8312 15.05C15.5969 15.2375 15.2844 15.4328 14.8937 15.6359C14.5031 15.8391 14.1281 15.9406 13.7687 15.9406C13.4094 15.9406 13.0578 15.8078 12.7141 15.5422C12.3703 15.2766 12.1437 14.9875 12.0344 14.675C11.9094 14.7844 11.8156 14.8625 11.7531 14.9094C11.6906 14.9562 11.5891 15.0344 11.4484 15.1437C11.1203 15.3625 10.7609 15.5578 10.3703 15.7297C9.97968 15.8859 9.5578 15.9641 9.10468 15.9641ZM10.3 14.4406C10.7219 14.4406 11.0812 14.3312 11.3781 14.1125C11.6906 13.8937 11.8469 13.6437 11.8469 13.3625V10.9719L10.3469 11.4875C9.98749 11.6437 9.66718 11.8312 9.38593 12.05C9.10468 12.2687 8.96405 12.5812 8.96405 12.9875C8.96405 13.4875 9.08905 13.8547 9.33905 14.0891C9.58905 14.3234 9.90936 14.4406 10.3 14.4406Z" fill="url(#paint2_linear_410_6792)"/>
<path d="M7.1828 15.3312L6.51251 16.0733L6.52503 16.0846L6.53793 16.0955L7.1828 15.3312ZM6.94843 12.1437L6.17319 11.5121L6.16603 11.5209L6.15907 11.5298L6.94843 12.1437ZM8.37811 11.0656L8.81611 11.9647L8.82533 11.96L8.37811 11.0656ZM8.96405 10.8078L9.30579 11.7476L9.32742 11.7397L9.34867 11.7309L8.96405 10.8078ZM9.47968 10.5969L9.17985 9.64287L9.14358 9.65427L9.10828 9.66839L9.47968 10.5969ZM10.8391 10.175L10.559 9.21492L10.5479 9.21831L10.8391 10.175ZM11.6359 9.94061L11.9233 10.8984L12.0269 10.8673L12.1216 10.8148L11.6359 9.94061ZM9.36249 6.96405L10.0895 7.65067L10.0987 7.64088L10.1077 7.63085L9.36249 6.96405ZM8.61249 8.88593L9.12698 9.74342L9.14739 9.73118L9.16719 9.71798L8.61249 8.88593ZM6.59686 8.53436H5.59686V8.82116L5.74886 9.06436L6.59686 8.53436ZM7.01874 7.4328L7.80624 8.04911L7.81257 8.04102L7.81874 8.0328L7.01874 7.4328ZM8.1203 6.42499L7.58525 5.58017L7.57873 5.5843L7.57227 5.58853L8.1203 6.42499ZM9.66718 5.72186L9.95939 6.67821L9.97145 6.67453L9.9834 6.67055L9.66718 5.72186ZM13.5344 6.21405L12.8055 6.89873L12.8108 6.90433L12.8161 6.90985L13.5344 6.21405ZM15.8312 14.0891L15.9956 13.1027L15.5987 13.0365L15.2666 13.2637L15.8312 14.0891ZM15.8312 15.05L16.4559 15.8309L16.6129 15.7053L16.7091 15.5288L15.8312 15.05ZM12.0344 14.675L12.9782 14.3446L12.4894 12.948L11.3759 13.9224L12.0344 14.675ZM11.4484 15.1437L12.0031 15.9758L12.0335 15.9555L12.0624 15.9331L11.4484 15.1437ZM10.3703 15.7297L10.7417 16.6582L10.7575 16.6518L10.773 16.645L10.3703 15.7297ZM11.3781 14.1125L10.8047 13.2933L10.7947 13.3002L10.7849 13.3074L11.3781 14.1125ZM11.8469 10.9719H12.8469V9.57068L11.5218 10.0262L11.8469 10.9719ZM10.3469 11.4875L10.0218 10.5418L9.98439 10.5547L9.94814 10.5704L10.3469 11.4875ZM9.10468 14.9641C8.51153 14.9641 8.11374 14.8083 7.82767 14.5669L6.53793 16.0955C7.25186 16.6979 8.13532 16.9641 9.10468 16.9641V14.9641ZM7.85309 14.5891C7.61082 14.3703 7.45624 14.0636 7.45624 13.55H5.45624C5.45624 14.5364 5.78603 15.4172 6.51251 16.0733L7.85309 14.5891ZM7.45624 13.55C7.45624 13.2653 7.54081 13.0109 7.73778 12.7577L6.15907 11.5298C5.6998 12.1203 5.45624 12.8034 5.45624 13.55H7.45624ZM7.72366 12.7754C7.95608 12.4902 8.30601 12.2131 8.81608 11.9646L7.94014 10.1666C7.23147 10.5119 6.62827 10.9536 6.17319 11.5121L7.72366 12.7754ZM8.82533 11.96C9.02044 11.8625 9.17958 11.7935 9.30579 11.7476L8.62231 9.86801C8.40477 9.94711 8.17328 10.05 7.9309 10.1712L8.82533 11.96ZM9.34867 11.7309C9.53263 11.6542 9.70003 11.5858 9.85107 11.5253L9.10828 9.66839C8.94682 9.73297 8.77047 9.80513 8.57943 9.88472L9.34867 11.7309ZM9.7795 11.5509C10.3248 11.3795 10.7748 11.2398 11.1302 11.1317L10.5479 9.21831C10.1845 9.3289 9.72828 9.4705 9.17985 9.64287L9.7795 11.5509ZM11.1191 11.135C11.4941 11.0256 11.763 10.9465 11.9233 10.8984L11.3486 8.98279C11.1964 9.02845 10.934 9.10562 10.5591 9.21499L11.1191 11.135ZM12.1216 10.8148C12.3333 10.6971 12.5292 10.5212 12.6657 10.2785C12.8003 10.0392 12.8469 9.78924 12.8469 9.56561H10.8469C10.8469 9.51386 10.8583 9.4123 10.9226 9.29801C10.9888 9.18029 11.0791 9.10598 11.1503 9.06646L12.1216 10.8148ZM12.8469 9.56561V8.27655H10.8469V9.56561H12.8469ZM12.8469 8.27655C12.8469 7.58519 12.6888 6.90783 12.2527 6.36279L10.691 7.61218C10.755 7.69215 10.8469 7.87416 10.8469 8.27655H12.8469ZM12.2527 6.36279C11.8014 5.79863 11.1707 5.51874 10.4641 5.51874V7.51874C10.6011 7.51874 10.6423 7.55135 10.691 7.61218L12.2527 6.36279ZM10.4641 5.51874C9.76592 5.51874 9.10647 5.75048 8.61725 6.29726L10.1077 7.63085C10.1498 7.58387 10.2247 7.51874 10.4641 7.51874V5.51874ZM8.63547 6.27743C8.13788 6.80429 7.96405 7.4928 7.96405 8.1828H9.96405C9.96405 7.8103 10.0558 7.68631 10.0895 7.65067L8.63547 6.27743ZM7.96405 8.1828C7.96405 8.21345 7.95876 8.1917 7.98173 8.14574C7.99273 8.12374 8.007 8.1029 8.023 8.08512C8.03873 8.06765 8.05193 8.05778 8.05779 8.05387L9.16719 9.71798C9.71377 9.35359 9.96405 8.78661 9.96405 8.1828H7.96405ZM8.09799 8.02843C8.03232 8.06783 7.9474 8.09686 7.81561 8.09686V10.0969C8.27758 10.0969 8.7239 9.98527 9.12698 9.74342L8.09799 8.02843ZM7.81561 8.09686C7.63062 8.09686 7.53566 8.0664 7.49639 8.04828C7.46776 8.03507 7.45761 8.02476 7.44486 8.00436L5.74886 9.06436C6.22151 9.82059 7.0124 10.0969 7.81561 10.0969V8.09686ZM7.59686 8.53436C7.59686 8.428 7.63194 8.27183 7.80624 8.04911L6.23123 6.81649C5.84304 7.31252 5.59686 7.89073 5.59686 8.53436H7.59686ZM7.81874 8.0328C8.02044 7.76387 8.29742 7.50446 8.66833 7.26145L7.57227 5.58853C7.03693 5.93927 6.57954 6.35173 6.21874 6.8328L7.81874 8.0328ZM8.65535 7.26981C9.04411 7.02359 9.47733 6.82551 9.95939 6.67821L9.37496 4.76551C8.73202 4.96196 8.13399 5.23263 7.58525 5.58017L8.65535 7.26981ZM9.9834 6.67055C10.4495 6.51519 10.9054 6.44061 11.3547 6.44061V4.44061C10.679 4.44061 10.0099 4.55354 9.35095 4.77318L9.9834 6.67055ZM11.3547 6.44061C12.1527 6.44061 12.5719 6.65001 12.8055 6.89873L14.2632 5.52937C13.5281 4.74684 12.4941 4.44061 11.3547 4.44061V6.44061ZM12.8161 6.90985C13.0231 7.1235 13.2609 7.65715 13.2609 8.81561H15.2609C15.2609 7.50532 15.0144 6.3046 14.2526 5.51826L12.8161 6.90985ZM13.2609 8.81561V13.4328H15.2609V8.81561H13.2609ZM13.2609 13.4328C13.2609 13.861 13.3428 14.3674 13.6753 14.7805C14.0411 15.2351 14.5579 15.3937 15.0344 15.3937V13.3937C15.0072 13.3937 15.0294 13.3894 15.0786 13.4098C15.134 13.4327 15.1906 13.4735 15.2333 13.5265C15.2723 13.575 15.2787 13.6075 15.2751 13.5941C15.271 13.5787 15.2609 13.5292 15.2609 13.4328H13.2609ZM15.0344 15.3937C15.5516 15.3937 16.0156 15.1745 16.3959 14.9144L15.2666 13.2637C15.1666 13.3321 15.0955 13.367 15.0522 13.3835C15.0098 13.3997 15.0065 13.3937 15.0344 13.3937V15.3937ZM15.6668 15.0754C15.553 15.0565 15.4263 15.0106 15.3073 14.9246C15.1891 14.8393 15.1093 14.7367 15.0588 14.6441C15.0104 14.5553 14.9901 14.4786 14.9813 14.4329C14.9723 14.3866 14.9719 14.3556 14.9719 14.3469H16.9719C16.9719 14.1911 16.9523 13.9387 16.8146 13.6864C16.6491 13.383 16.3561 13.1627 15.9956 13.1027L15.6668 15.0754ZM14.9719 14.3469C14.9719 14.4445 14.964 14.5099 14.9561 14.5492C14.9483 14.5885 14.9426 14.5907 14.9533 14.5711L16.7091 15.5288C16.9139 15.1534 16.9719 14.7318 16.9719 14.3469H14.9719ZM15.2065 14.2691C15.0406 14.4019 14.7893 14.5631 14.4324 14.7487L15.3551 16.5231C15.7794 16.3025 16.1532 16.0731 16.4559 15.8309L15.2065 14.2691ZM14.4324 14.7487C14.1526 14.8942 13.9353 14.9406 13.7687 14.9406V16.9406C14.3209 16.9406 14.8536 16.7839 15.3551 16.5231L14.4324 14.7487ZM13.7687 14.9406C13.674 14.9406 13.5318 14.9103 13.3255 14.7509L12.1026 16.3335C12.5838 16.7053 13.1448 16.9406 13.7687 16.9406V14.9406ZM13.3255 14.7509C13.0878 14.5672 13.0066 14.4257 12.9782 14.3446L11.0905 15.0053C11.2809 15.5493 11.6528 15.9859 12.1026 16.3335L13.3255 14.7509ZM11.3759 13.9224C11.2537 14.0293 11.1836 14.0865 11.1531 14.1094L12.3531 15.7094C12.4476 15.6385 12.5651 15.5394 12.6929 15.4276L11.3759 13.9224ZM11.1531 14.1094C11.083 14.162 10.9754 14.2448 10.8345 14.3544L12.0624 15.9331C12.2027 15.824 12.2982 15.7505 12.3531 15.7094L11.1531 14.1094ZM10.8937 14.3117C10.6175 14.4958 10.3095 14.6639 9.96756 14.8144L10.773 16.645C11.2123 16.4517 11.6231 16.2291 12.0031 15.9758L10.8937 14.3117ZM9.99891 14.8012C9.73524 14.9067 9.44046 14.9641 9.10468 14.9641V16.9641C9.67514 16.9641 10.2241 16.8652 10.7417 16.6582L9.99891 14.8012ZM10.3 15.4406C10.9033 15.4406 11.4785 15.2807 11.9713 14.9175L10.7849 13.3074C10.684 13.3818 10.5404 13.4406 10.3 13.4406V15.4406ZM11.9516 14.9317C12.4275 14.5986 12.8469 14.0791 12.8469 13.3625H10.8469C10.8469 13.3388 10.8504 13.3121 10.8582 13.2854C10.866 13.259 10.8756 13.2406 10.8817 13.2309C10.8923 13.2139 10.8818 13.2392 10.8047 13.2933L11.9516 14.9317ZM12.8469 13.3625V10.9719H10.8469V13.3625H12.8469ZM11.5218 10.0262L10.0218 10.5418L10.6719 12.4332L12.1719 11.9175L11.5218 10.0262ZM9.94814 10.5704C9.51952 10.7568 9.12555 10.9856 8.77198 11.2606L9.99987 12.8393C10.2088 12.6768 10.4555 12.5307 10.7456 12.4046L9.94814 10.5704ZM8.77198 11.2606C8.21086 11.6971 7.96405 12.3217 7.96405 12.9875H9.96405C9.96405 12.8999 9.97895 12.8643 9.98144 12.8588C9.98294 12.8555 9.9838 12.8544 9.98447 12.8535C9.98525 12.8525 9.98925 12.8476 9.99987 12.8393L8.77198 11.2606ZM7.96405 12.9875C7.96405 13.6358 8.12596 14.3225 8.65511 14.8186L10.023 13.3595C10.0521 13.3868 9.96405 13.3391 9.96405 12.9875H7.96405ZM8.65511 14.8186C9.11661 15.2512 9.69357 15.4406 10.3 15.4406V13.4406C10.1252 13.4406 10.0615 13.3956 10.023 13.3595L8.65511 14.8186Z" fill="url(#paint3_linear_410_6792)" mask="url(#path-3-inside-2_410_6792)"/>
<g filter="url(#filter0_i_410_6792)">
<path d="M6.30769 9.61538L4 7.30769L6.30769 5L8.61538 7.30769L10 5.92308V11H4.92308L6.30769 9.61538Z" fill="#82C27C"/>
</g>
<path d="M8.96894 7.66125L9.5 7.13018V10.5H6.13018L6.66125 9.96894C6.85651 9.77368 6.85651 9.45709 6.66125 9.26183L4.70711 7.30769L6.30769 5.70711L8.26183 7.66125C8.45709 7.85651 8.77368 7.85651 8.96894 7.66125Z" stroke="url(#paint4_linear_410_6792)" stroke-linejoin="round"/>
</g>
<defs>
<filter id="filter0_i_410_6792" x="4" y="5" width="7" height="7" filterUnits="userSpaceOnUse" color-interpolation-filters="sRGB">
<feFlood flood-opacity="0" result="BackgroundImageFix"/>
<feBlend mode="normal" in="SourceGraphic" in2="BackgroundImageFix" result="shape"/>
<feColorMatrix in="SourceAlpha" type="matrix" values="0 0 0 0 0 0 0 0 0 0 0 0 0 0 0 0 0 0 127 0" result="hardAlpha"/>
<feOffset dx="1" dy="1"/>
<feGaussianBlur stdDeviation="1"/>
<feComposite in2="hardAlpha" operator="arithmetic" k2="-1" k3="1"/>
<feColorMatrix type="matrix" values="0 0 0 0 0.71381 0 0 0 0 0.864312 0 0 0 0 0.687251 0 0 0 1 0"/>
<feBlend mode="normal" in2="shape" result="effect1_innerShadow_410_6792"/>
</filter>
<linearGradient id="paint0_linear_410_6792" x1="8" y1="4" x2="1" y2="4" gradientUnits="userSpaceOnUse">
<stop stop-color="#71A4E6"/>
<stop offset="1" stop-color="#88B5EC"/>
</linearGradient>
<linearGradient id="paint1_linear_410_6792" x1="8" y1="4" x2="1" y2="4" gradientUnits="userSpaceOnUse">
<stop stop-color="#296CD9"/>
<stop offset="1" stop-color="#448DE2"/>
</linearGradient>
<linearGradient id="paint2_linear_410_6792" x1="16.8" y1="8.29999" x2="5.79999" y2="8.29999" gradientUnits="userSpaceOnUse">
<stop stop-color="#71A4E6"/>
<stop offset="1" stop-color="#88B5EC"/>
</linearGradient>
<linearGradient id="paint3_linear_410_6792" x1="16.8" y1="8.29999" x2="5.79999" y2="8.29999" gradientUnits="userSpaceOnUse">
<stop stop-color="#296CD9"/>
<stop offset="1" stop-color="#448DE2"/>
</linearGradient>
<linearGradient id="paint4_linear_410_6792" x1="5.05511" y1="5.46154" x2="9.60504" y2="10.3906" gradientUnits="userSpaceOnUse">
<stop stop-color="#80C178"/>
<stop offset="1" stop-color="#2A6B26"/>
</linearGradient>
<clipPath id="clip0_410_6792">
<rect width="16" height="16" fill="white"/>
</clipPath>
</defs>
</svg>
