<svg width="16" height="16" viewBox="0 0 16 16" fill="none" xmlns="http://www.w3.org/2000/svg">
<path d="M3.34375 12.0469C3.3125 12.0156 3.29688 11.9531 3.29688 11.8594C3.29688 11.7188 3.3125 11.6484 3.34375 11.6484C3.40625 11.6484 3.49609 11.6367 3.61328 11.6133C3.73047 11.5898 3.83984 11.5586 3.94141 11.5195C4.04297 11.4727 4.10156 11.4297 4.11719 11.3906C4.17969 11.1641 4.21094 10.8398 4.21094 10.418V6.17578C4.21094 5.51953 4.17578 5.14062 4.10547 5.03906C4.04297 4.90625 3.67188 4.83984 2.99219 4.83984C2.60938 4.83984 2.32812 4.91797 2.14844 5.07422C1.96875 5.22266 1.82031 5.50781 1.70312 5.92969C1.69531 5.97656 1.65625 6 1.58594 6C1.44531 6 1.34375 5.96875 1.28125 5.90625L1.50391 4.125C1.67578 4.16406 1.82812 4.19531 1.96094 4.21875C2.09375 4.23438 2.21094 4.24219 2.3125 4.24219C3.01562 4.25781 3.57812 4.27344 4 4.28906C4.42969 4.29688 4.76172 4.30469 4.99609 4.3125C5.23828 4.3125 5.41797 4.3125 5.53516 4.3125C5.65234 4.3125 5.74609 4.3125 5.81641 4.3125C5.89453 4.30469 5.98438 4.30078 6.08594 4.30078C6.1875 4.29297 6.34375 4.28516 6.55469 4.27734C6.76562 4.26172 7.06641 4.25 7.45703 4.24219C7.55859 4.24219 7.67578 4.23438 7.80859 4.21875C7.94141 4.19531 8.09375 4.16406 8.26562 4.125L8.48828 5.91797C8.43359 5.97266 8.32812 6 8.17188 6C8.10938 6 8.07031 5.98047 8.05469 5.94141C7.94531 5.51172 7.80078 5.22266 7.62109 5.07422C7.44141 4.91797 7.16016 4.83984 6.77734 4.83984C6.05859 4.83984 5.67969 4.90625 5.64062 5.03906C5.57031 5.25781 5.53516 5.625 5.53516 6.14062V10.3711C5.53516 10.793 5.57031 11.1328 5.64062 11.3906C5.64844 11.4219 5.69922 11.4609 5.79297 11.5078C5.89453 11.5469 6.00391 11.582 6.12109 11.6133C6.23828 11.6367 6.32031 11.6484 6.36719 11.6484C6.39844 11.6484 6.41406 11.7188 6.41406 11.8594C6.41406 11.8984 6.41016 11.9336 6.40234 11.9648C6.40234 11.9961 6.39844 12.0234 6.39062 12.0469C6.10156 12.0234 5.83594 12.0039 5.59375 11.9883C5.35156 11.9727 5.12109 11.9648 4.90234 11.9648C4.76172 11.9648 4.57812 11.9727 4.35156 11.9883C4.13281 11.9961 3.92578 12.0039 3.73047 12.0117C3.53516 12.0273 3.40625 12.0391 3.34375 12.0469ZM9.325 12.0469C9.29375 12.0156 9.27812 11.9531 9.27812 11.8594C9.27812 11.7188 9.29375 11.6484 9.325 11.6484C9.3875 11.6484 9.47734 11.6367 9.59453 11.6133C9.71172 11.5898 9.82109 11.5586 9.92266 11.5195C10.0242 11.4727 10.0828 11.4297 10.0984 11.3906C10.1609 11.1641 10.1922 10.8398 10.1922 10.418V6.17578C10.1922 5.51953 10.157 5.14062 10.0867 5.03906C10.0242 4.90625 9.65312 4.83984 8.97344 4.83984C8.59062 4.83984 8.30937 4.91797 8.12969 5.07422C7.95 5.22266 7.80156 5.50781 7.68437 5.92969C7.67656 5.97656 7.6375 6 7.56719 6C7.42656 6 7.325 5.96875 7.2625 5.90625L7.48516 4.125C7.65703 4.16406 7.80937 4.19531 7.94219 4.21875C8.075 4.23438 8.19219 4.24219 8.29375 4.24219C8.99687 4.25781 9.55937 4.27344 9.98125 4.28906C10.4109 4.29688 10.743 4.30469 10.9773 4.3125C11.2195 4.3125 11.3992 4.3125 11.5164 4.3125C11.6336 4.3125 11.7273 4.3125 11.7977 4.3125C11.8758 4.30469 11.9656 4.30078 12.0672 4.30078C12.1687 4.29297 12.325 4.28516 12.5359 4.27734C12.7469 4.26172 13.0477 4.25 13.4383 4.24219C13.5398 4.24219 13.657 4.23438 13.7898 4.21875C13.9227 4.19531 14.075 4.16406 14.2469 4.125L14.4695 5.91797C14.4148 5.97266 14.3094 6 14.1531 6C14.0906 6 14.0516 5.98047 14.0359 5.94141C13.9266 5.51172 13.782 5.22266 13.6023 5.07422C13.4227 4.91797 13.1414 4.83984 12.7586 4.83984C12.0398 4.83984 11.6609 4.90625 11.6219 5.03906C11.5516 5.25781 11.5164 5.625 11.5164 6.14062V10.3711C11.5164 10.793 11.5516 11.1328 11.6219 11.3906C11.6297 11.4219 11.6805 11.4609 11.7742 11.5078C11.8758 11.5469 11.9852 11.582 12.1023 11.6133C12.2195 11.6367 12.3016 11.6484 12.3484 11.6484C12.3797 11.6484 12.3953 11.7188 12.3953 11.8594C12.3953 11.8984 12.3914 11.9336 12.3836 11.9648C12.3836 11.9961 12.3797 12.0234 12.3719 12.0469C12.0828 12.0234 11.8172 12.0039 11.575 11.9883C11.3328 11.9727 11.1023 11.9648 10.8836 11.9648C10.743 11.9648 10.5594 11.9727 10.3328 11.9883C10.1141 11.9961 9.90703 12.0039 9.71172 12.0117C9.51641 12.0273 9.3875 12.0391 9.325 12.0469Z" fill="url(#paint0_linear_410_6730)"/>
<defs>
<linearGradient id="paint0_linear_410_6730" x1="15" y1="12" x2="5.98574" y2="0.193415" gradientUnits="userSpaceOnUse">
<stop stop-color="#2B2B2B"/>
<stop offset="1" stop-color="#777777"/>
</linearGradient>
</defs>
</svg>
