<svg width="16" height="16" viewBox="0 0 16 16" fill="none" xmlns="http://www.w3.org/2000/svg">
<path d="M2 11.5C2 11.2239 2.22386 11 2.5 11H13.5C13.7761 11 14 11.2239 14 11.5C14 11.7761 13.7761 12 13.5 12H2.5C2.22386 12 2 11.7761 2 11.5Z" fill="url(#paint0_linear_410_6686)"/>
<path d="M2 9.5C2 9.22386 2.22386 9 2.5 9H10.5C10.7761 9 11 9.22386 11 9.5C11 9.77614 10.7761 10 10.5 10H2.5C2.22386 10 2 9.77614 2 9.5Z" fill="url(#paint1_linear_410_6686)"/>
<path d="M2 13.5C2 13.2239 2.22386 13 2.5 13H10.5C10.7761 13 11 13.2239 11 13.5C11 13.7761 10.7761 14 10.5 14H2.5C2.22386 14 2 13.7761 2 13.5Z" fill="url(#paint2_linear_410_6686)"/>
<path d="M2 7.5C2 7.22386 2.22386 7 2.5 7H13.5C13.7761 7 14 7.22386 14 7.5C14 7.77614 13.7761 8 13.5 8H2.5C2.22386 8 2 7.77614 2 7.5Z" fill="url(#paint3_linear_410_6686)"/>
<path d="M3 3.5C2.72386 3.5 2.5 3.72386 2.5 4V5C2.5 5.27614 2.72386 5.5 3 5.5H13C13.2761 5.5 13.5 5.27614 13.5 5V4C13.5 3.72386 13.2761 3.5 13 3.5H3Z" fill="url(#paint4_linear_410_6686)" stroke="url(#paint5_linear_410_6686)" stroke-linejoin="round"/>
<defs>
<linearGradient id="paint0_linear_410_6686" x1="2" y1="7" x2="14" y2="14" gradientUnits="userSpaceOnUse">
<stop stop-color="#767676"/>
<stop offset="1" stop-color="#0F0F0F"/>
</linearGradient>
<linearGradient id="paint1_linear_410_6686" x1="2" y1="7" x2="14" y2="14" gradientUnits="userSpaceOnUse">
<stop stop-color="#767676"/>
<stop offset="1" stop-color="#0F0F0F"/>
</linearGradient>
<linearGradient id="paint2_linear_410_6686" x1="2" y1="7" x2="14" y2="14" gradientUnits="userSpaceOnUse">
<stop stop-color="#767676"/>
<stop offset="1" stop-color="#0F0F0F"/>
</linearGradient>
<linearGradient id="paint3_linear_410_6686" x1="2" y1="7" x2="14" y2="14" gradientUnits="userSpaceOnUse">
<stop stop-color="#767676"/>
<stop offset="1" stop-color="#0F0F0F"/>
</linearGradient>
<linearGradient id="paint4_linear_410_6686" x1="2" y1="4.5" x2="14" y2="4.5" gradientUnits="userSpaceOnUse">
<stop stop-color="#F0F0F0"/>
<stop offset="1" stop-color="#E6E6E6"/>
</linearGradient>
<linearGradient id="paint5_linear_410_6686" x1="2" y1="4.5" x2="14" y2="4.5" gradientUnits="userSpaceOnUse">
<stop stop-color="#BCBCBC"/>
<stop offset="1" stop-color="#B7B7B7"/>
</linearGradient>
</defs>
</svg>
