<svg width="16" height="16" viewBox="0 0 16 16" fill="none" xmlns="http://www.w3.org/2000/svg">
<g clip-path="url(#clip0_410_6790)">
<path d="M7.68213 3.81494C6.6805 3.81494 5.90853 4.1193 5.36621 4.72803C4.82389 5.33675 4.55273 6.1945 4.55273 7.30127C4.55273 8.42464 4.73535 9.33773 5.10059 10.0405C5.46582 10.7378 6.01921 11.2856 6.76074 11.6841V14H1.45654V11.8418H4.53613C3.69499 11.3271 3.04476 10.6271 2.58545 9.7417C2.13167 8.85075 1.90479 7.85742 1.90479 6.76172C1.90479 5.74349 2.13997 4.84977 2.61035 4.08057C3.08626 3.30583 3.76139 2.71094 4.63574 2.2959C5.51009 1.88086 6.52555 1.67334 7.68213 1.67334C9.44743 1.67334 10.8503 2.13542 11.8906 3.05957C12.9365 3.98372 13.4595 5.22331 13.4595 6.77832C13.4595 7.87402 13.2298 8.85905 12.7705 9.7334C12.3112 10.6077 11.6527 11.3105 10.7949 11.8418H13.8994V14H8.56201V11.6841C9.33122 11.2856 9.89844 10.7295 10.2637 10.0156C10.6289 9.30176 10.8115 8.39144 10.8115 7.28467C10.8115 6.18343 10.5376 5.33122 9.98975 4.72803C9.44743 4.1193 8.67822 3.81494 7.68213 3.81494Z" fill="url(#paint0_linear_410_6790)"/>
</g>
<defs>
<linearGradient id="paint0_linear_410_6790" x1="3.5" y1="3" x2="14" y2="14" gradientUnits="userSpaceOnUse">
<stop stop-color="#93BBEC"/>
<stop offset="1" stop-color="#5D96E3"/>
</linearGradient>
<clipPath id="clip0_410_6790">
<rect width="16" height="16" fill="white"/>
</clipPath>
</defs>
</svg>
