<svg width="16" height="16" viewBox="0 0 16 16" fill="none" xmlns="http://www.w3.org/2000/svg">
<g clip-path="url(#clip0_410_6727)">
<path d="M8.24414 12.0293C7.07227 12.0293 6.14941 11.6777 5.47559 10.9746C4.80176 10.2617 4.46484 9.11914 4.46484 7.54688V4.35352C4.46484 3.73828 4.42578 3.32812 4.34766 3.12305C4.32812 3.06445 4.25488 3.01074 4.12793 2.96191C4.01074 2.91309 3.87891 2.87402 3.73242 2.84473C3.5957 2.80566 3.48828 2.78613 3.41016 2.78613C3.37109 2.78613 3.35156 2.71289 3.35156 2.56641C3.35156 2.41992 3.36621 2.33203 3.39551 2.30273L5.34375 2.39062C5.5293 2.39062 6.1543 2.36133 7.21875 2.30273C7.22852 2.3418 7.2334 2.38086 7.2334 2.41992C7.24316 2.45898 7.24805 2.49805 7.24805 2.53711C7.24805 2.70313 7.22852 2.78613 7.18945 2.78613C7.13086 2.78613 7.02344 2.80566 6.86719 2.84473C6.7207 2.87402 6.58398 2.91309 6.45703 2.96191C6.33008 3.01074 6.26172 3.06445 6.25195 3.12305C6.21289 3.26953 6.18359 3.4502 6.16406 3.66504C6.14453 3.87988 6.13477 4.12891 6.13477 4.41211V7.78125C6.13477 8.78711 6.34961 9.59277 6.7793 10.1982C7.21875 10.7939 7.82422 11.0918 8.5957 11.0918C9.34766 11.0918 9.94824 10.8477 10.3975 10.3594C10.8564 9.86133 11.0859 9.04102 11.0859 7.89844V4.32422C11.0859 3.72852 11.0371 3.33789 10.9395 3.15234C10.9004 3.09375 10.8027 3.03516 10.6465 2.97656C10.5 2.91797 10.3438 2.86914 10.1777 2.83008C10.0117 2.79102 9.88477 2.77148 9.79688 2.77148C9.75781 2.77148 9.7334 2.70313 9.72363 2.56641C9.72363 2.42969 9.73828 2.3418 9.76758 2.30273C10.2949 2.3418 10.71 2.37109 11.0127 2.39062C11.3252 2.40039 11.5254 2.40527 11.6133 2.40527C11.7402 2.40527 11.8818 2.40039 12.0381 2.39062C12.2041 2.38086 12.3896 2.36621 12.5947 2.34668C12.9951 2.31738 13.2441 2.30273 13.3418 2.30273C13.3516 2.3418 13.3564 2.38086 13.3564 2.41992C13.3662 2.44922 13.3711 2.48828 13.3711 2.53711C13.3711 2.69336 13.3516 2.77148 13.3125 2.77148C13.2246 2.77148 13.0977 2.79102 12.9316 2.83008C12.7656 2.85938 12.6045 2.90332 12.4482 2.96191C12.292 3.02051 12.1846 3.09375 12.126 3.18164C12.0186 3.44531 11.9648 3.85059 11.9648 4.39746V7.83984C11.9648 9.36328 11.6084 10.4521 10.8955 11.1064C10.5537 11.4287 10.1631 11.6631 9.72363 11.8096C9.29395 11.9561 8.80078 12.0293 8.24414 12.0293Z" fill="url(#paint0_linear_410_6727)"/>
<path d="M4 13.5C4 13.2239 4.22386 13 4.5 13H12.5C12.7761 13 13 13.2239 13 13.5C13 13.7761 12.7761 14 12.5 14H4.5C4.22386 14 4 13.7761 4 13.5Z" fill="url(#paint1_linear_410_6727)"/>
</g>
<defs>
<linearGradient id="paint0_linear_410_6727" x1="11.5" y1="10.5" x2="4" y2="2.12565" gradientUnits="userSpaceOnUse">
<stop stop-color="#474747"/>
<stop offset="1" stop-color="#777777"/>
</linearGradient>
<linearGradient id="paint1_linear_410_6727" x1="4" y1="11" x2="16" y2="18" gradientUnits="userSpaceOnUse">
<stop stop-color="#767676"/>
<stop offset="1" stop-color="#0F0F0F"/>
</linearGradient>
<clipPath id="clip0_410_6727">
<rect width="16" height="16" fill="white"/>
</clipPath>
</defs>
</svg>
