<svg width="16" height="16" viewBox="0 0 16 16" fill="none" xmlns="http://www.w3.org/2000/svg">
<g clip-path="url(#clip0_410_6919)">
<mask id="path-1-inside-1_410_6919" fill="white">
<path d="M2.20312 7.10938C1.68229 7.10938 1.25521 6.96875 0.921875 6.6875C0.598958 6.39583 0.4375 6 0.4375 5.5C0.4375 5.15625 0.546875 4.84375 0.765625 4.5625C0.994792 4.28125 1.3125 4.04167 1.71875 3.84375C1.86458 3.77083 1.99479 3.71354 2.10938 3.67188C2.23438 3.61979 2.34896 3.57292 2.45312 3.53125C2.81771 3.41667 3.11979 3.32292 3.35938 3.25C3.60938 3.17708 3.78646 3.125 3.89062 3.09375C3.98438 3.04167 4.03125 2.95833 4.03125 2.84375V1.98438C4.03125 1.61979 3.94792 1.33333 3.78125 1.125C3.61458 0.916667 3.39062 0.8125 3.10938 0.8125C2.79688 0.8125 2.55208 0.911458 2.375 1.10938C2.19792 1.29688 2.10938 1.56771 2.10938 1.92188C2.10938 2.13021 2.03125 2.28646 1.875 2.39062C1.71875 2.48438 1.54167 2.53125 1.34375 2.53125C0.958333 2.53125 0.6875 2.40625 0.53125 2.15625C0.53125 1.90625 0.625 1.66146 0.8125 1.42188C1 1.17188 1.24479 0.947917 1.54688 0.75C1.85938 0.552083 2.20312 0.395833 2.57812 0.28125C2.95312 0.15625 3.32812 0.09375 3.70312 0.09375C4.34896 0.09375 4.83333 0.265625 5.15625 0.609375C5.47917 0.942708 5.64062 1.52083 5.64062 2.34375V5.42188C5.64062 5.84896 5.8125 6.0625 6.15625 6.0625C6.3125 6.0625 6.48958 5.99479 6.6875 5.85938C6.75 5.86979 6.78125 5.92708 6.78125 6.03125C6.78125 6.22917 6.75 6.38542 6.6875 6.5C6.53125 6.625 6.32292 6.75521 6.0625 6.89062C5.80208 7.02604 5.55208 7.09375 5.3125 7.09375C5.07292 7.09375 4.83854 7.00521 4.60938 6.82812C4.38021 6.65104 4.22917 6.45833 4.15625 6.25C4.07292 6.32292 4.01042 6.375 3.96875 6.40625C3.92708 6.4375 3.85938 6.48958 3.76562 6.5625C3.54688 6.70833 3.30729 6.83854 3.04688 6.95312C2.78646 7.05729 2.50521 7.10938 2.20312 7.10938ZM3 6.09375C3.28125 6.09375 3.52083 6.02083 3.71875 5.875C3.92708 5.72917 4.03125 5.5625 4.03125 5.375V3.78125L3.03125 4.125C2.79167 4.22917 2.57812 4.35417 2.39062 4.5C2.20312 4.64583 2.10938 4.85417 2.10938 5.125C2.10938 5.45833 2.19271 5.70312 2.35938 5.85938C2.52604 6.01562 2.73958 6.09375 3 6.09375Z"/>
</mask>
<path d="M2.20312 7.10938C1.68229 7.10938 1.25521 6.96875 0.921875 6.6875C0.598958 6.39583 0.4375 6 0.4375 5.5C0.4375 5.15625 0.546875 4.84375 0.765625 4.5625C0.994792 4.28125 1.3125 4.04167 1.71875 3.84375C1.86458 3.77083 1.99479 3.71354 2.10938 3.67188C2.23438 3.61979 2.34896 3.57292 2.45312 3.53125C2.81771 3.41667 3.11979 3.32292 3.35938 3.25C3.60938 3.17708 3.78646 3.125 3.89062 3.09375C3.98438 3.04167 4.03125 2.95833 4.03125 2.84375V1.98438C4.03125 1.61979 3.94792 1.33333 3.78125 1.125C3.61458 0.916667 3.39062 0.8125 3.10938 0.8125C2.79688 0.8125 2.55208 0.911458 2.375 1.10938C2.19792 1.29688 2.10938 1.56771 2.10938 1.92188C2.10938 2.13021 2.03125 2.28646 1.875 2.39062C1.71875 2.48438 1.54167 2.53125 1.34375 2.53125C0.958333 2.53125 0.6875 2.40625 0.53125 2.15625C0.53125 1.90625 0.625 1.66146 0.8125 1.42188C1 1.17188 1.24479 0.947917 1.54688 0.75C1.85938 0.552083 2.20312 0.395833 2.57812 0.28125C2.95312 0.15625 3.32812 0.09375 3.70312 0.09375C4.34896 0.09375 4.83333 0.265625 5.15625 0.609375C5.47917 0.942708 5.64062 1.52083 5.64062 2.34375V5.42188C5.64062 5.84896 5.8125 6.0625 6.15625 6.0625C6.3125 6.0625 6.48958 5.99479 6.6875 5.85938C6.75 5.86979 6.78125 5.92708 6.78125 6.03125C6.78125 6.22917 6.75 6.38542 6.6875 6.5C6.53125 6.625 6.32292 6.75521 6.0625 6.89062C5.80208 7.02604 5.55208 7.09375 5.3125 7.09375C5.07292 7.09375 4.83854 7.00521 4.60938 6.82812C4.38021 6.65104 4.22917 6.45833 4.15625 6.25C4.07292 6.32292 4.01042 6.375 3.96875 6.40625C3.92708 6.4375 3.85938 6.48958 3.76562 6.5625C3.54688 6.70833 3.30729 6.83854 3.04688 6.95312C2.78646 7.05729 2.50521 7.10938 2.20312 7.10938ZM3 6.09375C3.28125 6.09375 3.52083 6.02083 3.71875 5.875C3.92708 5.72917 4.03125 5.5625 4.03125 5.375V3.78125L3.03125 4.125C2.79167 4.22917 2.57812 4.35417 2.39062 4.5C2.20312 4.64583 2.10938 4.85417 2.10938 5.125C2.10938 5.45833 2.19271 5.70312 2.35938 5.85938C2.52604 6.01562 2.73958 6.09375 3 6.09375Z" fill="url(#paint0_linear_410_6919)"/>
<path d="M0.921875 6.6875L0.251589 7.4296L0.264109 7.44091L0.277004 7.45179L0.921875 6.6875ZM0.765625 4.5625L-0.00960999 3.93083L-0.0167691 3.93961L-0.0237272 3.94856L0.765625 4.5625ZM1.71875 3.84375L2.15674 4.74279L2.16596 4.73818L1.71875 3.84375ZM2.10938 3.67188L2.45112 4.61167L2.47275 4.6038L2.49399 4.59495L2.10938 3.67188ZM2.45312 3.53125L2.1533 2.57726L2.11703 2.58865L2.08173 2.60277L2.45312 3.53125ZM3.35938 3.25L3.07936 2.28994L3.06821 2.29333L3.35938 3.25ZM3.89062 3.09375L4.17797 4.05158L4.28165 4.02047L4.37627 3.96791L3.89062 3.09375ZM2.375 1.10938L3.10201 1.796L3.11126 1.78621L3.12024 1.77617L2.375 1.10938ZM1.875 2.39062L2.3895 3.24812L2.4099 3.23588L2.4297 3.22268L1.875 2.39062ZM0.53125 2.15625H-0.46875V2.44305L-0.316748 2.68625L0.53125 2.15625ZM0.8125 1.42188L1.60001 2.03818L1.60634 2.03009L1.6125 2.02188L0.8125 1.42188ZM1.54688 0.75L1.01182 -0.0948191L1.0053 -0.0906901L0.998849 -0.0864611L1.54688 0.75ZM2.57812 0.28125L2.87034 1.2376L2.8824 1.23392L2.89435 1.22993L2.57812 0.28125ZM5.15625 0.609375L4.4274 1.29405L4.43266 1.29965L4.43801 1.30517L5.15625 0.609375ZM6.6875 5.85938L6.8519 4.87298L6.45494 4.80682L6.12282 5.03407L6.6875 5.85938ZM6.6875 6.5L7.31219 7.28087L7.46915 7.15531L7.5654 6.97885L6.6875 6.5ZM4.15625 6.25L5.10011 5.91965L4.6113 4.52306L3.49775 5.49742L4.15625 6.25ZM3.96875 6.40625L3.36875 5.60625L3.96875 6.40625ZM3.76562 6.5625L4.32033 7.39455L4.35073 7.37428L4.37957 7.35185L3.76562 6.5625ZM3.04688 6.95312L3.41827 7.8816L3.43405 7.87529L3.44961 7.86844L3.04688 6.95312ZM3.71875 5.875L3.14529 5.05577L3.13533 5.06274L3.12555 5.06994L3.71875 5.875ZM4.03125 3.78125H5.03125V2.38007L3.70617 2.83556L4.03125 3.78125ZM3.03125 4.125L2.70617 3.17931L2.66878 3.19217L2.63252 3.20793L3.03125 4.125ZM2.20312 6.10938C1.8704 6.10938 1.68615 6.02395 1.56675 5.92321L0.277004 7.45179C0.82427 7.91355 1.49419 8.10938 2.20312 8.10938V6.10938ZM1.59216 5.9454C1.51136 5.87241 1.4375 5.76363 1.4375 5.5H-0.5625C-0.5625 6.23637 -0.313439 6.91926 0.251589 7.4296L1.59216 5.9454ZM1.4375 5.5C1.4375 5.38722 1.46738 5.28907 1.55498 5.17644L-0.0237272 3.94856C-0.37363 4.39843 -0.5625 4.92528 -0.5625 5.5H1.4375ZM1.54086 5.19417C1.6587 5.04955 1.84977 4.89228 2.15672 4.74274L1.28078 2.94476C0.775227 3.19106 0.330887 3.51295 -0.00960999 3.93083L1.54086 5.19417ZM2.16596 4.73818C2.28816 4.67708 2.38219 4.63673 2.45112 4.61167L1.76763 2.73208C1.60739 2.79035 1.441 2.86459 1.27154 2.94932L2.16596 4.73818ZM2.49399 4.59495C2.61546 4.54434 2.72556 4.49931 2.82452 4.45973L2.08173 2.60277C1.97236 2.64652 1.85329 2.69524 1.72476 2.7488L2.49399 4.59495ZM2.75295 4.48524C3.11598 4.37115 3.41492 4.27838 3.65054 4.20667L3.06821 2.29333C2.82466 2.36745 2.51944 2.46218 2.1533 2.57726L2.75295 4.48524ZM3.63937 4.21C3.8894 4.13708 4.06976 4.08404 4.17797 4.05158L3.60328 2.13592C3.50315 2.16596 3.32935 2.21709 3.07938 2.29L3.63937 4.21ZM4.37627 3.96791C4.5646 3.86328 4.74286 3.70433 4.86767 3.48245C4.99055 3.26399 5.03125 3.03873 5.03125 2.84375H3.03125C3.03125 2.76335 3.04851 2.63705 3.12452 2.50193C3.20245 2.36338 3.3104 2.27214 3.40498 2.21959L4.37627 3.96791ZM5.03125 2.84375V1.98438H3.03125V2.84375H5.03125ZM5.03125 1.98438C5.03125 1.4753 4.91481 0.941175 4.56212 0.500305L3.00038 1.74969C2.98102 1.72549 3.03125 1.76428 3.03125 1.98438H5.03125ZM4.56212 0.500305C4.19412 0.040309 3.67541 -0.1875 3.10938 -0.1875V1.8125C3.12452 1.8125 3.10385 1.8147 3.06655 1.79735C3.04918 1.78927 3.03357 1.77936 3.02081 1.76915C3.00828 1.75913 3.00179 1.75146 3.00038 1.74969L4.56212 0.500305ZM3.10938 -0.1875C2.5675 -0.1875 2.03044 -0.0052371 1.62976 0.44258L3.12024 1.77617C3.11535 1.78163 3.10722 1.7894 3.096 1.7973C3.08476 1.80521 3.07417 1.8106 3.0662 1.81383C3.04978 1.82046 3.05844 1.8125 3.10938 1.8125V-0.1875ZM1.64799 0.422751C1.23893 0.855866 1.10938 1.40895 1.10938 1.92188H3.10938C3.10938 1.82578 3.12165 1.77802 3.12628 1.76386C3.12955 1.75384 3.12499 1.77167 3.10201 1.796L1.64799 0.422751ZM1.10938 1.92188C1.10938 1.90044 1.11385 1.83311 1.15635 1.7481C1.20093 1.65895 1.26484 1.59555 1.3203 1.55857L2.4297 3.22268C2.89816 2.91037 3.10938 2.42151 3.10938 1.92188H1.10938ZM1.3605 1.53313C1.36152 1.53252 1.36317 1.53164 1.36521 1.53078C1.36724 1.52993 1.36868 1.5295 1.36911 1.52939C1.37048 1.52903 1.36323 1.53125 1.34375 1.53125V3.53125C1.70676 3.53125 2.06454 3.44309 2.3895 3.24812L1.3605 1.53313ZM1.34375 1.53125C1.25511 1.53125 1.24219 1.51642 1.27062 1.52954C1.28592 1.5366 1.30729 1.54918 1.32972 1.56887C1.35222 1.58863 1.36864 1.60928 1.37925 1.62625L-0.316748 2.68625C0.0777682 3.31748 0.733243 3.53125 1.34375 3.53125V1.53125ZM1.53125 2.15625C1.53125 2.15637 1.53125 2.15613 1.53125 2.15625C1.53125 2.15613 1.53125 2.15637 1.53125 2.15625C1.53125 2.15625 1.53125 2.15625 1.53125 2.15625C1.53125 2.15625 1.53125 2.15626 1.53125 2.15626C1.53125 2.15627 1.53125 2.15628 1.53125 2.15629C1.53125 2.15631 1.53125 2.15635 1.53125 2.15638C1.53124 2.15646 1.53124 2.15653 1.53123 2.15657C1.53122 2.15669 1.53123 2.1565 1.53135 2.15589C1.53154 2.15488 1.53241 2.15067 1.53542 2.1428C1.54148 2.12698 1.55802 2.09183 1.60001 2.03818L0.024995 0.805567C-0.26945 1.1818 -0.46875 1.63762 -0.46875 2.15625H1.53125ZM1.6125 2.02188C1.72045 1.87794 1.87503 1.73051 2.0949 1.58646L0.998849 -0.0864611C0.614548 0.165321 0.279549 0.465809 0.0125 0.821875L1.6125 2.02188ZM2.08193 1.59482C2.31443 1.44756 2.57578 1.32761 2.87034 1.2376L2.28591 -0.675102C1.83047 -0.53594 1.40432 -0.343398 1.01182 -0.0948191L2.08193 1.59482ZM2.89435 1.22993C3.17293 1.13707 3.4413 1.09375 3.70312 1.09375V-0.90625C3.21495 -0.90625 2.73332 -0.824573 2.2619 -0.667433L2.89435 1.22993ZM3.70312 1.09375C4.17827 1.09375 4.35522 1.21721 4.4274 1.29405L5.8851 -0.0753007C5.31145 -0.685957 4.51965 -0.90625 3.70312 -0.90625V1.09375ZM4.43801 1.30517C4.48353 1.35216 4.64062 1.59675 4.64062 2.34375H6.64062C6.64062 1.44492 6.4748 0.533258 5.87449 -0.0864201L4.43801 1.30517ZM4.64062 2.34375V5.42188H6.64062V2.34375H4.64062ZM4.64062 5.42188C4.64062 5.74333 4.70102 6.16967 4.99052 6.52935C5.31341 6.93052 5.76577 7.0625 6.15625 7.0625V5.0625C6.17207 5.0625 6.23184 5.06482 6.31329 5.09856C6.40086 5.13482 6.48441 5.19565 6.54854 5.27533C6.66617 5.42148 6.64062 5.5275 6.64062 5.42188H4.64062ZM6.15625 7.0625C6.59535 7.0625 6.97087 6.87716 7.25218 6.68468L6.12282 5.03407C6.0984 5.05077 6.07972 5.06189 6.06669 5.06895C6.05362 5.07603 6.04784 5.07815 6.04911 5.07767C6.05097 5.07696 6.08933 5.0625 6.15625 5.0625V7.0625ZM6.5231 6.84577C6.4015 6.8255 6.26787 6.77682 6.14302 6.68666C6.019 6.59708 5.93434 6.48879 5.87992 6.38901C5.78132 6.20825 5.78125 6.05682 5.78125 6.03125H7.78125C7.78125 5.90151 7.76555 5.66935 7.63571 5.4313C7.47803 5.14224 7.19678 4.93046 6.8519 4.87298L6.5231 6.84577ZM5.78125 6.03125C5.78125 6.05462 5.78032 6.07199 5.77926 6.08398C5.7782 6.09601 5.77713 6.10127 5.77723 6.10076C5.77733 6.10025 5.7789 6.09253 5.78353 6.07914C5.78819 6.06567 5.79627 6.04559 5.8096 6.02115L7.5654 6.97885C7.73892 6.66073 7.78125 6.31721 7.78125 6.03125H5.78125ZM6.06281 5.71913C5.97496 5.78941 5.82789 5.8855 5.60115 6.00341L6.52385 7.77784C6.81794 7.62492 7.08754 7.46059 7.31219 7.28087L6.06281 5.71913ZM5.60115 6.00341C5.45159 6.08118 5.35925 6.09375 5.3125 6.09375V8.09375C5.74492 8.09375 6.15257 7.97091 6.52385 7.77784L5.60115 6.00341ZM5.3125 6.09375C5.31891 6.09375 5.31991 6.09545 5.31043 6.09187C5.29907 6.08758 5.26896 6.07403 5.22082 6.03684L3.99793 7.61941C4.36455 7.90271 4.80833 8.09375 5.3125 8.09375V6.09375ZM5.22082 6.03684C5.09775 5.94174 5.092 5.8965 5.10011 5.91965L3.21239 6.58035C3.36633 7.02017 3.66267 7.36034 3.99793 7.61941L5.22082 6.03684ZM3.49775 5.49742C3.46013 5.53033 3.43003 5.55608 3.40669 5.57553C3.39512 5.58517 3.38605 5.59257 3.37921 5.59804C3.37584 5.60073 3.37326 5.60276 3.37141 5.6042C3.36954 5.60566 3.36869 5.6063 3.36875 5.60625L4.56875 7.20625C4.64239 7.15102 4.72861 7.07796 4.81475 7.00258L3.49775 5.49742ZM3.36875 5.60625C3.31947 5.64321 3.24574 5.69999 3.15168 5.77315L4.37957 7.35185C4.47301 7.27918 4.5347 7.23179 4.56875 7.20625L3.36875 5.60625ZM3.21092 5.73045C3.04407 5.84169 2.85587 5.94465 2.64414 6.03781L3.44961 7.86844C3.75871 7.73244 4.04968 7.57498 4.32033 7.39455L3.21092 5.73045ZM2.67548 6.02465C2.54203 6.07803 2.38787 6.10938 2.20312 6.10938V8.10938C2.62255 8.10938 3.03089 8.03655 3.41827 7.8816L2.67548 6.02465ZM3 7.09375C3.46271 7.09375 3.91808 6.97028 4.31195 6.68006L3.12555 5.06994C3.12359 5.07139 3.09979 5.09375 3 5.09375V7.09375ZM4.29221 6.69423C4.66392 6.43403 5.03125 5.99789 5.03125 5.375H3.03125C3.03125 5.27208 3.0629 5.17819 3.10513 5.11063C3.1418 5.05195 3.17036 5.03822 3.14529 5.05577L4.29221 6.69423ZM5.03125 5.375V3.78125H3.03125V5.375H5.03125ZM3.70617 2.83556L2.70617 3.17931L3.35633 5.07069L4.35633 4.72694L3.70617 2.83556ZM2.63252 3.20793C2.3237 3.3422 2.0365 3.50857 1.77668 3.71065L3.00457 5.28935C3.11975 5.19976 3.25963 5.11613 3.42998 5.04207L2.63252 3.20793ZM1.77668 3.71065C1.30931 4.07416 1.10938 4.59465 1.10938 5.125H3.10938C3.10938 5.10517 3.11255 5.12945 3.09161 5.17599C3.06885 5.22657 3.03426 5.26625 3.00457 5.28935L1.77668 3.71065ZM1.10938 5.125C1.10938 5.60669 1.22962 6.17096 1.67543 6.58891L3.04332 5.12984C3.06716 5.15219 3.0855 5.17554 3.09862 5.19658C3.11145 5.21716 3.11699 5.23183 3.11852 5.23633C3.11993 5.24047 3.11749 5.23462 3.11477 5.21573C3.11204 5.19677 3.10938 5.16713 3.10938 5.125H1.10938ZM1.67543 6.58891C2.0536 6.94344 2.52379 7.09375 3 7.09375V5.09375C2.97021 5.09375 2.97007 5.08943 2.98811 5.09603C2.99677 5.0992 3.00712 5.10401 3.01791 5.11066C3.02869 5.1173 3.03725 5.12415 3.04332 5.12984L1.67543 6.58891Z" fill="url(#paint1_linear_410_6919)" mask="url(#path-1-inside-1_410_6919)"/>
<mask id="path-3-inside-2_410_6919" fill="white">
<path d="M4.82422 15.9528C4.80078 15.8824 4.78906 15.8414 4.78906 15.8297C4.78906 15.5602 4.82422 15.4254 4.89453 15.4254C4.98828 15.4254 5.12305 15.402 5.29883 15.3551C5.47461 15.2965 5.64453 15.2262 5.80859 15.1442C5.98438 15.0504 6.10156 14.9625 6.16016 14.8805C6.24219 14.7867 6.35352 14.6285 6.49414 14.4059C6.64648 14.1715 6.82812 13.8727 7.03906 13.5094L11.9082 5.17737C12.2832 4.54456 12.5879 4.22815 12.8223 4.22815C12.8926 4.22815 12.9512 4.25159 12.998 4.29846L14.6504 13.5094L14.8965 14.7926C14.9199 14.9098 14.9902 15.0153 15.1074 15.109C15.2363 15.2028 15.3711 15.2789 15.5117 15.3375C15.6641 15.3961 15.7754 15.4254 15.8457 15.4254C15.8691 15.4254 15.8809 15.4606 15.8809 15.5309C15.8809 15.7301 15.8574 15.8707 15.8105 15.9528L13.8066 15.8473C13.6777 15.8473 12.9453 15.8824 11.6094 15.9528C11.5977 15.941 11.5918 15.9059 11.5918 15.8473C11.5918 15.566 11.627 15.4254 11.6973 15.4254C11.8145 15.4254 11.9902 15.3844 12.2246 15.3024C12.459 15.2086 12.6055 15.1149 12.6641 15.0211C12.7344 14.8805 12.7695 14.7047 12.7695 14.4938C12.7695 14.4352 12.7402 14.2008 12.6816 13.7906C12.623 13.3688 12.5352 12.7653 12.418 11.9801C12.418 11.9215 12.3887 11.8922 12.3301 11.8922C12.1191 11.8571 11.5684 11.8395 10.6777 11.8395C10.2441 11.8395 9.69336 11.8571 9.02539 11.8922C8.9668 11.8922 8.93164 11.9156 8.91992 11.9625C8.9082 11.986 8.82031 12.1207 8.65625 12.3668C8.50391 12.6129 8.32812 12.9059 8.12891 13.2457C7.92969 13.5739 7.75391 13.8903 7.60156 14.1949C7.44922 14.4879 7.37305 14.7047 7.37305 14.8453C7.37305 14.9625 7.4375 15.068 7.56641 15.1617C7.70703 15.2438 7.85938 15.3082 8.02344 15.3551C8.19922 15.402 8.33398 15.4254 8.42773 15.4254C8.45117 15.4254 8.46289 15.4547 8.46289 15.5133C8.46289 15.6656 8.42773 15.8121 8.35742 15.9528C8.22852 15.941 7.99414 15.9235 7.6543 15.9C7.32617 15.8649 7.02148 15.8473 6.74023 15.8473C6.55273 15.8473 6.32422 15.859 6.05469 15.8824C5.79688 15.8942 5.55078 15.9059 5.31641 15.9176C5.09375 15.9293 4.92969 15.941 4.82422 15.9528ZM10.8887 10.8903C11.2285 10.8903 11.6504 10.8727 12.1543 10.8375C12.2012 10.8375 12.2246 10.8141 12.2246 10.7672L11.9258 8.95667C11.8438 8.4762 11.7793 8.09534 11.7324 7.81409C11.6855 7.52112 11.6562 7.33362 11.6445 7.25159L9.60547 10.8375C9.95703 10.8727 10.3848 10.8903 10.8887 10.8903Z"/>
</mask>
<path d="M4.82422 15.9528C4.80078 15.8824 4.78906 15.8414 4.78906 15.8297C4.78906 15.5602 4.82422 15.4254 4.89453 15.4254C4.98828 15.4254 5.12305 15.402 5.29883 15.3551C5.47461 15.2965 5.64453 15.2262 5.80859 15.1442C5.98438 15.0504 6.10156 14.9625 6.16016 14.8805C6.24219 14.7867 6.35352 14.6285 6.49414 14.4059C6.64648 14.1715 6.82812 13.8727 7.03906 13.5094L11.9082 5.17737C12.2832 4.54456 12.5879 4.22815 12.8223 4.22815C12.8926 4.22815 12.9512 4.25159 12.998 4.29846L14.6504 13.5094L14.8965 14.7926C14.9199 14.9098 14.9902 15.0153 15.1074 15.109C15.2363 15.2028 15.3711 15.2789 15.5117 15.3375C15.6641 15.3961 15.7754 15.4254 15.8457 15.4254C15.8691 15.4254 15.8809 15.4606 15.8809 15.5309C15.8809 15.7301 15.8574 15.8707 15.8105 15.9528L13.8066 15.8473C13.6777 15.8473 12.9453 15.8824 11.6094 15.9528C11.5977 15.941 11.5918 15.9059 11.5918 15.8473C11.5918 15.566 11.627 15.4254 11.6973 15.4254C11.8145 15.4254 11.9902 15.3844 12.2246 15.3024C12.459 15.2086 12.6055 15.1149 12.6641 15.0211C12.7344 14.8805 12.7695 14.7047 12.7695 14.4938C12.7695 14.4352 12.7402 14.2008 12.6816 13.7906C12.623 13.3688 12.5352 12.7653 12.418 11.9801C12.418 11.9215 12.3887 11.8922 12.3301 11.8922C12.1191 11.8571 11.5684 11.8395 10.6777 11.8395C10.2441 11.8395 9.69336 11.8571 9.02539 11.8922C8.9668 11.8922 8.93164 11.9156 8.91992 11.9625C8.9082 11.986 8.82031 12.1207 8.65625 12.3668C8.50391 12.6129 8.32812 12.9059 8.12891 13.2457C7.92969 13.5739 7.75391 13.8903 7.60156 14.1949C7.44922 14.4879 7.37305 14.7047 7.37305 14.8453C7.37305 14.9625 7.4375 15.068 7.56641 15.1617C7.70703 15.2438 7.85938 15.3082 8.02344 15.3551C8.19922 15.402 8.33398 15.4254 8.42773 15.4254C8.45117 15.4254 8.46289 15.4547 8.46289 15.5133C8.46289 15.6656 8.42773 15.8121 8.35742 15.9528C8.22852 15.941 7.99414 15.9235 7.6543 15.9C7.32617 15.8649 7.02148 15.8473 6.74023 15.8473C6.55273 15.8473 6.32422 15.859 6.05469 15.8824C5.79688 15.8942 5.55078 15.9059 5.31641 15.9176C5.09375 15.9293 4.92969 15.941 4.82422 15.9528ZM10.8887 10.8903C11.2285 10.8903 11.6504 10.8727 12.1543 10.8375C12.2012 10.8375 12.2246 10.8141 12.2246 10.7672L11.9258 8.95667C11.8438 8.4762 11.7793 8.09534 11.7324 7.81409C11.6855 7.52112 11.6562 7.33362 11.6445 7.25159L9.60547 10.8375C9.95703 10.8727 10.3848 10.8903 10.8887 10.8903Z" fill="url(#paint2_linear_410_6919)"/>
<path d="M4.82422 15.9528L3.87554 16.269L4.13118 17.0359L4.93465 16.9466L4.82422 15.9528ZM5.29883 15.3551L5.55649 16.3213L5.58604 16.3135L5.61506 16.3038L5.29883 15.3551ZM5.80859 15.1442L6.25581 16.0386L6.26757 16.0327L6.27918 16.0265L5.80859 15.1442ZM6.16016 14.8805L5.40758 14.222L5.3751 14.2591L5.34642 14.2993L6.16016 14.8805ZM6.49414 14.4059L5.65563 13.8608L5.64865 13.8719L6.49414 14.4059ZM7.03906 13.5094L6.17568 13.0048L6.17427 13.0073L7.03906 13.5094ZM11.9082 5.17737L11.0479 4.66756L11.0448 4.67282L11.9082 5.17737ZM12.998 4.29846L13.9823 4.12189L13.927 3.81315L13.7052 3.59136L12.998 4.29846ZM14.6504 13.5094L13.666 13.686L13.6683 13.6977L14.6504 13.5094ZM14.8965 14.7926L13.9144 14.981L13.9159 14.9887L14.8965 14.7926ZM15.1074 15.109L14.4827 15.8899L14.5007 15.9042L14.5193 15.9177L15.1074 15.109ZM15.5117 15.3375L15.1271 16.2606L15.1399 16.2659L15.1527 16.2709L15.5117 15.3375ZM15.8105 15.9528L15.758 16.9514L16.3732 16.9838L16.6788 16.4489L15.8105 15.9528ZM13.8066 15.8473L13.8592 14.8487L13.8329 14.8473H13.8066V15.8473ZM11.6094 15.9528L10.9023 16.6599L11.2172 16.9748L11.6619 16.9514L11.6094 15.9528ZM12.2246 15.3024L12.555 16.2462L12.5756 16.239L12.596 16.2308L12.2246 15.3024ZM12.6641 15.0211L13.5121 15.5511L13.5372 15.5108L13.5585 15.4683L12.6641 15.0211ZM12.6816 13.7906L11.6911 13.9282L11.6917 13.9321L12.6816 13.7906ZM12.418 11.9801H11.418V12.0543L11.4289 12.1277L12.418 11.9801ZM12.3301 11.8922L12.1657 12.8786L12.2473 12.8922H12.3301V11.8922ZM9.02539 11.8922V12.8922H9.05169L9.07795 12.8908L9.02539 11.8922ZM8.91992 11.9625L9.81435 12.4097L9.86344 12.3116L9.89006 12.2051L8.91992 11.9625ZM8.65625 12.3668L7.8242 11.8121L7.81485 11.8261L7.80598 11.8405L8.65625 12.3668ZM8.12891 13.2457L8.98369 13.7647L8.9877 13.7581L8.9916 13.7514L8.12891 13.2457ZM7.60156 14.1949L8.48878 14.6563L8.49244 14.6493L8.49599 14.6422L7.60156 14.1949ZM7.56641 15.1617L6.97823 15.9705L7.019 16.0001L7.06254 16.0255L7.56641 15.1617ZM8.02344 15.3551L7.74872 16.3166L7.75722 16.3191L7.76577 16.3213L8.02344 15.3551ZM8.35742 15.9528L8.26689 16.9487L8.94661 17.0104L9.25185 16.4L8.35742 15.9528ZM7.6543 15.9L7.54776 16.8943L7.5666 16.8964L7.58549 16.8977L7.6543 15.9ZM6.05469 15.8824L6.1001 16.8814L6.12073 16.8805L6.14132 16.8787L6.05469 15.8824ZM5.31641 15.9176L5.26647 14.9188L5.26385 14.919L5.31641 15.9176ZM12.1543 10.8375V9.83752H12.1195L12.0847 9.83995L12.1543 10.8375ZM12.2246 10.7672H13.2246V10.6852L13.2113 10.6044L12.2246 10.7672ZM11.9258 8.95667L12.9124 8.79382L12.9115 8.78837L11.9258 8.95667ZM11.7324 7.81409L10.745 7.97208L10.746 7.97849L11.7324 7.81409ZM11.6445 7.25159L12.6345 7.11017L12.2209 4.21496L10.7752 6.75728L11.6445 7.25159ZM9.60547 10.8375L8.73618 10.3432L7.97628 11.6796L9.50597 11.8326L9.60547 10.8375ZM5.7729 15.6365C5.76829 15.6227 5.76487 15.6121 5.76242 15.6044C5.75987 15.5963 5.75905 15.5934 5.75938 15.5945C5.75958 15.5952 5.7604 15.5982 5.76162 15.6028C5.76277 15.6072 5.76491 15.6157 5.76745 15.6271C5.76976 15.6375 5.77398 15.6574 5.77798 15.6834C5.78005 15.6968 5.78258 15.7153 5.7847 15.7374C5.78672 15.7587 5.78906 15.7907 5.78906 15.8297H3.78906C3.78906 15.9522 3.81287 16.051 3.81507 16.0609C3.82257 16.0947 3.83067 16.1242 3.83633 16.144C3.84802 16.1849 3.86204 16.2285 3.87554 16.269L5.7729 15.6365ZM5.78906 15.8297C5.78906 15.7165 5.79862 15.7192 5.78305 15.7789C5.77635 15.8046 5.74356 15.9294 5.63589 16.067C5.5052 16.234 5.25166 16.4254 4.89453 16.4254V14.4254C4.50224 14.4254 4.21795 14.6337 4.06088 14.8344C3.92685 15.0056 3.87209 15.181 3.84781 15.2741C3.79708 15.4685 3.78906 15.6734 3.78906 15.8297H5.78906ZM4.89453 16.4254C5.12258 16.4254 5.35977 16.3738 5.55649 16.3213L5.04117 14.3889C4.9731 14.407 4.92527 14.4173 4.89458 14.4226C4.86055 14.4285 4.86443 14.4254 4.89453 14.4254V16.4254ZM5.61506 16.3038C5.83527 16.2304 6.04899 16.142 6.25581 16.0386L5.36138 14.2497C5.24007 14.3104 5.11395 14.3626 4.9826 14.4064L5.61506 16.3038ZM6.27918 16.0265C6.48321 15.9177 6.77462 15.7407 6.97389 15.4617L5.34642 14.2993C5.37358 14.2612 5.39735 14.2365 5.4102 14.2241C5.42336 14.2114 5.43059 14.2062 5.42832 14.2079C5.42631 14.2094 5.41829 14.2153 5.4025 14.225C5.38688 14.2347 5.36569 14.247 5.33801 14.2618L6.27918 16.0265ZM6.91273 15.539C7.04907 15.3832 7.19477 15.1692 7.33963 14.9399L5.64865 13.8719C5.51227 14.0878 5.43531 14.1903 5.40758 14.222L6.91273 15.539ZM7.33258 14.9509C7.49737 14.6974 7.68822 14.3829 7.90385 14.0115L6.17427 13.0073C5.96803 13.3625 5.7956 13.6457 5.6557 13.8609L7.33258 14.9509ZM7.90244 14.0139L12.7716 5.68192L11.0448 4.67282L6.17568 13.0048L7.90244 14.0139ZM12.7685 5.68717C12.9392 5.39912 13.0634 5.23686 13.1383 5.1591C13.1746 5.12139 13.1755 5.12876 13.1395 5.14989C13.103 5.17134 12.9914 5.22815 12.8223 5.22815V3.22815C12.2756 3.22815 11.89 3.57202 11.6976 3.77181C11.4678 4.01046 11.2522 4.32281 11.0479 4.66757L12.7685 5.68717ZM12.8223 5.22815C12.7447 5.22815 12.6491 5.21484 12.5476 5.1742C12.4448 5.13311 12.3583 5.07297 12.2909 5.00557L13.7052 3.59136C13.4585 3.34468 13.1399 3.22815 12.8223 3.22815V5.22815ZM12.0138 4.47503L13.6661 13.686L15.6347 13.3328L13.9823 4.12189L12.0138 4.47503ZM13.6683 13.6977L13.9144 14.981L15.8786 14.6043L15.6325 13.3211L13.6683 13.6977ZM13.9159 14.9887C13.9963 15.3908 14.2301 15.6878 14.4827 15.8899L15.7321 14.3281C15.7395 14.3341 15.7676 14.358 15.7988 14.4049C15.8317 14.4542 15.8616 14.5194 15.8771 14.5965L13.9159 14.9887ZM14.5193 15.9177C14.7084 16.0553 14.9111 16.1706 15.1271 16.2606L15.8963 14.4144C15.831 14.3872 15.7643 14.3502 15.6956 14.3003L14.5193 15.9177ZM15.1527 16.2709C15.3079 16.3305 15.5726 16.4254 15.8457 16.4254V14.4254C15.8712 14.4254 15.8923 14.4267 15.9079 14.4281C15.9237 14.4296 15.9361 14.4313 15.9445 14.4327C15.9606 14.4353 15.9678 14.4374 15.964 14.4364C15.9606 14.4355 15.9511 14.4328 15.9345 14.4273C15.9181 14.4218 15.897 14.4143 15.8707 14.4042L15.1527 16.2709ZM15.8457 16.4254C15.569 16.4254 15.3245 16.3096 15.154 16.1391C15.008 15.9932 14.9474 15.8402 14.9234 15.768C14.8968 15.6882 14.8881 15.6247 14.8848 15.5952C14.8811 15.5621 14.8809 15.5391 14.8809 15.5309H16.8809C16.8809 15.4665 16.8787 15.3095 16.8208 15.1356C16.7713 14.9873 16.5217 14.4254 15.8457 14.4254V16.4254ZM14.8809 15.5309C14.8809 15.5615 14.8799 15.5844 14.8788 15.6005C14.8777 15.6169 14.8766 15.6233 14.8769 15.6214C14.8771 15.6199 14.8797 15.6045 14.8877 15.5791C14.8956 15.5543 14.9116 15.5103 14.9423 15.4566L16.6788 16.4489C16.8651 16.1229 16.8809 15.7509 16.8809 15.5309H14.8809ZM15.8631 14.9541L13.8592 14.8487L13.7541 16.8459L15.758 16.9514L15.8631 14.9541ZM13.8066 14.8473C13.6432 14.8473 12.8695 14.8851 11.5568 14.9541L11.6619 16.9514C12.3294 16.9162 12.8447 16.89 13.2086 16.8725C13.3907 16.8638 13.5334 16.8573 13.6376 16.853C13.6898 16.8509 13.7308 16.8494 13.7614 16.8484C13.7951 16.8474 13.8073 16.8473 13.8066 16.8473V14.8473ZM12.3165 15.2457C12.4526 15.3818 12.5133 15.5226 12.538 15.5885C12.5658 15.6625 12.5775 15.7227 12.5826 15.7532C12.5882 15.7868 12.5902 15.812 12.5909 15.8245C12.5918 15.8378 12.5918 15.846 12.5918 15.8473H10.5918C10.5918 15.9014 10.5939 15.9867 10.6098 16.082C10.6154 16.1154 10.6549 16.4125 10.9023 16.6599L12.3165 15.2457ZM12.5918 15.8473C12.5918 15.7271 12.6013 15.7213 12.5883 15.7734C12.5831 15.7944 12.5533 15.9155 12.4511 16.0518C12.3278 16.2162 12.0725 16.4254 11.6973 16.4254V14.4254C11.2868 14.4254 11.0008 14.6522 10.8511 14.8518C10.7226 15.0232 10.6708 15.1971 10.648 15.2883C10.5998 15.4811 10.5918 15.6862 10.5918 15.8473H12.5918ZM11.6973 16.4254C11.9945 16.4254 12.306 16.3334 12.555 16.2462L11.8943 14.3585C11.7993 14.3917 11.7326 14.4108 11.6898 14.4208C11.669 14.4257 11.6587 14.4272 11.6575 14.4274C11.6555 14.4277 11.67 14.4254 11.6973 14.4254V16.4254ZM12.596 16.2308C12.748 16.17 12.9052 16.0963 13.0493 16.004C13.1833 15.9182 13.372 15.7753 13.5121 15.5511L11.8161 14.4911C11.8599 14.421 11.9039 14.3762 11.9289 14.3534C11.9544 14.3301 11.9711 14.3195 11.9712 14.3195C11.9719 14.319 11.9634 14.3245 11.9422 14.3349C11.9215 14.3451 11.8923 14.3583 11.8532 14.3739L12.596 16.2308ZM13.5585 15.4683C13.7178 15.1497 13.7695 14.8094 13.7695 14.4938H11.7695C11.7695 14.5446 11.7652 14.5745 11.7626 14.5877C11.76 14.6004 11.7599 14.5933 11.7696 14.5739L13.5585 15.4683ZM13.7695 14.4938C13.7695 14.388 13.7515 14.2437 13.7398 14.15C13.7241 14.0243 13.7012 13.8565 13.6716 13.6492L11.6917 13.9321C11.7207 14.135 11.7417 14.2894 11.7553 14.3981C11.7621 14.4527 11.7665 14.4913 11.769 14.5164C11.7728 14.5546 11.7695 14.5348 11.7695 14.4938H13.7695ZM13.6721 13.6531C13.6128 13.2261 13.5244 12.6187 13.407 11.8325L11.4289 12.1277C11.546 12.9119 11.6333 13.5114 11.6911 13.9282L13.6721 13.6531ZM13.418 11.9801C13.418 11.7967 13.3714 11.4754 13.1031 11.2071C12.8348 10.9387 12.5135 10.8922 12.3301 10.8922V12.8922C12.2052 12.8922 11.9279 12.8603 11.6889 12.6213C11.4499 12.3823 11.418 12.105 11.418 11.9801H13.418ZM12.4945 10.9058C12.1828 10.8539 11.5349 10.8395 10.6777 10.8395V12.8395C11.118 12.8395 11.4665 12.8438 11.7269 12.8522C11.8571 12.8563 11.9603 12.8613 12.0391 12.8668C12.0783 12.8695 12.1087 12.8721 12.1316 12.8745C12.1429 12.8757 12.1515 12.8767 12.1576 12.8775C12.1638 12.8783 12.1663 12.8787 12.1657 12.8786L12.4945 10.9058ZM10.6777 10.8395C10.2199 10.8395 9.65003 10.858 8.97283 10.8936L9.07795 12.8908C9.73669 12.8562 10.2684 12.8395 10.6777 12.8395V10.8395ZM9.02539 10.8922C8.87246 10.8922 8.63443 10.9217 8.40038 11.0777C8.14606 11.2473 8.0067 11.4923 7.94978 11.72L9.89006 12.2051C9.84486 12.3859 9.72894 12.5957 9.50978 12.7418C9.31089 12.8744 9.11972 12.8922 9.02539 12.8922V10.8922ZM8.02549 11.5153C8.03611 11.4941 8.04486 11.4786 8.04754 11.4739C8.05123 11.4674 8.0538 11.4631 8.05446 11.462C8.05575 11.4599 8.05489 11.4614 8.05062 11.4682C8.04231 11.4814 8.02841 11.503 8.0076 11.5349C7.96642 11.5981 7.90563 11.69 7.8242 11.8121L9.4883 12.9215C9.57093 12.7976 9.63611 12.6991 9.68283 12.6274C9.70677 12.5907 9.77572 12.487 9.81435 12.4097L8.02549 11.5153ZM7.80598 11.8405C7.64822 12.0953 7.46815 12.3955 7.26621 12.74L8.9916 13.7514C9.1881 13.4163 9.35959 13.1305 9.50652 12.8932L7.80598 11.8405ZM7.27412 12.7267C7.06246 13.0754 6.87312 13.4158 6.70714 13.7477L8.49599 14.6422C8.63469 14.3648 8.79692 14.0723 8.98369 13.7647L7.27412 12.7267ZM6.71435 13.7336C6.5624 14.0258 6.37305 14.4366 6.37305 14.8453H8.37305C8.37305 14.8974 8.36636 14.9293 8.36537 14.934C8.36408 14.9401 8.36531 14.9325 8.37364 14.9088C8.39093 14.8595 8.42585 14.7773 8.48878 14.6563L6.71435 13.7336ZM6.37305 14.8453C6.37305 15.3895 6.69147 15.7619 6.97823 15.9705L8.15458 14.353C8.16708 14.3621 8.22155 14.404 8.27467 14.4909C8.3329 14.5862 8.37305 14.7097 8.37305 14.8453H6.37305ZM7.06254 16.0255C7.27855 16.1515 7.50835 16.2479 7.74872 16.3166L8.29816 14.3936C8.2104 14.3685 8.13551 14.336 8.07028 14.298L7.06254 16.0255ZM7.76577 16.3213C7.9625 16.3738 8.19968 16.4254 8.42773 16.4254V14.4254C8.45784 14.4254 8.46171 14.4285 8.42769 14.4226C8.397 14.4173 8.34916 14.407 8.2811 14.3889L7.76577 16.3213ZM8.42773 16.4254C8.20586 16.4254 7.98296 16.3492 7.80293 16.1991C7.64062 16.0639 7.56215 15.9101 7.52562 15.8188C7.45951 15.6535 7.46289 15.5212 7.46289 15.5133H9.46289C9.46289 15.4468 9.46041 15.2706 9.38258 15.076C9.34019 14.97 9.2544 14.8053 9.0833 14.6627C8.89449 14.5053 8.66133 14.4254 8.42773 14.4254V16.4254ZM7.46289 15.5133C7.46289 15.5128 7.46292 15.5115 7.46315 15.5096C7.46337 15.5077 7.46372 15.5058 7.46414 15.5041C7.46508 15.5001 7.4656 15.5003 7.46299 15.5055L9.25185 16.4C9.38929 16.1251 9.46289 15.826 9.46289 15.5133H7.46289ZM8.44796 14.9569C8.30677 14.944 8.06221 14.9258 7.7231 14.9024L7.58549 16.8977C7.92607 16.9211 8.15026 16.938 8.26689 16.9487L8.44796 14.9569ZM7.76083 14.9057C7.4032 14.8674 7.06253 14.8473 6.74023 14.8473V16.8473C6.98044 16.8473 7.24914 16.8623 7.54776 16.8943L7.76083 14.9057ZM6.74023 14.8473C6.51427 14.8473 6.25499 14.8613 5.96806 14.8862L6.14132 16.8787C6.39345 16.8568 6.5912 16.8473 6.74023 16.8473V14.8473ZM6.00928 14.8835C5.7501 14.8953 5.50249 14.907 5.26647 14.9189L5.36634 16.9164C5.59907 16.9047 5.84365 16.8931 6.1001 16.8814L6.00928 14.8835ZM5.26385 14.919C5.03803 14.9309 4.84974 14.9438 4.71379 14.9589L4.93465 16.9466C5.00963 16.9383 5.14947 16.9278 5.36897 16.9162L5.26385 14.919ZM10.8887 11.8903C11.2599 11.8903 11.7068 11.8712 12.2239 11.8351L12.0847 9.83995C11.594 9.87418 11.1971 9.89026 10.8887 9.89026V11.8903ZM12.1543 11.8375C12.3319 11.8375 12.6487 11.7925 12.9141 11.5271C13.1795 11.2617 13.2246 10.9448 13.2246 10.7672H11.2246C11.2246 10.6365 11.258 10.3548 11.4999 10.1128C11.7419 9.87088 12.0236 9.83752 12.1543 9.83752V11.8375ZM13.2113 10.6044L12.9124 8.79382L10.9391 9.11951L11.238 10.9301L13.2113 10.6044ZM12.9115 8.78837C12.8296 8.30843 12.7654 7.92905 12.7188 7.64969L10.746 7.97849C10.7932 8.26163 10.8579 8.64396 10.94 9.12496L12.9115 8.78837ZM12.7199 7.6561C12.6726 7.36068 12.6448 7.18219 12.6345 7.11017L10.6546 7.39301C10.6677 7.48505 10.6985 7.68156 10.745 7.97208L12.7199 7.6561ZM10.7752 6.75728L8.73618 10.3432L10.4748 11.3318L12.5138 7.74589L10.7752 6.75728ZM9.50597 11.8326C9.90121 11.8721 10.3643 11.8903 10.8887 11.8903V9.89026C10.4053 9.89026 10.0129 9.87328 9.70497 9.84249L9.50597 11.8326Z" fill="url(#paint3_linear_410_6919)" mask="url(#path-3-inside-2_410_6919)"/>
<g filter="url(#filter0_i_410_6919)">
<path d="M5.30769 8.61538L3 6.30769L5.30769 4L7.61538 6.30769L9 4.92308V10H3.92308L5.30769 8.61538Z" fill="#82C27C"/>
</g>
<path d="M7.96894 6.66125L8.5 6.13018V9.5H5.13018L5.66125 8.96894C5.85651 8.77368 5.85651 8.45709 5.66125 8.26183L3.70711 6.30769L5.30769 4.70711L7.26183 6.66125C7.45709 6.85651 7.77368 6.85651 7.96894 6.66125Z" stroke="url(#paint4_linear_410_6919)" stroke-linejoin="round"/>
</g>
<defs>
<filter id="filter0_i_410_6919" x="3" y="4" width="7" height="7" filterUnits="userSpaceOnUse" color-interpolation-filters="sRGB">
<feFlood flood-opacity="0" result="BackgroundImageFix"/>
<feBlend mode="normal" in="SourceGraphic" in2="BackgroundImageFix" result="shape"/>
<feColorMatrix in="SourceAlpha" type="matrix" values="0 0 0 0 0 0 0 0 0 0 0 0 0 0 0 0 0 0 127 0" result="hardAlpha"/>
<feOffset dx="1" dy="1"/>
<feGaussianBlur stdDeviation="1"/>
<feComposite in2="hardAlpha" operator="arithmetic" k2="-1" k3="1"/>
<feColorMatrix type="matrix" values="0 0 0 0 0.71381 0 0 0 0 0.864312 0 0 0 0 0.687251 0 0 0 1 0"/>
<feBlend mode="normal" in2="shape" result="effect1_innerShadow_410_6919"/>
</filter>
<linearGradient id="paint0_linear_410_6919" x1="8" y1="2.5" x2="0" y2="2.5" gradientUnits="userSpaceOnUse">
<stop stop-color="#71A4E6"/>
<stop offset="1" stop-color="#88B5EC"/>
</linearGradient>
<linearGradient id="paint1_linear_410_6919" x1="8" y1="2.5" x2="0" y2="2.5" gradientUnits="userSpaceOnUse">
<stop stop-color="#296CD9"/>
<stop offset="1" stop-color="#448DE2"/>
</linearGradient>
<linearGradient id="paint2_linear_410_6919" x1="17" y1="9.90002" x2="5" y2="9.90002" gradientUnits="userSpaceOnUse">
<stop stop-color="#71A4E6"/>
<stop offset="1" stop-color="#88B5EC"/>
</linearGradient>
<linearGradient id="paint3_linear_410_6919" x1="17" y1="9.90002" x2="5" y2="9.90002" gradientUnits="userSpaceOnUse">
<stop stop-color="#296CD9"/>
<stop offset="1" stop-color="#448DE2"/>
</linearGradient>
<linearGradient id="paint4_linear_410_6919" x1="4.05511" y1="4.46154" x2="8.60504" y2="9.39064" gradientUnits="userSpaceOnUse">
<stop stop-color="#80C178"/>
<stop offset="1" stop-color="#2A6B26"/>
</linearGradient>
<clipPath id="clip0_410_6919">
<rect width="16" height="16" fill="white"/>
</clipPath>
</defs>
</svg>
