<svg width="16" height="16" viewBox="0 0 16 16" fill="none" xmlns="http://www.w3.org/2000/svg">
<path d="M14 4.5C14 4.22386 13.7761 4 13.5 4H2.5C2.22386 4 2 4.22386 2 4.5C2 4.77614 2.22386 5 2.5 5H13.5C13.7761 5 14 4.77614 14 4.5Z" fill="url(#paint0_linear_410_6781)"/>
<path d="M14 2.5C14 2.22386 13.7761 2 13.5 2H2.5C2.22386 2 2 2.22386 2 2.5C2 2.77614 2.22386 3 2.5 3H13.5C13.7761 3 14 2.77614 14 2.5Z" fill="url(#paint1_linear_410_6781)"/>
<path d="M14 6.5C14 6.22386 13.7761 6 13.5 6H2.5C2.22386 6 2 6.22386 2 6.5C2 6.77614 2.22386 7 2.5 7H13.5C13.7761 7 14 6.77614 14 6.5Z" fill="url(#paint2_linear_410_6781)"/>
<path d="M6 13.5C6 13.2239 5.77614 13 5.5 13H2.5C2.22386 13 2 13.2239 2 13.5C2 13.7761 2.22386 14 2.5 14H5.5C5.77614 14 6 13.7761 6 13.5Z" fill="url(#paint3_linear_410_6781)"/>
<path d="M9.91421 7.5L13 4.41421L14.5858 6L11.5 9.08579L9.91421 7.5Z" fill="#88AADF" stroke="url(#paint4_linear_410_6781)" stroke-width="2"/>
<path d="M13 3.70711L15.2929 6L11.5 9.79289L9.20711 7.5L13 3.70711Z" stroke="url(#paint5_linear_410_6781)"/>
<path d="M6.66344 12.3366C6.75827 11.8839 6.82258 11.4417 6.86815 11.0543C6.92431 10.577 6.95643 10.1372 6.97486 9.78955C7.07622 9.74829 7.17162 9.7041 7.25971 9.66005C7.6138 9.48301 7.9479 9.25782 8.225 9.05C8.30553 8.9896 8.38292 8.9294 8.4564 8.87061L10.1294 10.5436C10.0706 10.6171 10.0104 10.6945 9.95 10.775C9.74218 11.0521 9.51699 11.3862 9.33995 11.7403C9.2959 11.8284 9.25171 11.9238 9.21045 12.0251C8.8628 12.0436 8.42301 12.0757 7.94566 12.1318C7.55832 12.1774 7.11606 12.2417 6.66344 12.3366Z" fill="#FCDE60" stroke="url(#paint6_linear_410_6781)" stroke-width="2"/>
<path d="M5.97312 13.0269C6.17755 12.3555 6.29775 11.6234 6.37157 10.9959C6.43585 10.4496 6.46788 9.95265 6.48388 9.59251C6.48648 9.5341 6.48866 9.47922 6.49048 9.42823C6.68253 9.37498 6.8673 9.29724 7.03611 9.21284C7.35377 9.05401 7.66145 8.84766 7.925 8.65C8.14077 8.48817 8.3336 8.32713 8.48621 8.19332L10.8067 10.5138C10.6729 10.6664 10.5118 10.8592 10.35 11.075C10.1523 11.3385 9.94599 11.6462 9.78716 11.9639C9.70276 12.1327 9.62502 12.3175 9.57177 12.5095C9.52078 12.5113 9.4659 12.5135 9.40749 12.5161C9.04735 12.5321 8.55042 12.5641 8.00408 12.6284C7.37661 12.7022 6.6445 12.8225 5.97312 13.0269Z" stroke="url(#paint7_linear_410_6781)"/>
<defs>
<linearGradient id="paint0_linear_410_6781" x1="14" y1="14" x2="2" y2="2.03622" gradientUnits="userSpaceOnUse">
<stop stop-color="#0F0F0F"/>
<stop offset="1" stop-color="#767676"/>
</linearGradient>
<linearGradient id="paint1_linear_410_6781" x1="14" y1="14" x2="2" y2="2.03622" gradientUnits="userSpaceOnUse">
<stop stop-color="#0F0F0F"/>
<stop offset="1" stop-color="#767676"/>
</linearGradient>
<linearGradient id="paint2_linear_410_6781" x1="14" y1="14" x2="2" y2="2.03622" gradientUnits="userSpaceOnUse">
<stop stop-color="#0F0F0F"/>
<stop offset="1" stop-color="#767676"/>
</linearGradient>
<linearGradient id="paint3_linear_410_6781" x1="14" y1="14" x2="2" y2="2.03622" gradientUnits="userSpaceOnUse">
<stop stop-color="#0F0F0F"/>
<stop offset="1" stop-color="#767676"/>
</linearGradient>
<linearGradient id="paint4_linear_410_6781" x1="11" y1="6" x2="13" y2="8" gradientUnits="userSpaceOnUse">
<stop stop-color="#BCD1ED"/>
<stop offset="1" stop-color="#9EB8E5"/>
</linearGradient>
<linearGradient id="paint5_linear_410_6781" x1="12" y1="4" x2="12" y2="10" gradientUnits="userSpaceOnUse">
<stop stop-color="#66A5E5"/>
<stop offset="1" stop-color="#587AAF"/>
</linearGradient>
<linearGradient id="paint6_linear_410_6781" x1="8" y1="12" x2="8" y2="9" gradientUnits="userSpaceOnUse">
<stop stop-color="white" stop-opacity="0.33"/>
<stop offset="1" stop-color="white" stop-opacity="0.66"/>
</linearGradient>
<linearGradient id="paint7_linear_410_6781" x1="7" y1="10" x2="9" y2="12" gradientUnits="userSpaceOnUse">
<stop stop-color="#F8C018"/>
<stop offset="1" stop-color="#E6A605"/>
</linearGradient>
</defs>
</svg>
