<svg width="16" height="16" viewBox="0 0 16 16" fill="none" xmlns="http://www.w3.org/2000/svg">
<g clip-path="url(#clip0_410_6744)">
<path d="M3.46924 13.0605C3.42887 13.0202 3.40869 12.9344 3.40869 12.8032C3.40869 12.6014 3.42887 12.5005 3.46924 12.5005C3.54997 12.5005 3.66602 12.4854 3.81738 12.4551C3.96875 12.4248 4.11003 12.3844 4.24121 12.334C4.3724 12.2734 4.44808 12.2179 4.46826 12.1675C4.52881 11.9354 4.55908 11.4914 4.55908 10.8354V5.11377C4.55908 4.54867 4.52881 4.15511 4.46826 3.93311C4.44808 3.87256 4.36735 3.81201 4.22607 3.75146C4.09489 3.68083 3.95361 3.62533 3.80225 3.58496C3.65088 3.53451 3.53483 3.50928 3.4541 3.50928C3.41374 3.50928 3.39355 3.41846 3.39355 3.23682C3.39355 3.07536 3.40869 2.97949 3.43896 2.94922C3.84261 2.9694 4.22607 2.98958 4.58936 3.00977C4.96273 3.01986 5.32096 3.0249 5.66406 3.0249L7.94971 2.99463C8.32308 2.99463 8.7015 3.04508 9.08496 3.146C9.46842 3.23682 9.8418 3.38314 10.2051 3.58496C10.5583 3.78678 10.8459 4.06934 11.0679 4.43262C11.2899 4.7959 11.4009 5.21468 11.4009 5.68896C11.4009 6.03206 11.3252 6.33984 11.1738 6.6123C11.0326 6.88477 10.866 7.11182 10.6743 7.29346C10.4826 7.46501 10.306 7.58105 10.1445 7.6416C10.0638 7.67188 10.0386 7.70215 10.0688 7.73242C10.311 7.77279 10.5583 7.89893 10.8105 8.11084C11.0729 8.32275 11.2949 8.60531 11.4766 8.9585C11.6582 9.3016 11.749 9.70524 11.749 10.1694C11.749 10.7446 11.5876 11.2492 11.2646 11.6831C10.9417 12.117 10.4927 12.45 9.91748 12.6821C9.34229 12.9041 8.67122 13.0101 7.9043 13L5.6792 12.9697C5.37646 12.9697 5.03841 12.9798 4.66504 13C4.30176 13.0101 4.00911 13.0202 3.78711 13.0303L3.46924 13.0605ZM7.46533 7.38428C7.85889 7.38428 8.14648 7.33887 8.32812 7.24805C8.48958 7.16732 8.60563 7.09163 8.67627 7.021C8.757 6.95036 8.84277 6.80404 8.93359 6.58203C9.03451 6.34993 9.08496 6.05729 9.08496 5.7041C9.08496 4.4528 8.62077 3.82715 7.69238 3.82715C7.22819 3.82715 6.93555 3.84733 6.81445 3.8877C6.72363 3.89779 6.67822 3.95833 6.67822 4.06934V7.17236C6.67822 7.31364 6.94059 7.38428 7.46533 7.38428ZM7.91943 12.1675C8.95882 12.1675 9.47852 11.557 9.47852 10.3359C9.47852 8.93327 8.85791 8.23193 7.6167 8.23193C7.30387 8.23193 7.04655 8.25716 6.84473 8.30762C6.73372 8.35807 6.67822 8.40348 6.67822 8.44385V11.8496C6.67822 11.9505 6.71354 12.0212 6.78418 12.0615C6.88509 12.1322 7.26351 12.1675 7.91943 12.1675Z" fill="url(#paint0_linear_410_6744)"/>
</g>
<defs>
<linearGradient id="paint0_linear_410_6744" x1="3" y1="2.5" x2="11.5" y2="13" gradientUnits="userSpaceOnUse">
<stop stop-color="#666666"/>
<stop offset="1"/>
</linearGradient>
<clipPath id="clip0_410_6744">
<rect width="16" height="16" fill="white"/>
</clipPath>
</defs>
</svg>
