<svg width="16" height="16" viewBox="0 0 16 16" fill="none" xmlns="http://www.w3.org/2000/svg">
<g clip-path="url(#clip0_410_6756)">
<path d="M0.0784302 12.0366C0.0458781 12.0041 0.0296021 11.943 0.0296021 11.8535C0.0296021 11.707 0.0377401 11.6338 0.0540161 11.6338C0.11912 11.6338 0.212708 11.6175 0.334778 11.585C0.464986 11.5524 0.587056 11.5117 0.700989 11.4629C0.823059 11.4059 0.90037 11.349 0.932922 11.292C1.0143 11.1699 1.09161 11.0316 1.16486 10.877C1.2381 10.7142 1.31541 10.5352 1.39679 10.3398L3.6673 4.84668C3.86261 4.35026 4.01316 4.05729 4.11896 3.96777C4.17592 3.91081 4.2451 3.88232 4.32648 3.88232C4.38344 3.88232 4.43227 3.90267 4.47296 3.94336L7.03644 10.3398C7.10154 10.4945 7.16258 10.6491 7.21954 10.8037C7.28465 10.9502 7.34568 11.0926 7.40265 11.231C7.4352 11.3123 7.50844 11.3856 7.62238 11.4507C7.73631 11.5076 7.85431 11.5524 7.97638 11.585C8.09845 11.6175 8.19204 11.6338 8.25714 11.6338C8.28969 11.6338 8.30597 11.707 8.30597 11.8535C8.30597 11.943 8.29783 12.0041 8.28156 12.0366L6.74347 11.9634L5.15656 12.0366C5.124 12.0041 5.10773 11.9268 5.10773 11.8047C5.10773 11.6908 5.124 11.6338 5.15656 11.6338C5.25421 11.6338 5.38849 11.6094 5.55939 11.5605C5.73029 11.5117 5.83201 11.4548 5.86456 11.3896C5.88898 11.3408 5.90118 11.2879 5.90118 11.231C5.90118 11.1496 5.88084 11.0397 5.84015 10.9014C5.79946 10.763 5.74249 10.5921 5.66925 10.3887L5.242 9.25342C5.20945 9.22087 5.18097 9.20459 5.15656 9.20459C5.02635 9.19645 4.87172 9.19238 4.69269 9.19238C4.52179 9.18424 4.32648 9.18018 4.10675 9.18018C3.6673 9.18018 3.20343 9.19238 2.71515 9.2168C2.66632 9.2168 2.64191 9.23307 2.64191 9.26562L2.17804 10.4009C2.09666 10.6043 2.03562 10.7752 1.99493 10.9136C1.96238 11.0438 1.94611 11.1374 1.94611 11.1943C1.94611 11.292 1.99087 11.3734 2.08038 11.4385C2.12921 11.471 2.20245 11.5036 2.30011 11.5361C2.4059 11.5605 2.5117 11.585 2.61749 11.6094C2.72329 11.6257 2.79653 11.6338 2.83722 11.6338C2.86163 11.6419 2.87384 11.6989 2.87384 11.8047C2.87384 11.8617 2.86977 11.9105 2.86163 11.9512C2.86163 11.9837 2.85756 12.0122 2.84943 12.0366C2.54832 12.0203 2.30011 12.0041 2.1048 11.9878C1.91762 11.9715 1.74266 11.9634 1.5799 11.9634C1.41713 11.9634 1.22182 11.9674 0.993958 11.9756C0.766093 11.9837 0.460917 12.0041 0.0784302 12.0366ZM3.88702 8.521C4.17999 8.521 4.51365 8.50879 4.888 8.48438L4.91241 8.43555L3.98468 5.99414L2.9837 8.43555C2.9837 8.4681 2.99184 8.48438 3.00812 8.48438C3.29295 8.50879 3.58592 8.521 3.88702 8.521ZM11.8455 12.1221C11.7641 12.1221 11.699 12.0814 11.6502 12L9.13556 5.75C8.95652 5.27799 8.8019 4.91585 8.67169 4.66357C8.61473 4.55778 8.48859 4.4764 8.29327 4.41943C8.09796 4.35433 7.94334 4.32178 7.82941 4.32178C7.79685 4.32178 7.78058 4.26074 7.78058 4.13867C7.78058 4.02474 7.79279 3.9515 7.8172 3.91895L8.48859 3.95557C8.87921 3.97998 9.18439 3.99219 9.40411 3.99219C9.51805 3.99219 10.0755 3.96777 11.0765 3.91895C11.1009 3.9515 11.1131 4.02474 11.1131 4.13867C11.1131 4.26074 11.0968 4.32178 11.0643 4.32178C10.9015 4.32178 10.7347 4.3584 10.5638 4.43164C10.3929 4.50488 10.3074 4.61068 10.3074 4.74902C10.3074 4.91178 10.6167 5.74593 11.2352 7.25146C11.3328 7.50374 11.4142 7.70312 11.4793 7.84961C11.6258 8.2321 11.7682 8.58203 11.9066 8.89941C12.0449 9.20866 12.1588 9.44873 12.2484 9.61963C12.3379 9.79053 12.3826 9.8597 12.3826 9.82715L14.1649 5.61572C14.3276 5.2251 14.409 4.94434 14.409 4.77344C14.409 4.62695 14.3113 4.51709 14.116 4.44385C13.9289 4.36247 13.7376 4.32178 13.5423 4.32178C13.5097 4.32178 13.4935 4.26481 13.4935 4.15088C13.5016 4.02881 13.5138 3.9515 13.5301 3.91895C13.6033 3.91895 13.7986 3.93115 14.116 3.95557C14.4334 3.97998 14.6898 3.99219 14.8851 3.99219C15.0967 3.99219 15.3408 3.97998 15.6175 3.95557L16.2156 3.91895C16.2319 3.96777 16.2401 4.02881 16.2401 4.10205C16.2401 4.2404 16.2319 4.30957 16.2156 4.30957C16.1098 4.30957 15.9674 4.34212 15.7884 4.40723C15.6175 4.46419 15.4832 4.54964 15.3856 4.66357C15.2716 4.84261 15.0967 5.20068 14.8607 5.73779L12.3216 11.6826C12.1995 11.9756 12.0408 12.1221 11.8455 12.1221Z" fill="url(#paint0_linear_410_6756)"/>
<path d="M6.5 4.5L9.5 11.5" stroke="url(#paint1_linear_410_6756)" stroke-linecap="round"/>
</g>
<defs>
<linearGradient id="paint0_linear_410_6756" x1="16.7" y1="12" x2="8.27851" y2="-1.39382" gradientUnits="userSpaceOnUse">
<stop stop-color="#2B2B2B"/>
<stop offset="1" stop-color="#777777"/>
</linearGradient>
<linearGradient id="paint1_linear_410_6756" x1="6.5" y1="4.5" x2="9.5" y2="11.5" gradientUnits="userSpaceOnUse">
<stop stop-color="#9DC3ED"/>
<stop offset="1" stop-color="#6896DE"/>
</linearGradient>
<clipPath id="clip0_410_6756">
<rect width="16" height="16" fill="white"/>
</clipPath>
</defs>
</svg>
