<svg width="16" height="16" viewBox="0 0 16 16" fill="none" xmlns="http://www.w3.org/2000/svg">
<path d="M5 3.5C5 3.22386 5.22386 3 5.5 3H13.5C13.7761 3 14 3.22386 14 3.5C14 3.77614 13.7761 4 13.5 4H5.5C5.22386 4 5 3.77614 5 3.5Z" fill="url(#paint0_linear_410_6695)"/>
<path d="M5 8.5C5 8.22386 5.22386 8 5.5 8H13.5C13.7761 8 14 8.22386 14 8.5C14 8.77614 13.7761 9 13.5 9H5.5C5.22386 9 5 8.77614 5 8.5Z" fill="url(#paint1_linear_410_6695)"/>
<path d="M5 13.5C5 13.2239 5.22386 13 5.5 13H13.5C13.7761 13 14 13.2239 14 13.5C14 13.7761 13.7761 14 13.5 14H5.5C5.22386 14 5 13.7761 5 13.5Z" fill="url(#paint2_linear_410_6695)"/>
<path d="M3.11 4.4H3.755V5H1.505V4.4H2.34V2.31L1.625 2.76L1.29 2.215L2.41 1.535H3.11V4.4Z" fill="url(#paint3_linear_410_6695)"/>
<path d="M2.38 6.445C3.17 6.445 3.575 6.91 3.575 7.44C3.575 8 3.23 8.455 2.175 9.395H3.655L3.57 10H1.27V9.44C2.405 8.335 2.77 7.925 2.77 7.51C2.77 7.23 2.605 7.055 2.305 7.055C2.045 7.055 1.865 7.16 1.68 7.405L1.2 7.04C1.46 6.68 1.82 6.445 2.38 6.445Z" fill="url(#paint4_linear_410_6695)"/>
<path d="M2.36 11.445C3.105 11.445 3.54 11.85 3.54 12.335C3.54 12.775 3.26 13.04 2.83 13.165C3.31 13.23 3.65 13.465 3.65 14.025C3.65 14.61 3.14 15.085 2.31 15.085C1.795 15.085 1.38 14.895 1.09 14.565L1.535 14.15C1.735 14.38 1.985 14.48 2.255 14.48C2.6 14.48 2.84 14.3 2.84 13.97C2.84 13.605 2.625 13.45 2.255 13.45H1.94L2.03 12.91H2.25C2.56 12.91 2.775 12.755 2.775 12.455C2.775 12.195 2.57 12.035 2.27 12.035C1.995 12.035 1.775 12.15 1.58 12.335L1.175 11.915C1.49 11.61 1.885 11.445 2.36 11.445Z" fill="url(#paint5_linear_410_6695)"/>
<defs>
<linearGradient id="paint0_linear_410_6695" x1="5" y1="3" x2="16.2477" y2="10.729" gradientUnits="userSpaceOnUse">
<stop stop-color="#767676"/>
<stop offset="1" stop-color="#0F0F0F"/>
</linearGradient>
<linearGradient id="paint1_linear_410_6695" x1="5" y1="3" x2="16.2477" y2="10.729" gradientUnits="userSpaceOnUse">
<stop stop-color="#767676"/>
<stop offset="1" stop-color="#0F0F0F"/>
</linearGradient>
<linearGradient id="paint2_linear_410_6695" x1="5" y1="3" x2="16.2477" y2="10.729" gradientUnits="userSpaceOnUse">
<stop stop-color="#767676"/>
<stop offset="1" stop-color="#0F0F0F"/>
</linearGradient>
<linearGradient id="paint3_linear_410_6695" x1="2.5" y1="0.75" x2="2.5" y2="5.25" gradientUnits="userSpaceOnUse">
<stop stop-color="#A2C3EE"/>
<stop offset="1" stop-color="#73A3E3"/>
</linearGradient>
<linearGradient id="paint4_linear_410_6695" x1="2.5" y1="5.75" x2="2.5" y2="10.25" gradientUnits="userSpaceOnUse">
<stop stop-color="#A2C3EE"/>
<stop offset="1" stop-color="#73A3E3"/>
</linearGradient>
<linearGradient id="paint5_linear_410_6695" x1="2.5" y1="10.75" x2="2.5" y2="15.25" gradientUnits="userSpaceOnUse">
<stop stop-color="#A2C3EE"/>
<stop offset="1" stop-color="#73A3E3"/>
</linearGradient>
</defs>
</svg>
