<svg width="16" height="16" viewBox="0 0 16 16" fill="none" xmlns="http://www.w3.org/2000/svg">
<path d="M4.20312 12.0469C4.17188 12.0156 4.15625 11.9531 4.15625 11.8594C4.15625 11.6953 4.16797 11.6133 4.19141 11.6133C4.25391 11.6133 4.34375 11.5977 4.46094 11.5664C4.57812 11.5352 4.6875 11.4961 4.78906 11.4492C4.89062 11.4023 4.94922 11.3594 4.96484 11.3203C4.99609 11.2109 5.01562 11.082 5.02344 10.9336C5.03906 10.7852 5.04688 10.6133 5.04688 10.418V6.17578C5.04688 5.56641 5.01562 5.20703 4.95312 5.09766L4.89453 4.99219C4.86328 4.96094 4.76172 4.9375 4.58984 4.92188C4.41797 4.89844 4.21875 4.88672 3.99219 4.88672C3.67188 4.88672 3.41016 4.97656 3.20703 5.15625C3.00391 5.32812 2.84766 5.62109 2.73828 6.03516C2.72266 6.07422 2.68359 6.09375 2.62109 6.09375C2.44922 6.09375 2.33594 6.06641 2.28125 6.01172L2.50391 4.10156C2.67578 4.14062 2.82812 4.17188 2.96094 4.19531C3.09375 4.21875 3.21094 4.23047 3.3125 4.23047C3.71094 4.23047 4.13672 4.24219 4.58984 4.26562C5.05078 4.28906 5.48047 4.30078 5.87891 4.30078C6.27734 4.30078 6.70703 4.28906 7.16797 4.26562C7.62891 4.24219 8.05859 4.23047 8.45703 4.23047C8.55859 4.23047 8.67578 4.21875 8.80859 4.19531C8.94141 4.17188 9.09375 4.14062 9.26562 4.10156L9.48828 6.02344C9.43359 6.07812 9.32031 6.10547 9.14844 6.10547C9.08594 6.10547 9.04688 6.08594 9.03125 6.04688C8.83594 5.27344 8.41797 4.88672 7.77734 4.88672C7.15234 4.88672 6.82031 4.95703 6.78125 5.09766C6.75 5.20703 6.72656 5.34766 6.71094 5.51953C6.69531 5.69141 6.6875 5.89844 6.6875 6.14062V10.3711C6.6875 10.5664 6.69531 10.7422 6.71094 10.8984C6.72656 11.0547 6.75 11.1953 6.78125 11.3203C6.79688 11.3516 6.85156 11.3906 6.94531 11.4375C7.04688 11.4844 7.15234 11.5273 7.26172 11.5664C7.37891 11.5977 7.46094 11.6133 7.50781 11.6133C7.53906 11.6133 7.55469 11.6875 7.55469 11.8359C7.55469 11.9141 7.54688 11.9844 7.53125 12.0469C7.5 12.0469 7.42578 12.043 7.30859 12.0352C7.19141 12.0273 7.03125 12.0156 6.82812 12C6.625 11.9844 6.44531 11.9727 6.28906 11.9648C6.13281 11.957 6.00391 11.9531 5.90234 11.9531C5.76172 11.9531 5.57031 11.9609 5.32812 11.9766C5.08594 11.9922 4.85547 12.0039 4.63672 12.0117C4.42578 12.0273 4.28125 12.0391 4.20312 12.0469ZM9.46172 12.0312C9.44089 12.0104 9.43047 11.9688 9.43047 11.9062C9.43047 11.7969 9.43828 11.7422 9.45391 11.7422C9.49557 11.7422 9.55547 11.7318 9.63359 11.7109C9.71172 11.6901 9.78464 11.6641 9.85234 11.6328C9.92005 11.6016 9.95911 11.5729 9.96953 11.5469C9.99036 11.474 10.0034 11.388 10.0086 11.2891C10.019 11.1901 10.0242 11.0755 10.0242 10.9453V8.11719C10.0242 7.71094 10.0034 7.47135 9.96172 7.39844L9.92266 7.32812C9.90182 7.30729 9.83411 7.29167 9.71953 7.28125C9.60495 7.26562 9.47214 7.25781 9.32109 7.25781C9.10755 7.25781 8.93307 7.31771 8.79766 7.4375C8.66224 7.55208 8.55807 7.7474 8.48516 8.02344C8.47474 8.04948 8.4487 8.0625 8.40703 8.0625C8.29245 8.0625 8.21693 8.04427 8.18047 8.00781L8.32891 6.73438C8.44349 6.76042 8.54505 6.78125 8.63359 6.79688C8.72214 6.8125 8.80026 6.82031 8.86797 6.82031C9.13359 6.82031 9.41745 6.82812 9.71953 6.84375C10.0268 6.85938 10.3133 6.86719 10.5789 6.86719C10.8445 6.86719 11.131 6.85938 11.4383 6.84375C11.7456 6.82812 12.032 6.82031 12.2977 6.82031C12.3654 6.82031 12.4435 6.8125 12.532 6.79688C12.6206 6.78125 12.7221 6.76042 12.8367 6.73438L12.9852 8.01562C12.9487 8.05208 12.8732 8.07031 12.7586 8.07031C12.7169 8.07031 12.6909 8.05729 12.6805 8.03125C12.5503 7.51562 12.2716 7.25781 11.8445 7.25781C11.4279 7.25781 11.2065 7.30469 11.1805 7.39844C11.1596 7.47135 11.144 7.5651 11.1336 7.67969C11.1232 7.79427 11.118 7.93229 11.118 8.09375V10.9141C11.118 11.0443 11.1232 11.1615 11.1336 11.2656C11.144 11.3698 11.1596 11.4635 11.1805 11.5469C11.1909 11.5677 11.2273 11.5938 11.2898 11.625C11.3576 11.6562 11.4279 11.6849 11.5008 11.7109C11.5789 11.7318 11.6336 11.7422 11.6648 11.7422C11.6857 11.7422 11.6961 11.7917 11.6961 11.8906C11.6961 11.9427 11.6909 11.9896 11.6805 12.0312C11.6596 12.0312 11.6102 12.0286 11.532 12.0234C11.4539 12.0182 11.3471 12.0104 11.2117 12C11.0763 11.9896 10.9565 11.9818 10.8523 11.9766C10.7482 11.9714 10.6622 11.9688 10.5945 11.9688C10.5008 11.9688 10.3732 11.974 10.2117 11.9844C10.0503 11.9948 9.89661 12.0026 9.75078 12.0078C9.61016 12.0182 9.5138 12.026 9.46172 12.0312Z" fill="url(#paint0_linear_410_6765)"/>
<defs>
<linearGradient id="paint0_linear_410_6765" x1="13" y1="12" x2="4.65405" y2="1.82338" gradientUnits="userSpaceOnUse">
<stop stop-color="#2B2B2B"/>
<stop offset="1" stop-color="#777777"/>
</linearGradient>
</defs>
</svg>
