<svg width="16" height="16" viewBox="0 0 16 16" fill="none" xmlns="http://www.w3.org/2000/svg">
<path d="M7 13.5C7 13.2239 6.77614 13 6.5 13H2.5C2.22386 13 2 13.2239 2 13.5C2 13.7761 2.22386 14 2.5 14H6.5C6.77614 14 7 13.7761 7 13.5Z" fill="url(#paint0_linear_410_6663)"/>
<path d="M7 9.5C7 9.22386 6.77614 9 6.5 9H2.5C2.22386 9 2 9.22386 2 9.5C2 9.77614 2.22386 10 2.5 10H6.5C6.77614 10 7 9.77614 7 9.5Z" fill="url(#paint1_linear_410_6663)"/>
<path d="M7 5.5C7 5.22386 6.77614 5 6.5 5H2.5C2.22386 5 2 5.22386 2 5.5C2 5.77614 2.22386 6 2.5 6H6.5C6.77614 6 7 5.77614 7 5.5Z" fill="url(#paint2_linear_410_6663)"/>
<path d="M7 3.5C7 3.22386 6.77614 3 6.5 3H2.5C2.22386 3 2 3.22386 2 3.5C2 3.77614 2.22386 4 2.5 4H6.5C6.77614 4 7 3.77614 7 3.5Z" fill="url(#paint3_linear_410_6663)"/>
<path d="M7 7.5C7 7.22386 6.77614 7 6.5 7H2.5C2.22386 7 2 7.22386 2 7.5C2 7.77614 2.22386 8 2.5 8H6.5C6.77614 8 7 7.77614 7 7.5Z" fill="url(#paint4_linear_410_6663)"/>
<path d="M7 11.5C7 11.2239 6.77614 11 6.5 11H2.5C2.22386 11 2 11.2239 2 11.5C2 11.7761 2.22386 12 2.5 12H6.5C6.77614 12 7 11.7761 7 11.5Z" fill="url(#paint5_linear_410_6663)"/>
<path d="M14 13.5C14 13.2239 13.7761 13 13.5 13H9.5C9.22386 13 9 13.2239 9 13.5C9 13.7761 9.22386 14 9.5 14H13.5C13.7761 14 14 13.7761 14 13.5Z" fill="url(#paint6_linear_410_6663)"/>
<path d="M14 9.5C14 9.22386 13.7761 9 13.5 9H9.5C9.22386 9 9 9.22386 9 9.5C9 9.77614 9.22386 10 9.5 10H13.5C13.7761 10 14 9.77614 14 9.5Z" fill="url(#paint7_linear_410_6663)"/>
<path d="M14 5.5C14 5.22386 13.7761 5 13.5 5H9.5C9.22386 5 9 5.22386 9 5.5C9 5.77614 9.22386 6 9.5 6H13.5C13.7761 6 14 5.77614 14 5.5Z" fill="url(#paint8_linear_410_6663)"/>
<path d="M14 3.5C14 3.22386 13.7761 3 13.5 3H9.5C9.22386 3 9 3.22386 9 3.5C9 3.77614 9.22386 4 9.5 4H13.5C13.7761 4 14 3.77614 14 3.5Z" fill="url(#paint9_linear_410_6663)"/>
<path d="M14 7.5C14 7.22386 13.7761 7 13.5 7H9.5C9.22386 7 9 7.22386 9 7.5C9 7.77614 9.22386 8 9.5 8H13.5C13.7761 8 14 7.77614 14 7.5Z" fill="url(#paint10_linear_410_6663)"/>
<path d="M14 11.5C14 11.2239 13.7761 11 13.5 11H9.5C9.22386 11 9 11.2239 9 11.5C9 11.7761 9.22386 12 9.5 12H13.5C13.7761 12 14 11.7761 14 11.5Z" fill="url(#paint11_linear_410_6663)"/>
<defs>
<linearGradient id="paint0_linear_410_6663" x1="14" y1="13.9638" x2="2" y2="3.03622" gradientUnits="userSpaceOnUse">
<stop stop-color="#0F0F0F"/>
<stop offset="1" stop-color="#767676"/>
</linearGradient>
<linearGradient id="paint1_linear_410_6663" x1="14" y1="13.9638" x2="2" y2="3.03622" gradientUnits="userSpaceOnUse">
<stop stop-color="#0F0F0F"/>
<stop offset="1" stop-color="#767676"/>
</linearGradient>
<linearGradient id="paint2_linear_410_6663" x1="14" y1="13.9638" x2="2" y2="3.03622" gradientUnits="userSpaceOnUse">
<stop stop-color="#0F0F0F"/>
<stop offset="1" stop-color="#767676"/>
</linearGradient>
<linearGradient id="paint3_linear_410_6663" x1="14" y1="13.9638" x2="2" y2="3.03622" gradientUnits="userSpaceOnUse">
<stop stop-color="#0F0F0F"/>
<stop offset="1" stop-color="#767676"/>
</linearGradient>
<linearGradient id="paint4_linear_410_6663" x1="14" y1="13.9638" x2="2" y2="3.03622" gradientUnits="userSpaceOnUse">
<stop stop-color="#0F0F0F"/>
<stop offset="1" stop-color="#767676"/>
</linearGradient>
<linearGradient id="paint5_linear_410_6663" x1="14" y1="13.9638" x2="2" y2="3.03622" gradientUnits="userSpaceOnUse">
<stop stop-color="#0F0F0F"/>
<stop offset="1" stop-color="#767676"/>
</linearGradient>
<linearGradient id="paint6_linear_410_6663" x1="14" y1="13.9638" x2="2" y2="3.03622" gradientUnits="userSpaceOnUse">
<stop stop-color="#0F0F0F"/>
<stop offset="1" stop-color="#767676"/>
</linearGradient>
<linearGradient id="paint7_linear_410_6663" x1="14" y1="13.9638" x2="2" y2="3.03622" gradientUnits="userSpaceOnUse">
<stop stop-color="#0F0F0F"/>
<stop offset="1" stop-color="#767676"/>
</linearGradient>
<linearGradient id="paint8_linear_410_6663" x1="14" y1="13.9638" x2="2" y2="3.03622" gradientUnits="userSpaceOnUse">
<stop stop-color="#0F0F0F"/>
<stop offset="1" stop-color="#767676"/>
</linearGradient>
<linearGradient id="paint9_linear_410_6663" x1="14" y1="13.9638" x2="2" y2="3.03622" gradientUnits="userSpaceOnUse">
<stop stop-color="#0F0F0F"/>
<stop offset="1" stop-color="#767676"/>
</linearGradient>
<linearGradient id="paint10_linear_410_6663" x1="14" y1="13.9638" x2="2" y2="3.03622" gradientUnits="userSpaceOnUse">
<stop stop-color="#0F0F0F"/>
<stop offset="1" stop-color="#767676"/>
</linearGradient>
<linearGradient id="paint11_linear_410_6663" x1="14" y1="13.9638" x2="2" y2="3.03622" gradientUnits="userSpaceOnUse">
<stop stop-color="#0F0F0F"/>
<stop offset="1" stop-color="#767676"/>
</linearGradient>
</defs>
</svg>
