<svg width="16" height="16" viewBox="0 0 16 16" fill="none" xmlns="http://www.w3.org/2000/svg">
<path d="M4.99958 5.46698C7.02373 5.46698 4.10725 3.59514 4.58595 1.48383C5.22444 -1.33218 6.94109 2.54698 9.43969 4.98811C10.2774 5.80658 12.5 6.99604 14.5 7.49608V13.5C12.0223 13.5 11 14.5 6 14.5C5 14.5 4.04193 13.4768 4.58597 12.6714C3.59411 12.6261 3.13915 11.5238 3.69373 10.6907C2.24535 10.0456 2.24462 9.20912 2.87198 8.55359C1.7629 8.41216 1.26719 7.90055 1.60417 7.03412C1.94634 6.15434 3.59899 5.46698 4.99958 5.46698Z" fill="url(#paint0_linear_670_21287)"/>
<path d="M14.5 13.5C14.5 12.5 14.5 8.49604 14.5 7.49608M14.5 13.5C12.0223 13.5 11 14.5 6 14.5C5 14.5 4.04193 13.4768 4.58597 12.6714M14.5 13.5V7.49608M5.7397 12.1598C5.7397 12.1598 5.15187 12.1055 4.58597 12.6714M2.92365 8.55986C2.90628 8.55786 2.88906 8.55576 2.87198 8.55359M14.5 7.49608C12.5 6.99604 10.2774 5.80658 9.43969 4.98811C6.94109 2.54698 5.22444 -1.33218 4.58595 1.48383C4.10725 3.59514 7.02373 5.46698 4.99958 5.46698C3.59899 5.46698 1.94634 6.15434 1.60417 7.03412C1.26719 7.90055 1.7629 8.41216 2.87198 8.55359M5.7397 9.66776C5.7397 9.66776 4.2483 9.85765 3.69373 10.6907M4.58597 12.6714C3.59411 12.6261 3.13915 11.5238 3.69373 10.6907M5.45658 7.49608C4.48243 7.53166 3.42934 7.9712 2.87198 8.55359M3.69373 10.6907C2.24535 10.0456 2.24462 9.20912 2.87198 8.55359" stroke="url(#paint1_linear_670_21287)" stroke-linecap="round"/>
<defs>
<linearGradient id="paint0_linear_670_21287" x1="5.8259" y1="4.94655" x2="14.3014" y2="14.0247" gradientUnits="userSpaceOnUse">
<stop stop-color="#FFEDEF"/>
<stop offset="1" stop-color="#FFD4D7"/>
</linearGradient>
<linearGradient id="paint1_linear_670_21287" x1="1.5" y1="1.13229" x2="14.2255" y2="14.1075" gradientUnits="userSpaceOnUse">
<stop stop-color="#FFD3E2" stop-opacity="0.87451"/>
<stop offset="1" stop-color="#FF7175" stop-opacity="0.968627"/>
</linearGradient>
</defs>
</svg>
