<svg width="16" height="16" viewBox="0 0 16 16" fill="none" xmlns="http://www.w3.org/2000/svg">
<g clip-path="url(#clip0_446_8884)">
<circle cx="7" cy="8" r="6.5" fill="url(#paint0_linear_446_8884)" stroke="url(#paint1_linear_446_8884)"/>
<circle cx="7" cy="8" r="4.5" fill="url(#paint2_linear_446_8884)" stroke="url(#paint3_linear_446_8884)"/>
<path d="M7 6V8L10 6" stroke="#777F81" stroke-linecap="round" stroke-linejoin="round"/>
<g filter="url(#filter0_i_446_8884)">
<path d="M10 9H6V14H10V16H11L16 11.5L11 7H10V9Z" fill="#80B361"/>
</g>
<path d="M10 9.5C10.2761 9.5 10.5 9.27614 10.5 9V7.5H10.8081L15.2526 11.5L10.8081 15.5H10.5V14C10.5 13.7239 10.2761 13.5 10 13.5H6.5V9.5H10Z" stroke="url(#paint4_linear_446_8884)" stroke-linejoin="round"/>
<path d="M7.5 12.5V10.5H10C10.7149 10.5 11.2659 10.0257 11.4412 9.41686L13.7531 11.5L11.4413 13.5831C11.263 12.9643 10.6975 12.5 10.0049 12.5H7.5Z" stroke="white" stroke-opacity="0.2" stroke-linejoin="round"/>
</g>
<defs>
<filter id="filter0_i_446_8884" x="6" y="7" width="12" height="11" filterUnits="userSpaceOnUse" color-interpolation-filters="sRGB">
<feFlood flood-opacity="0" result="BackgroundImageFix"/>
<feBlend mode="normal" in="SourceGraphic" in2="BackgroundImageFix" result="shape"/>
<feColorMatrix in="SourceAlpha" type="matrix" values="0 0 0 0 0 0 0 0 0 0 0 0 0 0 0 0 0 0 127 0" result="hardAlpha"/>
<feOffset dx="2" dy="2"/>
<feGaussianBlur stdDeviation="1"/>
<feComposite in2="hardAlpha" operator="arithmetic" k2="-1" k3="1"/>
<feColorMatrix type="matrix" values="0 0 0 0 1 0 0 0 0 1 0 0 0 0 1 0 0 0 0.25 0"/>
<feBlend mode="normal" in2="shape" result="effect1_innerShadow_446_8884"/>
</filter>
<linearGradient id="paint0_linear_446_8884" x1="7" y1="1" x2="7" y2="15" gradientUnits="userSpaceOnUse">
<stop stop-color="#F1F1EE"/>
<stop offset="1" stop-color="#DED5A0"/>
</linearGradient>
<linearGradient id="paint1_linear_446_8884" x1="7" y1="1" x2="7" y2="15" gradientUnits="userSpaceOnUse">
<stop stop-color="#D1B97E"/>
<stop offset="1" stop-color="#9B7953"/>
</linearGradient>
<linearGradient id="paint2_linear_446_8884" x1="7" y1="3" x2="7" y2="13" gradientUnits="userSpaceOnUse">
<stop stop-color="white"/>
<stop offset="0.5" stop-color="#E9F6FD"/>
<stop offset="1" stop-color="white"/>
</linearGradient>
<linearGradient id="paint3_linear_446_8884" x1="7" y1="3" x2="7" y2="13" gradientUnits="userSpaceOnUse">
<stop stop-color="#96ADD5"/>
<stop offset="1" stop-color="#7390C4"/>
</linearGradient>
<linearGradient id="paint4_linear_446_8884" x1="14.5714" y1="14.7143" x2="8.17837" y2="7.61089" gradientUnits="userSpaceOnUse">
<stop stop-color="#247C10"/>
<stop offset="1" stop-color="#6FA53D"/>
</linearGradient>
<clipPath id="clip0_446_8884">
<rect width="16" height="16" fill="white"/>
</clipPath>
</defs>
</svg>
