<svg width="16" height="16" viewBox="0 0 16 16" fill="none" xmlns="http://www.w3.org/2000/svg">
<path d="M1.65343 9.41035C1.55297 8.95626 1.5 8.48431 1.5 8C1.5 4.41015 4.41015 1.5 8 1.5C11.5899 1.5 14.5 4.41015 14.5 8C14.5 8.48431 14.447 8.95626 14.3466 9.41035" stroke="url(#paint0_linear_495_8600)" stroke-width="3" stroke-linecap="round"/>
<path d="M1.65343 9.41035C1.55297 8.95626 1.5 8.48431 1.5 8C1.5 4.41015 4.41015 1.5 8 1.5C11.5899 1.5 14.5 4.41015 14.5 8C14.5 8.48431 14.447 8.95626 14.3466 9.41035" stroke="url(#paint1_linear_495_8600)" stroke-linecap="round"/>
<path d="M5.07081 8.65093C5.02445 8.44135 5 8.22353 5 8C5 6.34315 6.34315 5 8 5C9.65685 5 11 6.34315 11 8C11 8.22353 10.9756 8.44135 10.9292 8.65093" stroke="url(#paint2_linear_495_8600)" stroke-width="2" stroke-linecap="round"/>
<path d="M4 15L7.26295 8.94024C7.40895 8.66909 7.69204 8.5 8 8.5C8.30796 8.5 8.59105 8.66909 8.73705 8.94024L12 15L10.4603 13.1523C9.85181 12.4222 8.95046 12 8 12C7.04954 12 6.14819 12.4222 5.53972 13.1523L4 15Z" fill="url(#paint3_linear_495_8600)" stroke="url(#paint4_linear_495_8600)" stroke-linecap="round" stroke-linejoin="round"/>
<path d="M6.5 11.5C6.5 11.2239 6.72386 11 7 11H9C9.27614 11 9.5 11.2239 9.5 11.5C9.5 11.7761 9.27614 12 9 12H7C6.72386 12 6.5 11.7761 6.5 11.5Z" fill="url(#paint5_linear_495_8600)"/>
<path d="M7.5 9.5C7.5 9.22386 7.72386 9 8 9C8.27614 9 8.5 9.22386 8.5 9.5C8.5 9.77614 8.27614 10 8 10C7.72386 10 7.5 9.77614 7.5 9.5Z" fill="url(#paint6_linear_495_8600)"/>
<defs>
<linearGradient id="paint0_linear_495_8600" x1="4" y1="-2.79088e-07" x2="13" y2="10" gradientUnits="userSpaceOnUse">
<stop stop-color="#AECAEE"/>
<stop offset="1" stop-color="#377AD5"/>
</linearGradient>
<linearGradient id="paint1_linear_495_8600" x1="4" y1="3" x2="14" y2="9" gradientUnits="userSpaceOnUse">
<stop stop-color="#B4CDF0"/>
<stop offset="1" stop-color="#7AA7E3"/>
</linearGradient>
<linearGradient id="paint2_linear_495_8600" x1="6.17454" y1="5" x2="11" y2="9" gradientUnits="userSpaceOnUse">
<stop stop-color="#8FB5E8"/>
<stop offset="1" stop-color="#4384D7"/>
</linearGradient>
<linearGradient id="paint3_linear_495_8600" x1="12" y1="15" x2="7.5" y2="8.5" gradientUnits="userSpaceOnUse">
<stop stop-color="#606060"/>
<stop offset="1" stop-color="#C4C4C4"/>
</linearGradient>
<linearGradient id="paint4_linear_495_8600" x1="12" y1="15" x2="7.5" y2="8.5" gradientUnits="userSpaceOnUse">
<stop stop-color="#606060"/>
<stop offset="1" stop-color="#C4C4C4"/>
</linearGradient>
<linearGradient id="paint5_linear_495_8600" x1="7" y1="10" x2="9" y2="11" gradientUnits="userSpaceOnUse">
<stop stop-color="#FFE9CB"/>
<stop offset="1" stop-color="#FFD0B9"/>
</linearGradient>
<linearGradient id="paint6_linear_495_8600" x1="7" y1="10" x2="9" y2="11" gradientUnits="userSpaceOnUse">
<stop stop-color="#FFE9CB"/>
<stop offset="1" stop-color="#FFD0B9"/>
</linearGradient>
</defs>
</svg>
