<svg width="16" height="16" viewBox="0 0 16 16" fill="none" xmlns="http://www.w3.org/2000/svg">
<path d="M1.65343 9.41035C1.55297 8.95626 1.5 8.48431 1.5 8C1.5 4.41015 4.41015 1.5 8 1.5C11.5899 1.5 14.5 4.41015 14.5 8C14.5 8.48431 14.447 8.95626 14.3466 9.41035" stroke="url(#paint0_linear_495_8601)" stroke-width="3" stroke-linecap="round"/>
<path d="M1.65343 9.41035C1.55297 8.95626 1.5 8.48431 1.5 8C1.5 4.41015 4.41015 1.5 8 1.5C11.5899 1.5 14.5 4.41015 14.5 8C14.5 8.48431 14.447 8.95626 14.3466 9.41035" stroke="url(#paint1_linear_495_8601)" stroke-linecap="round"/>
<path d="M5.07081 8.65093C5.02445 8.44135 5 8.22353 5 8C5 6.34315 6.34315 5 8 5C9.65685 5 11 6.34315 11 8C11 8.22353 10.9756 8.44135 10.9292 8.65093" stroke="url(#paint2_linear_495_8601)" stroke-width="2" stroke-linecap="round"/>
<path d="M4 15L7.26295 8.94024C7.40895 8.66909 7.69204 8.5 8 8.5C8.30796 8.5 8.59105 8.66909 8.73705 8.94024L12 15L10.4603 13.1523C9.85181 12.4222 8.95046 12 8 12C7.04954 12 6.14819 12.4222 5.53972 13.1523L4 15Z" fill="url(#paint3_linear_495_8601)" stroke="url(#paint4_linear_495_8601)" stroke-linecap="round" stroke-linejoin="round"/>
<path d="M6.5 11.5C6.5 11.2239 6.72386 11 7 11H9C9.27614 11 9.5 11.2239 9.5 11.5C9.5 11.7761 9.27614 12 9 12H7C6.72386 12 6.5 11.7761 6.5 11.5Z" fill="url(#paint5_linear_495_8601)"/>
<path d="M7.5 9.5C7.5 9.22386 7.72386 9 8 9C8.27614 9 8.5 9.22386 8.5 9.5C8.5 9.77614 8.27614 10 8 10C7.72386 10 7.5 9.77614 7.5 9.5Z" fill="url(#paint6_linear_495_8601)"/>
<path d="M4.54043 14.803C4.45989 14.991 4.50188 15.209 4.64645 15.3536C4.79102 15.4981 5.00904 15.5401 5.19696 15.4596L8.69696 13.9596C8.84946 13.8942 8.9596 13.7575 8.99098 13.5946C9.02235 13.4316 8.97087 13.2638 8.85355 13.1464L6.85355 11.1464C6.73624 11.0291 6.56836 10.9776 6.40545 11.009C6.24253 11.0404 6.10578 11.1505 6.04043 11.303L4.54043 14.803Z" fill="url(#paint7_linear_495_8601)"/>
<path d="M4.54043 14.803C4.45989 14.991 4.50188 15.209 4.64645 15.3536C4.79102 15.4981 5.00904 15.5401 5.19696 15.4596L8.69696 13.9596C8.84946 13.8942 8.9596 13.7575 8.99098 13.5946C9.02235 13.4316 8.97087 13.2638 8.85355 13.1464L6.85355 11.1464C6.73624 11.0291 6.56836 10.9776 6.40545 11.009C6.24253 11.0404 6.10578 11.1505 6.04043 11.303L4.54043 14.803Z" fill="url(#paint8_linear_495_8601)"/>
<path d="M4.54043 14.803C4.45989 14.991 4.50188 15.209 4.64645 15.3536C4.79102 15.4981 5.00904 15.5401 5.19696 15.4596L8.69696 13.9596C8.84946 13.8942 8.9596 13.7575 8.99098 13.5946C9.02235 13.4316 8.97087 13.2638 8.85355 13.1464L6.85355 11.1464C6.73624 11.0291 6.56836 10.9776 6.40545 11.009C6.24253 11.0404 6.10578 11.1505 6.04043 11.303L4.54043 14.803Z" stroke="url(#paint9_linear_495_8601)" stroke-linejoin="round"/>
<path d="M4.54043 14.803C4.45989 14.991 4.50188 15.209 4.64645 15.3536C4.79102 15.4981 5.00904 15.5401 5.19696 15.4596L8.69696 13.9596C8.84946 13.8942 8.9596 13.7575 8.99098 13.5946C9.02235 13.4316 8.97087 13.2638 8.85355 13.1464L6.85355 11.1464C6.73624 11.0291 6.56836 10.9776 6.40545 11.009C6.24253 11.0404 6.10578 11.1505 6.04043 11.303L4.54043 14.803Z" stroke="url(#paint10_linear_495_8601)" stroke-linejoin="round"/>
<path d="M6.14645 11.1464C5.95118 11.3417 5.95118 11.6583 6.14645 11.8536L8.14645 13.8536C8.34171 14.0488 8.65829 14.0488 8.85355 13.8536L14.8536 7.85355C15.0488 7.65829 15.0488 7.34171 14.8536 7.14645L12.8536 5.14645C12.6583 4.95118 12.3417 4.95118 12.1464 5.14645L6.14645 11.1464Z" fill="url(#paint11_linear_495_8601)" stroke="url(#paint12_linear_495_8601)" stroke-linejoin="round"/>
<path fill-rule="evenodd" clip-rule="evenodd" d="M6.5 11.5L7.20711 12.2071L13.2071 6.20711L12.5 5.5L6.5 11.5Z" fill="#FCF4B3"/>
<path d="M14.1464 7.85356L14.5 8.20712L14.8536 7.85356C15.0768 7.63032 15.3397 7.23926 15.4185 6.75535C15.5023 6.24043 15.3688 5.66169 14.8536 5.14646C14.3383 4.63123 13.7596 4.49768 13.2447 4.58151C12.7607 4.66028 12.3697 4.92321 12.1464 5.14646L11.7929 5.50001L12.1464 5.85356L14.1464 7.85356Z" fill="url(#paint13_linear_495_8601)" stroke="url(#paint14_linear_495_8601)"/>
<defs>
<linearGradient id="paint0_linear_495_8601" x1="4.04483" y1="1.5" x2="11.9552" y2="9.41035" gradientUnits="userSpaceOnUse">
<stop stop-color="#FFBD97"/>
<stop offset="1" stop-color="#FF7A24"/>
</linearGradient>
<linearGradient id="paint1_linear_495_8601" x1="4.04483" y1="1.5" x2="11.9552" y2="9.41035" gradientUnits="userSpaceOnUse">
<stop stop-color="#FFCEAC"/>
<stop offset="1" stop-color="#FFA66A"/>
</linearGradient>
<linearGradient id="paint2_linear_495_8601" x1="6.17454" y1="5" x2="11" y2="9" gradientUnits="userSpaceOnUse">
<stop stop-color="#FFB583"/>
<stop offset="1" stop-color="#FF7F2D"/>
</linearGradient>
<linearGradient id="paint3_linear_495_8601" x1="12" y1="15" x2="7.5" y2="8.5" gradientUnits="userSpaceOnUse">
<stop stop-color="#606060"/>
<stop offset="1" stop-color="#C4C4C4"/>
</linearGradient>
<linearGradient id="paint4_linear_495_8601" x1="12" y1="15" x2="7.5" y2="8.5" gradientUnits="userSpaceOnUse">
<stop stop-color="#606060"/>
<stop offset="1" stop-color="#C4C4C4"/>
</linearGradient>
<linearGradient id="paint5_linear_495_8601" x1="7" y1="10" x2="9" y2="11" gradientUnits="userSpaceOnUse">
<stop stop-color="#FFE9CB"/>
<stop offset="1" stop-color="#FFD0B9"/>
</linearGradient>
<linearGradient id="paint6_linear_495_8601" x1="7" y1="10" x2="9" y2="11" gradientUnits="userSpaceOnUse">
<stop stop-color="#FFE9CB"/>
<stop offset="1" stop-color="#FFD0B9"/>
</linearGradient>
<linearGradient id="paint7_linear_495_8601" x1="6.16667" y1="11.8889" x2="8.11111" y2="13.8333" gradientUnits="userSpaceOnUse">
<stop stop-color="#FAE7D1"/>
<stop offset="1" stop-color="#E89840"/>
</linearGradient>
<linearGradient id="paint8_linear_495_8601" x1="6.94444" y1="12.6667" x2="3.83333" y2="15.7778" gradientUnits="userSpaceOnUse">
<stop stop-color="#584013" stop-opacity="0"/>
<stop offset="0.499937" stop-color="#584013" stop-opacity="0"/>
<stop offset="0.661921" stop-color="#584013"/>
</linearGradient>
<linearGradient id="paint9_linear_495_8601" x1="6.16667" y1="12.6667" x2="7.33333" y2="13.8333" gradientUnits="userSpaceOnUse">
<stop stop-color="#B98926"/>
<stop offset="1" stop-color="#AA6016"/>
</linearGradient>
<linearGradient id="paint10_linear_495_8601" x1="7.72222" y1="11.8889" x2="3.83333" y2="15.7778" gradientUnits="userSpaceOnUse">
<stop offset="0.5" stop-color="#B98926" stop-opacity="0"/>
<stop offset="0.656842" stop-color="#584013"/>
</linearGradient>
<linearGradient id="paint11_linear_495_8601" x1="6.5" y1="11.6579" x2="8.34211" y2="13.5" gradientUnits="userSpaceOnUse">
<stop stop-color="#F5DC60"/>
<stop offset="1" stop-color="#EFCB1A"/>
</linearGradient>
<linearGradient id="paint12_linear_495_8601" x1="6.5" y1="11.6579" x2="8.3421" y2="13.5" gradientUnits="userSpaceOnUse">
<stop stop-color="#E9C755"/>
<stop offset="1" stop-color="#D98F3B"/>
</linearGradient>
<linearGradient id="paint13_linear_495_8601" x1="12.4766" y1="6.30195" x2="14.8903" y2="6.69267" gradientUnits="userSpaceOnUse">
<stop stop-color="#FDD7D1"/>
<stop offset="1" stop-color="#FBACA1"/>
</linearGradient>
<linearGradient id="paint14_linear_495_8601" x1="12.5" y1="6.31509" x2="14.8693" y2="6.72938" gradientUnits="userSpaceOnUse">
<stop stop-color="#E1B3AD"/>
<stop offset="1" stop-color="#B17971"/>
</linearGradient>
</defs>
</svg>
