<svg width="16" height="16" viewBox="0 0 16 16" fill="none" xmlns="http://www.w3.org/2000/svg">
<path d="M10.5 3C10.5 0.699172 9.31427 3.43788e-05 8 0C6 0 5.5 1 5.5 2.5V5C5.5 6 4.8125 6.75 4 8C3.1875 9.25 3 10.5 3 11C3 12.5 3 13 4 14C5 15 7 15 8 15C9 15 11 15 12 14C13 13 13.5 11.5 13.5 10.5C13.5 9.5 13.0149 7.98491 12 7C10.7951 5.83063 10.5 5.30082 10.5 3Z" fill="url(#paint0_linear_389_6264)"/>
<path d="M9.00344 4C9.00344 3 8.50343 2.5 7.50343 2.5C6.90537 2.5 6.50344 2.89366 6.50344 3.5C6.50344 4.10634 6.00344 6 6.00344 6C6.00344 6 4.88436 8.26667 4.50341 9C4.12246 9.73333 4.00341 10.4062 4.00341 11C4.00341 12.1 3.88494 12.8599 4.50343 13.5C5.12191 14.1401 9.18109 14.379 10.0034 13C10.8258 11.621 11.0034 11.3125 11.0034 10.5C11.0034 9.6875 10.4609 8.52819 10.0034 8C9.00344 6.84533 9.00344 6 9.00344 4Z" fill="url(#paint1_linear_389_6264)"/>
<path d="M6.37963 1.0129C6.62166 0.730525 7.07524 0.500002 7.99999 0.5H8C8.57332 0.500017 9.05151 0.651746 9.38866 0.990113C9.72535 1.32803 10 1.93098 10 3C10 4.15689 10.0714 4.94742 10.3333 5.6085C10.5999 6.28122 11.044 6.769 11.6518 7.3588C12.5579 8.23815 13 9.61789 13 10.5C13 11.3763 12.5465 12.7463 11.6464 13.6464C11.2573 14.0356 10.6331 14.2626 9.9178 14.3818C9.21397 14.4991 8.50288 14.5 8 14.5C7.49712 14.5 6.78603 14.4991 6.0822 14.3818C5.36688 14.2626 4.74271 14.0356 4.35355 13.6464C3.88334 13.1762 3.69795 12.8728 3.60576 12.5501C3.50424 12.1948 3.5 11.7749 3.5 11C3.5 10.5855 3.66524 9.43246 4.41922 8.27249C4.56662 8.04572 4.71941 7.82238 4.86745 7.60597C5.09812 7.26877 5.31728 6.94841 5.48658 6.65818C5.78187 6.15197 6 5.6248 6 5V2.5C6 1.78581 6.12334 1.3119 6.37963 1.0129Z" stroke="url(#paint2_linear_389_6264)"/>
<g filter="url(#filter0_d_389_6264)">
<path d="M9.5 4H6C5.72386 4 5.49658 4.22791 5.57554 4.49252C5.81765 5.30393 6.58284 6 7 6C8.03568 6 9.57568 5.61173 9.92691 4.49302C10.0096 4.22956 9.77614 4 9.5 4Z" fill="#FCDD2F"/>
</g>
<path d="M1.51047 14.2506C1.5408 14.5414 1.70719 14.7551 1.8821 14.8984C2.05425 15.0395 2.26611 15.1402 2.47607 15.2148C2.89817 15.3646 3.42418 15.447 3.9264 15.481C4.43215 15.5153 4.94914 15.5029 5.36416 15.4455C5.56933 15.4171 5.77005 15.375 5.93818 15.3122C6.02215 15.2809 6.11472 15.2383 6.19969 15.1781C6.28158 15.1201 6.39034 15.0218 6.45152 14.8682C6.54862 14.6243 6.47745 14.3783 6.43066 14.2475C6.37338 14.0875 6.28361 13.9194 6.18202 13.7574C5.97697 13.4302 5.68304 13.0632 5.36239 12.7275C5.0426 12.3927 4.67724 12.0691 4.32262 11.841C4.14565 11.7271 3.95609 11.6271 3.76461 11.5656C3.578 11.5056 3.34459 11.4679 3.1085 11.5375C2.5132 11.7132 2.09617 12.2096 1.84731 12.6935C1.59611 13.1819 1.45973 13.7641 1.51047 14.2506Z" fill="url(#paint3_linear_389_6264)" stroke="url(#paint4_linear_389_6264)"/>
<path d="M14.4895 14.2506C14.4592 14.5414 14.2928 14.7551 14.1179 14.8984C13.9457 15.0395 13.7339 15.1402 13.5239 15.2148C13.1018 15.3646 12.5758 15.447 12.0736 15.481C11.5678 15.5153 11.0509 15.5029 10.6358 15.4455C10.4307 15.4171 10.23 15.375 10.0618 15.3122C9.97785 15.2809 9.88528 15.2383 9.80031 15.1781C9.71842 15.1201 9.60966 15.0218 9.54848 14.8682C9.45138 14.6243 9.52255 14.3783 9.56934 14.2475C9.62662 14.0875 9.71639 13.9194 9.81798 13.7574C10.023 13.4302 10.317 13.0632 10.6376 12.7275C10.9574 12.3927 11.3228 12.0691 11.6774 11.841C11.8544 11.7271 12.0439 11.6271 12.2354 11.5656C12.422 11.5056 12.6554 11.4679 12.8915 11.5375C13.4868 11.7132 13.9038 12.2096 14.1527 12.6935C14.4039 13.1819 14.5403 13.7641 14.4895 14.2506Z" fill="url(#paint5_linear_389_6264)" stroke="url(#paint6_linear_389_6264)"/>
<defs>
<filter id="filter0_d_389_6264" x="5.55969" y="4" width="4.38409" height="3" filterUnits="userSpaceOnUse" color-interpolation-filters="sRGB">
<feFlood flood-opacity="0" result="BackgroundImageFix"/>
<feColorMatrix in="SourceAlpha" type="matrix" values="0 0 0 0 0 0 0 0 0 0 0 0 0 0 0 0 0 0 127 0" result="hardAlpha"/>
<feOffset dy="1"/>
<feComposite in2="hardAlpha" operator="out"/>
<feColorMatrix type="matrix" values="0 0 0 0 0 0 0 0 0 0 0 0 0 0 0 0 0 0 0.1 0"/>
<feBlend mode="normal" in2="BackgroundImageFix" result="effect1_dropShadow_389_6264"/>
<feBlend mode="normal" in="SourceGraphic" in2="effect1_dropShadow_389_6264" result="shape"/>
</filter>
<linearGradient id="paint0_linear_389_6264" x1="13.5" y1="7.5" x2="3" y2="7.5" gradientUnits="userSpaceOnUse">
<stop stop-color="#242424"/>
<stop offset="1" stop-color="#565657" stop-opacity="0.988235"/>
</linearGradient>
<linearGradient id="paint1_linear_389_6264" x1="12" y1="8.5" x2="4.00003" y2="8.5" gradientUnits="userSpaceOnUse">
<stop offset="0.505" stop-color="white"/>
<stop offset="1" stop-color="#F2F2F2"/>
</linearGradient>
<linearGradient id="paint2_linear_389_6264" x1="13.5" y1="7.5" x2="3" y2="7.5" gradientUnits="userSpaceOnUse">
<stop stop-color="#242424"/>
<stop offset="1" stop-color="#565657"/>
</linearGradient>
<linearGradient id="paint3_linear_389_6264" x1="5.60128" y1="13.4032" x2="1.99847" y2="13.4032" gradientUnits="userSpaceOnUse">
<stop stop-color="#FEC72D"/>
<stop offset="1" stop-color="#F8C72D"/>
</linearGradient>
<linearGradient id="paint4_linear_389_6264" x1="5.60128" y1="13.4032" x2="1.99847" y2="13.4032" gradientUnits="userSpaceOnUse">
<stop stop-color="#D19425"/>
<stop offset="1" stop-color="#DDAB2D" stop-opacity="0.86"/>
</linearGradient>
<linearGradient id="paint5_linear_389_6264" x1="10.1861" y1="14.101" x2="13.926" y2="14.101" gradientUnits="userSpaceOnUse">
<stop stop-color="#FFBE2A"/>
<stop offset="1" stop-color="#FEBC29"/>
</linearGradient>
<linearGradient id="paint6_linear_389_6264" x1="10.1861" y1="14.101" x2="13.926" y2="14.101" gradientUnits="userSpaceOnUse">
<stop stop-color="#B97D28" stop-opacity="0.968627"/>
<stop offset="1" stop-color="#F5B429" stop-opacity="0.92549"/>
</linearGradient>
</defs>
</svg>
