<svg width="16" height="16" viewBox="0 0 16 16" fill="none" xmlns="http://www.w3.org/2000/svg">
<g clip-path="url(#clip0_323_10259)">
<path d="M0.489878 12.4426C0.35307 12.0667 1.30117 11.2605 1.5574 10.9898L3.01012 12.0574C2.91051 12.271 2.31848 13.3733 1.9426 13.5101C1.47275 13.6811 0.660888 12.9124 0.489878 12.4426Z" fill="#EFBC83" stroke="#CE7C28" stroke-opacity="0.988235"/>
<path d="M13.5101 12.4426C13.6469 12.0667 12.6988 11.2605 12.4426 10.9899L10.9899 12.0574C11.0895 12.271 11.6815 13.3733 12.0574 13.5101C12.5272 13.6812 13.3391 12.9125 13.5101 12.4426Z" fill="#EFBC83" stroke="#CE7C28" stroke-opacity="0.988235"/>
<path d="M10 14.5C10.2761 14.5 10.5 14.2761 10.5 14V12.309L12.2236 11.4472C12.3674 11.3753 12.4678 11.2387 12.4935 11.0801C12.5193 10.9214 12.4672 10.7601 12.3536 10.6464L9.35355 7.64645C9.25979 7.55268 9.13261 7.5 9 7.5H5C4.86739 7.5 4.74021 7.55268 4.64645 7.64645L1.64645 10.6464C1.5328 10.7601 1.48071 10.9214 1.50646 11.0801C1.5322 11.2387 1.63264 11.3753 1.77639 11.4472L3.5 12.309V14C3.5 14.2761 3.72386 14.5 4 14.5H10Z" fill="url(#paint0_linear_323_10259)" stroke="#375ACE" stroke-linejoin="round"/>
<path d="M8.79289 8.5L11.1559 10.863L9.77639 11.5528L9.5 11.691V12V13.5H4.5V12V11.691L4.22361 11.5528L2.84408 10.863L5.20711 8.5H8.79289Z" stroke="url(#paint1_linear_323_10259)"/>
<path d="M3.50002 12.5L4.50002 11.5" stroke="#375ACE" stroke-linecap="round"/>
<path d="M10.5 12.5L9.5 11.5" stroke="#375ACE" stroke-linecap="round"/>
<g filter="url(#filter0_i_323_10259)">
<path d="M10 9H6V14H10V16H11L16 11.5L11 7H10V9Z" fill="#80B361"/>
</g>
<path d="M10 9.5C10.2761 9.5 10.5 9.27614 10.5 9V7.5H10.8081L15.2526 11.5L10.8081 15.5H10.5V14C10.5 13.7239 10.2761 13.5 10 13.5H6.5V9.5H10Z" stroke="url(#paint2_linear_323_10259)" stroke-linejoin="round"/>
<path d="M7.5 12.5V10.5H10C10.7149 10.5 11.2659 10.0257 11.4412 9.41686L13.7531 11.5L11.4413 13.5831C11.263 12.9643 10.6975 12.5 10.0049 12.5H7.5Z" stroke="white" stroke-opacity="0.2" stroke-linejoin="round"/>
<circle cx="8" cy="5" r="3.5" fill="#F6D0A8" stroke="#A87B4D"/>
<mask id="path-11-inside-1_323_10259" fill="white">
<path fill-rule="evenodd" clip-rule="evenodd" d="M4.09622 5.87601C4.65239 5.18128 5.87049 4 7 4C7.75 4 8.125 4.375 8.5 4.75C8.875 5.125 9.25 5.5 10 5.5C10.6889 5.5 11.4108 5.33521 11.9953 5.19483C11.9984 5.13028 12 5.06532 12 5C12 2.79086 10.2091 1 8 1C5.79086 1 4 2.79086 4 5C4 5.30092 4.03323 5.59408 4.09622 5.87601Z"/>
</mask>
<path fill-rule="evenodd" clip-rule="evenodd" d="M4.09622 5.87601C4.65239 5.18128 5.87049 4 7 4C7.75 4 8.125 4.375 8.5 4.75C8.875 5.125 9.25 5.5 10 5.5C10.6889 5.5 11.4108 5.33521 11.9953 5.19483C11.9984 5.13028 12 5.06532 12 5C12 2.79086 10.2091 1 8 1C5.79086 1 4 2.79086 4 5C4 5.30092 4.03323 5.59408 4.09622 5.87601Z" fill="url(#paint3_linear_323_10259)"/>
<path d="M4.09622 5.87601L3.12028 6.09406L3.57463 8.12764L4.87687 6.50097L4.09622 5.87601ZM11.9953 5.19483L12.2288 6.16719L12.9583 5.99203L12.9942 5.24274L11.9953 5.19483ZM7 3C6.11334 3 5.31206 3.44805 4.73737 3.8743C4.13823 4.3187 3.63443 4.85275 3.31556 5.25105L4.87687 6.50097C5.11419 6.20454 5.49752 5.80059 5.92885 5.48066C6.38463 5.14259 6.75715 5 7 5V3ZM9.20711 4.04289C8.8216 3.65739 8.18968 3 7 3V5C7.1899 5 7.29383 5.04249 7.37613 5.09187C7.48812 5.15906 7.59226 5.25647 7.79289 5.45711L9.20711 4.04289ZM10 4.5C9.8101 4.5 9.70617 4.45751 9.62387 4.40813C9.51188 4.34094 9.40774 4.24353 9.20711 4.04289L7.79289 5.45711C8.1784 5.84261 8.81032 6.5 10 6.5V4.5ZM11.7618 4.22248C11.1683 4.365 10.5548 4.5 10 4.5V6.5C10.8231 6.5 11.6533 6.30541 12.2288 6.16719L11.7618 4.22248ZM11 5C11 5.04931 10.9988 5.0983 10.9965 5.14693L12.9942 5.24274C12.998 5.16226 13 5.08133 13 5H11ZM8 2C9.65685 2 11 3.34315 11 5H13C13 2.23858 10.7614 0 8 0V2ZM5 5C5 3.34315 6.34315 2 8 2V0C5.23858 0 3 2.23858 3 5H5ZM5.07216 5.65797C5.02505 5.44714 5 5.22709 5 5H3C3 5.37475 3.0414 5.74102 3.12028 6.09406L5.07216 5.65797Z" fill="url(#paint4_linear_323_10259)" mask="url(#path-11-inside-1_323_10259)"/>
</g>
<defs>
<filter id="filter0_i_323_10259" x="6" y="7" width="12" height="11" filterUnits="userSpaceOnUse" color-interpolation-filters="sRGB">
<feFlood flood-opacity="0" result="BackgroundImageFix"/>
<feBlend mode="normal" in="SourceGraphic" in2="BackgroundImageFix" result="shape"/>
<feColorMatrix in="SourceAlpha" type="matrix" values="0 0 0 0 0 0 0 0 0 0 0 0 0 0 0 0 0 0 127 0" result="hardAlpha"/>
<feOffset dx="2" dy="2"/>
<feGaussianBlur stdDeviation="1"/>
<feComposite in2="hardAlpha" operator="arithmetic" k2="-1" k3="1"/>
<feColorMatrix type="matrix" values="0 0 0 0 1 0 0 0 0 1 0 0 0 0 1 0 0 0 0.25 0"/>
<feBlend mode="normal" in2="shape" result="effect1_innerShadow_323_10259"/>
</filter>
<linearGradient id="paint0_linear_323_10259" x1="11" y1="13" x2="3" y2="9" gradientUnits="userSpaceOnUse">
<stop stop-color="#438DFF"/>
<stop offset="0.488845" stop-color="#5DACFE"/>
<stop offset="1" stop-color="#72D4FF"/>
</linearGradient>
<linearGradient id="paint1_linear_323_10259" x1="7" y1="8" x2="7" y2="14" gradientUnits="userSpaceOnUse">
<stop stop-color="white" stop-opacity="0.66"/>
<stop offset="1" stop-color="white" stop-opacity="0.33"/>
</linearGradient>
<linearGradient id="paint2_linear_323_10259" x1="14.5714" y1="14.7143" x2="8.17837" y2="7.61089" gradientUnits="userSpaceOnUse">
<stop stop-color="#247C10"/>
<stop offset="1" stop-color="#6FA53D"/>
</linearGradient>
<linearGradient id="paint3_linear_323_10259" x1="12" y1="3.43801" x2="4" y2="3.43801" gradientUnits="userSpaceOnUse">
<stop stop-color="#754112"/>
<stop offset="1" stop-color="#9F5812"/>
</linearGradient>
<linearGradient id="paint4_linear_323_10259" x1="12" y1="3.43801" x2="4" y2="3.43801" gradientUnits="userSpaceOnUse">
<stop stop-color="#5C320E"/>
<stop offset="1" stop-color="#974B0F"/>
</linearGradient>
<clipPath id="clip0_323_10259">
<rect width="16" height="16" fill="white"/>
</clipPath>
</defs>
</svg>
