<svg width="16" height="16" viewBox="0 0 16 16" fill="none" xmlns="http://www.w3.org/2000/svg">
<path d="M1.48988 12.4426C1.35307 12.0667 2.30117 11.2605 2.5574 10.9898L4.01012 12.0574C3.91051 12.271 3.31848 13.3733 2.9426 13.5101C2.47275 13.6811 1.66089 12.9124 1.48988 12.4426Z" fill="#EFBC83" stroke="#CE7C28" stroke-opacity="0.988235"/>
<path d="M14.5101 12.4426C14.6469 12.0667 13.6988 11.2605 13.4426 10.9899L11.9899 12.0574C12.0895 12.271 12.6815 13.3733 13.0574 13.5101C13.5272 13.6812 14.3391 12.9125 14.5101 12.4426Z" fill="#EFBC83" stroke="#CE7C28" stroke-opacity="0.988235"/>
<path d="M11 14.5C11.2761 14.5 11.5 14.2761 11.5 14V12.309L13.2236 11.4472C13.3674 11.3753 13.4678 11.2387 13.4935 11.0801C13.5193 10.9214 13.4672 10.7601 13.3536 10.6464L10.3536 7.64645C10.2598 7.55268 10.1326 7.5 10 7.5H6C5.86739 7.5 5.74021 7.55268 5.64645 7.64645L2.64645 10.6464C2.5328 10.7601 2.48071 10.9214 2.50646 11.0801C2.5322 11.2387 2.63264 11.3753 2.77639 11.4472L4.5 12.309V14C4.5 14.2761 4.72386 14.5 5 14.5H11Z" fill="url(#paint0_linear_323_10308)" stroke="#CE6387" stroke-linejoin="round"/>
<path d="M9.79289 8.5L12.1559 10.863L10.7764 11.5528L10.5 11.691V12V13.5H5.5V12V11.691L5.22361 11.5528L3.84408 10.863L6.20711 8.5H9.79289Z" stroke="url(#paint1_linear_323_10308)"/>
<path fill-rule="evenodd" clip-rule="evenodd" d="M4.96972 11.251C4.83219 11.0115 4.52658 10.9289 4.28712 11.0664C4.04766 11.204 3.96503 11.5096 4.10256 11.749C4.34377 12.169 5.09406 13 6.25913 13C7.01824 13 7.60127 12.6472 7.98213 12.2852C8.36298 12.6472 8.94601 13 9.70512 13C10.8702 13 11.6205 12.169 11.8617 11.749C11.9992 11.5096 11.9166 11.204 11.6771 11.0664C11.4377 10.9289 11.1321 11.0115 10.9945 11.251C10.8529 11.4977 10.3779 12 9.70512 12C9.03775 12 8.56505 11.5058 8.41919 11.257C8.39645 11.216 8.36778 11.1779 8.33357 11.1442C8.29102 11.1021 8.24181 11.0687 8.1887 11.0447C8.12213 11.0144 8.05174 10.9999 7.98213 10.9999C7.91252 10.9999 7.84212 11.0144 7.77556 11.0446C7.72244 11.0687 7.67323 11.1021 7.63068 11.1442C7.59647 11.1779 7.5678 11.216 7.54506 11.257C7.3992 11.5058 6.9265 12 6.25913 12C5.58635 12 5.1114 11.4977 4.96972 11.251Z" fill="#CE6387"/>
<circle cx="8.00002" cy="5" r="4" fill="#F6D0A8"/>
<circle cx="8.00002" cy="5" r="3.5" stroke="#98612D" stroke-opacity="0.8"/>
<mask id="path-8-inside-1_323_10308" fill="white">
<path d="M12 5C12 6.19469 12 8 11 10C11 6 11 4 8 4C5 4 5 6 5 10C4 8 4 6.19469 4 5C4 2.79086 5.79086 1 8 1C10.2091 1 12 2.79086 12 5Z"/>
</mask>
<path d="M12 5C12 6.19469 12 8 11 10C11 6 11 4 8 4C5 4 5 6 5 10C4 8 4 6.19469 4 5C4 2.79086 5.79086 1 8 1C10.2091 1 12 2.79086 12 5Z" fill="url(#paint2_linear_323_10308)"/>
<path d="M5 10L4.10557 10.4472L6 10H5ZM11 10H10L11.8944 10.4472L11 10ZM5 5C5 3.34315 6.34315 2 8 2V0C5.23858 0 3 2.23858 3 5H5ZM8 2C9.65685 2 11 3.34315 11 5H13C13 2.23858 10.7614 0 8 0V2ZM8 3C7.15115 3 6.38907 3.13945 5.75582 3.51471C5.09846 3.90426 4.68844 4.48283 4.43867 5.14888C4.19886 5.78836 4.09769 6.53075 4.04882 7.31262C3.99959 8.10034 4 9.00974 4 10H6C6 8.99026 6.00041 8.14966 6.04493 7.43738C6.08981 6.71925 6.17613 6.21164 6.31133 5.85112C6.43656 5.51717 6.58904 5.34574 6.77543 5.23529C6.98593 5.11055 7.34885 5 8 5V3ZM5.89443 9.55279C5.00686 7.77765 5 6.17843 5 5H3C3 6.21096 2.99314 8.22235 4.10557 10.4472L5.89443 9.55279ZM11 5C11 6.17843 10.9931 7.77765 10.1056 9.55279L11.8944 10.4472C13.0069 8.22235 13 6.21096 13 5H11ZM12 10C12 9.00974 12.0004 8.10034 11.9512 7.31262C11.9023 6.53075 11.8011 5.78836 11.5613 5.14888C11.3116 4.48283 10.9015 3.90426 10.2442 3.51471C9.61094 3.13945 8.84885 3 8 3V5C8.65116 5 9.01407 5.11055 9.22457 5.23529C9.41096 5.34574 9.56344 5.51717 9.68867 5.85112C9.82386 6.21164 9.91019 6.71925 9.95507 7.43738C9.99959 8.14966 10 8.99026 10 10H12Z" fill="url(#paint3_linear_323_10308)" mask="url(#path-8-inside-1_323_10308)"/>
<defs>
<linearGradient id="paint0_linear_323_10308" x1="12" y1="13" x2="4" y2="9" gradientUnits="userSpaceOnUse">
<stop stop-color="#FB7BA6"/>
<stop offset="0.488845" stop-color="#FB7DA7"/>
<stop offset="1" stop-color="#FC8CC1"/>
</linearGradient>
<linearGradient id="paint1_linear_323_10308" x1="8" y1="8" x2="8" y2="14" gradientUnits="userSpaceOnUse">
<stop stop-color="white" stop-opacity="0.66"/>
<stop offset="0.904905" stop-color="white" stop-opacity="0"/>
</linearGradient>
<linearGradient id="paint2_linear_323_10308" x1="12" y1="5.5" x2="4" y2="5.5" gradientUnits="userSpaceOnUse">
<stop stop-color="#754112"/>
<stop offset="1" stop-color="#9F5812"/>
</linearGradient>
<linearGradient id="paint3_linear_323_10308" x1="12" y1="5.5" x2="4" y2="5.5" gradientUnits="userSpaceOnUse">
<stop stop-color="#5C320E"/>
<stop offset="1" stop-color="#974B0F"/>
</linearGradient>
</defs>
</svg>
