<svg width="16" height="16" viewBox="0 0 16 16" fill="none" xmlns="http://www.w3.org/2000/svg">
<path d="M1.48988 12.4426C1.35307 12.0667 2.30117 11.2605 2.5574 10.9898L4.01012 12.0574C3.91051 12.271 3.31848 13.3733 2.9426 13.5101C2.47275 13.6811 1.66089 12.9124 1.48988 12.4426Z" fill="#EFBC83" stroke="#CE7C28" stroke-opacity="0.988235"/>
<path d="M14.5101 12.4426C14.6469 12.0667 13.6988 11.2605 13.4426 10.9899L11.9899 12.0574C12.0895 12.271 12.6815 13.3733 13.0574 13.5101C13.5272 13.6812 14.3391 12.9125 14.5101 12.4426Z" fill="#EFBC83" stroke="#CE7C28" stroke-opacity="0.988235"/>
<path d="M11 14.5C11.2761 14.5 11.5 14.2761 11.5 14V12.309L13.2236 11.4472C13.3674 11.3753 13.4678 11.2387 13.4935 11.0801C13.5193 10.9214 13.4672 10.7601 13.3536 10.6464L10.3536 7.64645C10.2598 7.55268 10.1326 7.5 10 7.5H6C5.86739 7.5 5.74021 7.55268 5.64645 7.64645L2.64645 10.6464C2.5328 10.7601 2.48071 10.9214 2.50646 11.0801C2.5322 11.2387 2.63264 11.3753 2.77639 11.4472L4.5 12.309V14C4.5 14.2761 4.72386 14.5 5 14.5H11Z" fill="url(#paint0_linear_323_10374)" stroke="#D48106" stroke-linejoin="round"/>
<path d="M9.79289 8.5L12.1559 10.863L10.7764 11.5528L10.5 11.691V12V13.5H5.5V12V11.691L5.22361 11.5528L3.84408 10.863L6.20711 8.5H9.79289Z" stroke="url(#paint1_linear_323_10374)"/>
<path d="M4.5 12.5L5.5 11.5" stroke="#D48106" stroke-linecap="round"/>
<path d="M11.5 12.5L10.5 11.5" stroke="#D48106" stroke-linecap="round"/>
<circle cx="8" cy="5" r="4" fill="#F6D0A8"/>
<circle cx="8" cy="5" r="3.5" stroke="#98612D" stroke-opacity="0.8"/>
<mask id="path-9-inside-1_323_10374" fill="white">
<path fill-rule="evenodd" clip-rule="evenodd" d="M4.09622 5.87601C4.65239 5.18128 5.87049 4 7 4C7.75 4 8.125 4.375 8.5 4.75C8.875 5.125 9.25 5.5 10 5.5C10.6889 5.5 11.4108 5.33521 11.9953 5.19483C11.9984 5.13028 12 5.06532 12 5C12 2.79086 10.2091 1 8 1C5.79086 1 4 2.79086 4 5C4 5.30092 4.03323 5.59408 4.09622 5.87601Z"/>
</mask>
<path fill-rule="evenodd" clip-rule="evenodd" d="M4.09622 5.87601C4.65239 5.18128 5.87049 4 7 4C7.75 4 8.125 4.375 8.5 4.75C8.875 5.125 9.25 5.5 10 5.5C10.6889 5.5 11.4108 5.33521 11.9953 5.19483C11.9984 5.13028 12 5.06532 12 5C12 2.79086 10.2091 1 8 1C5.79086 1 4 2.79086 4 5C4 5.30092 4.03323 5.59408 4.09622 5.87601Z" fill="url(#paint2_linear_323_10374)"/>
<path d="M4.09622 5.87601L3.12028 6.09406L3.57463 8.12764L4.87687 6.50097L4.09622 5.87601ZM11.9953 5.19483L12.2288 6.16719L12.9583 5.99203L12.9942 5.24274L11.9953 5.19483ZM7 3C6.11334 3 5.31206 3.44805 4.73737 3.8743C4.13823 4.3187 3.63443 4.85275 3.31556 5.25105L4.87687 6.50097C5.11419 6.20454 5.49752 5.80059 5.92885 5.48066C6.38463 5.14259 6.75715 5 7 5V3ZM9.20711 4.04289C8.8216 3.65739 8.18968 3 7 3V5C7.1899 5 7.29383 5.04249 7.37613 5.09187C7.48812 5.15906 7.59226 5.25647 7.79289 5.45711L9.20711 4.04289ZM10 4.5C9.8101 4.5 9.70617 4.45751 9.62387 4.40813C9.51188 4.34094 9.40774 4.24353 9.20711 4.04289L7.79289 5.45711C8.1784 5.84261 8.81032 6.5 10 6.5V4.5ZM11.7618 4.22248C11.1683 4.365 10.5548 4.5 10 4.5V6.5C10.8231 6.5 11.6533 6.30541 12.2288 6.16719L11.7618 4.22248ZM11 5C11 5.04931 10.9988 5.0983 10.9965 5.14693L12.9942 5.24274C12.998 5.16226 13 5.08133 13 5H11ZM8 2C9.65685 2 11 3.34315 11 5H13C13 2.23858 10.7614 0 8 0V2ZM5 5C5 3.34315 6.34315 2 8 2V0C5.23858 0 3 2.23858 3 5H5ZM5.07216 5.65797C5.02505 5.44714 5 5.22709 5 5H3C3 5.37475 3.0414 5.74102 3.12028 6.09406L5.07216 5.65797Z" fill="url(#paint3_linear_323_10374)" mask="url(#path-9-inside-1_323_10374)"/>
<defs>
<linearGradient id="paint0_linear_323_10374" x1="12" y1="13" x2="4" y2="9" gradientUnits="userSpaceOnUse">
<stop stop-color="#EC9107"/>
<stop offset="0.488845" stop-color="#FCA41C"/>
<stop offset="1" stop-color="#FFC05C"/>
</linearGradient>
<linearGradient id="paint1_linear_323_10374" x1="8" y1="8" x2="8" y2="14" gradientUnits="userSpaceOnUse">
<stop stop-color="white" stop-opacity="0.66"/>
<stop offset="1" stop-color="white" stop-opacity="0.33"/>
</linearGradient>
<linearGradient id="paint2_linear_323_10374" x1="12" y1="3.43801" x2="4" y2="3.43801" gradientUnits="userSpaceOnUse">
<stop stop-color="#EB8103"/>
<stop offset="1" stop-color="#F09603"/>
</linearGradient>
<linearGradient id="paint3_linear_323_10374" x1="12" y1="3.43801" x2="4" y2="3.43801" gradientUnits="userSpaceOnUse">
<stop stop-color="#D15F04"/>
<stop offset="1" stop-color="#EA6E03"/>
</linearGradient>
</defs>
</svg>
