<svg width="16" height="16" viewBox="0 0 16 16" fill="none" xmlns="http://www.w3.org/2000/svg">
<g clip-path="url(#clip0_323_10137)">
<circle cx="1.5" cy="13.5" r="1" fill="#EAB378" stroke="#CF7D2A"/>
<circle cx="9.5" cy="13.5" r="1" fill="#EAB378" stroke="#CF7D2A"/>
<path d="M7.5 15H3.4L3 13L2 12L4.1 10H6.9L9 12L8 13L7.5 15Z" fill="url(#paint0_linear_323_10137)"/>
<path d="M7.5 15.5C7.72943 15.5 7.92943 15.3439 7.98507 15.1213L8.45148 13.2556L9.35355 12.3536C9.44882 12.2583 9.50161 12.1286 9.49996 11.9939C9.49832 11.8592 9.44238 11.7308 9.34483 11.6379L7.24483 9.63793C7.15186 9.54939 7.02839 9.5 6.9 9.5H4.1C3.97161 9.5 3.84814 9.54939 3.75517 9.63793L1.65517 11.6379C1.55762 11.7308 1.50168 11.8592 1.50004 11.9939C1.49839 12.1286 1.55118 12.2583 1.64645 12.3536L2.5394 13.2465L2.90971 15.0981C2.95645 15.3318 3.16166 15.5 3.4 15.5H7.5Z" stroke="#2E5ABA" stroke-opacity="0.972549" stroke-linejoin="round"/>
<path d="M6.7 10.5L8.28416 12.0087L7.64645 12.6464L7.5394 12.7535L7.50971 12.9019L7.1901 14.5H3.8099L3.49029 12.9019L3.4606 12.7535L3.35355 12.6464L2.71584 12.0087L4.3 10.5H6.7Z" stroke="url(#paint1_linear_323_10137)"/>
<circle cx="5.5" cy="8.5" r="3" fill="#F6D0A8" stroke="#A87B4D"/>
<mask id="path-7-inside-1_323_10137" fill="white">
<path fill-rule="evenodd" clip-rule="evenodd" d="M2.08419 9.26651C2.57084 8.65862 3.63668 7.625 4.625 7.625C5.31782 7.625 5.64841 8.00813 5.96058 8.36991C6.23979 8.6935 6.50426 9 7 9C7.61037 9 8.37702 8.66209 8.99795 8.37912C8.93424 6.50209 7.39254 5 5.5 5C3.567 5 2 6.567 2 8.5C2 8.76331 2.02908 9.01982 2.08419 9.26651Z"/>
</mask>
<path fill-rule="evenodd" clip-rule="evenodd" d="M2.08419 9.26651C2.57084 8.65862 3.63668 7.625 4.625 7.625C5.31782 7.625 5.64841 8.00813 5.96058 8.36991C6.23979 8.6935 6.50426 9 7 9C7.61037 9 8.37702 8.66209 8.99795 8.37912C8.93424 6.50209 7.39254 5 5.5 5C3.567 5 2 6.567 2 8.5C2 8.76331 2.02908 9.01982 2.08419 9.26651Z" fill="url(#paint2_linear_323_10137)"/>
<path d="M2.08419 9.26651L1.10825 9.48456L1.5626 11.5181L2.86485 9.89147L2.08419 9.26651ZM5.96058 8.36991L5.20346 9.02319L5.96058 8.36991ZM8.99795 8.37912L9.41264 9.28908L10.02 9.01229L9.99738 8.3452L8.99795 8.37912ZM4.625 6.625C3.80894 6.625 3.08102 7.03613 2.57074 7.41462C2.036 7.81124 1.58764 8.28667 1.30354 8.64155L2.86485 9.89147C3.0674 9.63846 3.39529 9.29313 3.76221 9.02098C4.15359 8.73068 4.45275 8.625 4.625 8.625V6.625ZM6.71769 7.71663C6.40224 7.35104 5.80662 6.625 4.625 6.625V8.625C4.765 8.625 4.82662 8.65716 4.87491 8.68986C4.95587 8.74467 5.03431 8.82716 5.20346 9.02319L6.71769 7.71663ZM7 8C6.98217 8 6.98223 7.99776 6.99111 8.00079C6.99888 8.00345 6.99721 8.00469 6.98249 7.99411C6.96531 7.98178 6.93625 7.95762 6.88986 7.90965C6.84123 7.85937 6.79094 7.80152 6.71769 7.71663L5.20346 9.02319C5.44941 9.30823 5.99128 10 7 10V8ZM8.58327 7.46915C8.27185 7.61107 7.96358 7.74814 7.66735 7.85088C7.36124 7.95704 7.14048 8 7 8V10C7.46989 10 7.93764 9.874 8.32268 9.74047C8.71761 9.6035 9.10313 9.43013 9.41264 9.28908L8.58327 7.46915ZM5.5 6C6.85161 6 7.95304 7.07294 7.99853 8.41304L9.99738 8.3452C9.91545 5.93125 7.93346 4 5.5 4V6ZM3 8.5C3 7.11929 4.11929 6 5.5 6V4C3.01472 4 1 6.01472 1 8.5H3ZM3.06013 9.04846C3.0209 8.87288 3 8.68948 3 8.5H1C1 8.83714 1.03725 9.16676 1.10825 9.48456L3.06013 9.04846Z" fill="url(#paint3_linear_323_10137)" mask="url(#path-7-inside-1_323_10137)"/>
<mask id="path-9-outside-2_323_10137" maskUnits="userSpaceOnUse" x="4.91669" y="-0.181824" width="12" height="10" fill="black">
<rect fill="white" x="4.91669" y="-0.181824" width="12" height="10"/>
<path fill-rule="evenodd" clip-rule="evenodd" d="M7.91669 0.818176C6.81212 0.818176 5.91669 1.71361 5.91669 2.81818V3.72727C5.91669 4.83184 6.81212 5.72727 7.91669 5.72727L9.58335 5.72727C10.0417 5.72727 10.2341 5.86936 10.5 6.13636C11.1404 6.77938 9.58335 8.18181 9.58335 8.18181C11.1883 7.82367 13.1446 6.52493 13.607 5.65801C14.4576 5.42787 15.0834 4.65064 15.0834 3.72727V2.81818C15.0834 1.71361 14.1879 0.818176 13.0834 0.818176H7.91669Z"/>
</mask>
<path fill-rule="evenodd" clip-rule="evenodd" d="M7.91669 0.818176C6.81212 0.818176 5.91669 1.71361 5.91669 2.81818V3.72727C5.91669 4.83184 6.81212 5.72727 7.91669 5.72727L9.58335 5.72727C10.0417 5.72727 10.2341 5.86936 10.5 6.13636C11.1404 6.77938 9.58335 8.18181 9.58335 8.18181C11.1883 7.82367 13.1446 6.52493 13.607 5.65801C14.4576 5.42787 15.0834 4.65064 15.0834 3.72727V2.81818C15.0834 1.71361 14.1879 0.818176 13.0834 0.818176H7.91669Z" fill="url(#paint4_linear_323_10137)"/>
<path d="M7.91669 5.72727L7.91669 4.72727H7.91669V5.72727ZM9.58335 5.72727L9.58335 6.72727H9.58335V5.72727ZM10.5 6.13636L11.2086 5.43071L11.2086 5.43071L10.5 6.13636ZM9.58335 8.18181L8.9141 7.43878C8.57643 7.74292 8.4863 8.23652 8.69469 8.64037C8.90308 9.04423 9.35759 9.25678 9.80114 9.15781L9.58335 8.18181ZM13.607 5.65801L13.3458 4.69272C13.0794 4.76481 12.8546 4.94384 12.7247 5.18739L13.607 5.65801ZM6.91669 2.81818C6.91669 2.26589 7.3644 1.81818 7.91669 1.81818V-0.181824C6.25983 -0.181824 4.91669 1.16132 4.91669 2.81818H6.91669ZM6.91669 3.72727V2.81818H4.91669V3.72727H6.91669ZM7.91669 4.72727C7.3644 4.72727 6.91669 4.27955 6.91669 3.72727H4.91669C4.91669 5.38412 6.25983 6.72727 7.91669 6.72727V4.72727ZM9.58335 4.72727L7.91669 4.72727L7.91669 6.72727L9.58335 6.72727L9.58335 4.72727ZM9.58335 6.72727C9.64713 6.72727 9.67689 6.7323 9.68466 6.73386C9.68927 6.7348 9.68112 6.73332 9.66881 6.7272C9.65807 6.72186 9.65957 6.72054 9.6784 6.73585C9.7005 6.75381 9.73357 6.78388 9.79146 6.84201L11.2086 5.43071C11.0638 5.28536 10.853 5.08232 10.5589 4.93618C10.246 4.7807 9.92107 4.72727 9.58335 4.72727V6.72727ZM9.79146 6.842C9.62061 6.67045 9.66071 6.4692 9.65727 6.48287C9.6467 6.52479 9.59668 6.63976 9.46931 6.81728C9.35227 6.98042 9.21251 7.13804 9.09551 7.25983C9.03847 7.3192 8.99007 7.36671 8.95709 7.39832C8.94067 7.41405 8.92828 7.42565 8.92078 7.4326C8.91704 7.43607 8.91453 7.43837 8.91338 7.43942C8.9128 7.43995 8.91256 7.44017 8.91268 7.44006C8.91274 7.44001 8.91288 7.43988 8.91312 7.43966C8.91324 7.43956 8.91338 7.43943 8.91354 7.43928C8.91362 7.43921 8.91376 7.43908 8.9138 7.43905C8.91395 7.43891 8.9141 7.43878 9.58335 8.18181C10.2526 8.92485 10.2528 8.9247 10.2529 8.92455C10.253 8.92449 10.2532 8.92433 10.2533 8.92421C10.2536 8.92398 10.2538 8.92373 10.2542 8.92345C10.2548 8.9229 10.2555 8.92225 10.2563 8.92153C10.2579 8.92007 10.2599 8.91826 10.2622 8.91611C10.2669 8.91182 10.2731 8.90617 10.2806 8.89921C10.2956 8.8853 10.316 8.86614 10.3409 8.84228C10.3906 8.79467 10.4588 8.72759 10.5378 8.64544C10.6927 8.48417 10.9022 8.25101 11.0943 7.98316C11.2762 7.72969 11.4954 7.37348 11.5966 6.9716C11.705 6.54146 11.6996 5.92377 11.2086 5.43071L9.79146 6.842ZM9.80114 9.15781C10.7486 8.94639 11.7474 8.47415 12.5622 7.95327C12.9746 7.6897 13.3596 7.40111 13.6825 7.10682C13.9939 6.82308 14.2967 6.48975 14.4894 6.12863L12.7247 5.18739C12.6861 5.25973 12.571 5.41384 12.3354 5.62862C12.1112 5.83287 11.8202 6.0539 11.4851 6.26814C10.8049 6.7029 10.0231 7.0591 9.36557 7.20582L9.80114 9.15781ZM14.0834 3.72727C14.0834 4.18754 13.7715 4.57755 13.3458 4.69272L13.8682 6.6233C15.1437 6.27819 16.0834 5.11374 16.0834 3.72727H14.0834ZM14.0834 2.81818V3.72727H16.0834V2.81818H14.0834ZM13.0834 1.81818C13.6356 1.81818 14.0834 2.26589 14.0834 2.81818H16.0834C16.0834 1.16132 14.7402 -0.181824 13.0834 -0.181824V1.81818ZM7.91669 1.81818H13.0834V-0.181824H7.91669V1.81818Z" fill="#5887B8" mask="url(#path-9-outside-2_323_10137)"/>
<mask id="path-11-inside-3_323_10137" fill="white">
<path fill-rule="evenodd" clip-rule="evenodd" d="M7.91669 0.818176C6.81212 0.818176 5.91669 1.71361 5.91669 2.81818V3.72727C5.91669 4.83184 6.81212 5.72727 7.91669 5.72727L9.58335 5.72727C10.0417 5.72727 10.2341 5.86936 10.5 6.13636C11.1404 6.77938 9.58335 8.18181 9.58335 8.18181C11.1883 7.82367 13.1446 6.52493 13.607 5.65801C14.4576 5.42787 15.0834 4.65064 15.0834 3.72727V2.81818C15.0834 1.71361 14.1879 0.818176 13.0834 0.818176H7.91669Z"/>
</mask>
<path d="M7.91669 5.72727L7.91669 4.72727H7.91669V5.72727ZM9.58335 5.72727L9.58335 6.72727H9.58335V5.72727ZM10.5 6.13636L11.2086 5.43071L11.2086 5.43071L10.5 6.13636ZM9.58335 8.18181L8.9141 7.43878C8.57643 7.74292 8.4863 8.23652 8.69469 8.64037C8.90308 9.04423 9.35759 9.25678 9.80114 9.15781L9.58335 8.18181ZM13.607 5.65801L13.3458 4.69272C13.0794 4.76481 12.8546 4.94384 12.7247 5.18739L13.607 5.65801ZM6.91669 2.81818C6.91669 2.26589 7.3644 1.81818 7.91669 1.81818V-0.181824C6.25983 -0.181824 4.91669 1.16132 4.91669 2.81818H6.91669ZM6.91669 3.72727V2.81818H4.91669V3.72727H6.91669ZM7.91669 4.72727C7.3644 4.72727 6.91669 4.27955 6.91669 3.72727H4.91669C4.91669 5.38412 6.25983 6.72727 7.91669 6.72727V4.72727ZM9.58335 4.72727L7.91669 4.72727L7.91669 6.72727L9.58335 6.72727L9.58335 4.72727ZM9.58335 6.72727C9.64713 6.72727 9.67689 6.7323 9.68466 6.73386C9.68927 6.7348 9.68112 6.73332 9.66881 6.7272C9.65807 6.72186 9.65957 6.72054 9.6784 6.73585C9.7005 6.75381 9.73357 6.78388 9.79146 6.84201L11.2086 5.43071C11.0638 5.28536 10.853 5.08232 10.5589 4.93618C10.246 4.7807 9.92107 4.72727 9.58335 4.72727V6.72727ZM9.79146 6.842C9.62061 6.67045 9.66071 6.4692 9.65727 6.48287C9.6467 6.52479 9.59668 6.63976 9.46931 6.81728C9.35227 6.98042 9.21251 7.13804 9.09551 7.25983C9.03847 7.3192 8.99007 7.36671 8.95709 7.39832C8.94067 7.41405 8.92828 7.42565 8.92078 7.4326C8.91704 7.43607 8.91453 7.43837 8.91338 7.43942C8.9128 7.43995 8.91256 7.44017 8.91268 7.44006C8.91274 7.44001 8.91288 7.43988 8.91312 7.43966C8.91324 7.43956 8.91338 7.43943 8.91354 7.43928C8.91362 7.43921 8.91376 7.43908 8.9138 7.43905C8.91395 7.43891 8.9141 7.43878 9.58335 8.18181C10.2526 8.92485 10.2528 8.9247 10.2529 8.92455C10.253 8.92449 10.2532 8.92433 10.2533 8.92421C10.2536 8.92398 10.2538 8.92373 10.2542 8.92345C10.2548 8.9229 10.2555 8.92225 10.2563 8.92153C10.2579 8.92007 10.2599 8.91826 10.2622 8.91611C10.2669 8.91182 10.2731 8.90617 10.2806 8.89921C10.2956 8.8853 10.316 8.86614 10.3409 8.84228C10.3906 8.79467 10.4588 8.72759 10.5378 8.64544C10.6927 8.48417 10.9022 8.25101 11.0943 7.98316C11.2762 7.72969 11.4954 7.37348 11.5966 6.9716C11.705 6.54146 11.6996 5.92377 11.2086 5.43071L9.79146 6.842ZM9.80114 9.15781C10.7486 8.94639 11.7474 8.47415 12.5622 7.95327C12.9746 7.6897 13.3596 7.40111 13.6825 7.10682C13.9939 6.82308 14.2967 6.48975 14.4894 6.12863L12.7247 5.18739C12.6861 5.25973 12.571 5.41384 12.3354 5.62862C12.1112 5.83287 11.8202 6.0539 11.4851 6.26814C10.8049 6.7029 10.0231 7.0591 9.36557 7.20582L9.80114 9.15781ZM14.0834 3.72727C14.0834 4.18754 13.7715 4.57755 13.3458 4.69272L13.8682 6.6233C15.1437 6.27819 16.0834 5.11374 16.0834 3.72727H14.0834ZM14.0834 2.81818V3.72727H16.0834V2.81818H14.0834ZM13.0834 1.81818C13.6356 1.81818 14.0834 2.26589 14.0834 2.81818H16.0834C16.0834 1.16132 14.7402 -0.181824 13.0834 -0.181824V1.81818ZM7.91669 1.81818H13.0834V-0.181824H7.91669V1.81818Z" fill="white" style="mix-blend-mode:soft-light" mask="url(#path-11-inside-3_323_10137)"/>
</g>
<defs>
<linearGradient id="paint0_linear_323_10137" x1="8.3" y1="14.1667" x2="2.34964" y2="11.6675" gradientUnits="userSpaceOnUse">
<stop stop-color="#438DFF"/>
<stop offset="0.488845" stop-color="#5DACFE"/>
<stop offset="1" stop-color="#72D4FF"/>
</linearGradient>
<linearGradient id="paint1_linear_323_10137" x1="5.5" y1="10" x2="5.5" y2="15" gradientUnits="userSpaceOnUse">
<stop stop-color="white" stop-opacity="0.66"/>
<stop offset="1" stop-color="#63BAFF"/>
</linearGradient>
<linearGradient id="paint2_linear_323_10137" x1="8.99795" y1="7.13325" x2="2" y2="7.13325" gradientUnits="userSpaceOnUse">
<stop stop-color="#754112"/>
<stop offset="1" stop-color="#9F5812"/>
</linearGradient>
<linearGradient id="paint3_linear_323_10137" x1="8.99795" y1="7.13325" x2="2" y2="7.13325" gradientUnits="userSpaceOnUse">
<stop stop-color="#5C320E"/>
<stop offset="1" stop-color="#974B0F"/>
</linearGradient>
<linearGradient id="paint4_linear_323_10137" x1="5.91669" y1="0.818176" x2="14.1437" y2="9.11372" gradientUnits="userSpaceOnUse">
<stop stop-color="#EFF5FE"/>
<stop offset="1" stop-color="#B5D5FD"/>
</linearGradient>
<clipPath id="clip0_323_10137">
<rect width="16" height="16" fill="white"/>
</clipPath>
</defs>
</svg>
