<svg width="16" height="16" viewBox="0 0 16 16" fill="none" xmlns="http://www.w3.org/2000/svg">
<path d="M1.48988 12.4426C1.35307 12.0667 2.30117 11.2605 2.5574 10.9898L4.01012 12.0574C3.91051 12.271 3.31848 13.3733 2.9426 13.5101C2.47275 13.6811 1.66089 12.9124 1.48988 12.4426Z" fill="#EFBC83" stroke="#CE7C28" stroke-opacity="0.988235"/>
<path d="M14.5101 12.4426C14.6469 12.0667 13.6988 11.2605 13.4426 10.9899L11.9899 12.0574C12.0895 12.271 12.6815 13.3733 13.0574 13.5101C13.5272 13.6812 14.3391 12.9125 14.5101 12.4426Z" fill="#EFBC83" stroke="#CE7C28" stroke-opacity="0.988235"/>
<path d="M11 14.5C11.2761 14.5 11.5 14.2761 11.5 14V12.309L13.2236 11.4472C13.3674 11.3753 13.4678 11.2387 13.4935 11.0801C13.5193 10.9214 13.4672 10.7601 13.3536 10.6464L10.3536 7.64645C10.2598 7.55268 10.1326 7.5 10 7.5H6C5.86739 7.5 5.74021 7.55268 5.64645 7.64645L2.64645 10.6464C2.5328 10.7601 2.48071 10.9214 2.50646 11.0801C2.5322 11.2387 2.63264 11.3753 2.77639 11.4472L4.5 12.309V14C4.5 14.2761 4.72386 14.5 5 14.5H11Z" fill="#646464" stroke="#4E4E4E" stroke-linejoin="round"/>
<path d="M9.79289 8.5L12.1559 10.863L10.7764 11.5528L10.5 11.691V12V13.5H5.5V12V11.691L5.22361 11.5528L3.84408 10.863L6.20711 8.5H9.79289Z" stroke="url(#paint0_linear_323_10325)"/>
<path d="M8.5 12.5V14.5" stroke="#4E4E4E" stroke-linecap="round" stroke-linejoin="round"/>
<path d="M9 11V12L8 12.5L7 12V11L7.5 8.5H8.5L9 11Z" fill="url(#paint1_linear_323_10325)"/>
<path d="M4.5 9L6.5 10.5L7 9M9 9L9.5 10.5L11.5 9" stroke="#4E4E4E" stroke-linecap="round" stroke-linejoin="round"/>
<circle cx="8" cy="5" r="3.5" fill="#F6D0A8" stroke="#A87B4D"/>
<mask id="path-9-inside-1_323_10325" fill="white">
<path fill-rule="evenodd" clip-rule="evenodd" d="M4.09622 5.87601C4.65239 5.18128 5.8705 4 7 4C7.7918 4 8.16961 4.43786 8.52637 4.85133C8.84547 5.22114 9.14772 5.57143 9.71429 5.57143C10.4119 5.57143 11.288 5.18524 11.9977 4.86185C11.9249 2.71668 10.1629 1 8 1C5.79086 1 4 2.79086 4 5C4 5.30092 4.03323 5.59408 4.09622 5.87601Z"/>
</mask>
<path fill-rule="evenodd" clip-rule="evenodd" d="M4.09622 5.87601C4.65239 5.18128 5.8705 4 7 4C7.7918 4 8.16961 4.43786 8.52637 4.85133C8.84547 5.22114 9.14772 5.57143 9.71429 5.57143C10.4119 5.57143 11.288 5.18524 11.9977 4.86185C11.9249 2.71668 10.1629 1 8 1C5.79086 1 4 2.79086 4 5C4 5.30092 4.03323 5.59408 4.09622 5.87601Z" fill="url(#paint2_linear_323_10325)"/>
<path d="M4.09622 5.87601L3.12028 6.09406L3.57463 8.12764L4.87687 6.50097L4.09622 5.87601ZM8.52637 4.85133L7.76926 5.50461L8.52637 4.85133ZM11.9977 4.86185L12.4123 5.77181L13.0197 5.49502L12.9971 4.82793L11.9977 4.86185ZM7 3C6.11334 3 5.31206 3.44804 4.73737 3.8743C4.13823 4.3187 3.63443 4.85275 3.31556 5.25105L4.87687 6.50097C5.11419 6.20454 5.49752 5.80059 5.92885 5.48066C6.38463 5.14259 6.75715 5 7 5V3ZM9.28349 4.19804C8.92344 3.78077 8.2806 3 7 3V5C7.18949 5 7.28766 5.04585 7.3657 5.09868C7.47642 5.17364 7.57781 5.28274 7.76926 5.50461L9.28349 4.19804ZM9.71429 4.57143C9.67875 4.57143 9.66317 4.56645 9.65793 4.56466C9.65158 4.56248 9.63729 4.55681 9.61093 4.53787C9.58211 4.51717 9.54238 4.48321 9.48573 4.42464C9.42683 4.36375 9.36671 4.29449 9.28349 4.19804L7.76926 5.50461C8.0551 5.83587 8.63474 6.57143 9.71429 6.57143V4.57143ZM11.583 3.95189C11.2272 4.11402 10.8694 4.27326 10.5238 4.39312C10.1683 4.5164 9.89836 4.57143 9.71429 4.57143V6.57143C10.2278 6.57143 10.7447 6.43336 11.1791 6.2827C11.6234 6.12862 12.0585 5.93308 12.4123 5.77181L11.583 3.95189ZM8 2C9.62198 2 10.9437 3.28753 10.9982 4.89577L12.9971 4.82793C12.9061 2.14583 10.7038 0 8 0V2ZM5 5C5 3.34315 6.34315 2 8 2V0C5.23858 0 3 2.23858 3 5H5ZM5.07216 5.65797C5.02505 5.44714 5 5.22709 5 5H3C3 5.37475 3.0414 5.74102 3.12028 6.09406L5.07216 5.65797Z" fill="url(#paint3_linear_323_10325)" mask="url(#path-9-inside-1_323_10325)"/>
<defs>
<linearGradient id="paint0_linear_323_10325" x1="8" y1="8" x2="8" y2="14" gradientUnits="userSpaceOnUse">
<stop stop-color="white" stop-opacity="0.5"/>
<stop offset="1" stop-color="white" stop-opacity="0.2"/>
</linearGradient>
<linearGradient id="paint1_linear_323_10325" x1="8" y1="8.5" x2="8" y2="11.5" gradientUnits="userSpaceOnUse">
<stop stop-color="#9C9C9C"/>
<stop offset="1" stop-color="#B3B3B3"/>
</linearGradient>
<linearGradient id="paint2_linear_323_10325" x1="12.0738" y1="8.0968" x2="3.92386" y2="8.0968" gradientUnits="userSpaceOnUse">
<stop stop-color="#693E16"/>
<stop offset="1" stop-color="#935A25"/>
</linearGradient>
<linearGradient id="paint3_linear_323_10325" x1="12.0738" y1="8.0968" x2="3.92386" y2="8.0968" gradientUnits="userSpaceOnUse">
<stop stop-color="#553210"/>
<stop offset="1" stop-color="#7B4D1E"/>
</linearGradient>
</defs>
</svg>
