<svg width="16" height="16" viewBox="0 0 16 16" fill="none" xmlns="http://www.w3.org/2000/svg">
<g clip-path="url(#clip0_451_7855)">
<path d="M15 11.5C15.2761 11.5 15.5 11.2761 15.5 11V3C15.5 2.17157 14.8284 1.5 14 1.5H2C1.17157 1.5 0.5 2.17157 0.5 3V11C0.5 11.2761 0.723858 11.5 1 11.5H1.91667C2.23883 11.5 2.5 11.2388 2.5 10.9167C2.5 10.6865 2.68655 10.5 2.91667 10.5H4.08333C4.31345 10.5 4.5 10.6865 4.5 10.9167C4.5 11.2388 4.76117 11.5 5.08333 11.5H10.9167C11.2388 11.5 11.5 11.2388 11.5 10.9167C11.5 10.6865 11.6865 10.5 11.9167 10.5H13.0833C13.3135 10.5 13.5 10.6865 13.5 10.9167C13.5 11.2388 13.7612 11.5 14.0833 11.5H15Z" fill="url(#paint0_linear_451_7855)" stroke="url(#paint1_linear_451_7855)" stroke-linejoin="round"/>
<path d="M1.5 3C1.5 2.72386 1.72386 2.5 2 2.5H14C14.2761 2.5 14.5 2.72386 14.5 3V10.5H14.4377C14.2598 9.92094 13.7207 9.5 13.0833 9.5H11.9167C11.2793 9.5 10.7402 9.92094 10.5623 10.5H5.43773C5.25981 9.92094 4.72073 9.5 4.08333 9.5H2.91667C2.27927 9.5 1.7402 9.92094 1.56227 10.5H1.5V3Z" stroke="white" stroke-opacity="0.5" stroke-linejoin="round"/>
<rect x="10" y="3" width="4" height="1" rx="0.5" fill="url(#paint2_linear_451_7855)"/>
<path d="M10 5.5C10 5.22386 10.2239 5 10.5 5H13.5C13.7761 5 14 5.22386 14 5.5C14 5.77614 13.7761 6 13.5 6H10.5C10.2239 6 10 5.77614 10 5.5Z" fill="#B7B7B7"/>
<path d="M10 7.5C10 7.22386 10.2239 7 10.5 7H13.5C13.7761 7 14 7.22386 14 7.5C14 7.77614 13.7761 8 13.5 8H10.5C10.2239 8 10 7.77614 10 7.5Z" fill="#B7B7B7"/>
<mask id="mask0_451_7855" style="mask-type:alpha" maskUnits="userSpaceOnUse" x="2" y="3" width="6" height="6">
<rect x="2" y="3" width="6" height="6" fill="#8ECCFC"/>
</mask>
<g mask="url(#mask0_451_7855)">
<rect x="2" y="3" width="6" height="6" fill="#8ECCFC"/>
<circle cx="2" cy="8" r="1" fill="#EAB378"/>
<circle cx="8" cy="8" r="1" fill="#EAB378"/>
<path d="M6.14286 9H3.8L3.57143 7.8L3 7.2L4.2 6H5.8L7 7.2L6.42857 7.8L6.14286 9Z" fill="url(#paint3_linear_451_7855)"/>
<path d="M6.14286 9.5C6.37439 9.5 6.57563 9.34104 6.62926 9.11581L6.88372 8.0471L7.36207 7.54483C7.54924 7.3483 7.54546 7.03835 7.35355 6.84645L6.15355 5.64645C6.05979 5.55268 5.93261 5.5 5.8 5.5H4.2C4.06739 5.5 3.94021 5.55268 3.84645 5.64645L2.64645 6.84645C2.45454 7.03835 2.45076 7.3483 2.63793 7.54483L3.10781 8.0382L3.30883 9.09356C3.35375 9.32938 3.55993 9.5 3.8 9.5H6.14286Z" stroke="#2E5ABA" stroke-opacity="0.972549" stroke-linejoin="round"/>
<circle cx="5" cy="5" r="1.5" fill="#F6D0A8" stroke="#A87B4D"/>
<mask id="path-12-inside-1_451_7855" fill="white">
<path fill-rule="evenodd" clip-rule="evenodd" d="M3.04811 5.43801C3.3262 5.09064 3.93525 4.5 4.5 4.5C4.8959 4.5 5.08481 4.71893 5.26319 4.92566C5.42273 5.11057 5.57386 5.28571 5.85714 5.28571C6.20593 5.28571 6.64401 5.09262 6.99883 4.93093C6.96243 3.85834 6.08145 3 5 3C3.89543 3 3 3.89543 3 5C3 5.15046 3.01661 5.29704 3.04811 5.43801Z"/>
</mask>
<path fill-rule="evenodd" clip-rule="evenodd" d="M3.04811 5.43801C3.3262 5.09064 3.93525 4.5 4.5 4.5C4.8959 4.5 5.08481 4.71893 5.26319 4.92566C5.42273 5.11057 5.57386 5.28571 5.85714 5.28571C6.20593 5.28571 6.64401 5.09262 6.99883 4.93093C6.96243 3.85834 6.08145 3 5 3C3.89543 3 3 3.89543 3 5C3 5.15046 3.01661 5.29704 3.04811 5.43801Z" fill="url(#paint4_linear_451_7855)"/>
<path d="M3.04811 5.43801L2.07217 5.65605L2.52652 7.68964L3.82876 6.06297L3.04811 5.43801ZM5.26319 4.92566L4.50607 5.57895H4.50607L5.26319 4.92566ZM6.99883 4.93093L7.41352 5.84089L8.0209 5.5641L7.99825 4.897L6.99883 4.93093ZM4.5 3.5C3.89572 3.5 3.38789 3.80038 3.07082 4.03556C2.72929 4.28888 2.44727 4.58843 2.26745 4.81304L3.82876 6.06297C3.92703 5.94022 4.08858 5.77076 4.26229 5.64192C4.34732 5.57885 4.41813 5.53835 4.47028 5.51584C4.52369 5.49279 4.5309 5.5 4.5 5.5V3.5ZM6.0203 4.27238C5.83864 4.06184 5.3847 3.5 4.5 3.5V5.5C4.50483 5.5 4.48997 5.50036 4.46346 5.49209C4.43675 5.48376 4.4153 5.47202 4.40254 5.46338C4.39208 5.4563 4.39439 5.45592 4.41285 5.47462C4.42201 5.48389 4.43367 5.49633 4.44948 5.51404C4.46592 5.53245 4.48288 5.55207 4.50607 5.57895L6.0203 4.27238ZM5.85714 4.28571C5.89243 4.28571 5.93941 4.29168 5.99067 4.3092C6.04081 4.32633 6.07696 4.34833 6.09716 4.36284C6.11491 4.37559 6.11788 4.38086 6.10226 4.36471C6.0844 4.34624 6.06364 4.3226 6.0203 4.27238L4.50607 5.57895C4.63236 5.72531 5.06088 6.28571 5.85714 6.28571V4.28571ZM6.58414 4.02096C6.40578 4.10224 6.24618 4.17279 6.09806 4.22416C6.02613 4.24911 5.96776 4.26562 5.92198 4.27549C5.87496 4.28563 5.8551 4.28571 5.85714 4.28571V6.28571C6.19624 6.28571 6.51645 6.19592 6.75339 6.11375C7.00021 6.02815 7.23706 5.9213 7.41352 5.84089L6.58414 4.02096ZM5 4C5.54053 4 5.98122 4.42919 5.99941 4.96485L7.99825 4.897C7.94363 3.28749 6.62237 2 5 2V4ZM4 5C4 4.44772 4.44772 4 5 4V2C3.34315 2 2 3.34315 2 5H4ZM4.02405 5.21996C4.00844 5.1501 4 5.07663 4 5H2C2 5.22429 2.02479 5.44398 2.07217 5.65605L4.02405 5.21996Z" fill="url(#paint5_linear_451_7855)" mask="url(#path-12-inside-1_451_7855)"/>
</g>
<path d="M4.54043 14.803C4.45989 14.991 4.50188 15.209 4.64645 15.3536C4.79102 15.4981 5.00904 15.5401 5.19696 15.4596L8.69696 13.9596C8.84946 13.8942 8.9596 13.7575 8.99098 13.5946C9.02235 13.4316 8.97087 13.2638 8.85355 13.1464L6.85355 11.1464C6.73624 11.0291 6.56836 10.9776 6.40545 11.009C6.24253 11.0404 6.10578 11.1505 6.04043 11.303L4.54043 14.803Z" fill="url(#paint6_linear_451_7855)"/>
<path d="M4.54043 14.803C4.45989 14.991 4.50188 15.209 4.64645 15.3536C4.79102 15.4981 5.00904 15.5401 5.19696 15.4596L8.69696 13.9596C8.84946 13.8942 8.9596 13.7575 8.99098 13.5946C9.02235 13.4316 8.97087 13.2638 8.85355 13.1464L6.85355 11.1464C6.73624 11.0291 6.56836 10.9776 6.40545 11.009C6.24253 11.0404 6.10578 11.1505 6.04043 11.303L4.54043 14.803Z" fill="url(#paint7_linear_451_7855)"/>
<path d="M4.54043 14.803C4.45989 14.991 4.50188 15.209 4.64645 15.3536C4.79102 15.4981 5.00904 15.5401 5.19696 15.4596L8.69696 13.9596C8.84946 13.8942 8.9596 13.7575 8.99098 13.5946C9.02235 13.4316 8.97087 13.2638 8.85355 13.1464L6.85355 11.1464C6.73624 11.0291 6.56836 10.9776 6.40545 11.009C6.24253 11.0404 6.10578 11.1505 6.04043 11.303L4.54043 14.803Z" stroke="url(#paint8_linear_451_7855)" stroke-linejoin="round"/>
<path d="M4.54043 14.803C4.45989 14.991 4.50188 15.209 4.64645 15.3536C4.79102 15.4981 5.00904 15.5401 5.19696 15.4596L8.69696 13.9596C8.84946 13.8942 8.9596 13.7575 8.99098 13.5946C9.02235 13.4316 8.97087 13.2638 8.85355 13.1464L6.85355 11.1464C6.73624 11.0291 6.56836 10.9776 6.40545 11.009C6.24253 11.0404 6.10578 11.1505 6.04043 11.303L4.54043 14.803Z" stroke="url(#paint9_linear_451_7855)" stroke-linejoin="round"/>
<path d="M6.14645 11.1464C5.95118 11.3417 5.95118 11.6583 6.14645 11.8536L8.14645 13.8536C8.34171 14.0488 8.65829 14.0488 8.85355 13.8536L14.8536 7.85355C15.0488 7.65829 15.0488 7.34171 14.8536 7.14645L12.8536 5.14645C12.6583 4.95118 12.3417 4.95118 12.1464 5.14645L6.14645 11.1464Z" fill="url(#paint10_linear_451_7855)" stroke="url(#paint11_linear_451_7855)" stroke-linejoin="round"/>
<path fill-rule="evenodd" clip-rule="evenodd" d="M6.5 11.5L7.20711 12.2071L13.2071 6.20711L12.5 5.5L6.5 11.5Z" fill="#FCF4B3"/>
<path d="M14.1464 7.85356L14.5 8.20712L14.8536 7.85356C15.0768 7.63032 15.3397 7.23926 15.4185 6.75535C15.5023 6.24043 15.3688 5.66169 14.8536 5.14646C14.3383 4.63123 13.7596 4.49768 13.2447 4.58151C12.7607 4.66028 12.3697 4.92321 12.1464 5.14646L11.7929 5.50001L12.1464 5.85356L14.1464 7.85356Z" fill="url(#paint12_linear_451_7855)" stroke="url(#paint13_linear_451_7855)"/>
</g>
<defs>
<linearGradient id="paint0_linear_451_7855" x1="3.5" y1="2" x2="12.5" y2="11" gradientUnits="userSpaceOnUse">
<stop stop-color="#FAFAFA"/>
<stop offset="1" stop-color="#E9E9E9"/>
</linearGradient>
<linearGradient id="paint1_linear_451_7855" x1="3.5" y1="2" x2="12.5" y2="11" gradientUnits="userSpaceOnUse">
<stop stop-color="#E6E6E6" stop-opacity="0.8"/>
<stop offset="1" stop-color="#B0B0B0" stop-opacity="0.839216"/>
</linearGradient>
<linearGradient id="paint2_linear_451_7855" x1="10" y1="3.5" x2="14" y2="3.5" gradientUnits="userSpaceOnUse">
<stop stop-color="#74B6EC"/>
<stop offset="1" stop-color="#569DDB"/>
</linearGradient>
<linearGradient id="paint3_linear_451_7855" x1="6.6" y1="8.5" x2="3.15172" y2="7.12069" gradientUnits="userSpaceOnUse">
<stop stop-color="#438DFF"/>
<stop offset="0.488845" stop-color="#5DACFE"/>
<stop offset="1" stop-color="#72D4FF"/>
</linearGradient>
<linearGradient id="paint4_linear_451_7855" x1="6.99883" y1="4.219" x2="3" y2="4.219" gradientUnits="userSpaceOnUse">
<stop stop-color="#754112"/>
<stop offset="1" stop-color="#9F5812"/>
</linearGradient>
<linearGradient id="paint5_linear_451_7855" x1="6.99883" y1="4.219" x2="3" y2="4.219" gradientUnits="userSpaceOnUse">
<stop stop-color="#5C320E"/>
<stop offset="1" stop-color="#974B0F"/>
</linearGradient>
<linearGradient id="paint6_linear_451_7855" x1="6.16667" y1="11.8889" x2="8.11111" y2="13.8333" gradientUnits="userSpaceOnUse">
<stop stop-color="#FAE7D1"/>
<stop offset="1" stop-color="#E89840"/>
</linearGradient>
<linearGradient id="paint7_linear_451_7855" x1="6.94444" y1="12.6667" x2="3.83333" y2="15.7778" gradientUnits="userSpaceOnUse">
<stop stop-color="#584013" stop-opacity="0"/>
<stop offset="0.499937" stop-color="#584013" stop-opacity="0"/>
<stop offset="0.661921" stop-color="#584013"/>
</linearGradient>
<linearGradient id="paint8_linear_451_7855" x1="6.16667" y1="12.6667" x2="7.33333" y2="13.8333" gradientUnits="userSpaceOnUse">
<stop stop-color="#B98926"/>
<stop offset="1" stop-color="#AA6016"/>
</linearGradient>
<linearGradient id="paint9_linear_451_7855" x1="7.72222" y1="11.8889" x2="3.83333" y2="15.7778" gradientUnits="userSpaceOnUse">
<stop offset="0.5" stop-color="#B98926" stop-opacity="0"/>
<stop offset="0.656842" stop-color="#584013"/>
</linearGradient>
<linearGradient id="paint10_linear_451_7855" x1="6.5" y1="11.6579" x2="8.34211" y2="13.5" gradientUnits="userSpaceOnUse">
<stop stop-color="#F5DC60"/>
<stop offset="1" stop-color="#EFCB1A"/>
</linearGradient>
<linearGradient id="paint11_linear_451_7855" x1="6.5" y1="11.6579" x2="8.3421" y2="13.5" gradientUnits="userSpaceOnUse">
<stop stop-color="#E9C755"/>
<stop offset="1" stop-color="#D98F3B"/>
</linearGradient>
<linearGradient id="paint12_linear_451_7855" x1="12.4766" y1="6.30195" x2="14.8903" y2="6.69267" gradientUnits="userSpaceOnUse">
<stop stop-color="#FDD7D1"/>
<stop offset="1" stop-color="#FBACA1"/>
</linearGradient>
<linearGradient id="paint13_linear_451_7855" x1="12.5" y1="6.31509" x2="14.8693" y2="6.72938" gradientUnits="userSpaceOnUse">
<stop stop-color="#E1B3AD"/>
<stop offset="1" stop-color="#B17971"/>
</linearGradient>
<clipPath id="clip0_451_7855">
<rect width="16" height="16" fill="white"/>
</clipPath>
</defs>
</svg>
