<svg width="16" height="16" viewBox="0 0 16 16" fill="none" xmlns="http://www.w3.org/2000/svg">
<path d="M2.5 13.5L4.5 9.5M4.5 13.5L6.5 9.5M6.5 13.5L8.5 9.5M8.5 13.5L10.5 9.5M10.5 13.5L12.5 9.5" stroke="url(#paint0_linear_455_7967)" stroke-linecap="round" stroke-linejoin="round"/>
<mask id="path-2-outside-1_455_7967" maskUnits="userSpaceOnUse" x="2" y="2" width="13" height="8" fill="black">
<rect fill="white" x="2" y="2" width="13" height="8"/>
<path d="M12 5.5C12 5.71475 11.9675 5.92317 11.9064 6.12204C11.7576 6.60639 11.439 7.03408 11.0066 7.35849C10.9918 7.36962 10.9768 7.38063 10.9617 7.39151C10.4357 7.77064 9.75001 8 9 8C8.24999 8 7.56426 7.77064 7.0383 7.39151C7.01555 7.37511 6.99311 7.35843 6.97096 7.34148C6.37409 6.88453 6 6.22867 6 5.5C6 5.42402 6.00407 5.34883 6.01203 5.27458C6.08167 4.62524 6.44923 4.04737 7 3.63658C7.53076 3.24071 8.23165 3 9 3C10.0435 3 10.9625 3.44396 11.5 4.11759C11.6388 4.29152 11.7521 4.48076 11.8356 4.68162C11.9421 4.93803 12 5.21338 12 5.5Z"/>
<path d="M7 7C7 7.11642 6.99005 7.23051 6.97096 7.34148C6.91685 7.65601 6.78929 7.94541 6.60657 8.1914C6.60225 8.19722 6.5979 8.20301 6.59352 8.20878C6.58986 8.21388 6.58629 8.21905 6.58282 8.22429C6.21699 8.69656 5.64362 9 5 9C3.89543 9 3 8.10457 3 7C3 5.89543 3.89543 5 5 5C5.36926 5 5.71515 5.10007 6.01203 5.27458C6.60319 5.62207 7 6.26469 7 7Z"/>
<path d="M11 7C11 7.13399 10.9868 7.2649 10.9617 7.39151C10.8987 7.70903 10.7605 7.9995 10.5665 8.24358C10.5259 8.29455 10.483 8.34351 10.4378 8.39026C10.0741 8.76624 9.56437 9 9 9C8.34962 9 7.77175 8.68956 7.40648 8.20877C7.40225 8.20289 7.3979 8.19709 7.39343 8.1914C7.22044 7.95851 7.09689 7.6867 7.0383 7.39151C7.01318 7.2649 7 7.13399 7 7C7 5.89543 7.89543 5 9 5C10.1046 5 11 5.89543 11 7Z"/>
<path d="M14 7.5C14 8.32843 13.3284 9 12.5 9C12.0251 9 11.6017 8.77928 11.3269 8.43483C11.2881 8.3863 11.2524 8.33532 11.2198 8.28216C11.0804 8.05442 11 7.7866 11 7.5C11 7.45228 11.0022 7.40508 11.0066 7.35849C11.0586 6.80225 11.4144 6.33426 11.9064 6.12204C12.0884 6.04351 12.2891 6 12.5 6C12.7412 6 12.9691 6.05693 13.171 6.15809C13.6626 6.40436 14 6.91277 14 7.5Z"/>
<path d="M5 5C5.36926 5 5.71515 5.10007 6.01203 5.27458C6.08167 4.62524 6.44923 4.04737 7 3.63658C6.229 4.21163 6 5 5 5Z"/>
<path d="M12 5.5C12 5.71475 11.9675 5.92317 11.9064 6.12204C12.0884 6.04351 12.2891 6 12.5 6C12.7412 6 12.9691 6.05693 13.171 6.15809C12.3546 5.69928 12.0771 5.15506 11.8356 4.68162C11.9421 4.93803 12 5.21338 12 5.5Z"/>
<path d="M7.0383 7.39151C7.01555 7.37511 6.99311 7.35843 6.97096 7.34148C6.91685 7.65601 6.78929 7.94541 6.60657 8.1914C6.69811 8.07486 6.84031 8 7 8C7.15969 8 7.30189 8.07486 7.39343 8.1914C7.22044 7.95851 7.09689 7.6867 7.0383 7.39151Z"/>
<path fill-rule="evenodd" clip-rule="evenodd" d="M7.39343 8.1914C7.3979 8.19709 7.40225 8.20289 7.40648 8.20877L7.39343 8.1914ZM6.60657 8.1914C6.60225 8.19722 6.5979 8.20301 6.59352 8.20878L6.60657 8.1914Z"/>
<path d="M10.9617 7.39151C10.8987 7.70903 10.7605 7.9995 10.5665 8.24358C10.6508 8.17879 10.7563 8.14027 10.8709 8.14027C11.0066 8.14027 11.1297 8.19436 11.2198 8.28216C11.0804 8.05442 11 7.7866 11 7.5C11 7.45228 11.0022 7.40508 11.0066 7.35849C10.9918 7.36962 10.9768 7.38063 10.9617 7.39151Z"/>
<path fill-rule="evenodd" clip-rule="evenodd" d="M11.2198 8.28216C11.2644 8.32561 11.3009 8.37733 11.3269 8.43483C11.2881 8.3863 11.2524 8.33532 11.2198 8.28216ZM10.4378 8.39026C10.4707 8.33331 10.5146 8.28347 10.5665 8.24358C10.5259 8.29455 10.483 8.34351 10.4378 8.39026Z"/>
</mask>
<path d="M6.01203 5.27458L5.75866 5.70563C5.90506 5.79168 6.08512 5.79755 6.23681 5.7212C6.3885 5.64486 6.49107 5.49674 6.50918 5.3279L6.01203 5.27458ZM11.9064 6.12204L11.4285 5.97517C11.3712 6.16154 11.4275 6.36421 11.5727 6.49435C11.7178 6.62449 11.9254 6.65837 12.1044 6.58115L11.9064 6.12204ZM11.8356 4.68162L12.2973 4.48976C12.2923 4.47776 12.2869 4.46597 12.281 4.4544L11.8356 4.68162ZM7.0383 7.39151L7.52874 7.29418L7.49041 7.10104L7.33068 6.9859L7.0383 7.39151ZM6.97096 7.34148L7.27491 6.94447L6.61838 6.44185L6.4782 7.25671L6.97096 7.34148ZM6.60657 8.1914L7.00795 8.48955L6.60657 8.1914ZM7.39343 8.1914L6.9919 8.48966L7.00023 8.50026L7.39343 8.1914ZM10.9617 7.39151L10.6693 6.9859L10.5096 7.10104L10.4713 7.29418L10.9617 7.39151ZM10.5665 8.24358L10.9579 8.55472L10.9579 8.55471L10.5665 8.24358ZM11.2198 8.28216L10.7934 8.54325L11.2198 8.28216ZM11.0066 7.35849L11.5044 7.40508L11.6096 6.28097L10.7065 6.95855L11.0066 7.35849ZM12.5 6.5C12.6617 6.5 12.8131 6.53801 12.947 6.60512L13.395 5.71106C13.1251 5.57586 12.8207 5.5 12.5 5.5V6.5ZM5 5.5C5.27777 5.5 5.53649 5.57503 5.75866 5.70563L6.2654 4.84353C5.89382 4.62511 5.46076 4.5 5 4.5V5.5ZM6.50918 5.3279C6.56169 4.83828 6.84124 4.37875 7.29894 4.03737L6.70106 3.23578C6.05722 3.71599 5.60165 4.4122 5.51488 5.22126L6.50918 5.3279ZM11.5 5.5C11.5 5.66388 11.4753 5.82284 11.4285 5.97517L12.3843 6.2689C12.4598 6.0235 12.5 5.76561 12.5 5.5H11.5ZM12.1044 6.58115C12.2251 6.52909 12.3585 6.5 12.5 6.5V5.5C12.2198 5.5 11.9518 5.55793 11.7084 5.66293L12.1044 6.58115ZM11.3738 4.87348C11.4561 5.07137 11.5 5.28167 11.5 5.5H12.5C12.5 5.1451 12.4282 4.80469 12.2973 4.48976L11.3738 4.87348ZM12.281 4.4544C12.1806 4.25774 12.0605 4.01838 11.8908 3.80575L11.1092 4.42942C11.2046 4.54904 11.2807 4.69424 11.3902 4.90884L12.281 4.4544ZM7.33068 6.9859C7.31181 6.9723 7.29322 6.95849 7.27491 6.94447L6.66702 7.73849C6.69299 7.75838 6.7193 7.77792 6.74592 7.79711L7.33068 6.9859ZM6.4782 7.25671C6.43774 7.49192 6.34236 7.70858 6.20518 7.89326L7.00795 8.48955C7.23622 8.18224 7.39597 7.8201 7.46372 7.42625L6.4782 7.25671ZM7.79481 7.89325C7.66493 7.7184 7.57254 7.51488 7.52874 7.29418L6.54787 7.48884C6.62124 7.85853 6.77595 8.19862 6.99205 8.48955L7.79481 7.89325ZM7.00023 8.50026C7.00023 8.50026 7.00025 8.50029 7.00028 8.50033L7.81267 7.91722C7.80425 7.90549 7.79557 7.89393 7.78663 7.88254L7.00023 8.50026ZM6.20518 7.89326C6.20187 7.89772 6.1986 7.90207 6.19539 7.9063L6.99165 8.51125C6.9972 8.50395 7.00263 8.49672 7.00795 8.48955L6.20518 7.89326ZM10.4713 7.29418C10.4242 7.53155 10.3208 7.74909 10.1751 7.93244L10.9579 8.55471C11.2002 8.2499 11.3732 7.88652 11.4521 7.48884L10.4713 7.29418ZM11.6462 8.02107C11.5535 7.86967 11.5 7.69185 11.5 7.5H10.5C10.5 7.88134 10.6072 8.23916 10.7934 8.54325L11.6462 8.02107ZM11.5 7.5C11.5 7.46785 11.5015 7.43619 11.5044 7.40508L10.5088 7.31191C10.503 7.37396 10.5 7.43671 10.5 7.5H11.5ZM10.7065 6.95855C10.6942 6.96778 10.6818 6.9769 10.6693 6.9859L11.2541 7.79711C11.2718 7.78435 11.2893 7.77146 11.3067 7.75844L10.7065 6.95855ZM11.7177 8.12298C11.6918 8.09055 11.6679 8.05652 11.6462 8.02107L10.7934 8.54325C10.8368 8.61413 10.8845 8.68206 10.936 8.74668L11.7177 8.12298ZM10.1751 7.93244C10.1446 7.97073 10.1123 8.00752 10.0784 8.04266L10.7972 8.73786C10.8536 8.67949 10.9073 8.61837 10.9579 8.55472L10.1751 7.93244ZM7 3.63658L7.59787 4.43817V4.43817L7 3.63658ZM13.171 6.15809L12.6811 7.02986L12.7018 7.0415L12.7231 7.05215L13.171 6.15809ZM11.5 4.11759L10.7183 4.74126L11.5 4.11759ZM6.01203 5.27458L6.51878 4.41248C6.22598 4.24038 5.86584 4.22864 5.56247 4.38133C5.25909 4.53402 5.05395 4.83025 5.01773 5.16795L6.01203 5.27458ZM11.9064 6.12204L12.8623 6.41577C12.9768 6.04303 12.8642 5.63771 12.5739 5.37742C12.2835 5.11714 11.8684 5.04938 11.5103 5.20382L11.9064 6.12204ZM11.8356 4.68162L10.9121 5.06535C10.9221 5.08933 10.933 5.11292 10.9448 5.13606L11.8356 4.68162ZM7.0383 7.39151L6.05743 7.58617L6.13409 7.97244L6.45354 8.20272L7.0383 7.39151ZM6.97096 7.34148L6.36308 8.1355L7.67612 9.14074L7.95649 7.51102L6.97096 7.34148ZM6.60657 8.1914L5.82015 7.57371L5.81347 7.58222L5.80697 7.59087L6.60657 8.1914ZM7.39343 8.1914L8.19303 7.59087L8.18653 7.58221L8.17984 7.5737L7.39343 8.1914ZM7.40648 8.20877L6.60687 8.80932L6.61021 8.81372L7.40648 8.20877ZM6.58282 8.22429L7.37338 8.83667L7.3961 8.80735L7.41658 8.77642L6.58282 8.22429ZM6.59352 8.20878L5.79392 7.60824L5.78743 7.61689L5.78113 7.62567L6.59352 8.20878ZM10.9617 7.39151L11.5465 8.20271L11.8659 7.97244L11.9426 7.58617L10.9617 7.39151ZM10.5665 8.24358L9.95712 7.45068L9.95711 7.45068L10.5665 8.24358ZM11.2198 8.28216L11.9178 7.566L11.9178 7.566L11.2198 8.28216ZM11.0066 7.35849L10.0109 7.26533L9.80057 9.51349L11.6067 8.15839L11.0066 7.35849ZM11.3269 8.43483L10.4154 8.84614L10.467 8.96047L10.5452 9.05853L11.3269 8.43483ZM10.4378 8.39026L11.1566 9.08546L11.2419 8.99724L11.3034 8.891L10.4378 8.39026ZM5 8C4.44772 8 4 7.55228 4 7H2C2 8.65685 3.34315 10 5 10V8ZM4 7C4 6.44772 4.44772 6 5 6V4C3.34315 4 2 5.34315 2 7H4ZM8 7C8 6.44772 8.44772 6 9 6V4C7.34315 4 6 5.34315 6 7H8ZM9 6C9.55228 6 10 6.44772 10 7H12C12 5.34315 10.6569 4 9 4V6ZM13 7.5C13 7.77614 12.7761 8 12.5 8V10C13.8807 10 15 8.88071 15 7.5H13ZM7.59787 4.43817C7.94883 4.17641 8.43809 4 9 4V2C8.0252 2 7.11269 2.30501 6.40213 2.83499L7.59787 4.43817ZM5 6C5.83942 6 6.38248 5.63754 6.78041 5.25339C6.94152 5.09786 7.12502 4.89037 7.23143 4.77719C7.36044 4.63997 7.47327 4.5311 7.59787 4.43817L6.40213 2.83499C6.14123 3.02958 5.93631 3.23491 5.77429 3.40724C5.58967 3.60361 5.50885 3.70103 5.39134 3.81448C5.23202 3.96827 5.16058 4 5 4V6ZM12.7231 7.05215C12.8894 7.13547 13 7.30571 13 7.5H15C15 6.51983 14.4358 5.67326 13.6189 5.26402L12.7231 7.05215ZM9 4C9.76984 4 10.3889 4.32839 10.7183 4.74126L12.2817 3.49391C11.5362 2.55953 10.3171 2 9 2V4ZM7 5.5C7 5.45975 7.00215 5.42016 7.00633 5.38121L5.01773 5.16795C5.00598 5.27751 5 5.38829 5 5.5H7ZM5.50528 6.13667C5.80348 6.31196 6 6.63358 6 7H8C8 5.89581 7.4029 4.93218 6.51878 4.41248L5.50528 6.13667ZM13.6609 5.28632C13.365 5.12004 13.1906 4.95348 13.0693 4.8015C12.9389 4.63814 12.8499 4.46933 12.7263 4.22718L10.9448 5.13606C11.2092 5.65433 11.5986 6.42151 12.6811 7.02986L13.6609 5.28632ZM10.7183 4.74126C10.8021 4.84627 10.8664 4.95535 10.9121 5.06535L12.759 4.29789C12.6378 4.00617 12.4754 3.73677 12.2817 3.49391L10.7183 4.74126ZM7.39298 8.8091C7.3031 8.92353 7.16021 9 7 9V7C6.52042 7 6.09311 7.22619 5.82015 7.57371L7.39298 8.8091ZM7 9C6.8398 9 6.6969 8.92353 6.60702 8.8091L8.17984 7.5737C7.90688 7.22619 7.47958 7 7 7V9ZM6 7C6 7.05935 5.99494 7.11673 5.98544 7.17194L7.95649 7.51102C7.98517 7.34429 8 7.17348 8 7H6ZM8.01917 7.19684C8.0067 7.13399 8 7.06828 8 7H6C6 7.1997 6.01965 7.39581 6.05743 7.58617L8.01917 7.19684ZM9 7C8.45171 7 7.97222 6.832 7.62306 6.5803L6.45354 8.20272C7.1563 8.70929 8.04827 9 9 9V7ZM7.57885 6.54746C7.18592 6.24664 7 5.86672 7 5.5H5C5 6.59062 5.56226 7.52242 6.36308 8.1355L7.57885 6.54746ZM8.20608 7.60824L8.19303 7.59087L6.59383 8.79194L6.60688 8.80931L8.20608 7.60824ZM7.41658 8.77642C7.41312 8.78164 7.40957 8.7868 7.40591 8.79188L5.78113 7.62567C5.77015 7.64096 5.75946 7.65646 5.74907 7.67216L7.41658 8.77642ZM7.39312 8.80931L7.40617 8.79194L5.80697 7.59087L5.79392 7.60824L7.39312 8.80931ZM5.79226 7.61191C5.60833 7.84935 5.3223 8 5 8V10C5.96494 10 6.82565 9.54377 7.37338 8.83667L5.79226 7.61191ZM9 8C8.67542 8 8.38706 7.84644 8.20274 7.60383L6.61021 8.81372C7.15643 9.53268 8.02382 10 9 10V8ZM11.1758 9.03648C11.0915 9.10126 10.9843 9.14027 10.8709 9.14027V7.14027C10.5283 7.14027 10.21 7.25631 9.95712 7.45068L11.1758 9.03648ZM10.8709 9.14027C10.7355 9.14027 10.611 9.08514 10.5219 8.99832L11.9178 7.566C11.6485 7.30357 11.2777 7.14027 10.8709 7.14027V9.14027ZM12.0022 7.45166C12.0193 7.26929 12.1368 7.1117 12.3025 7.04025L11.5103 5.20382C10.692 5.55682 10.098 6.33521 10.0109 7.26533L12.0022 7.45166ZM10.9505 5.82831C10.8715 6.08541 10.6921 6.34429 10.4064 6.55859L11.6067 8.15839C12.1859 7.72387 12.6436 7.12737 12.8623 6.41577L10.9505 5.82831ZM10.3769 6.5803C10.0278 6.832 9.54829 7 9 7V9C9.95173 9 10.8437 8.70929 11.5465 8.20271L10.3769 6.5803ZM10 7C10 7.06828 9.9933 7.134 9.98083 7.19684L11.9426 7.58617C11.9803 7.3958 12 7.1997 12 7H10ZM10.5219 8.99832C10.478 8.95556 10.4416 8.90421 10.4154 8.84614L12.2384 8.02352C12.1603 7.85045 12.0508 7.69567 11.9178 7.566L10.5219 8.99832ZM11.3034 8.891C11.2705 8.94787 11.2271 8.9971 11.1758 9.03648L9.95711 7.45068C9.80208 7.56983 9.67096 7.71875 9.57217 7.88952L11.3034 8.891ZM9.71896 7.69506C9.53594 7.88429 9.28235 8 9 8V10C9.84639 10 10.6123 9.64819 11.1566 9.08546L9.71896 7.69506ZM12.5 8C12.3422 8 12.2018 7.92801 12.1085 7.81113L10.5452 9.05853C11.0016 9.63056 11.708 10 12.5 10V8Z" fill="url(#paint1_linear_455_7967)" mask="url(#path-2-outside-1_455_7967)"/>
<mask id="path-4-inside-2_455_7967" fill="white">
<path d="M5 9C3.89543 9 3 8.10457 3 7C3 5.89543 3.89543 5 5 5C6 5 6.229 4.21163 7 3.63658C7.53076 3.24071 8.23165 3 9 3C10.0435 3 10.9625 3.44396 11.5 4.11759C11.6388 4.29152 11.7521 4.48076 11.8356 4.68162L11.8358 4.68198C12.0772 5.15533 12.3548 5.69939 13.171 6.15809C13.6626 6.40436 14 6.91277 14 7.5C14 8.32843 13.3284 9 12.5 9C12.0251 9 11.6017 8.77928 11.3269 8.43483C11.2881 8.3863 11.2524 8.33532 11.2198 8.28216C11.1297 8.19436 11.0066 8.14027 10.8709 8.14027C10.7563 8.14027 10.6508 8.17879 10.5665 8.24358C10.5259 8.29455 10.483 8.34351 10.4378 8.39026C10.0741 8.76624 9.56437 9 9 9C8.34962 9 7.77175 8.68956 7.40648 8.20877L7.39343 8.1914C7.30189 8.07486 7.15969 8 7 8C6.84031 8 6.69811 8.07486 6.60657 8.1914L6.59352 8.20878C6.58986 8.21388 6.58629 8.21905 6.58282 8.22429C6.21699 8.69656 5.64362 9 5 9Z"/>
</mask>
<path d="M5 9C3.89543 9 3 8.10457 3 7C3 5.89543 3.89543 5 5 5C6 5 6.229 4.21163 7 3.63658C7.53076 3.24071 8.23165 3 9 3C10.0435 3 10.9625 3.44396 11.5 4.11759C11.6388 4.29152 11.7521 4.48076 11.8356 4.68162L11.8358 4.68198C12.0772 5.15533 12.3548 5.69939 13.171 6.15809C13.6626 6.40436 14 6.91277 14 7.5C14 8.32843 13.3284 9 12.5 9C12.0251 9 11.6017 8.77928 11.3269 8.43483C11.2881 8.3863 11.2524 8.33532 11.2198 8.28216C11.1297 8.19436 11.0066 8.14027 10.8709 8.14027C10.7563 8.14027 10.6508 8.17879 10.5665 8.24358C10.5259 8.29455 10.483 8.34351 10.4378 8.39026C10.0741 8.76624 9.56437 9 9 9C8.34962 9 7.77175 8.68956 7.40648 8.20877L7.39343 8.1914C7.30189 8.07486 7.15969 8 7 8C6.84031 8 6.69811 8.07486 6.60657 8.1914L6.59352 8.20878C6.58986 8.21388 6.58629 8.21905 6.58282 8.22429C6.21699 8.69656 5.64362 9 5 9Z" fill="url(#paint2_linear_455_7967)"/>
<path d="M12.281 4.4544C12.1806 4.25774 12.0605 4.01838 11.8908 3.80575L11.1092 4.42942C11.2046 4.54904 11.2807 4.69424 11.3902 4.90884L12.281 4.4544ZM7 3.63658L6.40213 2.83499L6.40213 2.83499L7 3.63658ZM13.171 6.15809L12.6811 7.02986L12.7018 7.0415L12.7231 7.05215L13.171 6.15809ZM11.5 4.11759L10.7183 4.74126L10.7183 4.74126L11.5 4.11759ZM11.8358 4.68198L10.9444 5.1352L10.945 5.13642L11.8358 4.68198ZM11.8356 4.68162L10.9121 5.06535C10.9219 5.08891 10.9326 5.11209 10.9442 5.13484L11.8356 4.68162ZM6.60657 8.1914L5.82015 7.57371L5.81347 7.58222L5.80697 7.59087L6.60657 8.1914ZM7.39343 8.1914L8.19303 7.59087L8.18653 7.58221L8.17984 7.5737L7.39343 8.1914ZM7.40648 8.20877L6.60687 8.80932L6.61021 8.81372L7.40648 8.20877ZM6.58282 8.22429L7.37338 8.83667L7.3961 8.80735L7.41658 8.77642L6.58282 8.22429ZM6.59352 8.20878L5.79392 7.60824L5.78743 7.61689L5.78113 7.62567L6.59352 8.20878ZM10.5665 8.24358L9.95712 7.45068L9.85994 7.52536L9.78367 7.6213L10.5665 8.24358ZM11.2198 8.28216L12.0727 7.75998L12.0073 7.6533L11.9178 7.566L11.2198 8.28216ZM11.3269 8.43483L10.5452 9.05852L10.5452 9.05853L11.3269 8.43483ZM10.4378 8.39026L9.71896 7.69505L9.71896 7.69506L10.4378 8.39026ZM5 8C4.44772 8 4 7.55228 4 7H2C2 8.65685 3.34315 10 5 10V8ZM4 7C4 6.44772 4.44772 6 5 6V4C3.34315 4 2 5.34315 2 7H4ZM13 7.5C13 7.77614 12.7761 8 12.5 8V10C13.8807 10 15 8.88071 15 7.5H13ZM7.59787 4.43817C7.94883 4.17641 8.43809 4 9 4V2C8.0252 2 7.11269 2.30501 6.40213 2.83499L7.59787 4.43817ZM5 6C5.83942 6 6.38248 5.63754 6.78041 5.25339C6.94152 5.09786 7.12502 4.89037 7.23143 4.77719C7.36044 4.63997 7.47327 4.5311 7.59787 4.43817L6.40213 2.83499C6.14123 3.02958 5.93631 3.23491 5.77429 3.40724C5.58967 3.60361 5.50885 3.70103 5.39134 3.81448C5.23202 3.96827 5.16058 4 5 4V6ZM12.7231 7.05215C12.8894 7.13547 13 7.30571 13 7.5H15C15 6.51983 14.4358 5.67326 13.6189 5.26402L12.7231 7.05215ZM9 4C9.76984 4 10.3889 4.32839 10.7183 4.74126L12.2817 3.49391C11.5362 2.55953 10.3171 2 9 2V4ZM13.6609 5.28632C13.3651 5.12008 13.1907 4.95356 13.0694 4.80162C12.939 4.63832 12.85 4.46955 12.7265 4.22754L10.945 5.13642C11.2094 5.65475 11.5989 6.42167 12.6811 7.02986L13.6609 5.28632ZM12.7272 4.22876L12.727 4.2284L10.9442 5.13484L10.9444 5.1352L12.7272 4.22876ZM10.7183 4.74126C10.8021 4.84626 10.8664 4.95535 10.9121 5.06535L12.759 4.29789C12.6378 4.00617 12.4755 3.73677 12.2817 3.49391L10.7183 4.74126ZM7.39298 8.8091C7.3031 8.92353 7.16021 9 7 9V7C6.52042 7 6.09311 7.22619 5.82015 7.57371L7.39298 8.8091ZM7 9C6.8398 9 6.6969 8.92353 6.60702 8.8091L8.17984 7.5737C7.90688 7.22619 7.47958 7 7 7V9ZM8.20608 7.60824L8.19303 7.59087L6.59383 8.79194L6.60688 8.80931L8.20608 7.60824ZM7.41658 8.77642C7.41312 8.78164 7.40957 8.7868 7.40591 8.79188L5.78113 7.62567C5.77015 7.64096 5.75946 7.65646 5.74907 7.67216L7.41658 8.77642ZM7.39312 8.80931L7.40617 8.79194L5.80697 7.59087L5.79392 7.60824L7.39312 8.80931ZM5.79226 7.61191C5.60833 7.84935 5.3223 8 5 8V10C5.96494 10 6.82565 9.54377 7.37338 8.83667L5.79226 7.61191ZM9 8C8.67542 8 8.38706 7.84644 8.20274 7.60383L6.61021 8.81372C7.15643 9.53268 8.02382 10 9 10V8ZM11.1758 9.03648C11.0915 9.10126 10.9843 9.14027 10.8709 9.14027V7.14027C10.5283 7.14027 10.21 7.25631 9.95712 7.45068L11.1758 9.03648ZM10.8709 9.14027C10.7355 9.14027 10.611 9.08514 10.5219 8.99832L11.9178 7.566C11.6485 7.30357 11.2777 7.14027 10.8709 7.14027V9.14027ZM12.1085 7.81113C12.0955 7.7948 12.0835 7.77771 12.0727 7.75998L10.367 8.80433C10.4212 8.89294 10.4808 8.97781 10.5452 9.05852L12.1085 7.81113ZM9.78367 7.6213C9.76331 7.64691 9.74171 7.67153 9.71896 7.69505L11.1566 9.08546C11.2243 9.01548 11.2886 8.94219 11.3493 8.86585L9.78367 7.6213ZM9.71896 7.69506C9.53594 7.88429 9.28235 8 9 8V10C9.84639 10 10.6123 9.64819 11.1566 9.08546L9.71896 7.69506ZM12.5 8C12.3422 8 12.2018 7.92801 12.1085 7.81113L10.5452 9.05853C11.0016 9.63056 11.708 10 12.5 10V8Z" fill="white" fill-opacity="0.3" mask="url(#path-4-inside-2_455_7967)"/>
<defs>
<linearGradient id="paint0_linear_455_7967" x1="2.5" y1="11.5" x2="12.5" y2="11.5" gradientUnits="userSpaceOnUse">
<stop stop-color="#8DB5EB" stop-opacity="0.917647"/>
<stop offset="1" stop-color="#6097E1" stop-opacity="0.917647"/>
</linearGradient>
<linearGradient id="paint1_linear_455_7967" x1="5.5" y1="3" x2="11.5" y2="9" gradientUnits="userSpaceOnUse">
<stop stop-color="#A3A3A3" stop-opacity="0.933333"/>
<stop offset="1" stop-color="#5C5C5C" stop-opacity="0.941176"/>
</linearGradient>
<linearGradient id="paint2_linear_455_7967" x1="5.5" y1="3" x2="11.5" y2="9" gradientUnits="userSpaceOnUse">
<stop stop-color="#C4C4C4"/>
<stop offset="1" stop-color="#A0A0A0"/>
</linearGradient>
</defs>
</svg>
