<svg width="16" height="16" viewBox="0 0 16 16" fill="none" xmlns="http://www.w3.org/2000/svg">
<path d="M9.29362 3.96262L10.2405 2.96782L10.1348 4.33712L10.0722 5.14791L10.8239 4.83783L12.0935 4.31415L11.44 5.52208L11.0531 6.23731L11.866 6.25981L13.2388 6.29781L12.1505 7.13549L11.5061 7.6315L12.2395 7.98268L13.4782 8.57579L12.1433 8.89839L11.3528 9.0894L11.88 9.70855L12.7704 10.7542L11.4197 10.5059L10.6199 10.3589L10.8497 11.139L11.2378 12.4564L10.1048 11.6802L9.4339 11.2206L9.32656 12.0267L9.14526 13.388L8.42593 12.2181L8 11.5254L7.57407 12.2181L6.85474 13.388L6.67344 12.0267L6.5661 11.2206L5.89523 11.6802L4.76224 12.4564L5.15033 11.139L5.38013 10.3589L4.58033 10.5059L3.22958 10.7542L4.11995 9.70855L4.64716 9.0894L3.85671 8.89839L2.52177 8.57579L3.76047 7.98268L4.49393 7.6315L3.84951 7.13549L2.76119 6.29781L4.13404 6.25981L4.94693 6.23731L4.55997 5.52208L3.90645 4.31415L5.17607 4.83783L5.92783 5.14791L5.86524 4.33712L5.75953 2.96782L6.70638 3.96262L7.26703 4.55166L7.53963 3.78551L8 2.49159L8.46037 3.78551L8.73297 4.55166L9.29362 3.96262Z" stroke="url(#paint0_linear_455_8006)"/>
<circle cx="8" cy="8" r="4" fill="url(#paint1_linear_455_8006)"/>
<circle cx="8" cy="8" r="3.5" stroke="white" stroke-opacity="0.33" stroke-linejoin="round"/>
<defs>
<linearGradient id="paint0_linear_455_8006" x1="1" y1="1" x2="15" y2="15" gradientUnits="userSpaceOnUse">
<stop offset="0.14374" stop-color="#F4BD17"/>
<stop offset="0.847209" stop-color="#DAA513"/>
</linearGradient>
<linearGradient id="paint1_linear_455_8006" x1="4" y1="4" x2="12" y2="12" gradientUnits="userSpaceOnUse">
<stop offset="0.372336" stop-color="#F7D565"/>
<stop offset="0.611035" stop-color="#F6D150"/>
</linearGradient>
</defs>
</svg>
