<svg width="16" height="16" viewBox="0 0 16 16" fill="none" xmlns="http://www.w3.org/2000/svg">
<path d="M7.72709 3.77562L8.5371 2.92459L8.44667 4.096L8.38408 4.90679L9.13584 4.59671L10.222 4.14872L9.6629 5.18208L9.27594 5.89731L10.0888 5.91981L11.2633 5.95232L10.3322 6.66894L9.68782 7.16495L10.4213 7.51613L11.481 8.02352L10.3389 8.2995L9.5485 8.49052L10.0757 9.10967L10.8374 10.0042L9.68187 9.79182L8.88206 9.64482L9.11186 10.4249L9.44387 11.5519L8.47461 10.8879L7.80375 10.4283L7.6964 11.2343L7.54131 12.399L6.92593 11.3981L6.5 10.7054L6.07407 11.3981L5.45869 12.399L5.3036 11.2343L5.19625 10.4283L4.52539 10.8879L3.55613 11.5519L3.88814 10.4249L4.11794 9.64482L3.31813 9.79182L2.16259 10.0042L2.92429 9.10967L3.4515 8.49052L2.66105 8.2995L1.51903 8.02352L2.57872 7.51613L3.31218 7.16495L2.66776 6.66894L1.73672 5.95232L2.91117 5.91981L3.72406 5.89731L3.3371 5.18208L2.77803 4.14872L3.86416 4.59671L4.61592 4.90679L4.55333 4.096L4.4629 2.92459L5.27291 3.77562L5.83356 4.36466L6.10616 3.59851L6.5 2.49159L6.89384 3.59851L7.16644 4.36466L7.72709 3.77562Z" stroke="url(#paint0_linear_455_7964)"/>
<circle cx="6.5" cy="7.5" r="3.5" fill="url(#paint1_linear_455_7964)"/>
<circle cx="6.5" cy="7.5" r="3" stroke="white" stroke-opacity="0.33" stroke-linejoin="round"/>
<mask id="path-4-outside-1_455_7964" maskUnits="userSpaceOnUse" x="3" y="7" width="13" height="8" fill="black">
<rect fill="white" x="3" y="7" width="13" height="8"/>
<path d="M13 10.5C13 10.7147 12.9675 10.9232 12.9064 11.122C12.7576 11.6064 12.439 12.0341 12.0066 12.3585C11.9918 12.3696 11.9768 12.3806 11.9617 12.3915C11.4357 12.7706 10.75 13 10 13C9.24999 13 8.56426 12.7706 8.0383 12.3915C8.01555 12.3751 7.99311 12.3584 7.97096 12.3415C7.37409 11.8845 7 11.2287 7 10.5C7 10.424 7.00407 10.3488 7.01203 10.2746C7.08167 9.62524 7.44923 9.04737 8 8.63658C8.53076 8.24071 9.23165 8 10 8C11.0435 8 11.9625 8.44396 12.5 9.11759C12.6388 9.29152 12.7521 9.48076 12.8356 9.68162C12.9421 9.93803 13 10.2134 13 10.5Z"/>
<path d="M8 12C8 12.1164 7.99005 12.2305 7.97096 12.3415C7.91685 12.656 7.78929 12.9454 7.60657 13.1914C7.60225 13.1972 7.5979 13.203 7.59352 13.2088C7.58986 13.2139 7.58629 13.219 7.58282 13.2243C7.21699 13.6966 6.64362 14 6 14C4.89543 14 4 13.1046 4 12C4 10.8954 4.89543 10 6 10C6.36926 10 6.71515 10.1001 7.01203 10.2746C7.60319 10.6221 8 11.2647 8 12Z"/>
<path d="M12 12C12 12.134 11.9868 12.2649 11.9617 12.3915C11.8987 12.709 11.7605 12.9995 11.5665 13.2436C11.5259 13.2946 11.483 13.3435 11.4378 13.3903C11.0741 13.7662 10.5644 14 10 14C9.34962 14 8.77175 13.6896 8.40648 13.2088C8.40225 13.2029 8.3979 13.1971 8.39343 13.1914C8.22044 12.9585 8.09689 12.6867 8.0383 12.3915C8.01318 12.2649 8 12.134 8 12C8 10.8954 8.89543 10 10 10C11.1046 10 12 10.8954 12 12Z"/>
<path d="M15 12.5C15 13.3284 14.3284 14 13.5 14C13.0251 14 12.6017 13.7793 12.3269 13.4348C12.2881 13.3863 12.2524 13.3353 12.2198 13.2822C12.0804 13.0544 12 12.7866 12 12.5C12 12.4523 12.0022 12.4051 12.0066 12.3585C12.0586 11.8023 12.4144 11.3343 12.9064 11.122C13.0884 11.0435 13.2891 11 13.5 11C13.7412 11 13.9691 11.0569 14.171 11.1581C14.6626 11.4044 15 11.9128 15 12.5Z"/>
<path d="M6 10C6.36926 10 6.71515 10.1001 7.01203 10.2746C7.08167 9.62524 7.44923 9.04737 8 8.63658C7.229 9.21163 7 10 6 10Z"/>
<path d="M13 10.5C13 10.7147 12.9675 10.9232 12.9064 11.122C13.0884 11.0435 13.2891 11 13.5 11C13.7412 11 13.9691 11.0569 14.171 11.1581C13.3546 10.6993 13.0771 10.1551 12.8356 9.68162C12.9421 9.93803 13 10.2134 13 10.5Z"/>
<path d="M8.0383 12.3915C8.01555 12.3751 7.99311 12.3584 7.97096 12.3415C7.91685 12.656 7.78929 12.9454 7.60657 13.1914C7.69811 13.0749 7.84031 13 8 13C8.15969 13 8.30189 13.0749 8.39343 13.1914C8.22044 12.9585 8.09689 12.6867 8.0383 12.3915Z"/>
<path fill-rule="evenodd" clip-rule="evenodd" d="M8.39343 13.1914C8.3979 13.1971 8.40225 13.2029 8.40648 13.2088L8.39343 13.1914ZM7.60657 13.1914C7.60225 13.1972 7.5979 13.203 7.59352 13.2088L7.60657 13.1914Z"/>
<path d="M11.9617 12.3915C11.8987 12.709 11.7605 12.9995 11.5665 13.2436C11.6508 13.1788 11.7563 13.1403 11.8709 13.1403C12.0066 13.1403 12.1297 13.1944 12.2198 13.2822C12.0804 13.0544 12 12.7866 12 12.5C12 12.4523 12.0022 12.4051 12.0066 12.3585C11.9918 12.3696 11.9768 12.3806 11.9617 12.3915Z"/>
<path fill-rule="evenodd" clip-rule="evenodd" d="M12.2198 13.2822C12.2644 13.3256 12.3009 13.3773 12.3269 13.4348C12.2881 13.3863 12.2524 13.3353 12.2198 13.2822ZM11.4378 13.3903C11.4707 13.3333 11.5146 13.2835 11.5665 13.2436C11.5259 13.2946 11.483 13.3435 11.4378 13.3903Z"/>
</mask>
<path d="M7.01203 10.2746L6.75866 10.7056C6.90506 10.7917 7.08512 10.7975 7.23681 10.7212C7.3885 10.6449 7.49107 10.4967 7.50918 10.3279L7.01203 10.2746ZM12.9064 11.122L12.4285 10.9752C12.3712 11.1615 12.4275 11.3642 12.5727 11.4943C12.7178 11.6245 12.9254 11.6584 13.1044 11.5811L12.9064 11.122ZM12.8356 9.68162L13.2973 9.48976C13.2923 9.47776 13.2869 9.46597 13.281 9.4544L12.8356 9.68162ZM8.0383 12.3915L8.52874 12.2942L8.49041 12.101L8.33068 11.9859L8.0383 12.3915ZM7.97096 12.3415L8.27491 11.9445L7.61838 11.4418L7.4782 12.2567L7.97096 12.3415ZM7.60657 13.1914L8.00795 13.4896L7.60657 13.1914ZM8.39343 13.1914L7.9919 13.4897L8.00023 13.5003L8.39343 13.1914ZM11.9617 12.3915L11.6693 11.9859L11.5096 12.101L11.4713 12.2942L11.9617 12.3915ZM11.5665 13.2436L11.9579 13.5547L11.9579 13.5547L11.5665 13.2436ZM12.2198 13.2822L11.7934 13.5432L12.2198 13.2822ZM12.0066 12.3585L12.5044 12.4051L12.6096 11.281L11.7065 11.9585L12.0066 12.3585ZM13.5 11.5C13.6617 11.5 13.8131 11.538 13.947 11.6051L14.395 10.7111C14.1251 10.5759 13.8207 10.5 13.5 10.5V11.5ZM6 10.5C6.27777 10.5 6.53649 10.575 6.75866 10.7056L7.2654 9.84353C6.89382 9.62511 6.46076 9.5 6 9.5V10.5ZM7.50918 10.3279C7.56169 9.83828 7.84124 9.37875 8.29894 9.03737L7.70106 8.23578C7.05722 8.71599 6.60165 9.4122 6.51488 10.2213L7.50918 10.3279ZM12.5 10.5C12.5 10.6639 12.4753 10.8228 12.4285 10.9752L13.3843 11.2689C13.4598 11.0235 13.5 10.7656 13.5 10.5H12.5ZM13.1044 11.5811C13.2251 11.5291 13.3585 11.5 13.5 11.5V10.5C13.2198 10.5 12.9518 10.5579 12.7084 10.6629L13.1044 11.5811ZM12.3738 9.87348C12.4561 10.0714 12.5 10.2817 12.5 10.5H13.5C13.5 10.1451 13.4282 9.80469 13.2973 9.48976L12.3738 9.87348ZM13.281 9.4544C13.1806 9.25774 13.0605 9.01838 12.8908 8.80575L12.1092 9.42942C12.2046 9.54904 12.2807 9.69424 12.3902 9.90884L13.281 9.4544ZM8.33068 11.9859C8.31181 11.9723 8.29322 11.9585 8.27491 11.9445L7.66702 12.7385C7.69299 12.7584 7.7193 12.7779 7.74592 12.7971L8.33068 11.9859ZM7.4782 12.2567C7.43774 12.4919 7.34236 12.7086 7.20518 12.8933L8.00795 13.4896C8.23622 13.1822 8.39597 12.8201 8.46372 12.4263L7.4782 12.2567ZM8.79481 12.8933C8.66493 12.7184 8.57254 12.5149 8.52874 12.2942L7.54787 12.4888C7.62124 12.8585 7.77595 13.1986 7.99205 13.4895L8.79481 12.8933ZM8.00023 13.5003C8.00023 13.5003 8.00025 13.5003 8.00028 13.5003L8.81267 12.9172C8.80425 12.9055 8.79557 12.8939 8.78663 12.8825L8.00023 13.5003ZM7.20518 12.8933C7.20187 12.8977 7.1986 12.9021 7.19539 12.9063L7.99165 13.5113C7.9972 13.504 8.00263 13.4967 8.00795 13.4896L7.20518 12.8933ZM11.4713 12.2942C11.4242 12.5315 11.3208 12.7491 11.1751 12.9324L11.9579 13.5547C12.2002 13.2499 12.3732 12.8865 12.4521 12.4888L11.4713 12.2942ZM12.6462 13.0211C12.5535 12.8697 12.5 12.6919 12.5 12.5H11.5C11.5 12.8813 11.6072 13.2392 11.7934 13.5432L12.6462 13.0211ZM12.5 12.5C12.5 12.4678 12.5015 12.4362 12.5044 12.4051L11.5088 12.3119C11.503 12.374 11.5 12.4367 11.5 12.5H12.5ZM11.7065 11.9585C11.6942 11.9678 11.6818 11.9769 11.6693 11.9859L12.2541 12.7971C12.2718 12.7844 12.2893 12.7715 12.3067 12.7584L11.7065 11.9585ZM12.7177 13.123C12.6918 13.0905 12.6679 13.0565 12.6462 13.0211L11.7934 13.5432C11.8368 13.6141 11.8845 13.6821 11.936 13.7467L12.7177 13.123ZM11.1751 12.9324C11.1446 12.9707 11.1123 13.0075 11.0784 13.0427L11.7972 13.7379C11.8536 13.6795 11.9073 13.6184 11.9579 13.5547L11.1751 12.9324ZM8 8.63658L8.59787 9.43817V9.43817L8 8.63658ZM14.171 11.1581L13.6811 12.0299L13.7018 12.0415L13.7231 12.0522L14.171 11.1581ZM12.5 9.11759L11.7183 9.74126L12.5 9.11759ZM7.01203 10.2746L7.51878 9.41248C7.22598 9.24038 6.86584 9.22864 6.56247 9.38133C6.25909 9.53402 6.05395 9.83025 6.01773 10.1679L7.01203 10.2746ZM12.9064 11.122L13.8623 11.4158C13.9768 11.043 13.8642 10.6377 13.5739 10.3774C13.2835 10.1171 12.8684 10.0494 12.5103 10.2038L12.9064 11.122ZM12.8356 9.68162L11.9121 10.0653C11.9221 10.0893 11.933 10.1129 11.9448 10.1361L12.8356 9.68162ZM8.0383 12.3915L7.05743 12.5862L7.13409 12.9724L7.45354 13.2027L8.0383 12.3915ZM7.97096 12.3415L7.36308 13.1355L8.67612 14.1407L8.95649 12.511L7.97096 12.3415ZM7.60657 13.1914L6.82015 12.5737L6.81347 12.5822L6.80697 12.5909L7.60657 13.1914ZM8.39343 13.1914L9.19303 12.5909L9.18653 12.5822L9.17984 12.5737L8.39343 13.1914ZM8.40648 13.2088L7.60687 13.8093L7.61021 13.8137L8.40648 13.2088ZM7.58282 13.2243L8.37338 13.8367L8.3961 13.8073L8.41658 13.7764L7.58282 13.2243ZM7.59352 13.2088L6.79392 12.6082L6.78743 12.6169L6.78113 12.6257L7.59352 13.2088ZM11.9617 12.3915L12.5465 13.2027L12.8659 12.9724L12.9426 12.5862L11.9617 12.3915ZM11.5665 13.2436L10.9571 12.4507L10.9571 12.4507L11.5665 13.2436ZM12.2198 13.2822L12.9178 12.566L12.9178 12.566L12.2198 13.2822ZM12.0066 12.3585L11.0109 12.2653L10.8006 14.5135L12.6067 13.1584L12.0066 12.3585ZM12.3269 13.4348L11.4154 13.8461L11.467 13.9605L11.5452 14.0585L12.3269 13.4348ZM11.4378 13.3903L12.1566 14.0855L12.2419 13.9972L12.3034 13.891L11.4378 13.3903ZM6 13C5.44772 13 5 12.5523 5 12H3C3 13.6569 4.34315 15 6 15V13ZM5 12C5 11.4477 5.44772 11 6 11V9C4.34315 9 3 10.3431 3 12H5ZM9 12C9 11.4477 9.44772 11 10 11V9C8.34315 9 7 10.3431 7 12H9ZM10 11C10.5523 11 11 11.4477 11 12H13C13 10.3431 11.6569 9 10 9V11ZM14 12.5C14 12.7761 13.7761 13 13.5 13V15C14.8807 15 16 13.8807 16 12.5H14ZM8.59787 9.43817C8.94883 9.17641 9.43809 9 10 9V7C9.0252 7 8.11269 7.30501 7.40213 7.83499L8.59787 9.43817ZM6 11C6.83942 11 7.38248 10.6375 7.78041 10.2534C7.94152 10.0979 8.12502 9.89037 8.23143 9.77719C8.36044 9.63997 8.47327 9.5311 8.59787 9.43817L7.40213 7.83499C7.14123 8.02958 6.93631 8.23491 6.77429 8.40724C6.58967 8.60361 6.50885 8.70103 6.39134 8.81448C6.23202 8.96827 6.16058 9 6 9V11ZM13.7231 12.0522C13.8894 12.1355 14 12.3057 14 12.5H16C16 11.5198 15.4358 10.6733 14.6189 10.264L13.7231 12.0522ZM10 9C10.7698 9 11.3889 9.32839 11.7183 9.74126L13.2817 8.49391C12.5362 7.55953 11.3171 7 10 7V9ZM8 10.5C8 10.4597 8.00215 10.4202 8.00633 10.3812L6.01773 10.1679C6.00598 10.2775 6 10.3883 6 10.5H8ZM6.50528 11.1367C6.80348 11.312 7 11.6336 7 12H9C9 10.8958 8.4029 9.93218 7.51878 9.41248L6.50528 11.1367ZM14.6609 10.2863C14.365 10.12 14.1906 9.95348 14.0693 9.8015C13.9389 9.63814 13.8499 9.46933 13.7263 9.22718L11.9448 10.1361C12.2092 10.6543 12.5986 11.4215 13.6811 12.0299L14.6609 10.2863ZM11.7183 9.74126C11.8021 9.84627 11.8664 9.95535 11.9121 10.0653L13.759 9.29789C13.6378 9.00617 13.4754 8.73677 13.2817 8.49391L11.7183 9.74126ZM8.39298 13.8091C8.3031 13.9235 8.16021 14 8 14V12C7.52042 12 7.09311 12.2262 6.82015 12.5737L8.39298 13.8091ZM8 14C7.8398 14 7.6969 13.9235 7.60702 13.8091L9.17984 12.5737C8.90688 12.2262 8.47958 12 8 12V14ZM7 12C7 12.0594 6.99494 12.1167 6.98544 12.1719L8.95649 12.511C8.98517 12.3443 9 12.1735 9 12H7ZM9.01917 12.1968C9.0067 12.134 9 12.0683 9 12H7C7 12.1997 7.01965 12.3958 7.05743 12.5862L9.01917 12.1968ZM10 12C9.45171 12 8.97222 11.832 8.62306 11.5803L7.45354 13.2027C8.1563 13.7093 9.04827 14 10 14V12ZM8.57885 11.5475C8.18592 11.2466 8 10.8667 8 10.5H6C6 11.5906 6.56226 12.5224 7.36308 13.1355L8.57885 11.5475ZM9.20608 12.6082L9.19303 12.5909L7.59383 13.7919L7.60688 13.8093L9.20608 12.6082ZM8.41658 13.7764C8.41312 13.7816 8.40957 13.7868 8.40591 13.7919L6.78113 12.6257C6.77015 12.641 6.75946 12.6565 6.74907 12.6722L8.41658 13.7764ZM8.39312 13.8093L8.40617 13.7919L6.80697 12.5909L6.79392 12.6082L8.39312 13.8093ZM6.79226 12.6119C6.60833 12.8493 6.3223 13 6 13V15C6.96494 15 7.82565 14.5438 8.37338 13.8367L6.79226 12.6119ZM10 13C9.67542 13 9.38706 12.8464 9.20274 12.6038L7.61021 13.8137C8.15643 14.5327 9.02382 15 10 15V13ZM12.1758 14.0365C12.0915 14.1013 11.9843 14.1403 11.8709 14.1403V12.1403C11.5283 12.1403 11.21 12.2563 10.9571 12.4507L12.1758 14.0365ZM11.8709 14.1403C11.7355 14.1403 11.611 14.0851 11.5219 13.9983L12.9178 12.566C12.6485 12.3036 12.2777 12.1403 11.8709 12.1403V14.1403ZM13.0022 12.4517C13.0193 12.2693 13.1368 12.1117 13.3025 12.0403L12.5103 10.2038C11.692 10.5568 11.098 11.3352 11.0109 12.2653L13.0022 12.4517ZM11.9505 10.8283C11.8715 11.0854 11.6921 11.3443 11.4064 11.5586L12.6067 13.1584C13.1859 12.7239 13.6436 12.1274 13.8623 11.4158L11.9505 10.8283ZM11.3769 11.5803C11.0278 11.832 10.5483 12 10 12V14C10.9517 14 11.8437 13.7093 12.5465 13.2027L11.3769 11.5803ZM11 12C11 12.0683 10.9933 12.134 10.9808 12.1968L12.9426 12.5862C12.9803 12.3958 13 12.1997 13 12H11ZM11.5219 13.9983C11.478 13.9556 11.4416 13.9042 11.4154 13.8461L13.2384 13.0235C13.1603 12.8504 13.0508 12.6957 12.9178 12.566L11.5219 13.9983ZM12.3034 13.891C12.2705 13.9479 12.2271 13.9971 12.1758 14.0365L10.9571 12.4507C10.8021 12.5698 10.671 12.7188 10.5722 12.8895L12.3034 13.891ZM10.719 12.6951C10.5359 12.8843 10.2823 13 10 13V15C10.8464 15 11.6123 14.6482 12.1566 14.0855L10.719 12.6951ZM13.5 13C13.3422 13 13.2018 12.928 13.1085 12.8111L11.5452 14.0585C12.0016 14.6306 12.708 15 13.5 15V13Z" fill="url(#paint2_linear_455_7964)" mask="url(#path-4-outside-1_455_7964)"/>
<mask id="path-6-inside-2_455_7964" fill="white">
<path d="M6 14C4.89543 14 4 13.1046 4 12C4 10.8954 4.89543 10 6 10C7 10 7.229 9.21163 8 8.63658C8.53076 8.24071 9.23165 8 10 8C11.0435 8 11.9625 8.44396 12.5 9.11759C12.6388 9.29152 12.7521 9.48076 12.8356 9.68162L12.8358 9.68198C13.0772 10.1553 13.3548 10.6994 14.171 11.1581C14.6626 11.4044 15 11.9128 15 12.5C15 13.3284 14.3284 14 13.5 14C13.0251 14 12.6017 13.7793 12.3269 13.4348C12.2881 13.3863 12.2524 13.3353 12.2198 13.2822C12.1297 13.1944 12.0066 13.1403 11.8709 13.1403C11.7563 13.1403 11.6508 13.1788 11.5665 13.2436C11.5259 13.2946 11.483 13.3435 11.4378 13.3903C11.0741 13.7662 10.5644 14 10 14C9.34962 14 8.77175 13.6896 8.40648 13.2088L8.39343 13.1914C8.30189 13.0749 8.15969 13 8 13C7.84031 13 7.69811 13.0749 7.60657 13.1914L7.59352 13.2088C7.58986 13.2139 7.58629 13.219 7.58282 13.2243C7.21699 13.6966 6.64362 14 6 14Z"/>
</mask>
<path d="M6 14C4.89543 14 4 13.1046 4 12C4 10.8954 4.89543 10 6 10C7 10 7.229 9.21163 8 8.63658C8.53076 8.24071 9.23165 8 10 8C11.0435 8 11.9625 8.44396 12.5 9.11759C12.6388 9.29152 12.7521 9.48076 12.8356 9.68162L12.8358 9.68198C13.0772 10.1553 13.3548 10.6994 14.171 11.1581C14.6626 11.4044 15 11.9128 15 12.5C15 13.3284 14.3284 14 13.5 14C13.0251 14 12.6017 13.7793 12.3269 13.4348C12.2881 13.3863 12.2524 13.3353 12.2198 13.2822C12.1297 13.1944 12.0066 13.1403 11.8709 13.1403C11.7563 13.1403 11.6508 13.1788 11.5665 13.2436C11.5259 13.2946 11.483 13.3435 11.4378 13.3903C11.0741 13.7662 10.5644 14 10 14C9.34962 14 8.77175 13.6896 8.40648 13.2088L8.39343 13.1914C8.30189 13.0749 8.15969 13 8 13C7.84031 13 7.69811 13.0749 7.60657 13.1914L7.59352 13.2088C7.58986 13.2139 7.58629 13.219 7.58282 13.2243C7.21699 13.6966 6.64362 14 6 14Z" fill="url(#paint3_linear_455_7964)"/>
<path d="M13.281 9.4544C13.1806 9.25774 13.0605 9.01838 12.8908 8.80575L12.1092 9.42942C12.2046 9.54904 12.2807 9.69424 12.3902 9.90884L13.281 9.4544ZM8 8.63658L7.40213 7.83499L7.40213 7.83499L8 8.63658ZM14.171 11.1581L13.6811 12.0299L13.7018 12.0415L13.7231 12.0522L14.171 11.1581ZM12.5 9.11759L11.7183 9.74126L11.7183 9.74126L12.5 9.11759ZM12.8358 9.68198L11.9444 10.1352L11.945 10.1364L12.8358 9.68198ZM12.8356 9.68162L11.9121 10.0653C11.9219 10.0889 11.9326 10.1121 11.9442 10.1348L12.8356 9.68162ZM7.60657 13.1914L6.82015 12.5737L6.81347 12.5822L6.80697 12.5909L7.60657 13.1914ZM8.39343 13.1914L9.19303 12.5909L9.18653 12.5822L9.17984 12.5737L8.39343 13.1914ZM8.40648 13.2088L7.60687 13.8093L7.61021 13.8137L8.40648 13.2088ZM7.58282 13.2243L8.37338 13.8367L8.3961 13.8073L8.41658 13.7764L7.58282 13.2243ZM7.59352 13.2088L6.79392 12.6082L6.78743 12.6169L6.78113 12.6257L7.59352 13.2088ZM11.5665 13.2436L10.9571 12.4507L10.8599 12.5254L10.7837 12.6213L11.5665 13.2436ZM12.2198 13.2822L13.0727 12.76L13.0073 12.6533L12.9178 12.566L12.2198 13.2822ZM12.3269 13.4348L11.5452 14.0585L11.5452 14.0585L12.3269 13.4348ZM11.4378 13.3903L10.719 12.6951L10.719 12.6951L11.4378 13.3903ZM6 13C5.44772 13 5 12.5523 5 12H3C3 13.6569 4.34315 15 6 15V13ZM5 12C5 11.4477 5.44772 11 6 11V9C4.34315 9 3 10.3431 3 12H5ZM14 12.5C14 12.7761 13.7761 13 13.5 13V15C14.8807 15 16 13.8807 16 12.5H14ZM8.59787 9.43817C8.94883 9.17641 9.43809 9 10 9V7C9.0252 7 8.11269 7.30501 7.40213 7.83499L8.59787 9.43817ZM6 11C6.83942 11 7.38248 10.6375 7.78041 10.2534C7.94152 10.0979 8.12502 9.89037 8.23143 9.77719C8.36044 9.63997 8.47327 9.5311 8.59787 9.43817L7.40213 7.83499C7.14123 8.02958 6.93631 8.23491 6.77429 8.40724C6.58967 8.60361 6.50885 8.70103 6.39134 8.81448C6.23202 8.96827 6.16058 9 6 9V11ZM13.7231 12.0522C13.8894 12.1355 14 12.3057 14 12.5H16C16 11.5198 15.4358 10.6733 14.6189 10.264L13.7231 12.0522ZM10 9C10.7698 9 11.3889 9.32839 11.7183 9.74126L13.2817 8.49391C12.5362 7.55953 11.3171 7 10 7V9ZM14.6609 10.2863C14.3651 10.1201 14.1907 9.95356 14.0694 9.80162C13.939 9.63832 13.85 9.46955 13.7265 9.22754L11.945 10.1364C12.2094 10.6547 12.5989 11.4217 13.6811 12.0299L14.6609 10.2863ZM13.7272 9.22876L13.727 9.2284L11.9442 10.1348L11.9444 10.1352L13.7272 9.22876ZM11.7183 9.74126C11.8021 9.84626 11.8664 9.95535 11.9121 10.0653L13.759 9.29789C13.6378 9.00617 13.4755 8.73677 13.2817 8.49391L11.7183 9.74126ZM8.39298 13.8091C8.3031 13.9235 8.16021 14 8 14V12C7.52042 12 7.09311 12.2262 6.82015 12.5737L8.39298 13.8091ZM8 14C7.8398 14 7.6969 13.9235 7.60702 13.8091L9.17984 12.5737C8.90688 12.2262 8.47958 12 8 12V14ZM9.20608 12.6082L9.19303 12.5909L7.59383 13.7919L7.60688 13.8093L9.20608 12.6082ZM8.41658 13.7764C8.41312 13.7816 8.40957 13.7868 8.40591 13.7919L6.78113 12.6257C6.77015 12.641 6.75946 12.6565 6.74907 12.6722L8.41658 13.7764ZM8.39312 13.8093L8.40617 13.7919L6.80697 12.5909L6.79392 12.6082L8.39312 13.8093ZM6.79226 12.6119C6.60833 12.8493 6.3223 13 6 13V15C6.96494 15 7.82565 14.5438 8.37338 13.8367L6.79226 12.6119ZM10 13C9.67542 13 9.38706 12.8464 9.20274 12.6038L7.61021 13.8137C8.15643 14.5327 9.02382 15 10 15V13ZM12.1758 14.0365C12.0915 14.1013 11.9843 14.1403 11.8709 14.1403V12.1403C11.5283 12.1403 11.21 12.2563 10.9571 12.4507L12.1758 14.0365ZM11.8709 14.1403C11.7355 14.1403 11.611 14.0851 11.5219 13.9983L12.9178 12.566C12.6485 12.3036 12.2777 12.1403 11.8709 12.1403V14.1403ZM13.1085 12.8111C13.0955 12.7948 13.0835 12.7777 13.0727 12.76L11.367 13.8043C11.4212 13.8929 11.4808 13.9778 11.5452 14.0585L13.1085 12.8111ZM10.7837 12.6213C10.7633 12.6469 10.7417 12.6715 10.719 12.6951L12.1566 14.0855C12.2243 14.0155 12.2886 13.9422 12.3493 13.8659L10.7837 12.6213ZM10.719 12.6951C10.5359 12.8843 10.2823 13 10 13V15C10.8464 15 11.6123 14.6482 12.1566 14.0855L10.719 12.6951ZM13.5 13C13.3422 13 13.2018 12.928 13.1085 12.8111L11.5452 14.0585C12.0016 14.6306 12.708 15 13.5 15V13Z" fill="white" fill-opacity="0.3" mask="url(#path-6-inside-2_455_7964)"/>
<defs>
<linearGradient id="paint0_linear_455_7964" x1="0" y1="1" x2="13" y2="14" gradientUnits="userSpaceOnUse">
<stop offset="0.14374" stop-color="#F4BD17"/>
<stop offset="0.847209" stop-color="#DAA513"/>
</linearGradient>
<linearGradient id="paint1_linear_455_7964" x1="3" y1="4" x2="10" y2="11" gradientUnits="userSpaceOnUse">
<stop offset="0.372336" stop-color="#F7D565"/>
<stop offset="0.611035" stop-color="#F6D150"/>
</linearGradient>
<linearGradient id="paint2_linear_455_7964" x1="6.5" y1="8" x2="12.5" y2="14" gradientUnits="userSpaceOnUse">
<stop stop-color="#B9B9B9" stop-opacity="0.835294"/>
<stop offset="1" stop-color="#808080" stop-opacity="0.941176"/>
</linearGradient>
<linearGradient id="paint3_linear_455_7964" x1="6.5" y1="8" x2="12.5" y2="14" gradientUnits="userSpaceOnUse">
<stop stop-color="#F3F3F3"/>
<stop offset="1" stop-color="#E8E8E8"/>
</linearGradient>
</defs>
</svg>
