<svg width="16" height="16" viewBox="0 0 16 16" fill="none" xmlns="http://www.w3.org/2000/svg">
<mask id="path-1-outside-1_455_7965" maskUnits="userSpaceOnUse" x="0" y="2" width="12" height="8" fill="black">
<rect fill="white" y="2" width="12" height="8"/>
<path d="M3 9C1.89543 9 1 8.10457 1 7C1 5.89543 1.89543 5 3 5C3 5 3.229 4.21163 4 3.63658C4.53076 3.24071 5.23165 3 6 3C7.04349 3 7.96254 3.44396 8.5 4.11759C8.63877 4.29152 8.75211 4.48076 8.83557 4.68162L8.83576 4.68198C9.07724 5.15533 9.3548 5.69939 10.171 6.15809C10.6626 6.40436 11 6.91277 11 7.5C11 8.32843 10.3284 9 9.5 9H3Z"/>
</mask>
<path d="M9.28096 4.4544C9.18063 4.25774 9.0605 4.01838 8.89084 3.80575L8.10916 4.42942C8.2046 4.54904 8.2807 4.69424 8.39018 4.90884L9.28096 4.4544ZM3 5V6H3.75086L3.96031 5.27894L3 5ZM4 3.63658L3.40213 2.83499L3.40213 2.83499L4 3.63658ZM10.171 6.15809L9.68109 7.02986L9.70182 7.0415L9.72307 7.05215L10.171 6.15809ZM8.5 4.11759L7.71832 4.74126L7.71832 4.74126L8.5 4.11759ZM8.83576 4.68198L7.94436 5.1352L7.94498 5.13642L8.83576 4.68198ZM8.83557 4.68162L7.91213 5.06535C7.92192 5.08891 7.93261 5.11209 7.94417 5.13484L8.83557 4.68162ZM3 8C2.44772 8 2 7.55228 2 7H0C0 8.65685 1.34315 10 3 10V8ZM2 7C2 6.44772 2.44772 6 3 6V4C1.34315 4 0 5.34315 0 7H2ZM10 7.5C10 7.77614 9.77614 8 9.5 8V10C10.8807 10 12 8.88071 12 7.5H10ZM4.59787 4.43817C4.94883 4.17641 5.43809 4 6 4V2C5.0252 2 4.11269 2.30501 3.40213 2.83499L4.59787 4.43817ZM3 5C3.96031 5.27894 3.96021 5.27927 3.96012 5.2796C3.96009 5.2797 3.95999 5.28003 3.95993 5.28024C3.95981 5.28065 3.95969 5.28106 3.95957 5.28146C3.95934 5.28225 3.95912 5.283 3.95891 5.28371C3.95849 5.28512 3.95812 5.28636 3.9578 5.28743C3.95715 5.28956 3.9567 5.29101 3.95645 5.2918C3.95595 5.29339 3.95624 5.29238 3.9574 5.28901C3.95972 5.28222 3.96541 5.2662 3.97492 5.24267C3.99411 5.19521 4.02778 5.11995 4.07922 5.02989C4.1835 4.84731 4.34943 4.62347 4.59787 4.43817L3.40213 2.83499C2.87957 3.22474 2.5455 3.68261 2.34253 4.03798C2.24034 4.21689 2.16858 4.37467 2.12074 4.493C2.09673 4.55236 2.0785 4.60242 2.06529 4.64099C2.05868 4.6603 2.0533 4.67679 2.04907 4.69021C2.04696 4.69692 2.04512 4.70287 2.04356 4.70802C2.04279 4.71059 2.04207 4.71297 2.04143 4.71514C2.04111 4.71623 2.0408 4.71727 2.04051 4.71825C2.04037 4.71875 2.04023 4.71923 2.04009 4.71969C2.04002 4.71993 2.03992 4.72027 2.03989 4.72038C2.03979 4.72072 2.03969 4.72106 3 5ZM9.72307 7.05215C9.88936 7.13547 10 7.30571 10 7.5H12C12 6.51983 11.4358 5.67326 10.6189 5.26402L9.72307 7.05215ZM6 4C6.76984 4 7.3889 4.32839 7.71832 4.74126L9.28168 3.49391C8.53618 2.55953 7.31713 2 6 2V4ZM10.6609 5.28632C10.3651 5.12008 10.1907 4.95356 10.0694 4.80162C9.93899 4.63832 9.85 4.46955 9.72653 4.22754L7.94498 5.13642C8.20941 5.65475 8.59888 6.42167 9.68109 7.02986L10.6609 5.28632ZM9.72715 4.22876L9.72697 4.2284L7.94417 5.13484L7.94436 5.1352L9.72715 4.22876ZM7.71832 4.74126C7.8021 4.84627 7.86642 4.95535 7.91213 5.06535L9.75902 4.29789C9.6378 4.00617 9.47545 3.73676 9.28168 3.49391L7.71832 4.74126ZM9.5 8H3V10H9.5V8Z" fill="url(#paint0_linear_455_7965)" mask="url(#path-1-outside-1_455_7965)"/>
<mask id="path-3-inside-2_455_7965" fill="white">
<path d="M3 9C1.89543 9 1 8.10457 1 7C1 5.89543 1.89543 5 3 5C3 5 3.229 4.21163 4 3.63658C4.53076 3.24071 5.23165 3 6 3C7.04349 3 7.96254 3.44396 8.5 4.11759C8.63877 4.29152 8.75211 4.48076 8.83557 4.68162L8.83576 4.68198C9.07724 5.15533 9.3548 5.69939 10.171 6.15809C10.6626 6.40436 11 6.91277 11 7.5C11 8.32843 10.3284 9 9.5 9H3Z"/>
</mask>
<path d="M3 9C1.89543 9 1 8.10457 1 7C1 5.89543 1.89543 5 3 5C3 5 3.229 4.21163 4 3.63658C4.53076 3.24071 5.23165 3 6 3C7.04349 3 7.96254 3.44396 8.5 4.11759C8.63877 4.29152 8.75211 4.48076 8.83557 4.68162L8.83576 4.68198C9.07724 5.15533 9.3548 5.69939 10.171 6.15809C10.6626 6.40436 11 6.91277 11 7.5C11 8.32843 10.3284 9 9.5 9H3Z" fill="url(#paint1_linear_455_7965)"/>
<path d="M9.28096 4.4544C9.18063 4.25774 9.0605 4.01838 8.89084 3.80575L8.10916 4.42942C8.2046 4.54904 8.2807 4.69424 8.39018 4.90884L9.28096 4.4544ZM3 5V6H3.75086L3.96031 5.27894L3 5ZM4 3.63658L3.40213 2.83499L3.40213 2.83499L4 3.63658ZM10.171 6.15809L9.68109 7.02986L9.70182 7.0415L9.72307 7.05215L10.171 6.15809ZM8.5 4.11759L7.71832 4.74126L7.71832 4.74126L8.5 4.11759ZM8.83576 4.68198L7.94436 5.1352L7.94498 5.13642L8.83576 4.68198ZM8.83557 4.68162L7.91213 5.06535C7.92192 5.08891 7.93261 5.11209 7.94417 5.13484L8.83557 4.68162ZM3 8C2.44772 8 2 7.55228 2 7H0C0 8.65685 1.34315 10 3 10V8ZM2 7C2 6.44772 2.44772 6 3 6V4C1.34315 4 0 5.34315 0 7H2ZM10 7.5C10 7.77614 9.77614 8 9.5 8V10C10.8807 10 12 8.88071 12 7.5H10ZM4.59787 4.43817C4.94883 4.17641 5.43809 4 6 4V2C5.0252 2 4.11269 2.30501 3.40213 2.83499L4.59787 4.43817ZM3 5C3.96031 5.27894 3.96021 5.27927 3.96012 5.2796C3.96009 5.2797 3.95999 5.28003 3.95993 5.28024C3.95981 5.28065 3.95969 5.28106 3.95957 5.28146C3.95934 5.28225 3.95912 5.283 3.95891 5.28371C3.95849 5.28512 3.95812 5.28636 3.9578 5.28743C3.95715 5.28956 3.9567 5.29101 3.95645 5.2918C3.95595 5.29339 3.95624 5.29238 3.9574 5.28901C3.95972 5.28222 3.96541 5.2662 3.97492 5.24267C3.99411 5.19521 4.02778 5.11995 4.07922 5.02989C4.1835 4.84731 4.34943 4.62347 4.59787 4.43817L3.40213 2.83499C2.87957 3.22474 2.5455 3.68261 2.34253 4.03798C2.24034 4.21689 2.16858 4.37467 2.12074 4.493C2.09673 4.55236 2.0785 4.60242 2.06529 4.64099C2.05868 4.6603 2.0533 4.67679 2.04907 4.69021C2.04696 4.69692 2.04512 4.70287 2.04356 4.70802C2.04279 4.71059 2.04207 4.71297 2.04143 4.71514C2.04111 4.71623 2.0408 4.71727 2.04051 4.71825C2.04037 4.71875 2.04023 4.71923 2.04009 4.71969C2.04002 4.71993 2.03992 4.72027 2.03989 4.72038C2.03979 4.72072 2.03969 4.72106 3 5ZM9.72307 7.05215C9.88936 7.13547 10 7.30571 10 7.5H12C12 6.51983 11.4358 5.67326 10.6189 5.26402L9.72307 7.05215ZM6 4C6.76984 4 7.3889 4.32839 7.71832 4.74126L9.28168 3.49391C8.53618 2.55953 7.31713 2 6 2V4ZM10.6609 5.28632C10.3651 5.12008 10.1907 4.95356 10.0694 4.80162C9.93899 4.63832 9.85 4.46955 9.72653 4.22754L7.94498 5.13642C8.20941 5.65475 8.59888 6.42167 9.68109 7.02986L10.6609 5.28632ZM9.72715 4.22876L9.72697 4.2284L7.94417 5.13484L7.94436 5.1352L9.72715 4.22876ZM7.71832 4.74126C7.8021 4.84627 7.86642 4.95535 7.91213 5.06535L9.75902 4.29789C9.6378 4.00617 9.47545 3.73676 9.28168 3.49391L7.71832 4.74126ZM9.5 8H3V10H9.5V8Z" fill="white" fill-opacity="0.3" mask="url(#path-3-inside-2_455_7965)"/>
<mask id="path-5-outside-3_455_7965" maskUnits="userSpaceOnUse" x="3" y="5" width="13" height="8" fill="black">
<rect fill="white" x="3" y="5" width="13" height="8"/>
<path d="M13 8.5C13 8.71475 12.9675 8.92317 12.9064 9.12204C12.7576 9.60639 12.439 10.0341 12.0066 10.3585C11.9918 10.3696 11.9768 10.3806 11.9617 10.3915C11.4357 10.7706 10.75 11 10 11C9.24999 11 8.56426 10.7706 8.0383 10.3915C8.01555 10.3751 7.99311 10.3584 7.97096 10.3415C7.37409 9.88453 7 9.22867 7 8.5C7 8.42402 7.00407 8.34883 7.01203 8.27458C7.08167 7.62524 7.44923 7.04737 8 6.63658C8.53076 6.24071 9.23165 6 10 6C11.0435 6 11.9625 6.44396 12.5 7.11759C12.6388 7.29152 12.7521 7.48076 12.8356 7.68162C12.9421 7.93803 13 8.21338 13 8.5Z"/>
<path d="M8 10C8 10.1164 7.99005 10.2305 7.97096 10.3415C7.91685 10.656 7.78929 10.9454 7.60657 11.1914C7.60225 11.1972 7.5979 11.203 7.59352 11.2088C7.58986 11.2139 7.58629 11.219 7.58282 11.2243C7.21699 11.6966 6.64362 12 6 12C4.89543 12 4 11.1046 4 10C4 8.89543 4.89543 8 6 8C6.36926 8 6.71515 8.10007 7.01203 8.27458C7.60319 8.62207 8 9.26469 8 10Z"/>
<path d="M12 10C12 10.134 11.9868 10.2649 11.9617 10.3915C11.8987 10.709 11.7605 10.9995 11.5665 11.2436C11.5259 11.2946 11.483 11.3435 11.4378 11.3903C11.0741 11.7662 10.5644 12 10 12C9.34962 12 8.77175 11.6896 8.40648 11.2088C8.40225 11.2029 8.3979 11.1971 8.39343 11.1914C8.22044 10.9585 8.09689 10.6867 8.0383 10.3915C8.01318 10.2649 8 10.134 8 10C8 8.89543 8.89543 8 10 8C11.1046 8 12 8.89543 12 10Z"/>
<path d="M15 10.5C15 11.3284 14.3284 12 13.5 12C13.0251 12 12.6017 11.7793 12.3269 11.4348C12.2881 11.3863 12.2524 11.3353 12.2198 11.2822C12.0804 11.0544 12 10.7866 12 10.5C12 10.4523 12.0022 10.4051 12.0066 10.3585C12.0586 9.80225 12.4144 9.33426 12.9064 9.12204C13.0884 9.04351 13.2891 9 13.5 9C13.7412 9 13.9691 9.05693 14.171 9.15809C14.6626 9.40436 15 9.91277 15 10.5Z"/>
<path d="M6 8C6.36926 8 6.71515 8.10007 7.01203 8.27458C7.08167 7.62524 7.44923 7.04737 8 6.63658C7.229 7.21163 7 8 6 8Z"/>
<path d="M13 8.5C13 8.71475 12.9675 8.92317 12.9064 9.12204C13.0884 9.04351 13.2891 9 13.5 9C13.7412 9 13.9691 9.05693 14.171 9.15809C13.3546 8.69928 13.0771 8.15506 12.8356 7.68162C12.9421 7.93803 13 8.21338 13 8.5Z"/>
<path d="M8.0383 10.3915C8.01555 10.3751 7.99311 10.3584 7.97096 10.3415C7.91685 10.656 7.78929 10.9454 7.60657 11.1914C7.69811 11.0749 7.84031 11 8 11C8.15969 11 8.30189 11.0749 8.39343 11.1914C8.22044 10.9585 8.09689 10.6867 8.0383 10.3915Z"/>
<path fill-rule="evenodd" clip-rule="evenodd" d="M8.39343 11.1914C8.3979 11.1971 8.40225 11.2029 8.40648 11.2088L8.39343 11.1914ZM7.60657 11.1914C7.60225 11.1972 7.5979 11.203 7.59352 11.2088L7.60657 11.1914Z"/>
<path d="M11.9617 10.3915C11.8987 10.709 11.7605 10.9995 11.5665 11.2436C11.6508 11.1788 11.7563 11.1403 11.8709 11.1403C12.0066 11.1403 12.1297 11.1944 12.2198 11.2822C12.0804 11.0544 12 10.7866 12 10.5C12 10.4523 12.0022 10.4051 12.0066 10.3585C11.9918 10.3696 11.9768 10.3806 11.9617 10.3915Z"/>
<path fill-rule="evenodd" clip-rule="evenodd" d="M12.2198 11.2822C12.2644 11.3256 12.3009 11.3773 12.3269 11.4348C12.2881 11.3863 12.2524 11.3353 12.2198 11.2822ZM11.4378 11.3903C11.4707 11.3333 11.5146 11.2835 11.5665 11.2436C11.5259 11.2946 11.483 11.3435 11.4378 11.3903Z"/>
</mask>
<path d="M7.01203 8.27458L6.75866 8.70563C6.90506 8.79168 7.08512 8.79755 7.23681 8.7212C7.3885 8.64486 7.49107 8.49674 7.50918 8.3279L7.01203 8.27458ZM12.9064 9.12204L12.4285 8.97517C12.3712 9.16154 12.4275 9.36421 12.5727 9.49435C12.7178 9.62449 12.9254 9.65837 13.1044 9.58115L12.9064 9.12204ZM12.8356 7.68162L13.2973 7.48976C13.2923 7.47776 13.2869 7.46597 13.281 7.4544L12.8356 7.68162ZM8.0383 10.3915L8.52874 10.2942L8.49041 10.101L8.33068 9.9859L8.0383 10.3915ZM7.97096 10.3415L8.27491 9.94447L7.61838 9.44185L7.4782 10.2567L7.97096 10.3415ZM7.60657 11.1914L8.00795 11.4896L7.60657 11.1914ZM8.39343 11.1914L7.9919 11.4897L8.00023 11.5003L8.39343 11.1914ZM11.9617 10.3915L11.6693 9.9859L11.5096 10.101L11.4713 10.2942L11.9617 10.3915ZM11.5665 11.2436L11.9579 11.5547L11.9579 11.5547L11.5665 11.2436ZM12.2198 11.2822L11.7934 11.5432L12.2198 11.2822ZM12.0066 10.3585L12.5044 10.4051L12.6096 9.28097L11.7065 9.95855L12.0066 10.3585ZM13.5 9.5C13.6617 9.5 13.8131 9.53801 13.947 9.60512L14.395 8.71106C14.1251 8.57586 13.8207 8.5 13.5 8.5V9.5ZM6 8.5C6.27777 8.5 6.53649 8.57503 6.75866 8.70563L7.2654 7.84353C6.89382 7.62511 6.46076 7.5 6 7.5V8.5ZM7.50918 8.3279C7.56169 7.83828 7.84124 7.37875 8.29894 7.03737L7.70106 6.23578C7.05722 6.71599 6.60165 7.4122 6.51488 8.22126L7.50918 8.3279ZM12.5 8.5C12.5 8.66388 12.4753 8.82284 12.4285 8.97517L13.3843 9.2689C13.4598 9.0235 13.5 8.76561 13.5 8.5H12.5ZM13.1044 9.58115C13.2251 9.52909 13.3585 9.5 13.5 9.5V8.5C13.2198 8.5 12.9518 8.55793 12.7084 8.66293L13.1044 9.58115ZM12.3738 7.87348C12.4561 8.07137 12.5 8.28167 12.5 8.5H13.5C13.5 8.1451 13.4282 7.80469 13.2973 7.48976L12.3738 7.87348ZM13.281 7.4544C13.1806 7.25774 13.0605 7.01838 12.8908 6.80575L12.1092 7.42942C12.2046 7.54904 12.2807 7.69424 12.3902 7.90884L13.281 7.4544ZM8.33068 9.9859C8.31181 9.9723 8.29322 9.95849 8.27491 9.94447L7.66702 10.7385C7.69299 10.7584 7.7193 10.7779 7.74592 10.7971L8.33068 9.9859ZM7.4782 10.2567C7.43774 10.4919 7.34236 10.7086 7.20518 10.8933L8.00795 11.4896C8.23622 11.1822 8.39597 10.8201 8.46372 10.4263L7.4782 10.2567ZM8.79481 10.8933C8.66493 10.7184 8.57254 10.5149 8.52874 10.2942L7.54787 10.4888C7.62124 10.8585 7.77595 11.1986 7.99205 11.4895L8.79481 10.8933ZM8.00023 11.5003C8.00023 11.5003 8.00025 11.5003 8.00028 11.5003L8.81267 10.9172C8.80425 10.9055 8.79557 10.8939 8.78663 10.8825L8.00023 11.5003ZM7.20518 10.8933C7.20187 10.8977 7.1986 10.9021 7.19539 10.9063L7.99165 11.5113C7.9972 11.504 8.00263 11.4967 8.00795 11.4896L7.20518 10.8933ZM11.4713 10.2942C11.4242 10.5315 11.3208 10.7491 11.1751 10.9324L11.9579 11.5547C12.2002 11.2499 12.3732 10.8865 12.4521 10.4888L11.4713 10.2942ZM12.6462 11.0211C12.5535 10.8697 12.5 10.6919 12.5 10.5H11.5C11.5 10.8813 11.6072 11.2392 11.7934 11.5432L12.6462 11.0211ZM12.5 10.5C12.5 10.4678 12.5015 10.4362 12.5044 10.4051L11.5088 10.3119C11.503 10.374 11.5 10.4367 11.5 10.5H12.5ZM11.7065 9.95855C11.6942 9.96778 11.6818 9.9769 11.6693 9.9859L12.2541 10.7971C12.2718 10.7844 12.2893 10.7715 12.3067 10.7584L11.7065 9.95855ZM12.7177 11.123C12.6918 11.0905 12.6679 11.0565 12.6462 11.0211L11.7934 11.5432C11.8368 11.6141 11.8845 11.6821 11.936 11.7467L12.7177 11.123ZM11.1751 10.9324C11.1446 10.9707 11.1123 11.0075 11.0784 11.0427L11.7972 11.7379C11.8536 11.6795 11.9073 11.6184 11.9579 11.5547L11.1751 10.9324ZM8 6.63658L8.59787 7.43817V7.43817L8 6.63658ZM14.171 9.15809L13.6811 10.0299L13.7018 10.0415L13.7231 10.0522L14.171 9.15809ZM12.5 7.11759L11.7183 7.74126L12.5 7.11759ZM7.01203 8.27458L7.51878 7.41248C7.22598 7.24038 6.86584 7.22864 6.56247 7.38133C6.25909 7.53402 6.05395 7.83025 6.01773 8.16795L7.01203 8.27458ZM12.9064 9.12204L13.8623 9.41577C13.9768 9.04303 13.8642 8.63771 13.5739 8.37742C13.2835 8.11714 12.8684 8.04938 12.5103 8.20382L12.9064 9.12204ZM12.8356 7.68162L11.9121 8.06535C11.9221 8.08933 11.933 8.11292 11.9448 8.13606L12.8356 7.68162ZM8.0383 10.3915L7.05743 10.5862L7.13409 10.9724L7.45354 11.2027L8.0383 10.3915ZM7.97096 10.3415L7.36308 11.1355L8.67612 12.1407L8.95649 10.511L7.97096 10.3415ZM7.60657 11.1914L6.82015 10.5737L6.81347 10.5822L6.80697 10.5909L7.60657 11.1914ZM8.39343 11.1914L9.19303 10.5909L9.18653 10.5822L9.17984 10.5737L8.39343 11.1914ZM8.40648 11.2088L7.60687 11.8093L7.61021 11.8137L8.40648 11.2088ZM7.58282 11.2243L8.37338 11.8367L8.3961 11.8073L8.41658 11.7764L7.58282 11.2243ZM7.59352 11.2088L6.79392 10.6082L6.78743 10.6169L6.78113 10.6257L7.59352 11.2088ZM11.9617 10.3915L12.5465 11.2027L12.8659 10.9724L12.9426 10.5862L11.9617 10.3915ZM11.5665 11.2436L10.9571 10.4507L10.9571 10.4507L11.5665 11.2436ZM12.2198 11.2822L12.9178 10.566L12.9178 10.566L12.2198 11.2822ZM12.0066 10.3585L11.0109 10.2653L10.8006 12.5135L12.6067 11.1584L12.0066 10.3585ZM12.3269 11.4348L11.4154 11.8461L11.467 11.9605L11.5452 12.0585L12.3269 11.4348ZM11.4378 11.3903L12.1566 12.0855L12.2419 11.9972L12.3034 11.891L11.4378 11.3903ZM6 11C5.44772 11 5 10.5523 5 10H3C3 11.6569 4.34315 13 6 13V11ZM5 10C5 9.44772 5.44772 9 6 9V7C4.34315 7 3 8.34315 3 10H5ZM9 10C9 9.44772 9.44772 9 10 9V7C8.34315 7 7 8.34315 7 10H9ZM10 9C10.5523 9 11 9.44772 11 10H13C13 8.34315 11.6569 7 10 7V9ZM14 10.5C14 10.7761 13.7761 11 13.5 11V13C14.8807 13 16 11.8807 16 10.5H14ZM8.59787 7.43817C8.94883 7.17641 9.43809 7 10 7V5C9.0252 5 8.11269 5.30501 7.40213 5.83499L8.59787 7.43817ZM6 9C6.83942 9 7.38248 8.63754 7.78041 8.25339C7.94152 8.09786 8.12502 7.89037 8.23143 7.77719C8.36044 7.63997 8.47327 7.5311 8.59787 7.43817L7.40213 5.83499C7.14123 6.02958 6.93631 6.23491 6.77429 6.40724C6.58967 6.60361 6.50885 6.70103 6.39134 6.81448C6.23202 6.96827 6.16058 7 6 7V9ZM13.7231 10.0522C13.8894 10.1355 14 10.3057 14 10.5H16C16 9.51983 15.4358 8.67326 14.6189 8.26402L13.7231 10.0522ZM10 7C10.7698 7 11.3889 7.32839 11.7183 7.74126L13.2817 6.49391C12.5362 5.55953 11.3171 5 10 5V7ZM8 8.5C8 8.45975 8.00215 8.42016 8.00633 8.38121L6.01773 8.16795C6.00598 8.27751 6 8.38829 6 8.5H8ZM6.50528 9.13667C6.80348 9.31196 7 9.63358 7 10H9C9 8.89581 8.4029 7.93218 7.51878 7.41248L6.50528 9.13667ZM14.6609 8.28632C14.365 8.12004 14.1906 7.95348 14.0693 7.8015C13.9389 7.63814 13.8499 7.46933 13.7263 7.22718L11.9448 8.13606C12.2092 8.65433 12.5986 9.42151 13.6811 10.0299L14.6609 8.28632ZM11.7183 7.74126C11.8021 7.84627 11.8664 7.95535 11.9121 8.06535L13.759 7.29789C13.6378 7.00617 13.4754 6.73677 13.2817 6.49391L11.7183 7.74126ZM8.39298 11.8091C8.3031 11.9235 8.16021 12 8 12V10C7.52042 10 7.09311 10.2262 6.82015 10.5737L8.39298 11.8091ZM8 12C7.8398 12 7.6969 11.9235 7.60702 11.8091L9.17984 10.5737C8.90688 10.2262 8.47958 10 8 10V12ZM7 10C7 10.0594 6.99494 10.1167 6.98544 10.1719L8.95649 10.511C8.98517 10.3443 9 10.1735 9 10H7ZM9.01917 10.1968C9.0067 10.134 9 10.0683 9 10H7C7 10.1997 7.01965 10.3958 7.05743 10.5862L9.01917 10.1968ZM10 10C9.45171 10 8.97222 9.832 8.62306 9.5803L7.45354 11.2027C8.1563 11.7093 9.04827 12 10 12V10ZM8.57885 9.54746C8.18592 9.24664 8 8.86672 8 8.5H6C6 9.59062 6.56226 10.5224 7.36308 11.1355L8.57885 9.54746ZM9.20608 10.6082L9.19303 10.5909L7.59383 11.7919L7.60688 11.8093L9.20608 10.6082ZM8.41658 11.7764C8.41312 11.7816 8.40957 11.7868 8.40591 11.7919L6.78113 10.6257C6.77015 10.641 6.75946 10.6565 6.74907 10.6722L8.41658 11.7764ZM8.39312 11.8093L8.40617 11.7919L6.80697 10.5909L6.79392 10.6082L8.39312 11.8093ZM6.79226 10.6119C6.60833 10.8493 6.3223 11 6 11V13C6.96494 13 7.82565 12.5438 8.37338 11.8367L6.79226 10.6119ZM10 11C9.67542 11 9.38706 10.8464 9.20274 10.6038L7.61021 11.8137C8.15643 12.5327 9.02382 13 10 13V11ZM12.1758 12.0365C12.0915 12.1013 11.9843 12.1403 11.8709 12.1403V10.1403C11.5283 10.1403 11.21 10.2563 10.9571 10.4507L12.1758 12.0365ZM11.8709 12.1403C11.7355 12.1403 11.611 12.0851 11.5219 11.9983L12.9178 10.566C12.6485 10.3036 12.2777 10.1403 11.8709 10.1403V12.1403ZM13.0022 10.4517C13.0193 10.2693 13.1368 10.1117 13.3025 10.0403L12.5103 8.20382C11.692 8.55682 11.098 9.33521 11.0109 10.2653L13.0022 10.4517ZM11.9505 8.82831C11.8715 9.08541 11.6921 9.34429 11.4064 9.55859L12.6067 11.1584C13.1859 10.7239 13.6436 10.1274 13.8623 9.41577L11.9505 8.82831ZM11.3769 9.5803C11.0278 9.832 10.5483 10 10 10V12C10.9517 12 11.8437 11.7093 12.5465 11.2027L11.3769 9.5803ZM11 10C11 10.0683 10.9933 10.134 10.9808 10.1968L12.9426 10.5862C12.9803 10.3958 13 10.1997 13 10H11ZM11.5219 11.9983C11.478 11.9556 11.4416 11.9042 11.4154 11.8461L13.2384 11.0235C13.1603 10.8504 13.0508 10.6957 12.9178 10.566L11.5219 11.9983ZM12.3034 11.891C12.2705 11.9479 12.2271 11.9971 12.1758 12.0365L10.9571 10.4507C10.8021 10.5698 10.671 10.7188 10.5722 10.8895L12.3034 11.891ZM10.719 10.6951C10.5359 10.8843 10.2823 11 10 11V13C10.8464 13 11.6123 12.6482 12.1566 12.0855L10.719 10.6951ZM13.5 11C13.3422 11 13.2018 10.928 13.1085 10.8111L11.5452 12.0585C12.0016 12.6306 12.708 13 13.5 13V11Z" fill="url(#paint2_linear_455_7965)" mask="url(#path-5-outside-3_455_7965)"/>
<mask id="path-7-inside-4_455_7965" fill="white">
<path d="M6 12C4.89543 12 4 11.1046 4 10C4 8.89543 4.89543 8 6 8C7 8 7.229 7.21163 8 6.63658C8.53076 6.24071 9.23165 6 10 6C11.0435 6 11.9625 6.44396 12.5 7.11759C12.6388 7.29152 12.7521 7.48076 12.8356 7.68162L12.8358 7.68198C13.0772 8.15533 13.3548 8.69939 14.171 9.15809C14.6626 9.40436 15 9.91277 15 10.5C15 11.3284 14.3284 12 13.5 12C13.0251 12 12.6017 11.7793 12.3269 11.4348C12.2881 11.3863 12.2524 11.3353 12.2198 11.2822C12.1297 11.1944 12.0066 11.1403 11.8709 11.1403C11.7563 11.1403 11.6508 11.1788 11.5665 11.2436C11.5259 11.2946 11.483 11.3435 11.4378 11.3903C11.0741 11.7662 10.5644 12 10 12C9.34962 12 8.77175 11.6896 8.40648 11.2088L8.39343 11.1914C8.30189 11.0749 8.15969 11 8 11C7.84031 11 7.69811 11.0749 7.60657 11.1914L7.59352 11.2088C7.58986 11.2139 7.58629 11.219 7.58282 11.2243C7.21699 11.6966 6.64362 12 6 12Z"/>
</mask>
<path d="M6 12C4.89543 12 4 11.1046 4 10C4 8.89543 4.89543 8 6 8C7 8 7.229 7.21163 8 6.63658C8.53076 6.24071 9.23165 6 10 6C11.0435 6 11.9625 6.44396 12.5 7.11759C12.6388 7.29152 12.7521 7.48076 12.8356 7.68162L12.8358 7.68198C13.0772 8.15533 13.3548 8.69939 14.171 9.15809C14.6626 9.40436 15 9.91277 15 10.5C15 11.3284 14.3284 12 13.5 12C13.0251 12 12.6017 11.7793 12.3269 11.4348C12.2881 11.3863 12.2524 11.3353 12.2198 11.2822C12.1297 11.1944 12.0066 11.1403 11.8709 11.1403C11.7563 11.1403 11.6508 11.1788 11.5665 11.2436C11.5259 11.2946 11.483 11.3435 11.4378 11.3903C11.0741 11.7662 10.5644 12 10 12C9.34962 12 8.77175 11.6896 8.40648 11.2088L8.39343 11.1914C8.30189 11.0749 8.15969 11 8 11C7.84031 11 7.69811 11.0749 7.60657 11.1914L7.59352 11.2088C7.58986 11.2139 7.58629 11.219 7.58282 11.2243C7.21699 11.6966 6.64362 12 6 12Z" fill="url(#paint3_linear_455_7965)"/>
<path d="M13.281 7.4544C13.1806 7.25774 13.0605 7.01838 12.8908 6.80575L12.1092 7.42942C12.2046 7.54904 12.2807 7.69424 12.3902 7.90884L13.281 7.4544ZM8 6.63658L7.40213 5.83499L7.40213 5.83499L8 6.63658ZM14.171 9.15809L13.6811 10.0299L13.7018 10.0415L13.7231 10.0522L14.171 9.15809ZM12.5 7.11759L11.7183 7.74126L11.7183 7.74126L12.5 7.11759ZM12.8358 7.68198L11.9444 8.1352L11.945 8.13642L12.8358 7.68198ZM12.8356 7.68162L11.9121 8.06535C11.9219 8.08891 11.9326 8.11209 11.9442 8.13484L12.8356 7.68162ZM7.60657 11.1914L6.82015 10.5737L6.81347 10.5822L6.80697 10.5909L7.60657 11.1914ZM8.39343 11.1914L9.19303 10.5909L9.18653 10.5822L9.17984 10.5737L8.39343 11.1914ZM8.40648 11.2088L7.60687 11.8093L7.61021 11.8137L8.40648 11.2088ZM7.58282 11.2243L8.37338 11.8367L8.3961 11.8073L8.41658 11.7764L7.58282 11.2243ZM7.59352 11.2088L6.79392 10.6082L6.78743 10.6169L6.78113 10.6257L7.59352 11.2088ZM11.5665 11.2436L10.9571 10.4507L10.8599 10.5254L10.7837 10.6213L11.5665 11.2436ZM12.2198 11.2822L13.0727 10.76L13.0073 10.6533L12.9178 10.566L12.2198 11.2822ZM12.3269 11.4348L11.5452 12.0585L11.5452 12.0585L12.3269 11.4348ZM11.4378 11.3903L10.719 10.6951L10.719 10.6951L11.4378 11.3903ZM6 11C5.44772 11 5 10.5523 5 10H3C3 11.6569 4.34315 13 6 13V11ZM5 10C5 9.44772 5.44772 9 6 9V7C4.34315 7 3 8.34315 3 10H5ZM14 10.5C14 10.7761 13.7761 11 13.5 11V13C14.8807 13 16 11.8807 16 10.5H14ZM8.59787 7.43817C8.94883 7.17641 9.43809 7 10 7V5C9.0252 5 8.11269 5.30501 7.40213 5.83499L8.59787 7.43817ZM6 9C6.83942 9 7.38248 8.63754 7.78041 8.25339C7.94152 8.09786 8.12502 7.89037 8.23143 7.77719C8.36044 7.63997 8.47327 7.5311 8.59787 7.43817L7.40213 5.83499C7.14123 6.02958 6.93631 6.23491 6.77429 6.40724C6.58967 6.60361 6.50885 6.70103 6.39134 6.81448C6.23202 6.96827 6.16058 7 6 7V9ZM13.7231 10.0522C13.8894 10.1355 14 10.3057 14 10.5H16C16 9.51983 15.4358 8.67326 14.6189 8.26402L13.7231 10.0522ZM10 7C10.7698 7 11.3889 7.32839 11.7183 7.74126L13.2817 6.49391C12.5362 5.55953 11.3171 5 10 5V7ZM14.6609 8.28632C14.3651 8.12008 14.1907 7.95356 14.0694 7.80162C13.939 7.63832 13.85 7.46955 13.7265 7.22754L11.945 8.13642C12.2094 8.65475 12.5989 9.42167 13.6811 10.0299L14.6609 8.28632ZM13.7272 7.22876L13.727 7.2284L11.9442 8.13484L11.9444 8.1352L13.7272 7.22876ZM11.7183 7.74126C11.8021 7.84626 11.8664 7.95535 11.9121 8.06535L13.759 7.29789C13.6378 7.00617 13.4755 6.73677 13.2817 6.49391L11.7183 7.74126ZM8.39298 11.8091C8.3031 11.9235 8.16021 12 8 12V10C7.52042 10 7.09311 10.2262 6.82015 10.5737L8.39298 11.8091ZM8 12C7.8398 12 7.6969 11.9235 7.60702 11.8091L9.17984 10.5737C8.90688 10.2262 8.47958 10 8 10V12ZM9.20608 10.6082L9.19303 10.5909L7.59383 11.7919L7.60688 11.8093L9.20608 10.6082ZM8.41658 11.7764C8.41312 11.7816 8.40957 11.7868 8.40591 11.7919L6.78113 10.6257C6.77015 10.641 6.75946 10.6565 6.74907 10.6722L8.41658 11.7764ZM8.39312 11.8093L8.40617 11.7919L6.80697 10.5909L6.79392 10.6082L8.39312 11.8093ZM6.79226 10.6119C6.60833 10.8493 6.3223 11 6 11V13C6.96494 13 7.82565 12.5438 8.37338 11.8367L6.79226 10.6119ZM10 11C9.67542 11 9.38706 10.8464 9.20274 10.6038L7.61021 11.8137C8.15643 12.5327 9.02382 13 10 13V11ZM12.1758 12.0365C12.0915 12.1013 11.9843 12.1403 11.8709 12.1403V10.1403C11.5283 10.1403 11.21 10.2563 10.9571 10.4507L12.1758 12.0365ZM11.8709 12.1403C11.7355 12.1403 11.611 12.0851 11.5219 11.9983L12.9178 10.566C12.6485 10.3036 12.2777 10.1403 11.8709 10.1403V12.1403ZM13.1085 10.8111C13.0955 10.7948 13.0835 10.7777 13.0727 10.76L11.367 11.8043C11.4212 11.8929 11.4808 11.9778 11.5452 12.0585L13.1085 10.8111ZM10.7837 10.6213C10.7633 10.6469 10.7417 10.6715 10.719 10.6951L12.1566 12.0855C12.2243 12.0155 12.2886 11.9422 12.3493 11.8659L10.7837 10.6213ZM10.719 10.6951C10.5359 10.8843 10.2823 11 10 11V13C10.8464 13 11.6123 12.6482 12.1566 12.0855L10.719 10.6951ZM13.5 11C13.3422 11 13.2018 10.928 13.1085 10.8111L11.5452 12.0585C12.0016 12.6306 12.708 13 13.5 13V11Z" fill="white" fill-opacity="0.3" mask="url(#path-7-inside-4_455_7965)"/>
<defs>
<linearGradient id="paint0_linear_455_7965" x1="3" y1="3" x2="8.37827" y2="9.51338" gradientUnits="userSpaceOnUse">
<stop stop-color="#B9B9B9" stop-opacity="0.835294"/>
<stop offset="1" stop-color="#808080" stop-opacity="0.941176"/>
</linearGradient>
<linearGradient id="paint1_linear_455_7965" x1="2.5" y1="3" x2="8.5" y2="9" gradientUnits="userSpaceOnUse">
<stop stop-color="#CCCAC3"/>
<stop offset="1" stop-color="#A7A59E"/>
</linearGradient>
<linearGradient id="paint2_linear_455_7965" x1="6.5" y1="6" x2="12.5" y2="12" gradientUnits="userSpaceOnUse">
<stop stop-color="#B9B9B9" stop-opacity="0.835294"/>
<stop offset="1" stop-color="#808080" stop-opacity="0.941176"/>
</linearGradient>
<linearGradient id="paint3_linear_455_7965" x1="6.5" y1="6" x2="12.5" y2="12" gradientUnits="userSpaceOnUse">
<stop stop-color="#E0E0E0"/>
<stop offset="1" stop-color="#DEDEDE"/>
</linearGradient>
</defs>
</svg>
