<svg width="16" height="16" viewBox="0 0 16 16" fill="none" xmlns="http://www.w3.org/2000/svg">
<path d="M6.05425 8H9.23795L8.35982 8.73178L7.33096 9.58916L8.4453 10.3321L8.72063 10.5156L5.89737 12.4702L5.94868 12.3162L6.22295 11.4934L5.44721 11.1056L4.43087 10.5974L6.05425 8Z" fill="#F6D351" stroke="url(#paint0_linear_455_7966)" stroke-width="2"/>
<path d="M5.77712 7.5H10.619L8.67991 9.11589L8.16548 9.54458L8.72265 9.91603L9.61032 10.5078L4.94868 13.7351L5.47434 12.1581L5.61147 11.7467L5.22361 11.5528L3.71544 10.7987L5.77712 7.5Z" stroke="url(#paint1_linear_455_7966)"/>
<mask id="path-3-outside-1_455_7966" maskUnits="userSpaceOnUse" x="1" y="0" width="13" height="8" fill="black">
<rect fill="white" x="1" width="13" height="8"/>
<path d="M11 3.5C11 3.71475 10.9675 3.92317 10.9064 4.12204C10.7576 4.60639 10.439 5.03408 10.0066 5.35849C9.99176 5.36962 9.97679 5.38063 9.9617 5.39151C9.43574 5.77064 8.75001 6 8 6C7.24999 6 6.56426 5.77064 6.0383 5.39151C6.01555 5.37511 5.99311 5.35843 5.97096 5.34148C5.37409 4.88453 5 4.22867 5 3.5C5 3.42402 5.00407 3.34883 5.01203 3.27458C5.08167 2.62524 5.44923 2.04737 6 1.63658C6.53076 1.24071 7.23165 1 8 1C9.04349 1 9.96254 1.44396 10.5 2.11759C10.6388 2.29152 10.7521 2.48076 10.8356 2.68162C10.9421 2.93803 11 3.21338 11 3.5Z"/>
<path d="M6 5C6 5.11642 5.99005 5.23051 5.97096 5.34148C5.91685 5.65601 5.78929 5.94541 5.60657 6.1914C5.60225 6.19722 5.5979 6.20301 5.59352 6.20878C5.58986 6.21388 5.58629 6.21905 5.58282 6.22429C5.21699 6.69656 4.64362 7 4 7C2.89543 7 2 6.10457 2 5C2 3.89543 2.89543 3 4 3C4.36926 3 4.71515 3.10007 5.01203 3.27458C5.60319 3.62207 6 4.26469 6 5Z"/>
<path d="M10 5C10 5.13399 9.98682 5.2649 9.9617 5.39151C9.89868 5.70903 9.7605 5.9995 9.56647 6.24358C9.52595 6.29455 9.48299 6.34351 9.43777 6.39026C9.07414 6.76624 8.56437 7 8 7C7.34962 7 6.77175 6.68956 6.40648 6.20877C6.40225 6.20289 6.3979 6.19709 6.39343 6.1914C6.22044 5.95851 6.09689 5.6867 6.0383 5.39151C6.01318 5.2649 6 5.13399 6 5C6 3.89543 6.89543 3 8 3C9.10457 3 10 3.89543 10 5Z"/>
<path d="M13 5.5C13 6.32843 12.3284 7 11.5 7C11.0251 7 10.6017 6.77928 10.3269 6.43483C10.2881 6.3863 10.2524 6.33532 10.2198 6.28216C10.0804 6.05442 10 5.7866 10 5.5C10 5.45228 10.0022 5.40508 10.0066 5.35849C10.0586 4.80225 10.4144 4.33426 10.9064 4.12204C11.0884 4.04351 11.2891 4 11.5 4C11.7412 4 11.9691 4.05693 12.171 4.15809C12.6626 4.40436 13 4.91277 13 5.5Z"/>
<path d="M4 3C4.36926 3 4.71515 3.10007 5.01203 3.27458C5.08167 2.62524 5.44923 2.04737 6 1.63658C5.229 2.21163 5 3 4 3Z"/>
<path d="M11 3.5C11 3.71475 10.9675 3.92317 10.9064 4.12204C11.0884 4.04351 11.2891 4 11.5 4C11.7412 4 11.9691 4.05693 12.171 4.15809C11.3546 3.69928 11.0771 3.15506 10.8356 2.68162C10.9421 2.93803 11 3.21338 11 3.5Z"/>
<path d="M6.0383 5.39151C6.01555 5.37511 5.99311 5.35843 5.97096 5.34148C5.91685 5.65601 5.78929 5.94541 5.60657 6.1914C5.69811 6.07486 5.84031 6 6 6C6.15969 6 6.30189 6.07486 6.39343 6.1914C6.22044 5.95851 6.09689 5.6867 6.0383 5.39151Z"/>
<path fill-rule="evenodd" clip-rule="evenodd" d="M6.39343 6.1914C6.3979 6.19709 6.40225 6.20289 6.40648 6.20877L6.39343 6.1914ZM5.60657 6.1914C5.60225 6.19722 5.5979 6.20301 5.59352 6.20878L5.60657 6.1914Z"/>
<path d="M9.9617 5.39151C9.89868 5.70903 9.7605 5.9995 9.56647 6.24358C9.65078 6.17879 9.75633 6.14027 9.87088 6.14027C10.0066 6.14027 10.1297 6.19436 10.2198 6.28216C10.0804 6.05442 10 5.7866 10 5.5C10 5.45228 10.0022 5.40508 10.0066 5.35849C9.99176 5.36962 9.97679 5.38063 9.9617 5.39151Z"/>
<path fill-rule="evenodd" clip-rule="evenodd" d="M10.2198 6.28216C10.2644 6.32561 10.3009 6.37733 10.3269 6.43483C10.2881 6.3863 10.2524 6.33532 10.2198 6.28216ZM9.43777 6.39026C9.47071 6.33331 9.51457 6.28347 9.56647 6.24358C9.52595 6.29455 9.48299 6.34351 9.43777 6.39026Z"/>
</mask>
<path d="M5.01203 3.27458L4.75866 3.70563C4.90506 3.79168 5.08512 3.79755 5.23681 3.7212C5.3885 3.64486 5.49107 3.49674 5.50918 3.3279L5.01203 3.27458ZM10.9064 4.12204L10.4285 3.97517C10.3712 4.16154 10.4275 4.36421 10.5727 4.49435C10.7178 4.62449 10.9254 4.65837 11.1044 4.58115L10.9064 4.12204ZM10.8356 2.68162L11.2973 2.48976C11.2923 2.47776 11.2869 2.46597 11.281 2.4544L10.8356 2.68162ZM6.0383 5.39151L6.52874 5.29418L6.49041 5.10104L6.33068 4.9859L6.0383 5.39151ZM5.97096 5.34148L6.27491 4.94447L5.61838 4.44185L5.4782 5.25671L5.97096 5.34148ZM5.60657 6.1914L6.00795 6.48955L5.60657 6.1914ZM6.39343 6.1914L5.9919 6.48966L6.00023 6.50026L6.39343 6.1914ZM9.9617 5.39151L9.66932 4.9859L9.50959 5.10104L9.47126 5.29418L9.9617 5.39151ZM9.56647 6.24358L9.95787 6.55472L9.95787 6.55471L9.56647 6.24358ZM10.2198 6.28216L9.7934 6.54325L10.2198 6.28216ZM10.0066 5.35849L10.5044 5.40508L10.6096 4.28097L9.70651 4.95855L10.0066 5.35849ZM11.5 4.5C11.6617 4.5 11.8131 4.53801 11.947 4.60512L12.395 3.71106C12.1251 3.57586 11.8207 3.5 11.5 3.5V4.5ZM4 3.5C4.27777 3.5 4.53649 3.57503 4.75866 3.70563L5.2654 2.84353C4.89382 2.62511 4.46076 2.5 4 2.5V3.5ZM5.50918 3.3279C5.56169 2.83828 5.84124 2.37875 6.29894 2.03737L5.70106 1.23578C5.05722 1.71599 4.60165 2.4122 4.51488 3.22126L5.50918 3.3279ZM10.5 3.5C10.5 3.66388 10.4753 3.82284 10.4285 3.97517L11.3843 4.2689C11.4598 4.0235 11.5 3.76561 11.5 3.5H10.5ZM11.1044 4.58115C11.2251 4.52909 11.3585 4.5 11.5 4.5V3.5C11.2198 3.5 10.9518 3.55793 10.7084 3.66293L11.1044 4.58115ZM10.3738 2.87348C10.4561 3.07137 10.5 3.28167 10.5 3.5H11.5C11.5 3.1451 11.4282 2.80469 11.2973 2.48976L10.3738 2.87348ZM11.281 2.4544C11.1806 2.25774 11.0605 2.01838 10.8908 1.80575L10.1092 2.42942C10.2046 2.54904 10.2807 2.69424 10.3902 2.90884L11.281 2.4544ZM6.33068 4.9859C6.31181 4.9723 6.29322 4.95849 6.27491 4.94447L5.66702 5.73849C5.69299 5.75838 5.7193 5.77792 5.74592 5.79711L6.33068 4.9859ZM5.4782 5.25671C5.43774 5.49192 5.34236 5.70858 5.20518 5.89326L6.00795 6.48955C6.23622 6.18224 6.39597 5.8201 6.46372 5.42625L5.4782 5.25671ZM6.79481 5.89325C6.66493 5.7184 6.57254 5.51488 6.52874 5.29418L5.54787 5.48884C5.62124 5.85853 5.77595 6.19862 5.99205 6.48955L6.79481 5.89325ZM6.00023 6.50026C6.00023 6.50026 6.00025 6.50029 6.00028 6.50033L6.81267 5.91722C6.80425 5.90549 6.79557 5.89393 6.78663 5.88254L6.00023 6.50026ZM5.20518 5.89326C5.20187 5.89772 5.1986 5.90207 5.19539 5.9063L5.99165 6.51125C5.9972 6.50395 6.00263 6.49672 6.00795 6.48955L5.20518 5.89326ZM9.47126 5.29418C9.42415 5.53155 9.32082 5.74909 9.17507 5.93244L9.95787 6.55471C10.2002 6.2499 10.3732 5.88652 10.4521 5.48884L9.47126 5.29418ZM10.6462 6.02107C10.5535 5.86967 10.5 5.69185 10.5 5.5H9.5C9.5 5.88134 9.60721 6.23916 9.7934 6.54325L10.6462 6.02107ZM10.5 5.5C10.5 5.46785 10.5015 5.43619 10.5044 5.40508L9.50876 5.31191C9.50295 5.37396 9.5 5.43671 9.5 5.5H10.5ZM9.70651 4.95855C9.69421 4.96778 9.68181 4.9769 9.66932 4.9859L10.2541 5.79711C10.2718 5.78435 10.2893 5.77146 10.3067 5.75844L9.70651 4.95855ZM10.7177 6.12298C10.6918 6.09055 10.6679 6.05652 10.6462 6.02107L9.7934 6.54325C9.8368 6.61413 9.88446 6.68206 9.93602 6.74668L10.7177 6.12298ZM9.17507 5.93244C9.14463 5.97073 9.11235 6.00752 9.07837 6.04266L9.79718 6.73786C9.85363 6.67949 9.90727 6.61837 9.95787 6.55472L9.17507 5.93244ZM6 1.63658L6.59787 2.43817V2.43817L6 1.63658ZM12.171 4.15809L11.6811 5.02986L11.7018 5.0415L11.7231 5.05215L12.171 4.15809ZM10.5 2.11759L9.71832 2.74126L10.5 2.11759ZM5.01203 3.27458L5.51878 2.41248C5.22598 2.24038 4.86584 2.22864 4.56247 2.38133C4.25909 2.53402 4.05395 2.83025 4.01773 3.16795L5.01203 3.27458ZM10.9064 4.12204L11.8623 4.41577C11.9768 4.04303 11.8642 3.63771 11.5739 3.37742C11.2835 3.11714 10.8684 3.04938 10.5103 3.20382L10.9064 4.12204ZM10.8356 2.68162L9.91213 3.06535C9.92209 3.08933 9.93299 3.11292 9.9448 3.13606L10.8356 2.68162ZM6.0383 5.39151L5.05743 5.58617L5.13409 5.97244L5.45354 6.20272L6.0383 5.39151ZM5.97096 5.34148L5.36308 6.1355L6.67612 7.14074L6.95649 5.51102L5.97096 5.34148ZM5.60657 6.1914L4.82015 5.57371L4.81347 5.58222L4.80697 5.59087L5.60657 6.1914ZM6.39343 6.1914L7.19303 5.59087L7.18653 5.58221L7.17984 5.5737L6.39343 6.1914ZM6.40648 6.20877L5.60687 6.80932L5.61021 6.81372L6.40648 6.20877ZM5.58282 6.22429L6.37338 6.83667L6.3961 6.80735L6.41658 6.77642L5.58282 6.22429ZM5.59352 6.20878L4.79392 5.60824L4.78743 5.61689L4.78113 5.62567L5.59352 6.20878ZM9.9617 5.39151L10.5465 6.20271L10.8659 5.97244L10.9426 5.58617L9.9617 5.39151ZM9.56647 6.24358L8.95712 5.45068L8.95711 5.45068L9.56647 6.24358ZM10.2198 6.28216L10.9178 5.566L10.9178 5.566L10.2198 6.28216ZM10.0066 5.35849L9.01094 5.26533L8.80057 7.51349L10.6067 6.15839L10.0066 5.35849ZM10.3269 6.43483L9.41536 6.84614L9.46695 6.96047L9.54519 7.05853L10.3269 6.43483ZM9.43777 6.39026L10.1566 7.08546L10.2419 6.99724L10.3034 6.891L9.43777 6.39026ZM4 6C3.44772 6 3 5.55228 3 5H1C1 6.65685 2.34315 8 4 8V6ZM3 5C3 4.44772 3.44772 4 4 4V2C2.34315 2 1 3.34315 1 5H3ZM7 5C7 4.44772 7.44772 4 8 4V2C6.34315 2 5 3.34315 5 5H7ZM8 4C8.55228 4 9 4.44772 9 5H11C11 3.34315 9.65685 2 8 2V4ZM12 5.5C12 5.77614 11.7761 6 11.5 6V8C12.8807 8 14 6.88071 14 5.5H12ZM6.59787 2.43817C6.94883 2.17641 7.43809 2 8 2V0C7.0252 0 6.11269 0.305013 5.40213 0.834985L6.59787 2.43817ZM4 4C4.83942 4 5.38248 3.63754 5.78041 3.25339C5.94152 3.09786 6.12502 2.89037 6.23143 2.77719C6.36044 2.63997 6.47327 2.5311 6.59787 2.43817L5.40213 0.834985C5.14123 1.02958 4.93631 1.23491 4.77429 1.40724C4.58967 1.60361 4.50885 1.70103 4.39134 1.81448C4.23202 1.96827 4.16058 2 4 2V4ZM11.7231 5.05215C11.8894 5.13547 12 5.30571 12 5.5H14C14 4.51983 13.4358 3.67326 12.6189 3.26402L11.7231 5.05215ZM8 2C8.76984 2 9.3889 2.32839 9.71832 2.74126L11.2817 1.49391C10.5362 0.559534 9.31713 0 8 0V2ZM6 3.5C6 3.45975 6.00215 3.42016 6.00633 3.38121L4.01773 3.16795C4.00598 3.27751 4 3.38829 4 3.5H6ZM4.50528 4.13667C4.80348 4.31196 5 4.63358 5 5H7C7 3.89581 6.4029 2.93218 5.51878 2.41248L4.50528 4.13667ZM12.6609 3.28632C12.365 3.12004 12.1906 2.95348 12.0693 2.8015C11.9389 2.63814 11.8499 2.46933 11.7263 2.22718L9.9448 3.13606C10.2092 3.65433 10.5986 4.42151 11.6811 5.02986L12.6609 3.28632ZM9.71832 2.74126C9.8021 2.84627 9.86642 2.95535 9.91213 3.06535L11.759 2.29789C11.6378 2.00617 11.4754 1.73677 11.2817 1.49391L9.71832 2.74126ZM6.39298 6.8091C6.3031 6.92353 6.16021 7 6 7V5C5.52042 5 5.09311 5.22619 4.82015 5.57371L6.39298 6.8091ZM6 7C5.8398 7 5.6969 6.92353 5.60702 6.8091L7.17984 5.5737C6.90688 5.22619 6.47958 5 6 5V7ZM5 5C5 5.05935 4.99494 5.11673 4.98544 5.17194L6.95649 5.51102C6.98517 5.34429 7 5.17348 7 5H5ZM7.01917 5.19684C7.0067 5.13399 7 5.06828 7 5H5C5 5.1997 5.01965 5.39581 5.05743 5.58617L7.01917 5.19684ZM8 5C7.45171 5 6.97222 4.832 6.62306 4.5803L5.45354 6.20272C6.1563 6.70929 7.04827 7 8 7V5ZM6.57885 4.54746C6.18592 4.24664 6 3.86672 6 3.5H4C4 4.59062 4.56226 5.52242 5.36308 6.1355L6.57885 4.54746ZM7.20608 5.60824L7.19303 5.59087L5.59383 6.79194L5.60688 6.80931L7.20608 5.60824ZM6.41658 6.77642C6.41312 6.78164 6.40957 6.7868 6.40591 6.79188L4.78113 5.62567C4.77015 5.64096 4.75946 5.65646 4.74907 5.67216L6.41658 6.77642ZM6.39312 6.80931L6.40617 6.79194L4.80697 5.59087L4.79392 5.60824L6.39312 6.80931ZM4.79226 5.61191C4.60833 5.84935 4.3223 6 4 6V8C4.96494 8 5.82565 7.54377 6.37338 6.83667L4.79226 5.61191ZM8 6C7.67542 6 7.38706 5.84644 7.20274 5.60383L5.61021 6.81372C6.15643 7.53268 7.02382 8 8 8V6ZM10.1758 7.03648C10.0915 7.10126 9.98433 7.14027 9.87088 7.14027V5.14027C9.52832 5.14027 9.21003 5.25631 8.95712 5.45068L10.1758 7.03648ZM9.87088 7.14027C9.7355 7.14027 9.61097 7.08514 9.52188 6.99832L10.9178 5.566C10.6485 5.30357 10.2777 5.14027 9.87088 5.14027V7.14027ZM11.0022 5.45166C11.0193 5.26929 11.1368 5.1117 11.3025 5.04025L10.5103 3.20382C9.69199 3.55682 9.09797 4.33521 9.01094 5.26533L11.0022 5.45166ZM9.95051 3.82831C9.87151 4.08541 9.69208 4.34429 9.40645 4.55859L10.6067 6.15839C11.1859 5.72387 11.6436 5.12737 11.8623 4.41577L9.95051 3.82831ZM9.37694 4.5803C9.02778 4.832 8.54829 5 8 5V7C8.95173 7 9.8437 6.70929 10.5465 6.20271L9.37694 4.5803ZM9 5C9 5.06828 8.9933 5.134 8.98083 5.19684L10.9426 5.58617C10.9803 5.3958 11 5.1997 11 5H9ZM9.52188 6.99832C9.478 6.95556 9.44156 6.90421 9.41536 6.84614L11.2384 6.02352C11.1603 5.85045 11.0508 5.69567 10.9178 5.566L9.52188 6.99832ZM10.3034 6.891C10.2705 6.94787 10.2271 6.9971 10.1758 7.03648L8.95711 5.45068C8.80208 5.56983 8.67096 5.71875 8.57217 5.88952L10.3034 6.891ZM8.71896 5.69506C8.53594 5.88429 8.28235 6 8 6V8C8.84639 8 9.61234 7.64819 10.1566 7.08546L8.71896 5.69506ZM11.5 6C11.3422 6 11.2018 5.92801 11.1085 5.81113L9.54519 7.05853C10.0016 7.63056 10.708 8 11.5 8V6Z" fill="url(#paint2_linear_455_7966)" mask="url(#path-3-outside-1_455_7966)"/>
<mask id="path-5-inside-2_455_7966" fill="white">
<path d="M4 7C2.89543 7 2 6.10457 2 5C2 3.89543 2.89543 3 4 3C5 3 5.229 2.21163 6 1.63658C6.53076 1.24071 7.23165 1 8 1C9.04349 1 9.96254 1.44396 10.5 2.11759C10.6388 2.29152 10.7521 2.48076 10.8356 2.68162L10.8358 2.68198C11.0772 3.15533 11.3548 3.69939 12.171 4.15809C12.6626 4.40436 13 4.91277 13 5.5C13 6.32843 12.3284 7 11.5 7C11.0251 7 10.6017 6.77928 10.3269 6.43483C10.2881 6.3863 10.2524 6.33532 10.2198 6.28216C10.1297 6.19436 10.0066 6.14027 9.87088 6.14027C9.75633 6.14027 9.65078 6.17879 9.56647 6.24358C9.52595 6.29455 9.48299 6.34351 9.43777 6.39026C9.07414 6.76624 8.56437 7 8 7C7.34962 7 6.77175 6.68956 6.40648 6.20877L6.39343 6.1914C6.30189 6.07486 6.15969 6 6 6C5.84031 6 5.69811 6.07486 5.60657 6.1914L5.59352 6.20878C5.58986 6.21388 5.58629 6.21905 5.58282 6.22429C5.21699 6.69656 4.64362 7 4 7Z"/>
</mask>
<path d="M4 7C2.89543 7 2 6.10457 2 5C2 3.89543 2.89543 3 4 3C5 3 5.229 2.21163 6 1.63658C6.53076 1.24071 7.23165 1 8 1C9.04349 1 9.96254 1.44396 10.5 2.11759C10.6388 2.29152 10.7521 2.48076 10.8356 2.68162L10.8358 2.68198C11.0772 3.15533 11.3548 3.69939 12.171 4.15809C12.6626 4.40436 13 4.91277 13 5.5C13 6.32843 12.3284 7 11.5 7C11.0251 7 10.6017 6.77928 10.3269 6.43483C10.2881 6.3863 10.2524 6.33532 10.2198 6.28216C10.1297 6.19436 10.0066 6.14027 9.87088 6.14027C9.75633 6.14027 9.65078 6.17879 9.56647 6.24358C9.52595 6.29455 9.48299 6.34351 9.43777 6.39026C9.07414 6.76624 8.56437 7 8 7C7.34962 7 6.77175 6.68956 6.40648 6.20877L6.39343 6.1914C6.30189 6.07486 6.15969 6 6 6C5.84031 6 5.69811 6.07486 5.60657 6.1914L5.59352 6.20878C5.58986 6.21388 5.58629 6.21905 5.58282 6.22429C5.21699 6.69656 4.64362 7 4 7Z" fill="url(#paint3_linear_455_7966)"/>
<path d="M11.281 2.4544C11.1806 2.25774 11.0605 2.01838 10.8908 1.80575L10.1092 2.42942C10.2046 2.54904 10.2807 2.69424 10.3902 2.90884L11.281 2.4544ZM6 1.63658L5.40213 0.834985L5.40213 0.834985L6 1.63658ZM12.171 4.15809L11.6811 5.02986L11.7018 5.0415L11.7231 5.05215L12.171 4.15809ZM10.5 2.11759L9.71832 2.74126L9.71832 2.74126L10.5 2.11759ZM10.8358 2.68198L9.94436 3.1352L9.94498 3.13642L10.8358 2.68198ZM10.8356 2.68162L9.91213 3.06535C9.92192 3.08891 9.93261 3.11209 9.94417 3.13484L10.8356 2.68162ZM5.60657 6.1914L4.82015 5.57371L4.81347 5.58222L4.80697 5.59087L5.60657 6.1914ZM6.39343 6.1914L7.19303 5.59087L7.18653 5.58221L7.17984 5.5737L6.39343 6.1914ZM6.40648 6.20877L5.60687 6.80932L5.61021 6.81372L6.40648 6.20877ZM5.58282 6.22429L6.37338 6.83667L6.3961 6.80735L6.41658 6.77642L5.58282 6.22429ZM5.59352 6.20878L4.79392 5.60824L4.78743 5.61689L4.78113 5.62567L5.59352 6.20878ZM9.56647 6.24358L8.95712 5.45068L8.85994 5.52536L8.78367 5.6213L9.56647 6.24358ZM10.2198 6.28216L11.0727 5.75998L11.0073 5.6533L10.9178 5.566L10.2198 6.28216ZM10.3269 6.43483L9.54519 7.05852L9.54519 7.05853L10.3269 6.43483ZM9.43777 6.39026L8.71896 5.69505L8.71896 5.69506L9.43777 6.39026ZM4 6C3.44772 6 3 5.55228 3 5H1C1 6.65685 2.34315 8 4 8V6ZM3 5C3 4.44772 3.44772 4 4 4V2C2.34315 2 1 3.34315 1 5H3ZM12 5.5C12 5.77614 11.7761 6 11.5 6V8C12.8807 8 14 6.88071 14 5.5H12ZM6.59787 2.43817C6.94883 2.17641 7.43809 2 8 2V0C7.0252 0 6.11269 0.305013 5.40213 0.834985L6.59787 2.43817ZM4 4C4.83942 4 5.38248 3.63754 5.78041 3.25339C5.94152 3.09786 6.12502 2.89037 6.23143 2.77719C6.36044 2.63997 6.47327 2.5311 6.59787 2.43817L5.40213 0.834985C5.14123 1.02958 4.93631 1.23491 4.77429 1.40724C4.58967 1.60361 4.50885 1.70103 4.39134 1.81448C4.23202 1.96827 4.16058 2 4 2V4ZM11.7231 5.05215C11.8894 5.13547 12 5.30571 12 5.5H14C14 4.51983 13.4358 3.67326 12.6189 3.26402L11.7231 5.05215ZM8 2C8.76984 2 9.3889 2.32839 9.71832 2.74126L11.2817 1.49391C10.5362 0.559534 9.31713 0 8 0V2ZM12.6609 3.28632C12.3651 3.12008 12.1907 2.95356 12.0694 2.80162C11.939 2.63832 11.85 2.46955 11.7265 2.22754L9.94498 3.13642C10.2094 3.65475 10.5989 4.42167 11.6811 5.02986L12.6609 3.28632ZM11.7272 2.22876L11.727 2.2284L9.94417 3.13484L9.94436 3.1352L11.7272 2.22876ZM9.71832 2.74126C9.8021 2.84626 9.86642 2.95535 9.91213 3.06535L11.759 2.29789C11.6378 2.00617 11.4755 1.73677 11.2817 1.49391L9.71832 2.74126ZM6.39298 6.8091C6.3031 6.92353 6.16021 7 6 7V5C5.52042 5 5.09311 5.22619 4.82015 5.57371L6.39298 6.8091ZM6 7C5.8398 7 5.6969 6.92353 5.60702 6.8091L7.17984 5.5737C6.90688 5.22619 6.47958 5 6 5V7ZM7.20608 5.60824L7.19303 5.59087L5.59383 6.79194L5.60688 6.80931L7.20608 5.60824ZM6.41658 6.77642C6.41312 6.78164 6.40957 6.7868 6.40591 6.79188L4.78113 5.62567C4.77015 5.64096 4.75946 5.65646 4.74907 5.67216L6.41658 6.77642ZM6.39312 6.80931L6.40617 6.79194L4.80697 5.59087L4.79392 5.60824L6.39312 6.80931ZM4.79226 5.61191C4.60833 5.84935 4.3223 6 4 6V8C4.96494 8 5.82565 7.54377 6.37338 6.83667L4.79226 5.61191ZM8 6C7.67542 6 7.38706 5.84644 7.20274 5.60383L5.61021 6.81372C6.15643 7.53268 7.02382 8 8 8V6ZM10.1758 7.03648C10.0915 7.10126 9.98433 7.14027 9.87088 7.14027V5.14027C9.52832 5.14027 9.21003 5.25631 8.95712 5.45068L10.1758 7.03648ZM9.87088 7.14027C9.7355 7.14027 9.61097 7.08514 9.52188 6.99832L10.9178 5.566C10.6485 5.30357 10.2777 5.14027 9.87088 5.14027V7.14027ZM11.1085 5.81113C11.0955 5.7948 11.0835 5.77771 11.0727 5.75998L9.36698 6.80433C9.42123 6.89294 9.48079 6.97781 9.54519 7.05852L11.1085 5.81113ZM8.78367 5.6213C8.76331 5.64691 8.74171 5.67153 8.71896 5.69505L10.1566 7.08546C10.2243 7.01548 10.2886 6.94219 10.3493 6.86585L8.78367 5.6213ZM8.71896 5.69506C8.53594 5.88429 8.28235 6 8 6V8C8.84639 8 9.61234 7.64819 10.1566 7.08546L8.71896 5.69506ZM11.5 6C11.3422 6 11.2018 5.92801 11.1085 5.81113L9.54519 7.05853C10.0016 7.63056 10.708 8 11.5 8V6Z" fill="white" fill-opacity="0.3" mask="url(#path-5-inside-2_455_7966)"/>
<defs>
<linearGradient id="paint0_linear_455_7966" x1="3.00452" y1="7" x2="10.9404" y2="15.9369" gradientUnits="userSpaceOnUse">
<stop offset="0.366222" stop-color="#F8E690"/>
<stop offset="0.68369" stop-color="#F0D07D"/>
</linearGradient>
<linearGradient id="paint1_linear_455_7966" x1="5" y1="8" x2="9" y2="12" gradientUnits="userSpaceOnUse">
<stop stop-color="#F1B213"/>
<stop offset="1" stop-color="#DEA813" stop-opacity="0.972549"/>
</linearGradient>
<linearGradient id="paint2_linear_455_7966" x1="4.5" y1="1" x2="10.5" y2="7" gradientUnits="userSpaceOnUse">
<stop stop-color="#A3A3A3" stop-opacity="0.933333"/>
<stop offset="1" stop-color="#5C5C5C" stop-opacity="0.941176"/>
</linearGradient>
<linearGradient id="paint3_linear_455_7966" x1="4.5" y1="1" x2="10.5" y2="7" gradientUnits="userSpaceOnUse">
<stop stop-color="#C4C4C4"/>
<stop offset="1" stop-color="#A0A0A0"/>
</linearGradient>
</defs>
</svg>
