<svg width="16" height="16" viewBox="0 0 16 16" fill="none" xmlns="http://www.w3.org/2000/svg">
<g clip-path="url(#clip0_299_8473)">
<g clip-path="url(#clip1_299_8473)">
<circle cx="8" cy="8" r="7.5" fill="url(#paint0_linear_299_8473)" stroke="url(#paint1_linear_299_8473)"/>
<mask id="mask0_299_8473" style="mask-type:alpha" maskUnits="userSpaceOnUse" x="1" y="1" width="14" height="14">
<circle cx="8" cy="8" r="7" fill="#D9D9D9"/>
</mask>
<g mask="url(#mask0_299_8473)">
<g filter="url(#filter0_ddd_299_8473)">
<path d="M10.3821 8C9.38215 8.5 8.86934 8 8.5 8C8 8 7.38215 7.8 7.38215 7C7.38215 6 7.88216 6 8.88216 5C9.88216 4 10.3822 4 10.8822 2.5C11.3294 1.15836 11.8821 3 13.8821 2C15.8821 1 14.8821 1 15.8821 1C16.8821 1 16.8821 4 16.8821 6C16.8821 8 16.3821 11.5 15.3821 13.5C14.3821 15.5 9.5 16 8.5 16C7.5 16 8.88216 13.5 9.38215 12.5C9.88213 11.5 10.9503 11.4448 11.5 11C12.1178 10.5 11.5 10 12 9C12.5 8 12.3821 7 10.3821 8Z" fill="url(#paint2_linear_299_8473)"/>
<path d="M4 5.5C3.61786 6 4 7 4 7.5C4 8 3 8.6 3 9C3 10 2.61784 9.5 4 10.5C5.38216 11.5 4.5 13 5 13.5C5.5 14 3.88215 16 1.88216 14.5C0.28216 13.3 0.38208 11 -0.11786 9C-0.367828 8 -1.61784 5.5 -0.617843 3.5C0.382157 1.5 0.882157 3 1.88216 3C2.88216 3 7 1.5 5.38216 4C4.77473 4.93863 4.60724 4.70548 4 5.5Z" fill="url(#paint3_linear_299_8473)"/>
</g>
<g filter="url(#filter1_f_299_8473)">
<ellipse cx="12.6945" cy="11.4487" rx="3" ry="2.1639" transform="rotate(-66 12.6945 11.4487)" fill="black" fill-opacity="0.33"/>
</g>
<g filter="url(#filter2_f_299_8473)">
<ellipse cx="5.69455" cy="4.4487" rx="3" ry="2.1639" transform="rotate(-33 5.69455 4.4487)" fill="white" fill-opacity="0.66"/>
</g>
</g>
<circle cx="8" cy="8" r="6.5" stroke="white" stroke-opacity="0.5"/>
<path fill-rule="evenodd" clip-rule="evenodd" d="M13.7035 6.13201C12.1509 5.42458 10.1647 5 7.99998 5C5.83527 5 3.84906 5.42458 2.29645 6.13202C3.08169 3.73293 5.33845 2 7.99997 2C10.6615 2 12.9182 3.73292 13.7035 6.13201Z" fill="url(#paint4_linear_299_8473)" fill-opacity="0.5"/>
</g>
<circle cx="12.5" cy="12.5" r="3" fill="url(#paint5_radial_299_8473)" stroke="#BC4305"/>
<path fill-rule="evenodd" clip-rule="evenodd" d="M14 13H11V12H14V13Z" fill="white"/>
</g>
<defs>
<filter id="filter0_ddd_299_8473" x="-5" y="-3" width="27.8821" height="25" filterUnits="userSpaceOnUse" color-interpolation-filters="sRGB">
<feFlood flood-opacity="0" result="BackgroundImageFix"/>
<feColorMatrix in="SourceAlpha" type="matrix" values="0 0 0 0 0 0 0 0 0 0 0 0 0 0 0 0 0 0 127 0" result="hardAlpha"/>
<feOffset/>
<feGaussianBlur stdDeviation="0.5"/>
<feComposite in2="hardAlpha" operator="out"/>
<feColorMatrix type="matrix" values="0 0 0 0 0.360784 0 0 0 0 0.647059 0 0 0 0 0.772549 0 0 0 1 0"/>
<feBlend mode="normal" in2="BackgroundImageFix" result="effect1_dropShadow_299_8473"/>
<feColorMatrix in="SourceAlpha" type="matrix" values="0 0 0 0 0 0 0 0 0 0 0 0 0 0 0 0 0 0 127 0" result="hardAlpha"/>
<feOffset dx="1" dy="1"/>
<feGaussianBlur stdDeviation="2.5"/>
<feComposite in2="hardAlpha" operator="out"/>
<feColorMatrix type="matrix" values="0 0 0 0 0.104617 0 0 0 0 0.39999 0 0 0 0 0.631743 0 0 0 1 0"/>
<feBlend mode="normal" in2="effect1_dropShadow_299_8473" result="effect2_dropShadow_299_8473"/>
<feColorMatrix in="SourceAlpha" type="matrix" values="0 0 0 0 0 0 0 0 0 0 0 0 0 0 0 0 0 0 127 0" result="hardAlpha"/>
<feOffset dx="0.5" dy="-0.5"/>
<feComposite in2="hardAlpha" operator="out"/>
<feColorMatrix type="matrix" values="0 0 0 0 0.729199 0 0 0 0 1 0 0 0 0 0.935008 0 0 0 0.66 0"/>
<feBlend mode="normal" in2="effect2_dropShadow_299_8473" result="effect3_dropShadow_299_8473"/>
<feBlend mode="normal" in="SourceGraphic" in2="effect3_dropShadow_299_8473" result="shape"/>
</filter>
<filter id="filter1_f_299_8473" x="6.37109" y="4.56946" width="12.6469" height="13.7585" filterUnits="userSpaceOnUse" color-interpolation-filters="sRGB">
<feFlood flood-opacity="0" result="BackgroundImageFix"/>
<feBlend mode="normal" in="SourceGraphic" in2="BackgroundImageFix" result="shape"/>
<feGaussianBlur stdDeviation="2" result="effect1_foregroundBlur_299_8473"/>
</filter>
<filter id="filter2_f_299_8473" x="-0.0844727" y="-0.993286" width="11.558" height="10.884" filterUnits="userSpaceOnUse" color-interpolation-filters="sRGB">
<feFlood flood-opacity="0" result="BackgroundImageFix"/>
<feBlend mode="normal" in="SourceGraphic" in2="BackgroundImageFix" result="shape"/>
<feGaussianBlur stdDeviation="1.5" result="effect1_foregroundBlur_299_8473"/>
</filter>
<linearGradient id="paint0_linear_299_8473" x1="8" y1="1" x2="8" y2="15" gradientUnits="userSpaceOnUse">
<stop stop-color="#7DB4CA"/>
<stop offset="0.505" stop-color="#3FA0D9"/>
<stop offset="1" stop-color="#6CD5FF"/>
</linearGradient>
<linearGradient id="paint1_linear_299_8473" x1="1.00382" y1="1" x2="14.9962" y2="15" gradientUnits="userSpaceOnUse">
<stop stop-color="#71D960" stop-opacity="0.960784"/>
<stop offset="1" stop-color="#297B24"/>
</linearGradient>
<linearGradient id="paint2_linear_299_8473" x1="4.38214" y1="2" x2="10.8821" y2="15" gradientUnits="userSpaceOnUse">
<stop stop-color="#83F7AA"/>
<stop offset="0.364552" stop-color="#3FD177"/>
<stop offset="0.679603" stop-color="#53B118"/>
<stop offset="0.962038" stop-color="#37881E"/>
</linearGradient>
<linearGradient id="paint3_linear_299_8473" x1="4.38214" y1="2" x2="10.8821" y2="15" gradientUnits="userSpaceOnUse">
<stop stop-color="#83F7AA"/>
<stop offset="0.364552" stop-color="#3FD177"/>
<stop offset="0.679603" stop-color="#53B118"/>
<stop offset="0.962038" stop-color="#37881E"/>
</linearGradient>
<linearGradient id="paint4_linear_299_8473" x1="7.99996" y1="2" x2="7.99996" y2="6.13202" gradientUnits="userSpaceOnUse">
<stop stop-color="white"/>
<stop offset="1" stop-color="white" stop-opacity="0"/>
</linearGradient>
<radialGradient id="paint5_radial_299_8473" cx="0" cy="0" r="1" gradientUnits="userSpaceOnUse" gradientTransform="translate(11 11) rotate(45) scale(4.24264)">
<stop stop-color="#FFAF7D"/>
<stop offset="1" stop-color="#FF6D00"/>
</radialGradient>
<clipPath id="clip0_299_8473">
<rect width="16" height="16" fill="white"/>
</clipPath>
<clipPath id="clip1_299_8473">
<rect width="16" height="16" fill="white"/>
</clipPath>
</defs>
</svg>
