<svg width="16" height="16" viewBox="0 0 16 16" fill="none" xmlns="http://www.w3.org/2000/svg">
<g clip-path="url(#clip0_299_8472)">
<g clip-path="url(#clip1_299_8472)">
<circle cx="8" cy="8" r="7.5" fill="url(#paint0_linear_299_8472)" stroke="url(#paint1_linear_299_8472)"/>
<mask id="mask0_299_8472" style="mask-type:alpha" maskUnits="userSpaceOnUse" x="1" y="1" width="14" height="14">
<circle cx="8" cy="8" r="7" fill="#D9D9D9"/>
</mask>
<g mask="url(#mask0_299_8472)">
<g filter="url(#filter0_ddd_299_8472)">
<path d="M10.3821 8C9.38215 8.5 8.86934 8 8.5 8C8 8 7.38215 7.8 7.38215 7C7.38215 6 7.88216 6 8.88216 5C9.88216 4 10.3822 4 10.8822 2.5C11.3294 1.15836 11.8821 3 13.8821 2C15.8821 1 14.8821 1 15.8821 1C16.8821 1 16.8821 4 16.8821 6C16.8821 8 16.3821 11.5 15.3821 13.5C14.3821 15.5 9.5 16 8.5 16C7.5 16 8.88216 13.5 9.38215 12.5C9.88213 11.5 10.9503 11.4448 11.5 11C12.1178 10.5 11.5 10 12 9C12.5 8 12.3821 7 10.3821 8Z" fill="url(#paint2_linear_299_8472)"/>
<path d="M4 5.5C3.61786 6 4 7 4 7.5C4 8 3 8.6 3 9C3 10 2.61784 9.5 4 10.5C5.38216 11.5 4.5 13 5 13.5C5.5 14 3.88215 16 1.88216 14.5C0.28216 13.3 0.38208 11 -0.11786 9C-0.367828 8 -1.61784 5.5 -0.617843 3.5C0.382157 1.5 0.882157 3 1.88216 3C2.88216 3 7 1.5 5.38216 4C4.77473 4.93863 4.60724 4.70548 4 5.5Z" fill="url(#paint3_linear_299_8472)"/>
</g>
<g filter="url(#filter1_f_299_8472)">
<ellipse cx="12.6946" cy="11.4487" rx="3" ry="2.1639" transform="rotate(-66 12.6946 11.4487)" fill="black" fill-opacity="0.33"/>
</g>
<g filter="url(#filter2_f_299_8472)">
<ellipse cx="5.69455" cy="4.4487" rx="3" ry="2.1639" transform="rotate(-33 5.69455 4.4487)" fill="white" fill-opacity="0.66"/>
</g>
</g>
<circle cx="8" cy="8" r="6.5" stroke="white" stroke-opacity="0.5"/>
<path fill-rule="evenodd" clip-rule="evenodd" d="M13.7035 6.13201C12.1509 5.42458 10.1647 5 8.00001 5C5.8353 5 3.84909 5.42458 2.29648 6.13202C3.08172 3.73293 5.33849 2 8 2C10.6615 2 12.9183 3.73292 13.7035 6.13201Z" fill="url(#paint4_linear_299_8472)" fill-opacity="0.5"/>
</g>
<mask id="path-8-inside-1_299_8472" fill="white">
<path fill-rule="evenodd" clip-rule="evenodd" d="M6.5 16C8.433 16 10 14.433 10 12.5C10 10.567 8.433 9 6.5 9C4.567 9 3 10.567 3 12.5C3 14.433 4.567 16 6.5 16ZM6.5 13C6.77614 13 7 12.7761 7 12.5C7 12.2239 6.77614 12 6.5 12C6.22386 12 6 12.2239 6 12.5C6 12.7761 6.22386 13 6.5 13Z"/>
</mask>
<path fill-rule="evenodd" clip-rule="evenodd" d="M6.5 16C8.433 16 10 14.433 10 12.5C10 10.567 8.433 9 6.5 9C4.567 9 3 10.567 3 12.5C3 14.433 4.567 16 6.5 16ZM6.5 13C6.77614 13 7 12.7761 7 12.5C7 12.2239 6.77614 12 6.5 12C6.22386 12 6 12.2239 6 12.5C6 12.7761 6.22386 13 6.5 13Z" fill="url(#paint5_linear_299_8472)"/>
<path d="M9 12.5C9 13.8807 7.88071 15 6.5 15V17C8.98528 17 11 14.9853 11 12.5H9ZM6.5 10C7.88071 10 9 11.1193 9 12.5H11C11 10.0147 8.98528 8 6.5 8V10ZM4 12.5C4 11.1193 5.11929 10 6.5 10V8C4.01472 8 2 10.0147 2 12.5H4ZM6.5 15C5.11929 15 4 13.8807 4 12.5H2C2 14.9853 4.01472 17 6.5 17V15ZM6 12.5C6 12.2239 6.22386 12 6.5 12V14C7.32843 14 8 13.3284 8 12.5H6ZM6.5 13C6.22386 13 6 12.7761 6 12.5H8C8 11.6716 7.32843 11 6.5 11V13ZM7 12.5C7 12.7761 6.77614 13 6.5 13V11C5.67157 11 5 11.6716 5 12.5H7ZM6.5 12C6.77614 12 7 12.2239 7 12.5H5C5 13.3284 5.67157 14 6.5 14V12Z" fill="url(#paint6_linear_299_8472)" mask="url(#path-8-inside-1_299_8472)"/>
<mask id="path-10-inside-2_299_8472" fill="white">
<path fill-rule="evenodd" clip-rule="evenodd" d="M12.5 16C14.433 16 16 14.433 16 12.5C16 10.567 14.433 9 12.5 9C10.567 9 9 10.567 9 12.5C9 14.433 10.567 16 12.5 16ZM12.5 13C12.7761 13 13 12.7761 13 12.5C13 12.2239 12.7761 12 12.5 12C12.2239 12 12 12.2239 12 12.5C12 12.7761 12.2239 13 12.5 13Z"/>
</mask>
<path fill-rule="evenodd" clip-rule="evenodd" d="M12.5 16C14.433 16 16 14.433 16 12.5C16 10.567 14.433 9 12.5 9C10.567 9 9 10.567 9 12.5C9 14.433 10.567 16 12.5 16ZM12.5 13C12.7761 13 13 12.7761 13 12.5C13 12.2239 12.7761 12 12.5 12C12.2239 12 12 12.2239 12 12.5C12 12.7761 12.2239 13 12.5 13Z" fill="url(#paint7_linear_299_8472)"/>
<path d="M15 12.5C15 13.8807 13.8807 15 12.5 15V17C14.9853 17 17 14.9853 17 12.5H15ZM12.5 10C13.8807 10 15 11.1193 15 12.5H17C17 10.0147 14.9853 8 12.5 8V10ZM10 12.5C10 11.1193 11.1193 10 12.5 10V8C10.0147 8 8 10.0147 8 12.5H10ZM12.5 15C11.1193 15 10 13.8807 10 12.5H8C8 14.9853 10.0147 17 12.5 17V15ZM12 12.5C12 12.2239 12.2239 12 12.5 12V14C13.3284 14 14 13.3284 14 12.5H12ZM12.5 13C12.2239 13 12 12.7761 12 12.5H14C14 11.6716 13.3284 11 12.5 11V13ZM13 12.5C13 12.7761 12.7761 13 12.5 13V11C11.6716 11 11 11.6716 11 12.5H13ZM12.5 12C12.7761 12 13 12.2239 13 12.5H11C11 13.3284 11.6716 14 12.5 14V12Z" fill="url(#paint8_linear_299_8472)" mask="url(#path-10-inside-2_299_8472)"/>
<rect x="6.5" y="11.5" width="6" height="2" fill="url(#paint9_linear_299_8472)"/>
<rect x="6.5" y="11.5" width="6" height="2" stroke="url(#paint10_linear_299_8472)" stroke-linejoin="round"/>
<rect x="6.5" y="11.5" width="6" height="2" stroke="url(#paint11_linear_299_8472)" stroke-linejoin="round"/>
</g>
<defs>
<filter id="filter0_ddd_299_8472" x="-5" y="-3" width="27.8821" height="25" filterUnits="userSpaceOnUse" color-interpolation-filters="sRGB">
<feFlood flood-opacity="0" result="BackgroundImageFix"/>
<feColorMatrix in="SourceAlpha" type="matrix" values="0 0 0 0 0 0 0 0 0 0 0 0 0 0 0 0 0 0 127 0" result="hardAlpha"/>
<feOffset/>
<feGaussianBlur stdDeviation="0.5"/>
<feComposite in2="hardAlpha" operator="out"/>
<feColorMatrix type="matrix" values="0 0 0 0 0.360784 0 0 0 0 0.647059 0 0 0 0 0.772549 0 0 0 1 0"/>
<feBlend mode="normal" in2="BackgroundImageFix" result="effect1_dropShadow_299_8472"/>
<feColorMatrix in="SourceAlpha" type="matrix" values="0 0 0 0 0 0 0 0 0 0 0 0 0 0 0 0 0 0 127 0" result="hardAlpha"/>
<feOffset dx="1" dy="1"/>
<feGaussianBlur stdDeviation="2.5"/>
<feComposite in2="hardAlpha" operator="out"/>
<feColorMatrix type="matrix" values="0 0 0 0 0.104617 0 0 0 0 0.39999 0 0 0 0 0.631743 0 0 0 1 0"/>
<feBlend mode="normal" in2="effect1_dropShadow_299_8472" result="effect2_dropShadow_299_8472"/>
<feColorMatrix in="SourceAlpha" type="matrix" values="0 0 0 0 0 0 0 0 0 0 0 0 0 0 0 0 0 0 127 0" result="hardAlpha"/>
<feOffset dx="0.5" dy="-0.5"/>
<feComposite in2="hardAlpha" operator="out"/>
<feColorMatrix type="matrix" values="0 0 0 0 0.729199 0 0 0 0 1 0 0 0 0 0.935008 0 0 0 0.66 0"/>
<feBlend mode="normal" in2="effect2_dropShadow_299_8472" result="effect3_dropShadow_299_8472"/>
<feBlend mode="normal" in="SourceGraphic" in2="effect3_dropShadow_299_8472" result="shape"/>
</filter>
<filter id="filter1_f_299_8472" x="6.37115" y="4.56946" width="12.6468" height="13.7585" filterUnits="userSpaceOnUse" color-interpolation-filters="sRGB">
<feFlood flood-opacity="0" result="BackgroundImageFix"/>
<feBlend mode="normal" in="SourceGraphic" in2="BackgroundImageFix" result="shape"/>
<feGaussianBlur stdDeviation="2" result="effect1_foregroundBlur_299_8472"/>
</filter>
<filter id="filter2_f_299_8472" x="-0.0844727" y="-0.993286" width="11.558" height="10.884" filterUnits="userSpaceOnUse" color-interpolation-filters="sRGB">
<feFlood flood-opacity="0" result="BackgroundImageFix"/>
<feBlend mode="normal" in="SourceGraphic" in2="BackgroundImageFix" result="shape"/>
<feGaussianBlur stdDeviation="1.5" result="effect1_foregroundBlur_299_8472"/>
</filter>
<linearGradient id="paint0_linear_299_8472" x1="8" y1="1" x2="8" y2="15" gradientUnits="userSpaceOnUse">
<stop stop-color="#7DB4CA"/>
<stop offset="0.505" stop-color="#3FA0D9"/>
<stop offset="1" stop-color="#6CD5FF"/>
</linearGradient>
<linearGradient id="paint1_linear_299_8472" x1="1.00382" y1="1" x2="14.9962" y2="15" gradientUnits="userSpaceOnUse">
<stop stop-color="#71D960" stop-opacity="0.960784"/>
<stop offset="1" stop-color="#297B24"/>
</linearGradient>
<linearGradient id="paint2_linear_299_8472" x1="4.38214" y1="2" x2="10.8821" y2="15" gradientUnits="userSpaceOnUse">
<stop stop-color="#83F7AA"/>
<stop offset="0.364552" stop-color="#3FD177"/>
<stop offset="0.679603" stop-color="#53B118"/>
<stop offset="0.962038" stop-color="#37881E"/>
</linearGradient>
<linearGradient id="paint3_linear_299_8472" x1="4.38214" y1="2" x2="10.8821" y2="15" gradientUnits="userSpaceOnUse">
<stop stop-color="#83F7AA"/>
<stop offset="0.364552" stop-color="#3FD177"/>
<stop offset="0.679603" stop-color="#53B118"/>
<stop offset="0.962038" stop-color="#37881E"/>
</linearGradient>
<linearGradient id="paint4_linear_299_8472" x1="7.99999" y1="2" x2="7.99999" y2="6.13202" gradientUnits="userSpaceOnUse">
<stop stop-color="white"/>
<stop offset="1" stop-color="white" stop-opacity="0"/>
</linearGradient>
<linearGradient id="paint5_linear_299_8472" x1="5" y1="11" x2="8.5" y2="14.5" gradientUnits="userSpaceOnUse">
<stop stop-color="#D9D9D9"/>
<stop offset="1" stop-color="#737373"/>
</linearGradient>
<linearGradient id="paint6_linear_299_8472" x1="10" y1="16" x2="3" y2="9" gradientUnits="userSpaceOnUse">
<stop stop-color="#404040"/>
<stop offset="1" stop-color="#8D8D8D"/>
</linearGradient>
<linearGradient id="paint7_linear_299_8472" x1="11" y1="11" x2="14" y2="14" gradientUnits="userSpaceOnUse">
<stop stop-color="#D9D9D9"/>
<stop offset="1" stop-color="#737373"/>
</linearGradient>
<linearGradient id="paint8_linear_299_8472" x1="16" y1="16" x2="9" y2="9" gradientUnits="userSpaceOnUse">
<stop stop-color="#404040"/>
<stop offset="1" stop-color="#8D8D8D"/>
</linearGradient>
<linearGradient id="paint9_linear_299_8472" x1="7.71429" y1="12.1429" x2="7.98901" y2="13.5165" gradientUnits="userSpaceOnUse">
<stop stop-color="#D9D9D9"/>
<stop offset="1" stop-color="#737373"/>
</linearGradient>
<linearGradient id="paint10_linear_299_8472" x1="9.5" y1="14" x2="9.5" y2="11" gradientUnits="userSpaceOnUse">
<stop offset="0.33" stop-color="#515151"/>
<stop offset="0.66" stop-color="#8D8D8D"/>
</linearGradient>
<linearGradient id="paint11_linear_299_8472" x1="7" y1="12.5" x2="12" y2="12.5" gradientUnits="userSpaceOnUse">
<stop stop-color="#484848"/>
<stop offset="0.515" stop-color="#484848" stop-opacity="0"/>
<stop offset="1" stop-color="#484848"/>
</linearGradient>
<clipPath id="clip0_299_8472">
<rect width="16" height="16" fill="white"/>
</clipPath>
<clipPath id="clip1_299_8472">
<rect width="16" height="16" fill="white"/>
</clipPath>
</defs>
</svg>
