<svg width="16" height="16" viewBox="0 0 16 16" fill="none" xmlns="http://www.w3.org/2000/svg">
<g clip-path="url(#clip0_299_8471)">
<g clip-path="url(#clip1_299_8471)">
<circle cx="8" cy="8" r="7.5" fill="url(#paint0_linear_299_8471)" stroke="url(#paint1_linear_299_8471)"/>
<mask id="mask0_299_8471" style="mask-type:alpha" maskUnits="userSpaceOnUse" x="1" y="1" width="14" height="14">
<circle cx="8" cy="8" r="7" fill="#D9D9D9"/>
</mask>
<g mask="url(#mask0_299_8471)">
<g filter="url(#filter0_ddd_299_8471)">
<path d="M10.3821 8C9.38215 8.5 8.86934 8 8.5 8C8 8 7.38215 7.8 7.38215 7C7.38215 6 7.88216 6 8.88216 5C9.88216 4 10.3822 4 10.8822 2.5C11.3294 1.15836 11.8821 3 13.8821 2C15.8821 1 14.8821 1 15.8821 1C16.8821 1 16.8821 4 16.8821 6C16.8821 8 16.3821 11.5 15.3821 13.5C14.3821 15.5 9.5 16 8.5 16C7.5 16 8.88216 13.5 9.38215 12.5C9.88213 11.5 10.9503 11.4448 11.5 11C12.1178 10.5 11.5 10 12 9C12.5 8 12.3821 7 10.3821 8Z" fill="url(#paint2_linear_299_8471)"/>
<path d="M4 5.5C3.61786 6 4 7 4 7.5C4 8 3 8.6 3 9C3 10 2.61784 9.5 4 10.5C5.38216 11.5 4.5 13 5 13.5C5.5 14 3.88215 16 1.88216 14.5C0.28216 13.3 0.38208 11 -0.11786 9C-0.367828 8 -1.61784 5.5 -0.617843 3.5C0.382157 1.5 0.882157 3 1.88216 3C2.88216 3 7 1.5 5.38216 4C4.77473 4.93863 4.60724 4.70548 4 5.5Z" fill="url(#paint3_linear_299_8471)"/>
</g>
<g filter="url(#filter1_f_299_8471)">
<ellipse cx="12.6946" cy="11.4487" rx="3" ry="2.1639" transform="rotate(-66 12.6946 11.4487)" fill="black" fill-opacity="0.33"/>
</g>
<g filter="url(#filter2_f_299_8471)">
<ellipse cx="5.69455" cy="4.4487" rx="3" ry="2.1639" transform="rotate(-33 5.69455 4.4487)" fill="white" fill-opacity="0.66"/>
</g>
</g>
<circle cx="8" cy="8" r="6.5" stroke="white" stroke-opacity="0.5"/>
<path fill-rule="evenodd" clip-rule="evenodd" d="M13.7035 6.13201C12.1509 5.42458 10.1647 5 7.99999 5C5.83529 5 3.84908 5.42458 2.29646 6.13202C3.08171 3.73293 5.33847 2 7.99998 2C10.6615 2 12.9182 3.73292 13.7035 6.13201Z" fill="url(#paint4_linear_299_8471)" fill-opacity="0.5"/>
</g>
<path d="M4.54043 14.803C4.45989 14.991 4.50188 15.209 4.64645 15.3536C4.79102 15.4981 5.00904 15.5401 5.19696 15.4596L8.69696 13.9596C8.84946 13.8942 8.9596 13.7575 8.99098 13.5946C9.02235 13.4316 8.97087 13.2638 8.85355 13.1464L6.85355 11.1464C6.73624 11.0291 6.56836 10.9776 6.40545 11.009C6.24253 11.0404 6.10578 11.1505 6.04043 11.303L4.54043 14.803Z" fill="url(#paint5_linear_299_8471)"/>
<path d="M4.54043 14.803C4.45989 14.991 4.50188 15.209 4.64645 15.3536C4.79102 15.4981 5.00904 15.5401 5.19696 15.4596L8.69696 13.9596C8.84946 13.8942 8.9596 13.7575 8.99098 13.5946C9.02235 13.4316 8.97087 13.2638 8.85355 13.1464L6.85355 11.1464C6.73624 11.0291 6.56836 10.9776 6.40545 11.009C6.24253 11.0404 6.10578 11.1505 6.04043 11.303L4.54043 14.803Z" fill="url(#paint6_linear_299_8471)"/>
<path d="M4.54043 14.803C4.45989 14.991 4.50188 15.209 4.64645 15.3536C4.79102 15.4981 5.00904 15.5401 5.19696 15.4596L8.69696 13.9596C8.84946 13.8942 8.9596 13.7575 8.99098 13.5946C9.02235 13.4316 8.97087 13.2638 8.85355 13.1464L6.85355 11.1464C6.73624 11.0291 6.56836 10.9776 6.40545 11.009C6.24253 11.0404 6.10578 11.1505 6.04043 11.303L4.54043 14.803Z" stroke="url(#paint7_linear_299_8471)" stroke-linejoin="round"/>
<path d="M4.54043 14.803C4.45989 14.991 4.50188 15.209 4.64645 15.3536C4.79102 15.4981 5.00904 15.5401 5.19696 15.4596L8.69696 13.9596C8.84946 13.8942 8.9596 13.7575 8.99098 13.5946C9.02235 13.4316 8.97087 13.2638 8.85355 13.1464L6.85355 11.1464C6.73624 11.0291 6.56836 10.9776 6.40545 11.009C6.24253 11.0404 6.10578 11.1505 6.04043 11.303L4.54043 14.803Z" stroke="url(#paint8_linear_299_8471)" stroke-linejoin="round"/>
<path d="M6.14645 11.1464C5.95118 11.3417 5.95118 11.6583 6.14645 11.8536L8.14645 13.8536C8.34171 14.0488 8.65829 14.0488 8.85355 13.8536L14.8536 7.85355C15.0488 7.65829 15.0488 7.34171 14.8536 7.14645L12.8536 5.14645C12.6583 4.95118 12.3417 4.95118 12.1464 5.14645L6.14645 11.1464Z" fill="url(#paint9_linear_299_8471)" stroke="url(#paint10_linear_299_8471)" stroke-linejoin="round"/>
<path fill-rule="evenodd" clip-rule="evenodd" d="M6.5 11.5L7.20711 12.2071L13.2071 6.20711L12.5 5.5L6.5 11.5Z" fill="#FCF4B3"/>
<path d="M14.1464 7.85356L14.5 8.20712L14.8536 7.85356C15.0768 7.63032 15.3397 7.23926 15.4185 6.75535C15.5023 6.24043 15.3688 5.66169 14.8536 5.14646C14.3383 4.63123 13.7596 4.49768 13.2447 4.58151C12.7607 4.66028 12.3697 4.92321 12.1464 5.14646L11.7929 5.50001L12.1464 5.85356L14.1464 7.85356Z" fill="url(#paint11_linear_299_8471)" stroke="url(#paint12_linear_299_8471)"/>
</g>
<defs>
<filter id="filter0_ddd_299_8471" x="-5" y="-3" width="27.8821" height="25" filterUnits="userSpaceOnUse" color-interpolation-filters="sRGB">
<feFlood flood-opacity="0" result="BackgroundImageFix"/>
<feColorMatrix in="SourceAlpha" type="matrix" values="0 0 0 0 0 0 0 0 0 0 0 0 0 0 0 0 0 0 127 0" result="hardAlpha"/>
<feOffset/>
<feGaussianBlur stdDeviation="0.5"/>
<feComposite in2="hardAlpha" operator="out"/>
<feColorMatrix type="matrix" values="0 0 0 0 0.360784 0 0 0 0 0.647059 0 0 0 0 0.772549 0 0 0 1 0"/>
<feBlend mode="normal" in2="BackgroundImageFix" result="effect1_dropShadow_299_8471"/>
<feColorMatrix in="SourceAlpha" type="matrix" values="0 0 0 0 0 0 0 0 0 0 0 0 0 0 0 0 0 0 127 0" result="hardAlpha"/>
<feOffset dx="1" dy="1"/>
<feGaussianBlur stdDeviation="2.5"/>
<feComposite in2="hardAlpha" operator="out"/>
<feColorMatrix type="matrix" values="0 0 0 0 0.104617 0 0 0 0 0.39999 0 0 0 0 0.631743 0 0 0 1 0"/>
<feBlend mode="normal" in2="effect1_dropShadow_299_8471" result="effect2_dropShadow_299_8471"/>
<feColorMatrix in="SourceAlpha" type="matrix" values="0 0 0 0 0 0 0 0 0 0 0 0 0 0 0 0 0 0 127 0" result="hardAlpha"/>
<feOffset dx="0.5" dy="-0.5"/>
<feComposite in2="hardAlpha" operator="out"/>
<feColorMatrix type="matrix" values="0 0 0 0 0.729199 0 0 0 0 1 0 0 0 0 0.935008 0 0 0 0.66 0"/>
<feBlend mode="normal" in2="effect2_dropShadow_299_8471" result="effect3_dropShadow_299_8471"/>
<feBlend mode="normal" in="SourceGraphic" in2="effect3_dropShadow_299_8471" result="shape"/>
</filter>
<filter id="filter1_f_299_8471" x="6.37115" y="4.56946" width="12.6468" height="13.7585" filterUnits="userSpaceOnUse" color-interpolation-filters="sRGB">
<feFlood flood-opacity="0" result="BackgroundImageFix"/>
<feBlend mode="normal" in="SourceGraphic" in2="BackgroundImageFix" result="shape"/>
<feGaussianBlur stdDeviation="2" result="effect1_foregroundBlur_299_8471"/>
</filter>
<filter id="filter2_f_299_8471" x="-0.0844574" y="-0.993286" width="11.558" height="10.884" filterUnits="userSpaceOnUse" color-interpolation-filters="sRGB">
<feFlood flood-opacity="0" result="BackgroundImageFix"/>
<feBlend mode="normal" in="SourceGraphic" in2="BackgroundImageFix" result="shape"/>
<feGaussianBlur stdDeviation="1.5" result="effect1_foregroundBlur_299_8471"/>
</filter>
<linearGradient id="paint0_linear_299_8471" x1="8" y1="1" x2="8" y2="15" gradientUnits="userSpaceOnUse">
<stop stop-color="#7DB4CA"/>
<stop offset="0.505" stop-color="#3FA0D9"/>
<stop offset="1" stop-color="#6CD5FF"/>
</linearGradient>
<linearGradient id="paint1_linear_299_8471" x1="1.00382" y1="1" x2="14.9962" y2="15" gradientUnits="userSpaceOnUse">
<stop stop-color="#71D960" stop-opacity="0.960784"/>
<stop offset="1" stop-color="#297B24"/>
</linearGradient>
<linearGradient id="paint2_linear_299_8471" x1="4.38214" y1="2" x2="10.8821" y2="15" gradientUnits="userSpaceOnUse">
<stop stop-color="#83F7AA"/>
<stop offset="0.364552" stop-color="#3FD177"/>
<stop offset="0.679603" stop-color="#53B118"/>
<stop offset="0.962038" stop-color="#37881E"/>
</linearGradient>
<linearGradient id="paint3_linear_299_8471" x1="4.38214" y1="2" x2="10.8821" y2="15" gradientUnits="userSpaceOnUse">
<stop stop-color="#83F7AA"/>
<stop offset="0.364552" stop-color="#3FD177"/>
<stop offset="0.679603" stop-color="#53B118"/>
<stop offset="0.962038" stop-color="#37881E"/>
</linearGradient>
<linearGradient id="paint4_linear_299_8471" x1="7.99998" y1="2" x2="7.99998" y2="6.13202" gradientUnits="userSpaceOnUse">
<stop stop-color="white"/>
<stop offset="1" stop-color="white" stop-opacity="0"/>
</linearGradient>
<linearGradient id="paint5_linear_299_8471" x1="6.16667" y1="11.8889" x2="8.11111" y2="13.8333" gradientUnits="userSpaceOnUse">
<stop stop-color="#FAE7D1"/>
<stop offset="1" stop-color="#E89840"/>
</linearGradient>
<linearGradient id="paint6_linear_299_8471" x1="6.94444" y1="12.6667" x2="3.83333" y2="15.7778" gradientUnits="userSpaceOnUse">
<stop stop-color="#584013" stop-opacity="0"/>
<stop offset="0.499937" stop-color="#584013" stop-opacity="0"/>
<stop offset="0.661921" stop-color="#584013"/>
</linearGradient>
<linearGradient id="paint7_linear_299_8471" x1="6.16667" y1="12.6667" x2="7.33333" y2="13.8333" gradientUnits="userSpaceOnUse">
<stop stop-color="#B98926"/>
<stop offset="1" stop-color="#AA6016"/>
</linearGradient>
<linearGradient id="paint8_linear_299_8471" x1="7.72222" y1="11.8889" x2="3.83333" y2="15.7778" gradientUnits="userSpaceOnUse">
<stop offset="0.5" stop-color="#B98926" stop-opacity="0"/>
<stop offset="0.656842" stop-color="#584013"/>
</linearGradient>
<linearGradient id="paint9_linear_299_8471" x1="6.5" y1="11.6579" x2="8.34211" y2="13.5" gradientUnits="userSpaceOnUse">
<stop stop-color="#F5DC60"/>
<stop offset="1" stop-color="#EFCB1A"/>
</linearGradient>
<linearGradient id="paint10_linear_299_8471" x1="6.5" y1="11.6579" x2="8.3421" y2="13.5" gradientUnits="userSpaceOnUse">
<stop stop-color="#E9C755"/>
<stop offset="1" stop-color="#D98F3B"/>
</linearGradient>
<linearGradient id="paint11_linear_299_8471" x1="12.4766" y1="6.30195" x2="14.8903" y2="6.69267" gradientUnits="userSpaceOnUse">
<stop stop-color="#FDD7D1"/>
<stop offset="1" stop-color="#FBACA1"/>
</linearGradient>
<linearGradient id="paint12_linear_299_8471" x1="12.5" y1="6.31509" x2="14.8693" y2="6.72938" gradientUnits="userSpaceOnUse">
<stop stop-color="#E1B3AD"/>
<stop offset="1" stop-color="#B17971"/>
</linearGradient>
<clipPath id="clip0_299_8471">
<rect width="16" height="16" fill="white"/>
</clipPath>
<clipPath id="clip1_299_8471">
<rect width="16" height="16" fill="white"/>
</clipPath>
</defs>
</svg>
