<svg width="16" height="16" viewBox="0 0 16 16" fill="none" xmlns="http://www.w3.org/2000/svg">
<g clip-path="url(#clip0_414_6718)">
<mask id="path-1-outside-1_414_6718" maskUnits="userSpaceOnUse" x="6.5" y="0" width="10" height="10" fill="black">
<rect fill="white" x="6.5" width="10" height="10"/>
<path fill-rule="evenodd" clip-rule="evenodd" d="M9.77745 1.71564C10.4495 1.04286 11.5707 0.82486 12.6167 1.14533L11.2887 1.91292C10.8106 2.1893 10.6466 2.80119 10.9225 3.27962L12.1475 5.40388C12.4234 5.88231 13.0347 6.0461 13.5129 5.76972L15 4.91017C14.9221 5.44945 14.7033 5.93805 14.3492 6.2926C13.716 6.92645 12.7437 7.06774 11.7949 6.75977C9.89327 6.87735 8.5 8.50002 8.5 8.50002L7.5 7.50002C7.5 7.50002 9.18493 6.10948 9.31021 4.27097C9.00338 3.32166 9.14474 2.34907 9.77745 1.71564Z"/>
</mask>
<path fill-rule="evenodd" clip-rule="evenodd" d="M9.77745 1.71564C10.4495 1.04286 11.5707 0.82486 12.6167 1.14533L11.2887 1.91292C10.8106 2.1893 10.6466 2.80119 10.9225 3.27962L12.1475 5.40388C12.4234 5.88231 13.0347 6.0461 13.5129 5.76972L15 4.91017C14.9221 5.44945 14.7033 5.93805 14.3492 6.2926C13.716 6.92645 12.7437 7.06774 11.7949 6.75977C9.89327 6.87735 8.5 8.50002 8.5 8.50002L7.5 7.50002C7.5 7.50002 9.18493 6.10948 9.31021 4.27097C9.00338 3.32166 9.14474 2.34907 9.77745 1.71564Z" fill="#D9D9D9"/>
<path d="M12.6167 1.14533L13.1171 2.01111C13.4616 1.81198 13.6553 1.42754 13.6103 1.03218C13.5652 0.636817 13.2901 0.305771 12.9096 0.189203L12.6167 1.14533ZM9.77745 1.71564L9.06994 1.00893L9.06994 1.00893L9.77745 1.71564ZM11.2887 1.91292L11.7891 2.7787L11.2887 1.91292ZM10.9225 3.27962L10.0562 3.77919L10.9225 3.27962ZM12.1475 5.40388L13.0138 4.90431L13.0138 4.9043L12.1475 5.40388ZM13.5129 5.76972L13.0125 4.90394L13.5129 5.76972ZM15 4.91017L15.9897 5.053C16.0444 4.67384 15.8777 4.29675 15.5605 4.08202C15.2432 3.8673 14.8312 3.85268 14.4995 4.04439L15 4.91017ZM14.3492 6.2926L13.6417 5.58589L13.6417 5.5859L14.3492 6.2926ZM11.7949 6.75977L12.1036 5.80862C11.9842 5.76985 11.8585 5.75392 11.7332 5.76167L11.7949 6.75977ZM8.5 8.50002L7.79289 9.20713C7.98975 9.40398 8.25975 9.50987 8.53795 9.4993C8.81614 9.48874 9.07734 9.36268 9.2587 9.15146L8.5 8.50002ZM7.5 7.50002L6.86349 6.72876C6.64615 6.90812 6.51458 7.17085 6.50114 7.45232C6.4877 7.7338 6.59364 8.00787 6.79289 8.20713L7.5 7.50002ZM9.31021 4.27097L10.3079 4.33896C10.3165 4.21198 10.3009 4.08452 10.2617 3.96342L9.31021 4.27097ZM12.9096 0.189203C11.5837 -0.217038 10.0541 0.0236728 9.06994 1.00893L10.485 2.42234C10.8448 2.06205 11.5577 1.86676 12.3237 2.10146L12.9096 0.189203ZM11.7891 2.7787L13.1171 2.01111L12.1163 0.279556L10.7883 1.04714L11.7891 2.7787ZM11.7888 2.78005C11.7881 2.77891 11.7881 2.77863 11.7882 2.77907C11.7884 2.77946 11.7885 2.77992 11.7885 2.78031C11.7886 2.78094 11.7884 2.7805 11.7888 2.77932C11.7891 2.77814 11.7894 2.77784 11.789 2.77835C11.7888 2.77866 11.7885 2.77901 11.7882 2.77928C11.7878 2.77959 11.788 2.77935 11.7891 2.7787L10.7883 1.04714C9.83231 1.59971 9.50462 2.82267 10.0562 3.77919L11.7888 2.78005ZM13.0138 4.9043L11.7888 2.78005L10.0562 3.77919L11.2813 5.90345L13.0138 4.9043ZM13.0125 4.90394C13.0113 4.9046 13.0111 4.90461 13.0116 4.90444C13.0121 4.90428 13.0126 4.90415 13.0131 4.90409C13.0141 4.90397 13.014 4.90414 13.0132 4.90393C13.0124 4.90371 13.0124 4.90352 13.0131 4.90409C13.0136 4.90441 13.014 4.9048 13.0143 4.90517C13.0147 4.90558 13.0145 4.90544 13.0138 4.90431L11.2813 5.90345C11.8333 6.86064 13.0567 7.18845 14.0133 6.6355L13.0125 4.90394ZM14.4995 4.04439L13.0125 4.90394L14.0133 6.6355L15.5004 5.77594L14.4995 4.04439ZM15.0567 6.9993C15.5908 6.4646 15.8872 5.7637 15.9897 5.053L14.0102 4.76733C13.9571 5.13521 13.8158 5.41151 13.6417 5.58589L15.0567 6.9993ZM11.4862 7.71091C12.6907 8.10188 14.0896 7.96753 15.0567 6.9993L13.6417 5.5859C13.3425 5.88537 12.7968 6.0336 12.1036 5.80862L11.4862 7.71091ZM11.7332 5.76167C10.5216 5.83659 9.51729 6.38381 8.85147 6.86142C8.51206 7.10489 8.2419 7.34366 8.05478 7.52335C7.96081 7.61359 7.88665 7.69001 7.83404 7.74613C7.8077 7.77423 7.78667 7.79733 7.77116 7.81465C7.76341 7.82331 7.75702 7.83053 7.75204 7.83622C7.74955 7.83906 7.7474 7.84152 7.74561 7.84359C7.74472 7.84462 7.74391 7.84555 7.74319 7.84638C7.74283 7.8468 7.7425 7.84719 7.74218 7.84756C7.74202 7.84774 7.7418 7.848 7.74172 7.84809C7.74151 7.84834 7.7413 7.84858 8.5 8.50002C9.2587 9.15146 9.2585 9.15169 9.25831 9.15192C9.25825 9.15199 9.25806 9.1522 9.25795 9.15234C9.25772 9.15261 9.25751 9.15285 9.25732 9.15307C9.25694 9.15351 9.25664 9.15385 9.25642 9.15411C9.25598 9.15461 9.25587 9.15474 9.25607 9.15451C9.25647 9.15405 9.25815 9.15214 9.26106 9.14889C9.26689 9.14238 9.27765 9.13051 9.29312 9.114C9.32413 9.08093 9.37368 9.02966 9.44005 8.96593C9.57358 8.8377 9.7706 8.66345 10.0172 8.48655C10.5234 8.12343 11.1666 7.80053 11.8566 7.75786L11.7332 5.76167ZM9.20711 7.79292L8.20711 6.79292L6.79289 8.20713L7.79289 9.20713L9.20711 7.79292ZM7.5 7.50002C8.13651 8.27129 8.13675 8.27109 8.13699 8.27089C8.13708 8.27082 8.13733 8.27061 8.13751 8.27046C8.13787 8.27016 8.13826 8.26984 8.13867 8.2695C8.1395 8.26882 8.14043 8.26804 8.14146 8.26718C8.14352 8.26546 8.146 8.26339 8.14887 8.26098C8.15461 8.25614 8.16195 8.24991 8.17078 8.24232C8.18844 8.22714 8.21212 8.20647 8.24097 8.18055C8.29862 8.12876 8.37736 8.05562 8.47049 7.96297C8.65589 7.77854 8.90305 7.51208 9.15559 7.1783C9.64819 6.52723 10.2265 5.53399 10.3079 4.33896L8.31252 4.20299C8.26868 4.84646 7.94185 5.46775 7.56065 5.97158C7.3763 6.21524 7.19441 6.41133 7.05996 6.54508C6.99318 6.61152 6.93931 6.66138 6.90432 6.69281C6.88686 6.7085 6.8742 6.7195 6.86712 6.72559C6.86358 6.72863 6.86145 6.73044 6.86081 6.73098C6.86049 6.73125 6.86054 6.7312 6.86098 6.73083C6.86121 6.73065 6.86152 6.73038 6.86194 6.73004C6.86215 6.72986 6.86238 6.72967 6.86264 6.72946C6.86277 6.72935 6.86298 6.72917 6.86304 6.72912C6.86326 6.72894 6.86349 6.72876 7.5 7.50002ZM9.06994 1.00893C8.10382 1.97615 7.96945 3.3743 8.35868 4.57852L10.2617 3.96342C10.0373 3.26902 10.1857 2.72199 10.485 2.42234L9.06994 1.00893Z" fill="#929292" mask="url(#path-1-outside-1_414_6718)"/>
<path d="M0.5 12.5C0.5 12.3674 0.552678 12.2402 0.646446 12.1464L6.14645 6.64645C6.34171 6.45118 6.65829 6.45118 6.85355 6.64645L9.35355 9.14645C9.54882 9.34171 9.54882 9.65829 9.35355 9.85355L3.85355 15.3536C3.75979 15.4473 3.63261 15.5 3.5 15.5H2C1.86739 15.5 1.74021 15.4473 1.64645 15.3536L0.646446 14.3536C0.552678 14.2598 0.5 14.1326 0.5 14V12.5Z" stroke="url(#paint0_linear_414_6718)" stroke-linejoin="round"/>
<path d="M1 12.5V14L2 15H3.5L9 9.5L6.5 7L1 12.5Z" fill="#B2C8EC"/>
<path d="M6.5 7.70711L1.5 12.7071V13.7929L2.20711 14.5H3.29289L8.29289 9.5L6.5 7.70711Z" stroke="white" stroke-opacity="0.33" stroke-linejoin="round"/>
</g>
<defs>
<linearGradient id="paint0_linear_414_6718" x1="3" y1="11" x2="5" y2="13" gradientUnits="userSpaceOnUse">
<stop stop-color="#90ADDE"/>
<stop offset="1" stop-color="#5283D3"/>
</linearGradient>
<clipPath id="clip0_414_6718">
<rect width="16" height="16" fill="white"/>
</clipPath>
</defs>
</svg>
