<svg width="16" height="16" viewBox="0 0 16 16" fill="none" xmlns="http://www.w3.org/2000/svg">
<g clip-path="url(#clip0_135_3224)">
<g filter="url(#filter0_ii_135_3224)">
<rect y="3" width="16" height="11" rx="2" fill="#3E7DD0"/>
</g>
<rect x="0.5" y="3.5" width="15" height="10" rx="1.5" stroke="black" style="mix-blend-mode:overlay"/>
<rect x="0.5" y="3.5" width="15" height="10" rx="1.5" stroke="black" stroke-opacity="0.2" style="mix-blend-mode:overlay"/>
<mask id="path-3-outside-1_135_3224" maskUnits="userSpaceOnUse" x="-1" y="5" width="17" height="7" fill="black">
<rect fill="white" x="-1" y="5" width="17" height="7"/>
<path d="M3.37081 8.389L4.58881 11H3.63681L2.83181 8.991L2.04781 11H1.12381L2.30681 8.424L1.21481 6.163H2.16681L2.84581 7.864L3.55981 6.163H4.47681L3.37081 8.389ZM6.10229 11V8.83H4.73729V11H3.84129V6.163H4.73729V8.116H6.10229V6.163H6.99129V11H6.10229ZM9.45584 6.163L9.36484 6.863H8.30784V11H7.41884V6.863H6.31984V6.163H9.45584ZM12.3845 6.163L12.7065 11H11.8525L11.7615 8.956C11.7265 8.242 11.7055 7.5 11.7125 6.996L10.9985 10.468H10.1585L9.40252 6.989C9.42352 7.626 9.40952 8.291 9.38152 8.984L9.29052 11H8.45052L8.77952 6.163H9.90652L10.5925 9.572L11.2365 6.163H12.3845ZM13.1575 6.163V10.265H14.7955L14.7045 11H12.2615V6.163H13.1575Z"/>
</mask>
<path d="M3.37081 8.389L4.58881 11H3.63681L2.83181 8.991L2.04781 11H1.12381L2.30681 8.424L1.21481 6.163H2.16681L2.84581 7.864L3.55981 6.163H4.47681L3.37081 8.389ZM6.10229 11V8.83H4.73729V11H3.84129V6.163H4.73729V8.116H6.10229V6.163H6.99129V11H6.10229ZM9.45584 6.163L9.36484 6.863H8.30784V11H7.41884V6.863H6.31984V6.163H9.45584ZM12.3845 6.163L12.7065 11H11.8525L11.7615 8.956C11.7265 8.242 11.7055 7.5 11.7125 6.996L10.9985 10.468H10.1585L9.40252 6.989C9.42352 7.626 9.40952 8.291 9.38152 8.984L9.29052 11H8.45052L8.77952 6.163H9.90652L10.5925 9.572L11.2365 6.163H12.3845ZM13.1575 6.163V10.265H14.7955L14.7045 11H12.2615V6.163H13.1575Z" fill="white"/>
<path d="M3.37081 8.389L2.47526 7.94404L2.26098 8.37532L2.46457 8.81175L3.37081 8.389ZM4.58881 11V12H6.15875L5.49506 10.5772L4.58881 11ZM3.63681 11L2.70856 11.3719L2.96022 12H3.63681V11ZM2.83181 8.991L3.76007 8.61905L2.81952 6.27178L1.90024 8.62746L2.83181 8.991ZM2.04781 11V12H2.73102L2.97939 11.3635L2.04781 11ZM1.12381 11L0.21506 10.5827L-0.435836 12H1.12381V11ZM2.30681 8.424L3.21557 8.84133L3.41215 8.41327L3.20729 7.98909L2.30681 8.424ZM1.21481 6.163V5.163H-0.378683L0.314336 6.5979L1.21481 6.163ZM2.16681 6.163L3.09555 5.79227L2.84436 5.163H2.16681V6.163ZM2.84581 7.864L1.91707 8.23473L2.82256 10.5031L3.76788 8.25104L2.84581 7.864ZM3.55981 6.163V5.163H2.89504L2.63775 5.77596L3.55981 6.163ZM4.47681 6.163L5.37236 6.60796L6.0903 5.163H4.47681V6.163ZM2.46457 8.81175L3.68257 11.4228L5.49506 10.5772L4.27706 7.96625L2.46457 8.81175ZM4.58881 10H3.63681V12H4.58881V10ZM4.56507 10.6281L3.76007 8.61905L1.90356 9.36295L2.70856 11.3719L4.56507 10.6281ZM1.90024 8.62746L1.11624 10.6365L2.97939 11.3635L3.76339 9.35454L1.90024 8.62746ZM2.04781 10H1.12381V12H2.04781V10ZM2.03257 11.4173L3.21557 8.84133L1.39806 8.00666L0.21506 10.5827L2.03257 11.4173ZM3.20729 7.98909L2.11529 5.72809L0.314336 6.5979L1.40634 8.8589L3.20729 7.98909ZM1.21481 7.163H2.16681V5.163H1.21481V7.163ZM1.23807 6.53373L1.91707 8.23473L3.77455 7.49327L3.09555 5.79227L1.23807 6.53373ZM3.76788 8.25104L4.48188 6.55004L2.63775 5.77596L1.92375 7.47696L3.76788 8.25104ZM3.55981 7.163H4.47681V5.163H3.55981V7.163ZM3.58126 5.71804L2.47526 7.94404L4.26636 8.83396L5.37236 6.60796L3.58126 5.71804ZM6.10229 11H5.10229V12H6.10229V11ZM6.10229 8.83H7.10229V7.83H6.10229V8.83ZM4.73729 8.83V7.83H3.73729V8.83H4.73729ZM4.73729 11V12H5.73729V11H4.73729ZM3.84129 11H2.84129V12H3.84129V11ZM3.84129 6.163V5.163H2.84129V6.163H3.84129ZM4.73729 6.163H5.73729V5.163H4.73729V6.163ZM4.73729 8.116H3.73729V9.116H4.73729V8.116ZM6.10229 8.116V9.116H7.10229V8.116H6.10229ZM6.10229 6.163V5.163H5.10229V6.163H6.10229ZM6.99129 6.163H7.99129V5.163H6.99129V6.163ZM6.99129 11V12H7.99129V11H6.99129ZM7.10229 11V8.83H5.10229V11H7.10229ZM6.10229 7.83H4.73729V9.83H6.10229V7.83ZM3.73729 8.83V11H5.73729V8.83H3.73729ZM4.73729 10H3.84129V12H4.73729V10ZM4.84129 11V6.163H2.84129V11H4.84129ZM3.84129 7.163H4.73729V5.163H3.84129V7.163ZM3.73729 6.163V8.116H5.73729V6.163H3.73729ZM4.73729 9.116H6.10229V7.116H4.73729V9.116ZM7.10229 8.116V6.163H5.10229V8.116H7.10229ZM6.10229 7.163H6.99129V5.163H6.10229V7.163ZM5.99129 6.163V11H7.99129V6.163H5.99129ZM6.99129 10H6.10229V12H6.99129V10ZM9.45584 6.163L10.4475 6.29191L10.5943 5.163H9.45584V6.163ZM9.36484 6.863V7.863H10.2433L10.3565 6.99191L9.36484 6.863ZM8.30784 6.863V5.863H7.30784V6.863H8.30784ZM8.30784 11V12H9.30784V11H8.30784ZM7.41884 11H6.41884V12H7.41884V11ZM7.41884 6.863H8.41884V5.863H7.41884V6.863ZM6.31984 6.863H5.31984V7.863H6.31984V6.863ZM6.31984 6.163V5.163H5.31984V6.163H6.31984ZM8.46418 6.03408L8.37318 6.73408L10.3565 6.99191L10.4475 6.29191L8.46418 6.03408ZM9.36484 5.863H8.30784V7.863H9.36484V5.863ZM7.30784 6.863V11H9.30784V6.863H7.30784ZM8.30784 10H7.41884V12H8.30784V10ZM8.41884 11V6.863H6.41884V11H8.41884ZM7.41884 5.863H6.31984V7.863H7.41884V5.863ZM7.31984 6.863V6.163H5.31984V6.863H7.31984ZM6.31984 7.163H9.45584V5.163H6.31984V7.163ZM12.3845 6.163L13.3823 6.09658L13.3202 5.163H12.3845V6.163ZM12.7065 11V12H13.7753L13.7043 10.9336L12.7065 11ZM11.8525 11L10.8535 11.0445L10.896 12H11.8525V11ZM11.7615 8.956L12.7605 8.91152L12.7603 8.90704L11.7615 8.956ZM11.7125 6.996L12.7124 7.00989L10.733 6.79457L11.7125 6.996ZM10.9985 10.468V11.468H11.8138L11.978 10.6694L10.9985 10.468ZM10.1585 10.468L9.18132 10.6803L9.35248 11.468H10.1585V10.468ZM9.40252 6.989L10.3797 6.77665L8.40306 7.02195L9.40252 6.989ZM9.38152 8.984L10.3805 9.02909L10.3807 9.02437L9.38152 8.984ZM9.29052 11V12H10.2464L10.2895 11.0451L9.29052 11ZM8.45052 11L7.45282 10.9321L7.38019 12H8.45052V11ZM8.77952 6.163V5.163H7.84522L7.78182 6.09514L8.77952 6.163ZM9.90652 6.163L10.8869 5.96572L10.7253 5.163H9.90652V6.163ZM10.5925 9.572L9.61217 9.76928L11.5751 9.75763L10.5925 9.572ZM11.2365 6.163V5.163H10.4077L10.2539 5.97737L11.2365 6.163ZM11.3867 6.22942L11.7087 11.0664L13.7043 10.9336L13.3823 6.09658L11.3867 6.22942ZM12.7065 10H11.8525V12H12.7065V10ZM12.8515 10.9555L12.7605 8.91152L10.7625 9.00048L10.8535 11.0445L12.8515 10.9555ZM12.7603 8.90704C12.7257 8.20136 12.7058 7.48327 12.7124 7.00989L10.7126 6.98211C10.7052 7.51673 10.7273 8.28264 10.7627 9.00496L12.7603 8.90704ZM10.733 6.79457L10.019 10.2666L11.978 10.6694L12.692 7.19743L10.733 6.79457ZM10.9985 9.468H10.1585V11.468H10.9985V9.468ZM11.1357 10.2557L10.3797 6.77665L8.42532 7.20135L9.18132 10.6803L11.1357 10.2557ZM8.40306 7.02195C8.42289 7.62354 8.40992 8.26085 8.38233 8.94363L10.3807 9.02437C10.4091 8.32115 10.4241 7.62846 10.402 6.95605L8.40306 7.02195ZM8.38253 8.93891L8.29153 10.9549L10.2895 11.0451L10.3805 9.02909L8.38253 8.93891ZM9.29052 10H8.45052V12H9.29052V10ZM9.44821 11.0679L9.77721 6.23086L7.78182 6.09514L7.45282 10.9321L9.44821 11.0679ZM8.77952 7.163H9.90652V5.163H8.77952V7.163ZM8.92617 6.36028L9.61217 9.76928L11.5729 9.37472L10.8869 5.96572L8.92617 6.36028ZM11.5751 9.75763L12.2191 6.34863L10.2539 5.97737L9.6099 9.38637L11.5751 9.75763ZM11.2365 7.163H12.3845V5.163H11.2365V7.163ZM13.1575 6.163H14.1575V5.163H13.1575V6.163ZM13.1575 10.265H12.1575V11.265H13.1575V10.265ZM14.7955 10.265L15.7879 10.3879L15.927 9.265H14.7955V10.265ZM14.7045 11V12H15.5883L15.6969 11.1229L14.7045 11ZM12.2615 11H11.2615V12H12.2615V11ZM12.2615 6.163V5.163H11.2615V6.163H12.2615ZM12.1575 6.163V10.265H14.1575V6.163H12.1575ZM13.1575 11.265H14.7955V9.265H13.1575V11.265ZM13.8031 10.1421L13.7121 10.8771L15.6969 11.1229L15.7879 10.3879L13.8031 10.1421ZM14.7045 10H12.2615V12H14.7045V10ZM13.2615 11V6.163H11.2615V11H13.2615ZM12.2615 7.163H13.1575V5.163H12.2615V7.163Z" fill="black" style="mix-blend-mode:soft-light" mask="url(#path-3-outside-1_135_3224)"/>
</g>
<defs>
<filter id="filter0_ii_135_3224" x="0" y="3" width="19" height="15" filterUnits="userSpaceOnUse" color-interpolation-filters="sRGB">
<feFlood flood-opacity="0" result="BackgroundImageFix"/>
<feBlend mode="normal" in="SourceGraphic" in2="BackgroundImageFix" result="shape"/>
<feColorMatrix in="SourceAlpha" type="matrix" values="0 0 0 0 0 0 0 0 0 0 0 0 0 0 0 0 0 0 127 0" result="hardAlpha"/>
<feMorphology radius="2" operator="erode" in="SourceAlpha" result="effect1_innerShadow_135_3224"/>
<feOffset/>
<feComposite in2="hardAlpha" operator="arithmetic" k2="-1" k3="1"/>
<feColorMatrix type="matrix" values="0 0 0 0 1 0 0 0 0 1 0 0 0 0 1 0 0 0 0.25 0"/>
<feBlend mode="normal" in2="shape" result="effect1_innerShadow_135_3224"/>
<feColorMatrix in="SourceAlpha" type="matrix" values="0 0 0 0 0 0 0 0 0 0 0 0 0 0 0 0 0 0 127 0" result="hardAlpha"/>
<feMorphology radius="1" operator="dilate" in="SourceAlpha" result="effect2_innerShadow_135_3224"/>
<feOffset dx="3" dy="4"/>
<feGaussianBlur stdDeviation="2.5"/>
<feComposite in2="hardAlpha" operator="arithmetic" k2="-1" k3="1"/>
<feColorMatrix type="matrix" values="0 0 0 0 1 0 0 0 0 1 0 0 0 0 1 0 0 0 0.66 0"/>
<feBlend mode="hard-light" in2="effect1_innerShadow_135_3224" result="effect2_innerShadow_135_3224"/>
</filter>
<clipPath id="clip0_135_3224">
<rect width="16" height="16" fill="white"/>
</clipPath>
</defs>
</svg>
