<svg width="16" height="16" viewBox="0 0 16 16" fill="none" xmlns="http://www.w3.org/2000/svg">
<g clip-path="url(#clip0_440_6997)">
<g clip-path="url(#clip1_440_6997)">
<path d="M11.6181 8.91103L11.2646 8.55748L10.911 8.91103L8.78971 11.0324L8.43616 11.3859L8.78971 11.7395L11.9142 14.864C12.6953 15.645 13.9616 15.645 14.7426 14.864C15.5237 14.0829 15.5237 12.8166 14.7426 12.0355L11.6181 8.91103Z" fill="#E8D5A3" stroke="url(#paint0_linear_440_6997)"/>
<mask id="mask0_440_6997" style="mask-type:alpha" maskUnits="userSpaceOnUse" x="1" y="1" width="10" height="10">
<circle cx="6" cy="6" r="4" fill="white"/>
<circle cx="6" cy="6" r="4.5" stroke="white" stroke-opacity="0.33"/>
</mask>
<g mask="url(#mask0_440_6997)">
<circle cx="6" cy="6" r="5" fill="#CEE1F2" fill-opacity="0.411765"/>
</g>
<circle cx="6" cy="6" r="5.5" stroke="url(#paint1_linear_440_6997)"/>
</g>
<path d="M6 7.5C5.72386 7.5 5.5 7.72386 5.5 8V9C5.5 9.27614 5.72386 9.5 6 9.5H7.5L7.5 11C7.5 11.1326 7.55268 11.2598 7.64645 11.3536C7.74021 11.4473 7.86739 11.5 8 11.5H9C9.27614 11.5 9.5 11.2761 9.5 11V9.5H11C11.2761 9.5 11.5 9.27614 11.5 9V8C11.5 7.72386 11.2761 7.5 11 7.5H9.5V6C9.5 5.86739 9.44732 5.74021 9.35355 5.64645C9.25979 5.55268 9.13261 5.5 9 5.5L8 5.5C7.72386 5.5 7.5 5.72386 7.5 6L7.5 7.5H6Z" fill="url(#paint2_linear_440_6997)" stroke="url(#paint3_linear_440_6997)" stroke-linejoin="round"/>
</g>
<defs>
<linearGradient id="paint0_linear_440_6997" x1="15.379" y1="13.5205" x2="13.2913" y2="9.29883" gradientUnits="userSpaceOnUse">
<stop stop-color="#976146"/>
<stop offset="1" stop-color="#BB8652"/>
</linearGradient>
<linearGradient id="paint1_linear_440_6997" x1="11" y1="10.9866" x2="1" y2="1.01344" gradientUnits="userSpaceOnUse">
<stop stop-color="#BB814C"/>
<stop offset="1" stop-color="#CFA863"/>
</linearGradient>
<linearGradient id="paint2_linear_440_6997" x1="6" y1="6.00395" x2="11" y2="10.9961" gradientUnits="userSpaceOnUse">
<stop stop-color="#A7CA82"/>
<stop offset="1" stop-color="#70A954"/>
</linearGradient>
<linearGradient id="paint3_linear_440_6997" x1="6" y1="6.00342" x2="11" y2="10.9966" gradientUnits="userSpaceOnUse">
<stop stop-color="#65B55B"/>
<stop offset="1" stop-color="#3C6F2C"/>
</linearGradient>
<clipPath id="clip0_440_6997">
<rect width="16" height="16" fill="white"/>
</clipPath>
<clipPath id="clip1_440_6997">
<rect width="16" height="16" fill="white"/>
</clipPath>
</defs>
</svg>
